/* XPM */
static const char *foe_idle_front_6[] = {
/* columns rows colors chars-per-pixel */
"75 72 226 2 ",
"   c #000000",
".  c #04050A",
"X  c #090606",
"o  c #130003",
"O  c #16050A",
"+  c #070815",
"@  c #0E111E",
"#  c #161515",
"$  c #1D0713",
"%  c #230B1A",
"&  c #26241C",
"*  c #090C25",
"=  c #0E1529",
"-  c #13162B",
";  c #15192C",
":  c #151729",
">  c #181C32",
",  c #161A36",
"<  c #0E183D",
"1  c #2A0F21",
"2  c #250E24",
"3  c #2A1527",
"4  c #301228",
"5  c #1D223B",
"6  c #142135",
"7  c #182026",
"8  c #262529",
"9  c #35342D",
"0  c #262837",
"q  c #3C293C",
"w  c #383838",
"e  c #2A313A",
"r  c #44193A",
"t  c #41132F",
"y  c #4D4A3F",
"u  c #1D2647",
"i  c #212745",
"p  c #242A45",
"a  c #252D4F",
"s  c #29284D",
"d  c #293449",
"f  c #343A45",
"g  c #353E4B",
"h  c #393F49",
"j  c #333844",
"k  c #262D57",
"l  c #2F3759",
"z  c #2B3554",
"x  c #323B59",
"c  c #343958",
"v  c #3D2D40",
"b  c #2C3568",
"n  c #323B63",
"m  c #333C6C",
"M  c #343E77",
"N  c #561D48",
"B  c #5D2655",
"V  c #572A5C",
"C  c #4E3149",
"Z  c #68295A",
"A  c #6B315C",
"S  c #533068",
"D  c #653768",
"F  c #6D3576",
"G  c #39404A",
"H  c #3D4554",
"J  c #394376",
"K  c #3A457B",
"L  c #374173",
"P  c #35426A",
"I  c #41495A",
"U  c #6F6B5D",
"Y  c #4F5367",
"T  c #6A4A6B",
"R  c #536179",
"E  c #757C7A",
"W  c #8C3B7F",
"Q  c #827F78",
"!  c #3B3F83",
"~  c #613D84",
"^  c #3F4B84",
"/  c #3B4A91",
"(  c #3E538B",
")  c #424D86",
"_  c #424E8B",
"`  c #47548A",
"'  c #4A5897",
"]  c #545092",
"[  c #7C4B99",
"{  c #67539D",
"}  c #69468B",
"|  c #566390",
" . c #6E798E",
".. c #4E5EA5",
"X. c #555FAB",
"o. c #5C5FB0",
"O. c #604EA4",
"+. c #6A59AD",
"@. c #7358BA",
"#. c #5565A7",
"$. c #5767B7",
"%. c #5A6BB3",
"&. c #5868BB",
"*. c #5974B3",
"=. c #4966A3",
"-. c #697AA3",
";. c #636FB3",
":. c #6777B9",
">. c #7872B8",
",. c #5C5EC1",
"<. c #5D6EC4",
"1. c #556AC8",
"2. c #5B72CA",
"3. c #5E73DB",
"4. c #5C7AD3",
"5. c #697CC5",
"6. c #6477CB",
"7. c #7572CB",
"8. c #6A7DDD",
"9. c #6378D6",
"0. c #736DCF",
"q. c #873E86",
"w. c #974C92",
"e. c #8F5092",
"r. c #A14E96",
"t. c #8F6694",
"y. c #834BA3",
"u. c #8858A9",
"i. c #9855A5",
"p. c #9C56BA",
"a. c #A65AAA",
"s. c #8866BA",
"d. c #9865BE",
"f. c #9B7DA5",
"g. c #AF6FB7",
"h. c #B370B5",
"j. c #9C71C8",
"k. c #B17CC5",
"l. c #887DE1",
"z. c #C678C5",
"x. c #7887A5",
"c. c #7688BA",
"v. c #748FB3",
"b. c #7F8083",
"n. c #6D84C8",
"m. c #7488C9",
"M. c #6C81D7",
"N. c #7589D9",
"B. c #7992DA",
"V. c #7D91C4",
"C. c #6D87E9",
"Z. c #738BEA",
"A. c #7489E7",
"S. c #7B97E9",
"D. c #758DF1",
"F. c #7C97F9",
"G. c #6A93EE",
"H. c #7AA1E9",
"J. c #7DA2FF",
"K. c #A8A69B",
"L. c #8290AA",
"P. c #8795AA",
"I. c #8493BA",
"U. c #9299A8",
"Y. c #94A2B9",
"T. c #A5B4BD",
"R. c #ADAFB3",
"E. c #948793",
"W. c #8988DC",
"Q. c #899CD2",
"!. c #AC8BDB",
"~. c #93A4C5",
"^. c #98ACDC",
"/. c #BCBDC3",
"(. c #A9BADE",
"). c #9987E7",
"_. c #8494E5",
"`. c #869EFE",
"'. c #8096F8",
"]. c #9696FD",
"[. c #8A85E0",
"{. c #A097FD",
"}. c #99B2E9",
"|. c #8BA2FF",
" X c #8CABFE",
".X c #85A3F7",
"XX c #93ACFE",
"oX c #98A8FB",
"OX c #8EB3FF",
"+X c #9AB3FF",
"@X c #99B6FE",
"#X c #8AA1E4",
"$X c #A5BCFD",
"%X c #A2B8F8",
"&X c #B1B0FF",
"*X c #D797DF",
"=X c #D492E1",
"-X c #E995EA",
";X c #EEA7FA",
":X c #E1BBFF",
">X c #AFC6DE",
",X c #B8CDD5",
"<X c #ABC5FF",
"1X c #A7C6FB",
"2X c #B6CEFF",
"3X c #B4CAF9",
"4X c #AFD0FF",
"5X c #B5D2FF",
"6X c #BBD4FD",
"7X c #BED9FF",
"8X c #B9D5FA",
"9X c #BFD6E8",
"0X c #C8CBC9",
"qX c #D3DADA",
"wX c #C4DDFF",
"eX c #CADCFF",
"rX c #C6D0F2",
"tX c #F0CFFF",
"yX c #C5E2FF",
"uX c #CAE4FF",
"iX c #CAEBFF",
"pX c #D1ECFF",
"aX c #D7F3FF",
"sX c white",
"dX c #F3EAFF",
"fX c None",
/* pixels */
"fXfXfXfXfXfXfXfXfXfXfXfXfXfXfXfXfXfXfXfXfXfXfXfXfXfXfXfXfXfXfXfXfXfXfXfXfXfXfXfXfXfXfXfXfXfXfXfXfXfXfXfXfXfXfXfXfXfXfXfXfXfXfXfXfXfXfXfXfXfXfXfXfXfXfX",
"fXfXfXfXfXfXfXfXfXfXfXfXfXfXfXfXfXfXfXfXfXfXfXfXfXfXfXfXfXfXfXfXfXfXfXfXfXfXfXfXfXfXfXfXfXfXfXfXfXfXfXfXfXfXfXfXfXfXfXfXfXfXfXfXfXfXfXfXfXfXfXfXfXfXfX",
"fXfXfXfXfXfXfXfXfXfXfXfXfXfXfXfXfXfXfXfXfXfXfXfXfXfXfXfXfXfXfXfXfXfXfXfXfXfXfXfXfXfXfXfXfXfXfXfXfXfXfXfXfXfXfXfXfXfXfXfXfXfXfXfXfXfXfXfXfXfXfXfXfXfXfX",
"fXfXfXfXfXfXfXfXfXfXfXfXfXfXfXfXfXfXfXfXfXfXfXfXfXfXfXfXfXfXfXfXfXfXfXfXfXfXfXfXfXfXfXfXfXfXfXfXfXfXfXfXfXfXfXfXfXfXfXfXfXfXfXfXfXfXfXfXfXfXfXfXfXfXfX",
"fXfXfXfXfXfXfXfXfXfXfXfXfXfXfXfXfXfXfXfXfXfXfXfXfXfXfXfXfXfXfXfXfXfXfXfXfXfXfXfXfXfXfXfXfXfXfXfXfXfXfXfXfXfXfXfXfXfXfXfXfXfXfXfXfXfXfXfXfXfXfXfXfXfXfX",
"fXfXfXfXfXfXfXfXfXfXfXfXfXfXfXfXfXfXfXfXfXfXfXfXfXfXfXfXfXfXfXfXfXfXfXfXfXfXfXfXfXfXfXfXfXfXfXfXfXfXfXfXfXfXfXfXfXfXfXfXfXfXfXfXfXfXfXfXfXfXfXfXfXfXfX",
"fXfXfXfXfXfXfXfXfXfXfXfXfXfXfXfXfXfXfX              fXfXfXfXfXfXfXfXfXfXfXfXfXfXfXfXfXfXfXfXfXfXfX              fXfXfXfXfXfXfXfXfXfXfXfXfXfXfXfXfXfXfX",
"fXfXfXfXfXfXfXfXfXfXfXfXfXfXfXfXfXfX                  fXfXfXfXfXfXfXfXfXfXfXfXfXfXfXfXfXfXfXfXfX                  fXfXfXfXfXfXfXfXfXfXfXfXfXfXfXfXfXfX",
"fXfXfXfXfXfXfXfXfXfXfXfXfXfXfXfXfX7 e f g G G g z a u ; fXfXfXfXfXfXfXfXfXfXfXfXfXfXfXfXfXfXfX; u a z g G f d u 6 = fXfXfXfXfXfXfXfXfXfXfXfXfXfXfXfXfX",
"fXfXfXfXfXfXfXfXfXfXfXfXfXfXfXfX  e R x.v.v.v.v.c.*._ u         fXfXfXfXfXfXfXfXfXfXfX        u _ *.c.v.v.v.:.=.L ,   fXfXfXfXfXfXfXfXfXfXfXfXfXfXfXfX",
"fXfXfXfXfXfXfXfXfXfXfXfXfXfXfX    j x.5XaXuX2X<X$X|.%.a         . fXfXfXfXfXfXfXfXfX.         a %.`.<X2X2X5X<X|.#.i     fXfXfXfXfXfXfXfXfXfXfXfXfXfXfX",
"fXfXfXfXfXfXfXfXfXfXfXfXfXfXfX    C U.dXsXdXrX&X&X].7.) a 6 ; ; - + fXfXfXfXfXfXfX+ - ; ; 6 a ) 7.].&X&XrXpXdXrX-.j     fXfXfXfXfXfXfXfXfXfXfXfXfXfXfX",
"fXfXfXfXfXfXfXfXfXfXfXfXfXfXfX    C U.tXdXtX!.j.d.s.>.:.*.=.( m s =               = s m ( =.*.:.>.s.d.j.!.:XtXtXf.C     fXfXfXfXfXfXfXfXfXfXfXfXfXfXfX",
"fXfXfXfXfXfXfXfXfXfXfXfXfXfXfX    q t.*X;X=Xg.w.W e.u.W.|..XZ.$.M >               > M $.D..X`.W.u.q.q.w.g.=X;X*Xt.q     fXfXfXfXfXfXfXfXfXfXfXfXfXfXfX",
"fXfXfXfXfXfXfXfXfXfXfXfXfXfXfXfX  3 V e.h.z.z.h.r.w.e.j.{.oX|.A.#.b - + * - * + - b #.A.|.oX{.j.e.w.r.h.z.z.h.t.A 3   fXfXfXfXfXfXfXfXfXfXfXfXfXfXfXfX",
"fXfXfXfXfXfXfXfXfXfXfXfXfXfXfXfXfXX $ q T h.-X-Xz.i.e.i.d.).].`.M.' m k b m b k m ' M.'.].).d.i.w.i.z.-X-Xh.T q # X fXfXfXfXfXfXfXfXfXfXfXfXfXfXfXfXfX",
"fXfXfXfXfXfXfXfXfXfXfXfXfXfXfXfXfXfX    q t.*X;X=Xg.w.W q.u.[.`.F.M.$.X.$.$.$.X.$.M.F.|.[.u.q.W w.g.=X;X*Xt.q     fXfXfXfXfXfXfXfXfXfXfXfXfXfXfXfXfXfX",
"fXfXfXfXfXfXfXfXfXfXfXfXfXfXfXfXfXfXfX  8 T t.g.k.g.i.W F { 7.`. X.X_.S._._._._._..X X`.7.{ F W i.g.k.g.t.T 8   fXfXfXfXfXfXfXfXfXfXfXfXfXfXfXfXfXfXfX",
"fXfXfXfXfXfXfXfXfXfXfXfXfXfXfXfXfXfXfXfX# 8 v D e.a.i.[ ] o.8.`.XX@X%X%X%X%X%X%X%X@XXX`.8.o.] [ i.a.e.D v 3 # fXfXfXfXfXfXfXfXfXfXfXfXfXfXfXfXfXfXfXfX",
"fXfXfXfXfXfXfXfXfXfXfXfXfXfXfXfXfXfXfXfXfX    1 B q.u.+.$.2.C.`.+X<X2X6X6X2X6X6X2X<X+X`.C.2.$.+.u.q.B 1     fXfXfXfXfXfXfXfXfXfXfXfXfXfXfXfXfXfXfXfXfX",
"fXfXfXfXfXfXfXfXfXfXfXfXfXfXfXfXfXfXfXfXfXfX  $ t B } $.4.G.F.XX$X2XwXyXyXwXuXuXwX2X$XXXF.G.4.%.} B t $   fXfXfXfXfXfXfXfXfXfXfXfXfXfXfXfXfXfXfXfXfXfX",
"fXfXfXfXfXfXfXfXfXfXfXfXfXfXfXfXfXfXfXfXfXfXfXX o 2 c X.D. X@X%X3X6XwXyXyXwXyXuXwX6X3X%X@X XD.#.c 2 o X fXfXfXfXfXfXfXfXfXfXfXfXfXfXfXfXfXfXfXfXfXfXfX",
"fXfXfXfXfXfXfXfXfXfXfXfXfXfXfXfXfXfXfXfXfXfXfXfX    i #.|.<X5X2X8X6X2X2X2X2X2X2X2X6X8X2X5X<X`.#.i     fXfXfXfXfXfXfXfXfXfXfXfXfXfXfXfXfXfXfXfXfXfXfXfX",
"fXfXfXfXfXfXfXfXfXfXfXfXfXfXfXfXfXfXfXfXfXfXfXfX    p #.+XyXpXuX9X>X^.^.}.@X}.^.^.>XrXuXiX6X|.#.i     fXfXfXfXfXfXfXfXfXfXfXfXfXfXfXfXfXfXfXfXfXfXfXfX",
"fXfXfXfXfXfXfXfXfXfXfXfXfXfXfXfXfXfXfXfXfXfXfXfX    d -.<XaXaXpX,XT.U.c.B.S.B.c.U.T.qXpXpX7X|.#.i     fXfXfXfXfXfXfXfXfXfXfXfXfXfXfXfXfXfXfXfXfXfXfXfX",
"fXfXfXfXfXfXfXfXfXfXfXfXfXfXfXfXfXfXfXfXfXfXfXfX    j x.2XaXuX2X(.T.U.x.;.$.;.x.U.,X>X2X5X<X`.#.i     fXfXfXfXfXfXfXfXfXfXfXfXfXfXfXfXfXfXfXfXfXfXfXfX",
"fXfXfXfXfXfXfXfXfXfXfXfXfXfXfXfXfXfXfXfXfXfXfXfX  . H P.7X7X^.I.Y.0X0XY.| M | Y.qXqXT.I._. X`.%.a .   fXfXfXfXfXfXfXfXfXfXfXfXfXfXfXfXfXfXfXfXfXfXfXfX",
"fXfXfXfXfXfXfXfXfXfXfXfXfXfXfXfXfXfXfXfXfXfXfXfX  . I Y.7X^.| H  .qXsX/.Y ; Y /.sXqXE.H ^ M.`.:.l .   fXfXfXfXfXfXfXfXfXfXfXfXfXfXfXfXfXfXfXfXfXfXfXfX",
"fXfXfXfXfXfXfXfXfXfXfXfXfXfXfXfXfXfXfXfXfXfXfXfX    I ~.2XI.0   I 0XsXfXw   w R.sX0XI   < &.`.5.x     fXfXfXfXfXfXfXfXfXfXfXfXfXfXfXfXfXfXfXfXfXfXfXfX",
"fXfXfXfXfXfXfXfXfXfXfXfXfXfXfXfXfXfXfXfXfXfXfX      H Q.<XV.d   & Q R.E.8   8  .R.fX&   u 6.|.n.x       fXfXfXfXfXfXfXfXfXfXfXfXfXfXfXfXfXfXfXfXfXfXfX",
"fXfXfXfXfXfXfXfXfXfXfXfXfX. .     fXfXfXfXfX        P V.+Xm.x     & w e +   + 0 w #     l n.|.n.n         fXfXfXfXfX    . . fXfXfXfXfXfXfXfXfXfXfXfXfX",
"fXfXfXfXfXfXfXfXfXfXfXfX            fXfXfX.         n M.`.n.n         .       .         n M.`.M.n         . fXfXfX            fXfXfXfXfXfXfXfXfXfXfXfX",
"fXfXfXfXfXfXfXfXfXfXfXfX    # 0 j g fXfXfX* - : > z ' M.F.M.' x w w 9 & X   X & 9 9 e x ' N.F.N.' z > : - * fXfXfXg j 0 #     fXfXfXfXfXfXfXfXfXfXfXfX",
"fXfXfXfXfXfXfXfXfXfXfXfX    e R x. .g     , m ` #.;.5.M.C.9.2.:.~.R.K.U &   & U K.R.I.:.2.8.C.N.5.;.#.` m ,     g  .x.R e     fXfXfXfXfXfXfXfXfXfXfXfX",
"fXfXfXfXfXfXfXfXfXfXfXfX    H ~.2X~.H   . k $.D.|.`.A.6.$.&.3.`.pXsXsXK.9   9 K.sXsXeX`.3.1.$.6.A.`.|.D.$.k .   H ~.2X~.H     fXfXfXfXfXfXfXfXfXfXfXfX",
"fXfXfXfXfXfXfXfXfXfXfX. * a  .>XaX,XE h l ..D.OX@XXXm.| K / 1.`.pXsXsXR.Y a Y R.sXsXeX`.1./ J ' m.XX@XOXD...l h E ,XaX>X .a * . fXfXfXfXfXfXfXfXfXfXfX",
"fXfXfXfXfXfXfXfXfXfX. , M %.#X5XuXrXT.L.c.B.J. X XF.%.l > u / M.%XwXeX(.c.%.c.(.eXwX%XM./ u > l %.F. X XJ.B.c.L.T.rXuX5X#X%.M , . fXfXfXfXfXfXfXfXfXfX",
"fXfXfXfXfXfXfXfXfX    i #.`.<X2X2X8X6X2X<X+X`.F.C.$.m @   @ m $.A.'.`.|.|.`.|.|.`.'.A.$.m @   @ m $.C.F.`.+X<X2X6X8X2X2X<X`.#.i     fXfXfXfXfXfXfXfXfX",
"fXfXfXfXfXfXfXfXfX    d -.$X7X2X$X1X1X4X<X&X).7...b =     ; J $.9.3.9.Z. X@X XZ.9.3.3.$.J ;     = n ..7.).&X<X4X1X1X$X2X7X$X-.d     fXfXfXfXfXfXfXfXfX",
"fXfXfXfXfXfXfXfXfX    j x.2XuX2X+X.XH.S._.).j.[ S -       0 _ 2.9.1.1.M..XXX.XM.1.1.9.2._ 0       - S [ j.)._.S.H..X+X2XuX2Xx.j     fXfXfXfXfXfXfXfXfX",
"fXfXfXfXfXfXfXfXfX    f x.2XuX<X`.C.2.$.+.y.q.Z 4         5 ) $.<.&.$.6.S.`.S.6.$.$.<.$.) 5         4 Z q.y.+.$.2.C.`.<XuX2Xx.f     fXfXfXfXfXfXfXfXfX",
"fXfXfXfXfXfXfXfX. * a | ~.8X6X@XD.3.,.O.~ V N t %       . ; k L _ ..&.8.D.F.D.8.&..._ L k ; .       % t N V ~ O.,.3.Z.@X6X8X~.| a * . fXfXfXfXfXfXfXfX",
"fXfXfXfXfXfXfX  , M %.#X3X6X1XH.4.,.@.[ D r % o X fXfXfXfX  . = a _ <.C.A.A.A.A.<._ a = .   fXfXfXfXX o % r D [ @.<.4.H.1X6X3X#X%.M ,   fXfXfXfXfXfXfX",
"fXfXfXfXfXfX    i ..`.2XwX2X}.n.$.+.y.q.B 1     fXfXfXfXfXfX    > J $.9.<.$.<.9.$.J >     fXfXfXfXfXfX    1 B q.y.+.$.n.}.2XwX2X`...i     fXfXfXfXfXfX",
"fXfXfXfXfXfX    d -.<XyXyX<X#X:.{ ~ F Z r %   fXfXfXfXfXfXfX+ = 5 n ^ _ J m J _ ^ n 5 = + fXfXfXfXfXfXfX  % r Z F ~ { :.#X<XyXyX<X-.d     fXfXfXfXfXfX",
"fXfXfXfXfXfX    j x.2XiX8X+XW.s.} V r 4 % O fXfXfXfXfXfXfXfXK L n a 5 ; - ; - ; 5 a n L J fXfXfXfXfXfXfXfXO % 4 r V } s.W.+X8XiX2Xx.j     fXfXfXfXfXfX",
"fXfXfXfXfXfX    f x.2XyX1X`.l.d.q.N %     fXfXfXfXfXfXfXfXfX9.$.) u               u ) $.9.fXfXfXfXfXfXfXfXfX    % N q.d.l.`.1XyX2Xx.f     fXfXfXfXfXfX",
"fXfXfXfXfXfX    h L.8X7XOXA.0.p.w.Z 1     fXfXfXfXfXfXfXfXfXD.6.' i               i ' 9.D.fXfXfXfXfXfXfXfXfX    1 Z w.p.0.A.OX7X8XL.h     fXfXfXfXfXfX",
"fXfXfXfXfXfX    h L.2X5XH.<.@.p.r.Z 4     fXfXfXfXfXfXfXfXfXC.<.) 5     fXfXfX    5 ) <.C.fXfXfXfXfXfXfXfXfX    4 Z r.p.@.<.H.5X6XL.h     fXfXfXfXfXfX",
"fXfXfXfXfXfX    h L.2X4XS.$.O.y.q.B 1     fXfXfXfXfXfXfXfXfX8.$.K 5     fXfXfX    5 K $.8.fXfXfXfXfXfXfXfXfX    1 B q.y.O.$.S.4X2XL.h     fXfXfXfXfXfX",
"fXfXfXfXfXfX    h L.6X6X.X&.] S V r % X fXfXfXfXfXfXfXfXfXfX8.<.' a . fXfXfXfXfX. a ' <.8.fXfXfXfXfXfXfXfXfXfXX % r V S ] &..X6X6XL.G     fXfXfXfXfXfX",
"fXfXfXfXfXfX    G L.7XwXXX<.! s 2 O o fXfXfXfXfXfXfXfXfXfXfX8.9.$.K fXfXfXfXfXfXfXK $.9.8.fXfXfXfXfXfXfXfXfXfXfXo O 2 s ! <.XXwX7XL.G     fXfXfXfXfXfX",
"fXfXfXfXfXfX    h x.2X7XXX$.b =     fXfXfXfXfXfXfXfXfXfXfXfX$.$.$.fXfXfXfXfXfXfXfXfX$.$.$.fXfXfXfXfXfXfXfXfXfXfXfX    = b $.XX7X2Xx.g     fXfXfXfXfXfX",
"fXfXfXfXfXfX    g x.$X$Xn.^ u @   fXfXfXfXfXfXfXfXfXfXfXfX#.) J m fXfXfXfXfXfXfXfXfXL J K _ fXfXfXfXfXfXfXfXfXfXfXfX  @ u ^ n.$X$Xx.g     fXfXfXfXfXfX",
"fXfXfXfXfXfX    c :.oXB.` 5 .   fXfXfXfXfXfXfXfXfXfXfXfX`.#.n > + fXfXfXfXfXfXfXfXfX@ > a ^ $.fXfXfXfXfXfXfXfXfXfXfXfX  . 5 ` B.oX:.c     fXfXfXfXfXfX",
"fXfXfXfXfXfX    l 5.`.5.l     fXfXfXfXfXfXfXfXfXfXfXfX<X`.%.z     fXfXfXfXfXfXfXfXfX    5 K $.8.fXfXfXfXfXfXfXfXfXfXfXfX    l 5.`.5.l     fXfXfXfXfXfX",
"fXfXfXfXfXfX    x n. Xn.x     fXfXfXfXfXfXfXfXfXfXfXfX@X|.5.P   fXfXfXfXfXfXfXfXfXfXfX  p _ $.6.fXfXfXfXfXfXfXfXfXfXfXfX    x n. Xn.x     fXfXfXfXfXfX",
"fXfXfXfXfXfX    x m.@Xm.x     fXfXfXfXfXfXfXfXfXfXfXfXXX|.A.#.fXfXfXfXfXfXfXfXfXfXfXfXfXm ' $.&.fXfXfXfXfXfXfXfXfXfXfXfX    x m.+Xm.x     fXfXfXfXfXfX",
"fXfXfXfXfXfX    l 5.`.5.l     fXfXfXfXfXfXfXfXfXfXfXfX`.`.`.fXfXfXfXfXfXfXfXfXfXfXfXfXfXfX$.$.$.fXfXfXfXfXfXfXfXfXfXfXfX    l 5.`.5.l     fXfXfXfXfXfX",
"fXfXfXfXfXfXfX  p ` #.` d . fXfXfXfXfXfXfXfXfXfXfXfXfX'.'.'.fXfXfXfXfXfXfXfXfXfXfXfXfXfXfX6.2.2.fXfXfXfXfXfXfXfXfXfXfXfXfX. d ` #.` p   fXfXfXfXfXfXfX",
"fXfXfXfXfXfXfXfX; 0 p p > fXfXfXfXfXfXfXfXfXfXfXfXfXfXA.A.A.fXfXfXfXfXfXfXfXfXfXfXfXfXfXfX9.9.9.fXfXfXfXfXfXfXfXfXfXfXfXfXfX> p p 0 ; fXfXfXfXfXfXfXfX",
"fXfXfXfXfXfXfXfXfX      fXfXfXfXfXfXfXfXfXfXfXfXfXfXfX$.$.$.fXfXfXfXfXfXfXfXfXfXfXfXfXfXfX$.$.$.fXfXfXfXfXfXfXfXfXfXfXfXfXfXfX      fXfXfXfXfXfXfXfXfX",
"fXfXfXfXfXfXfXfXfX      fXfXfXfXfXfXfXfXfXfXfXfXfXfXfXm m m fXfXfXfXfXfXfXfXfXfXfXfXfXfXfXL J J fXfXfXfXfXfXfXfXfXfXfXfXfXfXfX      fXfXfXfXfXfXfXfXfX",
"fXfXfXfXfXfXfXfXfXfXfXfXfXfXfXfXfXfXfXfXfXfXfXfXfXfXfX; ; ; fXfXfXfXfXfXfXfXfXfXfXfXfXfXfX> > > fXfXfXfXfXfXfXfXfXfXfXfXfXfXfXfXfXfXfXfXfXfXfXfXfXfXfX",
"fXfXfXfXfXfXfXfXfXfXfXfXfXfXfXfXfXfXfXfXfXfXfXfXfXfXfX      fXfXfXfXfXfXfXfXfXfXfXfXfXfXfX      fXfXfXfXfXfXfXfXfXfXfXfXfXfXfXfXfXfXfXfXfXfXfXfXfXfXfX",
"fXfXfXfXfXfXfXfXfXfXfXfXfXfXfXfXfXfXfXfXfXfXfXfXfXfXfX      fXfXfXfXfXfXfXfXfXfXfXfXfXfXfX      fXfXfXfXfXfXfXfXfXfXfXfXfXfXfXfXfXfXfXfXfXfXfXfXfXfXfX",
"fXfXfXfXfXfXfXfXfXfXfXfXfXfXfXfXfXfXfXfXfXfXfXfXfXfXfXfXfXfXfXfXfXfXfXfXfXfXfXfXfXfXfXfXfXfXfXfXfXfXfXfXfXfXfXfXfXfXfXfXfXfXfXfXfXfXfXfXfXfXfXfXfXfXfX",
"fXfXfXfXfXfXfXfXfXfXfXfXfXfXfXfXfXfXfXfXfXfXfXfXfXfXfXfXfXfXfXfXfXfXfXfXfXfXfXfXfXfXfXfXfXfXfXfXfXfXfXfXfXfXfXfXfXfXfXfXfXfXfXfXfXfXfXfXfXfXfXfXfXfXfX",
"fXfXfXfXfXfXfXfXfXfXfXfXfXfXfXfXfXfXfXfXfXfXfXfXfXfXfXfXfXfXfXfXfXfXfXfXfXfXfXfXfXfXfXfXfXfXfXfXfXfXfXfXfXfXfXfXfXfXfXfXfXfXfXfXfXfXfXfXfXfXfXfXfXfXfX",
"fXfXfXfXfXfXfXfXfXfXfXfXfXfXfXfXfXfXfXfXfXfXfXfXfXfXfXfXfXfXfXfXfXfXfXfXfXfXfXfXfXfXfXfXfXfXfXfXfXfXfXfXfXfXfXfXfXfXfXfXfXfXfXfXfXfXfXfXfXfXfXfXfXfXfX",
"fXfXfXfXfXfXfXfXfXfXfXfXfXfXfXfXfXfXfXfXfXfXfXfXfXfXfXfXfXfXfXfXfXfXfXfXfXfXfXfXfXfXfXfXfXfXfXfXfXfXfXfXfXfXfXfXfXfXfXfXfXfXfXfXfXfXfXfXfXfXfXfXfXfXfX",
"fXfXfXfXfXfXfXfXfXfXfXfXfXfXfXfXfXfXfXfXfXfXfXfXfXfXfXfXfXfXfXfXfXfXfXfXfXfXfXfXfXfXfXfXfXfXfXfXfXfXfXfXfXfXfXfXfXfXfXfXfXfXfXfXfXfXfXfXfXfXfXfXfXfXfX"
};
