/* XPM */
static const char *foe_idle_front_1[] = {
/* columns rows colors chars-per-pixel */
"75 72 245 2 ",
"   c #010101",
".  c #04060A",
"X  c #07080D",
"o  c #090A0D",
"O  c #0C0202",
"+  c #12110C",
"@  c #0C0D13",
"#  c #0C0E1A",
"$  c #050517",
"%  c #190A16",
"&  c #0E101D",
"*  c #0A1211",
"=  c #17161A",
"-  c #130204",
";  c #230817",
":  c #2A0D1B",
">  c #25221A",
",  c #0E1223",
"<  c #121524",
"1  c #131629",
"2  c #181B28",
"3  c #161C33",
"4  c #191E33",
"5  c #181C39",
"6  c #281828",
"7  c #30152A",
"8  c #1C2128",
"9  c #1A2135",
"0  c #1C223C",
"q  c #1A2538",
"w  c #27262C",
"e  c #33322C",
"r  c #252936",
"t  c #362639",
"y  c #2A333C",
"u  c #36373A",
"i  c #34202D",
"p  c #461F37",
"a  c #1E2641",
"s  c #1E2851",
"d  c #232A44",
"f  c #232B4B",
"g  c #242745",
"h  c #2A3449",
"j  c #343A47",
"k  c #272E53",
"l  c #2B335B",
"z  c #2A3353",
"x  c #323A58",
"c  c #322942",
"v  c #2D3662",
"b  c #2E3966",
"n  c #323C63",
"m  c #333D6B",
"M  c #3D3B67",
"N  c #343E73",
"B  c #431C41",
"V  c #593557",
"C  c #4E2E4D",
"Z  c #533566",
"A  c #6A3567",
"S  c #722E79",
"D  c #653158",
"F  c #3A414C",
"G  c #394457",
"H  c #384468",
"J  c #394376",
"K  c #3B467C",
"L  c #394577",
"P  c #3F516D",
"I  c #4D4D4E",
"U  c #524F58",
"Y  c #4A5466",
"T  c #444B79",
"R  c #4A546F",
"E  c #69476C",
"W  c #734A72",
"Q  c #586377",
"!  c #6C6B68",
"~  c #625F55",
"^  c #81347D",
"/  c #812C77",
"(  c #6F3D88",
")  c #5D3684",
"_  c #3E4A83",
"`  c #3B4889",
"'  c #3D5286",
"]  c #424D85",
"[  c #44538C",
"{  c #465587",
"}  c #5E4894",
"|  c #465394",
" . c #4C5B93",
".. c #4B5A9C",
"X. c #485899",
"o. c #545C99",
"O. c #505587",
"+. c #754B94",
"@. c #704F93",
"#. c #5B6798",
"$. c #57698B",
"%. c #636D87",
"&. c #67768D",
"*. c #687996",
"=. c #776D93",
"-. c #555BA9",
";. c #665AA7",
":. c #7855A4",
">. c #675EB3",
",. c #5464AC",
"<. c #5768A7",
"1. c #5B6BBA",
"2. c #5867B5",
"3. c #5E73B3",
"4. c #5B72A6",
"5. c #6564AA",
"6. c #6677AA",
"7. c #6869B6",
"8. c #7769B7",
"9. c #6373BA",
"0. c #7772BD",
"q. c #706AA3",
"w. c #5B6DC3",
"e. c #5F74CE",
"r. c #6274C2",
"t. c #6779C8",
"y. c #7876C7",
"u. c #687CD6",
"i. c #6E73C9",
"p. c #657BE3",
"a. c #853C84",
"s. c #8A3A83",
"d. c #8B448C",
"f. c #86468A",
"g. c #94468C",
"h. c #8D4A91",
"j. c #854B94",
"k. c #964C94",
"l. c #96549A",
"z. c #8D5793",
"x. c #A3559C",
"c. c #A14E95",
"v. c #896393",
"b. c #986598",
"n. c #8A5CA8",
"m. c #9859A4",
"M. c #A45AA4",
"N. c #B15EAC",
"B. c #8666B8",
"V. c #9668B8",
"C. c #906DB1",
"Z. c #A666AA",
"A. c #AA69B4",
"S. c #B86BB6",
"D. c #A774B5",
"F. c #B675BC",
"G. c #B268AD",
"H. c #A1639F",
"J. c #C275BD",
"K. c #9277C9",
"L. c #B176C6",
"P. c #CA7CC7",
"I. c #74808E",
"U. c #7486A9",
"Y. c #798AB5",
"T. c #7C95B8",
"R. c #6D84B6",
"E. c #7889CA",
"W. c #6C83D8",
"Q. c #7788D8",
"!. c #758BD0",
"~. c #6D85E3",
"^. c #768AE5",
"/. c #788AE7",
"(. c #7B92EB",
"). c #7D95F2",
"_. c #7999F2",
"`. c #8D8C89",
"'. c #8292B4",
"]. c #8C9CB9",
"[. c #8B92B0",
"{. c #AB8BB7",
"}. c #9CA7B8",
"|. c #A4A4A4",
" X c #ACB0B8",
".X c #8597C6",
"XX c #8782DC",
"oX c #869BD6",
"OX c #9A8ACD",
"+X c #A685C6",
"@X c #B883CA",
"#X c #AF90D4",
"$X c #89A3D7",
"%X c #99ADD7",
"&X c #9AADCF",
"*X c #ABB0D1",
"=X c #8598EA",
"-X c #859CFB",
";X c #8498F6",
":X c #9799F8",
">X c #8F8DEA",
",X c #AF91EB",
"<X c #99A9E8",
"1X c #9DB2E5",
"2X c #8AA3FE",
"3X c #8AA3F9",
"4X c #93ABFE",
"5X c #9AA9FC",
"6X c #9CB5FA",
"7X c #8DA3E8",
"8X c #A7BAE6",
"9X c #B3B7EA",
"0X c #A9A7FC",
"qX c #A3BAFC",
"wX c #A4B8F9",
"eX c #B9B5FC",
"rX c #ADAAEB",
"tX c #C483CA",
"yX c #C98AD2",
"uX c #D689D8",
"iX c #C393DA",
"pX c #D392D9",
"aX c #CF9AE8",
"sX c #D8B6FC",
"dX c #C9ADF5",
"fX c #E3B1FC",
"gX c #E39AEB",
"hX c #B7C1CD",
"jX c #ACC4FC",
"kX c #B4CBFD",
"lX c #B7C7F9",
"zX c #BBD4FE",
"xX c #B3C7E7",
"cX c #D3D4D6",
"vX c #C7C6FE",
"bX c #D4CAFF",
"nX c #C3DBFF",
"mX c #C3D5FF",
"MX c #DDD1FF",
"NX c #EDC6FF",
"BX c #CCE6FF",
"VX c #D9E6FF",
"CX c #E6F2FF",
"ZX c #EDEAFF",
"AX c None",
/* pixels */
"AXAXAXAXAXAXAXAXAXAXAXAXAXAXAXAXAXAXAXAXAXAXAXAXAXAXAXAXAXAXAXAXAXAXAXAXAXAXAXAXAXAXAXAXAXAXAXAXAXAXAXAXAXAXAXAXAXAXAXAXAXAXAXAXAXAXAXAXAXAXAXAXAXAXAX",
"AXAXAXAXAXAXAXAXAXAXAXAXAXAXAXAXAXAXAXAXAXAXAXAXAXAXAXAXAXAXAXAXAXAXAXAXAXAXAXAXAXAXAXAXAXAXAXAXAXAXAXAXAXAXAXAXAXAXAXAXAXAXAXAXAXAXAXAXAXAXAXAXAXAXAX",
"AXAXAXAXAXAXAXAXAXAXAXAXAXAXAXAXAXAXAXAXAXAXAXAXAXAXAXAXAXAXAXAXAXAXAXAXAXAXAXAXAXAXAXAXAXAXAXAXAXAXAXAXAXAXAXAXAXAXAXAXAXAXAXAXAXAXAXAXAXAXAXAXAXAXAX",
"AXAXAXAXAXAXAXAXAXAXAXAXAXAXAXAXAXAXAX              AXAXAXAXAXAXAXAXAXAXAXAXAXAXAXAXAXAXAXAXAXAXAX              AXAXAXAXAXAXAXAXAXAXAXAXAXAXAXAXAXAXAX",
"AXAXAXAXAXAXAXAXAXAXAXAXAXAXAXAXAXAXo o o o o X . . . AXAXAXAXAXAXAXAXAXAXAXAXAXAXAXAXAXAXAXAXAXX X o o o o . . . AXAXAXAXAXAXAXAXAXAXAXAXAXAXAXAXAXAX",
"AXAXAXAXAXAXAXAXAXAXAXAXAXAXAXAXAXy j F G G G x h d 0 < AXAXAXAXAXAXAXAXAXAXAXAXAXAXAXAXAXAXAX4 f z x G G x h a 3 , AXAXAXAXAXAXAXAXAXAXAXAXAXAXAXAXAX",
"AXAXAXAXAXAXAXAXAXAXAXAXAXAXAXAX8 G %.U.'.T.Y.R.4. .H q         . AXAXAXAXAXAXAXAXAX.       o z [ 3.R.Y.U.U.4.[ v 1   AXAXAXAXAXAXAXAXAXAXAXAXAXAXAXAX",
"AXAXAXAXAXAXAXAXAXAXAXAXAXAXAX  2 Y '.kXBXnXjXwX3XQ. .f X       X AXAXAXAXAXAXAXAXAXX .   X 4 L r.3XqXkXjXqX5XQ.] 4     AXAXAXAXAXAXAXAXAXAXAXAXAXAXAX",
"AXAXAXAXAXAXAXAXAXAXAXAXAXAXAX  2 U |.ZXZXZXdX0X:XXX7.T z q 1 1 < @ AXAXAXAXAXAXAX& 3 0 0 f H o.y.:XeXdXvXbXbX0X5.g     AXAXAXAXAXAXAXAXAXAXAXAXAXAXAX",
"AXAXAXAXAXAXAX        AXAXAXAX  2 U {.NXNXsX#XK.V.B.8.7.<.X.K v g #             X 4 l K X.<.3.8.B.V.L.@X,XsXfXaX=.t     AXAXAXAX      . AXAXAXAXAXAXAX",
"AXAXAXAXAXAX      . X o AXAXAX  = C v.yXgXyXA.l.h.j.B.XX).(.u...n 3 .     . . X < k [ r.^.;X>XK.n.h.k.M.F.yXyXD.E i     AXAXAX@ X .       AXAXAXAXAXAX",
"AXAXAXAXAXAX    = w j j AXAXAXAX6 C E z.H.S.S.N.x.k.n.K.:X:X;Xu.X.l 3 , 1 3 3 3 f K 1./.:X:X>XK.l.k.x.S.F.G.v.E C 6   AXAXAXAXF j w =     AXAXAXAXAXAX",
"AXAXAXAXAXAX  o y Q &.Q y   AXAXAXAXt C W Z.uXuXF.M.l.n.K.XX>X/.r.X.N v b N N N _ ,.W.;X>XK.V.m.l.Z.P.uXtXb.V i % AXAXAXAXo j %.&.Y r     AXAXAXAXAXAX",
"AXAXAXAXAXAXX r R '.%XU.j X   AXAXAX  = C v.yXpXtXZ.l.h.j.B.XX;X(.u.1.2.2.1.1.1.r.W.(.=XK.n.h.k.M.F.yXyXD.W i     AXAXAX@ r R '.%XU.j .   AXAXAXAXAXAX",
"AXAXAXAXAX0 z T 6.7X6X.XQ j 2 AXAXAXAX  t E v.Z.A.Z.l.f.+.8.Q.-X2X3X=X=X=X=X=X=X=X-X-X=Xy.:.+.d.M.A.Z.v.W C 6   AXAXAXAXF R *.$X6XE.O.f , . AXAXAXAXAX",
"AXAXAXAX2 l  .r.Q.(.oX.XY.&.Y w   AXAXAXAXt C V f.m.n.:.;.r.^.2X4X6XwXwXwXqXqXqX6X6X2X;Xu.>.@.+.l.k.W C i 2 AXAXAXAX@ j %.'.oXoX^.W.r.o.H 4   AXAXAXAX",
"AXAXAX  2 n 9.;X-Xu.9.E.1X%X&.j X   AXAXAX  % 7 V +.:.7.r.W.).4XqXjXkXzXzXkXkXkXkXqX4X;X~.r.2.;.+.A B %     AXAXAX@ r Y Y.wXwXQ.9.t./.Q. .r     AXAXAX",
"AXAXAX  = H R.5X:Xy.;.0.7X6XT.Q j 8 AXAXAXAX  ; B Z } 7.W._.2X6XjXzXnXnXnXnXnXnXzXjX6X3X_.~.r.o.Z B 7 %   AXAXAXAXF Y *.$XqX7Xy.;.i.;X7X6.h     AXAXAX",
"AXAXAX  = Y Y.wX0XK.@.;.y.=X$XT.&.Y w   AXAXAXAX6 c T 1.).4X6XjXlXzXnXnXnXnXnXnXzXkXjX6X4X;XW.| f % - AXAXAXAX= F %.Y.oXoXQ.y.:.:.K.rX<X*.h     AXAXAX",
"AXAXAX. w Y '.9XrXD.f.( } 9.=X6X%X&.j .   AXAXAX. 2 n 3.4XjXzXkXkXkXkXkXkXkXlXlXkXkXkXkXjX4XQ.] 4     AXAXAX@ r Y Y.wXqXQ.;.} ( z.{.9X%X*.h .   AXAXAX",
"AXAXAX5 x $.&XxX9XD.a.S ) ;.Q.5X6XY.R d , AXAXAX  * x 6.qXBXBXnXxXxX1X%X1X<X1X1X8XxXzXzXzX6XQ.[ 0     AXAXAXz H #.oXwX<X0.} S S l.+X9X8XY.P 3 . AXAXAX",
"  # 5 v  .E.1XlX*XZ.a.S S +.8.Q.^.!.3. .H r       * G Y.kXBXBXnXxX&X].'.E.!..X.X&XhXxXnXzX6XQ.[ 0       @ n  .3.!.Q.XX0.:.( S ^ l.+X9XjX$X4.m 5 $     ",
"  & g ] t.7XwX9X#Xm.a./ a.f.:.;.w.W.(.Q.#.h X     w Q .XkXnXzXxX*X}.[.U.6.4.6.[.}.*XxXwXqX4XQ. .d .     4 T r.=X).u.2.} +.d.s.s.z.D.*X8X6XQ...l ,     ",
"  = x #.=X0XrXOXC.z.d.s.d.h.:.-.,.t./.XX8.T z q d H *.&XxXxX&X'.[. X X[.$.T %.}.hXhX}.Y.E.(.^.9.] k 0 d n o.y.>X/.w.-.} j.k.g.d.j.n.{.OX<X7Xt.T 9     ",
"  2 G U.<XrX+Xm.f.f.d.k.l.m.n.>.-.>.8.B.8.5.<...X.<.E.8X8X].%.Y I.*XcX XQ j Q  XcXhX=.Y ] r.(.^.1.X.| ..<.7.8.B.8.>.-.;.n.x.c.g.f.j.z.C.OXrXoX$.r     ",
"  8 Y '.9X9XD.d.S ^ d.m.Z.D.C.0.2.;.+.j.V.XX(.~.r.9.E.1X%X*.j w U |.cX|.I w I |.cX|.I 2 s ,.).;Xu.1.r.Q.>XK.n.f.+.;.7.y.V.A.M.k.f.a.a.l.+X9X%X*.y     ",
"  8 Y '.9XdXD.s./ ^ h.Z.F.L.K.0.;.;.j.m.A.,X>XQ.2.<.9.oXoX$.9   > ~ `.! e + e ! `.~ >   5 <.).).r.-.5.K.,XL.A.k.+.;.7.y.K.F.G.l.a.^ a.l.+X9X%XI.j     ",
"  8 Y '.lXdX@Xk.s.a.h.Z.F.@XOX0.5.;.n.G.L.L.V.} M n  .E.!.#.d     = e e + O + w e =     f 2.^.W.[ l Z :.L.L.L.Z.n.;.7.0.+XtXS.l.f.a.h.Z.#X9X%X*.y     ",
"  8 Y '.lXvXiXA.k.d.k.Z.P.iX#Xy.7.7.B.Z.x.g.A B % < H 3.Q.3.l o     o o .   O X o X @ 4 L r.W.<.z % ; C f.M.Z.V.B.7.i.K.#XyXJ.x.d.h.m.L.dXlX%X&.y     ",
"  8 Y '.lXbXaXL.M.k.l.S.uXgXdX>Xu.7.@.E D C p ; O X z ,.W.u. .x u u e > o O + w j I G T <.t.t.[ 0   O : C A E @.q.y.XX,XdXgXP.N.k.m.A.iXdXvX%X%.y     ",
"  8 Y '.lXMXdXtXG.x.M.S.uXfXsX0X/.<.M 7 ; ; % O   @ f X.u.~.W.0.[.|.`.~ > + e ! |.&X.Xt.r.r.2.K 4     - ; 6 7 j O.E.5XdXsXgXP.N.m.M.F.iXsXvX%X%.y     ",
"  2 Y Y.lXMXsXyXG.k.d.l.F.iXrX:Xt.[ 0             # g _ 1.~.).4XzXVXcX`.I r U  XZXCXkX(.u.2.| l <             < H 9.=X0XaXtXZ.k.h.m.L.aXbXvX%X$.r     ",
"  2 H U.eXMXfXpXZ.W V V E @.=.#.{ n 4           . & 0 v ] 2.Q.4XmXCXVX*X&.R *.hXCXCXkX/.2.` v 0 #             . d T #.q.=.W A V A z.@XfXNXvXoX$.q     ",
"  2 H 6.5XbXfXpXb.V 6 % 6 t c r q 4 , AXAXAXAXAXAXAXAX4 f J ,./.6XkXkX<XE.E.oX8XkXqX=Xr.` f 1 X AXAXAXAXAXAXAXAX2 r d c c t 6 6 t W @XfXNXeX!.{ q     ",
"  2 n 3.:XeXaXD.W i         .       AXAXAXAXAXAXAXAXAX  & g _ w./.;X-X-X-X-X-X-X).^.t.X.l <     AXAXAXAXAXAXAXAXAX              = V b.iXdX0XQ.' q     ",
"  < H 9.-X:XC.E p :               AXAXAXAXAXAXAXAXAXAX  . 5 J 2.p.p.~.).3X4X3X^.e.w.2.| l <     AXAXAXAXAXAXAXAXAXAX            o t E v.OX:X/.X.a     ",
"  < H t.;XE.T 7 - O AXAXAXAXAXAXAXAXAXAXAXAXAXAXAXAXAX  X 0 _ w.u.e.e.W.;X2X).u.w.w.1...n 1     AXAXAXAXAXAXAXAXAXAXAXAXAXAXAXAXAX= 6 C o.Q.(.<.f     ",
"  < n <.t.o.d     AXAXAXAXAXAXAXAXAXAXAXAXAXAXAXAXAXAX  # a K ,.r.w.w.u./.).^.t.2.,.,.| l <     AXAXAXAXAXAXAXAXAXAXAXAXAXAXAXAXAXAX  < n <.t.o.d     ",
"  < h L T H 9   AXAXAXAXAXAXAXAXAXAXAXAXAXAXAXAXAXAXAXAX, 0 l K | ,.w.u.^.^.W.t.,.| K v 0 &   AXAXAXAXAXAXAXAXAXAXAXAXAXAXAXAXAXAXAXAX  q H { H q     ",
"AXAX3 q q 3 = AXAXAXAXAXAXAXAXAXAXAXAXAXAXAXAXAXAXAXAXAXAX& < 0 v | w.u.~.u.u.r.-.J g < X   AXAXAXAXAXAXAXAXAXAXAXAXAXAXAXAXAXAXAXAXAXAX< 9 9 4 < AXAX",
"AXAXAX      AXAXAXAXAXAXAXAXAXAXAXAXAXAXAXAXAXAXAXAXAXAXAXAX. < f K ,.w.1.,.,.,.| v 2     AXAXAXAXAXAXAXAXAXAXAXAXAXAXAXAXAXAXAXAXAXAXAXAX      AXAXAX",
"AXAXAX      AXAXAXAXAXAXAXAXAXAXAXAXAXAXAXAXAXAXAXAXAXAXAXAX1 4 f n K K N m N K J k 4 & X AXAXAXAXAXAXAXAXAXAXAXAXAXAXAXAXAXAXAXAXAXAXAXAX      AXAXAX",
"AXAXAXAXAXAXAXAXAXAXAXAXAXAXAXAXAXAXAXAXAXAXAXAXAXAXAXAXAXAXm m l f 4 1 < 1 2 4 a f f k k AXAXAXAXAXAXAXAXAXAXAXAXAXAXAXAXAXAXAXAXAXAXAXAXAXAXAXAXAXAX",
"AXAXAXAXAXAXAXAXAXAXAXAXAXAXAXAXAXAXAXAXAXAXAXAXAXAXAXAXAXAX2.X.J 5             & g m _ | AXAXAXAXAXAXAXAXAXAXAXAXAXAXAXAXAXAXAXAXAXAXAXAXAXAXAXAXAXAX",
"AXAXAXAXAXAXAXAXAXAXAXAXAXAXAXAXAXAXAXAXAXAXAXAXAXAXAXAXAXAXu.1._ 0             X a J ..2.AXAXAXAXAXAXAXAXAXAXAXAXAXAXAXAXAXAXAXAXAXAXAXAXAXAXAXAXAXAX",
"AXAXAXAXAXAXAXAXAXAXAXAXAXAXAXAXAXAXAXAXAXAXAXAXAXAXAXAXAXAXu.2.K 0     AXAXAX  @ 0 N X.2.AXAXAXAXAXAXAXAXAXAXAXAXAXAXAXAXAXAXAXAXAXAXAXAXAXAXAXAXAXAX",
"AXAXAXAXAXAXAXAXAXAXAXAXAXAXAXAXAXAXAXAXAXAXAXAXAXAXAXAXAXAX,.| v 2     AXAXAX  # 5 l K | AXAXAXAXAXAXAXAXAXAXAXAXAXAXAXAXAXAXAXAXAXAXAXAXAXAXAXAXAXAX",
"AXAXAXAXAXAXAXAXAXAXAXAXAXAXAXAXAXAXAXAXAXAXAXAXAXAXAXAXAX<.L l 0 < . AXAXAXAXAX& 3 g k n N AXAXAXAXAXAXAXAXAXAXAXAXAXAXAXAXAXAXAXAXAXAXAXAXAXAXAXAXAX",
"AXAXAXAXAXAXAXAXAXAXAXAXAXAXAXAXAXAXAXAXAXAXAXAXAXAXAXAXQ. .x < .   AXAXAXAXAXAXAX< 1 4 f b K AXAXAXAXAXAXAXAXAXAXAXAXAXAXAXAXAXAXAXAXAXAXAXAXAXAXAXAX",
"AXAXAXAXAXAXAXAXAXAXAXAXAXAXAXAXAXAXAXAXAXAXAXAXAXAXAX2XW. .d     AXAXAXAXAXAXAXAXAX  # 0 v _ X.AXAXAXAXAXAXAXAXAXAXAXAXAXAXAXAXAXAXAXAXAXAXAXAXAXAXAX",
"AXAXAXAXAXAXAXAXAXAXAXAXAXAXAXAXAXAXAXAXAXAXAXAXAXAXAX^.t. .z   AXAXAXAXAXAXAXAXAXAXAX. 0 m ] ..AXAXAXAXAXAXAXAXAXAXAXAXAXAXAXAXAXAXAXAXAXAXAXAXAXAXAX",
"AXAXAXAXAXAXAXAXAXAXAXAXAXAXAXAXAXAXAXAXAXAXAXAXAXAXAX1.,.X.m AXAXAXAXAXAXAXAXAXAXAXAXAXl K [ | AXAXAXAXAXAXAXAXAXAXAXAXAXAXAXAXAXAXAXAXAXAXAXAXAXAXAX",
"AXAXAXAXAXAXAXAXAXAXAXAXAXAXAXAXAXAXAXAXAXAXAXAXAXAXAXK K K AXAXAXAXAXAXAXAXAXAXAXAXAXAXAXK K K AXAXAXAXAXAXAXAXAXAXAXAXAXAXAXAXAXAXAXAXAXAXAXAXAXAXAX",
"AXAXAXAXAXAXAXAXAXAXAXAXAXAXAXAXAXAXAXAXAXAXAXAXAXAX] l a 5 AXAXAXAXAXAXAXAXAXAXAXAXAXAXAXl l l m AXAXAXAXAXAXAXAXAXAXAXAXAXAXAXAXAXAXAXAXAXAXAXAXAXAX",
"AXAXAXAXAXAXAXAXAXAXAXAXAXAXAXAXAXAXAXAXAXAXAXAXAX(. .f #   AXAXAXAXAXAXAXAXAXAXAXAXAXAXAX1 4 f n _ AXAXAXAXAXAXAXAXAXAXAXAXAXAXAXAXAXAXAXAXAXAXAXAXAX",
"AXAXAXAXAXAXAXAXAXAXAXAXAXAXAXAXAXAXAXAXAXAXAXAX2XW.[ d     AXAXAXAXAXAXAXAXAXAXAXAXAXAXAX  # 0 v _ X.AXAXAXAXAXAXAXAXAXAXAXAXAXAXAXAXAXAXAXAXAXAXAXAX",
"AXAXAXAXAXAXAXAXAXAXAXAXAXAXAXAXAXAXAXAXAXAXAXAXu.3.[ f   AXAXAXAXAXAXAXAXAXAXAXAXAXAXAXAXAX. 0 v K [ AXAXAXAXAXAXAXAXAXAXAXAXAXAXAXAXAXAXAXAXAXAXAXAX",
"AXAXAXAXAXAXAXAXAXAXAXAXAXAXAXAXAXAXAXAXAXAXAXAX..| ] l AXAXAXAXAXAXAXAXAXAXAXAXAXAXAXAXAXAXAXf m K _ AXAXAXAXAXAXAXAXAXAXAXAXAXAXAXAXAXAXAXAXAXAXAXAX",
"AXAXAXAXAXAXAXAXAXAXAXAXAXAXAXAXAXAXAXAXAXAXAXAXJ J J AXAXAXAXAXAXAXAXAXAXAXAXAXAXAXAXAXAXAXAXAXJ J J AXAXAXAXAXAXAXAXAXAXAXAXAXAXAXAXAXAXAXAXAXAXAXAX",
"AXAXAXAXAXAXAXAXAXAXAXAXAXAXAXAXAXAXAXAXAXAXAXAXv v v AXAXAXAXAXAXAXAXAXAXAXAXAXAXAXAXAXAXAXAXAXJ J J AXAXAXAXAXAXAXAXAXAXAXAXAXAXAXAXAXAXAXAXAXAXAXAX",
"AXAXAXAXAXAXAXAXAXAXAXAXAXAXAXAXAXAXAXAXAXAXAXAXAXAXAXAXAXAXAXAXAXAXAXAXAXAXAXAXAXAXAXAXAXAXAXAXAXAXAXAXAXAXAXAXAXAXAXAXAXAXAXAXAXAXAXAXAXAXAXAXAXAXAX",
"AXAXAXAXAXAXAXAXAXAXAXAXAXAXAXAXAXAXAXAXAXAXAXAXAXAXAXAXAXAXAXAXAXAXAXAXAXAXAXAXAXAXAXAXAXAXAXAXAXAXAXAXAXAXAXAXAXAXAXAXAXAXAXAXAXAXAXAXAXAXAXAXAXAXAX",
"AXAXAXAXAXAXAXAXAXAXAXAXAXAXAXAXAXAXAXAXAXAXAXAXAXAXAXAXAXAXAXAXAXAXAXAXAXAXAXAXAXAXAXAXAXAXAXAXAXAXAXAXAXAXAXAXAXAXAXAXAXAXAXAXAXAXAXAXAXAXAXAXAXAXAX",
"AXAXAXAXAXAXAXAXAXAXAXAXAXAXAXAXAXAXAXAXAXAXAXAXAXAXAXAXAXAXAXAXAXAXAXAXAXAXAXAXAXAXAXAXAXAXAXAXAXAXAXAXAXAXAXAXAXAXAXAXAXAXAXAXAXAXAXAXAXAXAXAXAXAXAX",
"AXAXAXAXAXAXAXAXAXAXAXAXAXAXAXAXAXAXAXAXAXAXAXAXAXAXAXAXAXAXAXAXAXAXAXAXAXAXAXAXAXAXAXAXAXAXAXAXAXAXAXAXAXAXAXAXAXAXAXAXAXAXAXAXAXAXAXAXAXAXAXAXAXAXAX",
"AXAXAXAXAXAXAXAXAXAXAXAXAXAXAXAXAXAXAXAXAXAXAXAXAXAXAXAXAXAXAXAXAXAXAXAXAXAXAXAXAXAXAXAXAXAXAXAXAXAXAXAXAXAXAXAXAXAXAXAXAXAXAXAXAXAXAXAXAXAXAXAXAXAXAX",
"AXAXAXAXAXAXAXAXAXAXAXAXAXAXAXAXAXAXAXAXAXAXAXAXAXAXAXAXAXAXAXAXAXAXAXAXAXAXAXAXAXAXAXAXAXAXAXAXAXAXAXAXAXAXAXAXAXAXAXAXAXAXAXAXAXAXAXAXAXAXAXAXAXAXAX",
"AXAXAXAXAXAXAXAXAXAXAXAXAXAXAXAXAXAXAXAXAXAXAXAXAXAXAXAXAXAXAXAXAXAXAXAXAXAXAXAXAXAXAXAXAXAXAXAXAXAXAXAXAXAXAXAXAXAXAXAXAXAXAXAXAXAXAXAXAXAXAXAXAXAXAX",
"AXAXAXAXAXAXAXAXAXAXAXAXAXAXAXAXAXAXAXAXAXAXAXAXAXAXAXAXAXAXAXAXAXAXAXAXAXAXAXAXAXAXAXAXAXAXAXAXAXAXAXAXAXAXAXAXAXAXAXAXAXAXAXAXAXAXAXAXAXAXAXAXAXAXAX",
"AXAXAXAXAXAXAXAXAXAXAXAXAXAXAXAXAXAXAXAXAXAXAXAXAXAXAXAXAXAXAXAXAXAXAXAXAXAXAXAXAXAXAXAXAXAXAXAXAXAXAXAXAXAXAXAXAXAXAXAXAXAXAXAXAXAXAXAXAXAXAXAXAXAXAX",
"AXAXAXAXAXAXAXAXAXAXAXAXAXAXAXAXAXAXAXAXAXAXAXAXAXAXAXAXAXAXAXAXAXAXAXAXAXAXAXAXAXAXAXAXAXAXAXAXAXAXAXAXAXAXAXAXAXAXAXAXAXAXAXAXAXAXAXAXAXAXAXAXAXAXAX",
"AXAXAXAXAXAXAXAXAXAXAXAXAXAXAXAXAXAXAXAXAXAXAXAXAXAXAXAXAXAXAXAXAXAXAXAXAXAXAXAXAXAXAXAXAXAXAXAXAXAXAXAXAXAXAXAXAXAXAXAXAXAXAXAXAXAXAXAXAXAXAXAXAXAXAX"
};
