/* XPM */
static const char *foe_idle_front_5[] = {
/* columns rows colors chars-per-pixel */
"75 72 240 2 ",
"   c #000000",
".  c #040509",
"X  c #09090C",
"o  c #100000",
"O  c #1F010C",
"+  c #080916",
"@  c #151017",
"#  c #260918",
"$  c #221A1A",
"%  c #23221B",
"&  c #0A0D24",
"*  c #0C1325",
"=  c #14192D",
"-  c #131629",
";  c #181D33",
":  c #151A34",
">  c #0C1630",
",  c #251225",
"<  c #2D1524",
"1  c #1D223B",
"2  c #142135",
"3  c #19212A",
"4  c #252529",
"5  c #262B39",
"6  c #3B2A3D",
"7  c #352435",
"8  c #353639",
"9  c #303231",
"0  c #462B3D",
"q  c #451436",
"w  c #1E2A45",
"e  c #1F2441",
"r  c #242B46",
"t  c #242C4D",
"y  c #242A49",
"u  c #24324C",
"i  c #2B3748",
"p  c #343E4A",
"a  c #353949",
"s  c #262D54",
"d  c #2A3653",
"f  c #33385C",
"g  c #362C58",
"h  c #2B3362",
"j  c #2D366D",
"k  c #333C69",
"l  c #343E76",
"z  c #121243",
"x  c #4F1942",
"c  c #592855",
"v  c #4D3A4E",
"b  c #67365B",
"n  c #721C6A",
"m  c #4F2072",
"M  c #782973",
"N  c #6E306F",
"B  c #35424D",
"V  c #3B404C",
"C  c #3C4655",
"Z  c #364072",
"A  c #3A457A",
"S  c #3B4679",
"D  c #2E4276",
"F  c #484A4C",
"G  c #4B546F",
"H  c #6E496F",
"J  c #596576",
"K  c #616A7B",
"L  c #6C5E5D",
"P  c #852C77",
"I  c #8C3B7F",
"U  c #81457E",
"Y  c #807E7A",
"T  c #83817A",
"R  c #543C88",
"E  c #6D3C86",
"W  c #3D4B86",
"Q  c #3E538B",
"!  c #3C5B9A",
"~  c #424D88",
"^  c #45548A",
"/  c #574996",
"(  c #495799",
")  c #5B519B",
"_  c #555488",
"`  c #794A93",
"'  c #6C4C92",
"]  c #54688D",
"[  c #6C7593",
"{  c #4D5BA5",
"}  c #4A59A8",
"|  c #595CAA",
" . c #545DB2",
".. c #685EAD",
"X. c #755EB1",
"o. c #4965A2",
"O. c #5666A9",
"+. c #5C71AE",
"@. c #5767B7",
"#. c #596BB7",
"$. c #5A73B4",
"%. c #676BB5",
"&. c #6875BB",
"*. c #7576B0",
"=. c #596CC6",
"-. c #5C72C9",
";. c #5D74D4",
":. c #6678C7",
">. c #7477C8",
",. c #6B7EDC",
"<. c #6378D7",
"1. c #7A7CD4",
"2. c #5E75E0",
"3. c #6478E0",
"4. c #863F86",
"5. c #8A3983",
"6. c #963E85",
"7. c #864689",
"8. c #95458A",
"9. c #954D92",
"0. c #984894",
"q. c #8D579C",
"w. c #9C529B",
"e. c #8B5884",
"r. c #A2579C",
"t. c #A2498D",
"y. c #8A608F",
"u. c #8D6592",
"i. c #9B6490",
"p. c #895AA8",
"a. c #9758A8",
"s. c #A55AA4",
"d. c #B05BAD",
"f. c #8966B7",
"g. c #9776B5",
"h. c #946CB2",
"j. c #AD65A9",
"k. c #B861AE",
"l. c #AF6FB7",
"z. c #B868B6",
"x. c #AC7BB8",
"c. c #BB74B5",
"v. c #C279BE",
"b. c #9876C7",
"n. c #807FCF",
"m. c #A97DC3",
"M. c #B078CE",
"N. c #C578C4",
"B. c #D376D2",
"V. c #CC7FE7",
"C. c #768BA8",
"Z. c #6984BB",
"A. c #7789B8",
"S. c #7B95B3",
"D. c #7790AB",
"F. c #7F8083",
"G. c #7A83C9",
"H. c #6A82D7",
"J. c #778BD5",
"K. c #7D95D8",
"L. c #6C86E7",
"P. c #738BEA",
"I. c #7589E8",
"U. c #7C96E8",
"Y. c #7A97F7",
"T. c #6D8AF1",
"R. c #A8A69B",
"E. c #8492AC",
"W. c #8294B5",
"Q. c #9299AA",
"!. c #B184B3",
"~. c #ABB1B6",
"^. c #8D949E",
"/. c #8E8CCF",
"(. c #BD82C8",
"). c #B793D9",
"_. c #A491D4",
"`. c #8DA5CA",
"'. c #96ACDA",
"]. c #95AED2",
"[. c #BCBDC3",
"{. c #ACB4DE",
"}. c #8398E5",
"|. c #869EFE",
" X c #8096F6",
".X c #9898FC",
"XX c #8E88E6",
"oX c #AE93F4",
"OX c #85A4E8",
"+X c #8BA3FF",
"@X c #88A5FB",
"#X c #96ABFC",
"$X c #9CB4FE",
"%X c #99B4FD",
"&X c #96B0EE",
"*X c #AAA8FF",
"=X c #A4BCFB",
"-X c #A3B7F9",
";X c #B7B9FE",
":X c #B2AEFF",
">X c #D797DF",
",X c #CF88CF",
"<X c #D492E1",
"1X c #CD80E7",
"2X c #EA95EB",
"3X c #D8B9FD",
"4X c #CFABF6",
"5X c #EFA8F9",
"6X c #FAB1FF",
"7X c #E4BAFF",
"8X c #E48AD7",
"9X c #B3C8DB",
"0X c #9CC6EC",
"qX c #ACC5FF",
"wX c #A9C5FE",
"eX c #B6CEFF",
"rX c #B3C8F8",
"tX c #B3D1FF",
"yX c #BBD3FD",
"uX c #BBD6FB",
"iX c #BFD6E8",
"pX c #C9CBCA",
"aX c #CDD8DB",
"sX c #C8C4FD",
"dX c #C5DDFF",
"fX c #C8D9FF",
"gX c #D8D7FF",
"hX c #C8CCF1",
"jX c #EBC5FF",
"kX c #FED3FF",
"lX c #E0DFFF",
"zX c #C5E1FF",
"xX c #CBE6FF",
"cX c #D1ECFF",
"vX c #D8F5FF",
"bX c #E5E5FF",
"nX c white",
"mX c #F8E9FF",
"MX c #E0E0DB",
"NX c None",
/* pixels */
"NXNXNXNXNXNXNXNXNXNXNXNXNXNXNXNXNXNXNXNXNXNXNXNXNXNXNXNXNXNXNXNXNXNXNXNXNXNXNXNXNXNXNXNXNXNXNXNXNXNXNXNXNXNXNXNXNXNXNXNXNXNXNXNXNXNXNXNXNXNXNXNXNXNXNX",
"NXNXNXNXNXNXNXNXNXNXNXNXNXNXNXNXNXNXNXNXNXNXNXNXNXNXNXNXNXNXNXNXNXNXNXNXNXNXNXNXNXNXNXNXNXNXNXNXNXNXNXNXNXNXNXNXNXNXNXNXNXNXNXNXNXNXNXNXNXNXNXNXNXNXNX",
"NXNXNXNXNXNXNXNXNXNXNXNXNXNXNXNXNXNXNXNXNXNXNXNXNXNXNXNXNXNXNXNXNXNXNXNXNXNXNXNXNXNXNXNXNXNXNXNXNXNXNXNXNXNXNXNXNXNXNXNXNXNXNXNXNXNXNXNXNXNXNXNXNXNXNX",
"NXNXNXNXNXNXNXNXNXNXNXNXNXNXNXNXNXNXNXNXNXNXNXNXNXNXNXNXNXNXNXNXNXNXNXNXNXNXNXNXNXNXNXNXNXNXNXNXNXNXNXNXNXNXNXNXNXNXNXNXNXNXNXNXNXNXNXNXNXNXNXNXNXNXNX",
"NXNXNXNXNXNXNXNXNXNXNXNXNXNXNXNXNXNXNXNXNXNXNXNXNXNXNXNXNXNXNXNXNXNXNXNXNXNXNXNXNXNXNXNXNXNXNXNXNXNXNXNXNXNXNXNXNXNXNXNXNXNXNXNXNXNXNXNXNXNXNXNXNXNXNX",
"NXNXNXNXNXNXNXNXNXNXNXNXNXNXNXNXNXNXNXNXNXNXNXNXNXNXNXNXNXNXNXNXNXNXNXNXNXNXNXNXNXNXNXNXNXNXNXNXNXNXNXNXNXNXNXNXNXNXNXNXNXNXNXNXNXNXNXNXNXNXNXNXNXNXNX",
"NXNXNXNXNXNXNXNXNXNXNXNXNXNXNXNXNXNXNX              NXNXNXNXNXNXNXNXNXNXNXNXNXNXNXNXNXNXNXNXNXNXNX              NXNXNXNXNXNXNXNXNXNXNXNXNXNXNXNXNXNXNX",
"NXNXNXNXNXNXNXNXNXNXNXNXNXNXNXNXNXNX                  NXNXNXNXNXNXNXNXNXNXNXNXNXNXNXNXNXNXNXNXNX                  NXNXNXNXNXNXNXNXNXNXNXNXNXNXNXNXNXNX",
"NXNXNXNXNXNXNXNXNXNXNXNXNXNXNXNXNX3 5 i p B B p d u w = NXNXNXNXNXNXNXNXNXNXNXNXNXNXNXNXNXNXNX= w u d p B i u w 2 * NXNXNXNXNXNXNXNXNXNXNXNXNXNXNXNXNX",
"NXNXNXNXNXNXNXNXNXNXNXNXNXNXNXNX  5 J C.S.S.D.A.Z.$.^ w         NXNXNXNXNXNXNXNXNXNXNX        w Q $.Z.S.D.C.$.o.D :   NXNXNXNXNXNXNXNXNXNXNXNXNXNXNXNX",
"NXNXNXNXNXNXNXNXNXNXNXNXNXNXNX    i C.eXcXxXeXqX=X|.#.t         . NXNXNXNXNXNXNXNXNX.         t #.|.wXeXeXyXqX@XO.r     NXNXNXNXNXNXNXNXNXNXNXNXNXNXNX",
"NXNXNXNXNXNXNXNXNXNXNXNXNXNXNX    v Q.mXnXmXsX;X*X.X>.~ u 2 = = - + NXNXNXNXNXNXNX+ - = = 2 u ~ >..X:X;XsXbXbXsX*.a     NXNXNXNXNXNXNXNXNXNXNXNXNXNXNX",
"NXNXNXNXNXNXNX. .     NXNXNXNX    v !.kXmXjX).b.h.f.X.&.$.o.Q k t *               * t k Q o.$.&.X.f.h.m.).7XkXjXg.v     NXNXNXNX    . . NXNXNXNXNXNXNX",
"NXNXNXNXNXNX          . NXNXNX    6 u.>X5X<Xl.9.5.4.p.XX|.@XP.@.l =               = l @.P.@X|.XXp.4.5.9.l.<X5X>Xu.6     NXNXNX.           NXNXNXNXNXNX",
"NXNXNXNXNXNX    @ 5 p F NXNXNXNX. 7 b e.j.N.N.k.t.8.q.b..X#X+XP.O.h - + & - & + - h O.P.+X#X.Xb.q.8.t.k.N.N.j.e.b 7 . NXNXNXNXF p 5 @     NXNXNXNXNXNX",
"NXNXNXNXNXNX    5 K E.[ V   NXNXNXNX$ 7 H l.2X2XN.r.9.a.h.XX.X|.H.( j s h j h h j ( H.|..XXXh.a.9.r.N.2X2Xl.H 7 $ NXNXNXNX  V [ E.K 5     NXNXNXNXNXNX",
"NXNXNXNXNXNX    F `.eX`.C     NXNXNX    6 u.>X5X<Xl.9.5.4.p.XX+XY.H.@.| @.@.@. .@.H.Y.|.XXp.7.I 9.l.<X5X>Xu.6     NXNXNX    C `.eX`.F     NXNXNXNXNXNX",
"NXNXNXNXNX. & t ] '.tX].[ p 4 NXNXNXNX  7 H u.x.M.l.a.5.N ' 1.|.@X@X}.}.}.}.}.}.}.@X@X|.1.' N 5.a.l.M.x.u.H 7   NXNXNXNX4 p [ ].tX'.] t & . NXNXNXNXNX",
"NXNXNXNX. 1 A #.H.U.U.OX`.E.K 8   NXNXNXNX4 6 b 7.s.a.` ) | H.|.#X$X-X-X-X-X-X-X-X$X%X|.H.| / ` a.s.7.b 6 4 NXNXNXNX  8 K E.`.OXU.U.H.#.A 1 . NXNXNXNX",
"NXNXNX    u +.|.|.<.@.J.qXeXE.p     NXNXNX    , c 4.p...#.;.P.|.$XqXeXyXyXeXyXyXeXqX$X|.T.;.@...p.4.c ,     NXNXNX    p E.eXqXJ.@.<.|.|.+.u     NXNXNX",
"NXNXNX    p A.=X#X%./ %.&XtX].] p 4 NXNXNXNX  # q c R | ;.T.Y.#X=XeXdXzXzXzXzXzXdXyX=X#XY.T.<.O.' c q #   NXNXNXNX3 p ] ].tX&X%./ %.#X=XA.p     NXNXNX",
"NXNXNX    B S.eX;Xh.E ' >.}.&X].D.J 8   NXNXNXNXO , g | T.@X%X-XrXuXdXzXzXdXzXzXdXuXrX-X%X@XP.O.g , O NXNXNXNX  8 J D.].&X}.>.' ' h.;XeXS.B     NXNXNX",
"NXNXNX    B S.eXsXx.4.N R @.OXtXeXE.p     NXNXNX    r o.|.qXtXyXyXyXeXeXeXeXeXeXeXyXyXeXtXqX|.o.r     NXNXNX    p E.eXtXU.@.R N 4.x.sXeXS.B     NXNXNX",
"NXNXNX. : G `.uXhX!.5.n m / G.=XeX`.] u > NXNXNX    r +.$XzXcXxXiX9X'.'.&X%X&X'.'.9XhXxXxXyX+XO.r     NXNXNX> u ] `.eX=XG./ m n 5.!.hXuX`.G : . NXNXNX",
"    + z l Z.0XzXhXx.5.n n E X.G.}.U.H.$.^ d         a *.wXcXvXcX9X~.Q.A.K.U.J.A.Q.~.aXcXcXtX+XO.t         d ^ $.H.U.}.G.X.E n n 5.x.hXzX0XZ.l z +     ",
"    - j @.@XwXeX{.g.4.P P 4.` ) @.L.@X|.&.f         C W.eXcXzXeX{.~.Q.C.%.@.%.C.Q.~.9XeXtXwX|.#.s         f &.|.@XL.@.) ` 4.P P 4.g.{.eXwX@X@.j -     ",
"    1 ( U.$X-X_.g.q.7.5.6.0.` / } ;. X.X1._ t * & y ] ].uXrX].W.Q.pXpXQ._ l _ Q.pXpX~.W.K.@X|.,.^ y * * u _ 1..X X;.} / ` 0.6.5.7.q.g._.-X-XU.( 1     ",
"    i *.-X;X_.h.7.4.4.8.t.s.p... . .X.f.f.&.O.! W ( G.rXuX`.G C [ MXnX[.G : G [.nXMX^.C S :.|. X:.( Q ( O.%.f.f.X. . ...p.s.r.8.4.4.7.h._.;X-X*.i     ",
"    B S.eXsXm.4.M M 4.w.j.l.b.>.@.) E 4.a.XX|.T.=.@.K.eXeXC.3   F pXnX~.8   8 ~.nXpXF   > o.|.+X,.@.-.P.|.XXa.4.E ) @.>.b.l.j.w.4.M M 4.m.sXeXS.B     ",
"    C W.yXsXm.5.n M 4.w.c.(./.>.@.) ` 0.z.).*XXXO.( &.$XwXA.5   4 K ~.^.4   4 [ ~.T 9   1 +.+X|.$.( O.}.*X).z.0.` ) @.>./.(.c.r.4.M n 5.m.sXyXW.C     ",
"    B S.yXgX).w.P M 4.r.v.,X_.&.{ | p.z.B.V.M.' g y ^ K.%XG.f     $ 8 9 @   @ 9 8 $     d :.+XJ.~ y g ' M.V.B.z.p.| { &._.,Xv.r.4.M P w.).gXyXS.B     ",
"    p D.eXgX4Xl.0.5.4.s.,X>X).>.@.%.f.l.z.d.4.x o   d :.|.H.k         .       .         k H.|.:.d   o x 4.d.z.l.f.%.@.>.).>XN.s.4.5.0.l.4XgXeXD.p     ",
"    p C.eXgX3X(.s.8.0.k.8X5X4X.XI.:...H N b x #     s #.Y.P.o.f 9 9 9 % X   X % 9 9 9 f o.P. X$.d     # x b N H ..:.L..X4X5X8Xk.0.8.s.(.3XgXtXC.p     ",
"    p C.yXbXjX,Xj.0.0.k.8X6XjXsX+X:.G 7 # # # o     w { ,.T.<.&.W.~.R.L %   % L R.~.W.&.<.T.L.{ r     o # # # 7 G :.+XsXjX6X8Xk.0.0.j.,X3XbXyXC.p     ",
"    i C.eXbXjX>Xz.0.4.9.c.>X3X;X|.#.t               ; S @.<.T.|.fXnXnXR.9   9 R.nXnXfX|.T.<.@.S ;               u #.|.;X3X>Xc.9.7.0.z.>XjXbXeXC.i     ",
"    i [ =XbXkX5Xc.U c c H y.h.*.+.~ w             . - t S } ;.|.fXnXnX~.G u G ~.nXnXfX|.;.} A t - .             w ^ +.*.h.y.H c c U v.5XkXbX=X+.i     ",
"    w o.#XgXkX6Xc.b , X , 6 a a u r = NXNXNXNXNXNXNXNX+ ; h ( H.$XfXfX{.A.+.A.{.fXfX$XH.( h = + NXNXNXNXNXNXNXNX= r u a a 6 , X , b c.6XkXgX#Xo.w     ",
"    w o.|.sX7X>Xi.0         .       NXNXNXNXNXNXNXNXNX    = k @.P.|.|.+X+X+X+X+X|.|.P.@.k =     NXNXNXNXNXNXNXNXNX      .         0 i.>X7XsX|.o.w     ",
"    u +.+X*X_.y.b <         .     NXNXNXNXNXNXNXNXNXNX    = Z @.<.2.<.P.#X%X#XU.3.2.<.@.Z =     NXNXNXNXNXNXNXNXNXNX    .         < b y._.*X+X+.u     ",
"    d Z.%X}._ 6 # o NXNXNXNXNXNXNXNXNXNXNXNXNXNXNXNXNX    ; ~ -.3.=.=.,.OX#XOXH.=.=.3.-.~ ;     NXNXNXNXNXNXNXNXNXNXNXNXNXNXNXNXNXo O 6 _ }.%XZ.d     ",
"    f :.|.:.f     NXNXNXNXNXNXNXNXNXNXNXNXNXNXNXNXNXNX    ; S @.-.@.@.:.U.|.U.:.@.@.:.@.S ;     NXNXNXNXNXNXNXNXNXNXNXNXNXNXNXNXNXNX    f :.|.:.f     ",
"    r ^ O.^ r   NXNXNXNXNXNXNXNXNXNXNXNXNXNXNXNXNXNXNXNX. - t Z ^ { #.,.P.Y.P.,.#.{ ^ A t - . NXNXNXNXNXNXNXNXNXNXNXNXNXNXNXNXNXNXNXNX  r ^ O.^ r     ",
"NXNX= 5 r 5 = NXNXNXNXNXNXNXNXNXNXNXNXNXNXNXNXNXNXNXNXNXNX  . * t ~ -.L.I.L.I.L.-.~ t - .   NXNXNXNXNXNXNXNXNXNXNXNXNXNXNXNXNXNXNXNXNXNX= 5 r 5 = NXNX",
"NXNXNX      NXNXNXNXNXNXNXNXNXNXNXNXNXNXNXNXNXNXNXNXNXNXNXNX    ; A @.<.=.@.=.<.@.A ;     NXNXNXNXNXNXNXNXNXNXNXNXNXNXNXNXNXNXNXNXNXNXNXNX      NXNXNX",
"NXNXNX      NXNXNXNXNXNXNXNXNXNXNXNXNXNXNXNXNXNXNXNXNXNXNXNXX * 1 h W ~ A k A ~ W h 1 * X NXNXNXNXNXNXNXNXNXNXNXNXNXNXNXNXNXNXNXNXNXNXNXNX      NXNXNX",
"NXNXNXNXNXNXNXNXNXNXNXNXNXNXNXNXNXNXNXNXNXNXNXNXNXNXNXNXNXNXZ k h t 1 = - = - = 1 t h k Z NXNXNXNXNXNXNXNXNXNXNXNXNXNXNXNXNXNXNXNXNXNXNXNXNXNXNXNXNXNX",
"NXNXNXNXNXNXNXNXNXNXNXNXNXNXNXNXNXNXNXNXNXNXNXNXNXNXNXNXNXNX<.@.~ e               e ~ @.<.NXNXNXNXNXNXNXNXNXNXNXNXNXNXNXNXNXNXNXNXNXNXNXNXNXNXNXNXNXNX",
"NXNXNXNXNXNXNXNXNXNXNXNXNXNXNXNXNXNXNXNXNXNXNXNXNXNXNXNXNXNX|.L.{ t               t { L.|.NXNXNXNXNXNXNXNXNXNXNXNXNXNXNXNXNXNXNXNXNXNXNXNXNXNXNXNXNXNX",
"NXNXNXNXNXNXNXNXNXNXNXNXNXNXNXNXNXNXNXNXNXNXNXNXNXNXNXNXNXNX|.L.( y     NXNXNX    y ( L.|.NXNXNXNXNXNXNXNXNXNXNXNXNXNXNXNXNXNXNXNXNXNXNXNXNXNXNXNXNXNX",
"NXNXNXNXNXNXNXNXNXNXNXNXNXNXNXNXNXNXNXNXNXNXNXNXNXNXNXNXNXNX,.@.S 1     NXNXNX    1 A @.,.NXNXNXNXNXNXNXNXNXNXNXNXNXNXNXNXNXNXNXNXNXNXNXNXNXNXNXNXNXNX",
"NXNXNXNXNXNXNXNXNXNXNXNXNXNXNXNXNXNXNXNXNXNXNXNXNXNXNXNXNX&.( l t = . NXNXNXNXNX. = t Z ~ ( NXNXNXNXNXNXNXNXNXNXNXNXNXNXNXNXNXNXNXNXNXNXNXNXNXNXNXNXNX",
"NXNXNXNXNXNXNXNXNXNXNXNXNXNXNXNXNXNXNXNXNXNXNXNXNXNXNXNX+X+.k = X   NXNXNXNXNXNXNXX + = t A O.NXNXNXNXNXNXNXNXNXNXNXNXNXNXNXNXNXNXNXNXNXNXNXNXNXNXNXNX",
"NXNXNXNXNXNXNXNXNXNXNXNXNXNXNXNXNXNXNXNXNXNXNXNXNXNXNXwX|.+.d     NXNXNXNXNXNXNXNXNX    1 A @.,.NXNXNXNXNXNXNXNXNXNXNXNXNXNXNXNXNXNXNXNXNXNXNXNXNXNXNX",
"NXNXNXNXNXNXNXNXNXNXNXNXNXNXNXNXNXNXNXNXNXNXNXNXNXNXNX#X|.&.k   NXNXNXNXNXNXNXNXNXNXNX  t ( -.L.NXNXNXNXNXNXNXNXNXNXNXNXNXNXNXNXNXNXNXNXNXNXNXNXNXNXNX",
"NXNXNXNXNXNXNXNXNXNXNXNXNXNXNXNXNXNXNXNXNXNXNXNXNXNXNXY.P.:.^ NXNXNXNXNXNXNXNXNXNXNXNXNXA @.<.,.NXNXNXNXNXNXNXNXNXNXNXNXNXNXNXNXNXNXNXNXNXNXNXNXNXNXNX",
"NXNXNXNXNXNXNXNXNXNXNXNXNXNXNXNXNXNXNXNXNXNXNXNXNXNXNX@.@.@.NXNXNXNXNXNXNXNXNXNXNXNXNXNXNX@.@.@.NXNXNXNXNXNXNXNXNXNXNXNXNXNXNXNXNXNXNXNXNXNXNXNXNXNXNX",
"NXNXNXNXNXNXNXNXNXNXNXNXNXNXNXNXNXNXNXNXNXNXNXNXNXNXO.A k h NXNXNXNXNXNXNXNXNXNXNXNXNXNXNXZ Z A ^ NXNXNXNXNXNXNXNXNXNXNXNXNXNXNXNXNXNXNXNXNXNXNXNXNXNX",
"NXNXNXNXNXNXNXNXNXNXNXNXNXNXNXNXNXNXNXNXNXNXNXNXNX#X+.f - . NXNXNXNXNXNXNXNXNXNXNXNXNXNXNX* = t A @.NXNXNXNXNXNXNXNXNXNXNXNXNXNXNXNXNXNXNXNXNXNXNXNXNX",
"NXNXNXNXNXNXNXNXNXNXNXNXNXNXNXNXNXNXNXNXNXNXNXNXwX|.+.d     NXNXNXNXNXNXNXNXNXNXNXNXNXNXNX    1 A @.,.NXNXNXNXNXNXNXNXNXNXNXNXNXNXNXNXNXNXNXNXNXNXNXNX",
"NXNXNXNXNXNXNXNXNXNXNXNXNXNXNXNXNXNXNXNXNXNXNXNX+XP.+.f   NXNXNXNXNXNXNXNXNXNXNXNXNXNXNXNXNX  y ~ @.<.NXNXNXNXNXNXNXNXNXNXNXNXNXNXNXNXNXNXNXNXNXNXNXNX",
"NXNXNXNXNXNXNXNXNXNXNXNXNXNXNXNXNXNXNXNXNXNXNXNX,.:.#.A NXNXNXNXNXNXNXNXNXNXNXNXNXNXNXNXNXNXNXl { @.=.NXNXNXNXNXNXNXNXNXNXNXNXNXNXNXNXNXNXNXNXNXNXNXNX",
"NXNXNXNXNXNXNXNXNXNXNXNXNXNXNXNXNXNXNXNXNXNXNXNX@.@.@.NXNXNXNXNXNXNXNXNXNXNXNXNXNXNXNXNXNXNXNXNX@.@.@.NXNXNXNXNXNXNXNXNXNXNXNXNXNXNXNXNXNXNXNXNXNXNXNX",
"NXNXNXNXNXNXNXNXNXNXNXNXNXNXNXNXNXNXNXNXNXNXNXNX{ { { NXNXNXNXNXNXNXNXNXNXNXNXNXNXNXNXNXNXNXNXNX@.@.@.NXNXNXNXNXNXNXNXNXNXNXNXNXNXNXNXNXNXNXNXNXNXNXNX",
"NXNXNXNXNXNXNXNXNXNXNXNXNXNXNXNXNXNXNXNXNXNXNXNXNXNXNXNXNXNXNXNXNXNXNXNXNXNXNXNXNXNXNXNXNXNXNXNXNXNXNXNXNXNXNXNXNXNXNXNXNXNXNXNXNXNXNXNXNXNXNXNXNXNXNX",
"NXNXNXNXNXNXNXNXNXNXNXNXNXNXNXNXNXNXNXNXNXNXNXNXNXNXNXNXNXNXNXNXNXNXNXNXNXNXNXNXNXNXNXNXNXNXNXNXNXNXNXNXNXNXNXNXNXNXNXNXNXNXNXNXNXNXNXNXNXNXNXNXNXNXNX",
"NXNXNXNXNXNXNXNXNXNXNXNXNXNXNXNXNXNXNXNXNXNXNXNXNXNXNXNXNXNXNXNXNXNXNXNXNXNXNXNXNXNXNXNXNXNXNXNXNXNXNXNXNXNXNXNXNXNXNXNXNXNXNXNXNXNXNXNXNXNXNXNXNXNXNX",
"NXNXNXNXNXNXNXNXNXNXNXNXNXNXNXNXNXNXNXNXNXNXNXNXNXNXNXNXNXNXNXNXNXNXNXNXNXNXNXNXNXNXNXNXNXNXNXNXNXNXNXNXNXNXNXNXNXNXNXNXNXNXNXNXNXNXNXNXNXNXNXNXNXNXNX",
"NXNXNXNXNXNXNXNXNXNXNXNXNXNXNXNXNXNXNXNXNXNXNXNXNXNXNXNXNXNXNXNXNXNXNXNXNXNXNXNXNXNXNXNXNXNXNXNXNXNXNXNXNXNXNXNXNXNXNXNXNXNXNXNXNXNXNXNXNXNXNXNXNXNXNX",
"NXNXNXNXNXNXNXNXNXNXNXNXNXNXNXNXNXNXNXNXNXNXNXNXNXNXNXNXNXNXNXNXNXNXNXNXNXNXNXNXNXNXNXNXNXNXNXNXNXNXNXNXNXNXNXNXNXNXNXNXNXNXNXNXNXNXNXNXNXNXNXNXNXNXNX",
"NXNXNXNXNXNXNXNXNXNXNXNXNXNXNXNXNXNXNXNXNXNXNXNXNXNXNXNXNXNXNXNXNXNXNXNXNXNXNXNXNXNXNXNXNXNXNXNXNXNXNXNXNXNXNXNXNXNXNXNXNXNXNXNXNXNXNXNXNXNXNXNXNXNXNX",
"NXNXNXNXNXNXNXNXNXNXNXNXNXNXNXNXNXNXNXNXNXNXNXNXNXNXNXNXNXNXNXNXNXNXNXNXNXNXNXNXNXNXNXNXNXNXNXNXNXNXNXNXNXNXNXNXNXNXNXNXNXNXNXNXNXNXNXNXNXNXNXNXNXNXNX",
"NXNXNXNXNXNXNXNXNXNXNXNXNXNXNXNXNXNXNXNXNXNXNXNXNXNXNXNXNXNXNXNXNXNXNXNXNXNXNXNXNXNXNXNXNXNXNXNXNXNXNXNXNXNXNXNXNXNXNXNXNXNXNXNXNXNXNXNXNXNXNXNXNXNXNX"
};
