/* XPM */
static const char *foe_idle_front_8[] = {
/* columns rows colors chars-per-pixel */
"75 72 225 2 ",
"   c #000000",
".  c #04050A",
"X  c #090606",
"o  c #130003",
"O  c #16050A",
"+  c #070815",
"@  c #0E111E",
"#  c #161515",
"$  c #1D0713",
"%  c #230B1A",
"&  c #26241C",
"*  c #090C25",
"=  c #0E1529",
"-  c #13162B",
";  c #15192C",
":  c #151828",
">  c #181C32",
",  c #161A36",
"<  c #0E183D",
"1  c #2A0F21",
"2  c #250E24",
"3  c #2A1527",
"4  c #301228",
"5  c #1D223B",
"6  c #142134",
"7  c #262529",
"8  c #35342D",
"9  c #252837",
"0  c #3C293C",
"q  c #383838",
"w  c #2A303A",
"e  c #44193A",
"r  c #41132F",
"t  c #4D4A3F",
"y  c #1D2647",
"u  c #212745",
"i  c #242A45",
"p  c #252D4F",
"a  c #29284D",
"s  c #293449",
"d  c #343A45",
"f  c #353E4B",
"g  c #393F49",
"h  c #333844",
"j  c #262D57",
"k  c #2F3759",
"l  c #2B3554",
"z  c #323B59",
"x  c #343958",
"c  c #3D2D40",
"v  c #2C3568",
"b  c #323B63",
"n  c #333C6C",
"m  c #343E77",
"M  c #561D48",
"N  c #5D2655",
"B  c #572A5C",
"V  c #4E3149",
"C  c #68295A",
"Z  c #6B315C",
"A  c #533068",
"S  c #653768",
"D  c #6D3576",
"F  c #39404A",
"G  c #3D4554",
"H  c #394376",
"J  c #3A457B",
"K  c #374173",
"L  c #35426A",
"P  c #41495A",
"I  c #6F6B5D",
"U  c #4F5367",
"Y  c #6A4A6B",
"T  c #536178",
"R  c #757C7A",
"E  c #8C3B7F",
"W  c #827F78",
"Q  c #3B3F83",
"!  c #613D84",
"~  c #3F4B84",
"^  c #3B4A91",
"/  c #3E538B",
"(  c #424D86",
")  c #424E8B",
"_  c #47548A",
"`  c #4A5897",
"'  c #545092",
"]  c #7C4B99",
"[  c #67539D",
"{  c #69468B",
"}  c #566390",
"|  c #6E798E",
" . c #4E5EA5",
".. c #555FAB",
"X. c #5C5FB0",
"o. c #604EA4",
"O. c #6A59AD",
"+. c #7358BA",
"@. c #5565A7",
"#. c #5767B7",
"$. c #5A6BB3",
"%. c #5868BB",
"&. c #5772B3",
"*. c #4966A3",
"=. c #697AA3",
"-. c #636FB3",
";. c #6677B9",
":. c #7872B8",
">. c #5C5EC1",
",. c #5D6EC4",
"<. c #556AC8",
"1. c #5B72CA",
"2. c #5E73DB",
"3. c #5C7AD3",
"4. c #697CC5",
"5. c #6477CB",
"6. c #7572CB",
"7. c #6A7DDD",
"8. c #6378D6",
"9. c #736DCF",
"0. c #873E86",
"q. c #974C92",
"w. c #8F5092",
"e. c #A14E96",
"r. c #8F6694",
"t. c #834BA3",
"y. c #8858A9",
"u. c #9855A5",
"i. c #9C56BA",
"p. c #A65AAA",
"a. c #8866BA",
"s. c #9865BE",
"d. c #9B7DA5",
"f. c #AF6FB7",
"g. c #B370B5",
"h. c #9C71C8",
"j. c #B17CC5",
"k. c #887DE1",
"l. c #C678C5",
"z. c #7887A5",
"x. c #7688BA",
"c. c #748FB3",
"v. c #7F8083",
"b. c #6D84C8",
"n. c #7488C9",
"m. c #6C81D7",
"M. c #7589D9",
"N. c #7992DA",
"B. c #7D91C4",
"V. c #6D87E9",
"C. c #738BEA",
"Z. c #7489E7",
"A. c #7B97E9",
"S. c #758DF1",
"D. c #7C97F9",
"F. c #6A93EE",
"G. c #7AA1E9",
"H. c #7DA2FF",
"J. c #A8A69B",
"K. c #8290AA",
"L. c #8795AA",
"P. c #8493BA",
"I. c #9299A8",
"U. c #94A2B9",
"Y. c #A5B4BD",
"T. c #ADAFB3",
"R. c #948793",
"E. c #8988DC",
"W. c #899CD2",
"Q. c #AC8BDB",
"!. c #93A4C5",
"~. c #98ACDC",
"^. c #BCBDC3",
"/. c #A9BADE",
"(. c #9987E7",
"). c #8494E5",
"_. c #869EFE",
"`. c #8096F8",
"'. c #9696FD",
"]. c #8A85E0",
"[. c #A097FD",
"{. c #99B2E9",
"}. c #8BA2FF",
"|. c #8CABFE",
" X c #85A3F7",
".X c #93ACFE",
"XX c #98A8FB",
"oX c #8EB3FF",
"OX c #9AB3FF",
"+X c #99B6FE",
"@X c #8AA1E4",
"#X c #A5BCFD",
"$X c #A2B8F8",
"%X c #B1B0FF",
"&X c #D797DF",
"*X c #D492E1",
"=X c #E995EA",
"-X c #EEA7FA",
";X c #E1BBFF",
":X c #AFC6DE",
">X c #B8CDD5",
",X c #ABC5FF",
"<X c #A7C6FB",
"1X c #B6CEFF",
"2X c #B4CAF9",
"3X c #AFD0FF",
"4X c #B5D2FF",
"5X c #BBD4FD",
"6X c #BED9FF",
"7X c #B9D5FA",
"8X c #BFD6E8",
"9X c #C8CBC9",
"0X c #D3DADA",
"qX c #C4DDFF",
"wX c #CADCFF",
"eX c #C6D0F2",
"rX c #F0CFFF",
"tX c #C5E2FF",
"yX c #CAE4FF",
"uX c #CAEBFF",
"iX c #D1ECFF",
"pX c #D7F3FF",
"aX c white",
"sX c #F3EAFF",
"dX c None",
/* pixels */
"dXdXdXdXdXdXdXdXdXdXdXdXdXdXdXdXdXdXdXdXdXdXdXdXdXdXdXdXdXdXdXdXdXdXdXdXdXdXdXdXdXdXdXdXdXdXdXdXdXdXdXdXdXdXdXdXdXdXdXdXdXdXdXdXdXdXdXdXdXdXdXdXdXdXdX",
"dXdXdXdXdXdXdXdXdXdXdXdXdXdXdXdXdXdXdXdXdXdXdXdXdXdXdXdXdXdXdXdXdXdXdXdXdXdXdXdXdXdXdXdXdXdXdXdXdXdXdXdXdXdXdXdXdXdXdXdXdXdXdXdXdXdXdXdXdXdXdXdXdXdXdX",
"dXdXdXdXdXdXdXdXdXdXdXdXdXdXdXdXdXdXdXdXdXdXdXdXdXdXdXdXdXdXdXdXdXdXdXdXdXdXdXdXdXdXdXdXdXdXdXdXdXdXdXdXdXdXdXdXdXdXdXdXdXdXdXdXdXdXdXdXdXdXdXdXdXdXdX",
"dXdXdXdXdXdXdXdXdXdXdXdXdXdXdXdXdXdXdX              dXdXdXdXdXdXdXdXdXdXdXdXdXdXdXdXdXdXdXdXdXdXdX              dXdXdXdXdXdXdXdXdXdXdXdXdXdXdXdXdXdXdX",
"dXdXdXdXdXdXdXdXdXdXdXdXdXdXdXdXdXdX                  dXdXdXdXdXdXdXdXdXdXdXdXdXdXdXdXdXdXdXdXdX                  dXdXdXdXdXdXdXdXdXdXdXdXdXdXdXdXdXdX",
"dXdXdXdXdXdXdXdXdXdXdXdXdXdXdXdXdX: w h F F f f l p y ; dXdXdXdXdXdXdXdXdXdXdXdXdXdXdXdXdXdXdX; y p l f F s s y 6 = dXdXdXdXdXdXdXdXdXdXdXdXdXdXdXdXdX",
"dXdXdXdXdXdXdXdXdXdXdXdXdXdXdXdX  w T z.c.c.c.x.x.&.) y         . dXdXdXdXdXdXdXdXdX.         y / &.x.c.c.c.&.*.K ,   dXdXdXdXdXdXdXdXdXdXdXdXdXdXdXdX",
"dXdXdXdXdXdXdXdXdXdXdXdXdXdXdX    h z.1XpXyX1X,X#X_.$.p         . dXdXdXdXdXdXdXdXdX.         p $._.,X1X1X4X,X_.@.u     dXdXdXdXdXdXdXdXdXdXdXdXdXdXdX",
"dXdXdXdXdXdXdXdXdXdXdXdXdXdXdX    P I.sXaXsXeX%X%X'.6.( p 6 ; ; - + dXdXdXdXdXdXdX+ - ; ; 6 p ( 6.'.%X%XeXiXsXeX=.h     dXdXdXdXdXdXdXdXdXdXdXdXdXdXdX",
"dXdXdXdXdXdXdXdXdXdXdXdXdXdXdX    V I.rXsXrXQ.h.s.a.:.;.&.*./ n a =               = a n / *.&.;.:.a.s.h.Q.;XrXrXd.V     dXdXdXdXdXdXdXdXdXdXdXdXdXdXdX",
"dXdXdXdXdXdXdXdXdXdXdXdXdXdXdX    0 r.&X-X*Xf.q.0.0.y.E._. XC.#.m >               > m #.C. X}.E.y.0.0.q.f.*X-X&Xr.0     dXdXdXdXdXdXdXdXdXdXdXdXdXdXdX",
"dXdXdXdXdXdXdXdXdXdXdXdXdXdXdXdX  3 B w.g.l.l.g.e.q.w.h.[.XX}.C.@.v - + * - * + - v @.C.}.XX[.h.w.q.e.g.l.l.g.r.Z 3   dXdXdXdXdXdXdXdXdXdXdXdXdXdXdXdX",
"dXdXdXdXdXdXdXdXdXdXdXdXdXdXdXdXdXX $ 0 Y g.=X=Xl.u.q.u.s.(.'._.m.` n j v n v j n ` m._.'.(.s.u.q.u.l.=X=Xg.Y 0 # X dXdXdXdXdXdXdXdXdXdXdXdXdXdXdXdXdX",
"dXdXdXdXdXdXdXdXdXdXdXdXdXdXdXdXdXdX    0 r.&X-X*Xf.q.E 0.y.].}.D.m.#...#.#.#...#.m.D._.].y.0.E q.f.*X-X&Xr.0     dXdXdXdXdXdXdXdXdXdXdXdXdXdXdXdXdXdX",
"dXdXdXdXdXdXdXdXdXdXdXdXdXdXdXdXdXdXdX  7 Y r.f.j.f.u.E D [ 6._.|. X).).).).).A.). X|._.6.[ D 0.u.f.j.f.r.Y 7   dXdXdXdXdXdXdXdXdXdXdXdXdXdXdXdXdXdXdX",
"dXdXdXdXdXdXdXdXdXdXdXdXdXdXdXdXdXdXdXdX# 7 0 S w.p.u.] ' X.m._..X+X$X$X$X$X$X$X$X+X.X_.7.X.' ] u.p.w.S c 3 # dXdXdXdXdXdXdXdXdXdXdXdXdXdXdXdXdXdXdXdX",
"dXdXdXdXdXdXdXdXdXdXdXdXdXdXdXdXdXdXdXdXdX    1 N 0.t.O.#.1.V._.OX,X1X4X4X1X4X5X4X,XOX}.V.1.#.O.t.w.N 1     dXdXdXdXdXdXdXdXdXdXdXdXdXdXdXdXdXdXdXdXdX",
"dXdXdXdXdXdXdXdXdXdXdXdXdXdXdXdXdXdXdXdXdXdX  $ r N ! X.3.F.D..X#X1XqXtXtXqXtXtXqX4X#X.XD.F.m.$.{ N r $   dXdXdXdXdXdXdXdXdXdXdXdXdXdXdXdXdXdXdXdXdXdX",
"dXdXdXdXdXdXdXdXdXdXdXdXdXdXdXdXdXdXdXdXdXdXdXX o 2 x ..S.|.+X$X2X5XqXtXtXqXqXtXqX5X2X$X+X|.S.@.x 2 o X dXdXdXdXdXdXdXdXdXdXdXdXdXdXdXdXdXdXdXdXdXdXdX",
"dXdXdXdXdXdXdXdXdXdXdXdXdXdXdXdXdXdXdXdXdXdXdXdX    u @._.,X4X1X7X4X1X1X1X1X1X1X1X5X7X1X4X,X_.@.u     dXdXdXdXdXdXdXdXdXdXdXdXdXdXdXdXdXdXdXdXdXdXdXdX",
"dXdXdXdXdXdXdXdXdXdXdXdXdXdXdXdXdXdXdXdXdXdXdXdX    i @.OXtXiXyX8X:X~.~.{.+X{.~.~.:XeXyXuX4X}.@.u     dXdXdXdXdXdXdXdXdXdXdXdXdXdXdXdXdXdXdXdXdXdXdXdX",
"dXdXdXdXdXdXdXdXdXdXdXdXdXdXdXdXdXdXdXdXdXdXdXdX    s =.,XpXpXiX>XY.L.x.N.A.N.x.L.Y.0XiXiX6X}. .u     dXdXdXdXdXdXdXdXdXdXdXdXdXdXdXdXdXdXdXdXdXdXdXdX",
"dXdXdXdXdXdXdXdXdXdXdXdXdXdXdXdXdXdXdXdXdXdXdXdX    h z.1XpXyX1X/.Y.I.z.-.#.-.z.I.Y.:X1X4X,X_.@.u     dXdXdXdXdXdXdXdXdXdXdXdXdXdXdXdXdXdXdXdXdXdXdXdX",
"dXdXdXdXdXdXdXdXdXdXdXdXdXdXdXdXdXdXdXdXdXdXdXdX  . G L.6X6X~.P.U.9X9XU.} m } U.9X9XY.P.).|._.$.p .   dXdXdXdXdXdXdXdXdXdXdXdXdXdXdXdXdXdXdXdXdXdXdXdX",
"dXdXdXdXdXdXdXdXdXdXdXdXdXdXdXdXdXdXdXdXdXdXdXdX  . P U.6X~.} G | 0XaX9XU - U ^.aX0XR.G ( M._.;.k .   dXdXdXdXdXdXdXdXdXdXdXdXdXdXdXdXdXdXdXdXdXdXdXdX",
"dXdXdXdXdXdXdXdXdXdXdXdXdXdXdXdXdXdXdXdXdXdXdXdX    P !.1XP.9   P dXaX9XP X q T.aX9XP   < ,.}.4.z     dXdXdXdXdXdXdXdXdXdXdXdXdXdXdXdXdXdXdXdXdXdXdXdX",
"dXdXdXdXdXdXdXdXdXdXdXdXdXdXdXdXdXdXdXdXdXdXdX      G W.,XB.s   & W T.R.7   7 | T.dX&   p 4.}.b.z       dXdXdXdXdXdXdXdXdXdXdXdXdXdXdXdXdXdXdXdXdXdXdX",
"dXdXdXdXdXdXdXdXdXdXdXdXdX. .     dXdXdXdXdX        L B.OXn.z     & q w #   + 7 q &     z n.}.b.b         dXdXdXdXdX    . . dXdXdXdXdXdXdXdXdXdXdXdXdX",
"dXdXdXdXdXdXdXdXdXdXdXdX            dXdXdX.         b m._.b.b         .       .         b b._.m.b         . dXdXdX            dXdXdXdXdXdXdXdXdXdXdXdX",
"dXdXdXdXdXdXdXdXdXdXdXdX    # 9 h f dXdXdX* - : > l ` m.D.m.` z w 8 8 & X   X & 8 8 w z ` M.`.M.` l > : - * dXdXdXf h 9 #     dXdXdXdXdXdXdXdXdXdXdXdX",
"dXdXdXdXdXdXdXdXdXdXdXdX    w T z.| g     , n _ @.-.4.m.V.8.1.;.P.T.J.I &   & I J.T.P.;.1.7.V.M.4.-.@._ n ,     g | z.T w     dXdXdXdXdXdXdXdXdXdXdXdX",
"dXdXdXdXdXdXdXdXdXdXdXdX    P !.1X!.G   . j #.S.}._.Z.5.#.%.2._.wXaXaXJ.8   8 J.aXaXwX_.2.%.#.5.Z._.}.S.#.j .   G !.1X!.G     dXdXdXdXdXdXdXdXdXdXdXdX",
"dXdXdXdXdXdXdXdXdXdXdX. * p | :XpX>XR g z  .S.oX+X.Xn.} J ^ <._.wXaXaXT.U p U T.aXaXwX_.<.^ H ` n..X+XoXS. .k g R >XpX:X| p * . dXdXdXdXdXdXdXdXdXdXdX",
"dXdXdXdXdXdXdXdXdXdX. , m $.@X4XyXeXY.K.x.N.H.|.|.D.$.k > y ^ m.$XqXwX/.x.$.x./.wXqX$Xm.^ y > k $.D.|.|.H.N.x.K.Y.eXyX4X@X$.m , . dXdXdXdXdXdXdXdXdXdX",
"dXdXdXdXdXdXdXdXdX    u @._.,X1X1X7X5X1X,XOX_.D.V.#.n @   @ n #.Z.`._.}.}.}.}.}._.`.Z.#.n @   @ n #.V.D._.OX,X1X5X7X1X1X,X_.@.u     dXdXdXdXdXdXdXdXdX",
"dXdXdXdXdXdXdXdXdX    s =.#X6X1X#X<X<X3X,X%X(.6. .b =     ; H #.2.2.8.C..X+X|.C.2.2.8.#.H ;     - v  .6.(.%X,X4X<X<X#X1X6X#X=.s     dXdXdXdXdXdXdXdXdX",
"dXdXdXdXdXdXdXdXdX    h z.1XyX1XOX XG.A.).(.h.] A -       9 ) 1.8.<.<.m. X.X Xm.<.<.8.1.) 9       - A ] h.(.).A.A. XOX1XtX1Xz.h     dXdXdXdXdXdXdXdXdX",
"dXdXdXdXdXdXdXdXdX    d z.4XyX,X_.V.1.#.O.t.0.C 4         5 ( #.,.%.#.5.A.}.A.5.#.%.,.#.( 5         4 C 0.t.O.#.1.V._.,XtX1Xz.d     dXdXdXdXdXdXdXdXdX",
"dXdXdXdXdXdXdXdX. * p } !.7X5X+XV.2.%.o.! B M r %       . ; j K )  .%.7.S.D.S.7.%. .) K j ; .       % r M B ! o.>.2.S.+X4X7X!.} p * . dXdXdXdXdXdXdXdX",
"dXdXdXdXdXdXdX  > m $.@X2X5X<XG.3.>.+.] S e % o X dXdXdXdX  . = p ) ,.V.Z.V.Z.V.,.) p = .   dXdXdXdXX o % e S ] +.,.3.G.<X5X2X@X$.m >   dXdXdXdXdXdXdX",
"dXdXdXdXdXdX    u  ._.1XqX1X{.b.#.O.t.0.N 1     dXdXdXdXdXdX    > H #.5.,.#.,.5.#.H >     dXdXdXdXdXdX    1 N 0.t.O.#.b.{.1XqX1X_. .u     dXdXdXdXdXdX",
"dXdXdXdXdXdX    s =.,XtXtX,X@X:.[ ! D C e %   dXdXdXdXdXdXdX+ = 5 b ~ ) H n H ) ~ b 5 = + dXdXdXdXdXdXdX  % e C D ! [ :.@X,XtXtX#X=.s     dXdXdXdXdXdX",
"dXdXdXdXdXdX    h z.1XuX7XOXE.a.{ B e 4 % O dXdXdXdXdXdXdXdXJ K b p 5 ; - ; - ; 5 p b n J dXdXdXdXdXdXdXdXO % 4 e B { a.E.+X7XuX1Xz.h     dXdXdXdXdXdX",
"dXdXdXdXdXdX    d z.1XtX<X_.k.s.0.M %     dXdXdXdXdXdXdXdXdX8.#.( y               y ~ #.8.dXdXdXdXdXdXdXdXdX    % M 0.s.k.}.<XtX1Xz.d     dXdXdXdXdXdX",
"dXdXdXdXdXdX    g K.7X6XoXV.9.i.q.C 1     dXdXdXdXdXdXdXdXdXS.5.` u               u ` 5.S.dXdXdXdXdXdXdXdXdX    1 C q.i.9.Z.oX6X7XK.g     dXdXdXdXdXdX",
"dXdXdXdXdXdX    g K.4X4XG.,.+.i.e.Z 4     dXdXdXdXdXdXdXdXdXV.,.~ 5     dXdXdX    5 ( ,.V.dXdXdXdXdXdXdXdXdX    4 Z e.i.+.1.G.3X1XK.g     dXdXdXdXdXdX",
"dXdXdXdXdXdX    g K.1X3XA.#.o.t.0.N 1     dXdXdXdXdXdXdXdXdX7.#.J 5     dXdXdX    5 J #.7.dXdXdXdXdXdXdXdXdX    1 N 0.t.o.#.A.3X1XK.g     dXdXdXdXdXdX",
"dXdXdXdXdXdX    F K.4X4X X%.' A B e % . dXdXdXdXdXdXdXdXdXdX7.,.` p . dXdXdXdXdX. p ` ,.7.dXdXdXdXdXdXdXdXdXdX. % e B A ' %. X5X4XK.g     dXdXdXdXdXdX",
"dXdXdXdXdXdX    F K.6XqX.X,.Q a 2 O o dXdXdXdXdXdXdXdXdXdXdX7.5.#.J dXdXdXdXdXdXdXJ #.5.7.dXdXdXdXdXdXdXdXdXdXdXo O 2 a Q ,..XqX6XK.F     dXdXdXdXdXdX",
"dXdXdXdXdXdX    f z.1X6X.X$.v =     dXdXdXdXdXdXdXdXdXdXdXdX#.#.#.dXdXdXdXdXdXdXdXdX#.#.#.dXdXdXdXdXdXdXdXdXdXdXdX    = v #..X6X1Xz.f     dXdXdXdXdXdX",
"dXdXdXdXdXdX    f z.#X#Xb.~ y @   dXdXdXdXdXdXdXdXdXdXdXdX@.( H n dXdXdXdXdXdXdXdXdXK H J ` dXdXdXdXdXdXdXdXdXdXdXdX  @ y ~ b.#X#Xz.f     dXdXdXdXdXdX",
"dXdXdXdXdXdX    x ;.XXN._ 5 .   dXdXdXdXdXdXdXdXdXdXdXdX_.@.b > + dXdXdXdXdXdXdXdXdX@ > p ~ #.dXdXdXdXdXdXdXdXdXdXdXdX  . 5 _ N.XX;.x     dXdXdXdXdXdX",
"dXdXdXdXdXdX    k 4._.4.k     dXdXdXdXdXdXdXdXdXdXdXdX,X_.$.l     dXdXdXdXdXdXdXdXdX    5 J #.7.dXdXdXdXdXdXdXdXdXdXdXdX    k 4._.4.k     dXdXdXdXdXdX",
"dXdXdXdXdXdX    z b.|.b.z     dXdXdXdXdXdXdXdXdXdXdXdX+X}.4.L   dXdXdXdXdXdXdXdXdXdXdX  i ) #.5.dXdXdXdXdXdXdXdXdXdXdXdX    z b.|.b.z     dXdXdXdXdXdX",
"dXdXdXdXdXdX    z n..Xn.z     dXdXdXdXdXdXdXdXdXdXdXdX.X}.Z.@.dXdXdXdXdXdXdXdXdXdXdXdXdXn ` #.%.dXdXdXdXdXdXdXdXdXdXdXdX    z n..Xn.z     dXdXdXdXdXdX",
"dXdXdXdXdXdX    k 4._.4.k     dXdXdXdXdXdXdXdXdXdXdXdX_._._.dXdXdXdXdXdXdXdXdXdXdXdXdXdXdX#.#.#.dXdXdXdXdXdXdXdXdXdXdXdX    k 4._.4.k     dXdXdXdXdXdX",
"dXdXdXdXdXdXdX  i _ @._ s . dXdXdXdXdXdXdXdXdXdXdXdXdX_.`.`.dXdXdXdXdXdXdXdXdXdXdXdXdXdXdX5.1.1.dXdXdXdXdXdXdXdXdXdXdXdXdX. s _ @._ i   dXdXdXdXdXdXdX",
"dXdXdXdXdXdXdXdX; 9 i i > dXdXdXdXdXdXdXdXdXdXdXdXdXdXZ.Z.Z.dXdXdXdXdXdXdXdXdXdXdXdXdXdXdX8.8.8.dXdXdXdXdXdXdXdXdXdXdXdXdXdX> i i 9 ; dXdXdXdXdXdXdXdX",
"dXdXdXdXdXdXdXdXdX      dXdXdXdXdXdXdXdXdXdXdXdXdXdXdX#.#.#.dXdXdXdXdXdXdXdXdXdXdXdXdXdXdX#.#.#.dXdXdXdXdXdXdXdXdXdXdXdXdXdXdX      dXdXdXdXdXdXdXdXdX",
"dXdXdXdXdXdXdXdXdX      dXdXdXdXdXdXdXdXdXdXdXdXdXdXdXn n n dXdXdXdXdXdXdXdXdXdXdXdXdXdXdXK H H dXdXdXdXdXdXdXdXdXdXdXdXdXdXdX      dXdXdXdXdXdXdXdXdX",
"dXdXdXdXdXdXdXdXdXdXdXdXdXdXdXdXdXdXdXdXdXdXdXdXdXdXdX; ; ; dXdXdXdXdXdXdXdXdXdXdXdXdXdXdX> > > dXdXdXdXdXdXdXdXdXdXdXdXdXdXdXdXdXdXdXdXdXdXdXdXdXdXdX",
"dXdXdXdXdXdXdXdXdXdXdXdXdXdXdXdXdXdXdXdXdXdXdXdXdXdXdX      dXdXdXdXdXdXdXdXdXdXdXdXdXdXdX      dXdXdXdXdXdXdXdXdXdXdXdXdXdXdXdXdXdXdXdXdXdXdXdXdXdXdX",
"dXdXdXdXdXdXdXdXdXdXdXdXdXdXdXdXdXdXdXdXdXdXdXdXdXdXdX      dXdXdXdXdXdXdXdXdXdXdXdXdXdXdX      dXdXdXdXdXdXdXdXdXdXdXdXdXdXdXdXdXdXdXdXdXdXdXdXdXdXdX",
"dXdXdXdXdXdXdXdXdXdXdXdXdXdXdXdXdXdXdXdXdXdXdXdXdXdXdXdXdXdXdXdXdXdXdXdXdXdXdXdXdXdXdXdXdXdXdXdXdXdXdXdXdXdXdXdXdXdXdXdXdXdXdXdXdXdXdXdXdXdXdXdXdXdXdX",
"dXdXdXdXdXdXdXdXdXdXdXdXdXdXdXdXdXdXdXdXdXdXdXdXdXdXdXdXdXdXdXdXdXdXdXdXdXdXdXdXdXdXdXdXdXdXdXdXdXdXdXdXdXdXdXdXdXdXdXdXdXdXdXdXdXdXdXdXdXdXdXdXdXdXdX",
"dXdXdXdXdXdXdXdXdXdXdXdXdXdXdXdXdXdXdXdXdXdXdXdXdXdXdXdXdXdXdXdXdXdXdXdXdXdXdXdXdXdXdXdXdXdXdXdXdXdXdXdXdXdXdXdXdXdXdXdXdXdXdXdXdXdXdXdXdXdXdXdXdXdXdX",
"dXdXdXdXdXdXdXdXdXdXdXdXdXdXdXdXdXdXdXdXdXdXdXdXdXdXdXdXdXdXdXdXdXdXdXdXdXdXdXdXdXdXdXdXdXdXdXdXdXdXdXdXdXdXdXdXdXdXdXdXdXdXdXdXdXdXdXdXdXdXdXdXdXdXdX",
"dXdXdXdXdXdXdXdXdXdXdXdXdXdXdXdXdXdXdXdXdXdXdXdXdXdXdXdXdXdXdXdXdXdXdXdXdXdXdXdXdXdXdXdXdXdXdXdXdXdXdXdXdXdXdXdXdXdXdXdXdXdXdXdXdXdXdXdXdXdXdXdXdXdXdX",
"dXdXdXdXdXdXdXdXdXdXdXdXdXdXdXdXdXdXdXdXdXdXdXdXdXdXdXdXdXdXdXdXdXdXdXdXdXdXdXdXdXdXdXdXdXdXdXdXdXdXdXdXdXdXdXdXdXdXdXdXdXdXdXdXdXdXdXdXdXdXdXdXdXdXdX",
"dXdXdXdXdXdXdXdXdXdXdXdXdXdXdXdXdXdXdXdXdXdXdXdXdXdXdXdXdXdXdXdXdXdXdXdXdXdXdXdXdXdXdXdXdXdXdXdXdXdXdXdXdXdXdXdXdXdXdXdXdXdXdXdXdXdXdXdXdXdXdXdXdXdXdX",
"dXdXdXdXdXdXdXdXdXdXdXdXdXdXdXdXdXdXdXdXdXdXdXdXdXdXdXdXdXdXdXdXdXdXdXdXdXdXdXdXdXdXdXdXdXdXdXdXdXdXdXdXdXdXdXdXdXdXdXdXdXdXdXdXdXdXdXdXdXdXdXdXdXdXdX",
"dXdXdXdXdXdXdXdXdXdXdXdXdXdXdXdXdXdXdXdXdXdXdXdXdXdXdXdXdXdXdXdXdXdXdXdXdXdXdXdXdXdXdXdXdXdXdXdXdXdXdXdXdXdXdXdXdXdXdXdXdXdXdXdXdXdXdXdXdXdXdXdXdXdXdX"
};
