/* XPM */
static const char *foe_idle_front_4[] = {
/* columns rows colors chars-per-pixel */
"75 72 235 2 ",
"   c #000000",
".  c #05050A",
"X  c #09080B",
"o  c #160007",
"O  c #0C0D14",
"+  c #040816",
"@  c #181717",
"#  c #0F0A19",
"$  c #220E1C",
"%  c #200B12",
"&  c #23221B",
"*  c #0B0C28",
"=  c #0B182B",
"-  c #111425",
";  c #12152A",
":  c #14192D",
">  c #171A26",
",  c #191D33",
"<  c #161A34",
"1  c #091A33",
"2  c #260D22",
"3  c #2B1628",
"4  c #371529",
"5  c #361D33",
"6  c #2C0D28",
"7  c #1A2238",
"8  c #1C232D",
"9  c #27292B",
"0  c #35342D",
"q  c #252937",
"w  c #372835",
"e  c #383838",
"r  c #2D2D2E",
"t  c #1E2844",
"y  c #1F3054",
"u  c #242B4B",
"i  c #252B48",
"p  c #27344D",
"a  c #343D49",
"s  c #262C5A",
"d  c #2C3354",
"f  c #2D3759",
"g  c #343255",
"h  c #2B3462",
"j  c #293569",
"k  c #333C6D",
"l  c #373C63",
"z  c #373E74",
"x  c #5B1D46",
"c  c #592554",
"v  c #4F304E",
"b  c #683656",
"n  c #612456",
"m  c #4D3B61",
"M  c #623766",
"N  c #73397B",
"B  c #394554",
"V  c #2C455B",
"C  c #364073",
"Z  c #394376",
"A  c #3B457A",
"S  c #394B7B",
"D  c #3B5268",
"F  c #504D45",
"G  c #6F6B5D",
"H  c #454E79",
"J  c #515169",
"K  c #7A4876",
"L  c #72506F",
"P  c #8C3B7F",
"I  c #8D547B",
"U  c #807E7A",
"Y  c #83817A",
"T  c #6B3C85",
"R  c #3E508C",
"E  c #434D8C",
"W  c #424D86",
"Q  c #46548B",
"!  c #454B90",
"~  c #574B96",
"^  c #48569C",
"/  c #4C5B9C",
"(  c #475899",
")  c #565490",
"_  c #67438B",
"`  c #704B92",
"'  c #5A6D8F",
"]  c #66749C",
"[  c #737091",
"{  c #4A5BA6",
"}  c #585BA9",
"|  c #5959B3",
" . c #6A59AA",
".. c #7B58A8",
"X. c #4964A4",
"o. c #5363A4",
"O. c #5869AB",
"+. c #5C73AA",
"@. c #5767B7",
"#. c #586AB8",
"$. c #5972B7",
"%. c #4C6AB9",
"&. c #626BB5",
"*. c #7B6CB5",
"=. c #6776BC",
"-. c #6A6BAB",
";. c #5A6CC5",
":. c #5974CD",
">. c #5D7AD5",
",. c #6C66C7",
"<. c #786BC3",
"1. c #6577C7",
"2. c #627ADC",
"3. c #6679D8",
"4. c #7C7CD3",
"5. c #7173CA",
"6. c #5E75E0",
"7. c #6478E0",
"8. c #873F86",
"9. c #8C3D88",
"0. c #864D8D",
"q. c #904784",
"w. c #974E93",
"e. c #8C5297",
"r. c #9E559D",
"t. c #8A578C",
"y. c #A15295",
"u. c #976996",
"i. c #844DA4",
"p. c #8756A7",
"a. c #9658A4",
"s. c #A858A9",
"d. c #A65DB5",
"f. c #9868A6",
"g. c #9966BB",
"h. c #8E70B3",
"j. c #B569AC",
"k. c #AF6FB7",
"l. c #A265B2",
"z. c #B26BBC",
"x. c #B874B9",
"c. c #AA64A6",
"v. c #8D76CB",
"b. c #AF7ACE",
"n. c #C779C4",
"m. c #C16EC0",
"M. c #768698",
"N. c #7F8083",
"B. c #7A88A9",
"V. c #7991AC",
"C. c #6A84BC",
"Z. c #7789BA",
"A. c #7490B2",
"S. c #6B86CB",
"D. c #6A82D8",
"F. c #7688D5",
"G. c #788FCD",
"H. c #6D8BEB",
"J. c #6B8BE8",
"K. c #738AEA",
"L. c #768AE9",
"P. c #7A94EB",
"I. c #778BF1",
"U. c #7B98F7",
"Y. c #6988EF",
"T. c #7DA5F5",
"R. c #8E8D91",
"E. c #A8A69B",
"W. c #8393B6",
"Q. c #8D96AF",
"!. c #B382B1",
"~. c #92ACBA",
"^. c #A7B5BC",
"/. c #ACAFB3",
"(. c #8A89CD",
"). c #A685D5",
"_. c #B297D1",
"`. c #95ABD4",
"'. c #BCBDC3",
"]. c #AAB2DC",
"[. c #8788E1",
"{. c #8295E7",
"}. c #869EFF",
"|. c #8599FA",
" X c #9696FC",
".X c #9C82E3",
"XX c #A29AFC",
"oX c #BC8FE7",
"OX c #9AABE8",
"+X c #98B3E6",
"@X c #84A4FE",
"#X c #8BA3FF",
"$X c #8AAAFD",
"%X c #87A2F3",
"&X c #93ACFD",
"*X c #9CAAFD",
"=X c #9CB4FF",
"-X c #98B6FE",
";X c #B0ABFF",
":X c #A3BAF9",
">X c #B7B5FF",
",X c #D797DF",
"<X c #D188D2",
"1X c #D592E2",
"2X c #CA98EB",
"3X c #E798EC",
"4X c #EDA8FA",
"5X c #EABFFF",
"6X c #DFBAFF",
"7X c #B3C8DB",
"8X c #95C3FF",
"9X c #ABC4FF",
"0X c #A7C7FD",
"qX c #B6CEFF",
"wX c #B3C9FD",
"eX c #BBD3FD",
"rX c #B7D6FA",
"tX c #BFD6E8",
"yX c #C9CBCA",
"uX c #CDD8DB",
"iX c #C8C6F9",
"pX c #C4DCFF",
"aX c #C9D9FF",
"sX c #CFDBF4",
"dX c #F5CDFF",
"fX c #C6E2FF",
"gX c #CAE4FF",
"hX c #CFEDFF",
"jX c #D1EDFF",
"kX c #CBF3FF",
"lX c #D8F5FF",
"zX c white",
"xX c #F1E8FF",
"cX c #E0E0DB",
"vX c None",
/* pixels */
"vXvXvXvXvXvXvXvXvXvXvXvXvXvXvXvXvXvXvXvXvXvXvXvXvXvXvXvXvXvXvXvXvXvXvXvXvXvXvXvXvXvXvXvXvXvXvXvXvXvXvXvXvXvXvXvXvXvXvXvXvXvXvXvXvXvXvXvXvXvXvXvXvXvXvX",
"vXvXvXvXvXvXvXvXvXvXvXvXvXvXvXvXvXvXvXvXvXvXvXvXvXvXvXvXvXvXvXvXvXvXvXvXvXvXvXvXvXvXvXvXvXvXvXvXvXvXvXvXvXvXvXvXvXvXvXvXvXvXvXvXvXvXvXvXvXvXvXvXvXvXvX",
"vXvXvXvXvXvXvXvXvXvXvXvXvXvXvXvXvXvXvXvXvXvXvXvXvXvXvXvXvXvXvXvXvXvXvXvXvXvXvXvXvXvXvXvXvXvXvXvXvXvXvXvXvXvXvXvXvXvXvXvXvXvXvXvXvXvXvXvXvXvXvXvXvXvXvX",
"vXvXvXvXvXvXvXvXvXvX. .     vXvXvXvXvXvXvXvXvXvXvXvXvXvXvXvXvXvXvXvXvXvXvXvXvXvXvXvXvXvXvXvXvXvXvXvXvXvXvXvXvXvXvXvXvXvXvX    . . vXvXvXvXvXvXvXvXvXvX",
"vXvXvXvXvXvXvXvXvX            vXvXvXvXvXvXvXvXvXvXvXvXvXvXvXvXvXvXvXvXvXvXvXvXvXvXvXvXvXvXvXvXvXvXvXvXvXvXvXvXvXvXvXvXvX            vXvXvXvXvXvXvXvXvX",
"vXvXvXvXvXvXvXvXvX    O , i u , vXvXvXvXvXvXvXvXvXvXvXvXvXvXvXvXvXvXvXvXvXvXvXvXvXvXvXvXvXvXvXvXvXvXvXvXvXvXvXvXvXvXvX, u i , O     vXvXvXvXvXvXvXvXvX",
"vXvXvXvXvXvXvXvXvX    7 A o./ d         .           vXvXvXvXvXvXvXvXvXvXvXvXvXvXvXvXvXvXvXvXvXvXvX          .         d / o.A 7     vXvXvXvXvXvXvXvXvX",
"vXvXvXvXvXvXvXvXvX    f 1.}.F.l         .             vXvXvXvXvXvXvXvXvXvXvXvXvXvXvXvXvXvXvXvXvX            .         l F.}.1.f     vXvXvXvXvXvXvXvXvX",
"vXvXvXvXvXvXvXvX. - f ] OX9X(.B     @ a B B B a p p t : vXvXvXvXvXvXvXvXvXvXvXvXvXvXvXvXvXvXvX: t p p a B B f t +     B (.9XOX] f - + vXvXvXvXvXvXvXvX",
"vXvXvXvXvXvXvX  , Z =.&XeXqXV.a . O B M.W.W.V.A.C.$.Q t         vXvXvXvXvXvXvXvXvXvXvX        t R $.C.A.V.A.C.X.y + . a W.qXeX&X=.Z ,   vXvXvXvXvXvXvX",
"vXvXvXvXvXvX    t / }.eXjXqXM.9   9 ] qXjXgXqX9X:X}.#.u         . vXvXvXvXvXvXvXvXvX.         u #.#X9XqXqXqX9X@X^ =   r M.qXhXeX}./ t     vXvXvXvXvXvX",
"vXvXvXvXvXX > p S $.@XrXhXeXM.9   0 R.xXzXxXiX>X;X X5.W p 7 : : ; # vXvXvXvXvXvXvX# ; : : 7 p W 5. X;X>XiXsXxXiX[ 8   9 M.rXhXrX@X$.S i > X vXvXvXvXvX",
"vXvXvXvX  q H +.1.2.J.-XpXeXM.9   w !.dXxXdX_.v.g.g.*.=.$.X.R k u -               - u k R X.$.=.*.g.g.b._.6XdXdXf.w   9 M.eXpX-XH.2.1.+.H q   vXvXvXvX",
"vXvXvX    p +.}.}.3.@.G.wXqXV.q   3 t.,X4X1Xk.w.9.q.p.[.}.@XK.@.z :               : z @.H.@X}.[.p.8.P w.k.1X4X,Xt.3   q V.qXwXG.@.3.}.}.+.p     vXvXvX",
"vXvXvX, f ( D.T.L.| ~ *.OX9X`.' a w b I c.n.n.j.y.q.e.v.XX*X#XK.o.h ; + * ; * + ; h o.K.#X*XXXv.e.q.y.j.n.n.j.I b w a ' `.9XOX*.~ | L.T.D.( f , vXvXvX",
"    i ) 1.J.H.>.| _ T ..(.=X0X+XW.J 9 4 b j.3X3Xn.r.w.a.g..X X}.D.^ k s j k j s k ^ D.|. X.Xg.a.w.r.n.3X3Xj.b 4 r J V.+X0X=X(.p.T _ | >.J.J.1.) i     ",
"    i O.}.$XH.@.~ N 8.p.v.}.0XfXqXM.q   3 t.,X4X1Xk.w.9.8.p.[.}.U.D.@.} @.@.@.} @.D.U.}.[.p.8.P w.k.1X4X,Xt.3   q M.qXfX0X@Xv.p.q.N ~ @.H.$X}.O.i     ",
"    7 H 1.P.[.v.f.y.w.i.,.H.8XkXkX~.D 1 < m u.!.n.z.r.8.N ` 4.}.$X@X{.{.{.{.{.{.{.@X$X}.4.` N 8.r.z.n.!.u.m < 1 D ~.kXkX8XH.,.i.w.y.f.v.[.{.1.H 7     ",
"    . = f ] ).2X1Xn.c...| :.T.rXkXrXG.( j q w b q.s.a.` ~ } D.}.&X=X:X:X:X:X:X:X:X=X&X}.3.} ~ ` a.s.q.b w q j ( G.rXkXrXT.:.| ..c.n.1X2X).] f = .     ",
"X         v f.,X3X<Xk.p. .@.S.+XqXpXwX@XX.7   o x 8.p. .@.:.H.}.=X9XqXeXeXqXeXeXqX9X=X}.H.:.@. .p.8.x o   7 X.}.wXpXqX+XS.@.} p.k.<X3X,Xf.v         X ",
"X         w L u.k.x.z.g... .-.h._.iXaXqXA.V +   6 c _ &.>.H.U.&X:XqXpXfXfXpXfXfXpXqX:X&XU.H.D.&._ c 6   + V A.qXaXiX_.h.-. ...g.z.x.k.u.L w         X ",
"vXvXvXvXvX@ 9 vXM 0.s.z.l.a.e.0.f._.iXpX+X+.h * # 3 l @.H.@X-X:XwXeXpXfXfXpXfXfXpXeXwX:X-X$XP.O.m 3 # * h +.+XpXiX_.f.0.e.a.l.z.s.0.M v 9 @ vXvXvXvXvX",
"vXvXvXvXvXvX    2 c q.d.x.k.r.9.8.f.].qX0X%X@.s +   7 o.}.9XqXqXrXeXqXqXqXqXqXqXqXeXeXqXqX9X@Xo.7   + s @.%X0XqX].f.8.9.r.k.x.d.8.c 2     vXvXvXvXvXvX",
"vXvXvXvXvXvXvX  o 6 c 0.b.oXb.i.T ` W.+X0X-XI.! ;   8 o.=XpXjXgXtX7X].OXOX=XOXOX`.7XsXgXgXeX#X/ ,   ; ! I.-X0X+XW.` T i.b.oXb.0.c 6 o   vXvXvXvXvXvXvX",
"vXvXvXvXvXvXvXvX    2 J (.;XXX<.~ E o.S.$X-X}.} ,   8 ] 9XjXlXjX7X^.Q.Z.G.P.G.Z.Q.^.uXhXhXeX#X/ :   8 o.}.-X$XS.o.E ~ <.XX;X(.J 2     vXvXvXvXvXvXvXvX",
"vXvXvXvXvXvXvXvXvX    i O.@X#XL.@.^ ^ @.L.#X}.o.,   9 M.qXjXgXqX].^.Q.B.+.#.&.B.Q.^.7XqXqX9X}./ :   7 O.}.#XL.@.^ ^ @.L.#X}.O.i     vXvXvXvXvXvXvXvXvX",
"vXvXvXvXvXvXvXvXvXvX  7 S O.S.F.4.<. . .,.I.P.#.j i J `.eXeX`.V.~.yXyXQ.) z ) Q.yXyX^.W.G.#X}.1.C i C $.P.I.,. . .*.4.F.S.O.S 7   vXvXvXvXvXvXvXvXvXvX",
"vXvXvXvXvXvXvXvXvXvXvX+ = u H *.).b.d.i...5.>.%.R ( Z.wXeX`.J B [ cXzX'.J : J '.zXcXR.B Z 1.}.P.&.( ^ %.>.5. .i.d.b.).*.H u = + vXvXvXvXvXvXvXvXvXvXvX",
"vXvXvXvXvXvXvXvXvXvXvXvX    w K k.m.s.8._  .@.%.{ @.{.qXqXB.8   F yXzXvXe   e ^.zXyXF   * { }.&XL.@.{ %.@. ._ 8.s.m.k.K w     vXvXvXvXvXvXvXvXvXvXvXvX",
"vXvXvXvXvXvXvXvXvXvXvXvXvX  3 M K K b n M `  .} ! ( S.:X9XB.q   9 U /.R.9   9 [ /.Y r   < O.#X#X1.( ! }  .` M c b K K M 3   vXvXvXvXvXvXvXvXvXvXvXvXvX",
"vXvXvXvXvXvXvXvXvXvXvXvXvXvX2 5 5 3 $ 2 v ` i.T g u Q P.&XS.f     & e r O   O r e &     d 1.#XF.Q u g T i.` v 2 $ 3 5 5 2 vXvXvXvXvXvXvXvXvXvXvXvXvXvX",
"vXvXvXvXvXvXvXvXvXvXvXvXvXvXvX          5 N 8.n %   p 1.}.F.l         .       .         l F.}.1.p   % n 8.N 5           vXvXvXvXvXvXvXvXvXvXvXvXvXvXvX",
"vXvXvXvXvXvXvXvXvXvXvXvXvXvXvXvX        4 c c 4 o   y #.U.K.o.f e e 0 & X   X & 0 0 q f o.L.|.$.y   o 4 c c 4         vXvXvXvXvXvXvXvXvXvXvXvXvXvXvXvX",
"vXvXvXvXvXvXvXvXvXvXvXvXvXvXvXvXvXvXvXvX2 3 2 o     t / J.Y.2.=.W.^.E.G &   & G E./.W.=.3.I.J./ t     o 2 3 $ vXvXvXvXvXvXvXvXvXvXvXvXvXvXvXvXvXvXvXvX",
"vXvXvXvXvXvXvXvXvXvXvXvXvXvXvXvXvXvXvXvXvX.         , A @.2.Y.}.gXzXzXE.0   0 E.zXzXaX}.Y.2.@.A ,         . vXvXvXvXvXvXvXvXvXvXvXvXvXvXvXvXvXvXvXvXvX",
"vXvXvXvXvXvXvXvXvXvXvXvXvXvXvXvXvXvXvXvXvXvX      . - p Z { >.}.jXzXzX/.J p J /.zXzXaX}.>.{ Z u - .       vXvXvXvXvXvXvXvXvXvXvXvXvXvXvXvXvXvXvXvXvXvX",
"vXvXvXvXvXvXvXvXvXvXvXvXvXvXvXvXvXvXvXvXvXvXvXvXvXvXvXO , h ^ D.:XpXaX].Z.+.Z.].aXpX=XD.^ h : O vXvXvXvXvXvXvXvXvXvXvXvXvXvXvXvXvXvXvXvXvXvXvXvXvXvXvX",
"vXvXvXvXvXvXvXvXvXvXvXvXvXvXvXvXvXvXvXvXvXvXvXvXvXvXvX    : k @.K.|.}.#X#X}.#X#X}.}.K.@.k :     vXvXvXvXvXvXvXvXvXvXvXvXvXvXvXvXvXvXvXvXvXvXvXvXvXvXvX",
"vXvXvXvXvXvXvXvXvXvXvXvXvXvXvXvXvXvXvXvXvXvXvXvXvXvXvX    : Z @.2.6.2.L.$X-X$XP.7.6.2.@.Z :     vXvXvXvXvXvXvXvXvXvXvXvXvXvXvXvXvXvXvXvXvXvXvXvXvXvXvX",
"vXvXvXvXvXvXvXvXvXvXvXvXvXvXvXvXvXvXvXvXvXvXvXvXvXvXvX    , W ;.7.:.;.3.%X&X%XD.;.:.7.;.W ,     vXvXvXvXvXvXvXvXvXvXvXvXvXvXvXvXvXvXvXvXvXvXvXvXvXvXvX",
"vXvXvXvXvXvXvXvXvXvXvXvXvXvXvXvXvXvXvXvXvXvXvXvXvXvXvX    , Z @.:.#.@.1.P.}.P.1.@.#.1.@.Z ,     vXvXvXvXvXvXvXvXvXvXvXvXvXvXvXvXvXvXvXvXvXvXvXvXvXvXvX",
"vXvXvXvXvXvXvXvXvXvXvXvXvXvXvXvXvXvXvXvXvXvXvXvXvXvXvXvX. ; u C E { ;.3.I.P.I.D.;.{ E C u ; . vXvXvXvXvXvXvXvXvXvXvXvXvXvXvXvXvXvXvXvXvXvXvXvXvXvXvXvX",
"vXvXvXvXvXvXvXvXvXvXvXvXvXvXvXvXvXvXvXvXvXvXvXvXvXvXvXvXvX. . # u E 1.K.K.L.K.K.1.E u # .   vXvXvXvXvXvXvXvXvXvXvXvXvXvXvXvXvXvXvXvXvXvXvXvXvXvXvXvXvX",
"vXvXvXvXvXvXvXvXvXvXvXvXvXvXvXvXvXvXvXvXvXvXvXvXvXvXvXvXvXvX    , Z @.3.;.@.;.3.@.Z ,     vXvXvXvXvXvXvXvXvXvXvXvXvXvXvXvXvXvXvXvXvXvXvXvXvXvXvXvXvXvX",
"vXvXvXvXvXvXvXvXvXvXvXvXvXvXvXvXvXvXvXvXvXvXvXvXvXvXvXvXvXvX- , i h Z A C k C A Z h i , - vXvXvXvXvXvXvXvXvXvXvXvXvXvXvXvXvXvXvXvXvXvXvXvXvXvXvXvXvXvX",
"vXvXvXvXvXvXvXvXvXvXvXvXvXvXvXvXvXvXvXvXvXvXvXvXvXvXvXvXvXvX( E C d , - ; : ; - , d C E ( vXvXvXvXvXvXvXvXvXvXvXvXvXvXvXvXvXvXvXvXvXvXvXvXvXvXvXvXvXvX",
"vXvXvXvXvXvXvXvXvXvXvXvXvXvXvXvXvXvXvXvXvXvXvXvXvXvXvXvXvXvX3.@.W t               t R @.3.vXvXvXvXvXvXvXvXvXvXvXvXvXvXvXvXvXvXvXvXvXvXvXvXvXvXvXvXvXvX",
"vXvXvXvXvXvXvXvXvXvXvXvXvXvXvXvXvXvXvXvXvXvXvXvXvXvXvXvXvXF.O.E k ,               7 k E { #.vXvXvXvXvXvXvXvXvXvXvXvXvXvXvXvXvXvXvXvXvXvXvXvXvXvXvXvXvX",
"vXvXvXvXvXvXvXvXvXvXvXvXvXvXvXvXvXvXvXvXvXvXvXvXvXvXvXvX:XC.H t * . vXvXvXvXvXvXvXO - t k { 3.vXvXvXvXvXvXvXvXvXvXvXvXvXvXvXvXvXvXvXvXvXvXvXvXvXvXvXvX",
"vXvXvXvXvXvXvXvXvXvXvXvXvXvXvXvXvXvXvXvXvXvXvXvXvXvXvX9X}.O.d     vXvXvXvXvXvXvXvXvX    7 A @.2.vXvXvXvXvXvXvXvXvXvXvXvXvXvXvXvXvXvXvXvXvXvXvXvXvXvXvX",
"vXvXvXvXvXvXvXvXvXvXvXvXvXvXvXvXvXvXvXvXvXvXvXvXvXvX$.1.O.W i   vXvXvXvXvXvXvXvXvXvXvX  : f A ( { vXvXvXvXvXvXvXvXvXvXvXvXvXvXvXvXvXvXvXvXvXvXvXvXvXvX",
"vXvXvXvXvXvXvXvXvXvXvXvXvXvXvXvXvXvXvXvXvXvXvXvXvX{ E k d q > vXvXvXvXvXvXvXvXvXvXvXvXvXO - 7 f W @.vXvXvXvXvXvXvXvXvXvXvXvXvXvXvXvXvXvXvXvXvXvXvXvXvX",
"vXvXvXvXvXvXvXvXvXvXvXvXvXvXvXvXvXvXvXvXvXvXvXvX2.@.A 7     vXvXvXvXvXvXvXvXvXvXvXvXvXvXvX    7 A @.2.vXvXvXvXvXvXvXvXvXvXvXvXvXvXvXvXvXvXvXvXvXvXvXvX",
"vXvXvXvXvXvXvXvXvXvXvXvXvXvXvXvXvXvXvXvXvXvXvXvXK.1./ d   vXvXvXvXvXvXvXvXvXvXvXvXvXvXvXvXvX  i E @.3.vXvXvXvXvXvXvXvXvXvXvXvXvXvXvXvXvXvXvXvXvXvXvXvX",
"vXvXvXvXvXvXvXvXvXvXvXvXvXvXvXvXvXvXvXvXvXvXvXvXU.L.1.Q vXvXvXvXvXvXvXvXvXvXvXvXvXvXvXvXvXvXvXC { @.;.vXvXvXvXvXvXvXvXvXvXvXvXvXvXvXvXvXvXvXvXvXvXvXvX",
"vXvXvXvXvXvXvXvXvXvXvXvXvXvXvXvXvXvXvXvXvXvXvXvX}.}.}.vXvXvXvXvXvXvXvXvXvXvXvXvXvXvXvXvXvXvXvXvX@.@.@.vXvXvXvXvXvXvXvXvXvXvXvXvXvXvXvXvXvXvXvXvXvXvXvX",
"vXvXvXvXvXvXvXvXvXvXvXvXvXvXvXvXvXvXvXvXvXvXvXF.|.&XvXvXvXvXvXvXvXvXvXvXvXvXvXvXvXvXvXvXvXvXvXvXvX@.@.@.vXvXvXvXvXvXvXvXvXvXvXvXvXvXvXvXvXvXvXvXvXvXvX",
"vXvXvXvXvXvXvXvXvXvXvXvXvXvXvXvXvXvXvXvXvX@.@.1.F.vXvXvXvXvXvXvXvXvXvXvXvXvXvXvXvXvXvXvXvXvXvXvXvXvX@.@.@.@.vXvXvXvXvXvXvXvXvXvXvXvXvXvXvXvXvXvXvXvXvX",
"vXvXvXvXvXvXvXvXvXvXvXvXvXvXvXvXvXvXvXvXvX@.@.@.vXvXvXvXvXvXvXvXvXvXvXvXvXvXvXvXvXvXvXvXvXvXvXvXvXvXvX@.@.@.vXvXvXvXvXvXvXvXvXvXvXvXvXvXvXvXvXvXvXvXvX",
"vXvXvXvXvXvXvXvXvXvXvXvXvXvXvXvXvXvXvXvXvX@.@.@.vXvXvXvXvXvXvXvXvXvXvXvXvXvXvXvXvXvXvXvXvXvXvXvXvXvXvX@.@.@.vXvXvXvXvXvXvXvXvXvXvXvXvXvXvXvXvXvXvXvXvX",
"vXvXvXvXvXvXvXvXvXvXvXvXvXvXvXvXvXvXvXvXvXvXvXvXvXvXvXvXvXvXvXvXvXvXvXvXvXvXvXvXvXvXvXvXvXvXvXvXvXvXvXvXvXvXvXvXvXvXvXvXvXvXvXvXvXvXvXvXvXvXvXvXvXvXvX",
"vXvXvXvXvXvXvXvXvXvXvXvXvXvXvXvXvXvXvXvXvXvXvXvXvXvXvXvXvXvXvXvXvXvXvXvXvXvXvXvXvXvXvXvXvXvXvXvXvXvXvXvXvXvXvXvXvXvXvXvXvXvXvXvXvXvXvXvXvXvXvXvXvXvXvX",
"vXvXvXvXvXvXvXvXvXvXvXvXvXvXvXvXvXvXvXvXvXvXvXvXvXvXvXvXvXvXvXvXvXvXvXvXvXvXvXvXvXvXvXvXvXvXvXvXvXvXvXvXvXvXvXvXvXvXvXvXvXvXvXvXvXvXvXvXvXvXvXvXvXvXvX",
"vXvXvXvXvXvXvXvXvXvXvXvXvXvXvXvXvXvXvXvXvXvXvXvXvXvXvXvXvXvXvXvXvXvXvXvXvXvXvXvXvXvXvXvXvXvXvXvXvXvXvXvXvXvXvXvXvXvXvXvXvXvXvXvXvXvXvXvXvXvXvXvXvXvXvX",
"vXvXvXvXvXvXvXvXvXvXvXvXvXvXvXvXvXvXvXvXvXvXvXvXvXvXvXvXvXvXvXvXvXvXvXvXvXvXvXvXvXvXvXvXvXvXvXvXvXvXvXvXvXvXvXvXvXvXvXvXvXvXvXvXvXvXvXvXvXvXvXvXvXvXvX",
"vXvXvXvXvXvXvXvXvXvXvXvXvXvXvXvXvXvXvXvXvXvXvXvXvXvXvXvXvXvXvXvXvXvXvXvXvXvXvXvXvXvXvXvXvXvXvXvXvXvXvXvXvXvXvXvXvXvXvXvXvXvXvXvXvXvXvXvXvXvXvXvXvXvXvX",
"vXvXvXvXvXvXvXvXvXvXvXvXvXvXvXvXvXvXvXvXvXvXvXvXvXvXvXvXvXvXvXvXvXvXvXvXvXvXvXvXvXvXvXvXvXvXvXvXvXvXvXvXvXvXvXvXvXvXvXvXvXvXvXvXvXvXvXvXvXvXvXvXvXvXvX",
"vXvXvXvXvXvXvXvXvXvXvXvXvXvXvXvXvXvXvXvXvXvXvXvXvXvXvXvXvXvXvXvXvXvXvXvXvXvXvXvXvXvXvXvXvXvXvXvXvXvXvXvXvXvXvXvXvXvXvXvXvXvXvXvXvXvXvXvXvXvXvXvXvXvXvX",
"vXvXvXvXvXvXvXvXvXvXvXvXvXvXvXvXvXvXvXvXvXvXvXvXvXvXvXvXvXvXvXvXvXvXvXvXvXvXvXvXvXvXvXvXvXvXvXvXvXvXvXvXvXvXvXvXvXvXvXvXvXvXvXvXvXvXvXvXvXvXvXvXvXvXvX",
"vXvXvXvXvXvXvXvXvXvXvXvXvXvXvXvXvXvXvXvXvXvXvXvXvXvXvXvXvXvXvXvXvXvXvXvXvXvXvXvXvXvXvXvXvXvXvXvXvXvXvXvXvXvXvXvXvXvXvXvXvXvXvXvXvXvXvXvXvXvXvXvXvXvXvX",
"vXvXvXvXvXvXvXvXvXvXvXvXvXvXvXvXvXvXvXvXvXvXvXvXvXvXvXvXvXvXvXvXvXvXvXvXvXvXvXvXvXvXvXvXvXvXvXvXvXvXvXvXvXvXvXvXvXvXvXvXvXvXvXvXvXvXvXvXvXvXvXvXvXvXvX",
"vXvXvXvXvXvXvXvXvXvXvXvXvXvXvXvXvXvXvXvXvXvXvXvXvXvXvXvXvXvXvXvXvXvXvXvXvXvXvXvXvXvXvXvXvXvXvXvXvXvXvXvXvXvXvXvXvXvXvXvXvXvXvXvXvXvXvXvXvXvXvXvXvXvXvX"
};
