/* XPM */
static char *_8c7b984628644479496bbb870be90bboxudXCWRYYfdUU8A[] = {
/* columns rows colors chars-per-pixel */
"72 72 218 2 ",
"   c #491717",
".  c #4C1B16",
"X  c #4D1E1C",
"o  c #4E231B",
"O  c #51251E",
"+  c #52291D",
"@  c #4E2422",
"#  c #532623",
"$  c #532A23",
"%  c #522529",
"&  c #552C2C",
"*  c #5A2E2B",
"=  c #563426",
"-  c #56352B",
";  c #59342B",
":  c #57382C",
">  c #5A3A2F",
",  c #592E31",
"<  c #563731",
"1  c #5C3333",
"2  c #5A3D32",
"3  c #5C3B39",
"4  c #613635",
"5  c #6B3739",
"6  c #653A38",
"7  c #6A3C3C",
"8  c #713E3D",
"9  c #7B3F3B",
"0  c #5C4333",
"q  c #5C433C",
"w  c #5F4939",
"e  c #614C3C",
"r  c #6C483E",
"t  c #7C433E",
"y  c #794B3F",
"u  c #63523E",
"i  c #673D40",
"p  c #723E40",
"a  c #59594A",
"s  c #654342",
"d  c #6B4343",
"f  c #634C43",
"g  c #6B4D47",
"h  c #744541",
"j  c #734946",
"k  c #7B4B45",
"l  c #744C4A",
"z  c #635443",
"x  c #6A5444",
"c  c #645946",
"v  c #64564A",
"b  c #6B544C",
"n  c #645B4B",
"m  c #695D4B",
"M  c #7E534A",
"N  c #655C54",
"B  c #6B5B56",
"V  c #735854",
"C  c #5E6155",
"Z  c #65604F",
"A  c #6A614E",
"S  c #77604E",
"D  c #666153",
"F  c #6B6453",
"G  c #6D6956",
"H  c #666459",
"J  c #6B6659",
"K  c #6D6A5C",
"L  c #756656",
"P  c #72645C",
"I  c #726B5C",
"U  c #72715E",
"Y  c #6A6963",
"T  c #6D6D62",
"R  c #716E62",
"E  c #6E7166",
"W  c #64736C",
"Q  c #6E746B",
"!  c #6E796E",
"~  c #727264",
"^  c #7A7465",
"/  c #7B7867",
"(  c #71766D",
")  c #79746B",
"_  c #74796D",
"`  c #7A7B6D",
"'  c #697772",
"]  c #667A76",
"[  c #6C7B74",
"{  c #6C7E78",
"}  c #727670",
"|  c #737C73",
" . c #7A7D74",
".. c #757F78",
"X. c #7A7E79",
"o. c #854A43",
"O. c #804D45",
"+. c #8D5346",
"@. c #8A534A",
"#. c #8F594D",
"$. c #965849",
"%. c #945A4A",
"&. c #9B5B4B",
"*. c #815A52",
"=. c #8A5E55",
"-. c #945F53",
";. c #A25E4F",
":. c #8C6454",
">. c #956758",
",. c #89715B",
"<. c #9E725E",
"1. c #B0694F",
"2. c #A36551",
"3. c #AC6A54",
"4. c #B26C53",
"5. c #AA735A",
"6. c #B8755B",
"7. c #956C61",
"8. c #847669",
"9. c #8B7C6C",
"0. c #9A7765",
"q. c #867E71",
"w. c #AA7965",
"e. c #B47A61",
"r. c #BD7D62",
"t. c #C67D5E",
"y. c #CA7E5D",
"u. c #C57F61",
"i. c #6E827C",
"p. c #758176",
"a. c #7B8176",
"s. c #75837B",
"d. c #79857D",
"f. c #76887F",
"g. c #79887F",
"h. c #838274",
"j. c #888679",
"k. c #938372",
"l. c #9E8775",
"z. c #978877",
"x. c #958B7B",
"c. c #A2866E",
"v. c #AC826A",
"b. c #B7866A",
"n. c #B78A6F",
"m. c #A88973",
"M. c #B38B72",
"N. c #BE8D70",
"B. c #BC9176",
"V. c #CF825F",
"C. c #C38667",
"Z. c #CB8262",
"A. c #C68C6D",
"S. c #CE8C6B",
"D. c #D78864",
"F. c #DD926C",
"G. c #C28F71",
"H. c #C29275",
"J. c #E08C64",
"K. c #E4956C",
"L. c #6F8580",
"P. c #6F8A84",
"I. c #748781",
"U. c #7C8681",
"Y. c #778981",
"T. c #7B8C84",
"R. c #7D8F88",
"E. c #7E9087",
"W. c #75918C",
"Q. c #7D918A",
"!. c #7D9692",
"~. c #7C9895",
"^. c #848781",
"/. c #898681",
"(. c #828C85",
"). c #8A8C82",
"_. c #828E89",
"`. c #898E8C",
"'. c #9C8D88",
"]. c #8A9286",
"[. c #87968B",
"{. c #83928C",
"}. c #8A928C",
"|. c #999487",
" X c #919A8F",
".X c #869691",
"XX c #8B9593",
"oX c #849994",
"OX c #8C9A95",
"+X c #8F9798",
"@X c #8D9B99",
"#X c #909393",
"$X c #919C94",
"%X c #939C9B",
"&X c #989E9F",
"*X c #8EA097",
"=X c #8DA29B",
"-X c #91A59B",
";X c #93A39C",
":X c #98A39F",
">X c #979FA0",
",X c #989FA0",
"<X c #95A3A2",
"1X c #9BA3A3",
"2X c #96A9A5",
"3X c #9CACA5",
"4X c #9CABAA",
"5X c #9EB1A7",
"6X c #9FB1A9",
"7X c #A0A6A8",
"8X c #A1ABAB",
"9X c #A2B4AC",
"0X c #A6B8AF",
"qX c #A3ACB1",
"wX c #A4B7B1",
"eX c #A5B9B2",
"rX c #A9BEB6",
"tX c #ABC2BC",
/* pixels */
"f.f.f.Y.T.T.T.T.T.T.T.g.T.T.T.E.R.d.s.| ( ( ! | Y.T.T.R.T.T.R.T.T.T.T.T.T.T.T.T.T.R.R.R.g.s.| ! Q [ } s.T.{.$X,X1X,X%XXX{.T.Y...` I A m A K W Q ",
"T.T.T.T.T.T.T.T.T.T.T.T.T.T.E.T.T.f.p.| } ( |  .Y.T.R.T.T.T.T.T.R.T.T.T.T.R.g.T.T.T.T.T.d.p.| } }  .p.s.T.{.+X%X,X,X%XXX_.T.Y.s.| E F F G ~ ....",
"[.{.{.R.T.T.T.T.T.T.R.T.T.T.T.T.d.s.| } } } p.s.d.T.T.T.T.f.d.T.g.Y.T.T.T.T.T.T.T.T.T.Y.s.| | } |  .f.f.T._.{.XX$X,X%XXX_.T.Y.s.i.W Y K Q ..T.R.",
"%X@X.X_.T.f.f.T.T.T.E.(.(.E.g.d.s.| } ( } s.f.T.T.T.T.T.f.T.Y.T.Y.g.f.Y.T.T.T.T.T.Y.d.s. .| | ..s.f.T.T.T.T.R._.XX%X,X+X_.T.I.L.i.i.] [ Y.R.+X@X",
",X%X+X_.T.Y.f.T.T.T.T.T.E.T.f.p.} ( } | ..f.R.Y.T.T.T.T.T.T.Y.R.T.T.R.Y.T.T.T.T.T.T.| | } } | p.Y.T.Q.T.T.Y.Y.T.{.$X%X@X.XT.T.T.T.T.Y.T.{.@X&X,X",
"#XXX.XR.R.T.E.T.T.Y.i.L.i.f.i.{ [ { p.f.T.R.R.R.T.T.R._.{._.{._._..X{._.R.T.T.E.T.d.| } Q Q }  .s.T.Y.Y.T.T.T.R._.XXXXoX!.Y.T.).x.|.|.|.|.'.'.'.",
"h.U.U.U.R.R.(.E.Y.i.] ] ] { ] [ [ s.f.E.R.E.R.R.T.T.R..X.XXXXXXX$X%X$XXX{.E.T.E.T.d.p.( Q ! } |  ...p.f.Y.R.{..XXXXX{.W.W.W.).l.M.H.H.B.M.w.0.>.",
"} | ..U.T.R.E.T.d.p.| } | | } } | p.f.T.E.T.Y.Y.Y.T._.XX%X&X&X%X>X%X%X.X{.T.Y.Y.T.d.s.| | } } [ ! | ..s.T.[.+X%X+X`.T.P.P.T.x.M.S.F.F.S.r.>.%.+.",
"' ! | s.f.I.P.I.s.h.9.k.k.k.9.8.8.^ )  .X.X.U.Y.Y.T.{.+X,X1X1X,X%X%X+X_.R.g.f.Y.T.f.s.s.p.s... .| } X.s._.OX&X:X$X{.f.[ } h.m.A.F.K.J.y.1.$.o.t ",
"p.p.p. .| ] ] ]  .l.n.A.G.N.w.<.:.*.l B Y } s.Y.Y.R.{.+X,X1X,X&X+X.X_.U.f.f.f.Y.Y.g.f.d.g.T.T.s...{ X.(.}.-X1X3XOX_. .( I >.e.S.F.J.y.1.$.o.h h ",
"T.T.Y.X.} [ [ } k.v.S.F.F.S.b.3.%.k 8 d b Y X.s.Y.T.{.XX%X,X,X%X.X{.Y.Y.T.T.T.T.T.T.T.T.T.R.T.f.[ | a.`.&X1X8X3X=XQ.| P *.%.3.u.S.u.6.$.o.h d s ",
"oX.X_.I.|  .h.k.v.b.y.D.D.V.6.2.+.9 5 5 7 B Q | s.T._..XXX+X@X@X.X{.{.{.{.[.[.[._._.R.T.T.R.Y.} T (  .#X4XeXrX9X-XQ.} F k o.&.3.w.w.>.O.7 6 1 1 ",
":X$X.XR.Y.j.m.N.b.6.4.3.4.4.2.#.k p 5 5 d b K ~ p.f.T.R.{.{..X.X.XOX*X*X-X-X*X$X.X.X_.R.T.g...Q J K ` XX9XtXtXeX2X{.| B j t o.O.=.=.*.l 6 ; & @ ",
"&X%X.XW.Y.x.B.S.y.1.%.#.+.%.@.k d i i i g m F K E | s.T.Y.Y.Y.T.[.;X:X9X9X:X:X:X&XXX_.R.Y.s.| T N F / ].3XeXeX3X@X_.| J g d 7 7 d d d d 6 = + o ",
"%X+X.XW.Y.z.v.r.4.%.O.M O.O.h 6 1 3 s g x m m A J T ( ..f.p.! p._.:X0XtXtX9X5X7X&X+X{.Y.f.p.| T H F ~ h.[. X X[.(.d.} Y B f 3 1 , , 1 1 1 ; : = ",
"`.{.R.T.X.) 7.-.#.O.l l l j 7 ; $ - f V F m m c m F T | | ! K K a.*XeXtXtX5X5X1X&XXX_.T.f.| ..Q T ~ ~ ^ / / / ^ ` _ ( ( J v q & % X X $ ; e e u ",
"R.R.T.s.} Y b d 5 7 d d j d 4 $ + : u F G G F m A F K | | E H F ^ ].3X0X9X3X<X:X%XXXQ.T.s.p.| | | } ( K F m m F K ( | } E D u : + o . + 0 z A K ",
"I.I.T.d.( N 3 % # & 1 4 1 1 * = = 0 u A K E ~ K K T ~ | } T A m L a.].OX$XOX@X+X@XOXQ.T.p.( ( ( s.Y. .T D c c N K (  .p._ U c w = + + = w F E _ ",
"Y.Y.T.Y.Q N 3 X . X # # # # & 2 w u c A K _ p.a.p. .....} E F n A L ^ ` a.g.R._.{..X.XE.p.E K Q s.T.Y.[ Y J J Y ( | f.d.p.( F n w 0 0 e n K ( | ",
"U.Y.R.Y.| H 3 # o o + # o # > z F F A F K | T.Q.Q.Y.Y.s. .E K F A A J G ~ | s.Y.Y.Q.Q.T._ G F K | T.R.s.| ( ! | s.T.T.T.s.} Q G A A A F T ( |  .",
"T.T.T.T.| Y v q 2 2 2 < < 2 z K _ _ ~ T _ d.E.Q.Q.T.f.p.( ( E G F F G T Q } | p.s.Y.R.Y.` F m G ` f.Y.U.s...i.p.f.E.Q.Q.Y.d.| _ ~ ~ ~ ~ _ | s.s.",
"T.T.T.f.f.} Q Y H H N N N N Y } a.g.s. .s.T.Q.E.T.d. .| } Q ( Q E ~ ! p.p.s.p.p.| p.s.s.~ J m F T  .s.Y.s.s.p.i.Y.E.oXQ.Q.T.d.s.a.s.a.g.d.f.Y.T.",
"T.T.T.T.T.T.T.T.d.s.| ( ( }  .f.E.T.T.T.T.T.T.f.s.| } } | } } } p.f.f.E.T.T.f.s.| | ..} ~ J F J T ( f.d.Y.T.T.T.Y.T.T.T.T.T.R.T.T.T.T.T.T.T.T.T.",
"T.T.E.Q.{.oX=X@XoXQ.T.g.Y.T.T.Y.g.f.T.T.T.T.T.s.| } ( | s.s...s.f.E.E.!.{.R.Y.s.| } | Q E I J J Q ..T.{.@X=X=X=X(.s.( ( | d.T.R.R.Q.Q.R.R.R.T.T.",
"f.T.{.[.+X,X<X<X@X{.T.T.T.T.T.f.s.| s.s.f.T.T.s.| } } s.Y.T.T.T.T.T.E.Q.T.R.T.f.f.| [ ( Q T ( Q } f.[.*X2XeXeX3X[.` F H E p.Y.Q.Q.Q.Q.E.T.T.T.T.",
"f.T._..X%X,X,X%XXX_.T.T.T.T.g.p.| ( ( } s.T.T.d. .|  .f.T.R.T.T.T.T.T.T.T.T.T.T.Y.Y...| } } | | s.T.[.-X5X6XeX3X].^ A A K | d.T.R.T.R.T.T.T.T.T.",
"f.T._..X$X%X$XOX.XR.T.T.T.T.g.p.| } } | s.g.T.g.s.p.p.s.T.T.T.Y.Y.T.T.f.T.R.R.{.{._.(.U.s.s.s.s.Y.E.(.[.[. X X X).h./ _ _ | ..p.s.s.s.s.g.T.T.T.",
"T.T.Q._._..X_.{.R.T.T.T.T.T.T.d.d.s.s.f.g.T.T.g.Y.s.s.Y.Y.Y.Y.Y.T.T.Y.T.T.Y.R.[.+X+XXX`._.(.Y.T.W.T.g.` / ^ ^ / a.].].].T.s.| { | | } | f.d.T.T.",
"T.T.T.T.T.T.E.Y.Y.T.T.T.R.T.T.T.T.T.T.E.T.T.T.T.T.T.T.T.T.T.T.T.T.T.T.T.f.T._.XX,X,X,X,X.XQ.T.E.T.T.p.~ F c z A a. X5X2XOXT.p.{ | } ( | p.g.T.T.",
"T.T.T.T.Y.f.T.Y.R.Y.d.T.T.T.R.E.E.E.Q.E.E.T.T.T.R.Q..X[.{..X[.[.{.R.T.Y.f.T._.@X,X1X1X,X$X{.T.Y.E.Y.p.( J n a F ` oX3X4X=X{.U.d.d. .| ..s.g.T.R.",
"T.T.T.T.T.E.Y.Y.T.T.T.T.T.T.T.(.E.(.E.E.T.T.T.R..XXX$X@X-X-X-X-XOX{.T.f.Y.Y.{.$X,X1X1X,X$X.XT.T.T.T.g.d.( E K E | E.@X=X%XXXXX`.`.(.d.f.d.T.T.T.",
"T.T.T.T.T.T.E.T.T.T.T.T.T.T.T.T.T.R.T.T.g.Y.T.{.XX%X1X1X3X5X9X5X;X[.Y.f.f.R._.XX,X,X,X%XXX_.T.g.f.T.E.T.T.f.p.| | s.Y..XXX%X,X,X&XXX_.T.f.T.T._.",
"T.T.T.T.Y.s.s.s.Y.T.T.R.T.Y.P.s.s.L.L.s.s.f.R.{.$X:X3X3X9X9X9X8X;X.XT.f.f.T.R.{..X$XXXXX.X_.T.g.T.T.T.Q.R.d. .} ( [ s.R.@X:X3X8X1X@XoXQ.T.Y.T.T.",
"T.T.Y.d...| } | s.Y.Q.Q.Y.i.[ s.] ] ] [ i.s.T..X%X:X3X5X:X8X8X4X:X.XR.Y.T.T.R._._.{.{._._.R.R.T.T.T.T.T.s.| E T E Q | _.@X1X8X9X3X;X[.T.Y.Y.T.T.",
"R.T.Y...| } ( | s.T.T.T.p.| } } | | | | | s.T..X;X3X5X5X5X:X1X%X.X_.T.T.T.T.T.T.T.T.T.T.T.T.T.R.T.T.f.s.} E G A F K | _.OX3X9X9X3X;X[.T.Y.Y.T.R.",
"_.T.Y.| } } X.h.d.s. ._ ) ^ 8.h.k.k.k.9. .p.Y.~.-X9X0X0X9X:XXX_.U.s.s.d.g.T.T.T.T.Y.Y.f.f.f.s.d.Y.T.T.f.| E F m c Z E g.*X9X0X9X3X$X{.T.T.f.Y.R.",
"R.T.s.} ( X.`.XX_. .T F S :.5.w.M.N.N.v.0.a.s.W.=X9XrXrX9X;X_...( ( | s.f.T.R.T.T.T.T.T.f.s.| s.d.T.Q.T.f.( G m z c G a. X5X0X9X1XXX_.T.f.g.T.T.",
"R.T.s.| | U.+X%X`.` F x k %.3.6.S.F.F.S.e.8.| I.oX5X0X9X3X@Xj.[ Q ( | s.d.T.T.T.T.R.T.T.s.| | | d.T.Q.Q.T.| ~ A z z F `  X3X8X3X%XXX_.T.T.T.T.T.",
"R.T.f.p.s.(.+X+X)._ m r k +.;.6.y.F.K.K.C.0.^ q.(.*X;X;X$X}.(.U.X.X.s.d.g.T.T.T.T.T.R.T.d.s. .p.d.Y.{.Q.R.d.` ~ G Z F ` }.-X2X%X.X_.Q.T.T.T.T.T.",
"T.T.g.f.g.R.oX[.g.^ A x h k @.%.3.Z.F.K.S.5.:.I ` E.(.(.T.^.`.`.XX`.}._.R.T.T.T.T.R.R.T.T.d.s.d.d.Y.T.R.T.T.f.| ( E ~  .T..XoX[._._.R.T.T.T.T.T.",
"T.T.T.T.T.E.Q.T.p.U F c s d h o.%.5.C.S.t.1.%.M ^ } | [ | a.XX%X,X1X,XXX_.R.g.Y.T.T.T.T.T.T.T.T.T.T.T.T.T.T.R.T.s.p.| ..f.Y.R.R.T.T.T.T.T.T.T.T.",
"T.T.T.T.R.T.Y.s.p.U D z 2 1 4 7 o.>.w.w.3.&.@.M P Q ' W Q X._.$X1X1X1X+X{.R.f.f.T.Y.Y.T.T.R.R.R.E.T.T.T.T.E.E.R.T.s...| ..p.f.Y.T.Y.f.s.f.T.T.R.",
"T.T.T.T.T.T.T.f.p.U B w - $ * 6 j *.=.=.@.o.h l P Q Q Q Q } U..X%X1X,X%X{.Y.s.f.T.Y.Y.T.T.T.T.T.E.T.T.T.T.Q.R.R.T.s...| |  .f.Y.Y.g.p.| ..f.Y.Q.",
"T.T.T.T.T.E.W.T.d.~ F w = # & 4 d j j i 5 7 d b Y | i.| | | s.Y..X+X%X+X[.T.f.T.T.T.T.T.T.T.T.T.T.T.T.T.T.T.T.R.f. .[ ( ! | ..Y.T.Y. .[  .f.R.R.",
"T.T.Y.f.Y.Q.{.{.(. .J z 0 = = * 1 , 1 & , 3 f B ( d.T.T.f.p.s.f.R.{.}.{._.R.T.R.{.{.{._._.R.T.Y.Y.f.d.f.Y.T.T.T.f. .} Q Q Q ..s.T.T.s. .s.s.f.T.",
"T.T.Y.s.Y.Q.#X$XXXd.~ F c w > $ O X X # , q B E s.T.R.T.T.d.f.T.T.R.R.R.T.T._.{..XXX+XXX{.{.T.f.s.s. .| ..d.T.Y.T.s.} Q Q Q | s.Y.T.T.f.s.p. ...",
"R.T.T.Y.T.{.@X,XXXU.[ Q I F z > # X . # > e F ~ s.T.R.Y.T.T.T.Y.Y.Y.R.g.g.T.{.XX&X,X,X%XXX{.T.f.| | ! } | s.T.Y.f.s.| } } | s.f.T.E.R.Y.s...| } ",
"T.T.R.R.{.XXOX+X{.d.p.p._ ^ J n q - = : 0 u F I `  .s.f.T.d.T.R.R.{._.R.g.T.R.XX&X1X1X,X$X.XT.s.| } ( Q !  .s.d.d.s.....X.U.U.(._.{.R.T.s.| } ( ",
"Y.E.{..X+X+X}._.U.Y.f.s.s.a.p.( Y D z e u z A F G K ~ p.s.f.Y.Y.{.XX+X_.d.s.U.XX,X7X1X,X@X.XT.s.| } Q ( } |  .s.s.f.f.T.(.`.XXXX+X_.T.X. .[ | [ ",
"f.T.{.@X%X$X{.Y.Y.Y.T.T.T.T.R.Q.T.p.K F m A F F A F G ~ | p.s.T..X%X%X`.d.| X._.%X1X,X&X@X{.T.s...| | | } [ [ } | s.T.{.XX&X,X1X%X`.d.| Q } | | ",
"s.d.T.`.XX@XOXoX[.OX[.[.Q.R.Q.~.oXE.a.~ U E K K J F K T } p.f.T..X%X%X_.` E ( (.XX%X+X.X{.R.Y.s.{ ....p.s. .} ( } s.E..X>X1X8X8X,X+Xd.} Q Q | | ",
"} | | d.(.[.*X:X3X3X-X;X[.E.Q.Q.Q.E.T.s.p.a.p.` ( Q T Q ( | s.R..XoX`.d.R K E a._..X{.T.T.T.Y.s.s.p.f.Y.Y.s. .( | s.T.oX<X1X7X8X,X#Xd.} Q Q }  .",
" .| ! Q | (.OX3XwX9X3X=X[.T.Y.Y.T.T.T.T.R.T.T.Y. .} } ( | ..d.T.Q.Q.T.| K F G | T.Q.Q.T.T.T.T.T.Y.R.T.E.T.d.p.{ } s.T.{.XX%X,X,X,X`.Y.| Q ! | | ",
"Y.p.Q E K ( R.=X2X2X=XoXR.I.s.s.f.T.T.Q.Q.Q._.Y.f.| | | ..s.s.d.T.T.f.Q F A G | Y.Q.Q.R.R.[.[.[..X[.{.E.T.s.p.p.s.f.g.T.U.`.`.#X`.(.U.| |  ...X.",
"R.Y.} I J G } Y.~.~.!.W.I.s.{ p.s.Y.T.R.Q.Q.R.Y...| | s.Y.d.p.s.s.Y.p.Q G F G | Y..X.X.X}.OX*X-X-X;X.X_.f.s.s.s.f.Y.T.p._ ) ) X.U.U.Y.d.f.f.Y.Y.",
"R.Y.p.R F F T | f.Y.R.Y.p.| ( [ |  .f.T.R.R.T.d.| | ..Y.T.T...} | | | E J F K | Y..X+X%X:X3X3X5X9X3X$Xg.} } p.T.Q.Q.R.| K F F Y | d.Y.Y.R.Y.T.T.",
"{.f.} W H F ^ 9.k.x.x.k.q.^ P P Y } ..I.U.R.T.d.p. .s.T.T.T.s.} Q Q ~ J F A G ( Y.{.+X1X8XqXeXtXtX0X$Xa.Y Q X._.=X@X_. .J c z H Q ..R.R..XR.T.T.",
"T.T.[ W W ^ 0.n.H.H.M.v.<.:.M l b B Q ..R.R.T.T.Y.d.T.T.T.T.s.| ~ Y J A m A J ~ X._.+X,X4XwXeXtXtXeX$X/ J K d.XX<X<XXXX.G c a D Q U.`.+XoX{.Y.Y.",
"| | } ] } 9.v.S.F.F.S.r.3.%.O.r d b Y | I.T.T.U.T.T.T.T.T.Y.s.} Q K F m A F J E } U.XX%X1X1X3X6XeX8X].~ F I j.>X4X4X>X(.~ F Z J | (.+X%XXX_.R.f.",
"T R _ h.x.M.C.u.V.D.y.6.2.+.9 5 5 j B T | s.Y.Y.Y.T.T.T.T.T.s.} ~ K J J G J E E } X.(._.`.}.].].].]. .I J R /.,XqXqX>X`. .U E ( U.`.&X,X$X.XT.f.",
"C K 8.c.H.A.r.4.1.1.4.2.%.k p 5 5 s b K Q | ..X.s.d.d.T.R.Y. .} ( ( E Q ( ( ( Q } p.d.d. .^ ~ U U ^ U K Q X.`.,XqX8X,XXXj.p. .d.`.%X,X,X$X{.T.f.",
"a F ,.v.S.u.3.$.+.%.%.@.k d i i r j m F K Q | ..} | s.d.Y.d.s.| ( } } | } | | ( } [  .| Q I F m A A H E } U..X&X,X,X&X.XQ.T._..X,X,X,X,XXX_.T.Y.",
"a A :.5.6.6.&.O.k M O.h 6 1 3 i g b c m G E ! } Q Q [ s.d.T.d.s.| p.| ..[ | | | p.i.p.| ( ~ R P I I ~ | X.R._.`.`.#X`._.Q.Q.oX<X1X1X%X.XR.U.Y.f.",
"c A S *.-.=.@.j j l l 7 * # < f m m m m F E } } Q Q !  .f.T.T.Y.s.s.| ( ! ! | s.f.s.s.p.d.^.^././.(.j.T.I.U.d.U.U.h.d.Y.Y.Q.OX<X1X%X+XR.Y.Y.f.f.",
"G Z N g d i i d d j d 4 % $ : u F G F F G E | | | } p.g.T.E.E.T.f.s.} ! } | ..Y.T.Y.Y.R.Q.XX&X,X,X%X@X{.Y.f.| | ! ( | | s.T..X$X%X+X{.T.g.Y.T.R.",
"U K v q & % * 1 4 4 1 ; & = 0 u A G U ~ ( [ p.s.d.R.(.[.[.{.T.Y.s.p.p. .X.d.(._._.{.R.R.{.@X<X2X2X>X@X.XT.f.| [ ! ! [ | p.s.d.^.)._.{.[.{.{.{.[.",
"p.E n q o   X # $ # # = > e e c A K ` p.s.s.s.g.{.$X-X:X;X[.R.p.| p.d.R._.{.+XXX@X}.{.T.Q.Q.oX@X@XoX.X_.T.Y.s.p.p.[ { p.p.| ( ~ )  .{.*X-X-X-X*X",
"f.p.J q # . o # @ o # : z F A A A K p.T.T.T.T.{.*X3X0X9X3X$XT.| [ p.T.{.XX&X,X,X%X.X{.T.Y.T.T.T.Y.R.Y.T.T.T.Y.T.T.T.T.T.Y.| Y F F ^ ].3XeX6X5X:X",
"R.s.E n 2 = = > : = > f G _ _ ( ~ ~ p.T.T.Q..X@X-X6XeXeX8X$Xg.( Q p.T.oX@X,X1X,X%XXX{.Y.Y.f.s.p.p.p.s.f.T.R.{.{.OXoXOX[.T. .K n m U ].9XeXeX5X3X",
"Q.g.| J z e e z u e z F ~ d.g.g.p.| p.s.T._.XX<X3X5X0X0X5X$Xj.| ' p.T..X+X&X,X1X&X+X{.Y.f.| | | | | | f.T.Q.}.@X;X:X-X*X.Xf.W n m ^ ].9XeX0X3X3X",
"Q.T.p.K A m m F A A G K p.T.Q.Q.T.s.| | X.`.,X1X3X3X6X9X3X$XT.} [ p.T.{.@X%X&X&X%X+X{.T.f.| | } [ | ..f.R._.XX%X:X7X3X-X*XT.Q F F ^ ].3X9X6X3X3X",
"Q.T.s.` U G K I G G U ~ d.Q.~.oXQ.f.! ( X.`.,X1X1X3X3X5X3X$XT.| } s.Y..XXX$X&X&X$XXX{.T.s.| } ( ( } | f.Y.{.XX,X4X9X6X3X=XW.! J F / [.3X6X6X3X-X"
};
