/* XPM */
static const char *wall_24[] = {
/* columns rows colors chars-per-pixel */
"72 72 221 2 ",
"   c #3F1524",
".  c #4E0E19",
"X  c #4D0814",
"o  c #500E19",
"O  c #4D111C",
"+  c #41111F",
"@  c #51131D",
"#  c #4D1721",
"$  c #4D1924",
"%  c #401623",
"&  c #521720",
"*  c #521A23",
"=  c #581D24",
"-  c #49232C",
";  c #552027",
":  c #55242A",
">  c #59252B",
",  c #55292F",
"<  c #5A2A2F",
"1  c #4F2C33",
"2  c #4D2730",
"3  c #542C33",
"4  c #5A2D32",
"5  c #543135",
"6  c #5C3236",
"7  c #55353A",
"8  c #5D3539",
"9  c #5C3A3D",
"0  c #5D3937",
"q  c #632B2D",
"w  c #64282A",
"e  c #6A3636",
"r  c #603639",
"t  c #633B3C",
"y  c #6A3B3A",
"u  c #653536",
"i  c #753935",
"p  c #6B433E",
"a  c #74433E",
"s  c #744A3E",
"d  c #7C4B3E",
"f  c #7A463D",
"g  c #553A40",
"h  c #5C3E41",
"j  c #503640",
"k  c #4F3740",
"l  c #603F41",
"z  c #5E4143",
"x  c #5B4A4A",
"c  c #554141",
"v  c #5B5251",
"b  c #634343",
"n  c #6A4644",
"m  c #674847",
"M  c #6E4944",
"N  c #664C4A",
"B  c #6D4D49",
"V  c #694748",
"C  c #724641",
"Z  c #734C44",
"A  c #794E45",
"S  c #734E48",
"D  c #7A4F48",
"F  c #7C5246",
"G  c #7D5249",
"H  c #72544E",
"J  c #635455",
"K  c #615857",
"L  c #655959",
"P  c #6D524D",
"I  c #666562",
"U  c #6C6B69",
"Y  c #6C6566",
"T  c #716D6E",
"R  c #69706B",
"E  c #737373",
"W  c #767B7A",
"Q  c #747E79",
"!  c #83463C",
"~  c #8C573E",
"^  c #905A3C",
"/  c #9B623F",
"(  c #814E44",
")  c #835446",
"_  c #8A5644",
"`  c #865945",
"'  c #8D5C45",
"]  c #835549",
"[  c #89574A",
"{  c #85594B",
"}  c #8C5A4A",
"|  c #925D43",
" . c #925D4B",
".. c #915541",
"X. c #8A5E52",
"o. c #946246",
"O. c #9B6544",
"+. c #9E6946",
"@. c #95624B",
"#. c #9B644B",
"$. c #9D694B",
"%. c #89665A",
"&. c #876356",
"*. c #9C6552",
"=. c #9E6954",
"-. c #9D6D5C",
";. c #966957",
":. c #916B55",
">. c #A06744",
",. c #A46A44",
"<. c #A96E44",
"1. c #A1674A",
"2. c #A46C4B",
"3. c #A96E4B",
"4. c #AB7146",
"5. c #AD734A",
"6. c #A6714D",
"7. c #B1764B",
"8. c #B5794B",
"9. c #BA7C4C",
"0. c #B07346",
"q. c #A46B54",
"w. c #A76953",
"e. c #AC7354",
"r. c #A8775A",
"t. c #B37653",
"y. c #B57B54",
"u. c #BB7D53",
"i. c #B4765B",
"p. c #B37D5B",
"a. c #BB7B5B",
"s. c #B87652",
"d. c #B26F56",
"f. c #9D7362",
"g. c #926F60",
"h. c #A37561",
"j. c #A57962",
"k. c #AA7A61",
"l. c #BA7D62",
"z. c #BB7F69",
"x. c #C27F59",
"c. c #77877F",
"v. c #B78057",
"b. c #BC8155",
"n. c #B5825C",
"m. c #BA845B",
"M. c #BD885F",
"N. c #AD805D",
"B. c #BC8363",
"V. c #BD8A62",
"C. c #B38468",
"Z. c #B78D73",
"A. c #BA9475",
"S. c #C3814D",
"D. c #C28355",
"F. c #C3825B",
"G. c #C28A5C",
"H. c #CC8B5B",
"J. c #C8855A",
"K. c #C48462",
"L. c #CA8563",
"P. c #C28E65",
"I. c #CC8A64",
"U. c #CD8C6B",
"Y. c #C08968",
"T. c #C49066",
"R. c #C6946B",
"E. c #C8966D",
"W. c #C9986F",
"Q. c #C7986F",
"!. c #D4916A",
"~. c #D3966B",
"^. c #D38E71",
"/. c #C49372",
"(. c #C69B73",
"). c #CB9C73",
"_. c #C49B7B",
"`. c #CB9876",
"'. c #D39272",
"]. c #DA9473",
"[. c #D29D74",
"{. c #DA9E79",
"}. c #D89B76",
"|. c #D08F62",
" X c #CEA077",
".X c #CFA279",
"XX c #D1A176",
"oX c #D1A57C",
"OX c #DBA47C",
"+X c #D3A87F",
"@X c #DAAA7D",
"#X c #E0A57B",
"$X c #7B8C84",
"%X c #80958C",
"&X c #869D93",
"*X c #C89F82",
"=X c #CAA484",
"-X c #D6AD84",
";X c #D9AE85",
":X c #D9A986",
">X c #D7B086",
",X c #D9B087",
"<X c #D7B088",
"1X c #DBB38A",
"2X c #DDB88F",
"3X c #DFB991",
"4X c #E4AA84",
"5X c #E1B487",
"6X c #E1B68D",
"7X c #E3B98E",
"8X c #E9B58E",
"9X c #E5BC93",
"0X c #E9BE94",
"qX c #E6C096",
"wX c #EAC197",
"eX c #ECC39A",
"rX c #ECC89D",
"tX c #F2CB9E",
"yX c #F1C79A",
"uX c #F3CBA1",
"iX c #FAD2A4",
/* pixels */
"&X%Xc.R v 7 : & @ . . . . & < t N N b b Z ] @.#.#.@. . .} ] ] [ #.d.L.{.8X0X0X2X-X-X-X-X-X-X-X-X,X,X,X-X-X,X,X-X.XR.T.E.oX,X1X,X-X-X,X-XoXQ.T.K.",
"%X$XQ I x 5 ; & @ & & & @ & > 8 b b b b M F }  . .} } } } ] ` } *.i.U.OX8X0X9X2X-X-X-X-X-X-X-X-X-X-X-X-X-X;X,X-XoX).R.).oX-X,X-X-X-X,X-XoX).R.T.",
"c.Q U K 9 , & & = : > : * & = < 6 9 9 b n S F G G G ) [ } _ _  .q.B.}.4X8X9X2X,X-X-X-X-X,X-X-X-X+XoXoX-X-X-X-X-XoX).).)..XoX-X-X-X-X,X-XoX X).Q.",
"R I K z 3 & @ * > 6 9 6 > & @ & : 4 9 h b m n b b n Z ] } ' _  .r./.:X8X6X1X;X-X-X-X-X,X,X,X-XoX.X). XoX-X-X-X-X-XoXoX).).)..X+X-X,X,X-X-XoXoX.X",
"v x 9 3 & . . & < t b t < & . O & > 8 b m m b h h b Z ] } _ ) } j..X0XeX7X-X-X-X-X-X-X-X-X,X-XoX).R.Q.oX-X,X-X-X-X,X-XoX).R.).oX-X,X,X-X-X-X-X-X",
"7 5 , * @ X X O : 6 r 6 : @ O & : 6 p Z G F A Z Z Z F [ [ A a F f.=XrXtX9X-X.X-X-X-XoXoX+X-X-X.XR.P.R.oX,X2X1X1X2X2X,XoXQ.T.R..X-X,X-X-X-X,X,X,X",
": ; * & @ O . O # : > = & @ & , 9 n A ] } @.o.o.o.o.@. .] C t M g.=XrXtX7X-X.X-X-XoX).Q.).-X-XoXR.P.E.+X6X0X9X7X9X3X,XoXQ.T.E..X-X,X-X-X-X-X;X,X",
"& & & & & & & & & & & @ @ & : 6 b B G } #.2.5.7.7.5.2.$.} C 9 b %.A.0XyX7X-X-X-X-XoXQ.R.).oX-XoX).R.).;X0XeXeX0X9X2X-X.XR.R.).oX-X,X,X-X-X-X-X-X",
"@ @ @ O & = < q q > * $ * : , 6 9 b Z ] @.1.7.9.9.9.9.5.#.A t b X.Z.5X0X7X,X-X>X-XoX).).).+X-X+X).).oX6XeXtXrX0X7X;XoX).T.T.).oX-X,X,X-X-X-X-X-X",
"@ @ . . @ > i f a t 4 3 5 6 4 > > 4 t Z ] @.1.7.9.9.9.9.2.' s Z X.z.{.4X5X,X<X>X-XoXoX.XoX-X-X-X.XoX;X9XeXrXeX9X,XoX).T.P.T.).oX,X,X,X-X-X-X-X-X",
"* & O O & q ! } { S b z b b 6 : & * 6 b B G } #.2.5.8.8.5.#.' } *.i.U.}.OX-X-X-X-X-X-X-X-X-X-X-X-X-X1X9X0X9X2X-X.X).R.P.T.R.).oX-X,X-X-X-X-X-X-X",
"< > ; $ > e _ @.:.{ S B H S y < * ; 3 h m S A ) ' o.O.2.2.2.q.q.i.a.F.I.W..X-X-X,X,X,X,X,X,X-X>X,X,X1X1X1X-X XR.T.P.P.T.E.). X.XoX-X-X-X-X-X-X-X",
"r 8 6 6 8 a [ @.@.} ] ] { ] Z t 4 3 9 b m n M n M Z F ' @.e.l.K.K.a.u.b.K.R..X-X,X1X1X1X,X,X,X,X,X,X,X-XoXR.M.v.y.m.P.).oXoX.X).). X-X,X,X,X-X-X",
"b b b h b Z ) }  .} } }  .} ) M b h z b b b b b b b n A } q.K.U.L.u.5.5.m.R. X-X-X-X-X-X-X-X-X-X-X-X-X XR.m.7.5.7.m.R.oX-X-XoX).R.Q..X-X,X-X-X-X",
"b b b b m M Z F ] }  . . .} ] G B n m b b z z b b n Z A [ q.K.I.a.3.O.2.V.).+XoX.X.X.X.X.X.XoXoXoXoX).Q.P.b.7.5.y.V.).-X,X,XoXQ.P.T.).oX-X-X-X-X",
"z b b m m n n Z A ] }  .} [ [ { G S n b h h b n Z G ) ]  .q.a.b.5.| _ =./.;X5XoXR.T.T.R.Q.Q.).).).Q.R.T.P.m.b.m.V.Q.oX,X,X-XoX).P.P.T.)..X-X-X,X",
"b b b b b b h b M ) }  .} } }  .} ) Z b h h b Z ] } } [ } #.6.5.O._ } j.=X0X0X@XR.P.T.R.R.R.R.R.R.R.R.R.R.T.T.R.).oX-X,X,X-XoX).R.P.P.R.).oX-X,X",
"Z M n b h g j h n G } #.#.#.#.#.#.} F M b h b M F [ ] G G ` O.,.>.#.-.Z.<XeXwX1X[.).).[.).).Q.E.Q.).).).). X.XoXoX-X,X,X,X-X+X.X).Q.R.). X+X-X,X",
"] ) Z n h k k h n ] @.1.2.6.5.5.2.#.} G M b b n S Z S V n A ^ ,.5.n.Z.=X9XeXwX7X1X;X1X1X;X+X.X.X.XoXoX+X-X-X-X-X-X-X;X-X-X-X-X-XoXoX.XoXoX-X-X-X",
" .} ] Z b h h b M F } #.2.5.7.7.5.2.#.} G M b b b b h h b A | 5.G.).-X2X0X0X9X9X0X0X0X0X7X,X-X-X-X-X-X-X-X-X-X-X-X-X-X-X-X-X-X-X-X-X-X-X-X-X-X-X",
" .} [ F A A s A Z C Z ) | O.<.4.4.4.2.#._ A p 9 7 7 7 t s ' 2.m.[.1X9XqX9X6X6X9X0X0XqX0X9X2X,X,X,X,X-X-XoXoXoXoX-X-X-X-X-X-X-X-X,X,X,X,X,X-X-X-X",
"} } } ' o.O.O.| ! p r t s _ O.,.4.4.4.,.o._ Z t 7 7 0 s ' 6.V.).;X9XqX9X6X,X;X,X2X2X2X2X2X,X,X,X,X-X-X.X).Q.Q.)..X+X-X-X-X-X-X-X-X,X,X;X-X-X-X-X",
"] } @.$.5.9.9.5.o.Z b b Z } #.2.5.7.7.5.2.#.} S m b s ' 5.G.).-X3X0X9X7X1X-X-X-X-X-X-X-X-X-X-X-X,X-XoX).R.P.P.R.).oX-X,X-X-X-X-X-X-X-X-X-X-X-X-X",
"' | #.3.u.H.H.G.N.g.%.%.;.h.p.p.y.b.u.u.a.p.r.;.%.%.:.e.G.~.@X1X3X9X7X1X;X-X-X-X-X-X-X-X+XoXoX+X-X-X+X XQ.T.T.T.).oX-X,X,X-X-X-X-X-X-X-X-X-X-X-X",
"O.+.3.s.J.!.[. X(.A.A.A._._.(.R.P.K.K.I.I././.A.A.Z.A.Q.[.oX;X,X2X1X1X;X-X-X-X-X-X-X-X-XoX).). XoX-X-X-XoX).E.E.).+X,X,X,X-X-X-X-X-X-X-X-X-X-X-X",
"4.5.s.F.U.}.:X-X>X-X-X-X;X-XoX).R.P.I.U.'.oX-X>X>X-X-X-X-X-X-X-X-X-X-X-X-X-X-X-X-X,X,X-XoX).R.Q..X-X,X,X-X.XQ.R.).oX-X,X-X-X-X-X-X-X-X-X-X-X-X-X",
"8.u.F.U.{.:X:X;X-X+XoX.X.X`.(.R.T.K.K.K.E.OX5X7X7X1X1X1X1X<X-X-X+X-X-X-X-X-X-X-X-X,X1X,XoXR.P.T. X-X2X2X,X.XT.V.P.Q.oX-X-X-X-X-X-X-X-X,X,X,X;X-X",
"x.K.R.[.:X5X:X{.'.Y.C.k.j.k.p.n.b.u.s.u.K.[.@X@X@XoX-X,X,X,X-X-X-X-X-X-X-X-X-X-X-X,X1X,XoXR.P.T.).-X2X3X-X).m.y.y.V.).oX-X-X-X-X-X-X;X,X,X,X,X,X",
"L.U.'.oX-X;X{.U.a.q.} ) ) } #.2.5.4.4.5.y.V.R.E.R.R.).oX-X,X-X-X-X-X-X-X-X-X-X-X-X-X,X-XoX).R.Q..X-X2X2X-X(.n.5.5.m.R..X-X-X-X-X-X-X-X-X-X-X-X-X",
"^.'.'.).).).I.a.1.( p y a ( ' O.,.<.4.4.6.r.r.p.n.G.T.).oX-X,X,X,X-X-X-X-X-X-X,X-X-X+XoX).).). XoX-X1X2X-X).m.7.7.m.T.).-X,X,X,X,X-XoX.X.X.XoXoX",
"].'.E.P.m.p.t.q.[ n 9 t C ) '  .#.,.4.5.2.X.&.:.6.b.H.R.).-X1X6X1X,X-X-X-X-X,X,X,X+X).).).).oX-X-X-X,X,X-X XT.m.m.m.T.).+X,X2X2X,X+X).R.R.R.Q.).",
"^.U.K.u.5.,.#.} D n b n F } } [ } #.5.5.o.Z b M ' 5.b.G.R.oX6X0X9X1X-X-X-X-X,X,X-XoXQ.R.).oX-X,X-X-X-X,X-XoX).R.P.P.R.).oX-X,X,X-XoX).R.T.T.R.R.",
"K.K.D.9.<./ _ A S S F [ }  .[ G G } 2.1._ r - 3 p ' 2.y.M.XX8XeXrX9X,X-X-X-X-X-XoX).).).).+X,X,X,X-X-X-X-X-XoX.X).R.R.Q.)..XoX.X.XoXoX[.).).).Q.",
"y.s.9.9.4.| A n S ` #.1.#. .) Z M G @. .f > + % 3 Z ' +.y.E.6XrXuXeX6X,X,X-XoX.X).).).oX-X-X-X-X-X-X-X-X-X-X-X-X.X).R.T.R.R.R.R.R. X-X1X;X-XoX X",
"4.5.7.8.5.' M b S o.5.7.1.} Z b b S { } ! w & $ 3 b F o.5.G.@X0XrXeX0X7X2X-X.XR.R.).oX-X,X-X-X-X-X-X-X-X-X-X,X-XoX).R.T.R.R.T.P.R.oX5X0X9X1X-X+X",
"<.4.5.7.3.[ n h Z @.5.5.#.F b h h n ) | ..! i e p S F | ,.y.T.+X6X0XeX0X9X-X).T.P.E.oX,X1X,X-X-X-X-X-X-X-X,X,X-XoX).R.R.).).).).).+X6X9X9X2X,X-X",
"4.4.4.3.#.G b h M ' #.#.` n h g h M ` O.3.w.w.q.#.o.' | #.1.e.V.[.6XeXeX9X-X).T.T.E.oX;X,X,X-X-X-X-X-X-X-X,X,X-XoX).R.).+X;X1X1X;X,X1X1X,X,X-X-X",
"7.5.2.#.} Z b b M ] } ] Z b h h b A o.5.D.I.U.I.b.5.O. .} ' O.5.P.@X0XeX9X-X XR.R.).oX-X,X;X-X-X-X-X-X-X-X,X,X-X.XR.R.).;X0XeXeX0X6X,X-X-X-X-X-X",
"9.7.2. .G M M Z A ) ) G Z n b b M ` 1.u.|.}.}.~.H.8.+.[ G ) ^ <.D.XX6X9X3X-XoX).).).oX-X-X-X-X-X-X-X-X-X-X,X,X-X.XR.T.).1XeXuXuXeX9X1X;X-X-X-X-X",
"9.7.$.` M n Z ] ] ] ] ) ) F Z Z G @.e.K.!.].'.!.J.7.o.F M Z ^ <.D.E.oX,X,X>X-X+XoXoX-X-X-X-X-X-X-X-X-X-X-X,X1X,XoXR.T.).1XeXuXrXqX9X9X6X,X;X-X-X",
"9.5.o.F b b A }  . .} } } } ` ` } =.l.U.'.'.U.L.D.5.' M b Z ' 5.b.G.R.).+X-X-X-X-X-X-X-X-X-X-X-X-X-X-X-X-X,X,X-X.XE.R.).;X0XeXqX0X0X0X0X6X,X-X-X",
"7.1.' Z h b Z } #.#.@.@.@. .' ' #.e.K.'.].'.U.L.D.5.' p h n ' 6.y.y.p.C.(.oX-X,X,X-X-X-X-X-X-X-X-X-X-X-X-X-X+XoX).).).oX;X6X9X0X0XqXeXeX9X1X-X-X",
"1.@.) M h h Z [ #.2.2.$.@. .' o.,.s.K.'.].].!.I.D.5.' p h m ] #.1.#.#.r.C.).+X;X-X-X-X-X-X-X-X-X,X,X,X,X-XoX).Q.).).oX-X-X,X2X9X0XeXeXqX9X1X-X-X",
" .} F M b b Z } #.5.5.2.@.} ' O.5.u.K.U.'.^.U.L.D.5.' Z b n G } } _ } =.p.R.XX+X-X-X-X-X-X-X-X-X-X-X-X,X-XoX).R.).oX-X-X-X-X,X6X0XqXeX0X6X,X-X-X",
"} [ ) Z Z Z ] @.2.7.7.2.@.[  .2.u.F.F.K.K.B.l.i.t.2.o.) Z Z Z F F ) } =.p.T.XX-X-X<X-X-X-X-X-X-XoXoX+X-X-X+X).). X-X,X,X-X-X-X1X7X9X9X6X1X,X-X-X",
"} [ ] G G [ @.1.5.8.7.1.| } *.i.K.H.F.s.e.q.q.*.#.#.@.} ] A Z M Z G } q.n.R.XX-X,X,X,X-X-X,X-XoX).).).-X,X-X-XoX-X,X,X,X-X-X-X;X,X1X1X,X,X-X-X-X",
"} } [ [ } @.1.5.8.8.5.O.' } =.l.U.I.D.5.O.| } [ [ }  . .} F M b b Z } q.n.R.XX+X-X-X-X-X-X,X-XoX).R.).oX-X,X,X-X-X-X-X-X-X-X-X-X-X-X-X-X-X-X-X-X",
"} } } }  .#.4.8.9.8.5.O._ [ -.B.'.!.D.4.O.' ` G D G ] ] ] F n z 9 y f  .i.R.[.XX.X.X-X-X,X,X-XoX).).). XoX-X-XoXoX.X.XoX-X-X-X-X-X-X-X-X-X-X-X-X",
"} } } }  .#.4.8.9.8.5.O._ [ =.z.'.!.D.4.O.| ` A Z M M Z Z S n b 6 : w ! d.U.[.W.R.(..X-X,X;X-X-XoXoX X).).).).).).R.R.)..X-X-X-X-X-X-X-X-X-X-X-X",
"} } [ [ } @.1.5.8.8.5.O.' } =.l.U.I.b.5.,.@.} G M b h l b m V b 3 $ & i w.U.}.~.R.(..X-X;X-X-X-X-X-XoX).R.T.T.R.T.T.R.).oX-X,X;X-X-X-X-X-X-X-X-X",
" .} ] ) F ] @.1.5.8.7.2.o.@.q.i.K.F.s.2.1.#. .] M b h 9 h m n b 1 % $ e q.'.OXOX)..X+X-X-X-X-X,X,X,XoX).T.P.T.R.).).).+X;X1X1X,X-X-X-X,X;X-X-X-X",
" .[ ) Z M Z ] @.2.5.7.5.2.1.6.y.u.t.2.#.#.@. .] M b h h b m m b 3 - 2 Z j.oX5X6X1X;X;X-X-X-X-X,X,X-XoX).T.T.)..XoX-X;X6X9X9X6X,X-X-X-X,X,X-X-X-X",
" .} F M b b A } #.2.5.5.5.5.5.7.5.1.@.} [ } } ] M b h b b b m b 9 7 b &.C.-X0XwX0X6X,X-X-X-X-X,X,X-XoX).R.Q..X-X2X9X0XqXqX0X7X,X-X-X-X-X-X-X-X-X",
"#. .G M b m D } #.#.1.4.7.7.8.5.2.o.[ G G ) ) A n b h h b b n M M S X.j._.2XqXrX0X2X,X-X-X-X,X,X1X-XoXQ.T.).oX2XqXeXeXeX0X9X2X,X-X-XoXoXoX-X-X-X",
"#. .] M b n G }  . .@.$.4.7.7.6.$.} G B B M M n b h h h h b M F [ *.k./.:X9XqX9X2X;X-X-X-X-X,X1X2X,X.XR.T.).-X9XrXrXeX0X6X1X,X,X,XoX).).).oX-X,X",
" .} G M b n F } } [ } @.2.5.4.#.} D M b z b b b b b b b b n A } q.a.U.OX8X0X9X2X-X-X-X-X-X-X-X,X,X-X.XR.R.).;X0XeXeX0X6X,X-X-X-X-XoX).R.).oX-X,X",
"[ ) Z t 8 t Z ) ] ] } #.2.6.#._ a u 4 6 7 9 h m M S Z Z Z A ` #.t.L.].4X8X0X9X,X-X-X-X,X-XoX.X.XoXoX X).).+X1X9X0X9X6X,X-X-X-X+XoX X).).).oX-X,X",
"S M y 4 > 4 r M G ] } #.q.$._ i > & & * , 7 z M G ] [ ] [ ' o.2.s.L.].4X6X9X2X,X>X,X,X,X-X).R.T.R.).).oX-X,X2X6X2X1X,X;X-X-XoX).).).).oX+X-X-X-X",
"N b 8 : & * 3 b S ] } @.@.} f q & . . & > 6 b S ] } } } } | +.5.u.F.U.}.+X-X-X-X-X-X,X-XoX).R.P.P.R.).oX-X,X;X-X-X-X-X;X,X-XoX).R.Q.oX-X,X-X-X-X",
"N b 6 = @ # 3 b P G ] ] ( a e 4 ; $ & ; < 8 b S G ] F D G ' 2.8.u.F.K.P.R.).)..XoX.X.X.X.XoX).).).).)..XoX.X.X X.XoX-X,X1X,XoXR.T.R.oX,X,X,X-X-X",
"J b 8 = @ & 4 b P H S p e q < 6 8 9 6 6 8 t b n M M n b n ) 1.8.x.u.y.y.y.m.P.R.E.R.R.R.).-X1X1X-XoX).).Q.R.T.R.).oX>X2X2X,XoXR.T.R.oX-X,X,X-X-X",
"N b 8 : & = 6 b N N b 6 = & ; 6 b m m b b b b b b b h h b F o.5.8.8.5.<.<.5.y.V.R.R.T.R.XX1X0X0X7X-X.X).R.T.P.R.).oX-X,X,X-X.X).R.).oX-X,X-X-X-X",
"r 6 4 , : > 4 6 8 9 6 : O . & < t m N N N m b b b b n M Z F ' o.1.4.4.,./ >.e.P.).oX[.).+X6X0X0X3X,X+XoX).).).[.oX.X.XoXoXoX X).).).oX-X,X-X-X-X",
"= : , 5 7 5 > = = : : * O . O & < r m N N m b b M A ]  .o.' F F ` $.4.,.| | r./.;X7X6X1X1X1X2X1X,X-X;X;X1X5X6X1X+X).R.R.).).).).). X-X,X,X-X-X-X",
"o & , h x c 3 & @ @ & & & & @ @ & > 8 b b b b n A } 1.7.5.o.S b Z o.5.,.| } h._.0XtXyX0X2X,X-X-X-X-X,X6X0XeXeX0X1XXXR.P.T.R.R.T.R.).oX-X,X-X-X-X",
"O * 5 x L K h , # O @ = > < : & @ & > 6 9 9 z M ] #.8.S.9.o.M h M #.7.<._ ] f.*XeXiXuX0X2X-X-XoX+X-X,X7X0XeXeX0X6X-X[.E.T.P.V.m.m.P.).oX-X;X,X,X",
"- 5 z L U U K h , # @ : 6 t 8 : @ o @ = , 7 h S } 2.9.S.9.o.M h S $.7.,.~ ) -.*XeXuXeX2X-X-X-X-X-X-X;X1X2X2X2X2X6X6X1X+X).P.y.5.5.y.V.).+X-X,X,X",
"c x K Y E E I x 5 * & > 8 b t < & . @ & : 7 b G o.5.9.9.5.' M b Z #.5.,.| } h.*X0XeX7X-X-X-X-X-X-X-X-X-X-X-X-X-X2X9X0X6X+XR.m.5.5.7.m.R..X-X-X,X",
"K L U E E T K h , * & : 6 9 6 > & @ & : 4 t Z ' $.5.8.7.$.` M b S } 1.2.1.q.C..X6X7X,X-X+X-X-X-X-X-X-X-X-X+XoX-X,X9X9X6X;X).T.M.m.m.V.T.)..XoXoX",
"Y U E W E Y z , & @ & = : > : = & * , 8 t Z ] @.2.5.7.2.@.F n b n F @.2.t.l.E.+X,X1X,X-X-X-X-X-X-X-X-X-X-X-X-X-X;X1X1X,X-XoX.X).).R.T.T.R.Q.).).",
"T E W W E L 6 & . @ & * & & @ @ & : 6 b B G } #.3.5.4.#.} A n b b Z } w.a.U.}.OX-X-X-X-X-X-X-X-X-X-X-X-X-X-X-X-X-X-X-X-X-X-X-X,X-XoX).R.T.T.R.R.",
"E W W W E J 4 o X . & & @ . . @ & > 9 N H {  .1.3.5.2.#.] S n b b Z ] q.K.].#X@X-X-X-X-X-X-X-X-X-X-X-X-X-X-X-X-X-X-X-X-X-X,X2X3X2X;X.XR.P.P.T.T."
};
