/* XPM */
static const char *wall_4[] = {
/* columns rows colors chars-per-pixel */
"72 72 220 2 ",
"   c #4A010D",
".  c #4D0B16",
"X  c #4E0E19",
"o  c #4A0714",
"O  c #500D19",
"+  c #4F111C",
"@  c #51131D",
"#  c #4D1924",
"$  c #511720",
"%  c #531A22",
"&  c #581C24",
"*  c #4F232B",
"=  c #552027",
"-  c #55242B",
";  c #59252B",
":  c #55282E",
">  c #5A292E",
",  c #582027",
"<  c #562C32",
"1  c #5A2E32",
"2  c #512730",
"3  c #4E323B",
"4  c #543236",
"5  c #5C3236",
"6  c #543539",
"7  c #5D3539",
"8  c #563A3D",
"9  c #5C3A3D",
"0  c #4E2F37",
"q  c #652927",
"w  c #67332E",
"e  c #623435",
"r  c #613739",
"t  c #613B3C",
"y  c #6B3E3C",
"u  c #6C3734",
"i  c #6B3532",
"p  c #65413E",
"a  c #6B433E",
"s  c #75443D",
"d  c #7A453D",
"f  c #7B4C3C",
"g  c #553A41",
"h  c #5C3E41",
"j  c #613E40",
"k  c #5E4244",
"l  c #5B4A4A",
"z  c #584646",
"x  c #5C5452",
"c  c #5F4F50",
"v  c #634343",
"b  c #6B4643",
"n  c #654847",
"m  c #6D4945",
"M  c #654B4A",
"N  c #6D4C49",
"B  c #62464A",
"V  c #744B44",
"C  c #7A4E45",
"Z  c #744E49",
"A  c #774C45",
"S  c #69524E",
"D  c #7C5146",
"F  c #75514A",
"G  c #7C5249",
"H  c #765249",
"J  c #654E51",
"K  c #645355",
"L  c #695559",
"P  c #635B5B",
"I  c #68575A",
"U  c #65605F",
"Y  c #6C5F62",
"T  c #656362",
"R  c #6C6565",
"E  c #6D6B6A",
"W  c #6F676A",
"Q  c #716D6C",
"!  c #706666",
"~  c #6E7270",
"^  c #737473",
"/  c #757A77",
"(  c #767B7A",
")  c #787B7A",
"_  c #777778",
"`  c #726F70",
"'  c #834E3A",
"]  c #8C543B",
"[  c #945A3C",
"{  c #844E42",
"}  c #825446",
"|  c #895645",
" . c #875945",
".. c #8C5A45",
"X. c #835549",
"o. c #89574A",
"O. c #85594B",
"+. c #8C5A4A",
"@. c #925D43",
"#. c #925D4A",
"$. c #985F4B",
"%. c #855B51",
"&. c #946246",
"*. c #9C6444",
"=. c #95614B",
"-. c #9B644A",
";. c #9D694A",
":. c #9F6945",
">. c #8A665B",
",. c #9C6552",
"<. c #9E6953",
"1. c #956655",
"2. c #A36B45",
"3. c #AA6E44",
"4. c #A46C4A",
"5. c #A96D4A",
"6. c #A4664C",
"7. c #AD7246",
"8. c #AD734A",
"9. c #A5704E",
"0. c #B2754B",
"q. c #B5794B",
"w. c #B77A4D",
"e. c #A56B54",
"r. c #A86E59",
"t. c #A76B53",
"y. c #A87458",
"u. c #B37453",
"i. c #B57A52",
"p. c #BB7C53",
"a. c #B6765C",
"s. c #BC7B5D",
"d. c #B7775B",
"f. c #957361",
"g. c #AA7962",
"h. c #BA7D61",
"j. c #B47B62",
"k. c #C17D5B",
"l. c #76817C",
"z. c #78827E",
"x. c #BE8056",
"c. c #B7825A",
"v. c #BB855C",
"b. c #BD885E",
"n. c #B58157",
"m. c #BD8264",
"M. c #BE8A61",
"N. c #B78464",
"B. c #BE957A",
"V. c #B3866A",
"C. c #C18357",
"Z. c #C3835B",
"A. c #C9855C",
"S. c #C88A5B",
"D. c #C38462",
"F. c #C98463",
"G. c #C28E64",
"H. c #CC8B64",
"J. c #C38A6B",
"K. c #CE8C6B",
"L. c #D28D68",
"P. c #C39067",
"I. c #C6946B",
"U. c #C9966D",
"Y. c #C7996F",
"T. c #C9986F",
"R. c #CB9166",
"E. c #D79569",
"W. c #C78E72",
"Q. c #CB9373",
"!. c #CB9C73",
"~. c #C69777",
"^. c #D49271",
"/. c #D99673",
"(. c #D49B75",
"). c #DA9D7A",
"_. c #D79C77",
"`. c #D28F71",
"'. c #CDA077",
"]. c #CFA279",
"[. c #D1A57C",
"{. c #DBA37D",
"}. c #D3A87F",
"|. c #D9A97E",
" X c #D4A176",
".X c #E4A67C",
"XX c #7A8581",
"oX c #7B8C84",
"OX c #7E928A",
"+X c #7C9087",
"@X c #829D93",
"#X c #80958C",
"$X c #C39D80",
"%X c #C8A283",
"&X c #D2A681",
"*X c #D6AD84",
"=X c #D9AE85",
"-X c #D9AA85",
";X c #D6B087",
":X c #D9B087",
">X c #DBB38A",
",X c #DEB88F",
"<X c #DFBA91",
"1X c #E3A682",
"2X c #E4AC85",
"3X c #E1AE89",
"4X c #E9AC86",
"5X c #E2B186",
"6X c #E3B58C",
"7X c #E3B98F",
"8X c #EAB78E",
"9X c #E6BD94",
"0X c #E5BC93",
"qX c #EBBD94",
"wX c #EAC097",
"eX c #EBC39A",
"rX c #E9C49A",
"tX c #F2C69A",
"yX c #F3CC9E",
"uX c #F1CBA1",
/* pixels */
"*X*X*X*X*X*X*X>X:X*X*X*X:X*X[.!.P.b.b.G.T.[.>X,X,X>X*X*X*X,X9XqX6X).F.u.6.#.+.+.+.+.+.+.+.+.o.o.+.+.&.-.=.+.V v k v v t 1 $ o   . ; J ^ oXoXoXXX",
"*X*X*X*X*X*X*X*X*X*X*X*X:X*X[.!.I.G.G.I.!.[.*X:X=X*X*X*X*X,X0X9X6X{.K.a.,.+.o.o.+.+.+.+.+.+.+.+.+.+.+.#.+.D m v v v v r > $ . . $ 5 L ^ XXoXoXoX",
":X>X>X>X>X=X*X[.[.*X*X:X:X*X[.'.!.!.!.'.[.[.[.[.[.[.[.}.*X>X,X0X6X2X(.h.1.X.D X.+.#.+.+.+.#.#.#.+.+.o.} A V v v v v v 5 = @ @ & 1 B I ^ z.XXoXoX",
",X6X0X0X7X=X[.!.!.[.*X:X:X*X*X[.[.*X=X:X-X[.!.U.U.!.'.[.*X;X;X>X7X8X-XV.1.V b } #.#.+.o.+.&.:.-.=.+.G V v v h v n M v 5 % @ & 9 K Y W ^ ( XXoXoX",
"0X9XwXwX9X=X!.I.U.'.*X>X:X*X*X*X*X,X9X9X>X[.I.G.G.I.!.[.*X*X*X*X7XtX9XB.>.v t V +.#.+.+.&.4.8.8.-.+.D m v h j v n M v 1 $ $ 1 L ^ ( ( ^ / z.oX+X",
"qXwXeXeX9X-XT.G.P.'.*X>X:X*X*X*X:X7X9X9X>X[.T.P.P.T.'.}.*X*X].*X0XyXeX%X>.h 4 p } +.+.&.4.i.p.0.4.@.X.} G Z V b v n v 5 = ; v Q oXOXXX( ( XXoXOX",
"wXwXwX9X,X[.U.G.P.'.*X>X:X*X*X*X*X>X,X,X:X*X'.'.'.'.[.*X*X*X].*X0XyXeX%X>.h 0 9 V o.&.4.i.Z.D.p.5.*.*.t.r.<.+.A b v k 7 5 r J Q oXOXoXXXz.oXoXOX",
"qX9X0X,X*X'.U.I.!.[.*X>X*X*X*X*X*X*X*X*X*X*X*X*X*X*X*X*X*X*X&X*X0XtX9X~.>.v 0 6 v D &.8.C.H.K.D.u.8.i.D.K.D.r.+.A b v 9 9 v S R ^ l.XXoXoXoXoXoX",
"0X6X>X*X'.!.!.!.[.*X*X:X*X*X*X*X*X*X*X*X*X>X>X>X>X:X*X*X*X*X*X:X7XqX3XW.1.b 6 3 g V &.q.A.E.^.U.G.G.U.{..X/.D.e.+.A m v v v v B K R / oXoXXXz.l.",
",X:X}.!.U.T.'.*X*X>X:X*X*X*X*X:X:X:X*X*X;X>X>X>X>X*X*X*X*X*X;X>X5X2X).m.1.A 9 3 g m &.0.A.L./.).|.=X>X6X5X{.^.h.e.+.D m n k 7 < 1 B R z.XXz./ ^ ",
">X*X[.!.I.T.[.*X>X*X*X*X*X*X*X*X*X*X*X*X*X*X*X*X*X*X*X*X*X*X*X*X|.(.K.s.t.+.V v v V &.8.p.A.K._.3X9XeXeX9X5X{.K.s.6.+.G N v 1 $ $ 1 L ^ ( ( ^ ` ",
">X:X*X'.!.!.'.[.[.[.[.[.*X*X*X[.[.'.[.[.[.'.'.[.*X*X>X>X;X*X*X'.T.H.Z.s.a.r.1.O.D  .&.4.8.u.h.W.-XqXyXuXeXqX2X/.F.u.-.+.G V e & $ < B R ^ ^ ^ ^ ",
">X>X>X*X[.'.!.!.U.U.!.'.*X*X*X'.T.U.U.!.T.U.!.!.}.>X,X,X>X*X'.U.G.p.p.p.D.D.j.9.:.&.-.-.&.=.<.a.K.1XqXyXuXwX2X/.A.p.5.;.=.o.V e 1 7 z P E ^ ^ ) ",
"*X*X*X:X*X[.!.I.G.G.I.!.*X*X}.!.I.P.P.I.P.P.I.!.[.*X>X>X*X}.'.I.v.8.8.i.D.K.H.x.8.:.&.+.o.X.+.,.a.K.{.6X9X6X{.K.k.i.8.4.-.+.G m v 9 z l P E ^ ( ",
"U.!.!.].[.[.!.T.I.I.!.'.*X*X*X'.!.T.T.!.T.T.T.!.!.'.'.'.'.[.}.!.M.9.;.5.s.H.H.C.8.&. .D A D | #.6.a.J.!.].~.J.h.u.0.5.-.@.o.G N M 9 6 6 z P E ^ ",
"i.c.b.P.!.'.[.[.'.'.[.[.*X*X*X*X[.[.'.'.[.[.'.'.!.U.P.P.U.[.5X=X~.y.#.&.8.x.C.u.-.X.A m V D +.#.$.-.e.y.g.y.r.e.t.6.-.@.D V m M n 7 ; - 4 z P T ",
"3.8.i.v.I.'.*X*X*X*X*X*X*X*X*X*X*X*X*X*X*X:X*X[.!.I.G.M.I.|.9X9X%Xg.+.| :.8.8.6.+.A v v m D +.#.#.+.+.+.+.+.+.+.+.#.+.} m v v v v 5 & $ - 8 l x ",
"3.8.i.M.T.[.*X>X>X>X>X*X*X*X*X*X*X*X=X>X>X>X>X*X[.!.!.U.(.5XeXwX&Xg.#.] [ :.;.&.o.V v h v V X.+.+.+.} A s s V A C D A V n k k B n e & @ % 4 z l ",
"i.c.M.U.[.*X*X*X:X:X*X:X:X*X[.'.!.[.*X>X>X>X*X=X:X:X=X=X:X9XeXwX*XN.;.[ @.@.&.#.o.A v h h v V } +.+.} V p t p b m m m b v v B M n 5 & @ % 4 z l ",
"P.I.!.[.*X>X*X*X*X*X*X=X>X*X[.!.I.!.[.*X;X*X*X>X7X9XqX0X9XwXeX9X|.G.8.*.@.+.+.+.+.} V v h h v A o.+.o.V v h h v v v v v v v n n v 5 & $ - 8 l x ",
"'.[.[.*X>X>X*X*X*X*X*X:X>X*X'.U.G.P.!.'.}.*X*X>X0X9X9X9X9XwXwX9X=XR.p.2.#.o.O.+.+.+.} A v h h b A X.G m v h k v v v v j 9 7 9 t 7 > % $ < k K U ",
"*X*X*X*X*X*X*X*X*X*X*X:X>X*X[.U.G.G.P.T.'.[.*X>X,X,X>X>X,X0XwXqX5X/.Z.t.$.o.X.o.+.#.+.o.A v h v b V m v v h v v M M v 9 1 ; = ; ; & @ $ 5 J R ~ ",
"*X*X*X*X*X*X*X*X*X*X*X*X:X*X[.!.I.G.G.I.!.[.*X:X;X*X*X*X*X>X0X9X6X{.K.a.,.+.X.o.+.#.#.+.} m v h v v v v v v v v n n v 7 ; $ @ $ $ + . $ 9 I ^ XX",
"[.}.*X*X*X*X*X*X*X*X*X*X*X*X*X[.!.!.U.!.!.[.*X*X*X*X[.[.*X;X,X7X6X2X).J.y.&...| +.+.+.o.D m n k h h v n n v t 7 7 t 7 1 & @ + @ @ .   @ j R z.OX",
"!.!.'.[.*X*X*X*X*X*X*X*X*X*X*X*X*X[.[.[.[.*X*X*X*X*X*X*X*X*X*X>X6X0X5X(.c.4.@...+.o.A V m m n v v v v M n v 5 ; = ; ; = $ @ @ $ $ .   @ j Q oX@X",
"P.I.!.[.*X>X*X*X*X*X*X*X*X*X*X*X*X*X*X*X*X*X*X*X*X*X*X*X*X*X*X*X6XwXqX-XG.8.*.@.+.G m v k v v v v v n n v 7 ; $ @ @ $ $ $ $ $ % $ X o $ v Q oX@X",
"M.G.U.'.*X>X:X*X*X*X*X:X*X*X*X[.[.*X*X>X>X*X*X*X*X*X*X=X*X*X[.*X,XwXwX5XR.p.3.*.#.G N k 9 7 7 t t v v t 5 ; $ X X X @ $ $ $ $ $ @ + + - B E z.OX",
"G.G.U.'.*X>X;X*X*X*X:X>X>X*X[.!.!.!.}.*X>X:X*X*X*X*X*X*X*X*X}.*X,XwXwX6X/.Z.0.6.#.O.F v 9 < ; 1 t v t 1 = @ + X X + @ $ $ $ @ @ @ + * 6 K E / XX",
"P.I.!.[.*X>X*X*X*X*X*X*X>X*X[.!.I.!.[.*X:X*X*X*X*X*X*X*X*X*X*X*X,X0X9X6X{.K.s.6.+.G N v 5 % $ ; 7 v t > $ + @ $ $ $ $ $ $ $ @ @ $ = 6 l P E ^ ( ",
"!.!.'.[.*X:X:X*X*X[.[.*X*X*X[.!.T.!.[.*X*X*X*X*X*X*X*X*X*X*X*X*X>X,X6X6X2X).m.1.A p 9 5 = + X = 9 n v 1 & & ; > > = $ $ $ $ $ % ; 6 l P E ^ ^ ( ",
"[.[.}.*X*X:X:X*X[.!.!.'.[.*X*X[.[.[.*X*X*X*X*X*X*X*X*X*X*X*X*X*X*X*X>X7XqX3XB.>.n < * % @ . @ = t n n 9 5 5 9 t 5 ; $ @ @ $ = < 8 l P E ^ ( z.z.",
"*X*X*X*X*X=X>X*X[.!.I.!.[.*X:X*X*X*X*X*X*X*X*X*X*X*X*X*X*X*X*X*X*X[.*X7XtX9X$Xf.v * # $ @ @ $ ; 7 v n v v n n v 7 ; $ @ @ $ - 8 l P R ^ ) XXoXoX",
">X:X*X*X*X:X>X*X'.U.G.U.'.*X>X>X*X*X*X*X*X*X*X*X*X*X*X*X*X*X*X*X*X].*X7XeXwX%Xf.A e > ; , = ; : 1 7 v n M M n t 1 = $ @ @ $ : g x T E ( XXoXOXOX",
":X*X*X*X*X:X>X*X'.I.G.U.[.:X>X>X*X*X*X*X*X*X*X*X*X*X*X*X*X*X*X*X*X[.*X7XeXwX*XN.&.' d s y t 5 < ; ; 5 v M n 9 > = % $ @ @ $ : 8 x T ~ ( XXoXOXOX",
"*X*X*X*X*X=X>X*X[.!.I.!.[.*X>X:X*X*X*X*X*X*X*X*X*X*X*X*X*X*X*X*X*X*X*X,XwX9X|.G.8.*.@.+.G Z v 1 % $ ; 7 v t > $ @ @ $ @ @ $ - 6 l P R ^ ) XXoXoX",
"*X*X*X*X*X*X*X*X[.'.!.!.'.[.*X=X>X:X*X*X*X*X*X*X*X*X*X*X*X*X*X*X*X*X*X,X9X0X|.S.q.3.2.<.1.>.Z r % X + ; 5 1 & X . + @ @ @ $ = < 8 l K R ^ ( z.XX",
"*X*X*X*X*X*X*X*X*X*X[.'.!.!.[.=X6X,X:X*X*X*X*X*X*X*X*X*X*X*X*X*X*X}.*X>X0X,X[.b.7.3.3.8.y.1.O.y , X X $ = = $ @ X + @ @ $ $ $ = ; 4 k K R ^ / ( ",
"*X*X*X*X*X*X*X*X;X>X*X'.U.I.(.>X9X9X,X*X*X*X*X*X*X*X*X*X*X*X*X*X*X*X*X>X>X*X!.v.8.3.3.8.9.;.+.s q $ + + $ % $ $ $ $ $ $ $ $ @ @ $ = 6 l P E ^ ( ",
"*X*X*X*X*X*X*X*X>X>X:X'.U.P.!.5XeXeX9X>X*X*X*X*X*X*X*X*X*X*X*X*X;X>X>X*X[.!.P.b.i.0.7.3.2.@.| d i > = % % = = ; ; > ; = & @ O O @ % 4 l P E ^ _ ",
"*X*X*X*X*X*X*X*X>X>X*X'.U.P.!.>XeXyXeX0X>X*X*X*X*X*X*X*X*X*X*X*X>X,X>X[.P.v.v.D.F.Z.0.3.[ ] { C d s y r 5 4 4 7 9 t t 1 = @ X O @ = 6 l T E ^ ) ",
"*X*X*X*X*X*X*X*X:X>X*X'.U.I.!.=X9XeXeX9X6X>X*X*X*X*X*X*X*X*X*X*X>X,X*XY.n.8.u.D.K.H.x.8.:.@.+.+.+.+.X.V v h h v n n v 7 ; $ X @ $ - 6 l P E ^ ( ",
":X=X*X*X*X*X*X*X*X:X*X'.!.U.!.[.=X6X0X9X0X0X,X>X:X*X*X*X*X>X>X>X:X*X!.v.4.:.5.p.H.R.R.M.N.V.g.g.y.e.=.G m m m N N M k 9 < = $ @ $ $ - 8 c T E ~ ",
">X>X=X*X*X*X*X*X*X*X*X[.!.U.P.U.!.}.=X,X0X9X9X0X,X:X*X*X:X,X,X,X}.T.c.9.&.@.&.5.p.R.'.*X;X*X%X~.J.s.t.+.D H G G Z n h g 8 5 : % @ + + = 9 l P T ",
"*X*X*X*X*X*X*X*X*X:X*X[.!.I.P.P.I.!.'.*X,X0X9X0X>X*X*X*X*X>X>X*X!.b.8.*.#.+...*.8.G.|.9XuXeX9X5X).K.a.,.+.+.+.+.X.V v v v v 7 ; $ X X $ < 9 l x ",
"'.[.[.*X*X:X*X*X*X>X*X[.!.P.G.P.U.!.!.'.}.=X:X=X}.[.'.[.[.[.'.!.G.w.3.*.#.+...@.2.v. XqXtXtXqX8X2X{.K.a.t.-.-.-.#. .D G G F m e ; & % & : 4 6 8 ",
"U.!.!.}.:X>X*X*X:X>X>X[.!.P.P.!.'.'.!.U.T.!.!.!.!.!.!.!.!.U.M.c.i.q.7.4.-.#.| | -.a.Q.1X4X1X1X2X6X6X-XQ.h.u.5.4.4.2.4.;.=.O.A y 7 5 5 5 1 : - = ",
"P.I.!.[.*X>X*X*X*X>X*X[.T.I.!.[.*X*X!.I.P.P.I.I.P.I.U.T.I.M.i.8.7.7.8.4.-.+.} } +.e.h.K.L.L.K._.5X9X6X{.K.k.u.8.7.7.8.4.-.+.D m v v v v 5 ; $ + ",
"U.T.!.'.[.*X*X*X*X*X[.!.!.!.[.*X>X*X[.!.I.I.U.T.T.!.T.U.G.b.i.8.3.4.;.&.+.D A A G +.e.a.d.p.k.R.=X8X8X1X^.F.p.8.4.:.-.=.+.} A b n M S M t ; @ . ",
"[.'.'.!.!.'.*X*X}.!.!.!.!.[.*X=X:X*X}.[.'.'.'.[.[.[.!.U.G.G.b.c.u.;...} A m n n m G +.,.6.5.p.S.(..X1X).^.F.p.8.*. .V m m m b v n M S M t ; @ . ",
">X*X[.!.I.!.[.*X[.!.I.T.[.*X>X:X*X*X*X*X*X*X*X*X:X*X[.!.I.U.T.I.N.e.+.A m v k h v m G +.-.2.8.p.D.K.`.`.K.H.x.8.&.V v h h v v v v n n v 5 = $ + ",
"<X>X[.T.G.U.[.*X*X!.T.!.[.*X>X*X*X*X*X>X>X>X>X>X>X>X*X!.!.'.}.[.Q.j.,.} V v 9 8 h b A +.&.:.4.4.t.r.j.D.H.S.C.w.;. .V m m m m v v t 9 5 ; & $ $ ",
"<X>X[.T.G.P.'.*X*X[.'.[.*X*X*X*X*X*X*X=X:X=X:X>X>X:X*X[.[.*X>X>X-XK.a.6.o.V v 9 h b D +.-.-.&...D } =.y.C.S.C.p.8.4.-.@...X.G m v 7 : & $ $ $ $ ",
">X*X[.!.I.T.[.*X>X=X*X*X*X*X*X*X*X*X*X*X*X*X*X*X*X*X*X*X*X>X0X9X6X{.K.s.t.+.A v v m D +.=.=.+.A v v V &.8.q.0.8.8.8.8.4.-.+.G N v 5 = $ @ @ $ $ ",
"[.'.'.!.!.[.*X*X>X>X>X>X:X*X*X*X*X*X*X*X*X*X*X*X*X*X*X*X>X0XwXwX9X2X).K.s.e.+.A m b V D o.+.+.Z v h p f ] ] ] ] [ &.;.-.+.X.A m v 9 1 = & $ $ $ ",
"U.T.!.[.*X*X:X>X>X>X>X>X>X:X*X*X*X*X*X*X*X*X*X*X*X*X*X*X>X0X9XwXqX6X-X(.K.h.r.#.G b v v V } +.G N k 7 e q q q q u s D G A m b v v v t 7 1 = % $ ",
"P.I.!.[.*X>X*X*X*X*X*X*X*X*X*X*X*X*X*X*X*X*X*X*X*X*X*X*X*X>X0X9X0X>X*X}.(.K.s.t.+.A v v m } +.O.F v 5 ; $ @ + $ ; 7 v n n v v v v n n v 5 ; $ + ",
"U.!.!.'.[.[.[.[.'.'.'.'.'.[.*X*X*X=X*X*X*X*X*X:X>X>X*X'.'.}.>X0X0X>X*X{.).^.F.u.-. .D D O.+.#.o.V t < * # % & , e t b m m m b n n n v t 1 & + . ",
"[.[.'.!.T.U.T.T.!.T.T.U.U.!.'.*X:X>X=X*X*X*X*X>X0X7X=X!.U.!.*X,X>X-X_._./.^.F.u.4.:.*.;.;.;.=.{ u > = 2 1 r y d d C D } } } G N n k 7 > & @ X . ",
">X*X[.!.I.P.P.I.U.U.I.P.P.I.!.[.*X:X:X*X*X*X*X,X9XqX:X!.I.Y.[.*X&X(.K.K.K.K.D.i.8.7.7.8.9.<.+.s q $ # < v F X.+.#.+.+.+.+.+.X.Z v 5 = $ @ @ $ $ ",
">X>X*X[.!.!.T.T.!.!.!.T.U.U.T.!.[.*X*X*X*X*X*X,XqXwX7X-X!.!.'.'.U.D.k.k.k.D.v.i.0.7.3.4.-.+.A e $ X # < n F %.+.+.+.+.+.+.O.G m 7 = + X $ ; 5 9 ",
"*X*X:X>X:X=X}.[.].[.}.[.!.T.U.U.!.[.*X>X;X*X*X>X0XwXqX0X:X*X'.U.b.i.0.0.u.i.p.p.0.4.&.X.G N v < # X # < v S F F F F F H H F m r ; + . @ > v L R ",
"*X*X>X0X9X0X>X*X*X*X*X[.!.I.G.G.I.!.[.*X*X*X*X>X6XqXwXwX9X>X[.I.v.i.8.7.8.8.w.w.8.&.A v k v v 5 = $ = 5 v n n v v v v n n v 7 ; $ . o $ h I ^ XX",
"*X*X>X7X9X9X,X>X*X*X[.!.G.v.v.M.P.!.!.[.[.*X*X:X>X7X0X9X9X6X-X!.I.M.c.q.8.7.0.0.4. .p 3 g M G C u w w y b n k 9 6 4 < 5 7 5 < % @ . X - B E XX#X",
"*X*X=X>X,X,X>X:X*X].!.M.i.8.i.b.P.T.T.!.!.[.*X:X>X>X>X>X,X,X>X>X=X'.Y.M.i.7.7.5.-.D 9 3 v %.r.t.*.] ' C A N v h 4 - % % = ; & $ @ + # 6 P ^ oX#X",
"*X*X*X*X*X*X*X*X}.'.I.v.0.8.i.b.I.U.I.I.!.[.*X:X:X*X*X*X*X>X7X9X9X0X*X!.v.8.2.-.+.A j v %.g.K.L.C.8.2.&.+.G N v 5 = $ @ $ $ @ @ $ = 4 l T / oX#X",
"*X*X*X*X}.*X*X*X*X[.!.U.G.b.b.G.P.I.U.T.!.[.*X*X*X*X}.[.*X=X,X9XeXwX,X'.v.4.@.X.G Z Z %.g.Q.2X.XE.S.p.8.6.=.X.A y 1 = $ @ @ O @ $ < k P ~ z.oXOX",
"*X*X*X*X*X}.}.*X*X=X:X=X=X}.!.I.P.P.!.[.*X*X*X*X*X*X*X*X*X*X:X,X0XwX>X'.N.&.f a m G 1.j.(.5XqX8X.XE.A.p.0.4.&.o.A y 5 ; $ X . . $ 1 J E l.oX+XOX",
"*X*X*X*X*X*X*X*X>X6X9XeXeX9X=X!.I.U.'.*X>X:X*X*X*X*X*X*X*X*X*X*X>X>X*X~.y.+.a 9 v G r.K..X8X9X6X{.K.k.p.8.4.-.+.G N v 7 ; $ . . $ 5 L ^ XXoXoXoX",
"*X*X=X>X>X>X>X>X,X7X9XwXeXwX>X[.!.!.}.>X>X:X*X*X*X*X*X*X*X*X*X*X=X-X_.J.r.o.b 9 v G t.H..X5X>X&XW.j.r.-.&.....X.G N n k 7 > $ @ $ 5 L ^ XXXXz.l.",
"*X*X:X,X0X0X0X7X6X,X,X,X7X,X>X*X[.[.*X;X:X*X*X*X*X*X*X*X*X*X*X*X-X{.^.m.e.+.m h v A -.p.E.(._.Q.j.<.+.X.D V V V m b n v v 7 ; @ $ 5 L ^ XXl./ ^ ",
"*X*X>X6X9XwXwX9X7X>X*X*X*X*X*X*X*X*X*X*X*X*X*X*X*X*X*X*X*X*X*X*X|.(.K.s.t.+.V v v V ..8.C.L.K.m.e.+.V b v v v v v v v n M v 1 $ $ 1 K ^ ( ( ^ Q ",
"*X*X>X7XqXeXeXqX7X:X}.].].[.*X*X>X>X*X*X*X*X*X*X*X*X*X*X*X;X;X*X|./.H.d.t.+.A v v s ] 2.p.A.F.d.-.} p 9 g g g h 9 t v n N n 5 & $ 1 K ^ ( ^ ` Q "
};
