/* XPM */
static const char *wall_15[] = {
/* columns rows colors chars-per-pixel */
"72 72 211 2 ",
"   c #4A020E",
".  c #4B0611",
"X  c #4D0A15",
"o  c #4D0E19",
"O  c #460A1A",
"+  c #510F19",
"@  c #4E111B",
"#  c #51141D",
"$  c #4E1A23",
"%  c #4B1824",
"&  c #521720",
"*  c #531A23",
"=  c #591D24",
"-  c #541F28",
";  c #460F20",
":  c #4E222A",
">  c #552027",
",  c #592027",
"<  c #54242B",
"1  c #59252B",
"2  c #54292E",
"3  c #5A292E",
"4  c #4F2E33",
"5  c #542C32",
"6  c #5A2D32",
"7  c #543336",
"8  c #5C3236",
"9  c #563539",
"0  c #5C3539",
"q  c #56393C",
"w  c #5D3A3D",
"e  c #662A2A",
"r  c #6E322B",
"t  c #642E31",
"y  c #633335",
"u  c #613739",
"i  c #613B3C",
"p  c #6A3A38",
"a  c #703F3C",
"s  c #68423E",
"d  c #74423D",
"f  c #79483E",
"g  c #7D513E",
"h  c #5D3E41",
"j  c #563A40",
"k  c #613E40",
"l  c #564142",
"z  c #5C4344",
"x  c #5B4748",
"c  c #5B4A4A",
"v  c #574B49",
"b  c #5D5352",
"n  c #5F514F",
"m  c #634343",
"M  c #6B4644",
"N  c #664847",
"B  c #6E4945",
"V  c #624649",
"C  c #644B4A",
"Z  c #6C4D4A",
"A  c #724B45",
"S  c #7A4E46",
"D  c #724E49",
"F  c #7A4F48",
"G  c #734742",
"H  c #6B504D",
"J  c #7D5246",
"K  c #74524A",
"L  c #7C534A",
"P  c #775043",
"I  c #644F52",
"U  c #635455",
"Y  c #695354",
"T  c #695659",
"R  c #635B5A",
"E  c #6A5C5D",
"W  c #665757",
"Q  c #7C5A51",
"!  c #65615E",
"~  c #6A605E",
"^  c #6C5F62",
"/  c #666461",
"(  c #6C6465",
")  c #676864",
"_  c #6C6967",
"`  c #6D6769",
"'  c #6C6A69",
"]  c #716D6B",
"[  c #706666",
"{  c #6C716D",
"}  c #72736E",
"|  c #716E70",
" . c #6E7370",
".. c #737473",
"X. c #747A75",
"o. c #767C7A",
"O. c #787D7B",
"+. c #757778",
"@. c #93563A",
"#. c #8D553F",
"$. c #844D40",
"%. c #835446",
"&. c #895647",
"*. c #855945",
"=. c #8C5A46",
"-. c #835549",
";. c #88574A",
":. c #855A4B",
">. c #8C5A4A",
",. c #925E46",
"<. c #925D4A",
"1. c #855A51",
"2. c #8D604A",
"3. c #946145",
"4. c #9B6545",
"5. c #9E6846",
"6. c #95624A",
"7. c #9B654A",
"8. c #9E694A",
"9. c #8D6252",
"0. c #926351",
"q. c #9D6552",
"w. c #9D6A52",
"e. c #9D705C",
"r. c #A36B46",
"t. c #AA6F44",
"y. c #A46C4B",
"u. c #A96E4B",
"i. c #A1674A",
"p. c #AC7246",
"a. c #AC724A",
"s. c #A6704D",
"d. c #B2764B",
"f. c #B4794B",
"g. c #B97C4B",
"h. c #B07347",
"j. c #A46B53",
"k. c #A56C57",
"l. c #AC7353",
"z. c #AA7559",
"x. c #B37653",
"c. c #B57A53",
"v. c #BA7D54",
"b. c #B6765D",
"n. c #BB7D5A",
"m. c #B57B5C",
"M. c #B47B63",
"N. c #BB7C61",
"B. c #B17462",
"V. c #C07E56",
"C. c #76827C",
"Z. c #78837E",
"A. c #BE8054",
"S. c #BE825A",
"D. c #BB855D",
"F. c #BA804F",
"G. c #BD8261",
"H. c #B88865",
"J. c #C2824F",
"K. c #C18255",
"L. c #C3835B",
"P. c #C8885E",
"I. c #C58562",
"U. c #CA8664",
"Y. c #CA8964",
"T. c #CE8C6B",
"R. c #C58966",
"E. c #D18E6D",
"W. c #D28D65",
"Q. c #C6926A",
"!. c #CC936E",
"~. c #CC976A",
"^. c #D4926C",
"/. c #D5966E",
"(. c #D28E70",
"). c #C99772",
"_. c #D39272",
"`. c #D99572",
"'. c #D49975",
"]. c #D59C79",
"[. c #DA9C77",
"{. c #D4A47C",
"}. c #DBA37C",
"|. c #D5A97F",
" X c #CFA37A",
".X c #E1A37D",
"XX c #7A8581",
"oX c #7B8C84",
"OX c #7C8D88",
"+X c #7D9087",
"@X c #7E928A",
"#X c #7F988F",
"$X c #7F9890",
"%X c #80958C",
"&X c #829D93",
"*X c #83A196",
"=X c #D5AC83",
"-X c #DCAC84",
";X c #D9A682",
":X c #D6B187",
">X c #DCB48A",
",X c #DAB58A",
"<X c #E6AC85",
"1X c #E3B38B",
"2X c #E3B98E",
"3X c #E4BC93",
"4X c #EBBE96",
"5X c #F0BB92",
"6X c #ECC69C",
"7X c #EDC49B",
"8X c #F0C99F",
/* pixels */
"oXoXOXoX..I 1 X   X & 5 0 m D -.>.<.>.;.;.;.>.<.<.>.%.f %.w.H.=X>X>X=X=X=X=X}.`.Y.b.q.;.-.-.>.<.>.>.;.;.;.>.<.>.-.A m 0 5 & X   X 1 I ..oXOXoXoX",
"oXoXoXXX..T 8 & X o & 1 8 m D -.>.<.<.>.;.>.>.>.>.>.%.%.>.z.).=X>X>X=X=X=X=X}.[.T.n.i.>.%.-.>.>.>.>.>.;.>.>.<.>.-.D m 0 1 & o X & 8 T ..XXoXoXoX",
"oXoXoXC...E V 6 - # # > 8 m D L ;.<.<.,.<.>.;.;.;.>.>.<.q.M.).>X>X,X=X=X=X=X;X}._.G.j.,.=.&.>.>.;.;.>.<.,.<.<.;.L D m 8 > # # - 6 V E ..C.oXoXoX",
"OXoXXXo.| ` ^ Y w - # & 6 m D L ;.<.4.4.4.<.;.-.-.>.6.j.m.!.;X2X3X>X=X=X=X=X-X-X{.Q.c.5.,.=.;.;.-.;.<.4.4.7.<.;.L D m 6 & # - w Y ^ ` | o.XXoXOX",
"+XoXZ.X...o.O...T 8 & & 6 m Z L >.7.a.a.u.7.>.-.-.>.q.b.T.}.1X4X3X>X=X=X=X=X>X,X=X).D.a.4.,.>.;.-.>.7.u.a.a.7.>.L Z m 6 & & 6 T ..O.o...X.Z.oX+X",
"+XOXXXo.o.XX@XoX] m 1 > 6 m Z J 3.u.c.v.c.s.7.&.%.;.q.N.`.<X5X7X3X,X=X{.=X=X>X,X>X{.Q.v.u.6.>.;.;.6.u.c.v.v.u.3.J Z m 6 > 1 m ] oX@XXXo.o.XXOX+X",
"+XOXoXZ.XXoX@XoX] Z 0 6 9 z A *.5.c.L.I.L.v.u.,.%.;.q.N.`.<X5X4X3X>X=X{.=X=X:X:X=X{./.I.x.7.<.>.3.y.c.L.I.L.c.5.*.A z 9 6 0 H ] oX@XoXXXZ.oXOX+X",
"oXoXoXoXoXoXC...( Y m w w m P 3.a.L.Y.T.Y.A.a.4.=.>.q.b.T..X1X3X3X>X=X=X=X=X:X:X=X|.[.T.m.q.>.=.4.a.A.Y.T.Y.L.a.3.P m w w m Y ( ..C.oXoXoXoXoXoX",
"C.Z.oXOXoXX.( Y V V V z m M %.8.v.Y.`._.T.n.a.4.3.6.y.x.I.'.-X3X3X3X>X-X=X=X=X=X=X-X}._.M.0.-.%.4.d.L.T._.^.Y.v.y.%.M m z V V V Y ( X.oXOXoXZ.C.",
"..X.C.XXC.[ V 6 5 0 z V B F <.l.I.^.`.`.R.z.7.4.5.u.u.a.c.R. X,X3X3X3X>X-X=X=X=X:X-X.X_.B.1.A f 3.d.L.T._._.^.I.l.<.F B V z 0 5 6 V ( C.XXC.X...",
"] ..o.O...T 6 & & 6 m Z J >.j.N.T.`.`.T.M.q.>.=.8.a.p.t.a.D.).=X3X3X3X2X>X=X=X=X=X-X}.T.k.L m s =.a.K.U.T._._.T.N.j.>.J Z m 6 & & 6 T ..O.o...| ",
"....+...` C 5 & - y A L =.7.x.Y._.`.T.N.w.;.F %.6.u.p.t.p.v.Q.{.>X3X3X3X,X=X=X=X{.}./.I.q.A h s *.u.v.K.I.T._._.R.x.7.=.L A y - & 5 C ` ..+.....",
"+.+...' R x 9 6 y G -.<.4.a.n.W.`.T.N.w.-.A M A ;.6.r.t.p.v.Y.'.;X>X>X>X,X:X=X{.'.^.P.c.6.B h m J 7.a.d.v.I.E._.T.n.u.4.6.-.d y 6 0 x R ' ..+.+.",
"+...' R c j h m B L >.6.r.a.A.Y.T.I.k.>.A m m M F >.7.r.a.v.L.T.'.{.=X:X:X=X{.'.T.P.V.a.3.A m m F >.4.r.a.v.Y.T.Y.v.a.r.6.>.L B m w l c R ' ..o.",
"..' R x 9 7 w N Z L -.,.4.a.c.n.N.z.q.&.G s m m F ;.<.7.y.a.c.V.Y.).{.;X=X{.'.T.L.V.g.p.4.%.A M A J =.3.r.x.L.I.L.c.a.4.,.-.L Z N w 7 9 x R ' ..",
"/ R x 9 < 1 0 m N B A %.,.7.y.j.w.q.6.;.F M m M L ;.<.<.6.7.y.d.S.Y.).].]._.T.S.v.f.f.p.r.,.%.A M B A %.6.u.c.v.c.a.7.=.J A B N m 0 1 < 7 x R / ",
"b c q < & - 8 m V m m B J >.<.>.>.>.<.>.J M m M J >.<.>.>.,.5.a.v.I.T._._.T.I.c.a.p.a.a.u.7.>.F M m M F >.7.a.a.u.7.>.F M m V V m 8 - & < q c b ",
"v l 7 - # = y m C x z m A F %.%.&.&.;.-.A m m M F &.>.>.<.7.u.c.S.I.T.E.E.T.L.d.t.r.r.y.y.7.<.J m h h M L <.7.r.4.=.F M m z V C m y = # - 7 l v ",
"v l 7 - # - 8 m C N V m m M F %.&.&.J A m z h M S %.=.3.5.s.c.L.U.Y.T.E.E.T.L.f.t.4.3.6.6.6.<.J M h j h B %.,.3.,.J M m z V N C m y - # - 7 l v ",
"b c q < & - 8 m N m m h h m A -.>.-.A m h h m B L >.6.r.a.v.I.T.E.T.T.T.E.T.I.v.a.5.,.>.>.>.>.-.A m h h m A -.>.-.A m h h m m N m 8 - & < q c b ",
"/ U z 6 & * 3 0 i i 0 0 w V Z L -.L B z w m A L 9.w.l.d.v.L.Y.(._.E.T.T.E.E.T.P.c.u.7.=.=.;.;.-.L A M m m M F L L Z m w w 0 i i 0 3 * & 6 z U ! ",
" .( I 8 & # * 1 1 < 1 6 w V Z K D B m m m G %.0.z.H.G.L.L.U.T.E.E.T.T.T.E.^.E.T.I.c.a.4.,.=.-.>.;.-.F M m m M Z Z Z V w 6 1 < 1 1 - # & 8 I `  .",
"XX..E w & X # & & # & 1 0 m m m m k m m M F >.j.H.Q.!.^.T.T.T.T.T.T.T.T.T.T.E.E.T.I.v.a.5.,.>.>.>.>.-.A m h h m m m m 0 1 & # & & @ X & w E ..XX",
"@XC.( k # . X # # @ # - 6 0 w 0 8 9 w m M F >.j.G.!.[.}.].'.E.T.T.E.E.T.I.I.Y.T._.E.U.A.d.y.6.>.-.-.F B m w 0 8 0 w 0 6 - # @ # # X . # k ( C.@X",
"&XoX] k #   X & & # # & < 1 1 < 1 5 0 h M L >.j.n.T.}.<X1X;X'.T.T.E.E.Y.n.c.n.R.(._.E.Y.L.x.y.,.J B M m m i 6 1 < 1 1 < & # # & & X   # k ] oX&X",
"&XoX] m & . o & - & & & & & # # & < 0 m B J ;.i.b.T.}.2X3X1X].T.Y.E.T.I.c.a.x.L.T._._.T.U.A.a.3.A m z z m u 1 & # # & & & & & - & o . & m ] oX&X",
"@XZ.' V < @ @ # * & & & & # o X # < u A J *.,.j.G.'.1X7X6X3X{.T.R.I.I.v.p.p.d.v.U.T.T.Y.P.K.d.4.J m z z m 8 - # o o # & & & & * # @ @ < C ' Z.@X",
"XXX.' U 9 : @ # # & & - & # o X @ 1 a -.=.3.r.c.!.-X4X8X6X2X{.Q.D.n.c.d.a.p.d.g.A.L.S.v.v.g.d.y.=.F Z m z 8 - # o o # & * & & # # @ : 9 U ' X.XX",
"o...' R c 7 > & # # & & * & @ @ & t G >.6.r.a.P.{.3X8X6X3X>X{.Q.D.c.a.a.a.a.p.a.a.a.a.a.p.d.a.u.6.>.L Z m 8 < & # # & & & & # # & > 7 c R ' ..o.",
"o.+...' R x 7 < & # # # & & * - 1 y S >.7.a.A.~.1X6X6X3X-X{.].!.D.f.p.t.u.u.y.4.3.3.4.r.t.a.a.a.y.6.;.L M i 6 1 > - & & # # # & < 7 x R ' ..+.o.",
"Z.C.o...' R x 9 < & # + # & < 6 0 s F >.7.l.R.{.3X6X4X-X'._._.!.R.v.p.t.r.6.>.J A P &.3.y.u.a.a.p.r.4.;.L A m 0 6 < & # + # & < 9 x R ' ..o.C.Z.",
"oXoXoXO...` R c q < & # # & 1 0 m B J >.w.m.Q.|.2X3X1X].T.Y.T.T.R.v.a.r.6.>.F M m M F >.7.u.a.d.d.a.u.6.>.L Z m 0 1 & # # & < q c R ` ..O.oXoXoX",
"+X+XOXXXO...' R c w 5 - # # > 0 V H -.6.l.G.!.{.-X-X}._.T.U.I.I.L.c.u.7.>.L Z m h z Z L 6.u.d.g.v.v.x.u.7.:.K V 9 > # # - 5 w c R ' ..O.XXOX+X+X",
"oXOXOXOXXXC...' R b l 6 & # - 5 V K =.y.c.I.!.'.'.'.'.(.T.U.L.v.d.u.7.>.L Z m m h h m Z ;.5.f.K.L.I.L.v.u.2.K z 5 * # & 6 l b R ' ..C.XXOXOXOXoX",
"oXoXoXoXoXXXO...' R c 7 > & - 5 m J 3.a.v.U.T.T.T.T.T.E.T.I.v.a.r.6.>.L B m m m m h h m A 3.a.L.Y.T.Y.K.a.3.J m 5 - & > 7 c R ' ..O.XXoXoXoXoXoX",
"oXoXoXoXoXOXXXo.' U l 7 < < 5 0 M *.4.d.K.I.T.T.T.T.T.Y.U.S.d.r.3.=.F M i 8 w s m k 0 8 p g 7.m.T._.W.L.p.4.*.A u 6 < < 7 l U ' o.XXOXoXoXoXoXoX",
"oXoXoXoXoXOXoX+.( m 6 < 2 8 i M J =.5.p.v.P.T.(.(.E.Y.P.v.d.u.6.;.L M u 1 < 6 i m w 6 1 2 i L e.R._.E.L.p.4.=.%.A i 8 2 < 6 m ( +.oXOXoXoXoXoXoX",
"oXoXoXoXoXoXXX..Y 6 & & 6 m K L >.3.r.a.v.I.T._._.T.I.v.a.r.4.>.L Z m 6 - & 1 w m i 1 & % 2 m 9.M.T.W.K.a.5.3.>.L D m 6 & & 6 Y ..XXoXoXoXoXoXoX",
"oXoXOXOXoXoXo.` z - + # 8 Z Q 9.7.r.t.p.v.I.E._.T.I.v.a.5.,.%.L D Z m 6 & # , i m i 1 # O % 9 L k.I.P.K.p.r.4.>.1.Q Z y # + - z ` o.oXoXOXOXoXoX",
"oXoXOX+XoXC.{ U 9 $ + = p L 9.w.u.t.p.d.v.Y.E.T.I.c.s.y.,.%.S M N C V 8 - # < i N i 3 # O O > d 6.c.K.A.d.r.<.;.1.1.L p = + $ 9 U { C.oX+XOXoXoX",
"oXoX+X+XoXX./ c 4 $ & e d ;.w.s.a.p.p.a.v.R.T.Y.v.a.r.6.>.L M m V V m 8 - & < 0 m i 6 & O O & r #.a.F.g.a.y.<.>.>.0.>.f e & % 4 c / X.oX+X+XoXoX",
"oXoX+X+XoX..R l 4 : < y $.6.s.d.p.p.r.y.l.n.I.L.g.p.r.6.;.F M z w w 0 3 - & - 3 8 8 6 < ; O # r @.p.f.a.y.7.6.6.7.y.6.$.p 1 : 4 l R ..oX+X+XoXoX",
"oXoXOXoXO.] T m 7 5 8 d =.u.d.f.p.y.6.6.7.l.v.A.g.p.r.6.;.L B m 0 6 1 - * & & & - 2 8 7 : ; # r @.p.f.y.6.<.7.u.a.d.u.=.d 0 5 7 m Y ] O.oXOXOXoX",
"oXoXoXC...( Z m w w m J 7.a.g.g.a.8.<.>.<.8.a.f.f.a.u.6.>.L Z m 8 < & # # & # # & 3 i m 8 $ & r @.p.a.7.>.>.7.a.g.g.a.7.J m w w m Z ( ..C.oXoXOX",
"OXoXC...` U V m k m D :.8.d.g.g.p.y.<.>.>.3.5.t.u.r.y.6.<.-.D m 8 > # o @ # & * 1 p J L M 6 1 r =.u.u.6.;.>.6.u.d.g.d.r.:.Z m h m C U ` ..C.XXOX",
"XXC...` U x l k m A -.6.u.d.g.g.d.u.7.>.>.>.,.3.6.6.6.6.<.;.D m 8 < & o o # = t d &.7.7.*.s 0 p %.6.7.6.>.>.>.7.u.d.f.a.6.L M m h l x U ` ..O.XX",
"o...' R c l w m B J >.7.u.a.d.f.a.y.6.>.;.;.>.>.;.>.>.<.>.-.D m 0 1 & o o & t d >.j.d.a.3.A m m F >.<.<.>.-.-.>.6.u.a.a.7.>.F M m h l c R ' ..o.",
"' ` R c z w m B F -.<.6.7.y.u.u.y.6.*.J L -.>.<.>.;.;.%.-.L Z m 0 1 # o % < p %.w.c.J.g.5.J m m L >.>.;.-.L -.-.<.7.y.u.y.6.>.J B m w l c R ` ' ",
"R U c x z m G J -.>.<.<.<.6.7.7.6.*.A M A L >.<.<.>.%.F A N Z m 0 < # @ $ 8 G 2.s.g.J.f.4.P m M L >.;.J A A L ;.>.<.6.7.u.u.7.>.J G m z x c U R ",
"c c x z m G %.>.<.>.>.;.;.>.<.<.>.J M m M J >.<.<.>.J M m m V m 8 , & $ 5 m L 7.a.g.g.a.3.A m M L >.-.B m M J >.>.;.>.6.u.a.a.7.>.F M m z x c c ",
"v x l l m S ;.<.6.<.;.-.-.;.;.>.;.L A B A F -.;.;.-.K M h w w 0 6 1 1 6 w Z :.8.a.f.d.y.=.A m M F %.F m h M J >.>.-.;.6.u.d.d.u.<.-.A m z x x v ",
"c c x l m S ;.<.6.<.;.-.-.;.;.;.;.;.-.-.F S A A A D Z N m 0 6 1 1 6 0 k B L 6.r.a.a.u.6.-.Z m m B A M m m M J ;.>.-.;.6.u.d.d.u.<.-.G m z x c c ",
"c c x l m G %.>.<.>.>.;.>.>.>.;.>.>.<.>.-.A m h k m m N m 8 > & - 8 m Z L >.7.u.a.a.7.>.F M m z m m m h m A %.>.>.;.>.6.u.a.a.7.>.F M m z x c c ",
"c c x z m M S J -.>.>.<.<.<.<.<.<.<.>.-.J M h q 7 8 w m m 8 * @ $ 5 V K :.6.u.a.p.a.7.>.S p 0 0 w h z z m A -.>.<.<.<.6.y.u.7.>.J A M m z x x v ",
"v x x z m m M B F -.<.<.<.<.<.<.<.;.J A B m h 8 1 < 6 i m 8 - @ % 5 m K 6.u.h.f.p.s.8.>.f t 1 1 8 h z z m A -.<.<.<.<.6.7.7.>.J B m m m z l l l ",
"c c x V m k h m B -.>.<.>.>.>.<.>.J B m m V m 8 - & 1 w m i 1 & $ 5 m L 7.a.f.f.a.s.8.>.d 1 & - 8 m V m m B J >.<.>.>.>.<.>.J B m h k m V x c c ",
"R U I N m i z z B A J %.%.J -.-.%.S m h z C m y - # > 0 m m 8 1 1 0 B ;.r.d.g.d.u.8.0.-.p , # - 8 m N V m M A -.-.-.J J %.F A M z h i m C U R ! ",
"' ` W Z m i m V N B B G B B A A A M k h V N m 8 - # > 0 m m i 0 u M J 6.u.d.d.u.7.2.:.D u - # - 8 m C m m m M A A A B M M M M N V m i m Y _ X.C.",
"o...( Y m i i m m m m m m m m m m m m m m N m 8 > & > 8 m V V m M F >.7.a.a.u.7.>.L Z m 8 - & < 8 m N m m m m m m m m m m m m m m i 0 m E X.oX#X",
"oXO.} W z 8 6 8 i k V V V m z h h m m m m k 0 3 - & - 6 0 h z N D -.<.i.u.u.7.>.F M i 8 1 - & - 3 0 i m m V m h h z m V V V k i 8 3 6 w E o.@X*X",
"%XoXX.! l 2 > < 6 w V C C V m h h V N N i 8 1 - * - - < 3 8 h N K :.<.7.i.7.>.L M w 6 < - & & * - 1 8 m m N V k h m V C C V w 6 > - < h ! o.+X&X",
"%XoXo.) c 5 $ & < 8 m N m m m m m m m m 8 1 & # # & # # & < 8 m D L ;.<.<.>.-.D m 8 < & # # & # # & 1 0 m m m m m m m m N m 8 < & $ 5 c ) o.oX%X",
"@XoXC.' U q < - > 3 8 u u u i m N m m 0 3 & # o # # o X X # 2 i M A J -.-.L K Z V 0 < # # # # # o # * 3 0 m m m m i u u u 8 3 - > 5 x !  .C.oXOX",
"+XoXXX..` U l 7 2 < , , > 3 0 m N m 0 1 * # # # # o X . . # 1 i M B A A A B Z Z C w 1 & # # # # # # # * 1 0 m N m 0 3 < , , > < 7 c / X.oXoXoXoX",
"oXoXoXO...` R c q < & # o & 3 i m i 3 & @ # & & & & # # & 1 0 m m m m m m m m m m 0 1 & # # & & & & # @ & 3 i m i 3 & o # & > 7 c / X.oX+X+XoXoX",
"oXoXoXXXO...' R x 5 $ X . X # 1 6 1 # X X @ > 5 6 8 8 0 w V Y T Y x w q 0 w w 8 3 > # # # & - 1 2 < $ o X # 1 6 1 # X . o $ 5 x R { C.OXOXOXoXoX",
"oXoXOXoXoXC...` U l 5 $ .   X # # # X . o : 7 h C Y E ( _ } X.../ c q 9 0 8 6 > # X . X # > 6 w w 7 : @ . X # # # X   . $ 5 l R ` ..o.C.XXoXoXoX",
"oXoXoXoXoXXXO...' R c 9 < & # # & & # & < 9 c R ' ..o.XXoX+X@XoXX.R c z m m u 1 & @ @ & 1 8 m C n c q < & # # & & # & < 9 c R ' ..+.....o.Z.oX+X",
"oXoXoXoXoXoXXXO.X.{ ) R C m w w 0 8 8 w V U / { o.XXOX#X%X&X&X@XC.{ ! R E E Y N h 0 8 w m C T ~ / R U V w 8 8 0 0 w m C R )  .o.O.o...| +.C.oX+X",
"oXoXoXoXoXoXoXoXXXC.o.X.} ] ( E T T T E ( { o.C.oXoXOX+X@X#X#X+XoXC.X.X.X.X...} _ ( E E E ( ] ] ' ' ( ( E T T W E ( ] } X.o.C.oXoXO.+...+.C.oX+X",
"oXoXoXoXoXoXoXoXoXoXoXOXOXoXZ.o...| | ..o.Z.oXOXOXoXoXoXoXoXoXoXoXoXoXoXoXoXOXOXoXZ.o...........................o.Z.oXOXOXoXoXOXoXC.+...X.C.oX+X",
"oXoXoXoXoXoXoXoXOX+X%X&X*X&X$XOXXXO.O.XXoX+X%X%X+XoXoXoXXXZ.Z.oXOX+X%X%X#X#X&X*X*X&XOXXXO.o.o.+.+.o.+.O.XXXXXXXXOX#X&X*X&X%X+X+XoXZ.X...o.Z.oX+X"
};
