/* XPM */
static const char *wall_5[] = {
/* columns rows colors chars-per-pixel */
"72 72 220 2 ",
"   c #4A010D",
".  c #4D0B16",
"X  c #4E0E19",
"o  c #4A0714",
"O  c #500D19",
"+  c #4F111C",
"@  c #51131D",
"#  c #4D1924",
"$  c #511720",
"%  c #531A22",
"&  c #581C24",
"*  c #4F232B",
"=  c #552027",
"-  c #55242B",
";  c #59252B",
":  c #55282E",
">  c #5A292E",
",  c #582027",
"<  c #562C32",
"1  c #5A2E32",
"2  c #512730",
"3  c #4E323B",
"4  c #543236",
"5  c #5C3236",
"6  c #543539",
"7  c #5D3539",
"8  c #563A3D",
"9  c #5C3A3D",
"0  c #4E2F37",
"q  c #652927",
"w  c #67332E",
"e  c #623435",
"r  c #613739",
"t  c #613B3C",
"y  c #6B3E3C",
"u  c #6C3734",
"i  c #6B3532",
"p  c #65413E",
"a  c #6B433E",
"s  c #75443D",
"d  c #7A453D",
"f  c #7B4C3C",
"g  c #553A41",
"h  c #5C3E41",
"j  c #613E40",
"k  c #5E4244",
"l  c #5B4A4A",
"z  c #584646",
"x  c #5C5452",
"c  c #5F4F50",
"v  c #634343",
"b  c #6B4643",
"n  c #654847",
"m  c #6D4945",
"M  c #654B4A",
"N  c #6D4C49",
"B  c #62464A",
"V  c #744B44",
"C  c #7A4E45",
"Z  c #744E49",
"A  c #774C45",
"S  c #69524E",
"D  c #7C5146",
"F  c #75514A",
"G  c #7C5249",
"H  c #765249",
"J  c #654E51",
"K  c #645355",
"L  c #695559",
"P  c #635B5B",
"I  c #68575A",
"U  c #65605F",
"Y  c #6C5F62",
"T  c #656362",
"R  c #6C6565",
"E  c #6D6B6A",
"W  c #6F676A",
"Q  c #716D6C",
"!  c #706666",
"~  c #6E7270",
"^  c #737473",
"/  c #757A77",
"(  c #767B7A",
")  c #787B7A",
"_  c #777778",
"`  c #726F70",
"'  c #834E3A",
"]  c #8C543B",
"[  c #945A3C",
"{  c #844E42",
"}  c #825446",
"|  c #895645",
" . c #875945",
".. c #8C5A45",
"X. c #835549",
"o. c #89574A",
"O. c #85594B",
"+. c #8C5A4A",
"@. c #925D43",
"#. c #925D4A",
"$. c #985F4B",
"%. c #855B51",
"&. c #946246",
"*. c #9C6444",
"=. c #95614B",
"-. c #9B644A",
";. c #9D694A",
":. c #9F6945",
">. c #8A665B",
",. c #9C6552",
"<. c #9E6953",
"1. c #956655",
"2. c #A36B45",
"3. c #AA6E44",
"4. c #A46C4A",
"5. c #A96D4A",
"6. c #A4664C",
"7. c #AD7246",
"8. c #AD734A",
"9. c #A5704E",
"0. c #B2754B",
"q. c #B5794B",
"w. c #B77A4D",
"e. c #A56B54",
"r. c #A86E59",
"t. c #A76B53",
"y. c #A87458",
"u. c #B37453",
"i. c #B57A52",
"p. c #BB7C53",
"a. c #B6765C",
"s. c #BC7B5D",
"d. c #B7775B",
"f. c #957361",
"g. c #AA7962",
"h. c #BA7D61",
"j. c #B47B62",
"k. c #C17D5B",
"l. c #76817C",
"z. c #78827E",
"x. c #BE8056",
"c. c #B7825A",
"v. c #BB855C",
"b. c #BD885E",
"n. c #B58157",
"m. c #BD8264",
"M. c #BE8A61",
"N. c #B78464",
"B. c #BE957A",
"V. c #B3866A",
"C. c #C18357",
"Z. c #C3835B",
"A. c #C9855C",
"S. c #C88A5B",
"D. c #C38462",
"F. c #C98463",
"G. c #C28E64",
"H. c #CC8B64",
"J. c #C38A6B",
"K. c #CE8C6B",
"L. c #D28D68",
"P. c #C39067",
"I. c #C6946B",
"U. c #C9966D",
"Y. c #C7996F",
"T. c #C9986F",
"R. c #CB9166",
"E. c #D79569",
"W. c #C78E72",
"Q. c #CB9373",
"!. c #CB9C73",
"~. c #C69777",
"^. c #D49271",
"/. c #D99673",
"(. c #D49B75",
"). c #DA9D7A",
"_. c #D79C77",
"`. c #D28F71",
"'. c #CDA077",
"]. c #CFA279",
"[. c #D1A57C",
"{. c #DBA37D",
"}. c #D3A87F",
"|. c #D9A97E",
" X c #D4A176",
".X c #E4A67C",
"XX c #7A8581",
"oX c #7B8C84",
"OX c #7E928A",
"+X c #7C9087",
"@X c #829D93",
"#X c #80958C",
"$X c #C39D80",
"%X c #C8A283",
"&X c #D2A681",
"*X c #D6AD84",
"=X c #D9AE85",
"-X c #D9AA85",
";X c #D6B087",
":X c #D9B087",
">X c #DBB38A",
",X c #DEB88F",
"<X c #DFBA91",
"1X c #E3A682",
"2X c #E4AC85",
"3X c #E1AE89",
"4X c #E9AC86",
"5X c #E2B186",
"6X c #E3B58C",
"7X c #E3B98F",
"8X c #EAB78E",
"9X c #E6BD94",
"0X c #E5BC93",
"qX c #EBBD94",
"wX c #EAC097",
"eX c #EBC39A",
"rX c #E9C49A",
"tX c #F2C69A",
"yX c #F3CC9E",
"uX c #F1CBA1",
/* pixels */
"oXoXoXoX^ J ; .   o $ 1 t v v k v V +.=.=.=.+.+.o.o.+.+.+.+.+.+.+.+.#.6.u.F.).5XwXwX>X*X&X*X>X>X,X>X[.T.G.b.b.P.!.[.*X:X*X*X*X:X>X*X*X&X&X&X&X*X",
"oXoXoXXX^ L 5 $ . . $ > 7 v v k v m } +.#.+.+.+.+.+.+.+.+.+.+.+.X.X.+.,.a.K.{.8X9X0X>X*X&X*X*X:X:X*X[.!.I.G.G.I.!.[.*X:X*X*X*X*X*X*X*X*X*X*X*X*X",
"oXoXoXz.^ I B 1 & @ @ = 7 v v v v v V C } X.+.+.#.#.#.+.+.+.#.+. .D X.1.h.(.2X8X0X,X>X*X}.[.[.[.[.[.[.[.'.!.!.!.'.[.*X:X:X*X*X[.[.*X=X>X>X>X>X:X",
"oXoXXX( ` W Y K 9 & @ & 5 v M n v h v v V G +.=.-.:.&.+.o.+.#.#.} b V 1.V.-X8X7X>X;X>X*X[.'.!.T.T.!.[.=X>X=X*X[.[.&X*X:X>X*X[.!.!.[.=X0X0X0X6X>X",
"+XoXz./ ^ ( ( ^ L 1 $ $ 1 v M n v h h v m C +.-.8.8.4.=.+.+.#.+.V t v >.B.9XtX7X*X&X*X*X[.!.I.G.G.I.[.>X9X9X>X*X&X*X*X:X>X*X].T.I.!.=X9XeXwX9X0X",
"+XoXoX( ( XXOXoXQ v ; = 5 v n n b m Z G } | @.2.0.p.i.4.=.+.+.} p 4 h >.%XtXyX0X&X].&X*X&X'.T.P.P.T.[.>X9X9X7X:X*X*X*X:X>X*X'.P.G.T.-X9XeXeXeX9X",
"+XoXoXz.XXoXOXoXQ N 7 1 7 k v b C +.<.r.t.*.*.5.p.F.Z.i.2.&.X.V 9 3 h >.%XeXyX0X*X].&X*X*X}.[.'.'.].}.:X>X>X>X=X*X*X*X:X>X*X'.P.G.T.[.>XwXeXwXwX",
"oXoXoXoXoXoXl.^ R S v 9 9 v b A +.r.D.K.F.i.8.i.D.K.H.C.8.&.D v 6 3 v >.~.9XtX0X*X&X&X*X*X*X*X*X*X*X*X*X*X*X*X*X*X*X*X*X:X*X[.!.I.T.].*X>X0X9X9X",
"l.z.oXoXoX/ R K B v v v n m C +.e.m./..X{.U.G.G.U.^.E.S.q.&.V g 3 4 b 1.W.3XqX7X:X*X*X*X*X*X:X>X>X>X>X*X*X*X*X*X*X*X*X*X>X:X*X[.!.!.!.].*X>X6X0X",
"^ / z.XXz.! B 1 < 7 k M m D +.e.h.^.{.5X6X>X=X{._./.L.A.0.&.m g 3 9 A 1.m._.2X5X>X;X*X*X*X*X*X:X>X>X>X;X*X*X:X:X*X*X*X*X:X>X>X*X*X].T.T.!.}.=X>X",
"` ^ ( ( ^ L 1 $ $ 1 v N G +.6.s.K.).5X9XrXrX9X3X_.K.A.p.8.&.A v v V +.t.s.K.(.{.*X*X*X*X*X*X*X*X*X*X*X*X*X*X*X*X*X*X*X*X*X*X*X>X*X[.T.I.!.[.*X>X",
"^ _ _ ^ R B < $ & e V G +.-.u.F./.2XqXtXuXyXqX-XW.h.u.8.4.&. .D O.1.r.a.s.Z.H.T.].&X*X;X>X>X*X*X[.].].[.[.[.].[.[.*X*X*X[.[.[.[.[.].!.!.].*X;X>X",
"_ _ ^ E P z 6 1 e s X.=.;.5.i.A./.2XqXuXyXqX1XK.a.<.=.-.-.-.&.-.9.j.D.D.p.i.p.G.T.].*X>X>X>X>X&X!.T.T.T.!.T.T.T.'.&X*X*X'.!.T.T.!.!.].[.*X>X>X>X",
"( ^ E P l g 9 v m G +.-.4.8.i.k.K.{.6X9X8X{.K.a.,.+.X.X.+.=.:.8.x.H.K.F.i.8.8.v.I.'.}.*X>X>X*X[.!.I.P.P.I.P.P.I.!.}.*X}.!.I.G.G.I.!.[.*X:X*X*X*X",
"^ R P l 6 6 9 M N G X.#.;.8.0.u.h.J.~._.!.J.a.6.$.| C C G  .&.8.C.H.H.s.5.;.9.M.!.}.[.].].].].!.!.!.T.T.T.T.T.!.].*X*X&X].!.I.I.T.!.[.[.[.!.!.T.",
"T P l 4 - ; 7 n M m V } #.-.6.e.e.r.g.g.y.e.-.$.$.+.D V m V  .-.u.C.x.8.&.#.y.~.=X>X[.T.P.P.T.!.'.[.[.[.].].[.[.*X*X*X*X[.[.].].[.[.].!.P.b.c.i.",
"x l 8 - $ & 5 v v v v m D +.#.+.+.+.+.+.+.+.+.#.#.+.D b v v V +.6.8.8.*.| +.g.%X9XqX|.I.M.G.I.!.[.*X:X*X*X*X*X*X*X*X*X*X*X*X*X*X*X*X].I.v.i.8.3.",
"l z 4 % @ & 5 v M k k n V C D C A V s s C } +.+.+.X.V v h v V X.=.;.:.[ ] #.g.&XeXeX>X(.T.!.(.[.*X>X>X>X>X:X*X*X&X*X*X*X*X:X>X>X>X*X[.T.b.i.8.3.",
"l z 4 % @ & 7 n M M v v b b b b b p t p V } +.+.} V v h h v C o.#.=.&.@.[ :.N.*XwXeX0X>X=X=X>X>X=X*X>X>X>X*X[.!.'.[.*X:X:X:X:X:X:X*X*X[.T.M.c.i.",
"x l 8 - $ & 5 v n n v v v v v v v k h v V X.+.X.V v h h v V X.+.+.+.+.@.*.8.G.|.9XeXeX9X0X9X9X7X>X*X*X*X*X[.!.I.!.[.*X>X:X*X*X*X*X:X>X*X[.!.I.P.",
"U K k < $ % > 7 t r 7 9 j v v v v k h v m G X.C b h h v V } +.+.+.O.O.#.2.i.R.=X9XrXeX9X9X9X9X0X>X*X&X[.].!.P.G.T.].*X>X:X*X*X*X*X*X>X>X*X[.[.].",
"~ R J 7 $ @ % ; ; = ; 1 9 v M M v v h v v m V b v h v V X.+.#.+.X.X.O.$.t.Z./.5X9XeX0X>X>X>X>X>X>X*X[.'.!.P.G.G.T.[.*X>X:X*X*X*X*X*X*X=X*X*X*X*X",
"XX^ I 9 $ . @ $ $ @ $ ; 7 v n n v v v v v v v v h v m } +.#.#.+.X.X.+.,.a.K.{.8X9X0X>X*X&X*X*X:X:X*X[.!.I.P.P.I.!.[.*X:X*X*X*X*X*X*X*X*X*X*X*X*X",
"#Xz.R j @ o . @ @ + @ & 1 7 t r 7 t v n n v h h k n m D X.+.+.+.| ..=.y.J._.3X8X7X>X:X&X[.}.&X*X*X*X[.!.!.T.!.!.[.*X*X*X*X*X*X*X*X*X*X*X*X&X}.[.",
"@XoXQ j @   . $ $ @ @ $ = ; ; = ; 5 j n M v v v v n m m V C X.+...@.2.c.(.3X0X6X>X*X*X*X&X&X*X*X*X*X*X[.[.[.[.*X*X*X*X*X*X*X*X*X*X*X*X*X}.].!.!.",
"@XoXQ v $ o . $ % $ $ $ $ $ @ @ $ ; 7 v n n v v v v v k v m G +.@.*.8.G.|.9XeX6X*X&X*X*X*X*X*X*X*X*X*X*X*X*X*X*X*X*X*X*X*X*X*X*X*X;X>X*X[.!.I.P.",
"OXz.E B - + X @ $ $ $ $ $ @ X X X $ ; 5 t v v t t 7 7 9 k N G #.*.3.i.R.5XeXeX,X*X[.*X*X*X*X*X*X*X*X*X>X:X*X&X[.[.*X*X*X=X*X*X*X*X:X>X*X].T.G.M.",
"XX/ E K 6 * + @ @ @ $ $ $ @ + X X + @ = 1 t v t 1 ; < 9 v F O.#.6.u.Z./.6XeXrX,X*X}.*X*X*X*X*X*X*X*X:X>X=X}.!.!.!.[.*X>X>X:X*X*X*X*X>X*X].T.G.G.",
"( ^ E P l 6 - $ @ @ $ $ $ $ $ $ $ @ @ $ > t v 7 ; $ % 5 v N G +.6.s.K.{.8X9X0X>X*X&X*X*X*X*X*X*X*X*X*X>X*X[.!.I.T.[.*X>X=X*X*X*X*X*X>X*X[.!.I.P.",
"( _ ^ E P l 6 ; % $ $ $ $ $ = > > ; & & 1 v n 9 = + + = 5 9 p C 1.m._.2X8X6X>X>X*X*X*X*X*X*X*X*X*X*X*X*X*X[.!.T.!.[.*X*X&X[.[.*X*X=X:X*X[.].!.!.",
"z.l.( ^ E P l 8 < = $ @ @ $ ; 5 t 9 5 5 9 n n t = + . @ % * < n >.B.5XqX7X>X*X*X*X*X*X*X*X*X*X*X*X*X*X*X*X*X[.[.[.*X*X[.'.!.!.[.*X:X:X*X*X}.[.[.",
"oXoXoX) ^ R P l 8 - $ @ @ $ ; 7 v n n v v n v 7 ; $ @ @ $ # * v f.$X9XtX7X*X].&X*X*X*X*X*X*X*X*X*X*X*X*X*X*X*X*X*X:X*X[.!.I.!.[.*X>X*X*X*X*X*X*X",
"OX+XoXXX( E T x g : $ @ @ $ = 1 t n M M n v 7 1 : ; = ; ; > e A f.%XeXtX7X*X].&X*X*X*X*X*X*X*X*X*X*X*X*X*X*X*X*X>X>X*X].T.G.T.].*X>X:X*X*X*X:X>X",
"+X+XoXXX( ~ T x 8 : $ @ @ $ & = > 9 n M v 7 ; ; < 5 t y s d ' =.N.*XwXeX7X*X[.&X*X*X*X*X*X*X*X*X*X*X*X*X*X*X*X*X>X>X:X[.T.G.I.].*X>X:X*X*X*X*X;X",
"oXoXoX) ^ R P l 6 - $ @ @ $ @ @ $ > t v 7 ; $ % 1 v Z G +.@.*.8.G.-X9XeX,X*X&X&X*X*X*X*X*X*X*X*X*X*X*X*X*X*X*X*X=X>X*X[.!.I.!.[.*X>X=X*X*X*X*X*X",
"XXz.( ^ R K l 8 < = $ $ @ @ + . X & 1 5 ; # X % r Z >.1.<.2.3.q.S.|.0X9X>X*X&X*X*X*X*X*X*X*X*X*X*X*X*X*X*X*X:X>X=X*X[.'.!.!.].[.*X=X*X*X*X*X*X*X",
"( / ^ R K k 4 ; % $ $ $ @ @ + X @ @ & = $ X X , y O.1.y.9.3.3.7.b.[.>X0X>X*X}.*X*X*X*X*X*X*X*X*X*X*X*X&X*X:X>X6X=X[.!.!.!.[.*X*X*X*X*X*X*X*X*X*X",
"( ^ E P l 6 - $ @ @ $ $ $ $ $ $ $ $ % $ + + $ q s +.;.9.8.3.3.8.v.!.*X>X>X*X*X*X*X*X*X*X*X*X*X*X*X*X*X&X*X>X9X9X>X!.I.T.].*X>X=X*X*X*X*X*X*X*X*X",
"_ ^ E P l 4 = @ O O @ & = ; ; ; ; - - % & , > u d | @.2.3.7.0.i.b.P.!.[.*X>X>X:X*X*X*X*X*X*X*X*X*X*X*X*X>X9XeXeX5X!.P.I.].:X>X>X*X*X*X*X*X*X*X*X",
"_ _ E T l 6 - @ O X @ = 1 r t 9 7 4 < 5 r y s d C { ] [ 3.0.Z.F.D.v.v.P.[.>X>X>X*X&X*X*X*X*X*X*X&X&X*X>X0XeXyXeX>X!.P.T.].*X>X>X*X*X*X*X*X*X*X*X",
"( ^ E P l 6 - $ @ @ $ ; 7 v n n v h h v V } +.+.+.+.#.:.8.v.H.K.D.u.8.n.Y.*X>X>X*X*X*X*X*X*X*X*X*X*X>X6X9XeXeX9X=X!.I.T.].*X>X:X*X*X*X*X*X*X*X*X",
"~ E T c 8 - % $ @ $ - < 9 k M N N m m m G =.r.y.g.g.V.N.M.R.R.H.p.5.:.4.v.!.*X:X>X>X>X*X*X*X*X>X>X>X0X0X0X0X6X=X[.!.T.!.[.*X:X*X*X*X*X*X*X*X=X:X",
"T P l 9 - + + @ % : 5 8 g h n Z G G H D +.t.s.J.~.%X*X;X*X'.R.p.5.&.#.&.9.v.T.*X>X,X>X:X*X*X:X>X0X9X9X9X>X=X[.!.T.P.T.!.[.*X*X*X*X*X*X*X*X=X>X>X",
"x l 9 < $ X X $ ; 7 v v v v m } +.+.+.+.,.a.K.{.5X9XeXuX9X|.S.8.*...+.#.:.8.b.!.*X>X>X*X&X&X*X>X0X9X0X>X*X].!.I.P.G.I.!.[.*X:X*X*X*X*X*X*X*X*X*X",
"8 6 4 ; & % & ; 5 b H G G } ..#.-.-.-.e.a.K.{.2X8XqXtXtXqX{.v.2.@...+.$.*.3.w.G.!.].[.[.].].[.}.=X>X=X}.].!.!.T.P.G.P.!.[.=X>X:X*X*X*X*X*X[.[.].",
"- - ; 1 5 5 5 7 y V O.=.;.2.2.4.4.5.u.h.Q.-X6X8X2X1X1X4X1XQ.a.-.| | #.-.5.7.q.i.c.M.T.!.!.!.!.!.!.!.!.T.T.!.].].!.P.P.!.[.>X>X:X*X*X>X:X}.!.!.T.",
"+ $ ; 7 v v v v m D +.-.5.8.8.8.8.u.k.K.{.8X9X5X_.K.H.L.K.h.e.+.} } +.-.4.8.7.7.8.i.M.I.T.T.I.P.I.I.P.P.I.!.&X*X[.!.I.T.].*X>X*X*X*X:X*X[.!.I.P.",
". @ , t M S M n b V } ..=.*.:.2.8.i.F.^.1X8X8X=XR.k.p.d.a.e.+.G V V D +.=.;.4.3.8.i.b.G.T.!.!.T.T.T.I.I.!.[.*X>X*X[.!.!.!.[.}.*X*X*X*X[.'.!.!.T.",
". @ ; 9 M S M n v b b b m V } *.8.p.F.^.).1X.X(.S.i.5.6.-.+.G m v b m V } +.;.u.n.b.G.G.T.!.[.[.[.].].].[.}.*X:X*X*X[.!.!.!.!.}.*X*X].!.!.!.].[.",
"+ $ = 5 v n n v v v v h h v A &.8.x.H.K.^.^.K.F.p.8.2.-.+.G m v h h v b C +.e.N.I.T.U.I.!.[.*X:X=X*X*X*X*X*X*X*X;X>X*X[.T.I.!.[.*X[.!.I.!.[.*X>X",
"$ $ & ; 5 9 t v v m m b m V  .;.w.C.S.H.D.a.r.t.2.2.:.=.+.C b h 8 9 v V } ,.j.Q.}.}.'.!.!.&X>X>X>X>X>X>X>X*X*X*X*X>X:X[.!.T.!.*X*X[.T.G.T.[.>X<X",
"$ $ $ $ & : 7 v m G X...#.-.4.8.p.C.S.C.y.=.} D | =.-.-.+.D b h 9 v A o.,.a.K.-X>X>X*X[.[.*X:X>X>X=X*X:X=X*X*X*X*X*X*X*X[.].[.*X*X].P.G.T.[.>X<X",
"$ $ @ @ $ ; 7 v N G +.-.4.8.8.8.8.0.q.8.&.V v v C +.=.=.+.D m v v V +.t.s.K.{.8X9X0X>X*X&X*X*X*X*X*X*X*X*X*X*X*X*X*X*X*X*X*X:X>X*X[.T.I.!.[.*X>X",
"$ $ $ & ; 1 9 v m V X.+.-.:.*.[ ] ] ] ] f p h v Z o.+.X.G V m m C +.r.s.K._.2XqXeXwX0X>X*X*X*X*X*X*X*X*X*X*X*X*X*X*X*X:X>X>X>X>X*X*X[.!.!.'.].[.",
"$ % = 1 7 t v v v b m V G D s u q q q q w 7 k N G o.} V v v m G #.r.h.K.(.-X6X9XeX9X0X>X*X*X*X*X*X*X*X*X*X*X*X*X*X*X;X>X>X>X>X>X>X:X*X*X[.!.T.T.",
"+ $ ; 7 v n n v v v v n n v 7 ; $ + @ $ = 5 v H X.+.} m v v V +.t.h.K.(.}.*X>X0X9X0X>X*X*X*X*X*X*X*X*X*X*X*X*X*X*X*X*X*X*X*X*X*X*X*X>X*X[.!.I.P.",
". + & 1 t v v n v b b m m b t e ; & % # * < t V o.#.+.O.D D  .-.u.F.^._.{.*X>X0X0X>X}.].[.*X>X>X:X*X*X*X*X*X*X*X*X&X[.[.].].].].[.[.[.[.].!.!.T.",
". X @ & > 7 k n N D } } G D C d d y r 1 2 - > u { =.;.;.;.*.:.4.i.F.^./.)._.-X>X>X*X!.T.!.=X7X0X>X*X&X*X*X*X>X:X*X].!.T.T.T.T.!.T.T.T.T.!.'.[.[.",
"$ $ @ @ $ = 7 v Z X.+.+.+.+.+.#.+.X.F v < # $ q s +.<.9.8.7.7.8.i.F.K.K.K.K.(.&X*X].Y.I.!.>X9X9X>X*X&X*X*X:X:X*X[.!.I.P.P.I.T.T.I.P.P.I.!.[.*X>X",
"9 7 ; $ X + - 7 b G X.+.+.+.+.+.+.%.H n < # X $ e V +.-.4.7.7.0.i.v.D.k.k.k.D.T.'.'.!.!.-X7XwX9X>X*X*X*X*X*X*X[.!.T.T.T.T.!.!.!.!.T.!.!.[.*X>X>X",
"R L v ; @ . + ; r b H H H H H G H F S v < # X # < v N H } &.2.0.w.p.i.0.8.0.i.b.T.'.*X>X0XwXwX0X>X*X*X:X>X*X[.!.T.T.T.!.[.[.[.[.[.}.=X>X>X:X=X*X",
"XX^ I 9 $ o . $ > 7 v n n v v v v n n v 5 & $ = 7 v k k v D &.8.q.q.8.3.3.8.i.v.I.[.>X9XeXeX9X6X:X*X*X*X*X[.!.I.G.G.I.!.[.*X*X*X*X>X0X9X0X>X*X&X",
"OXXXE B - X . @ % < 5 7 5 < 4 6 9 k n b y w w u C G N g 3 p  .4.0.0.7.8.i.c.M.I.(.=X6X9X9X0X7X>X:X*X*X}.[.!.!.P.M.v.v.M.!.[.*X*X>X>X9X9X0X>X*X}.",
"#XoX^ P 6 # + @ $ & = - % % - 4 g v N C { ' ] *.t.r.%.v 3 9 D -.5.7.7.i.M.Y.[.-X>X6X6X>X>X>X>X>X:X*X[.!.!.T.T.P.b.i.8.i.M.!.[.*X:X>X>X>X>X=X*X*X",
"#XoX/ T l 4 = $ @ @ $ $ @ $ = 5 v N G +.&.:.8.C.L.K.g.%.v t V +.-.2.8.v.!.*X0X9X9X7X>X*X&X*X*X:X:X*X[.!.I.I.T.I.M.i.8.0.v.I.'.*X*X=X*X*X*X*X*X*X",
"OXoXz.~ P k < $ @ O @ @ $ = 1 y V X.=.6.8.i.S.E..X2XQ.g.%.Z Z G } @.4.v.].,XrXrX9X>X:X&X}.}.*X*X*X*X[.!.!.T.T.P.G.b.b.G.U.!.[.*X*X&X&X}.&X*X*X*X",
"OX+XoXl.E J 5 $ . . X $ ; 5 y V X.=.4.0.p.A.E..X8XqX5X(.j.1.G m a f =.N.'.>XwX0X>X:X*X*X&X&X*X*X*X*X*X*X].!.P.P.I.!.}.=X>X>X=X*X*X}.}.}.&X*X*X*X",
"oXoXoXXX^ L 7 $ . . $ ; 7 v N G +.-.4.8.i.k.K.{.6X9X8X.XK.r.G v 9 a +.y.~.*X>X>X*X&X*X*X*X*X*X*X*X*X:X>X*X].T.I.!.=X9XeXeX9X6X>X*X*X*X*X*X*X*X*X",
"l.z.XXXX_ L 7 $ + $ > 7 v n N G X...+.&.-.r.h.W.&X>X5X.XH.r.G v 9 b o.r.J._.-X=X&X&X*X*X*X*X*X*X*X*X:X>X:X}.!.!.[.>XwXeXeX9X7X>X>X>X>X>X>X=X*X*X",
"_ ( z.XX_ L 1 $ @ ; 7 v v n b m V V A D } +.<.j.Q._._.E.p.-.V v h b +.r.m.^.{.|.*X*X*X*X*X*X*X*X*X*X*X:X*X*X[.[.*X>X,X7X>X>X>X6X0X0X0X0X>X:X*X*X",
"Q ^ ( ( ^ K 1 $ $ 1 v M n v v v v v v v b A +.r.m.K.L.C.8...V v v V +.t.s.K.(.{.*X*X*X*X*X*X*X*X*X*X*X*X*X*X*X*X*X*X*X*X*X*X>X7X9XwXeX9X6X>X*X&X",
"Q ` _ ( ^ K 1 $ & 7 n N n v t 9 h g g g 9 p D -.d.F.A.p.2.] V v v V +.t.s.H./.{.*X;X;X*X*X*X*X*X*X*X*X*X*X*X>X>X*X*X[.].].&X:X7XwXeXeXwX7X>X*X&X"
};
