/* XPM */
static const char *wall_25[] = {
/* columns rows colors chars-per-pixel */
"72 72 235 2 ",
"   c #3C1222",
".  c #4D0B16",
"X  c #4D0E19",
"o  c #490815",
"O  c #500D18",
"+  c #4E111C",
"@  c #47111D",
"#  c #51131D",
"$  c #4A010D",
"%  c #4C1521",
"&  c #4D1A25",
"*  c #401D2A",
"=  c #521720",
"-  c #531A22",
";  c #581C24",
":  c #4A232C",
">  c #552027",
",  c #55242B",
"<  c #59252B",
"1  c #55292E",
"2  c #5A292E",
"3  c #5B2226",
"4  c #4B2B34",
"5  c #4D2730",
"6  c #552C32",
"7  c #5A2E33",
"8  c #4D313B",
"9  c #543236",
"0  c #5C3236",
"q  c #553539",
"w  c #5D3539",
"e  c #563A3D",
"r  c #5D3A3D",
"t  c #642C2D",
"y  c #652726",
"u  c #6B342E",
"i  c #633335",
"p  c #6A3534",
"a  c #613739",
"s  c #623B3C",
"d  c #6B3E3C",
"f  c #6D3A33",
"g  c #743D36",
"h  c #662F31",
"j  c #65403E",
"k  c #6B423E",
"l  c #75453E",
"z  c #7B453D",
"x  c #7B4B3E",
"c  c #563A41",
"v  c #5C3E41",
"b  c #523741",
"n  c #613E41",
"m  c #5D4244",
"M  c #5B4A4A",
"N  c #574645",
"B  c #5C5452",
"V  c #5F4F50",
"C  c #634343",
"Z  c #6B4643",
"A  c #654847",
"S  c #6D4944",
"D  c #654B4A",
"F  c #6D4D4A",
"G  c #62464A",
"H  c #734C44",
"J  c #794E45",
"K  c #734D49",
"L  c #7A4F48",
"P  c #754741",
"I  c #6A524E",
"U  c #7C5246",
"Y  c #75514A",
"T  c #7C5249",
"R  c #78564B",
"E  c #654E51",
"W  c #645355",
"Q  c #635B5B",
"!  c #685759",
"~  c #65605F",
"^  c #656361",
"/  c #6C6465",
"(  c #6C6B6A",
")  c #6E6769",
"_  c #716D6D",
"`  c #706666",
"'  c #6E7270",
"]  c #737373",
"[  c #757A77",
"{  c #767B7A",
"}  c #787B7B",
"|  c #777778",
" . c #726F70",
".. c #6C5F62",
"X. c #8C533B",
"o. c #945B3C",
"O. c #854B3A",
"+. c #99603D",
"@. c #A3673D",
"#. c #835445",
"$. c #8B5643",
"%. c #865945",
"&. c #8C5A45",
"*. c #835549",
"=. c #89574A",
"-. c #855A4B",
";. c #8C5A4A",
":. c #925D44",
">. c #925E4B",
",. c #9A5D45",
"<. c #895F51",
"1. c #824F43",
"2. c #A05C4C",
"3. c #946245",
"4. c #9B6444",
"5. c #9E6947",
"6. c #95614B",
"7. c #9B654B",
"8. c #9D694A",
"9. c #8A665A",
"0. c #936352",
"q. c #9C6651",
"w. c #9E6856",
"e. c #996959",
"r. c #956851",
"t. c #A36B45",
"y. c #AB6E43",
"u. c #A46C4A",
"i. c #A96E4C",
"p. c #A3664A",
"a. c #AC7246",
"s. c #AD734A",
"d. c #A6714D",
"f. c #B2764B",
"g. c #B5794B",
"h. c #BA7B4B",
"j. c #B37445",
"k. c #A36A53",
"l. c #AB6E53",
"z. c #A66B56",
"x. c #A4735C",
"c. c #AC745B",
"v. c #AA795E",
"b. c #A97353",
"n. c #B37554",
"m. c #B57A53",
"M. c #BB7C53",
"N. c #B5765B",
"B. c #B37A5C",
"V. c #BC7B5D",
"C. c #BA7753",
"Z. c #AD7B62",
"A. c #A47762",
"S. c #BA7D62",
"D. c #B87E66",
"F. c #C37E5C",
"G. c #78827E",
"H. c #76817C",
"J. c #BE814F",
"K. c #BE8055",
"L. c #B5815A",
"P. c #BC855B",
"I. c #BB885D",
"U. c #BE8963",
"Y. c #BA8568",
"T. c #B68B71",
"R. c #B99276",
"E. c #C28356",
"W. c #C4835C",
"Q. c #C9895A",
"!. c #C5844F",
"~. c #C48462",
"^. c #CA8564",
"/. c #C38D64",
"(. c #CC8B65",
"). c #CD8C6B",
"_. c #C4896B",
"`. c #D28D69",
"'. c #C59065",
"]. c #C6946C",
"[. c #CB946D",
"{. c #C9986F",
"}. c #CA9365",
"|. c #D5916A",
" X c #D39768",
".X c #CC9572",
"XX c #C49975",
"oX c #CB9C73",
"OX c #C59978",
"+X c #D39372",
"@X c #DA9572",
"#X c #D59A76",
"$X c #D59D79",
"%X c #DA9D7B",
"&X c #D99B72",
"*X c #D08F71",
"=X c #CDA077",
"-X c #CEA27A",
";X c #D2A276",
":X c #D2A57C",
">X c #DBA47E",
",X c #D4A87E",
"<X c #D9A87C",
"1X c #E3A47D",
"2X c #E4AB7F",
"3X c #7A8581",
"4X c #7B8C84",
"5X c #7E928A",
"6X c #7C9087",
"7X c #829D93",
"8X c #80958C",
"9X c #C6A183",
"0X c #D3A781",
"qX c #DBA681",
"wX c #D6AD84",
"eX c #DAAD84",
"rX c #DEAE89",
"tX c #D6B086",
"yX c #D9B087",
"uX c #DBB38A",
"iX c #DAB68C",
"pX c #DDBB90",
"aX c #E4AA85",
"sX c #E3B48C",
"dX c #E3B98F",
"fX c #E4B488",
"gX c #E5BC93",
"hX c #EABD94",
"jX c #E6B791",
"kX c #F2B68B",
"lX c #EAC097",
"zX c #EBC49A",
"xX c #E8C398",
"cX c #F5C99B",
"vX c #F0CBA2",
/* pixels */
"4X4X4X4X] E < . $ o = 7 s C C m C H ;.6.6.6.;.;.=.=.;.;.;.;.;.;.;.;.>.p.n.^.$XsXlXgXiXwXwXwXyXiXiXyX:X{./.I.U.'.oX:XwXyXwXwXwXyXyXtXwXwXwXwXwXwX",
"4X4X4X3X] ! 0 = . . = 2 w C C m C S #.;.>.;.;.;.;.;.;.;.;.;.;.;.*.*.;.q.N.).>XdXgXgXiXwXwX0XwXyXyXwX:XoX]././.].oX:XwXyXwXwXwXwXwXwXwXwXwXwXwXwX",
"4X4X4XG.] ! G 7 ; # # > w C C C C C H J #.*.;.;.>.>.>.;.;.;.>.;.%.U *.0.D.#XaXdXjXpXyXwX,X:X:X:X:X:X:X:X;XoXoXoX=X:XwXyXyXwXwX:X:X0XeXuXuXuXyXyX",
"4X4X3X{  .) ..W r ; # ; 0 C D A C v C C H T ;.6.7.5.4.;.=.;.>.>.#.P H 9.T.eXjXdXuXyXtXwX:X=XoX{.{.oX:XeXuXeX0X:X:XwXwXyXyXwX:XoXoX:XeXdXjXjXsXiX",
"6X4XG.[ ] { } ] ! 7 = = 7 C D A C v m C S J ;.7.d.s.u.6.;.;.>.;.P s C 9.R.hXcXdXwXwXwXwX:XoX]././.].:XuXgXgXiXwXwXwXwXyXyXwX-X{.].oXeXgXzXzXgXgX",
"6X4X4X{ { 3X5X4X_ C < > 0 C A A Z S K T #.%.:.p.f.M.C.i.6.;.;.*.j 9 v 9.9XzXcXgXwX-XwXwXwX=X{.].'.{.:XuXgXgXdXyXwX0XwXyXyXwX=X]./.{.eXgXzXzXzXlX",
"6X4X4XG.3X4X5X4X_ F w 7 w m C Z J ;.w.z.k.4.4.i.M.^.W.m.p.3.*.H e 8 v 9.9XzXcXgX0X-XwXwXwX,X:X-X=X:X0XyXiXiXyXeXwXwXwXyXyXwX=X]./.{.:XiXlXzXlXlX",
"4X4X4X4X4X4XH.] / I C r r C Z J ;.z.~.).^.C.s.m.~.).(.E.s.3.U C q 8 C 9.OXhXcXdXwX0XwXwXwXwXwXwXwXwXwXwXwXwXwXwXwXwXwXwXyXwX:XoX].{.-XwXiXjXgXhX",
"H.G.4X4X4X[ / W G C C C A S J ;.z.Y.#X1X>X[.'./.[.+X|.Q.f.3.H c 8 9 Z e.XXaXhXdXyXwXwXwXwXwXyXyXyXyXwXwXwX0XwXwXwXwXwXwXyXyX0X:XoXoXoX-X0XuXsXjX",
"] [ G.3XG.` G 7 6 w m D S L ;.z.S.+XqXfXsXuXeX>X$X@X`.Q.f.3.S c 8 e J q.Y.$XaXsXyXwXwXwXwXwXwXyXyXtXwXwX0XwXwXyXtXwXwXwXyXyXyXyX0X-X{.{.oX,XyXiX",
"_ ] { } ] ! 7 = = 7 C F T ;.k.V.).%XfXgXzXzXgXaX$X).W.M.s.3.J C C H ;.k.V.).#X>XwXwXwXwXwXwXwXwXwXwXwXwXwXwXwXwXwXwXwXwXwXwXyXyXwX:X{.].oX:XwXyX",
"] | | ] ) G 6 = ; i H T ;.7.n.~.@XaXhXzXvXcXhXqX).S.n.s.u.4.%.U -.0.z.N.V.W.(.{.-XwXwXwXyXyXwXwXwXwXwXwXwX0X:X:X:X0XwX0X:X:X:X:X:X-XoXoX-X0XyXuX",
"| | ] ( Q N q 7 i l *.6.8.i.C.W.@XaXhXcXcXhXaX).B.w.6.7.7.7.4.7.b.S.~.F.M.M.M./.{.-XwXyXuXyXyXwXwXwXwXyXwX:XoX{.oX:XwX0X-XoX{.{.oXoX-X:XwXyXyXiX",
"{ ] ) Q M c r C S T ;.7.u.s.C.F.).>XsXgXdX>X).N.q.;.*.*.;.6.5.s.K.(.).^.m.s.s.P.].-X0XwXwXwXwXwXwXwXyXyXwX:X{.].oX:XwXwXoX]././.].oX:XwXyXwXwXwX",
"] ) Q M q q r D F T *.>.8.d.f.n.S._.OX$XoX_.N.p.>.%.J J T %.3.s.E.(.(.V.i.8.b.U.oX,X:X-X=X=X-X:XwXwXyXyXwX:XoXoX=X,XwXwX-XoX].].{.oX:X:X:XoXoX{.",
"^ Q M 9 , < w A D S H #.>.7.u.k.z.x.Z.Z.c.z.7.>.>.;.U H S H %.7.n.E.E.s.4.>.x.XXeXfX:X{./.'.{.oX:XwXyXyXwX0X,X:XwX0XwX0X:X:X-X-X:X:X-XoX'.I.L.m.",
"B M e , = ; 0 C C C C S U ;.>.;.;.;.;.;.;.;.;.>.>.;.U Z C C H ;.u.s.s.4.$.;.A.9XgXgX<X].U./.].oX:XwXyXwXwXwXwXwXwXwXwXwXwXwXwXwXwX0X-X].I.m.s.y.",
"M N 9 - # ; 0 C D m m A H J U J J P l l J #.;.;.;.*.H C v C H *.6.8.5.o.X.>.Z.0XzXzXsX#X{.oX#X:X0XwXwXwXwX0X,X:XwXwXwXyXyXyXyXyXyXwX:X{.I.m.s.y.",
"M N 9 - # ; w A D D C C Z Z Z Z Z j s j P #.;.;.*.H C v v C J =.>.6.3.:.o.5.Y.0XzXzXgXuXeXeXuXuXeXwXwXtXwX:XoXoX=XwXyXyXyXyXwXtXtXwX0X:X{.U.L.m.",
"B M e , = ; 0 C A A C C C C C C C m v C H *.;.*.H C v v C H *.;.;.;.;.:.4.s./.<XgXzXzXgXgXhXgXdXyXwXwXwXwX:XoX].oX:XwXyXtXwXwXwXwXyXyXwX:XoX].'.",
"^ W m 6 = - 2 w s a w r n C C C C m v C S T *.J Z v v C H *.;.;.;.*.*.>.p.M.}.eXgXzXlXgXgXgXgXdXyXwXwXwXwX:XoX{.{.oX-X:X0XwXwX0XwXwXyXuXtX0X:X:X",
"' / E 0 = # - < < > < 7 r C D D C C v C C S H Z C v C H *.;.>.;.*.*.*.>.l.W.&XfXgXgXdXyXyXuXiXuXyXwXwXwXwX0X:X-XoX{.{.oX-X0XwXwXwXwXyXuXuXyXyXyX",
"3X] ! r = . + = = # = < w C A A C C C C C C C C v C S *.;.>.>.;.*.*.;.q.N.).>XdXgXgXuXwXwX0XwXwXwXwXwXwXwXyXyXwX:X{.].oX:XwXyXeXwXwXwXwXwXwXwXwX",
"8XG./ n # $ . # # + # ; 7 w s a w s C A A C v v m A S U *.;.;.;.&.>.7.b.U.#XeXjXhXgXjXyXwX0XwX0XwXwXwXwXtXyXiXiXwX:X=X:XwXuXiXuXwX0X,X$XoXoXoXoX",
"7X4X_ n # $ . = = # # = > < < > < 0 n A D C C C C A S S H J *.;.>.5.i.m.].:XuXjXhXlXlXgXiXeX0XwX0XwXwXwXtXyXiXiXyXeXeXeXuXuXiXiXwX0X#X[.~.I.L.L.",
"7X4X_ C = o . = - = = = = = # # = < w C A A C C C C C m C S T ;.4.t.s.P.oXwXiXgXgXhXhXgXdXyXwX0X0XwXwXwXwXwXwXwXwXwXwXwXwXwXwXtXwX0X$X).W.n.s.a.",
"5XG.) G , + + # = = = = = # X X X = < 0 s C C s s w w e m F *.>.,.4.u.L.oXuXgXlXjXsXsXsXrXyXtXtXeXeXeXqX,X:X#XoXoXXXXXXXXXXXoX:X>XeX>X#X~.M.f.y.",
"3X[ ) W q > + # # # = = = # + X X + # > 7 s C s 7 < 6 w C Y -.>.:.$.6.v.OXjXzXlXiX0X$X$X:X0XtXtX,X;X;X$X#X[./.P.L.v.x.x.x.c.Y.).#XqXeX0XoX~.F.C.",
"{ ] ) Q M q , = # # = = = = = = = # # = 2 s C w < = - 7 C Y -.;.$.1.;.A.$XgXzXgXwXoX).).+X:XwXwXoX].].).).^.M.s.t.6.;.*.#.;.k.V.).%XeXwX:X+X).^.",
"{ | ] ( Q M q < - = = = = = > 2 2 < ; ; 7 C A r > + + - 0 j H U U #.>.Z.0XhXzXsX:X[.^.(.+X>X,XXXY.v.c.V.W.F.f.t.:.$.1.P k P #.k.V.).oX=XoX#X+X+X",
"G.H.{ ] ( Q M e 6 > = # # = < 0 s r 0 0 r A A s > # . + - 6 s Z J $.u.U.eXlXgXeX.X^.^.).@X%X#XY.e.-.;.i.M.M.i.,.:.&.#.P s r S =.k.n.L.I./.[.+X@X",
"4X4X4X} ] / Q M e , = # # = < w C A A C C A C w < = # # = , q C J :.s.}.yXgXjX>X).~.^.).@X@X).x.R C l 3.s.s.7.;.;.;.;.U Z C Z L ;.7.t.s.M.^.).*X",
"5X6X4X3X{ ( ^ B c 1 = # # = > 7 s A D D A C w 7 1 < > 3 y 7 s Z J o.a.Q.<XsXsX%X).~.~.^.(.|.W.w.S e j #.5.8.;.T *.;.>.;.*.U H H J %.+.y.h.E.~.^.",
"5X6X4X3X| ' ^ B e 1 = # # = ; > 2 r A D C w < < 6 0 s g l P J J #.o.y.P.;XyXrX%X*X~.V.M.E.E.M.7.S e s U >.;.U S H *.>.8.p.7.%.H Z J :.a.h.M.C.m.",
"4X4X4X} ] / Q M q , = # # = # # = 2 s C w < = - 7 C K *.;.;.;.;.>.4.s.I.=XwXeX$X).F.n.s.j.g.s.3.H C Z *.;.*.H C C H ;.u.f.s.3.H C S &.s.g.f.s.d.",
"3XG.{ ] / W M e 6 > = = # # + . X ; 7 0 < + X ; a Y -.0.0.6.7.7.i.n.I.{.,XwX,XoX^.n.i.t.t.t.5.&.U H J ;.>.%.S v v C U 7.s.s.6.H v Z ;.i.f.s.a.t.",
"{ [ ] / W N 9 < - = = = # # + X # # ; > % X X 3 l -.0.0.6.>.4.i.V.{.,XuXiXtX-X/.m.i.7.7.6.3.>.;.T T ;.7.5.&.H v c v Z %.7.7.;.S v C T 7.i.d.a.a.",
"{ ] ( Q M q , = # # = = = = = = = = - = + + = t z ;.0.<.;.&.4.s./.<XgXzXgXwX{.P.s.5.>.;.;.;.;.;.*.;.7.d.s.5.U C c c C H *.;.*.S C C H ;.7.i.s.f.",
"| ] ( Q M 9 > # O O # - > < < < < , , - ; > 2 p l #.*.;.;.&.o.a.'.fXzXvXgX:X'.K.a.4.%.T T *.;.>.>.7.s.M.M.b.;.S n C Z H T *.*.J H S S T >.u.f.h.",
"| | ( ~ M q , # O X # > 7 a s r w 9 6 0 a d l l Z S K *.;.:.+.a./.uXzXzXrX.XW.M.a.3.U S K T ;.6.7.u.C.W.^.B.0.T H H U *.*.*.*.*.*.H Z S %.8.f.h.",
"{ ] ( Q M q , = # # = < w C A A C v v C H *.;.*.S C A T ;.,.4.s./.eXgXjXqX).W.M.s.3.J C C K ;.7.t.s.K.(.).S.k.;.#.%.;.;.;.;.>.>.;.J C C U 4.s.h.",
"] ( ^ V e , - = # = , 6 e m D F F S A S -.q.z.0.T Z C H =.7.i.M.[.eXsXsX%X).F.C.p.%.Z v v Z #.>.t.f.W.|.+X_.c.7.&.&.>.6.6.6.7.6.;.J C v H &.p.f.",
"^ Q M e , + + # - 1 0 e c v A K T T H U 6.c.V.c.0.U H H *.7.n.^.&XeXyXeX%X*XF.l.6.U C v c v H %.4.f.W.|.+X_.m.t.:.&.>.6.8.u.p.8.;.H n v S #.6.u.",
"B M r 6 = X X = < w C C C C H *.;.;.%.;.z.~.).~.z.;.J U ;.k.V.).$XeXwX0X$X).V.k.;.J Z C v v C J 3.s.E.(.).(.K.s.4.&.;.6.u.s.s.7.;.J C C S T ;.>.",
"e q 9 < ; - ; < i Z Y R T #.$.>.7.7.7.z.Y.#X>X.XB.6.$.:.7.l.N._..X:XwX:X[.W.n.q.;.*.T H A v v H %.u.C.E.~.W.W.M.i.>.;.6.u.f.f.u.6.*.H H H T =.;.",
", , < 7 0 0 0 w d H *.6.8.p.t.u.u.i.l.S.#XsXsX$XZ.>.:.5.s.s.l.c.T.OXwX;X/.m.p.7.6.;.;.*.H C C Z #.7.i.s.m.E.(.^.N.q.;.>.p.f.g.s.p.6.*.U T *.;.;.",
"+ = < w C C C C Z U ;.7.i.s.a.a.s.f.V.).aXhXgX9XA.;.$.t.s.t.:.;.A.OXwX<X/.s.4.:.;.;.>.;.U S C Z L ;.7.t.s.K.(.).D.w.;.&.5.s.g.g.s.p.6.;.=.;.;.;.",
". # > s D I D A Z H #.;.6.7.5.t.s.M.W.+XaXkXjXOXe.U U 3.7.X.g g 0.R.uXfX{.m.o.O.z z #.*.T S C C S U %.4.a.E.|.+XD.w.;.%.4.s.g.h.g.d.7.>.;.;.;.;.",
". # < s D I D A C Z Z Z S H #.4.s.M.^.+X1XkX1XY.0.S Z Y U f 3 3 #.T.jXcX2XW.,.g t t d H Y S C v C S U 3.a.E.|.+XD.w.=.$.4.s.g.h.f.d.7.>.;.;.;.;.",
"+ = < 0 C A A C C C C v v C J 3.s.M.^.).@X@X).c.*.C v C C 6 @ = J T.gXcXkX).2.u = & 6 C F S C v v C J 3.s.W.(.).D.w.;.&.5.s.g.g.s.p.6.;.;.;.;.;.",
"= = ; < 0 r s C C Z S Z S H %.8.g.E.Q.(.^.S.z.;.H m v N c :   & P T.jXcXkX*X2.p %   5 v A A C v v C H &.i.M.Q.^.B.k.6.4.u.s.f.s.p.6.*.U *.*.;.>.",
"= = = = ; 1 w C S T *.%.>.7.u.s.h.E.Q.E.n.q.*.S C C C C v 4 * 5 T T.uXkXkX`.k.d 5 : 4 v A A C n v C S %.7.s.C.M.n.i.p.u.s.f.s.u.6.#.H S H #.;.>.",
"= = # # = < w C F T ;.7.u.s.s.s.s.f.g.s.6.U C v v C C Z C e q C 9.T.wXfX2X).z.*.C e r C A C C C m C S U ;.7.u.s.f.s.s.s.s.s.u.7.;.J C C S T ;.>.",
"= = = ; < 7 r C S H *.;.7.8.4.o.X.X.X.X.x k v c v C C Z S H L <.A.R.0XfX>X.XY.e.<.R H S Z C m v v C A K T ;.7.u.s.f.f.f.d.p.7.7.;.L A C S T ;.6.",
"= - > 7 w s C C C Z S H U U l f t y y y i s m N N v C Z T ;.w.Z.T.-XwXeX0X:X.XY.Z.w.;.T S C v v r v C A F T ;.8.d.f.f.d.8.6.>.>.;.T S C S *.>.6.",
"+ = < w C A A C C C C A A C w < = + + = < w C C C C Z J ;.k.V.).#X,XwXtXyXwX>X#X).V.k.;.J Z C C C C C C C S J ;.7.d.s.u.6.;.;.;.;.U Z C S T ;.6.",
". + ; 7 s C A A C Z Z S S Z s 7 3 ; - & , 7 s Z S H U %.7.n.^.@X1X>XwXyXiXiXsX2X@X^.n.7.%.J H H K H Z s 0 7 i l $.7.s.i.6.;.*.*.*.H a w s P #.*.",
". X # ; 2 w m A F T #.#.T U J x l d a 7 6 , 2 p P *.6.7.u.M.^.@X%X>X0XiXpXjXsXaX@X^.n.u.3.%.*.;.;.*.l i - % % 3 g $.8.k.7.;.*.T S s 7 < 7 s S K ",
"= = # # = > 0 C K *.;.;.;.;.;.>.;.*.Y C 6 & = y l ;.8.u.s.M.W.).#X:XwXpXgXgXsX%X).E.M.s.5.>.;.;.6.;.x t = o o = t z ;.6.6.;.T K C 6 - = > w C D ",
"r 0 < = X + , w Z T *.;.;.;.;.;.;.-.R A 6 % X - i T 6.d.f.h.M.~.].:XyXgXzXgXeX.X~.M.h.g.u.&.T T *.*.l i > % & , 2 p l 1.*.*.R I C 6 % + ; 0 C D ",
"/ ! C < # . + < a Z Y R R Y Y T Y Y I C 6 % @ % 6 Z -.u.f.j.g.C./.:XdXzXzXjX:XU.C.g.h.h.u.#.Z C Z S k a 0 0 w w 0 7 t p k K Y I C 0 = # ; w C I ",
"3X] ! r = o . = 2 w C A A C C C C A A C 0 > = & 6 C R 8.s.j.y.s.U.,XgXzXgXwX{.L.s.a.j.s.7.U C v v C C C C A A C 0 > = > 0 C D D C 0 ; = > w C D ",
"5X3X( G , X . # - 6 0 w 0 6 9 q e m A Z d p u u k H *.7.u.y.@.a./.eXlXzXyXoXI.g.a.t.5.6.;.U H Z Z C A D D D A s 2 % X + , 0 r a 0 2 < , 1 7 0 a ",
"8X4X] Q q & + # = ; > , - - , 9 c C F J #.X.X.X.:.3.6.7.7.4.@.a.'.uXlXjX=XI.h.g.a.4.%.U U %.3.>.%.J K F D C r 2 = + X + - > > ; ; < 9 q 9 1 > ; ",
"8X4X[ ^ M 9 > = # # = = # = > 0 C F T ;.7.u.s.f.g.s.p.6.;.&.o.s.}.uXgXeX/.s.y.j.s.6.H C H 3.s.f.p.;.T F C 0 > = # # = = = = # # = 6 N M v 1 = O ",
"5X4XG.' Q N 6 = # O # # = > 7 d H *.>.u.n.K.Q.Q.!.h.p.;.T J X.u./.eXdX-XB.4.o.t.u.;.A v H 4.h.!.f.7.#.k 0 , + # - < 2 < ; # + = , v W Q M 9 - + ",
"5X6X4XH.) E 0 = . . X = < 0 d H *.6.p.f.E.(.|.|.Q.h.4.U S Z x 6.Y.,XyXOXx.$.X.:.6.*.C v H 4.h.!.J.u.$.p ; X o # < w s 0 > # % 1 c W ( ) Q N 9 : ",
"4X4X4X3X] ! 0 = . . = < w C F T ;.3.t.s.M.^.).(.E.s.3.J C s k ;.Z.-XwXOXA.;.#.$.;.T Z C J >.s.J.J.s.X.u = o o = 2 s C a < = - 9 M ^ ' ] ) Q M N ",
"H.G.3X3X| ! 0 = + = 2 w C A F T *.$.&.4.k.c.S.V.n.8.%.S C r k ;.Z.XX0X-XY.k.>.>.=.J Z C H %.8.g.h.s.:.g > % + = < w r 0 > = - 1 v ! _ | ] ( Q Q ",
"| { } 3X| ! 0 = # < w C C A S S H H H U *.0.w.z.k.6.U S C s P ;.v.XXwXeX.XS.l.6.;.H C C S U 6.i.g.s.4.J w : & = ; < < < ; = # = 1 m / | { ] ( / ",
"_ ] { } ] W 7 = = 7 C D A C C C C C v C S U ;.>.6.;.T S C s l ;.v.XXwXaX>X).V.k.;.H C C Z H ;.p.s.s.5.T C 9 , = # # = = ; = + . = 0 ! ] } { ] _ ",
"_  .| { ] W 7 = ; w A F A C s r v c b c n H U $.;.*.L S C j P ;.v.XXwXfXaX@X~.l.;.J C C Z H *.7.i.d.8.-.D e , = # X + # = = X o O 7 W ] } } | | "
};
