/* XPM */
static const char *wall_16[] = {
/* columns rows colors chars-per-pixel */
"72 72 222 2 ",
"   c #4E0F19",
".  c #4E0A15",
"X  c #4E121D",
"o  c #44111E",
"O  c #51141E",
"+  c #53181F",
"@  c #500D18",
"#  c #4D1A24",
"$  c #4A1521",
"%  c #521720",
"&  c #531A23",
"*  c #561E25",
"=  c #4E232D",
"-  c #4E282F",
";  c #542027",
":  c #5A2026",
">  c #55232A",
",  c #59252B",
"<  c #55292F",
"1  c #5A292E",
"2  c #552C32",
"3  c #5A2D32",
"4  c #522E38",
"5  c #563135",
"6  c #5C3236",
"7  c #56353A",
"8  c #5D3639",
"9  c #5C3B3D",
"0  c #57393D",
"q  c #622A2C",
"w  c #612628",
"e  c #623334",
"r  c #6D3936",
"t  c #623C3C",
"y  c #6A3D3B",
"u  c #653635",
"i  c #723A35",
"p  c #763C37",
"a  c #72392F",
"s  c #6C433E",
"d  c #66403F",
"f  c #73423D",
"g  c #7A463D",
"h  c #5D3E41",
"j  c #613F41",
"k  c #5D4344",
"l  c #5C464A",
"z  c #5D4A4C",
"x  c #5F4E52",
"c  c #5E5253",
"v  c #5F555C",
"b  c #5E5A5E",
"n  c #5A514F",
"m  c #634343",
"M  c #6A4643",
"N  c #664847",
"B  c #6D4945",
"V  c #624549",
"C  c #644B4C",
"Z  c #6E4E49",
"A  c #744C45",
"S  c #794E45",
"D  c #744E48",
"F  c #764944",
"G  c #63504F",
"H  c #755146",
"J  c #7C5246",
"K  c #755149",
"L  c #7C5349",
"P  c #624F51",
"I  c #635354",
"U  c #655B5B",
"Y  c #6A5B5D",
"T  c #665658",
"R  c #66615F",
"E  c #69615F",
"W  c #5F5C63",
"Q  c #665E62",
"!  c #5F6264",
"~  c #5F7273",
"^  c #656262",
"/  c #6A6464",
"(  c #6B6967",
")  c #6D6B6A",
"_  c #63686C",
"`  c #706C6C",
"'  c #706866",
"]  c #6E716E",
"[  c #71716E",
"{  c #6D7472",
"}  c #667B7A",
"|  c #727472",
" . c #737A75",
".. c #767D7A",
"X. c #787F79",
"o. c #6B6F70",
"O. c #834A3D",
"+. c #915A3E",
"@. c #834C41",
"#. c #835545",
"$. c #8A5544",
"%. c #865946",
"&. c #8C5B46",
"*. c #835549",
"=. c #88574A",
"-. c #86594A",
";. c #8C5B4A",
":. c #915D44",
">. c #925E4A",
",. c #995E4B",
"<. c #956246",
"1. c #9A6445",
"2. c #95614A",
"3. c #9B654A",
"4. c #9E694A",
"5. c #9F6947",
"6. c #8D6051",
"7. c #9A6652",
"8. c #9D6953",
"9. c #966653",
"0. c #8E614E",
"q. c #A46A46",
"w. c #A36C4B",
"e. c #A96E4C",
"r. c #A26747",
"t. c #AC724B",
"y. c #A8714B",
"u. c #B2764C",
"i. c #B4784C",
"p. c #BB7C4B",
"a. c #A46D53",
"s. c #AA6E56",
"d. c #A86B57",
"f. c #AB7252",
"g. c #A4725B",
"h. c #AC735A",
"j. c #AB7858",
"k. c #B27555",
"l. c #B57A53",
"z. c #BA7C54",
"x. c #B2765B",
"c. c #B47B5B",
"v. c #BB7D5A",
"b. c #B37C63",
"n. c #BC7E62",
"m. c #AA7B61",
"M. c #76827C",
"N. c #79847E",
"B. c #7B887F",
"V. c #6E807F",
"C. c #BC835B",
"Z. c #B7825A",
"A. c #BD8363",
"S. c #BD8A62",
"D. c #B78769",
"F. c #BE8F71",
"G. c #C3835C",
"H. c #C48563",
"J. c #C38B64",
"K. c #CA8B65",
"L. c #CC8C6B",
"P. c #C58969",
"I. c #D18E6C",
"U. c #D08C66",
"Y. c #CB936D",
"T. c #C6946A",
"R. c #D4956E",
"E. c #CE9471",
"W. c #CC9B74",
"Q. c #C79876",
"!. c #D19472",
"~. c #D29B76",
"^. c #D49D79",
"/. c #D99B76",
"(. c #CEA37A",
"). c #CFA277",
"_. c #D4A47D",
"`. c #D9A37D",
"'. c #D4A67C",
"]. c #E4A97E",
"[. c #707F80",
"{. c #698887",
"}. c #758582",
"|. c #7A8680",
" X c #7B8B84",
".X c #758D8C",
"XX c #7B8E89",
"oX c #758A87",
"OX c #7D938B",
"+X c #7B9189",
"@X c #769493",
"#X c #7A9592",
"$X c #769B9B",
"%X c #799D9B",
"&X c #789995",
"*X c #6E9694",
"=X c #7CA29D",
"-X c #77A09F",
";X c #7AA4A2",
":X c #7CABA6",
">X c #7BAAA6",
",X c #7CAEAA",
"<X c #75A2A1",
"1X c #7DB1AC",
"2X c #7FB6B1",
"3X c #80938C",
"4X c #81B9B4",
"5X c #D5A781",
"6X c #DCA682",
"7X c #D6AC83",
"8X c #DAAC84",
"9X c #D6B186",
"0X c #DCB38A",
"qX c #D8B187",
"wX c #CEA280",
"eX c #E0AC85",
"rX c #E3B38B",
"tX c #E9B78D",
"yX c #E7BE95",
"uX c #E8BD90",
"iX c #83C0BA",
"pX c #F3C69B",
/* pixels */
"$X$X$X<X<X%X$X$X<X>X,X1X1X1X4X4X4X>X*X{.} } {.*X1X4XiX4X2X1X1X1X1X1X,X>X-X$X%X<X<X$X*X{.} ! W W W W ^ ^ ^ Q Q Q _ } {.*X<X>X,X2X2X2X1X1X>X$X$X&X",
"$X$X$X$X$X$X&X$X%X;X:X:X:X:X,X1X:X$X{.} ~ ~ } {.$X:X1X,X:X>X>X:X:X:X:X;X%X$X%X%X$X@X{.} _ W v v v v W W v v v v W ~ } {.@X$X<X>X:X,X,X:X;X%X$X&X",
"@X@X@X.X.X.X.X@X&X%X=X=X=X=X=X%X@XoX} _ ! W ! o.V..X@X&X&X&X%X=X=X;X=X=X&X@X@X.XoX}.o._ b c x x x x x l l l z x v b ! _ { [.oX@X&X%X=X=X=X%X&X&X",
"XXoXoX}.....}.oX+XOX@X#XOXXXoX}.} ] ^ T z k k z T / ] } } M.oXXXOX#X#X#XXXoX}...{ _ c l k h k l l k 0 5 2 5 9 k k k l l P U / { } }..XOX#X#XOXOX",
"|.N.X. .|  .X.N.|. X X|.N. .] / U I C V 9 2 > > 2 9 l G U / ]  .N.|. X|.X.| ) / I k 5 > > 2 8 t t 8 1 * % * 2 8 8 2 > > > 5 h z U ( |  .N.N.N.N.",
"B.N.X. .| | X.B. X X|.M.| ( Y I l k h 9 6 , & & & * > 5 k G Y ) |  . .| ' Y I V 0 < % O + , e t t 6 1 % O * 1 6 6 < & O O % > 5 k C T Y ' ' ' ' ",
" X|.N.X.X.M.N. X X X|. .) U I V k k 9 9 9 6 1 ; & O % > 5 k I R ) ] ) E I V h 0 2 ; X O & 1 t m m t 6 < > 1 6 t t 5 > % O O % > 5 0 V V C C C C ",
" X X|.|.N.|.|. X X|. .) ^ I z l V m m m m t 8 2 ; % O % > 0 l I R R U P h 5 3 < > * % % > 6 m N N m t 9 8 9 t m m m 8 3 * % % * > 2 3 5 8 8 9 9 ",
" X X X|.|.|.}.M. .` / Y I z l k k m M B B N 9 5 > % O O * 2 0 l z z z h 3 > * * * * * > 3 9 V V V N m M M M m N N B M y 3 > * * * * * > > 3 2 5 ",
" X XoX|.N.M. .] / I V V V l l k h m A S D B m 5 > % O O % > 2 7 0 0 7 2 > % % % % * > 2 8 9 m V V m B S S A M m B D A F y 3 > * % O O % > 1 5 6 ",
" X X|.N. .{ ( U z 9 6 8 9 V l k m B S *.L D m 5 > % O O % * > > < < > > * % O O % > 2 8 t m m m h m B J *.S M m M S *.J B 8 2 * % O X % > 2 8 t ",
"+X X|.X.] ^ I k 0 2 3 6 9 m N N B S #.-.*.K M 8 > % O O % % % % * * * * % % O O O > 5 t N B M m h h B L -.J M m M J ;.-.D t 2 > % O O * 3 8 t m ",
"+X XN. ./ x h 5 < < 2 8 9 m M A S *.-.=.-.L S y , O X O % & % O % % % % % % O O O > 5 m Z D S B j h M *.;.L M m B *.;.;.K m 5 > % % * < 6 9 j m ",
"OX XM.) I h 2 > > 2 8 9 9 m M S *.=.;.;.;.;.*.f 1 % X X % & & % % % % % % % O O % > 5 m D L *.S M m B *.;.*.B m B #.;.-.K m 2 * % * 1 8 j m m m ",
"3X|. .R l 2 > > 1 6 t m k m M S L ;.;.2.3.3.;.g e ; $ X O & * > * % O O % % % * > 2 0 m D *.=.#.S D J &.>.#.S M B S *.L K m 2 # X * e M B N m m ",
"+XN.` I 5 > > 2 6 t m m m m m B S -.2.3.e.e.3.#.y 3 # X O * , 2 1 * O X O % * , 2 6 9 m D *.;.;.;.%.&.1.3.>.*.S A S S K Z m 3 # X : r S K B m j ",
"oX ./ k > * < 8 t m m m m m m m B J 2.w.t.u.w.&.F 8 > # % > 2 8 6 > % O O % > 2 8 9 h m B L ;.>.2.3.4.w.w.3.;.*.S A B B B m 5 * % w p *.L B m h ",
"X.) T 8 * & 2 m N V m m M M m m m S &.w.u.i.t.3.J m 2 > * > 0 9 9 2 > % O % > 6 9 k h h M J ;.2.3.w.y.u.t.e.2.&.J F B N V h 5 , , a O.-.L B m 0 ",
") / C 3 % & 6 N N V m M A S B m j B %.4.u.i.t.4.;.A t 3 2 2 9 m m t 3 : & & , 6 m k k h M J ;.2.r.y.i.z.v.k.e.<.$.J A M V h 9 u r g $.-.L B m h ",
"R I k 2 % * 6 m V V m B J *.S M m M J 2.w.t.t.w.2.*.F t 8 9 9 m m m 8 1 & % > 6 m V V m B L ;.2.r.t.z.G.H.C.k.w.<.&.*.D N m d s g $.>.;.L B m h ",
"c z 0 > % & 1 t m k m D *.;.-.H B B S ;.2.w.y.w.3.;.#.F s s M M N V 9 2 # X * 6 M Z Z F S #.:.1.e.u.G.K.L.L.C.l.f.8.>.-.S B F F #.&.>.>.#.D m j ",
"n l 0 < % + : 3 8 h N D -.>.;.-.H D A J %.2.w.e.w.3.2.&.#.J S A B N h 2 # X * u A L *.%.%.&.<.w.u.v.K.Y.~.W.T.J.A.c.s.3.&.#.J J #.>.3.3.&.J A M ",
"c l 0 < % O & > 2 0 m D *.;.;.;.*.S B B S -.2.w.w.w.w.4.3.2.;.*.H Z m 3 * % , y #.0.2.3.1.5.w.f.l.H.Y.~._.'.(.W.Y.P.n.k.e.1.&.&.;.2.w.w.3.;.*.J ",
"U c k 2 % @ O * > 5 t M F @.@.@.S F M m B S -.2.5.e.t.t.t.a.8.>.-.L F u 1 w a @.>.a.f.t.t.f.l.Z.H.L.~._.7X7X7X'._.W.L.H.Z.j.a.3.3.r.e.t.e.3.>.;.",
"/ U z 3 O . O % > > 2 e r i p p i y t m N M S %.1.y.i.z.v.v.x.s.8.2.#.g a p O.,.s.x.v.v.v.C.J.T.T.W._.7X7X9X9X7X7X_.~.E.T.S.Z.h.s.k.k.v.c.k.s.d.",
"| ) I 0 % .   % * > > , 1 q q q q e t m V N B #.1.t.z.G.H.H.H.n.x.a.3.:.+.+.r.h.n.H.H.H.J.T.W.)._._.5X7X7X7X7X7X7X5X_._._.W.T.A.n.n.H.H.H.A.n.n.",
"M.| Y h ;   X O % % * * : * & & * 1 t m V N B #.3.l.G.K.Y.E.E.L.H.c.j.y.y.f.c.A.L.L.Y.Y.E._.'.7X8X8X8X8X7X7X7X7X5X_._.7X7X7X_.W.L.L.L.Y.Y.Y.L.L.",
"oXX.) C 2 # X O % % % * * % O O O > 6 m N B S ;.a.v.K.!.^._.^.~.T.T.S.S.C.S.T.T.~.~.~.~._.'.7XqX0X0X8X7X`.`.`._.^.^.^._.7X9X7X_.^.~.~.~.~.~.~.~.",
"+XN.| U 0 > * % % % % % % % O O % > 8 m B D *.2.k.H.I.^._.5X5X_._.W.W.W.W.W.)._._._._._._.7X7X9X9X7X_.~.!.!.!.!.!.!.!.~.5X7X7X7X_._._._._._._._.",
"+X|. ./ z 7 < ; % O O O % % % & ; 2 0 m B J &.w.v.K.!.^._.5X7X7X7X7X7X7X7X7X7X8X8X7X5X_._.7X7X7X(.Q.T.D.A.n.H.H.H.H.K.Y.W.'.'.'.)._._._.`._._._.",
"+X XM.] U l 0 2 > % O O O % * , 2 5 8 h B #.3.f.G.L.!.~.~._.7X7X9XqXqXqXqXqXqX0X0X8X_._.`.`._.W.T.D.m.g.s.s.k.l.v.v.C.J.T.T.T.T.T.W.~._.`._.^.^.",
"+X XN. .) U z 0 2 > % O O % > 3 8 9 h m A &.w.l.H.L.I.!.!.~._.7X9X7X7X7X7X7X7X9X7X_.~.!.!.!.!.P.b.g.9.9.8.a.f.l.z.z.l.l.Z.Z.Z.Z.Z.S.Y.!.!.!.!.E.",
" X X|.M.| ( U z h 5 > % O % > 5 9 m N F #.1.u.v.K.L.I.I.I.~._.7X7X'.).).).).).(.W.Q.P.P.P.P.P.b.8.6.6.9.g.b.A.S.C.z.u.y.w.4.4.4.4.j.n.P.P.P.P.J.",
" X X|.|.X.| ( U x k 7 > % O * 5 m B H %.<.e.l.G.K.L.L.L.L.!.^.^.W.Y.T.T.T.T.T.F.D.D.b.x.c.c.x.a.>.-.6.g.D.Q.W.W.Y.C.t.5.:.%.J J %.2.a.x.v.C.C.C.",
" X X X|.N.X.| ) U z 0 < * % * 5 m H %.3.t.v.H.K.L.L.K.K.L.I.!.!.Y.S.Z.Z.Z.Z.c.j.g.8.8.8.a.a.8.>.$.;.8.D.wX0X0X7XW.G.t.1.#.S B B S *.;.8.f.k.l.z.",
" X X X|.|.|.X.| / P 0 2 ; * > 8 M L 2.e.v.K.!.!.!.I.K.K.K.K.L.K.H.l.f.t.t.f.a.2.;.-.-.;.;.2.;.$.$.>.m.Q.0XyXrX_.T.C.y.1.#.J A B A S L ;.3.e.u.i.",
" X X X XoXoX|. ./ l 5 > > 3 6 t S ;.r.l.K.^.5X6X^.I.K.G.G.G.G.G.l.f.w.w.w.w.2.-.H D K H *.-.;.$.$.3.D.7XyXyX8XT.C.i.y.1.<.%.J J S A A J ;.w.t.i.",
"|. X X X XoX|.| Y 9 > ; < 8 d F *.2.h.H.~.6XrX8X^.L.G.l.l.l.z.l.f.4.2.2.2.2.;.J B m M B S *.;.:.:.w.S.8XyXrX~.C.i.t.t.y.r.3.2.;.*.A M B #.3.t.p.",
"|. X X X X|.M.) P 3 * * 3 M A J ;.s.A.~.eXrXrX6X~.K.v.s.w.w.t.t.w.>.#.#.#.#.J D m 9 9 t F =.2.1.1.e.S.`.tX8XT.l.u.u.z.l.t.y.w.2.;.S m M J 1.t.p.",
"|. X X+X XM. .^ k > % * u A L &.3.c.E.eXtXrX6X~.L.G.f.2.&.&.3.3.2.#.S A F S D B m 0 2 3 f >.s.e.q.q.Z.^.eX_.J.i.u.z.G.G.l.t.w.3.;.J m m J 1.t.p.",
"|. X+X+X XM.) I 0 > % , y *.;.<.w.C.~.rXrX8X~.L.G.l.4.#.S J ;.2.;.J B M M B B B m 5 = > p a.n.G.i.t.z.Y.~.Y.z.t.u.v.H.G.z.t.q.3.;.D m m J 1.t.p.",
"|. X+X+X|. ./ z 7 = * q g ;.3.r.y.C.Q.5X5X~.L.G.v.t.<.S M A -.>.;.H M N B D K Z m 2 $ % p s.E.~.J.Z.Z.J.P.C.f.q.e.x.n.v.l.y.5.2.*.B h h S <.w.u.",
"|. X X XN.[ Y V 5 < < r #.3.w.t.t.l.D.F.T.J.G.v.k.w.%.B m B #.;.-.D N N D L L K m - o % p b.5XrX`.T.J.H.C.k.w.3.3.a.h.h.f.w.<.&.S m h h D ;.3.e.",
" X X X|. .( T V 7 5 8 f &.w.t.u.t.f.g.g.j.c.l.u.e.2.J M m B *.;.*.B m M S *.*.K m - o % g b.rXpXyX7XT.J.l.e.1.2.2.7.8.a.3.2.&.J B m h m S -.2.3.",
"+X X|.X.) Y C k 0 9 m J 3.t.i.u.w.3.2.6.9.w.t.w.2.#.A m m B L -.J M t y f S J K N 4 # ; F b.rXpXpXrX_.J.u.q.<.2.3.3.3.3.>.-.J A B M M A J ;.;.>.",
"+X XM.| ^ I l k t m A ;.w.t.i.t.3.;.L L -.2.3.3.&.S M j m B K H A y 2 1 e r f A N 7 - 2 @.b.6XpXpXyX'.J.u.r.1.3.w.e.w.2.%.S A A A J #.%.&.;.;.;.",
"OX XX.( I l k m M A *.2.w.t.t.w.2.#.A B S ;.2.>.J B m m m M B B y 3 > * : q u d m 0 5 8 S h.~.tXpXyX'.J.t.r.r.w.t.t.w.2.J B M A *.;.2.3.2.>.;.=.",
"3X|. ./ z k m B S #.;.3.w.w.w.3.;.S M m A -.>.;.J M V V N m m y 3 : % O & : 1 e 8 7 7 9 J s.L.].tXrX).Z.w.1.r.e.t.w.3.%.D M B L ;.3.w.w.w.2.;.=.",
"XXN.| U l 9 M S -.>.3.4.w.3.3.2.;.S m h B #.>.;.S N l V N d t 3 > % O O O & : , 3 2 7 k J w.G./.].5XQ.j.<.<.r.y.e.1.&.S m N D %.3.y.u.t.w.2.;.=.",
"|. .) T V t F *.>.3.w.w.3.2.>.>.;.J M m B *.;.-.A m k V m t 3 > * % % % % % & * > 2 7 m J 3.l.K./.~.P.g.2.<.e.t.w.&.S m h m S &.w.u.i.t.w.2.;.-.",
"| ) / I m d F ;.3.e.y.w.3.;.;.;.;.*.A B S L -.S s 9 8 9 t 6 3 > > > > * % % % * > 2 9 M J <.e.C.I.!.P.h.8.w.t.u.w.;.B h 0 t F &.e.i.i.y.3.;.-.L ",
"/ / T V m s S ;.w.t.t.w.2.;.=.;.;.-.J S H H S B t 2 3 3 2 3 2 2 2 6 2 , * % % > 2 8 M S #.&.3.k.H.L.P.b.h.f.u.u.w.-.B 0 4 3 f &.w.f.t.w.>.#.S A ",
"U I z l m B S ;.3.y.t.w.2.;.=.;.;.;.-.*.L K B t 3 > * * > 1 6 8 t t 8 3 * % * < 8 M S *.#.&.2.f.H.L.L.P.n.v.z.t.3.J m 4 = > u O.2.w.w.2.#.S B M ",
"z z l l m M A -.2.w.e.q.2.;.;.;.;.;.-.*.H D m 8 1 * O O * 1 8 m m m 8 1 * % ; 6 M S *.;.&.&.2.a.v.K.I.I.P.A.k.4.%.f 8 = $ % w i @.&.;.-.J B m m ",
"l l k l m m B S ;.3.w.3.2.;.;.;.;.;.#.S D B m 6 > % O @ % 1 9 N N t 2 * % % , r S -.-.;.>.2.3.e.l.G.U.I.L.A.s.&.f e < # $ X & q a g S S A M m m ",
"z l z l m m m B J ;.2.2.>.;.;.;.;.-.S B B N m 8 > %     % 1 9 m j 6 > % X % 1 f *.-.-.;.>.3.w.y.t.l.G.I.L.n.9.S t 2 > & % % & : q u s B B N m j ",
"c c C V m m m M D L -.;.-.-.-.-.-.J F M N N m 8 , % X   % , 6 t 8 3 * X   % q f *.-.*.-.>.w.t.y.w.w.l.H.K.c.6.M 0 2 q w w w , , 1 e t M B N m j ",
"^ U T N m t m N B D S S S S S J S F M m V N N 9 , % X X % > 2 6 2 , % X X % 1 s H L D S &.w.u.w.<.&.4.l.G.j.-.m 0 e r p p i u e 6 8 j N N m m j ",
") ) Y G m t t m N M B B B B B B B M m m V N m 8 > % O O % * > > > * % X X % 1 y B B M B %.w.t.4.#.S ;.f.l.a.L m 9 s g O.@.g f y 8 9 9 m m m m m ",
"X.| ( T m 6 6 8 t m M B B M M m m m m m m m t 2 > % O % % & % % % % O O O % , e t m V M J 2.4.&.S M J 3.t.3.J m m F $.&.=.J F t 8 5 8 t j m N N ",
"|.X.] U k 5 < 3 6 t N N N N m m m m N V m 8 2 , * % % % % % % % O O O O % % * , 6 8 h N H %.&.J M m S 2.w.2.S m m S ;.>.-.J B t 2 < 1 6 t m N N ",
" XN.| R z 5 > > 1 8 m N N m m m m N N m t 2 > * % % % % % % % % % % % % % % % * > 2 9 m B H S B m m D ;.2.;.A m M J ;.;.L B t 2 > * & > 3 t m N ",
"+X|.X.( c 0 < > , 3 t t t t t m N N m t 6 , * % % O O O O % % * > > > * % O O O % > 2 t m M M m m m B *.;.L B m M H -.*.S t 5 > & O O % > 2 6 9 ",
"+X XM.] U l 0 2 < 1 3 3 3 5 9 m N N t 6 , > * % % O O O O % > 2 5 5 2 > * O O O O * > 2 8 t m m k m M S H S M m M K L S d 6 > * % O @ O % > , 1 ",
"+X XN. .) U z 0 5 < > * * > 3 t m t 6 > & % % % % % O O % > 5 0 k k 0 5 > % O O % % * > 3 t m V m m m B B M m m N B B d e > & % % % O % * > > , ",
" X X|.M.| / U z 0 2 > % O O ; 3 6 3 > O       X % * * > < 5 h z c c z h 2 * % * * % O % , 8 N N N N m t t t m N N m t 3 * O X X * > > > 3 3 3 3 ",
" X X|.|.X.| / U z 0 < #   @ O * , > %   . . . X # > 5 9 j C I U Q ^ U z 0 2 > < < > X O > 8 N C C N t 6 3 8 m N m t 1 & O   X # > 5 9 j V V V V ",
" X X X|.N.X.| ) U z 0 2 * % & * > > * % O O % > 2 0 z I Y / ( ) ) ) ) U z 0 0 h 0 2 * % > 6 m N N m 6 , > 3 t m j 6 > % O % ; 2 0 z T Y Y Y Y Y ",
" X X X X|.|.X.| ) R I z h 8 8 8 8 8 5 3 3 6 8 h z I ^ ) | | | |  . .| ) U I x I I k 5 > > 2 9 t t 8 3 > * > 3 8 8 3 < > 3 3 9 z I / ) | [ ` ` ' ",
" X X X X X|.|.M. .] ( / Y T I C C C C C C P T Y / ) ]  .X.N.....N.N.M.| / U U / Q I k 5 2 1 2 3 3 3 > * % * , 3 3 5 7 8 h C I E ) | X.X. . .| ` ",
" X X X X X|.|.N.M. . .| [ ` ( Q Y T T Y Q ( ` [ |  .X.M.N.|.N.N.|.|.N.X.) ) ) ) ) U z 0 5 > > : , > ; % % % * > 2 5 0 l P Y ( [  .M.N.|.X. .| [ ",
" X X X X X|.|.|.N.N.M.M.X. .| ` ( / / ( ` |  .X.M.M.M.|.|.|.|.|.|.|.|.X.| ) ) | ) / I k 5 > * * * * * % % O & * > 7 k P Y ( |  .M.|. X|.N. . .| "
};
