/* XPM */
static const char *wall_26[] = {
/* columns rows colors chars-per-pixel */
"72 72 235 2 ",
"   c #4D0B16",
".  c #460B1A",
"X  c #4D0E19",
"o  c #4C0611",
"O  c #500D18",
"+  c #4E111C",
"@  c #51131D",
"#  c #4A010D",
"$  c #4E1620",
"%  c #4D1A25",
"&  c #451121",
"*  c #511720",
"=  c #531A23",
"-  c #551D25",
";  c #410F21",
":  c #4E222A",
">  c #552027",
",  c #55242B",
"<  c #58252B",
"1  c #55282E",
"2  c #5A292E",
"3  c #5B2227",
"4  c #4E2D35",
"5  c #552C32",
"6  c #5A2E33",
"7  c #502630",
"8  c #4D313B",
"9  c #543236",
"0  c #5C3236",
"q  c #55353A",
"w  c #5D3539",
"e  c #563A3D",
"r  c #5D3A3D",
"t  c #662A29",
"y  c #612F32",
"u  c #633334",
"i  c #613739",
"p  c #623B3C",
"a  c #6A3D3C",
"s  c #6A3734",
"d  c #723C36",
"f  c #72372D",
"g  c #65413F",
"h  c #6B423E",
"j  c #74453E",
"k  c #7A453D",
"l  c #7A4A3C",
"z  c #563A41",
"x  c #5C3E41",
"c  c #503640",
"v  c #603E41",
"b  c #5E4244",
"n  c #5B4A4A",
"m  c #574645",
"M  c #5C5452",
"N  c #5F4F50",
"B  c #634343",
"V  c #6B4643",
"C  c #664847",
"Z  c #6D4945",
"A  c #654B4A",
"S  c #6D4D4A",
"D  c #624649",
"F  c #724640",
"G  c #734B44",
"H  c #794E45",
"J  c #734D48",
"K  c #7A4F48",
"L  c #794640",
"P  c #6B524E",
"I  c #7C5246",
"U  c #75524A",
"Y  c #7C5249",
"T  c #7A584C",
"R  c #654E51",
"E  c #645355",
"W  c #695659",
"Q  c #635B5B",
"!  c #675758",
"~  c #65605F",
"^  c #656361",
"/  c #6C6465",
"(  c #6C6B6A",
")  c #6E6769",
"_  c #716D6D",
"`  c #706666",
"'  c #6E7270",
"]  c #737373",
"[  c #757A77",
"{  c #767B7A",
"}  c #787B7B",
"|  c #777778",
" . c #726F70",
".. c #6C5F62",
"X. c #8B523A",
"o. c #93583B",
"O. c #9A603C",
"+. c #A8693F",
"@. c #804D42",
"#. c #835445",
"$. c #8B5643",
"%. c #8C5B45",
"&. c #835549",
"*. c #88574A",
"=. c #85594B",
"-. c #8C5A4A",
";. c #865945",
":. c #925C44",
">. c #925E4B",
",. c #9B5F4B",
"<. c #875E50",
"1. c #89614D",
"2. c #936244",
"3. c #9B6444",
"4. c #9E6947",
"5. c #95614B",
"6. c #9B644B",
"7. c #9D694A",
"8. c #8A6659",
"9. c #946352",
"0. c #9C6551",
"q. c #9F6855",
"w. c #996A59",
"e. c #9C715F",
"r. c #A36B45",
"t. c #AA6D44",
"y. c #A46C4B",
"u. c #A96E4C",
"i. c #A26647",
"p. c #AC7246",
"a. c #AD734A",
"s. c #A4704E",
"d. c #B1764B",
"f. c #B57A4B",
"g. c #B97B4B",
"h. c #B47545",
"j. c #A46A53",
"k. c #A76C55",
"l. c #AC7252",
"z. c #A4725B",
"x. c #AC745B",
"c. c #AB785B",
"v. c #B37553",
"b. c #B57A53",
"n. c #BB7C53",
"m. c #B5755A",
"M. c #B47A5C",
"N. c #BC7B5D",
"B. c #BC7658",
"V. c #A87962",
"C. c #BA7D62",
"Z. c #B87E66",
"A. c #997263",
"S. c #C27F5A",
"D. c #C57F61",
"F. c #76817C",
"G. c #78827E",
"H. c #BE8056",
"J. c #B6825B",
"K. c #BB845B",
"L. c #BC875C",
"P. c #BD8264",
"I. c #BE8A62",
"U. c #B8876B",
"Y. c #B58C71",
"T. c #BE9475",
"R. c #AD8060",
"E. c #C28456",
"W. c #C4835C",
"Q. c #C8885C",
"!. c #C48462",
"~. c #CA8565",
"^. c #C28D64",
"/. c #CC8B65",
"(. c #C38B6B",
"). c #CE8C6B",
"_. c #C48669",
"`. c #D28D6D",
"'. c #D38F65",
"]. c #C49065",
"[. c #C6946B",
"{. c #CB936D",
"}. c #C9986E",
"|. c #CC9365",
" X c #D4916B",
".X c #C39473",
"XX c #CD9572",
"oX c #CB9C73",
"OX c #C69B79",
"+X c #D39472",
"@X c #D99572",
"#X c #D59A76",
"$X c #D49E79",
"%X c #DA9E7B",
"&X c #D99B74",
"*X c #CD8E70",
"=X c #CDA077",
"-X c #CEA279",
";X c #D2A47C",
":X c #DAA47E",
">X c #D3A87E",
",X c #D9AA7D",
"<X c #D6A276",
"1X c #E3A37D",
"2X c #7A8581",
"3X c #7B8C84",
"4X c #7E928A",
"5X c #7C9087",
"6X c #829D93",
"7X c #80958C",
"8X c #C8A283",
"9X c #D3A782",
"0X c #D6AD84",
"qX c #DAAD84",
"wX c #DCA784",
"eX c #D6B086",
"rX c #D9B087",
"tX c #DBB38A",
"yX c #DEB98E",
"uX c #D6B288",
"iX c #DDBA90",
"pX c #E3AB85",
"aX c #E3B48C",
"sX c #E3B98E",
"dX c #E6B58A",
"fX c #E5BC93",
"gX c #EABD94",
"hX c #E6B791",
"jX c #F3BB91",
"kX c #EAC097",
"lX c #ECC49A",
"zX c #E8C398",
"xX c #F3CC9E",
"cX c #F2C799",
"vX c #F0CBA2",
/* pixels */
"0X9X9X9X9X0X0XtXrX0X0X0XrX0X>XoX].I.L.^.}.>XtXyXyXtX0X9X0XyXkXkXdX%X~.v.j.>.*.*.*.-.-.-.-.-.*.*.*.-.5.6.5.*.G B b B B p 6 * o #   < R ] 3X3X3X2X",
"0X0X0X0X0X0X0X0X0X0X0X0XrX0X>XoX[.^.^.[.oX>X0XrX0X0X9X9X0XyXfXfXdX:X).m.0.-.&.*.-.-.-.-.-.-.-.-.*.-.-.>.-.I Z B B B B i 2 *     * w W ] 2X3X3X3X",
"rXtXtXtXtXqX0X>X>X0X0XrXrX0X>X=XoXoXoX=X;X;X>X;X;X;X>X>X0XtXyXhXdXpX#XZ.9.&.I &.-.>.-.*.-.>.>.>.-.*.*.&.H F B B B B B w > @ @ - 6 D ! ] G.2X3X3X",
"yXsXhXfXhXqX;XoXoX>X0XtXrX0X9X>X;X0XqXrXqX;XoX[.[.oX=X>X0XtXtXtXsXhXwXU.9.G F #.>.>.-.*.-.3.4.6.5.-.I G B B x B C A B 0 - @ - r E ..) ] { 2X3X3X",
"fXfXkXkXfXqXoX[.[.=X0XtXrX0X9X9X0XyXfXfXtX;X[.^.^.[.oX>X0X0X9X0XsXcXfXT.8.B p L -.>.-.-.5.y.a.a.6.-.H Z B x v B C A B 6 * * 6 W ] } { ] [ G.3X5X",
"kXkXlXlXfXqX}.^.[.=X0XtXrX0X0X0XrXsXfXfXtX>X}.].[.}.=X>X0X9X-X9XfXxXlX8X8.x 9 g &.-.-.5.y.b.n.f.y.:.&.&.I J G V B C B 0 > < B _ 3X4X2X{ { 2X3X4X",
"kXkXkXfXyX>X[.^.[.=X0XtXrX0X0X0X0XtXyXyXrX0X=X=X=X=X>X0X0X9X-X0XfXxXlX8X8.x 4 r G &.:.y.b.W.!.n.u.3.3.j.k.q.-.H V B b w 0 w R _ 3X4X3X2XG.3X3X4X",
"gXfXfXyX0X=X[.[.oX;X0XtX0X0X0X0X0X0X0X0X0X0X0X0X0X0X0X0X0X9X9X0XfXcXfXOX8.B 8 q B I 2.a.E./.).!.v.a.b.!.).!.k.-.H V B r r B R / ] F.2X3X3X3X3X3X",
"fXsXtX0X=XoXoXoX;X0X0XrX0X0X0X0X0X0X0X0X0XtXtXtXtXrX0X0X0X0X0XrXsXgXaX.Xw.V q 8 z G 2.d.Q. X+X{.^.^.}.<X1X@XP.j.-.H Z B B B B D E / [ 3X3X2XG.F.",
"yXrX>XoX[.}.=X0X0XtXrX0X0X0X0X0XrXeX0X0XrXtXtXtXtX0X0X0X0X0XeXtXaXpX%XP.9.H r 8 z Z 2.d.E.'.@X%X:XqXtXdXdX1X+XC.j.-.H Z C b w 5 6 D ` G.2XG.[ ] ",
"tX0X;XoX[.}.;X0XrX0X0X0X0X0X0X0X0X0X0X0X0X0X0X0X0X0X0X0X0X0X0X0X:X#X).N.j.-.G B B H 2.a.n.W.).#XaXfXlXlXfXdX%X).N.j.-.Y S B 6 * * 6 W ] } { ] _ ",
"tXrX0X=XoXoX=X>X>X;X;X>X0X0X0X>X=X=X;X;X;X=X=X>X0X0XtXtXrX0X9X=X}./.W.N.m.k.9.=.I ;.2.y.a.v.C.*XwXgXxXvXlXgXpX@X~.v.6.-.T G u - * 5 D / ] | ] ] ",
"tXtXtX0X>X=XoXoX}.[.oX=X0X0X0X=X}.[.}.oX}.[.oXoX>XtXyXyXtX0X=X[.^.n.n.n.!.!.C.s.4.2.6.6.5.5.q.M.).pXjXxXvXgXpX@XQ.n.u.4.5.*.j u 6 0 m Q ( ] | } ",
"0X0X0XqX0X>XoX[.^.^.[.oX9X0X>XoX[.[.[.[.[.[.[.oX>X0XtXtX0X>X=X[.K.a.a.b.!.)./.H.a.4.5.-.*.&.-.0.m.).:XdXfXaX:X).S.b.a.y.6.-.I Z B r z n Q ( ] { ",
"[.oXoX-X>X>XoX}.[.[.oX=X9X0X0X=XoX}.}.}.}.}.oXoXoX=X=X=X=X;X;XoXI.s.4.u.N././.E.a.2.;.I H I *.>.j.m._.oX$XOX(.C.v.d.u.4.:.*.Y S C r q q n Q ( ] ",
"b.J.L.].oX=X;X=X=X=X;X>X0X0X0X0X>X;X=X=X;X>X=X=XoX[.].].[.;XaXqX.Xz.>.3.a.H.E.v.6.&.G Z G I -.>.,.6.j.x.V.c.z.j.j.y.6.>.I G Z A C w < > 9 n Q ^ ",
"t.a.b.L.[.=X0X0X0X0X0X0X0X0X0X0X0X0X0X0X0XrX0X>XoX[.^.I.[.,XgXfX8XV.-.$.4.a.a.y.-.G B B V I -.>.>.-.*.-.-.*.*.-.-.>.-.#.Z B B B B 0 - * , e n M ",
"t.a.b.I.}.>X0XrXtXtXtX0X0X0X0X9X0X0XqXtXtXtXtX0X>XoXoX}.$XaXlXkX9XV.>.X.o.4.4.5.*.G B x B G &.*.-.*.#.H j j L H I I H G C b b D C u - @ - 9 m n ",
"b.K.I.[.=X0X0X0XrXrXqXrXrX0X>X=XoX;X0XtXtXtX0XqXrXrXqXqXtXgXlXkX0XP.4.o.:.2.5.>.*.H B x x B G &.*.-.#.L h p g V V V V V B B D A C i - @ - 9 m n ",
"].[.oX>X0XtX0X0X0X0X0XrXtX0X;XoX[.oX;X0XeX0X0XtXsXfXgXfXfXkXlXfX,X^.a.3.:.-.-.-.-.&.G B x x B G *.-.*.G B x x B B B B B B B C C B 0 - * , e n M ",
"=X;X>X0XtXtX0X0X0X0X0X0XeX0X=X[.^.].oX=X>X9X0XtXhXfXfXfXfXkXkXfXqX|.n.i.:.*.=.*.-.*.&.G B x x V H &.I Z B x b B B B B v r w r p w 2 = * 5 b E ~ ",
"0X0X0X0X0X0X0X0X0X9X0X0X0X0X=X[.^.^.^.[.oX>X0XtXyXyXtXtXtXyXfXfXaX&XW.l.>.*.&.*.-.>.-.*.G B x B V G Z B B b B B A A B r 6 < > < < - @ * w R / ' ",
"0X0X0X0X0X0X0X0X0X0X0X0XrX0X>XoX[.^.^.[.oX>X0XrXeX0X0X9X0XyXfXfXdX:X).m.0.-.&.*.-.>.>.-.&.Z B x B B B B B B B B C C B w < * @ * * +   * r ! ] 2X",
";X;X;X0X0X0X0X0XeXtXtXtXtXtXqX>X=XoXoXoX=X>X0X0X9X9X9X0XtXhXfXgXhXwX+XP.l.6.:.%.*.*.*.*.I Z C b x x B C C B p w i p w 6 - @ + @ @   o @ v / G.4X",
"`.+X#X;X0X0XeX0XeXtXtXyXsXtXtXrX0X0X0X0X0X9X9X9X9X0XqXyXhXkXkXgXfXtX;X[.b.a.4.:.*.&.H G Z Z C B B B B A C v 0 < > < < > * @ @ * @   # @ v _ 3X6X",
"~.).+X;X0XuXeX0X0X0X0X0X0X0X0X0X0X0X0X0X0X0X0X0X0X0XtXsXfXgXgXfXfXyX0XoXK.a.r.2.-.I Z B b B B B B B C C B w < * @ @ * * * * * - * X o * B _ 3X6X",
").XX$X0XtXtXqX:X;XoX.XT.T..X.XoX=XoXoXoX>XqXtXtXtXeXqXqXaXaXsXhXkXfXtXoXJ.y.3.:.>.&.S b r w w p p B B p 0 < * X X X @ * * * * * @ + + , D ( G.4X",
"$X;X0X0XtXtXwX#X).P.c.z.e.z.c.J.L.L.K.L.[.>XsXfXyXeX>X$X#X;X0XyXkXlXhXOXc.5.$.:.>.=.U B r 5 < 6 p B p 6 > @ + X X + @ * * * @ @ @ + : q E ( [ 2X",
"0X0X0X0X0X:X&X).N.j.-.#.&.-.6.y.a.p.t.a.K.oX0XtXtX0X$X+X).{.oX0XfXlXfX$XV.-.@.$.*.=.U B 6 - * < w B p 2 * + @ * * * * * * * @ @ * > q n Q ( ] { ",
"qX0X0X=XoX}./.N.j.&.F h F #.:.3.i.+.+.t.a.R.Y.OX8X;X$X X).~.{.;XaXlXgX9XZ.>.#.#.I G g 0 - + + > r C B 6 > - < 2 2 > * * * * * - < q n Q ( ] | { ",
"%X$XXX^.L.b.v.j.-.Z r p F #.%.:.:.r.p.p.4.1.8.A.U.#X&X@X).~.~.XXwXgXkXqXI.y.$.H V p 5 - +   @ > p C C r 0 0 r p 0 < * @ @ * > 5 e n Q ( ] { G.G.",
"`.).!.n.a.r.6.-.K V B V I -.-.*.-.6.a.a.2.F B Y z.).@X@X).~.~.).:XhXfXrX|.a.:.H B q , * @ @ * < w B C B B C C B w < * @ @ * , q n Q / ] } 2X3X3X",
"!.W.S.g.t.3.;.H G G I =.-.>.-.I I -.y.y.;.p q V 0.W.'.'.!.!.~.`.%XaXsX,XQ.p.o.H V p y t 3 > < 1 6 w B C A A C p 6 > * @ @ * 1 z M ^ ( { 2X3X4X4X",
"v.v.g.g.p.2.H V G ;.6.y.6.>.&.G Z I >.5.I p e V 5.n.E.E.n.N.!.`.%XtXtX=XL.t.o.#.H G L k d p 0 5 < < w B A C r 2 > - * @ @ * 1 e M ^ ' { 2X3X4X4X",
"a.a.d.f.a.%.Z B G 2.a.d.y.-.G B B G *.-.&.V B G 5.a.f.h.a.v.S.).$XqX0X=XL.a.3.:.-.-.-.-.&.J B 6 - * < w B p 2 * @ @ * @ @ * , q n Q / ] } 2X3X3X",
"r.p.a.d.u.*.V x F 5.a.a.6.I B x x Z #.%.*.H G I %.4.r.r.r.u.v.!.XX;X0X>X}.I.v.y.6.6.5.5.9.<.U i - X + < 0 6 - X   + @ @ @ * > 5 e n E / ] { G.2X",
"p.p.a.u.6.I B x Z *.6.6.&.V x z x G %.4.6.*.I I *.:.2.5.6.6.u.b.^.=XeXtXtX;X[.n.u.4.>.5.9.9.=.j 3 X . $ > > * @ X + @ @ * * * > < 9 b E / ] [ { ",
"d.a.u.6.-.G B B Z &.-.*.G B z z B I 7.a.a.6.-.*.*.-.*.-.-.:.4.a.L.}.0XfXlXfX,X^.a.3.$.-.>.9.-.k t * + + * = * * * * * * * * @ @ * > q n Q ( ] { ",
"g.d.y.>.I Z Z G H &.&.I G V B B Z *.l.n.n.a.6.>.>.-.=.Y I ;.3.p.H.].;XfXvXlXrX].p.O.$.*.-.=.#.k s 2 > - - > > < < 2 < > - @ O O @ > 9 n Q ( ] | ",
"g.d.4.&.Z V G &.=.*.*.&.&.I G G I 9.M.!.W.b.y.6.6.-.I J Z I 2.p.n.W.+XaXlXlXrX].p.O.:.-.&.J Z V j j a i 0 6 9 w r p p 6 > @ X O @ > q n ~ ( | } ",
"g.a.2.I B B H -.>.>.-.-.-.-.&.&.-.j.C.)./.H.a.r.6.-.J B B G 2.a.n.W.).wXhXfXqX^.a.i.:.-.Y V B Z &.-.*.G B x x B C C B w < * + @ * , q n Q ( ] { ",
"d.y.%.F x v H -.6.6.5.5.5.>.%.$.6.x._.+X XE.d.r.2.#.Z x x Z ;.y.n.S.`.%XaXyXqX{.n.u.6.*.G B V I 9.k.9.=.Z C Z S S A b r 6 > * @ @ * , e N ^ ( ' ",
"y.5.#.Z x x G -.6.i.y.4.5.>.%.:.r.b.~.+X XE.d.3.;.G x z x V I 6.v.D.`.%XqXtXqX$X/.m.0.*.G F I 9.x.N.x.5.I G I I J C x z e 0 < - @ + + > r n Q ^ ",
">.-.I Z B C G -.6.a.a.y.5.-.%.3.a.H./.)./.E.a.2.H B x x B V H -.j.N.).$X0X0X0X%X).N.j.-.I H -.k.!.).!.k.-.&.*.-.&.G B B B B w < * X X * 5 r n M ",
"-.*.I G G G &.5.y.d.d.y.5.*.>.y.n.E.W.!.W.b.y.;.Z x x B G G H #.>.l.W.{.;X0X>XXXP.m.k.6.:.$.5.c.XX:X#XP.j.6.6.6.>.;.#.T T U V 0 < - = - 1 9 q e ",
"-.*.*.I I =.5.y.a.f.d.y.:.-.9.m.!.Q.E.b.l.u.6.#.V b B G &.&.&.#.$.3.d.^.<X0XOXU.k.j.u.a.i.:.>.V.$XsXdX+XC.l.u.y.y.r.y.4.5.=.G a w 0 0 0 6 1 , > ",
"-.-.*.*.-.5.y.a.f.f.a.4.%.-.q.Z.)./.E.a.r.6.-.K V B Z I -.>.-.-.:.3.a.^.,X0XOXV.-.:.r.a.r.$.-.V.8XfXgXpX).N.v.a.p.p.a.u.6.-.I Z B B B B w < * + ",
"-.-.-.-.>.6.a.f.g.f.a.3.;.*.q.Z.+X XE.p.3.;.I Z B B G &.>.0.0.j.j.l.J.}.,X0XT.w.H l %.3.%.l I e.OXhXjXpX+XW.n.a.r.4.6.5.*.#.G V C A P A p < @   ",
"-.-.-.-.>.6.a.d.g.f.a.3.*.*.q.Z.+X XE.p.2.I Z B x B F I >.j.m.C.I.(.}.>XtX0XT.w.I j H I Z g G 9.(.1XpX1X+X!.n.a.3.;.G Z V Z V B C A P A p < @   ",
"-.-.*.*.-.5.y.a.f.f.a.4.%.-.q.Z.).'.E.a.2.H B x x B V H -.j.N.).#X;X0XtXyX0X.Xz.*.L V B x e B =.x.).@X@X).!.H.a.2.H B x x B B B B C C B 0 > * + ",
">.-.*.&.I *.5.y.a.d.d.y.3.5.j.M.!.Q.n.y.%.H B z x B B F &.j.N.`.:XqXyXyXyX0XoXP.j.*.F v e q x G >.k.C.~./.Q.E.f.4.;.G Z V Z Z B B p r 0 < - * * ",
">.*.&.G Z G &.5.i.a.d.a.y.y.u.v.n.b.a.6.&.G B x x b B F &.j.N.`.%XwXtXtXtX0X;X).N.j.*.F g r x B Z &.9.v.E.Q.E.g.a.y.6.:.;.&.Y Z B w 1 - * * * * ",
">.-.I Z B B H -.6.y.a.a.a.a.a.a.a.y.6.-.I Z B x x B V H -.j.N.).#X:X0XeXuX0X:X#X).N.j.-.H V B x z B I 6.a.f.d.a.a.a.a.y.6.-.I S B 0 > * @ @ * * ",
"6.-.&.Z B C K *.5.6.y.a.d.d.d.a.y.6.-.T J C B x B Z H -.q.M._.XX$X;X0X0X0X0XqX:X%X{.P.k.>.&.Z b z x h l X.X.X.X.o.3.4.6.-.&.G Z B r 6 > - * * * ",
"6.>.&.Z B Z I -.>.>.5.4.a.d.d.s.7.-.T S C b x B V I >.k.C.(.oX;X0X0X0X0X0X0XqXqXqX:X+X!.x.>.I Z B b r u t t t t s j I Y G Z V B B B p w 6 > = * ",
">.-.I Z B V I -.-.*.-.5.y.a.a.6.-.H Z B x x B V H -.j.N.).#X:X0XeX0X0X0X0X0X0X0X0X:X#X).N.j.-.I Z B w < * @ + * < w B C C B B B B C C B 0 < * + ",
"=.#.L a w p F #.*.*.*.5.y.s.6.$.j u 6 0 w B G I ;.6.v.~.@X:XqXeXeXeX0X0X0X0X0X9X>X$X X/.S.l.6.&.F p 5 : % = - 3 y p V Z Z Z V C C C B p 6 - +   ",
"J Z a 6 < 6 p Z Y &.-.6.j.7.$.d 3 * $ - u F *.5.6.y.b.~.+X%XqXeXeX0X0X0X0X0X0X;X#X).!.H.n.b.y.$.d 2 , 7 6 i a k k H I #.#.#.Y S C b w 2 - @ X   ",
"A B w > * - 6 B J &.-.5.5.-.k t * . . * y k -.6.y.a.n.W.).#X;X0XeX0X0X0XeX0X;X#X).S.v.a.d.f.a.o.f * % 5 B U &.-.:.-.-.-.-.-.&.J B w < * @ @ * * ",
"A B 0 - + $ 5 B P T &.*.@.j s 6 > $ $ > y j &.5.y.a.f.n.!.).;X0XeX0X0X0XeX0X;X+X~.B.t.r.p.f.d.o.t . ; 4 C T <.-.-.-.-.-.-.=.I V w > + X * < w r ",
"E B w - @ * 6 B P U J h s y 2 0 w w 0 0 w p Z ;.4.a.d.d.b.I.oX0XtXrX0X0XeX0X;X+X~.B.t.r.p.f.d.o.t . ; 7 B P U U U U U U T U V i < +   @ 2 B W / ",
"A B w > * - 0 B A A B 0 - * > 0 B C C B x x B I 6.a.h.p.a.J.oX0XtXtX0X0X0X0X;X#X).W.v.a.d.f.a.o.f * % 6 B Z C B B B B C C B w < *   o * r ! ] 2X",
"i 0 6 1 , < 6 0 p r 0 > + . * 2 p Z A A D b B I 4.d.h.p.p.J.oX0XtXtX0X0X0X0X9X$X+X{.^.K.J.f.r.o.d f u a V V b r q 9 6 0 w 0 5 - @   X , D ( 2X4X",
"- > 1 9 q 9 < - - > > - + X + = 2 r C A A S H -.y.f.h.h.p.J.oX0XtXtX0X0X0X0X0X;X;X;X=XoXI.f.r.o.o.X.X.@.H S B x 9 , - - > < - * @ + % q Q ] 3X7X",
"O * 1 x n m 5 * @ @ * * * * @ @ * > 0 B S T -.6.u.a.p.t.a.K.oX0XtXtX0X0X0X0X0X0X0XtXtX0XoXK.a.t.p.a.y.6.-.I S B 0 > * @ * * @ @ * > 9 n ^ [ 3X7X",
"+ - 9 n Q E x , $ + @ - < 2 < = @ + - 0 j ;.6.y.7.6.2.3.y.J.oXeXyXtX0X0X0X0X0XeXtXyXfXfXqXoX^.Q.Q.Q.E.v.y.5.&.G a 6 > * @ @ O @ * 5 b Q ' G.3X4X",
": 9 b Q ( ( E z 1 $ @ > 0 p w < @ . . - d :.y.y.1.I j #.5.M.OXeXyXtX0X0X0X0X0XeXtXyXfXfXsXrX,X<X&X XQ.n.d.y.5.*.G a 0 < * X     * 6 R ( F.3X5X4X",
"m n ! ) ] ] ^ n 9 - * < w B p 6 * . . * f o.a.7.T B r F -.x..X0XtXtX0X0X0X0X0X0X0X0X0X0X0XeX0X;X#X).W.n.a.r.6.-.T S B w < *     * 0 W ] 2X3X3X3X",
"! Q ( ] | ( E x 1 = * > 0 r w < * + & > k i.a.7.I x e V *.z.(.;XqXqX0X0X0X0X0X;X;XoX.XY.Y.Y.Y.Y.U.C.x.y.2.%.;.&.Y S C b w 2 * X * 0 W | 2X2XG.F.",
"/ ( ] { | / b 1 * @ * - < < > - * % : w I y.a.4.I x z V *.k.P.+X:XqX0XeXeX0XqX$X+X_.M.z.8.8.8.8.w.q.6.=.I G F G Z V C B B w < @ * 0 W | 2XF.[ | ",
"_ ] { } ] W w *   + * - * * @ @ * > 5 B =.y.a.4.I B x G -.j.N.).#X:X0XeXeX0X:X#X).N.j.-.G B B G &.-.*.G B x b B B B B C A B 6 * * 6 E ] } { ] _ ",
"| { } } ] E 6 O o O * * @ X X @ * , e A 1.s.a.4.I B B G -.j.N.~.+X:X0XuXuX0X:X+X~.B.6.@.p 5 4 r j #.H B z c z x r p B C S C w - * 6 E ] { |  ._ "
};
