/* XPM */
static const char *wall_12[] = {
/* columns rows colors chars-per-pixel */
"72 72 221 2 ",
"   c #4D0E19",
".  c #4D0612",
"X  c #500E19",
"o  c #4E111C",
"O  c #51131D",
"+  c #4D1721",
"@  c #491926",
"#  c #521721",
"$  c #531A23",
"%  c #581C24",
"&  c #48232B",
"*  c #552027",
"=  c #55242B",
"-  c #59252B",
";  c #55292F",
":  c #5A2A2F",
">  c #4E2A32",
",  c #562D32",
"<  c #5A2D32",
"1  c #562F38",
"2  c #543135",
"3  c #5C3235",
"4  c #563439",
"5  c #5C3539",
"6  c #5B3A3D",
"7  c #662C2C",
"8  c #69322D",
"9  c #6A3636",
"0  c #603639",
"q  c #633C3C",
"w  c #643636",
"e  c #753935",
"r  c #5F403F",
"t  c #6B443E",
"y  c #78473D",
"u  c #7C533F",
"i  c #573B41",
"p  c #5C3E41",
"a  c #603F41",
"s  c #5D4143",
"d  c #5B4A4B",
"f  c #554141",
"g  c #634243",
"h  c #6B4644",
"j  c #664846",
"k  c #6E4945",
"l  c #664C4A",
"z  c #6C4C49",
"x  c #714641",
"c  c #734B45",
"v  c #794E46",
"b  c #734F48",
"n  c #7A4F48",
"m  c #7C5246",
"M  c #74534C",
"N  c #7D5249",
"B  c #775047",
"V  c #635455",
"C  c #655958",
"Z  c #6D524D",
"A  c #6B6A69",
"S  c #6A6464",
"D  c #716D6E",
"F  c #737373",
"G  c #767B7A",
"H  c #787D7D",
"J  c #8B523A",
"K  c #8A553C",
"L  c #86453B",
"P  c #9B623F",
"I  c #814E44",
"U  c #835446",
"Y  c #8B5643",
"T  c #865946",
"R  c #8C5C46",
"E  c #835549",
"W  c #89574A",
"Q  c #85594A",
"!  c #8C5A4A",
"~  c #925D44",
"^  c #925E4B",
"/  c #985D45",
"(  c #875F53",
")  c #8F614F",
"_  c #946245",
"`  c #9A6545",
"'  c #9F6846",
"]  c #96624A",
"[  c #9B644B",
"{  c #9D694B",
"}  c #846153",
"|  c #9B6552",
" . c #9D6954",
".. c #9C6B5C",
"X. c #986755",
"o. c #9F705B",
"O. c #A46A44",
"+. c #AA6E45",
"@. c #A1674A",
"#. c #A46C4A",
"$. c #A96F4B",
"%. c #A16644",
"&. c #AB7146",
"*. c #A7714E",
"=. c #AD734A",
"-. c #B1764B",
";. c #B4794C",
":. c #BA7C4B",
">. c #A36B54",
",. c #A76954",
"<. c #AB7353",
"1. c #A4735B",
"2. c #AA755A",
"3. c #A97A5D",
"4. c #B37654",
"5. c #B57C54",
"6. c #BB7C52",
"7. c #B37C5C",
"8. c #BB7A5D",
"9. c #B1765D",
"0. c #9B7061",
"q. c #A57762",
"w. c #BB7D62",
"e. c #BD7F6B",
"r. c #C07F5B",
"t. c #B58057",
"y. c #BD8155",
"u. c #B5815B",
"i. c #BA845B",
"p. c #BD885F",
"a. c #BE8B63",
"s. c #B58668",
"d. c #BF906D",
"f. c #BF9474",
"g. c #C3814D",
"h. c #C28257",
"j. c #C3835B",
"k. c #C5895E",
"l. c #C48462",
"z. c #C28E65",
"x. c #CB8A64",
"c. c #CD8C6B",
"v. c #CB8563",
"b. c #D18E68",
"n. c #C39067",
"m. c #C6946B",
"M. c #C8966D",
"N. c #C9986F",
"B. c #C79569",
"V. c #D4916C",
"C. c #D6996D",
"Z. c #D48F71",
"A. c #C29473",
"S. c #C79A71",
"D. c #CB9C73",
"F. c #C89B7A",
"G. c #D49372",
"H. c #DA9574",
"J. c #D29B75",
"K. c #D39C78",
"L. c #DB9B78",
"P. c #D99B73",
"I. c #CEA077",
"U. c #CFA279",
"Y. c #D2A276",
"T. c #D1A57C",
"R. c #DBA47D",
"E. c #D3A87F",
"W. c #D9A97E",
"Q. c #DAA575",
"!. c #E0A57B",
"~. c #C89F82",
"^. c #D5A680",
"/. c #DBA781",
"(. c #D6AD84",
"). c #D9AF86",
"_. c #D7B086",
"`. c #D8B087",
"'. c #D9B087",
"]. c #DBB087",
"[. c #D9B087",
"{. c #D8B188",
"}. c #D9B188",
"|. c #D9B289",
" X c #D9B389",
".X c #DAB38A",
"XX c #DAB289",
"oX c #DDB289",
"OX c #DAB48B",
"+X c #DEB68D",
"@X c #DBB38A",
"#X c #DEB88F",
"$X c #D7B489",
"%X c #DFBA91",
"&X c #E5A681",
"*X c #E1B68D",
"=X c #E1B68C",
"-X c #E2B88F",
";X c #E2B98E",
":X c #E6B68A",
">X c #E2BA91",
",X c #E4BA91",
"<X c #E5BC93",
"1X c #E7BD94",
"2X c #E7BE95",
"3X c #E5BC93",
"4X c #E8BE95",
"5X c #E9BF95",
"6X c #E7BF98",
"7X c #E7C096",
"8X c #EAC197",
"9X c #EAC39A",
"0X c #ECC39A",
"qX c #EDC49B",
"wX c #EEC69D",
"eX c #ECC39A",
"rX c #EBC49C",
"tX c #F1C99F",
"yX c #F1C79C",
"uX c #F3CBA1",
"iX c #FAD2A4",
/* pixels */
"|.|.`.(.(.`.|.(.U.m.n.M.T.|.OX|.(.(.|.(.U.m.n.m.U.(.`.(.(.(.`.|.|.(.(.(.(.(.(.(.(.(.(.(.(.^.^.(.`.|.|.(.(.`.|.(.U.m.n.M.T.|.OX|.(.(.|.(.T.N.n.z.",
"(.(.(.(.(.`.|.(.T.D.m.D.T.(.`.(.(.(.|.(.T.D.m.D.T.(.|.`.(.(.(.(.(.(.(.(.(.(.(.(.(.(.(.(.(.(.(.(.(.(.(.(.(.).|.(.T.D.m.D.T.(.`.(.(.(.|.(.T.D.m.n.",
"T.T.E.^.(.(.(.(.T.D.D.D.U.T.^.(.(.(.`.(.T.D.D.D.E.(.|.|.(.^.T.T.E.^.(.(.(.(.(.(.(.(.(.(.(.|.|.).^.T.T.^.(.(.(.(.T.D.D.D.U.T.^.(.(.(.`.(.T.I.D.N.",
"D.D.U.T.^.(.(.^.^.T.T.D.D.D.U.E.(.`.`.(.^.T.T.T.(.`.|.|.(.T.I.D.I.T.(.(.(.(.(.(.(.(.^.^.`.+X*X).T.D.D.T.^.(.(.^.^.T.T.D.D.D.U.E.(.`.`.(.^.T.T.U.",
"n.m.D.T.(.|.(.(.(.`.(.T.D.m.D.T.(.|.`.(.(.(.(.(.(.(.(.|.(.T.D.m.D.T.(.|.`.(.(.(.(.^.^.(.+X1X1X].D.m.m.U.(.|.(.(.(.`.(.T.D.m.D.T.(.|.`.(.(.(.(.(.",
"p.z.N.T.|.+X+XoX+X+X|.T.N.n.m.U.(.|.(.(.(.|.|.(.T.T.T.(.(.U.m.z.m.U.`.OX|.(.^.^.^.^.(.oX1XwX0XoXD.z.n.T.|.*X+XoX+X+X|.T.N.n.m.U.(.|.(.(.(.`.|.|.",
"p.z.D.^.*X1X3X-X>X%X|.T.N.n.M.U.(.`.(.(.(.|.`.T.D.N.D.^.(.T.m.z.n.U.`.OX|.(.^.^.^.(.oX,X0XuXqXoXD.z.m.E.*X1X3X-X>X%X|.T.N.n.M.U.(.`.(.(.(.(.).`.",
"z.m.D.).1XqX0X1X>X+X(.U.m.m.D.T.(.`.(.(.(.`.(.T.N.m.D.T.(.T.D.m.N.T.(.|.`.(.^.^.(.|.*X1X0XqX1X).D.m.D.).1XqX0X1X>X+X(.U.m.m.D.T.(.|.).(.(.(.(.(.",
"m.D.E.=X0XuXwX1X-X).T.D.n.n.D.T.(.|.`.(.(.(.(.T.D.D.D.^.(.(.T.U.U.T.^.^.(.(.).|.+X>X3X3X,X*X).T.D.D.T.*X0XtXwX1X-X).T.D.n.n.D.T.(.|.`.(.(.(.(.(.",
"I.T.).>XqXwX9X>X|.T.D.n.z.n.D.T.`.|.`.(.(.(.(.^.T.T.T.(.`.|.|.(.^.T.U.U.T.(.+X>X1X7X1X+X).T.D.D.D.T.`.,X0XwX0X>X|.T.D.n.z.n.D.T.`.|.`.(.(.(.(.(.",
"^.(.oX>X1X1X+X(.U.D.m.z.n.m.D.T.(.`.(.(.(.(.(.(.(.(.(.(.(.(.|.(.T.D.m.m.U.(.+X3X1X3X+X(.U.N.m.N.U.(.+X3X1X3X+X(.U.D.m.z.n.m.D.T.(.`.(.(.(.(.(.(.",
"|.|.+X+XoX^.I.m.n.z.z.n.M.D.I.T.T.^.(.(.(.(.(.(.`.`.(.^.T.T.U.D.z.i.i.a.D.(.oXoX).(.T.U.D.m.m.D.^.|.+X*XoX^.D.m.n.z.z.n.M.D.I.T.T.^.(.(.(.(.(.(.",
"OX|.`.^.T.n.i.t.t.i.z.D.T.T.U.D.D.U.^.|.|.(.(.(.(.(.(.T.D.m.a.t.=.+.=.i.D.^.(.T.D.M.M.M.N.D.U.^.`.|.|.).T.m.i.t.t.i.z.D.T.T.U.D.D.U.^.`.|.`.(.(.",
"(.(.^.U.m.i.-.=.-.i.m.T.(.(.T.D.m.N.T.(.|.(.(.(.(.(.E.I.m.p.5.=.O.O.=.i.D.(.(.U.m.z.z.m.D.T.(.|.|.(.E.I.m.i.-.=.-.i.m.T.(.(.T.D.m.N.U.(.`.`.(.(.",
"T.U.D.D.z.5.-.=.5.a.D.^.|.`.T.N.z.n.D.T.^.^.(.`.|.(.T.D.z.i.5.5.5.5.p.M.^.oXoXW.D.M.m.D.U.(.|.|.(.U.D.m.z.i.-.=.5.a.D.^.|.`.T.N.z.n.D.T.^.(.(.(.",
"D.N.m.m.z.i.t.i.a.N.T.`.|.(.T.N.z.z.n.D.I.T.(.|.OX|.T.M.z.a.z.m.D.D.T.).*X,X,X*X).W.T.T.^.`.|.(.U.N.n.n.z.p.i.i.a.N.T.`.|.(.T.N.z.z.n.D.U.^.(.`.",
"m.m.m.m.m.n.n.m.D.T.(.|.|.(.T.D.m.z.z.m.D.T.(.|.|.(.T.D.m.N.U.(.+X>X1X4X1X1X4X4X1X-X|.(.(.(.(.T.D.m.n.n.m.n.n.m.D.T.(.|.|.(.T.D.m.z.z.m.D.T.(.|.",
"N.D.D.D.D.I.U.T.E.(.`.|.`.(.T.U.D.N.m.D.I.E.(.(.^.T.I.D.T.^.oX>X0XwXtXqX1X,X,X1X1X>X+X|.(.^.T.I.D.D.D.D.D.I.U.T.E.(.`.|.`.(.E.U.D.N.m.N.D.T.(.`.",
"U.T.T.E.^.^.^.(.(.(.(.(.(.(.^.E.T.T.U.T.E.(.(.T.D.N.D.W.oX,X1X4X0XwXwX7X>X+X|.+X+X+XOX`.E.U.D.D.D.T.T.E.^.^.^.(.(.(.).(.(.(.^.E.T.T.U.T.T.^.^.(.",
"(.(.(.(.(.(.(.(.(.(.(.(.(.(.(.(.(.(.(.(.`.|.(.U.m.m.D.).1X0X7X1X1X4X1X-X|.(.^.^.(.`.|.(.T.D.m.D.T.(.|.`.(.(.(.(.(.(.(.(.(.(.(.(.(.(.(.(.(.(.(.(.",
"|.|.(.^.T.T.T.T.^.^.(.(.(.(.(.(.`.|.|.|.|.|.(.U.D.D.T.oX1X7X1X-X*X*X*XoX(.^.^.E.^.(.`.(.U.m.z.m.T.`.|.(.E.T.T.T.E.^.^.(.(.(.(.(.`.|.|.OX|.|.|.|.",
"|.`.^.U.D.M.N.D.U.E.(.(.(.(.(.(.(.).).`.`.).(.E.T.T.E.`.+X+X+X|.|.|.|.).(.(.^.^.^.(.|.(.U.m.z.m.T.(.(.T.D.D.D.D.U.T.^.(.^.^.^.(.(.`.|.OXOXOX+X+X",
"|.(.T.D.m.z.z.m.D.T.(.`.(.(.(.(.(.(.(.(.(.(.(.(.(.(.(.(.(.(.(.(.(.(.(.(.(.(.(.(.(.`.|.(.U.N.m.D.T.(.^.D.m.z.z.m.D.T.(.`.`.(.(.(.(.(.(.(.(.(.(.(.",
"`.(.E.U.N.n.n.m.D.T.).|.`.(.(.(.(.(.(.(.(.(.(.(.`.|.(.(.^.^.(.(.(.(.^.(.(.(.(.(.(.(.`.(.T.I.D.U.^.(.E.D.m.z.z.n.D.W.+X#X+XOX|.`.(.^.E.K.D.D.S.S.",
"(.(.(.^.T.D.M.M.D.E.`.|.`.(.(.(.(.(.(.(.(.(.(.(.).(.(.(.^.^.(.(.(.(.(.(.(.(.(.(.(.(.(.(.^.E.E.(.(.(.E.J.c.x.z.m.I.(.+X-X-X+XOX$X(.^.K.M.l.i.t.t.",
"(.(.(.`.(.T.D.m.D.T.(.`.`.(.(.(.(.(.(.(.(.(.(.(.(.(.(.(.(.(.(.(.(.(.(.(.(.(.(.(.(.(.(.(.(.(.(.`.`.(.T.G.c.x.z.m.D.T.(.`.(.(.(.`.(.^.K.c.r.4.=.&.",
"^.(.|.OX|.U.n.p.z.N.T.(.(.(.(.(.(.(.(.`.`.`.`.(.(.(.(.`.).(.T.T.T.^.(.(.(.(.(.(.(.(.(.(.^.^.^.(.(.W.K.V.x.k.k.z.d.d.f.f.A.A.D.T.W./.R.J.x.6.-.+.",
"^.(.|.+X(.D.i.5.5.a.D.T.^.(.(.(.(.(.`.|.|.|.|.(.(.(.).|.`.E.D.D.D.T.(.|.`.(.(.(.(.(.(.^.T.U.U.T.T.Y.N.k.h.6.6.5.7.3.1.o.1.3.s.c.P./.).^.D.x.r.6.",
"^.(.|.OX(.S.t.=.=.i.m.U.^.(.(.(.(.(.(.(.(.(.(.(.(.(.`.|.(.T.D.m.D.T.(.|.`.(.(.(.(.).`.(.T.D.m.m.M.m.a.5.=.&.&.=.#.] ! U U ! >.8.c.L.).(.T.G.c.v.",
"^.(.|.OX(.D.i.-.-.i.n.D.^.`.OXOX`.^.T.U.I.U.T.E.^.(.(.^.T.I.D.D.D.T.(.`.(.(.^.(.(.OX+X+XT.B.p.i.i.u.2.{ _ ` %.O.' ~ U x t x U >.8.c.D.I.D.J.G.Z.",
"(.(.`.|.(.I.n.i.i.p.n.D.^.|.+X+X|.E.D.m.n.n.D.U.^.(.^.U.D.D.D.T.E.(.(.(.(.^.^.^.(.+X>X+XT.n.5.=.<. .) N B U R [ [ ^ U x q q k W ,.4.t.i.z.M.G.H.",
"(.(.(.`.(.T.D.m.z.z.m.D.T.(.|.|.(.T.D.m.z.z.m.D.^.(.T.D.m.N.T.(.|.(.(.(.(.(.(.^.(.|.|.(.D.i.=.%._ ! B h g h m ! ^ ] ! m h g h n ! [ O.=.6.l.c.Z.",
"(.(.(.(.(.^.T.I.D.M.m.N.D.U.T.U.U.T.T.D.D.N.D.U.^.(.T.m.n.m.T.|.OX`.(.(.`.|.`.(.E.U.F.A.s.<.O./ Y U k p i p h N ! ^ ^ ! T m c c v U P +.:.j.l.l.",
"(.(.(.(.(.(.(.^.T.D.m.n.m.m.m.m.m.I.(.oX).W.T.T.(.(.T.m.n.m.T.`.|.(.(.`.+X*X+X^.D.d.s.1. .[ _ ~ Y U x a i i s k N ! ^ [ @.[ T c h v ~ &.:.6.5.5.",
"(.(.(.(.(.(.`.(.T.D.m.n.n.m.n.z.m.T.oX1X1X+X(.(.(.(.T.D.m.D.T.(.(.(.(.+X,X1X=XW.m.7. .! E E ! ^ ^ ! U x g p p g k n ! @.-.=._ c g k R =.;.-.=.=.",
"(.(.(.(.(.`.|.(.T.D.m.m.D.D.D.D.D.E.+X3X1X+X|.(.`.(.T.D.D.I.T.(.(.^.(.+X6X0X:XQ.k.*.R v x v E )  .>.| ! B t r p p h m ] =.=.] c p h ! $.-.=.&.O.",
"(.(.(.(.(.`.|.(.T.D.m.D.E.).oX].).).oXoX|.|.(.(.(.(.^.T.T.T.^.(.^.E.(.#X7X0X:XC.y.' m k g x E | 9.w.8.<._ u t p i p h E [ ' ! k p g N [ $.=.&.&.",
"(.(.(.(.(.`.|.(.U.m.m.D.).1XqX0X1X*X|.(.^.(.(.(.(.(.(.(.(.(.(.(.^.E.(.#X1X1X/.x.=.K y g g c ! <.l.c.b.h.=._ v g i i g c E ! E k g g c ! ' $.=.-.",
"(.(.(.(.(.|.|.(.U.m.n.D.oXqXuXuX0X,X+X).(.(.(.(.(.(.(.`.`.).(.(.(.^.`.-X3X=XI.u.~ y 3 3 9 u [ 7.x.V.V.b.y.#.T k g g h c N E U v x k k N ^ $.-.:.",
"(.(.(.(.(.|.OX|.U.m.n.D.oX0XuXwX7X3X>X*XoX).(.(.(.(.(.(.(.(.(.(.(.(.`.+X:XT.d.X.c , @ * 8 J $.y.x.V.V.V.v.4.] N c c m E E E E E E c h k E { -.:.",
"(.(.(.(.(.`.|.(.U.m.m.D.).1X0X7X1X4X4X1X-X|.(.^.(.(.(.(.(.(.(.(.(.(.(.W.Q.m.3.} g > @ # 8 J =.j.x.c.G.G.c.w. .! E E ! ! ! ! ^ ^ ! v g g m ] =.:.",
").).(.(.(.^.E.T.D.D.D.T.).*X3X3X4X7X0X0X,XoX(.^.(.(.(.(.(.(.(.(.(.^.T.D.z.7. .Q h 1 @ $ 8 J $.y.x.V.H.H.Z.l.<.[ R R ^ ] ] ] [ ] ! c g p c R @.-.",
"`.|.|.`.(.T.D.N.D.D.T.^.(.|.+X,X4X0X0X7X,XoX(.^.(.(.(.(.(.(.(.(.(.T.D.a.2.[ ^ ! N h 5 1 w y ] 4.l.V.H.L.G.l.4.O._ R ^ ] { $.#.[ ! c p p k E ] @.",
"(.(.(.`.(.T.D.m.D.T.(.(.(.(.|.-X1X7X7X1X-X|.(.^.(.(.(.(.(.(.(.(.W.Y.m.u. .! W ! ! N k g g c ! >.w.c.G.G.c.l.6.=.` R ! ] $.=.=.' ! c g g k N ! ^ ",
"U.T.^.(.(.E.D.D.I.^.|.|.(.(.(.oX-X,X,X-X+X`.(.(.(.(.(.(.(.`.|.`.(.Y.n.7. .! E E E E N M M N ! | 2.w.l.l.l.k.j.6.#.^ ! ] $.-.-.$.] E c x c U W ! ",
"m.D.I.^.`.`.^.T.^.`.|.|.(.(.(.).|.oXoX|.`.(.(.(.(.(.(.(.(.|.|.|.(.Y.m.u.>.! U c c c N Q ! ! ! ^ | >.>.<.5.j.k.l.9.| ! ~ @.-.;.=.@.] T N U E ! ! ",
"n.m.D.T.(.|.(.(.(.(.(.(.(.(.(.(.(.(.(.(.(.(.(.(.(.(.(.(.(.(.(.(.W.Y.m.u.>.! c g g k m ! ^ ^ ! ! W ! ~ ` =.h.x.c.w. .! R ` =.;.;.=.@.] ! W ! ! ! ",
"m.D.D.U.T.^.^.T.T.U.U.T.E.(.(.(.(.^.^.^.(.(.(.(.(.(.(.(.(.^.U.U.Y.J.m.7./ y 9 6 p h c E W E E m N E Y ` &.h.V.G.e...! Y _ =.;.:.;.=.[ ^ ! ! ! ! ",
"T.T.U.D.D.D.D.D.D.m.m.D.U.^.(.(.(.^.^.^.(.(.(.(.(.(.(.`.(.U.S.m.N.G.x.,.L 7 - 3 g h k x x x k x n E ~ ` &.h.V.G.e...W Y _ =.;.:.;.=.{ ^ ! ! ! ! ",
"|.(.T.D.m.n.n.m.n.n.m.D.T.(.`.).(.(.(.(.(.(.(.(.(.(.(.`.(.U.S.m.C.P.c.,.e # @ , g z j g a p g k N ! [ O.=.y.x.c.w. .! R ` =.;.;.=.@.] ! ! ! ! ! ",
"OX`.E.D.n.z.n.m.D.D.D.E.).+XoX`.(.(.(.`.`.(.(.(.(.(.(.(.(.E.U.J.R.R.G.>.9 @ @ > g h g p 6 p p k U ^ [ @.$.5.j.l.8.>.] _ $.-.-.=.@.] E m m E ! ! ",
"OX(.T.D.n.n.D.U.T.^.).=X,X,X*X|.(.(.(.|.|.(.(.(.(.(.(.(.(.).).oX:X:XT.q.x > & 1 g j g g p p g k E ^ ] [ [ #.4.6.4.$.@.$.=.-.=.#.] E x k c U ! ^ ",
"|.(.T.D.m.m.U.(.+X>X1X7X7X1X-X|.(.^.(.(.(.(.(.(.(.(.(.^.(.|.*X1X0X5X(.s.} g 4 6 g g g g g s g x U ! ! ! ! ] @.=.-.=.=.=.=.=.$.' ! v g g k N ! ^ ",
"OX(.T.D.n.N.W.+X7XqXqX0X4X,X+X|.(.^.T.T.T.^.(.`.|.`.(.(.(.|.+X1XqX7X+XF.q.( b k k h g g p p g h v m N N N T ] $.=.-.-.=.=.@.' [ ! n g g k N ! ] ",
"#X|.T.N.n.N.(.3XwXwX0X1X*XoX|.|.`.E.D.D.D.T.(.|.|.|.(.(.(.(.).+X3X7X>X(.A.q.| ! N k g p p p p g h k k z z N ! { *.-.-.=.{ ] ^ ^ ! N h g k E ^ ] ",
"|.(.U.D.m.D.).1XqX0X1X*X|.(.(.(.(.T.D.m.D.T.(.|.).(.(.(.(.^.^.(.+X>X1X=XR.c.8.>.! v h g g g g g g g g s g k n ! ' =.=.$.] ! ! ! ! m h g k N ! ^ ",
"T.T.I.D.D.E.oX3X4X3X*X|.(.^.^.E.T.I.D.D.D.E.(.(.T.U.T.^.`.(.(.(.OX>X1X:X&XH.v.4.[ T v c x x c k g s 6 4 3 < w y Y ' *.#.] ! E E U c 9 5 q c U T ",
"m.D.D.U.^.|.+X*X+X+X`.).(.^.T.D.D.D.D.T.^.(.(.T.D.m.D.E.|.OX`.`.OX#X>X=X&XH.v.4.$._ R E W W E N z g 4 ; $ # # - e Y { >.[ ! U B k q < - < q k b ",
"n.m.D.T.(.|.).(.(.(.(.(.|.(.T.D.m.N.U.(.|.|.(.U.N.m.D.T.(.`.).(.(.`.(.E.J.c.j.6.=.' ~ ! ! ! ! E b g 3 = #     # 7 y ! ] ] ! N b g 1 $ # * 3 g j ",
"m.D.D.U.T.U.U.D.U.E.(.|.OX`.T.M.n.M.T.|.OX|.(.T.T.D.D.I.U.U.T.U.U.I.D.m.z.l.j.6.;.#.R N n N E N c g 5 : * # $ * : 9 y I E E M Z g , + O % 3 g l ",
"T.T.U.D.N.n.n.m.D.T.`.+X+X`.T.m.n.M.T.(.|.(.(.).oXoX^.D.m.m.m.M.m.z.i.5.5.5.6.r.;.@.E h g h k k h g q 5 3 3 5 5 3 < 7 9 t b M Z g 3 # O % 3 g V ",
"|.(.T.D.m.z.z.m.D.T.(.|.|.(.U.N.m.D.T.(.(.(.(.+X1X1XoXT.m.n.m.m.a.5.=.+.+.=.;.;.=._ m g p p g g g g g g g g j g 3 * # * 3 g l l g 3 % # * 3 g j ",
"OX|.^.T.D.D.D.Y.T.U.U.T.T.T.I.D.N.D.T.(.(.(.(.oX3X1X*XW.J.J.Y.D.a.<.%.P O.+.=.@._ R N c k h g g g g g j l l j q : +   o = 3 6 0 3 < = = ; < 3 0 ",
"(.(.).).].=X=XoXW.D.m.m.D.D.D.D.D.I.^.`.`.(.(.).|.+X+XoX].=X;X).A.1./ P O.&.{ T m m R _ ^ E v k g g g l l g 5 : # o   o $ * * % % = 2 4 2 ; * % ",
"^.(.|.*X1X0X0X1X].Y.m.n.n.m.n.n.m.D.T.(.`.`.(.^.^.(.|.+X1XtXtX1XF.q.! ~ O.=.] c g c _ =.-.@.! v h g g g g 5 - # O O # # # # O O # , f d p ; # X ",
"^.(.|.*X1X0X0X1X*X^.D.M.n.z.a.i.i.z.D.T.(.`.`.(.^.^.(.+X1XuXiXqX~.0.E Y +.-.[ k p k _ :.g.;.' E k s 6 5 3 - # o # - : - % O o + ; p V C d 2 $ o ",
"(.(.`.|.+X+X+X+X*X*XoXW.D.z.t.-.=.5.a.D.E.).|.`.(.^.^.(.+XqXuXqX~.0.U K O.-.{ c p k _ :.g.:.$.! c p 4 ; % O   O - 5 q 3 * O + ; i V A A C s 2 & ",
"(.(.(.(.(.^.^.(.+X3X1X*XE.m.i.-.=.5.i.m.I.^.(.(.(.(.^.^.(.-XqX1X~.q.! ~ O.=.] c g k R =.:.:.=.] N g 4 = # O   # : q g 0 - # $ 2 d S D F A C d f ",
"(.(.(.(.^.E.T.^.|.>X3X-X).D.n.p.i.i.a.n.D.D.T.^.(.(.^.E.^.|.-X*XU.s.>.@.#.@.! c g k T { -.;.=.{ Q x q < * # O # - 3 5 3 * # $ ; p C D F F A C C ",
"(.(.(.(.(.^.^.(.).oX+X|.(.T.U.D.D.m.m.n.n.m.D.U.^.(.(.(.(.`.OX|.E.M.w.4.#.] N h g h m ] $.-.=.$.] E x q 3 ; $ # % * - - % # o # ; g S F G F A S ",
"(.(.(.(.(.(.(.(.(.(.(.(.(.(.(.`.(.T.D.m.z.z.m.D.T.(.`.(.(.(.(.(.W.P.c.8.,.! c g g h v ! ' =.=.$.' ! N z g 5 * # O O # # $ # o   # 5 C F H G F D ",
"(.(.(.(.(.(.`.(.(.^.^.^.(.|.+X%X#X).U.m.z.z.n.D.T.(.|.`.(.(.(.^.W.R.H.l.>.E c g g h c E [ $.=.$.@.^ Q M j 6 ; # o   o O # #   . X < V F H H G F "
};
