/* XPM */
static char *result[] = {
/* columns rows colors chars-per-pixel */
"72 72 222 2 ",
"   c #4A010D",
".  c #4B0611",
"X  c #4D0B16",
"o  c #4D0E19",
"O  c #510D17",
"+  c #4E121C",
"@  c #51141D",
"#  c #5C161C",
"$  c #441524",
"%  c #4D1621",
"&  c #4D1B24",
"*  c #521720",
"=  c #531A22",
"-  c #581F26",
";  c #4F252B",
":  c #4D232C",
">  c #542027",
",  c #5E2226",
"<  c #54242A",
"1  c #59252B",
"2  c #55292E",
"3  c #59292E",
"4  c #4E2E36",
"5  c #552C33",
"6  c #592D33",
"7  c #533235",
"8  c #5C3236",
"9  c #55363A",
"0  c #5C3539",
"q  c #553A3D",
"w  c #5D3A3D",
"e  c #652929",
"r  c #67332F",
"t  c #633233",
"y  c #623B3B",
"u  c #683838",
"i  c #723933",
"p  c #723E3B",
"a  c #65433E",
"s  c #6B423E",
"d  c #75423C",
"f  c #7C443A",
"g  c #7B4A3C",
"h  c #563A40",
"j  c #5C3D41",
"k  c #603E41",
"l  c #5D4143",
"z  c #584647",
"x  c #5B4A4B",
"c  c #5C5351",
"v  c #634343",
"b  c #6B4643",
"n  c #664847",
"m  c #6E4944",
"M  c #634749",
"N  c #654B4A",
"B  c #6C4C49",
"V  c #754641",
"C  c #734C44",
"Z  c #794E45",
"A  c #734E48",
"S  c #6A524E",
"D  c #765146",
"F  c #7C5246",
"G  c #74514A",
"H  c #7D5349",
"J  c #634F52",
"K  c #655456",
"L  c #625A5A",
"P  c #685859",
"I  c #7D5651",
"U  c #64615F",
"Y  c #656663",
"T  c #696767",
"R  c #6C6565",
"E  c #6D6966",
"W  c #6D6A6A",
"Q  c #716C6D",
"!  c #6C726D",
"~  c #70726E",
"^  c #716F70",
"/  c #6E7370",
"(  c #737373",
")  c #727A76",
"_  c #767C7A",
"`  c #787E7C",
"'  c #864A38",
"]  c #834D3C",
"[  c #87553E",
"{  c #8B523B",
"}  c #915735",
"|  c #945A3B",
" . c #9A623E",
".. c #834B40",
"X. c #835445",
"o. c #895543",
"O. c #865A43",
"+. c #8B5945",
"@. c #845549",
"#. c #895749",
"$. c #84594D",
"%. c #8C5A4A",
"&. c #925D45",
"*. c #995E43",
"=. c #925D4B",
"-. c #875A50",
";. c #8F6148",
":. c #946246",
">. c #9B6544",
",. c #9F6947",
"<. c #94624B",
"1. c #9B644A",
"2. c #9D694A",
"3. c #876358",
"4. c #946452",
"5. c #9A6452",
"6. c #996A57",
"7. c #A46744",
"8. c #A46B45",
"9. c #AA6D44",
"0. c #A56C4B",
"q. c #AA6D4B",
"w. c #AA7247",
"e. c #AD734A",
"r. c #B37348",
"t. c #B3764C",
"y. c #B6794D",
"u. c #BA7D4D",
"i. c #A46C53",
"p. c #A56B55",
"a. c #A87457",
"s. c #AC745B",
"d. c #B47C53",
"f. c #BB7C53",
"g. c #B3755B",
"h. c #B77959",
"j. c #8F7062",
"k. c #A97A62",
"l. c #B47A63",
"z. c #BB7C62",
"x. c #C17F56",
"c. c #C27E5A",
"v. c #76827D",
"b. c #78837E",
"n. c #B58057",
"m. c #BE8155",
"M. c #B68159",
"N. c #BA845B",
"B. c #BD885E",
"V. c #AA8168",
"C. c #B98565",
"Z. c #BE8B62",
"A. c #B28C6F",
"S. c #B68870",
"D. c #BD9578",
"F. c #C4825B",
"G. c #C7865B",
"H. c #C58662",
"J. c #C88665",
"K. c #C28E65",
"L. c #CC8B63",
"P. c #C68D6C",
"I. c #CE8C6B",
"U. c #D18D64",
"Y. c #C49165",
"T. c #CC9364",
"R. c #C6946B",
"E. c #C8976E",
"W. c #C7986F",
"Q. c #C8986F",
"!. c #D2946C",
"~. c #D5976C",
"^. c #D18E70",
"/. c #CB9C73",
"(. c #C89878",
"). c #D49975",
"_. c #D69974",
"`. c #DA9D7A",
"'. c #E09F74",
"]. c #CDA077",
"[. c #CFA279",
"{. c #D2A276",
"}. c #D1A57C",
"|. c #DBA37C",
" X c #D3A87F",
".X c #DAAA7D",
"XX c #E4A57D",
"oX c #7A8681",
"OX c #7A8B85",
"+X c #7B8C84",
"@X c #7C9087",
"#X c #7E928A",
"$X c #80938B",
"%X c #819D92",
"&X c #CB9F80",
"*X c #CBA484",
"=X c #DAA684",
"-X c #D6AD84",
";X c #DAAE84",
":X c #D6B087",
">X c #D9B087",
",X c #D7B188",
"<X c #DBB38A",
"1X c #DEB88E",
"2X c #DFB990",
"3X c #E2AD84",
"4X c #E3AD88",
"5X c #E7B58A",
"6X c #E2B58D",
"7X c #E2B98E",
"8X c #E6B792",
"9X c #E5BC93",
"0X c #E9BD94",
"qX c #F1BF93",
"wX c #E7C096",
"eX c #EAC196",
"rX c #EBC39A",
"tX c #ECC69D",
"yX c #F4C99A",
"uX c #F2C99E",
"iX c #F2CAA4",
"pX c #FFD6A2",
/* pixels */
"+X+X+X+X+X@X@XOXv./ ( ( _ _ Q L c z z c U ! b.$X%X%X%X%X#X#X+X@X+X+X+X_ ( Q ( ( _ ~ Y c q > @ X X @ @ = = @ O + > q c T ) oXOX#X#X#X#X+Xv.~ W R ",
"+X+X+X+XOX@X+XOXb.) ( ( ( ( E P z z z z c Y ^ ` oXOXOXOX+X+X+X+X+X@X+Xb.) ( ( ( ( W L x 9 < @ @ @ @ = = = @ @ = < 9 x c W ( ` oX+X@X#X@Xv.) ( Q ",
"+XOX+Xb.oXOXOXOX+Xb._ ( ^ R L x q 9 7 q x J P R E W ( ( ) v.v.oX+X@X@X+X` _ ( ( W L c q 7 < < < 1 < < @ @ @ = > 2 7 9 l J P E / _ b.OXOXb.oXb.v.",
"oXoXv.v._ oXOXOX+Xb._ ( R L x 0 5 > > < 5 0 k k k l N L Y ! ( ` +X+X$X+XoX_ ( Q L x q 2 2 2 8 y 0 8 3 = @ = 6 8 7 2 : ; 5 0 M L Y / _ oX+X#X#X#X",
"( ( ^ ^ ( ` oXOXOX` ( T c x 9 < @ @ @ # = = = @ @ * < 9 x L T ( _ +XOXoX` ( R L x 7 > & - 8 v N N a 8 = = < w a k 3 * O @ * < 7 x L T ^ v.b.+X+X",
"K K P P T ) oXoX_ E K N x z 7 = @ @ = - = o .     . + & 5 z L W / ) ) ! R P N l 7 ; o X = 0 n S S n 0 2 > 6 j n b r e # O . o & 7 h x K P R E E ",
"6 8 j z L / v.v.E M 6 6 w l 0 = @ = 3 6 3 = X . . O o + > 7 x c Y Y Y K l 8 5 2 < @ X @ = t n S S n w 0 0 0 l v C V p r = X X % > 5 6 8 y 0 0 0 ",
"@ * - 5 x Y ( ( P 8 = = 8 v w < = > 0 v y 2 = + @ = @ @ @ 2 q x c c x h < * @ * = @ + @ 1 w v v v v a v v w w v Z -.#.] r % o + * = * = = = = = ",
". X + & 7 J Y R N 6 * - 0 v y - % > w n n 0 1 = - = @ @ @ > 2 q l q 7 2 @ o X X O @ > 1 8 0 w l k v n m C n j j A %.4.X.u < & % @ @ O X o @ @ = ",
"X X X + & 8 M N M 0 6 6 y v 8 - + - 0 n n v y 3 > = @ + @ = > < ; ; ; & @ @ X X + = 3 y w j h j w k C H @.A v a C $.%.$.b 8 : & * O . O @ > 3 8 ",
"= = @ @ = < 0 b M k v M M v 8 - = - 6 v B n v 8 < = + = = = @ @ = = @ = = = @ @ = 1 0 a n v v j j v C @.%.H b v b X.#.-.G v 8 < * o o = 3 y v n ",
"3 2 1 > > 1 8 w b A A G B k 7 2 < < 8 j M N n w < = + @ = @ @ @ @ @ @ @ = = = > < 6 q v B F D b v j m o.1.+.C a b H =.=.-.G y < * + % < 0 v n B ",
"w 0 t 0 8 8 0 y b H $.H B k 0 7 8 8 0 j v N v y 1 = + * @ = + o O @ @ @ * = > 3 0 w h l A <.:.O.v j b &.8.1.Z b M H <.6.4.$.p , + + < 0 l l v n ",
"v a v v v j j v C @.%.X.C v j l v v l v v v v 0 1 = + @ = = = = = = = @ @ = 1 0 v l j v F 8.e.>.Z v C >.e.2.D v v Z %.1.5.%.d e = = 7 v n b v v ",
"x v v n n v j v C @.%.#.C b n m A C C m B n k 8 > @ + @ = > < < > = @ + + = 1 y n M l C +.w.u.9.O.D O.e.d.0.D h 7 u d ..+.$.d 8 > 5 y B A n l w ",
"l l v v n v l v C @.%.#.F Z Z H $.@.@.X.G m v 7 - @ X o @ 1 0 0 6 > @ X o * < w v B B Z =.e.y.w.>.<.0.h.f.a.H h : > e i V D b w 8 y C H H b b w ",
"v v k v v v j v m F %.=.%.%.#.#.%.=.#.%.@.A k 8 < = o o = 3 y v 0 6 * o o * 2 8 v A H %.1.q.e.w.8.r.m.L.J.l.-.M : & = 2 8 k M j v C @.%.@.C v h ",
"m m b b k y j j m X.:.2.i.0.5.%.#.=.=.=.@.C v 0 6 < = @ = 1 w v n y 1 * * * < 8 v G $.=.=.1.2.7.w.u.U.`.=X(.k.-.k 2 & & < 0 j M B $.<.:.o.C l h ",
"X.X.Z b v h h l m [ 7.t.h.h.g.5.%.#.%.=.@.C v j w w 3 = = < y b N n w 6 = = : 7 N G %.=.=.=.=.1.q.c.~.3X6X4X(.l.=.k 6 & & 1 6 k H <.e.8.+.Z j 9 ",
"=.%.@.C v q h v Z &.e.F.U.I.z.p.%.o.#.%.@.m v l l b t > = = 6 v B n v 8 - = - 6 v G $.%.+.o.%.1.h.I.|.5X0X5XXXI.g.-.k 2 % * e p %.i.t.w.:.D v q ",
"=.%.@.C k h j m ..*.f.U.'.`.R.a.&.o.%.#.H b k n N v 0 > @ = 6 k v v y 6 = * * > 8 b Z Z X.O.:.a.I.=X4X8X8X4X'.U.l.4.A 6 $ @ , f ,.y.n.w.:.X.C k ",
"1.=.F b w j v H =.q.c.~.3X6X/.n.>.| +.#.H b v v N v 0 = @ = 6 j l w 3 - * @ + * > 6 y C F ;.0.Z.|.8X0X4X=X!.L.c.s.4.@.u * + e ' 8.m.m.w.2.#.@.Z ",
"=.=.F C v v C %.i.h.I.XX8X0X.XY.e. .*.%.H b v v v v 8 - = < 0 k w < * + % * * * % - 8 v D | e.L.;X9X8X=XI.c.t.q.0.2.%.k - * e } e.m.u.e.>.=.%.@.",
"=.%.@.Z C C ] 1.g.J.=X8XiXtX<X~.x.q.*.=.H m v l v a 0 2 > 8 b m u - o o = 1 1 < - : 4 h a [ 8.G.).;X.X!.c.r.9.7.0.e.*...t 1 r ' 0.f.u.t.8.1.%.$.",
"%.%.%.#.X.o.| 7.M.).9XiXiXuX7X|.L.h.p.=.F b v v v v w 8 0 a F X.d > o + < y y y 8 4 9 q v g =.a.B.T.Y.G.y.e.8.8.w.t.w.+.s 0 y g <.e.u.y.q.1.%.@.",
"%.%.%.%.%.&.*.e.G. X0XtXtX9X6X`.U.h.i.=.Z b v v v v l w v G $.%.f e = = 7 v n n v k j v m A %.1.w.w.w.r.e.e.e.e.t.y.e.:.Z a v C %.8.q.e.0.<.%.@.",
"#.#.H Z H %.q.m.T.{.;X<X.X.X|.Q.z.l.=.Z b v j q q q w v A I %.%...i 3 5 9 l v v n V Z @.-.4.5.*.&.| | >.8.0.t.y.u.y.9.;.G N B G +.=.<.:.&.:.&.:.",
"+.X.V v b $.l.U.~.~.Y.Y.Y.K.H.B.l.5.H b j j h q 9 q a B H -.=.%.o...d u w j j v V #.5.s.z.z.g.p.*.{ ] O.:.i.y.f.u.e.1.@.C N A $.%.$.Z C F ;.,.8.",
"<.%.Z a v H k.I.U.F.e.9.w.e.8.>.#.Z m k k v n a l v C H %.=.+.%.%.%.%.F m v v C %.p.z.I._.~.I.z.5.%.@.@.%.1.0.e.q.1.%.A v v C @.%.F n a Z <.r.u.",
"s.p.4.F C -.p.l.h.7.} } | | ' d t t y A Z F F H $.-.%.<.:.&.&.&.<.i.i.6.$.H @.4.k.P._.XX3XXX_.P.C.6.4.$.@...{ { +.#.@.b y 8 y V D D b b O.8.u.F.",
"J.z.l.i.<.<.<.6.=.o.] { | ] i # + - u $.<.2.2.i.s.l.l.a.8. . .,.q.h.z.h.a.a.V.A.&X;X6X5X5X3X.X}.(.D.k.6.o.i r e u C A b t 1 > y n D F +.0.h.H.J.",
"^.^.J.f.e.,.:.%.+.#.%.<.4.%.d , = 1 p %.2.2.e.d.J.I.H.h.e.7.9.e.f.J.I.I.Y.T.{.<X0XqXrX0X4X3X-X:X,X,X(.k.=.i - = > 0 k y 1 * % 5 a F :.w.x.J.I.^.",
"J.J.G.u.r.7.*.=.6.6.k.V.l.k.6.%...k d Z o.:.8.f.G.L.J.x.d.t.d.N.K._.`.`.|..X5XeXuXuXeX2X,X,X,X1X2X1X XA.6.f e = & : : : & % & 8 d O.w.x.G.~.).).",
"f.u.r.w.9.7.q.g.z.P.*X*X*X*X(.(.S.6.A k u g =.q.f.f.x.c.c.H.Y./.{.;X6X6X5X5X0XyXtXeX9X<X,X-X<X<X2X1X>XQ.M.2.g u 1 = $ $ $ : 6 d { 8.y.F.!.`. X*X",
"e.e.w.8.r.r.c.I.=X4X9XwX0X0XyXyX0X(.3.M w C %.1.8.e.f.F.U.).}.;X<X9X9X0X0X9X0XwX9X8X>X-X-X-X-X:X:X-X.X{.Y.B.a.+.p , * & 7 z F :.e.f.F.I.).=X-X:X",
"d.d.n.N.B.I._.XX4X0XrXrXwXtXyXpXiX,XV.3.H $.4.7.8.e.N.^.`.=X<X1X9XwXeX0X0X7X7X6X1X<X-X-X[.[.[.[.].].{.{.{.].A.V.=.' i p I j.V.Z.T.U._.`.=X-X-X-X",
"W.W./.[. X;X5X6X8X5X8X7X1X1XwXwX9X1X*XD.S.l.g.g.g.N.R.}.6X8X8X9XwXwXwX0X2X<X<X:X,X<X-X-X-X/.W.R.R.R./.}.-X-X X(.C.i.0.a.A.*X*X:X;X.X4X5X<X-X:X-X",
"-X-X;X1X0XeX0X0X6X<X-X-X-X-X X-X-X1X9X0X4X_.I.J.H.R.].<XwXeXeX9X0X0X0X7X<X-X-X X-X-X<X-X}./.R.Y.Y.R./. X-X<X<X-X].W.R./.;X9XeXwX9X0X0X0X6X<X-X X",
",X<X1X9XwXrXwXwX1X:X X X[. X[.[.[.<XwXyXqX5X|._./.]. X<X9XwXeX0X9X9X6X<X-X X X-X-X-X-X}.]./.Q.R.R././.[.-X<X1X>X:X.X.X.X5XeXeXtXtXrXwX9X1X<X-X X",
",X<X<X<X1X7X1X1X>X:X*X X-X-X*X-X X<X<X9X0X5X5X;X.X X X:X<X9X0XeX9X1X:X-X X-X-X:X-X-X[./././.[.}.[.[.[.-X-X:X<X<X:X:X.X.X.X.X3X0XrXwX9X<X-X-X-X-X",
"-X-X-X-X-X-X-X;X-X-X-X-X-X-X-X-X:X-X*X:X<X7XwX7X<X:X X X-X<X9X0X9X<X-X-X-X-X-X<X-X[.Q.R./.[.-X,X:X-X-X-X-X-X-X-X:X:X-X].W.R.].>X0X9X<X-X-X-X-X-X",
"-X-X-X-X*X}.[.].[.-X-X-X<X-X-X;X-X X}.}.,X9XwXwX6X-X X X X:X<X<X<X;X-X-X-X-X-X-X[.Q.Y.Y.R.}.:X<X<X-X-X-X-X-X}.-X:X<X:X].Z.C.R..X9X0X<X-X*X[.-X-X",
"-X-X-X-X X[./.Q./.}.-X<X-X-X-X;X-X X X X,X9XrXwX6X:X-X X-X-X<X<X<X-X*X-X-X-X X]./.R.H.Z.W.}.-X<X<X-X-X X-X-X-X-X>X1X:X].Z.B.W.;X0X0X<X-X X X-X-X",
"-X-X-X-X:X[.Q.R.Q.[.-X-X:X-X-X-X-X-X X-X<X9X9X9X<X-X*X}.-X-X-X-X X-X-X;X:X-X}./.R.Z.Y.W./.}.-X<X-X-X-X-X-X-X-X-X:X>X.X[.W.R.).>X0X9X1X-X-X-X-X-X",
"-X-X:X<X<X}.E.Y.R.[.-X:X-X-X-X-X-X-X-X<X<X<X7X<X-X-X-X-X-X-X-X-X-X-X-X<X-X-X}.].W.R.Q./.[. X-X-X,X-X-X-X-X-X;X-X-X X}.].[.}..X<X7X1X<X-X-X-X-X:X",
"}.-X:X<X:X}.Q.R.R.[.-X<X:X-X X-X-X-X-X<X<X<X>X<X-X-X-X-X-X-X-X-X X-X-X-X:X-X X}.[.[.[.}.}.-X-X-X-X<X-X-X-X-X:X-X}././.]..X<X6X6X<X-X-X-X-X-X<X<X",
"-X-X-X<X-X[.Q.R.W.[.-X:X-X-X-X-X-X-X-X-X-X-X;X-X-X-X-X-X-X-X-X-X-X-X-X-X-X-X-X-X-X-X-X-X-X-X-X-X-X-X-X-X-X:X,X-X].W.R.).<X0X9X<X-X-X-X-X-X-X-X-X",
"<X-X-X X[.Q.Y.R./.}.-X<X<X-X-X-X-X-X[.[.[.}. X-X-X-X-X-X-X-X-X<X:X-X-X-X-X-X-X<X<X:X<X-X:X-X-X X}.}.}.-X-X:X<X-X].Y.K./.<X0XwX<X-X[.-X-X-X}.[.[.",
"<X,X-X/.R.Y.Z.R./.}.,X<X-X-X-X-X-X}.Q.R.Q.].-X-X-X-X-X-X-X-X<X-X<X-X-X-X-X-X-X-X,X-X-X-X-X-X-X[./././.}.-X<X<X:X].R.K.Q.-X1X9X:X-X-X-X-X}./.W.R.",
",X-X}./.R.Y.K.R./.[.-X-X:X-X-X<X;X}.Q.R.Q.}.-X:X:X-X-X-X-X-X-X-X-X-X-X-X-X-X-X-X-X-X-X-X:X;X-X}.W.R./.[.-X,X<X-X[.W.R.W.[.-X<X-X-X-X,X-X[./.R.K.",
"[.[.}.}.)././././.[.[. X-X-X:X<X:X*X}./.}.-X<X<X<X:X-X-X-X-X-X}.}.-X-X-X-X-X-X-X-X-X-X-X-X<X<X}.W.Y.R.].-X-X-X-X[.]./././.[.[.-X-X<X<X-X}././.R.",
"R.W.). X;X<X-X[.[././.].}.-X,X-X;X;X;X>X>X5X6X6X<X:X:X-X-X}./././.}.-X-X;X-X-X-X-X-X[.-X<X7X6X;X/.R.R.].-X:X-X-X-X[.[.[.W././.}.-X-X<X-X-X[.[.[.",
"Z.R./.>X0XeX2X-X].R.R./.}.-X-X-X-X>X6X0XrX0X0X6X<X-X-X,X-X[.R.R./.[.-X:X-X-X-X-X-X-X[.-X1X9X0X<X/.R.R.].-X<X:X-X-X<X-X[.W.R.R.}.-X<X-X-X-X-X-X-X",
"R.W.}.<X0XeX9X<X].R.K.R.[.-X-X-X}.-X1X0XtXtXeX6X X[.[.-X-X[.R.K.R.[.-X<X,X-X-X-X-X X-X<X8XtXeX<X).R.R.}.<X1X<X<X<X<X<X}.W.R.R.[.-X,X-X-X-X:X-X<X",
"].[. X;X1X2X1X-X[.R.Z.R.[.-X}.[./.[.-X2XeXtXeX<X{.R./.}.-X[.R.K.R.[.-X<X;X-X-X[.-X-X<X9XrXuXrX3X/.R.R.}.<X0X8X7X9X<X<X[.R.R.Q.[.-X-X;X-X-X-X-X-X",
"-X-X-X-X-X-X:X-X[.R.R./.-X-X[./.R.R./.-X9X0X0X<X/.R./.}.-X X/.R.Q.[.-X,X-X-X-X-X-X;X1X9XeXtX0X;X/.R./.;X0XrXeX0X9X<X-X[.Q.R.Q.}.-X<X:X-X-X-X-X-X",
"<X,X-X-X[.-X-X-X}.]./.[.-X-X X/.K.K.R.[.-X1X6X;X/././.}.-X-X}.}.[.}.}.-X-X-X;X<X1X1X9X8X9X1X;X}./.Q.}.6XeXuXtXwX1X:X[.W.R.R.R.}.<X<X-X-X-X-X-X-X",
"-X,X-X-X-X-X-X-X-X}.}.-X-X<X-X/.R.K.K.R./.-X;X-X X[.[. X-X<X<X-X X}.}.}.}.-X<X9X0XwX9X1X-X}./././.}.<X7XtXtXeX2X<X}./.R.K.R./.}.-X<X,X-X-X-X-X-X",
"-X-X-X-X-X-X-X-X-X-X-X,X:X-X[./.R.K.K.R./.}.-X:X-X-X-X-X-X,X:X-X}.R.R.R.].-X<X9X0X8X1X-X].W.R.W.].-X1X8X0X9X<X-X[./.R.K.Y.R./.}.-X-X<X-X-X-X-X-X",
"-X-X-X-X-X-X-X-X-X-X-X-X-X[./.R.R.R.R./.[.-X-X<X<X<X-X-X}.[././.K.N.M.Z./.-X<X<X;X-X}.[.Q.R.R./. X<X7X6X>X*X].W.K.Z.Y.R.R././.[.}.}.-X-X-X-X-X-X",
"-X-X-X-X-X-X-X-X-X-X-X}.].R.R.K.R.R./. X-X<X,X<X<X-X-X[./.R.Z.M.e.9.e.N.W.-X-X}./.R.R.W.W./.[. X:X<X<X X).R.B.n.d.N.K./.[.}.[././.[.}.-X;X-X-X-X",
"-X-X-X-X-X-X-X-X<X<X-X}./.R.K.Y.R./.}.-X-X-X-X-X-X-X-X/.R.B.d.w.9.7.e.B./.-X-X[.R.L.Y.R./.[.-X,X:X-X}.].R.N.t.e.t.N.R.[.-X-X[./.R.R.[.-X<X-X-X-X",
"-X-X-X-X-X-X-X:X-X,X-X[./.W.R././.[.[. X[./.W.[.-X-X X/.Y.N.d.d.t.d.B.R.-X<X<X}./.E.R.Q.[.-X<X,X-X]./.R.Z.M.t.e.d.Z./.-X<X-X}.W.K.R.].-X:X-X-X-X",
"-X-X-X-X-X-X,X;X<X-X-X-X}.[.}.[.}.}.[./.Z.M.M.Y.[.-X-X/.Z.Z.Z.R.R./.{.;X<X7X9X6X;X X}.[.-X-X<X-X{.Q.R.R.K.B.M.N.Z.W.[.<X<X,X[.R.K.R.].-X<X:X-X-X",
"-X-X-X-X-X-X-X-X-X-X-X-X-X-X-X-X-X}.[.R.N.e.e.N./.-X-X/.R.R.].-X<X9X0X0X9X0X8X0X0X1X<X-X-X-X-X}./.R.R.R.R.R.K.R./.[.-X,X<X-X[./.R.R.[.-X<X,X-X-X",
"-X-X-X-X-X-X}.[.[.-X-X<X<X:X:X<X<X-X}.R.B.t.e.d.R.[.=X{.}.}.<X8XwXuXuXtX9X9X9X0XwX2X1X:X-X}.[.[./.W.W././././.}.}.-X:X<X-X-X}././.[.}.-X-X-X-X-X",
"-X-X;X-X-X[./.R./.-X:X<X-X<X-X-X:X:X-X[.R.Z.d.N.Z.R.}.;X6X7X9XwXeXuXtXwX1X<X<X<X1X1X<X-X}.[./././.}.}.}.}.}.-X-X-X<X:X-X-X-X-X}.}.}.-X-X-X-X-X-X",
"-X-X-X<X-X[./.R.R.}.-X-X-X-X-X-X-X-X;X-X}./.R.Z.Z.R.{.>X9XeXeX9X0XwX0X6X<X-X-X X-X-X<X-X[.R.R./.[.-X,X-X-X-X-X-X-X-X-X-X-X-X-X-X-X-X-X-X-X-X-X-X",
"-X-X-X-X-X}././././.[.-X-X-X-X-X-X-X-X<X-X-X[./.R./.}.<X8X9X9X7X<X6X6X<X-X X X[.-X-X-X-X}.R.R.R.[.,X<X<X;X-X}.}.}.-X-X-X-X-X-X-X-X<X-X:X-X-X-X-X",
"-X-X-X-X-X-X-X[././././.}.-X-X-X-X-X;X-X-X-X-X[.[.[. X<X<X1X<X<X>X<X<X:X-X-X-X-X-X-X,X-X}.R.R.R.[.,X<X<X-X}.]./.].[.-X-X-X-X-X-X-X:X-X-X-X-X-X-X",
"-X-X-X-X-X:X-X-X[./.R./.[.-X:X-X-X-X-X-X-X-X-X-X-X-X-X-X-X:X-X-X:X-X-X-X-X-X-X-X-X-X<X-X[.R.R.Q.[.:X<X<X-X[./.R./.[.-X-X<X-X-X-X-X-X-X-X-X;X-X-X",
"-X-X-X-X-X<X<X<X}.R.K.R.[.-X<X,X-X-X-X-X-X-X-X<X<X<X-X-X X[. X X*X X-X-X-X-X-X-X-X-X-X-X}.Q.R./.[.-X-X<X-X/.R.K.R.[.-X<X:X-X-X-X-X-X-X-X-X-X-X-X"
};
