/* XPM */
static const char *wall_38[] = {
/* columns rows colors chars-per-pixel */
"72 72 235 2 ",
"   c #4D0B16",
".  c #460B1A",
"X  c #4D0E19",
"o  c #4C0611",
"O  c #500D18",
"+  c #4E111C",
"@  c #51131D",
"#  c #4A010D",
"$  c #4E1620",
"%  c #4D1A25",
"&  c #451121",
"*  c #511720",
"=  c #531A23",
"-  c #551D25",
";  c #410F21",
":  c #4E222A",
">  c #552027",
",  c #55242B",
"<  c #58252B",
"1  c #55282E",
"2  c #5A292E",
"3  c #5B2227",
"4  c #4E2D35",
"5  c #552C32",
"6  c #5A2E33",
"7  c #502630",
"8  c #4D313B",
"9  c #543236",
"0  c #5C3236",
"q  c #55353A",
"w  c #5D3539",
"e  c #563A3D",
"r  c #5D3A3D",
"t  c #662A29",
"y  c #612F32",
"u  c #633334",
"i  c #613739",
"p  c #623B3C",
"a  c #6A3D3C",
"s  c #6A3734",
"d  c #723C36",
"f  c #72372D",
"g  c #65413F",
"h  c #6B423E",
"j  c #74453E",
"k  c #7A453D",
"l  c #7A4A3C",
"z  c #563A41",
"x  c #5C3E41",
"c  c #503640",
"v  c #603E41",
"b  c #5E4244",
"n  c #5B4A4A",
"m  c #574645",
"M  c #5C5452",
"N  c #5F4F50",
"B  c #634343",
"V  c #6B4643",
"C  c #664847",
"Z  c #6D4945",
"A  c #654B4A",
"S  c #6D4D4A",
"D  c #624649",
"F  c #724640",
"G  c #734B44",
"H  c #794E45",
"J  c #734D48",
"K  c #7A4F48",
"L  c #794640",
"P  c #6B524E",
"I  c #7C5246",
"U  c #75524A",
"Y  c #7C5249",
"T  c #7A584C",
"R  c #654E51",
"E  c #645355",
"W  c #695659",
"Q  c #635B5B",
"!  c #675758",
"~  c #65605F",
"^  c #656361",
"/  c #6C6465",
"(  c #6C6B6A",
")  c #6E6769",
"_  c #716D6D",
"`  c #706666",
"'  c #6E7270",
"]  c gray45",
"[  c #757A77",
"{  c #767B7A",
"}  c #787B7B",
"|  c #777778",
" . c #726F70",
".. c #6C5F62",
"X. c #8B523A",
"o. c #93583B",
"O. c #9A603C",
"+. c #A8693F",
"@. c #804D42",
"#. c #835445",
"$. c #8B5643",
"%. c #8C5B45",
"&. c #835549",
"*. c #88574A",
"=. c #85594B",
"-. c #8C5A4A",
";. c #865945",
":. c #925C44",
">. c #925E4B",
",. c #9B5F4B",
"<. c #875E50",
"1. c #89614D",
"2. c #936244",
"3. c #9B6444",
"4. c #9E6947",
"5. c #95614B",
"6. c #9B644B",
"7. c #9D694A",
"8. c #8A6659",
"9. c #946352",
"0. c #9C6551",
"q. c #9F6855",
"w. c #996A59",
"e. c #9C715F",
"r. c #A36B45",
"t. c #AA6D44",
"y. c #A46C4B",
"u. c #A96E4C",
"i. c #A26647",
"p. c #AC7246",
"a. c #AD734A",
"s. c #A4704E",
"d. c #B1764B",
"f. c #B57A4B",
"g. c #B97B4B",
"h. c #B47545",
"j. c #A46A53",
"k. c #A76C55",
"l. c #AC7252",
"z. c #A4725B",
"x. c #AC745B",
"c. c #AB785B",
"v. c #B37553",
"b. c #B57A53",
"n. c #BB7C53",
"m. c #B5755A",
"M. c #B47A5C",
"N. c #BC7B5D",
"B. c #BC7658",
"V. c #A87962",
"C. c #BA7D62",
"Z. c #B87E66",
"A. c #997263",
"S. c #C27F5A",
"D. c #C57F61",
"F. c #76817C",
"G. c #78827E",
"H. c #BE8056",
"J. c #B6825B",
"K. c #BB845B",
"L. c #BC875C",
"P. c #BD8264",
"I. c #BE8A62",
"U. c #B8876B",
"Y. c #B58C71",
"T. c #BE9475",
"R. c #AD8060",
"E. c #C28456",
"W. c #C4835C",
"Q. c #C8885C",
"!. c #C48462",
"~. c #CA8565",
"^. c #C28D64",
"/. c #CC8B65",
"(. c #C38B6B",
"). c #CE8C6B",
"_. c #C48669",
"`. c #D28D6D",
"'. c #D38F65",
"]. c #C49065",
"[. c #C6946B",
"{. c #CB936D",
"}. c #C9986E",
"|. c #CC9365",
" X c #D4916B",
".X c #C39473",
"XX c #CD9572",
"oX c #CB9C73",
"OX c #C69B79",
"+X c #D39472",
"@X c #D99572",
"#X c #D59A76",
"$X c #D49E79",
"%X c #DA9E7B",
"&X c #D99B74",
"*X c #CD8E70",
"=X c #CDA077",
"-X c #CEA279",
";X c #D2A47C",
":X c #DAA47E",
">X c #D3A87E",
",X c #D9AA7D",
"<X c #D6A276",
"1X c #E3A37D",
"2X c #7A8581",
"3X c #7B8C84",
"4X c #7E928A",
"5X c #7C9087",
"6X c #829D93",
"7X c #80958C",
"8X c #C8A283",
"9X c #D3A782",
"0X c #D6AD84",
"qX c #DAAD84",
"wX c #DCA784",
"eX c #D6B086",
"rX c #D9B087",
"tX c #DBB38A",
"yX c #DEB98E",
"uX c #D6B288",
"iX c #DDBA90",
"pX c #E3AB85",
"aX c #E3B48C",
"sX c #E3B98E",
"dX c #E6B58A",
"fX c #E5BC93",
"gX c #EABD94",
"hX c #E6B791",
"jX c #F3BB91",
"kX c #EAC097",
"lX c #ECC49A",
"zX c #E8C398",
"xX c #F3CC9E",
"cX c #F2C799",
"vX c #F0CBA2",
/* pixels */
"2X3X3X3X5X4X4X3XF.] _ ] } { ] ^ M n n M ~ ' 2X4X6X6X4X2X{ { G.3X4X4X3X2X{ { | } { ' ^ M e > +     + * * * * * +     * r / 2X4X7X7X4X4X3XF.| _ _ ",
"3X3X3X3X3X3X3X3XG.[ ] ] | ] ( Q n m m n E / ] G.3X3XG.[ ] | G.3X4X4X3XG.[ ] ] | ] ( Q n q , * @ @ * * * * * = * + X * w W ] 2X3X3X3X5X3XG.[ ]  .",
"3X3X2X2XG.2X3X3X2XG.{ | ] ( Q n e 9 9 e b R ! / _ _ ( ( ( ] { 2X3X3X2X{ ] ( ( ( ( ^ n r 9 1 < < < > - * @ * > < - @ @ < B ! ( ] [ G.3X3X2XF.{ | ",
"3X2XG.{ [ { G.3X3X2X} ] ( Q n 9 , - - , 5 w r v v B D E Q ( ] } 2X2X} ] / Q Q ~ Q N r 5 1 6 w p p 0 < * @ - 6 0 6 - @ * 2 r D Q ^ ' F.2X2X2X} { ",
"] ] ] ] ] { 2X3X3XG.] / Q n q > * @ @ * * * * @ @ * , q n Q ( ] { { ] / E n n n n e > * - 0 B A A B 0 - * > w B p 2 * X @ * , q n Q ( ] | | ] ] ",
"R W ! ) { 2X3X2X[ ` W D m z q < - - - - = @   o # o + : q n Q / ( ' / E b q 9 q q , + X = 0 B P P C r 1 > 6 p C B w < +   o X % 9 b R W W W E E ",
"< w D ..} 4X4XF./ D 6 5 0 r r w 0 u i 0 2 - +     X + + > q n Q ^ ^ Q n 9 > > > , * + X - 0 B A A C p w 0 r B C C b w > +     + > 5 6 0 0 0 6 6 ",
"  * 6 E ] 3X3X] E 6 * * 6 B C C B C C B w < * @ @ * @ @ * < e n M M n e < * @ @ * @ @ * < w B C C B B B B B B B C C B w < * @ @ * * * * * * * * ",
"#   - r W _ _ / D 5 * - u Z S A B D A C p < * @ * - * @ @ - 5 q z e q 5 > @ O O @ @ - < 0 a Z V B B B Z S Z B B C S J V i < - * @ @     X @ * - ",
"o   @ - 6 B R R B w 6 u j I Y Z B b D C r > @ + @ * * @ @ * > , 1 1 , > * @ O X + * < w V G I G V B Z Y I G V B V Y &.I V w 5 - @ O     * < 6 w ",
"* * @ @ * < w B B b B G *.-.*.G B b B B w < * @ @ * * * * * * * * * * * * * @ @ * > 0 B U =.-.#.Z B Z &.-.&.Z B Z #.-.=.U B 0 < * @ X * 2 w B C ",
"6 2 > - * > 0 r B C S T 5.6.:.I Z C B B r 6 < - * * * * * * @ @ @ @ @ @ * * - > < 6 e B T 5.6.*.V x V ;.6.-.G C Z #.-.-.T C w > * @ * < w B A S ",
"p i w 0 6 0 w r B Z Y -.4.y.4.>.#.G V B v r w 6 > * * * * * @ @ @ @ @ @ @ * > 6 w r z B T 4.u.5.Z x Z :.y.6.Y C Z #.-.-.U C 0 - @ * < w b B C C ",
"B B B B B B b B Z H -.6.u.a.u.6.-.H V B B B B w < * @ @ * * * * * * * @ @ * < p B b x B #.y.a.6.G B G 6.a.4.I B V I -.-.U B 6 - * > 0 B C C B B ",
"B B B A A C B V H -.j.v.n.b.d.y.>.I V B B A C p < @ X + * > < < > - @ + + * 2 p C A C G ;.r.p.4.;.H ;.y.a.3.j w p H -.-.U B 9 , > 6 a S S V B p ",
"b B B C C B V H -.j.N.~.Q.S.v.j.-.I V B B A C i > @ X X * 2 0 w 6 > @   X * < r C S J &.>.y.p.r.3.2.4.a.a.o.s < y k :.-.U B q 9 0 a G T Y Z B r ",
"B B B B B V H -.j.C.).@X@X).C.j.-.H V B B B B w < * X X * 2 p B p 2 * X @ * < w B S I -.6.y.a.a.a.a.f.g.a.X.t * 3 k -.-.U B r x B G *.-.&.G B x ",
"G Z B x v G -.k.P.+X%XpXpX:X(.z.*.L g x b B B p 0 < * + @ < r C C r 2 - * * > 9 x Z I *.6.u.v.n.n.H.E.E.d.X.t + - a &.<.U C b B S &.5.6.;.F b z ",
"*.I F B x J q.!.@X1XdXgXgXaXOXc.*.j p x x b B B v w < @ + - 0 C A C p 6 > = > 6 x C G &.6.l.N.W.!.!.Q.Q.f.X.t @ = i U T P Z V S I 5.y.r.%.G x c ",
"5.-.H B B I k.).1XdXfXlXvXfX$XV.-.j h B B B B C C B 0 > * > 0 B A A B 0 > * - 0 B Z I -.j.C.).+X+X)./.E.a.X.t * % 6 B C B B V H -.y.d.a.2.I B z ",
"6.>.&.G Z &.j.!.<XdXlXvXxXdXoXx.-.H L G Z B B C A C p 6 2 6 r B C B w < $ + - i G =.5.k.P.+XpXpX1X@X~.v.6.l u < : 7 5 4 7 6 a @.6.v.n.n.y.=.G B ",
"5.-.*.I H &.3.b.}.tXlXxXjX:X_.j.*.#.#.*.I Z B B B C B p p B C C B w < + . + > a *.9.x.!.#XdXgXjXpX@XC.9.I h r w 5 , % ; ; % u X.y.E.Q.W.x.6.*.H ",
"-.-.*.-.-.:.3.a.^.qXfXgXpX).m.6.-.*.-.-.&.G B x B B B B B C C B w < * X X * 2 j -.k.N.).:XsXfXhX1X).k.&.B x b B p 2 * . . * f X.a.Q. X).C.q.-.#.",
"*.*.-.5.6.y.u.v.^.:XaXwX).m.j.,.>.-.*.*.H V B x B B p p w r p w 6 < - - 3 t s j &.9.x.!.XX$X8XOX(.x.>.Z z z B Z F d f t t f d o.p.Q.&X#XU.w.&.j ",
"*.-.>.6.a.f.n.!.{.%X#X*XM.0.>.>.>.*.&.G V B x b B B p 6 < > > < 1 5 6 i j k k V Z I 9.k.c.V.V.e.9.=.G B x b Z I &.$.o.o.o.o.o.o.t.Q.<X;XY.8.G r ",
"*.-.>.4.a.n.!.).+X@X).C.q.-.*.-.-.&.G B x x B C C B w < * + @ * < 0 B U =.-.#.Z B V I -.5.>.-.I G B x x B Z I -.6.y.a.d.d.a.r.r.a.^.,X0XY.8.B 4 ",
"-.-.>.3.y.b.W./. X'.W.v.5.&.I I I G B x x B Z Z Z B w 5 - +   @ > p J <.9.9.=.J V B F H $.:.$.l g e q r V &.>.j.l.b.f.f.f.f.f.f.K.oXrXeXY.8.B 5 ",
"-.-.-.-.5.y.b.E.Q.E.n.a.5.*.H G V B x x B G &.I Z b r r 6 - + @ 3 d &.9.9.>.-.&.Y G G I :.i.r.%.Z x e g H >.x.N.S.n.d.p.p.d.J.I.oXqXsX0XY.8.G p ",
"-.-.*.*.-.5.y.a.d.d.a.y.6.-.I Z B x x B G *.-.*.G B b B B 0 - * t k -.5.5.-.*.-.-.*.*.-.6.a.a.3.I B v F -.k.!.)./.H.a.r.r.a.K.oX0XfXfX0XY.z.-.@.",
"-.-.-.-.-.-.:.2.2.2.2.2.6.5.;.G B B B G &.-.>.*.H Z S U U g 5 , y L -.5.>.$.$.:.:.6.0.j.k.u.r.%.H V F *.j.P.+X#X X!.v.t.t.v.^.=XtXfXfX0X.XM.j.6.",
"-.-.>.>.>.-.&.I G Z H ;.2.4.2.&.G G H &.*.>.>.*.&.I &.=.=.G p q p G -.6.4.3.O.O.i.u.m.N.m.j.:.l j L *.j.N.{.:X:X$X).S.B.B.W.{.;XtXyXyX0XoX_.N.B.",
"*.-.-.>.-.&.G B z z B I 4.a.a.6.-.*.*.-.-.-.-.*.*.-.>.>.*.I V B V H -.6.u.a.p.p.a.n./.).P.k.-.H I *.j.N.).%XqX0X>X#X).~.~.).+X;X0XtXtX0X;X+X).~.",
"*.*.&.#.L g r q 8 8 B =.s.H.E.v.y.5.>.-.*.*.*.%.:.2.:.:.$.#.H H H #.:.y.n.^.].].^.{.$X%XXXU.V.w.w.z.P.).#X:XqX0X9X;X#X+X+X#X$X;X0XeXeX0X;X$X#X+X",
"*.&.I F p 9 4 8 q r G 9.C././.E.a.4.5.-.=.&.&.:.4.r.3.$.@.#.$.:.o.o.3.v.[.,XrXrXqXqXqX0X>XOXOXT.T..XoX;X:XqXqX0X0X0X;X;X;X;X9X0X0X0X0X0X0XqX:X:X",
">.-.&.G B x x B V H -.k.!.)./.H.a.4.2.-.*.*.-.6.a.a.y.5.-.>.y.a.p.t.a.I.;XfXlXlXfXyXtX0X0X0X0X0X0X0X0X0X0X0X0X0X0X0X0X0X0X0X0X0X0X0X0X0X0X0X0X0X",
"j.0.9.9.8.8.8.8.w.9.j.m.!.!.N.a.4.o.:.:.:.>.0.l.b.K.J.c.V.Z.I.|.Q.L.L.}.tXlXvXlXhXaXqX0X;X<X,X,XtXyXyXtXuX0X0X0X0X0XeXeXeX0X0X0X0X0X0X0X0XeXeXuX",
"v.m.Z.U.T.8X8XOX.XP.N.N.n.b.u.3.$.X.o.3.i.l.m.P.[.oXoXOX$X9XqXrX,X=X=X>XtXfXfXaXwX%X%X$X{.^.^.}.>XtXyXtXeX0X0X0X0X0X0X0X0X0X0X0X0X0X0X0X0XeXeXuX",
"~.).#XwXfXlXlXfXaX%X).W.n.a.4.>.-.>.4.a.n.W.).+X;X0XtXhXfXgXkXfXsXtX0X0XeX0X;X+X).`.`.).W.d.a.J.}.0XyXtX0X0X0X0X0X0X0X0X0X0X0X0X0X0X0X0X0X0X0X0X",
"%X:XpXhXcXxXxXcXgXpX#X/.n.a.s.z.V.V.P.^.|.&X:XwXtXyXfXlXlXlXgXhXaXtXqX;X=X}.].W.W.S.D.N.l.3.3.l.(.;XqXwX:X;X0X0XeX0X0X0XrXtXtXtXtXtXtXtXqXqX:X:X",
"dXdXdXsXsXfXfXfXsXaX:X}.^.K.I..X8X9X0X,XqXaXdXhXfXfXkXkXfXaXwX:X%X%X$XXX^.L.H.n.n.n.v.j.>.$.:.j.I.#X:X%X#X$X0XeXeXeXeXeXtXtXtXtXtXyXyXtXqX:X#X+X",
"kXfXhXtX0X9X0X0XrXtX0X=X[.[.oXqXfXkXkXfXfXfXfXgXgXfXhXyX0X;XXX).`.`.).!.b.a.p.p.a.y.6.-.#.#.-.j.C.).`.`.).XX;X0XeXeX0X0X0X0X0X0X0XeXeX0X;X+X).~.",
"kXfXyXtX9X-X-X9X0XeX0X9X=X=X;XaXgXlXlXlXkXfXfXfXkXgXsX0XoX{.~.~.~.!.S.v.u.4.3.2.2.;.I H H &.-.0.m.N.N.N.N._.oX:XqXqX;X;XoXoXoXoXoXoXOX.X(.P.N.N.",
"yXyXtXtX0X9X9X9X0X0X0X0X0X>X;X;X,XaXgXkXkXyXyXhXkXgXaX;X{.~.~.~.!.N.v.u.6.:.;.I G Z V V G &.>.0.j.j.j.j.j.M.(.#X:X%X#X).I.J.J.J.K.J.M.x.z.k.j.j.",
"0X0X0X0X0X0X0X0X0X0X0XrXtX0X=X[.[.$XtXfXfXtX0XtXhXfXaX#X).).).).!.n.a.r.6.-.I Z B x x B G &.-.>.>.-.&.&.-.q.C.).@X+X).!.b.a.p.p.a.y.5.-.*.*.-.-.",
"9X9X>X>X>X>X0X0X0X0X0XtXyXtX=X].I.}.qXfXfXtX9X0XyXsXqX$X+X X@X@X'.E.h.r.5.-.Y J B x z x B G I &.I H F F H -.k.N.~.~.W.n.d.p.p.h.t.3.#.F V V G G ",
"0X9X>X=XoX=X>X0X0X0X0XtXyXtX=X].^.oXqXgXfXtX0X9XqXtXqX>X$X$X&X@X'.E.f.r.2.*.=.I J Z x x x B Z G F V B B V H >.j.v.b.n.f.d.h.h.h.p.2.j r e z x B ",
"tX0X;XoX[.}.=X0XrX0X0X0XtX0X=X[.[.oXrXfXfXyX0X9X0X0XeXeX0X;X#X).W.n.a.4.:.-.-.-.-.#.G B x b B B B B B b B Z I -.6.y.a.a.a.a.d.f.a.6.I B x x B B ",
"yX0X;X[.^.[.=X0XtXtX0X0X>X>XoXoXoX>XrXsXhXyXeX9X9X0XtXyXtX8XU.z.0.5.5.%.*.*.>.6.6.2.;.H Z V V B x x x x x B V H ;.6.y.y.4.6.4.y.u.7.1.T I I I I ",
"yXrX;X[.^.].=X0XtXtX0X>XoXoXoX=X>X0XqXtXtXtXrX0X9X0XtXfXtXOXA.Y V V G I I *.>.6.r.r.3.2.;.#.K Z B x z x x x B V I 5.6.5.;.I I -.6.y.y.7.7.4.4.4.",
"tX0X>XoX[.}.=X0XtXtX0X=XoX[.oX=X0XtX0X0X0X0X0X0X9X0XtXsX0XY.8.B q e B G I -.6.y.a.d.d.a.y.6.-.I Z B B B B B x B G *.-.&.Z B B H -.6.y.a.a.a.a.a.",
">X>X;X;X;X>X0X0XtXtX0X=X[.[.}.>XrXtXtX0X9X>X>X>X9X0XqX>XoXR.1.F p p V H *.6.a.b.H.E.E.E.b.u.6.;.I H H G Z C b x B F k j p x b S T ;.:.o.i.y.y.s.",
"}.oX;XqXtXtXrX0X0XrX0X;X}.[.}.;X0XtXtXeX>XoXoX=X0X0X>X[.K.a.4.2.;.I &.*.6.a.n.W./. X X/.W.l.r.3.2.2.%.&.I J C x w u y y w x D A S j d f k I =.1.",
"^.[.=XrXfXfXyX0X0X0X0X;XoX[.}.=X0XtXtX0X=X[.[.oX0X0XoXL.a.t.p.a.y.5.-.%.4.a.n.!.).+X+X).!.b.a.p.p.a.y.6.-.T S B 0 - * > 0 B A A B 0 - * > w B A ",
"L.^.oXqXfXfXyX0X0X0X0X;X}.[.}.=X0XqX0X;XoX^.^.oX0X0XoXK.t.+.p.a.y.>.*.#.%.7.l.M.C._.~./.W.E.E.E.E.E.n.a.6.-.T Z 6 $ . $ 0 C A C 0 - . . & : 5 e ",
"I.^.oX0XyXsXtX0X0XeX0X=X[.[.}.;X0X0X;XoX].^.^.oX0X0XoXL.p.+.r.6.-.I G Z G I *.9.j.x.b.H.E.Q./. X X'.Q.b.y.6.-.H u * . $ w C Z r > + . . + % > , ",
"].[.oX;X0XrX0X0X0XrX0X=X}.[.oX>X0X0XoX[.^.^.[.=X0X0X=XL.a.i.:.-.I Z B x x B Z I -.6.r.a.n.!.).+X+X).!.n.a.y.7.-.j 3 * > w B p 2 * @ @ * * * * * ",
"oXoX=X>X9X0X0X0X0X0X0X>X=XoX=X0X0X9X=XoX[.[.oX>XrX0XoXJ.y.3.:.*.I G B x z z B G &.$.:.3.y.m.Z.Z.Z.Z.M.v.a.a.s.6.$.d t 6 0 0 2 = @ = < 6 < - @ @ ",
">X>X>X9X9X0X0X0X0X0X0X0X0X>X0X0X0X0X>X;X=X=X>XqXtX0X.Xc.6.:.%.-.-.&.G B x z B G &.%.%.%.>.9.q.q.q.q.j.u.a.d.d.a.6.$.k s 2 > * + @ < w p w > @ X ",
"0X0X0X0X0X0X0X0X0X0X0X0X0X0X0X0X0X0X0X0X0X0X0XtXtX0X.Xz.-.#.#.-.>.>.-.I V B V I -.>.>.-.*.-.-.*.*.-.5.y.a.d.d.a.s.7.-.j y * . X * 2 p B r < * X ",
"rXrXrXrXrXrXrX0X0X0X0X0X0X9X9X0X0X0XrXtXeX0XrXtXsX0XT.e.&.F F I -.6.y.6.&.G G &.-.5.5.5.5.:.%.;.*.%.3.y.a.d.a.y.y.j.5.@.s - + + * < 0 w 0 < * @ ",
"0X0XrXtXtXtXtXtXrX0X0X>X=XoX=X>X0X0XrXrX0X0X0XtXyX0XT.z.#.h p V =.y.d.a.6.*.I &.-.5.4.y.y.y.4.3.3.4.y.a.a.a.4.5.5.6.5.*.h 0 > - * - > < > - - * ",
"0X0X0X0X0X0X0X0X0XrX0X;XoX[.oX;X0XtXqX0X0X0X0XtXtX0X.Xc.-.F r B I 6.a.a.6.-.&.*.-.5.y.a.d.d.a.a.a.a.d.d.a.y.5.-.*.-.-.&.J B 0 > * @ @ * * * * * ",
"0X0X0X>X=X=X=X;X0XtX0X;X[.^.[.=X0XtXrX0X0X9X0XtXtX0XoXP.j.&.Z V G ;.2.5.*.&.&.*.>.6.i.a.d.f.f.f.f.f.d.a.y.6.>.*.*.&.&.T U A r > @ + $ - = @ + O ",
"rX0X>XoX[.[.[.oX;X0XrX>X}.^.[.=X0XtXrX0X0X0X0XeXeX0X;X).N.j.-.K G G G F Z Z H =.>.6.6.6.y.a.f.g.g.f.a.i.6.5.>.-.*.Y J P P A p - @ $ 1 9 1 *   o ",
"tX0X>XoX[.^.^.[.oX0X0X>XoX[.}.=X0XrX0X0X0X0X0X0X0X0X:X#X).N.j.-.H V B x x B G &.-.-.-.-.5.y.a.f.d.a.y.5.-.*.-.-.#.Z B B B B 0 - * , z n x 1 * O ",
"0X0X0X;XoX}.[.[.oX=X;X=XoXoXoX;X0X0X0X0X0X0X0X0XeXeXqXwX&X/.v.6.;.H Z V B B Z G H H G G &.5.y.a.a.y.5.&.H K I I F p 6 5 6 0 6 < 5 x E ^ E b w 6 ",
"0X0XqXqXqXqX>X=XoX}.}.oX=X>X>X=X=X>X0XtXtX0X0X0X0XuXtXtX:X}.b.r.3.2.%.*.I G Z V B v x C G =.5.6.6.5.*.G B C Z V p 6 - $ * - < 9 m E ( ] ( / W E ",
"9X0XtXhXfXfXyX0X=X[.[.oX>X0X>XoX[.}.=X0XtX0X0X0X0X0XtXtX0XoXL.a.t.p.a.u.6.-.I Z B x x B G I -.>.>.-.I Z B B B B w < * + @ * , q n Q ( ] | | ] ] ",
"9X0XtXfXkXlXfXyX0XoXoX=X0XqX-X].L.I.[.>X0X0X0X0X;X;X0X0X0X=X^.n.g.g.f.d.u.6.>.&.I F Z Z G I *.-.-.*.&.G Z Z Z Z a 6 > - - > 1 9 x n Q ) ] { } } ",
"9X0XtXhXkXlXkXfXtX>X;X0XtX0XoXL.b.b.I.oX>X0X0X;X#X+X$X0X0X0XXX!.S.g.d.a.a.u.y.4.2.%.#.I I *.*.-.-.*.*.&.I &.&.I L a w 0 w w 6 1 1 9 b ! ( ] { } ",
"9X0XtXsXfXkXkXfXsXrX0XrXtX0XoXJ.a.a.K.[.;X0X0X;X+X).XX;X0X0X$X).W.v.a.p.p.a.d.d.a.y.5.-.*.*.-.-.-.-.-.*.-.-.>.-.#.Z B B B B 0 > * - 9 n Q ( ] { ",
"0X0XrXyXfXkXkXgXfXyXtXtXtX0X[.b.t.t.b.].=X0X0X;X`.~.).$X0XqX%X`.!.v.a.r.p.d.g.g.g.d.y.>.-.-.-.-.-.-.>.>.>.6.6.>.=.J A A E A i - O + : m ! / _ | "
};
