/* XPM */
static const char *wall_31[] = {
/* columns rows colors chars-per-pixel */
"72 72 229 2 ",
"   c #3F111F",
".  c #460B19",
"X  c #4C0D19",
"o  c #4D0612",
"O  c #500E18",
"+  c #4D121C",
"@  c #45101C",
"#  c #51131D",
"$  c #4D1521",
"%  c #4C1923",
"&  c #441927",
"*  c #531A23",
"=  c #581C24",
"-  c #4E242B",
";  c #562027",
":  c #54232B",
">  c #59252B",
",  c #55292F",
"<  c #5B2B2F",
"1  c #4C2530",
"2  c #4E2A33",
"3  c #442530",
"4  c #542D33",
"5  c #5A2D32",
"6  c #4F3137",
"7  c #543235",
"8  c #5C3235",
"9  c #54353A",
"0  c #5C3539",
"q  c #5D393C",
"w  c #58393C",
"e  c #642D2E",
"r  c #652826",
"t  c #6C342C",
"y  c #643233",
"u  c #6A3635",
"i  c #603639",
"p  c #633C3C",
"a  c #6A3C3A",
"s  c #6F3B35",
"d  c #743D36",
"f  c #6E3030",
"g  c #6D433E",
"h  c #6C4137",
"j  c #75443E",
"k  c #7A4A3F",
"l  c #7A463D",
"z  c #563B40",
"x  c #5C3E41",
"c  c #603F42",
"v  c #5D4244",
"b  c #5B4A4B",
"n  c #554141",
"m  c #634243",
"M  c #6B4644",
"N  c #664847",
"B  c #6D4944",
"V  c #664C4A",
"C  c #6B4D49",
"Z  c #734641",
"A  c #734C45",
"S  c #794E45",
"D  c #734E48",
"F  c #794F48",
"G  c #7D4742",
"H  c #6D524D",
"J  c #7C5246",
"K  c #74524C",
"L  c #7D5249",
"P  c #635455",
"I  c #655958",
"U  c #6B6A69",
"Y  c #6A6464",
"T  c #716D6E",
"R  c gray45",
"E  c #767B7A",
"W  c #787D7D",
"Q  c #823E37",
"!  c #8C563D",
"~  c #8C563A",
"^  c #8D5239",
"/  c #97603F",
"(  c #A5683E",
")  c #824F44",
"_  c #845546",
"`  c #8A5543",
"'  c #855946",
"]  c #8D5B45",
"[  c #835549",
"{  c #89574A",
"}  c #85594A",
"|  c #8C5A4A",
" . c #925D44",
".. c #925E4B",
"X. c #995747",
"o. c #875E52",
"O. c #A05B4A",
"+. c #946144",
"@. c #9A6546",
"#. c #95614B",
"$. c #9B654B",
"%. c #9D694B",
"&. c #9E6947",
"*. c #896558",
"=. c #9D6451",
"-. c #9E6857",
";. c #9A6857",
":. c #9D705B",
">. c #8F624F",
",. c #A46B44",
"<. c #AB6E44",
"1. c #A46C4B",
"2. c #A96F4B",
"3. c #A46547",
"4. c #AC7146",
"5. c #AD734A",
"6. c #A7704D",
"7. c #B2764B",
"8. c #B5794B",
"9. c #BA7C4C",
"0. c #B27345",
"q. c #A26752",
"w. c #A36B54",
"e. c #AA6D57",
"r. c #AB7454",
"t. c #A2735B",
"y. c #AD765D",
"u. c #AA795E",
"i. c #A67253",
"p. c #B47653",
"a. c #B57B54",
"s. c #BB7C53",
"d. c #B3765B",
"f. c #BC7B5D",
"g. c #B6795A",
"h. c #B16B53",
"j. c #AE7B61",
"k. c #A37962",
"l. c #BA7D66",
"z. c #C17E57",
"x. c #BE814F",
"c. c #B58157",
"v. c #BD8155",
"b. c #B5815A",
"n. c #BA845B",
"m. c #BD885F",
"M. c #AD8466",
"N. c #B98364",
"B. c #BE8A62",
"V. c #BE8C6B",
"C. c #B3866A",
"Z. c #B48C71",
"A. c #BD9474",
"S. c #C4844F",
"D. c #C38356",
"F. c #C4835B",
"G. c #CB8B5E",
"H. c #C6895C",
"J. c #C48461",
"K. c #CB8664",
"L. c #C28D65",
"P. c #CC8B64",
"I. c #CD8C6B",
"U. c #C4896A",
"Y. c #D28E67",
"T. c #C39066",
"R. c #C6956C",
"E. c #CA956D",
"W. c #C9986F",
"Q. c #CA9264",
"!. c #D5926A",
"~. c #D6996D",
"^. c #D48F71",
"/. c #C19574",
"(. c #CD9572",
"). c #C59A75",
"_. c #CB9C73",
"`. c #C69C7B",
"'. c #D39372",
"]. c #D49A75",
"[. c #D49C78",
"{. c #DA9975",
"}. c #CDA077",
"|. c #CEA279",
" X c #CFA87F",
".X c #D2A177",
"XX c #D1A57C",
"oX c #DAA57E",
"OX c #D3A87F",
"+X c #DBAA7D",
"@X c #E3A77C",
"#X c #D3A780",
"$X c #DCA780",
"%X c #D6AD84",
"&X c #D9AE85",
"*X c #DAAD84",
"=X c #D6B087",
"-X c #D8B087",
";X c #D9B087",
":X c #DAB087",
">X c #DAB087",
",X c #D6B389",
"<X c #D8B188",
"1X c #D9B188",
"2X c #DAB289",
"3X c #DDB38A",
"4X c #DEB68D",
"5X c #DBB38A",
"6X c #DDB98D",
"7X c #DEB991",
"8X c #CCA281",
"9X c #E5AB83",
"0X c #E2B58C",
"qX c #E2B88F",
"wX c #E3B98E",
"eX c #E7B789",
"rX c #F1B98B",
"tX c #E4BA91",
"yX c #E7BD94",
"uX c #E6BE95",
"iX c #E5BC93",
"pX c #E9BE95",
"aX c #E7C097",
"sX c #EAC097",
"dX c #EBC096",
"fX c #EAC299",
"gX c #ECC49B",
"hX c #EFC89F",
"jX c #F4C89A",
/* pixels */
"R E W W R P 5 O o X * * # X X # * , w V } %.5.2.$.[ A M m m A | e.J.{.@XeX%X/.u.| Z g m M D [ $.2.5.%.} V w , * # X X # * * X o O 5 P R W W E R ",
"T R E W R I 0 * O + * * * * # # * : 4 m L %.5.5.1.| S M m m S | w.f.I.oX9X%X/.u.| j g m M F { 1.5.5.%.L m 4 : * # # * * * * # X * 0 I R E E R T ",
"Y U R E R Y m , * # * = : > : = * % - 8 k @.5.8.2.#.J B m m S { $.e.l.(.#X%X).u.{ j p m M J #.5.8.5.@.k 8 - % * = : > > = * # * , v Y R E R U Y ",
"I I U R R T I x , * * : 8 q 8 > * + $ : d  .5.9.7.%.' A m M S { ....w.C.|.#X).j.{ g q m B ' %.8.9.5. .d : $ + * > 8 q 8 : * * , x I T R R U I I ",
"n b I U R R Y b 7 * * > i m p < * . . * t ! 5.x.x.5. .A m M L | ] _ | k.`.%X|.j.| g p m S +.5.x.x.5.! t * . . * < p m q > * * 7 b Y R R U I b n ",
"- 7 v I U U I z , $ # : 8 p q > # . X = u ` 1.v.S.9.@.A x m [ #. .^ ` t.`.1XOXN.#.k M B _ %.9.S.9.1.` u = X . # > q p 8 ; # $ , z I U U I v 7 - ",
"@ % 7 b I I x , $ + # = > < > * # + * 8 g [ $.8.S.9.@.A x N | 1.,./ @.u.OXqX&XL.1.! S L | 1.9.9.7.$._ g 8 * + # * > < > = # + $ , x I I b 7 * + ",
"O * , q b n 4 * # # * * * * # # * : 7 m C J | 1.7.5.+.A m A #.5.0.<.5.L.&XyX9XQ.5./ ` | #.1.5.5.$.| L C m 7 : * # # * * * * # # * 4 n b x , * O ",
"= ; , 7 9 7 : = = : : * + X + * < q m V C D S _  .+.] J J ' @.5.8.8.m.}.tXsX:XT.5.( @.$.$.#.+.' [ S D C V m q < * + X + * : : = = > 7 9 7 , : = ",
"i 8 5 , : > 5 8 i q 7 : + X * < p N V V V N m m M A J | #.&.,.4.8.m._.1XfXsX%XL.4.( ,.1.$.' A M m m N V V V N p < * X + : 7 q i 8 5 > : , 5 8 i ",
"V m 8 : * = 8 m V V m 8 ; * ; 8 m N N m m m m x x m J $.5.0.4.5.b.R.%XyXhXyXOXB.5.<.0.5.$.J m x x m m m m N N m 8 ; * = 8 m V V m 8 = * : 8 m V ",
"P m 8 = # * 5 m H K D g u e < 8 0 0 7 8 i g B M m M _ 1.9.9.8.a.B.XXtXgXfXqXXXL.a.8.9.7.%.J M m M B g i 8 7 0 q 8 < e u g D K H m 7 * # = q m P ",
"V m 7 = # $ 4 m H L [ [ ) j u < : % $ ; y l [ [ L J ] 1.8.9.s.F.(.&XyXfXyX1XXXR.F.s.9.7.1.] L L [ [ l y ; % % : 5 u j ) [ [ L H m 4 $ # = 7 m V ",
"V m 8 : * * 4 m D L | #.#.| l e * . . * e l | #.| |  .&.5.s.F.I.[.0XyXyX4X%XXX].I.F.s.5.&. .| | #.| l e * . . * e l | #.#.| [ D m 4 * * : 8 m V ",
"F B a 5 > < i B J [ | $.w.%.] d > $ $ * y j [ | { [ ' +.1.p.K.{.9XeXtX7X,X#XoX{.{.P.s.1.+.' [ { | [ j y * $ $ > d ] %.w.$.| [ J B i 5 > 5 a B F ",
"} J Z a q i A [ [ [ | $.1.6.$.` j y 5 7 i M S S S S S _ @.p.K.{.@X0X4X,X,X%XoX@X{.K.p.@._ S A S S A M q 7 5 y j ` $.6.1.$.| [ [ [ A i q a Z [ } ",
"#.| J B m M J | | { | #.1.5.5.$.| S B m m m m m m m M S | w.f.I.].oX%X,X,X%XoX].I.f.w.| S M m m m m m m m B S | $.5.5.1.#.| { | | J M m B J | ..",
"$...[ B m N L | ....#.%.5.7.7.5.%.| L C N m x q x x m B J { -.j.V.(.XX#X-X%X|.V.j.-.| J B m x x x x m N C L | %.5.7.7.5.%.#.....| L N m B [ ..$.",
"$.| L B m N F | @.$.1.5.7.7.7.5.1.$.| L D N m x x m m M B A K o.:.N.(.oX9X#XA.k.o.F B B M m m x x m N D L | $.1.5.7.7.7.5.1.$.#.| F N m B L | $.",
"..| L B m N S | $.1.5.5.5.5.5.7.5.1.$.| J B m v m m m N m q w m [ e.I.@XeX%XZ.*.m 9 w m N m m m v m B J | $.1.5.5.5.5.5.5.5.1.$.| S m m B J | ..",
"..{ [ S B A _ #.1.5.7.5.1.1.5.p.s.a.5.@._ A m x x m N N m 7 3 1 a =.I.9XrX1XC.K 1 & 2 m N N m x x m A _ @.5.a.s.p.2.1.1.5.7.5.1.#._ A B S [ { ..",
"| { [ L J _ #.1.5.7.5.1.@.#.w.g.J.H.s.1.] A m z w x N N m 4 & % f X.I.rXjXqXC.Z %   1 m C N x w z m A ] 1.s.H.J.g.w.#.+.1.7.7.5.1.#._ J [ [ | ..",
"| | { { | #.1.5.8.8.5.&.] | -.l.I.Y.F.5.+.A m x x m N C m 4 % * f O.I.rXjXyXZ.G * @ , m V N m x x m A +.5.F.Y.I.l.-.| ] &.5.8.8.5.1.#.| { { | | ",
"| | | | ..$.5.8.9.8.5.@.` { -.l.'.!.F.4.+.J B M B A A N m 7 > e Q 3.I.rXjXsX/.{ > % 4 m V A A B M B J +.4.F.!.'.l.-.{ ` @.5.8.9.8.5.$...| | | | ",
"| | | | ..$.5.8.9.8.5.@.` { -.l.'.!.D.4.+._ J L [ [ J M x q a l X.h.I.9XjXsX`.-.d < 7 x B J [ [ L J _ +.4.D.!.'.l.-.{ ' @.5.8.9.8.5.$...| | | | ",
"| | { { | #.1.5.8.8.5.&.] | -.l.I.P.D.5.&. .| | ..| J B m m S | q.g.I.9XpXyX#Xj.| j p m B L | ..| |  .&.5.D.P.I.l.-.| ] &.5.8.8.5.1.#.| { { | | ",
"| { [ [ J } #.1.5.8.7.1. .| =.d.J.P.F.a.5.1.$.#.| } L S A S L | w.N.'.9XwXqX#XU.t.| J S S L } | #.$.1.5.a.F.G.J.d.=.|  .1.7.8.5.1.#.} L L [ { | ",
"| { [ S A S [ #.1.7.7.1.#.{ ..1.s.F.J.J.f.p.1.+.L K K [ [ _ [ { :.V.OX0XqX1X#X(.N.y.$.} J D K [ #.1.p.f.J.H.F.s.1...{ #.1.7.7.1.#.[ S A S L { | ",
"..| J B m m S | $.5.5.1.#.| ] @.5.v.P.I.P.F.5.] A m M L | ] ` | t.A.%X4X5X%XOX].I.f.w.| A m m A  .5.F.P.I.P.v.5.@.] | #.1.5.5.$.| S m m B J | ..",
"1.#._ B x x A { %.1.1.%.#...]  .,.a.U.'.!.G.7.! h 7 0 M L { ..$.j.).=X6X,X#XoX{.Y.f.=.S p 4 4 h ! 7.G.!.'.U.a.,. .] ..#.%.1.1.%.{ A x x B _ #.1.",
"7.1.] A x c S | $.@.#.#.#...] ] @.r.U.'.!.G.7.~ t : 1 9 B } =.g.U.XX%X,X,X%XoX{.I.d.| M 2 & * t ^ 7.G.!.'.U.r.@.] ] ..#.#.#.$.$.| S c x A ] 1.7.",
"9.5.#.J m m S | ....| | | | _ [ | w.l.I.!.H.5.^ t * & 1 m o.d.I.{.oX%X=X=X%XoX{.I.y.o.m 1 & * t ^ 5.H.!.I.l.w.| [ _ | | | | ....| S m m J #.5.9.",
"9.7.%._ B M S [ [ [ [ [ [ J S A L >.d.J.P.F.1.^ r # @ : g ;.U.oX9X9X%X#X%X%X&X$X[.V.:.L q : : t ^ 1.v.G.J.d.>.L A S J [ [ [ [ [ [ S M B _ %.7.9.",
"9.7.1...L B B A S [ [ L S M m c B { 1.s.D.a.$.l r # # t ! g.XXeXpXqX%X X#X%X3XqX0XOXV.t._ a 8 i G $.a.v.s.i.{ B c m M S L [ [ S A B B L ..1.7.9.",
"7.5.2.$.| S m m B [ { [ S m z z m J @.5.7.i.| a : * r ^ 5.Q.:XiXyX4X%XOXOX%X4XtXyXwXoXR.t.L m c A | 1.7.5.$.J m z z m S [ | [ B m m S | $.1.5.7.",
"4.4.5.2.$.L m x B { $.$._ M x z x A ] &.1.#.L i 1 : s $.Q.@XeXiX7X4X%X#X#X=X4X7XyXdXrXoXC.*.m z m L #.$.&.] A x z z M _ $.$.' B x m L $.2.5.4.4.",
",.4.5.7.1.{ N x A #.5.5.@.J m x x B _ ....} A 0 2 9 L M.+XrXtX4X,X%X%X%X%X1X1X,X4XdXjXeXA.*.v 9 x A [ ..] _ B x x m J @.5.5.#.A x N { 2.7.5.4.,.",
"5.5.7.8.5.] B m A +.5.7.1.| S m m B [ | } F m 9 6 m *.`.yXjXwX%X#X#X%X%X%X%X#XOX%XwXjXyX`.*.m 6 9 m F } | [ B m m S | 1.7.5.+.A m B  .5.8.7.5.5.",
"a.a.9.9.4. .S M A ' $.1.%...[ A B J { .._ B w 7 0 J k.#XhXhXtX#X X#X%X#XOXXX|.}.#XiXhXfX8X:.k 7 2 w B [ #.| J B A [ ..%.1.$.' A M S  .4.9.9.a.p.",
"J.J.F.9.<./ _ S A A J } | ..{ [ L { $.&.' M w 9 h +.N.&XgXhXtX%XOX%X%XOX_._._._.%XiXhXfX%Xn. .s 7 9 M ] 1.1.| L L { ..| } J A A S _ @.<.9.z.F.J.",
"^.I.J.s.5.,.@.| F M m B J | | { | $.5.5.#.S m g ! 5.Q.*XyXyX4X%X%X%X%XXX_.R.R._.%XtXfXyX*XQ.5.! g m S #.5.5.$.| { | | J B m M F | @.,.5.s.K.I.^.",
"'.'.E.L.n.b.p.w.{ B p p Z _ ] ]  .2.9.s.i.>.} | i.H.~.*XqX4X1X%X%X%X%XOX_._._.|.%X4XtXqX*X~.H.r.;.*.>.1.4.4.,.+. .] _ Z p p B { w.p.a.n.L.(.[.[.",
"^.'.]._.}._.I.f.q._ Z g Z ) `  .3.7.z.F.n.u.u.M.V._.+X*X1X1X&X%X%X%X%X#XOXXXOXOX%X1X1X1X*XXX.X).A.Z.M.r.<.( ,.3.@. .[ Z g Z _ q.f.P.W._.|.#X%X*X",
"K.I.'.XX%X*X[.I.f.q.| _ [ | #.,.5.s.K.I.I.R.R._.OX%X-X%X%X%X%X%X%X%X%X%X%X%X%X%X%X%X%X%X%X#X%X1X5X%X_.n.5.<.4.5.1.@.| [ [ | q.f.I.{.oX%X%X%X%X#X",
"s.z.J.(.$X&X$X].I.N.u.t.t.t.u.b.n.L.E.].[..X.XOX-X4X5X%X#X#X%X%X%X%X%X%X-X1X1X&X%X%X#X%X%X%X1XqXiXwXOXR.n.c.n.m.b.u.t.:.t.u.N.I.].$X3X5X%X#XXXXX",
"<.7.s.J.].oX$XoXXX_././././.)._._.[.XXOX$X+X*X&X1X4X1X%X%X#X%X%X%X%X%X%X-X-X-X%X%X%X%X%X%X%X1X4X4X4X*X|._._._._._././.A./.)._.XXoX&X1X1X#X[.'.I.",
"4.5.p.F.I.[.#X%X=X=X%X%X%X%X%X%X%X%X%X%X%X%X%X%X%X%X%X%X%X%X%X%X%X%X%X%X%X%X%X%X%X%X%X%X%X%X%X%X%X%X%X%X%X%X%X%X%X%X%X%X%X%X%X%X%X=X,X%XXX'.I.K.",
"b.b.m.J.E.[.#X%X5X6X4X:X*X*X&X1X4X4X1X=X%X%X%X#XOXXXOX#X%X&X%X%X%X%X%X%X%X%X#X#X%X%X%X%X%X%X%X%X#X%X%X1X5X5X1X1X4X4X4X:X*X%X%X%X,X,X,X#XXX].E.I.",
"_._._._.[.OX#X%X5X4X4X%XXX}.XX%X4X4X1X%X=X,X%XOX_._._.OX%X-X%X%X%X%X%X%X%X#X#X#X#X#X#X#X%X%X-X=X%X%X%X&X1X1X1X1X5X4X4X%XXX}.XX%X1X5X1X%XOXXXXX[.",
"%X%X%X%X%X%X%X%X&X1X%XXX_.R.W.XX%X-X%X%X%X-X%XXX_.R._.|.%X1X-X%X%X%X%X%X%X%X%X%X%X%X%X%X%X%X%X%X%X%X%X%X%X%X%X%X&X1X%XXX_.R._.XX%X1X&X%X%X%X%X%X",
"1X1X1X5X5X1X%X%X%X%X#X|._.R.R._.|.OX#X%X-X1X%X|.R.L.R.|.%X1X%X#X#X#X%X%X&X1X1X1X3X4X4X4X-X#XXX|.OX#X%X%X%X%X%X#X%X%X#X|._.R.R._.|.OX#X%X=X=X,X,X",
"OXOX#X%X5X1X%X%X#X%X%X#XOX|._.W.W._.XX%X1X1X%X|.R.L.R.|.%X-X%X#XOX#X#X%X3XqXqXqXqXyXsXyX3XXX_.R._.|.OX%X-X-X%X%X#X#X#X#XOX|._.W.W._.OX%X-X-X=X=X",
"T.R._.XX%X1X-X%X%X%X%X-X1X%XXX_.R._.|.%X1X1X%XXX_.R._.XX%X1X-X%X#X#X%X1XqXyXpXyXyXsXfXyX3XXXR.L.L.R._.OX%X-X%X%X%X%X%X-X-X%XXXW.R._.XX%X1X%X%X%X",
"a.c.B.R.XX#X%X-X-X%X-X1X1X1X#X}._._.OX%X1X1X%XOX_._._.OX=X4X4X4X4X1X4XtXsXhXhXfXsXiXqX3X*XXXW.L.n.n.B.R.XX%X%X-X-X%X-X1X1X-X#X}._._.OX%X&X%X%X#X",
"<.5.a.m.W.OX%X1X1X1X-X-X-X%X%X#XOXOX#X%X%X%X%X#XOXOXOX#X1X4XiXyXyXtXtXpXgXhXhXfXiX3XOXXXXXOXXXR.c.5.7.m.W.OX%X1X1X1X1X-X-X%X%X#XOXOX#X%X%X%X%X%X",
"<.5.a.m.R.|.#X%X%X%X%X%X%X%X%X%X%X%X%X%X%X%X%X%X%X%X%X#X%X1XqXyXpXpXyXpXpXyXtX4X%X|.R.R._.#X%X_.n.5.5.n.R.|.#X%X%X%X%X%X%X%X%X%X%X%X%X%X%X%X%X%X",
"a.b.m.T._.|.XXXX|.|.XXOX#X%X#X#XOXOX#X%X%X%X%X-X1X1X%XOXXXXXOX&XqXtXtXqX*XXX_._.R.B.m.L._.%X1XOXT.b.n.L._.|.XXXX|.|.XXOX#X%X#X#XOXOX#X%X%X%X%X%X",
"R._._.XXOXOX_.W.R.R._.|.#X%XOX}._._.OX%X%X%X%X-X5X1X%X|._.R.W._.OX3X3X#XW.m.a.a.a.a.n.L._.#X%X#X|._._.|.OXOX_.W.R.R._.|.#X%XOX}._._.OX%X-X%X%X%X",
"%X%X%X-X%XOX_.R.L.L.R._.#X%XOX_.R.W.XX%X-X%X%X%X&X%XOX_.R.L.L.R.|.%X%X_.n.5.,.,.5.a.m.R._.OX%X%X%X%X%X-X%XOX_.R.L.L.R._.#X%XOX_.R.W.|.%X1X%X%X%X",
"4X1X1X%XOX|._._.W.R._.|.#X%XOX_.W._.XX%X1X-X%X#XOX|._._.W.W.W._.OX%X#X_.n.5.<.5.c.B.R._.XX#X%X1X5X5X1X%XOX|._._.W.R._.|.#X%XOX_.W._.OX%X-X%X%X%X",
"5X-X#X|._._.|.OXOXXXXXOX#X%X#XOXXXOX#X%X-X-X%XOX_.R.R._.|.OX%X&X3X3X#X_.B.n.n.L._.|.XXOX#X%X-X1X5X-X#X}._._.|.OXOXXXXXOX#X%X#XOXXXOX#X%X%X%X%X%X",
"1X%XXX_.R.W.XX%X1X-X%X%X%X%X%X%X%X%X%X%X-X1X%XXX_.R.R.|.%X4XiXyXiX4X%X|.R.R._.XX%X1X=X%X%X%X%X%X1X%XXX_.R.W.XX%X1X-X%X%X%X%X%X%X%X%X%X%X%X%X%X%X",
"4X-XOX_.R.W.}.#X-X1X1X-X%X%X%X-X-X%X%X#X%X1X-X#X}._.XX%X4XyXaXyXtX4X%XOX|.XXXX#X%X1X1X-X#XOXXXOX&X-X#X_.R.W.|.#X-X1X1X-X%X%X%X-X-X%X%X#X%X%X-X1X",
"tXqX3X#X|._._._.XX#X-X1X%X%X%X%X%X%X#X#X%X%X1X-X&X&X3XqXiXyXtX4X1X&X%X%X#X#XOX|.|.OX%X%XOX_._.XX&XqX4X#X|._._._.XX#X-X1X%X%X%X%X%X%X#X#X%X%X1X1X",
"pXyXtX4X%X|.R.R._.XX%X1X-X%X%X%X%X%X%X%X%X#X%X1XqXyXsXsXyXqX1X%X#X#X%X-X1X%XXXW.R._.OX%XOX_.R._.:XyXsXtX%X}.R.R._.XX%X1X-X%X%X%X%X%X%X%X%X%X%X%X",
"sXsXfXyX4XOXR.L.T.}.%X1X-X%X%X%X%X1X4X4X&XOXXX#XtXgXhXfXtX3X%X#X#X#X%X1X5X=X|.T.L.R.XX%XOX_._.XX0XsXhXfX4XOXR.L.T.}.%X1X-X%X%X%X%X1X4X4X&XOXXX}.",
"pXfXgXgXyX%XW.L.T.}.%X1X-X%X%X%X1XtXaXyX:X_.W.XXqXfXhXyX3X%X#X#X#X#X%X1X5X=X|.R.L.R.XX%X%XOXXX#XqXfXhXhXyX%XW.L.T.}.%X1X-X%X%X%X-XtXaXyX3XXXW.T.",
"tXyXsXfXyX&X_.R.R.|.%X1X-X%X#X#X%X4XyXyX&X_.R._.&XyXyX4X%X#X#X%X%X%X%X-X1X%XXX_.R._.XX%X%X%X%X-XqXyXfXgXyX&X_.R.R.|.%X1X-X%X#X#X%X4XyXyX:X.XR.L.",
"4XqXtXtXqX&XXX_._.OX%X1X-X%X#XOXXX#X&X:X#X_._.|.&XqX4X1X#X#X%X%X%X%X%X%X%X%XOX}._.}.OX%X=X-X-X1X4XqXtXiXqX&XXX_._.OX%X1X-X%X#XOXXX#X&X:X%XXX_.R.",
"1X1X3X3X3X&X#XOXOX#X%X-X-X%XOX}._._._..XXXXXOX#X&X1X1X%X%X#X%X%X%X%X%X%X%X%X#XOXOXOX#X%X%X%X%X-X-X1X3X4X3X&X#XOXOX#X%X-X-X%XOX}._._._..XXXXXXXOX",
"%X%X%X%X%X%X%X%X%X%X%X%X-X%XOX_.R.L.L.R._.OX%X-X&X%X%X%X%X%X%X%X%X%X%X%X%X%X%X%X%X%X%X%X%X%X%X%X%X%X%X%X%X%X%X%X%X%X%X%X-X%XOX_.R.L.L.R._.OX%X1X",
"#X#X#X#X#X%X&X1X-X%X%X%X-X%XOX_.T.m.m.L._.OX1X5X=X#X#X%X%X%X%X%X%X%X%X%X%X%X%X-X1X-X%X%X%X%X%X%X%X#X#X#X#X%X%X1X-X%X%X%X-X%XOX_.T.m.n.L._.OX1X7X"
};
