/* XPM */
static const char *wall_18[] = {
/* columns rows colors chars-per-pixel */
"72 72 221 2 ",
"   c #4D0712",
".  c #4D0B16",
"X  c #4E0E19",
"o  c #470815",
"O  c #500C17",
"+  c #500E19",
"@  c #4E111C",
"#  c #4F181F",
"$  c #51131D",
"%  c #4B030F",
"&  c #4E1C24",
"*  c #4F1F28",
"=  c #521720",
"-  c #521A22",
";  c #541F2A",
":  c #4F2127",
">  c #552027",
",  c #55242A",
"<  c #58252B",
"1  c #55282E",
"2  c #59292E",
"3  c #552C32",
"4  c #5A2D32",
"5  c #543236",
"6  c #5C3236",
"7  c #55353A",
"8  c #5C3539",
"9  c #55393D",
"0  c #5C3B3D",
"q  c #612B2E",
"w  c #62272A",
"e  c #622E30",
"r  c #603739",
"t  c #633C3C",
"y  c #6A3E3C",
"u  c #653535",
"i  c #723B35",
"p  c #6B423E",
"a  c #67413F",
"s  c #75433D",
"d  c #7B493E",
"f  c #5C3E41",
"g  c #563E41",
"h  c #613F40",
"j  c #564142",
"k  c #5C4244",
"l  c #5C4749",
"z  c #5B4A4A",
"x  c #564948",
"c  c #5A514F",
"v  c #5D5352",
"b  c #5F4F50",
"n  c #634343",
"m  c #6B4543",
"M  c #664847",
"N  c #6E4945",
"B  c #654B4A",
"V  c #6D4C49",
"C  c #604649",
"Z  c #734B45",
"A  c #7A4E45",
"S  c #724E49",
"D  c #7A4F48",
"F  c #744640",
"G  c #6B504D",
"H  c #7D5146",
"J  c #73514A",
"K  c #7D5249",
"L  c #78544A",
"P  c #624D50",
"I  c #625455",
"U  c #695455",
"Y  c #695659",
"T  c #635C5B",
"R  c #685B5B",
"E  c #735851",
"W  c #65625F",
"Q  c #6B5E61",
"!  c #656462",
"~  c #6B6565",
"^  c #6C6B6A",
"/  c #696766",
"(  c #716D6E",
")  c #6D716E",
"_  c #726F70",
"`  c #6D7470",
"'  c #737473",
"]  c #737A76",
"[  c #767B79",
"{  c #787E7C",
"}  c #787779",
"|  c #844F3E",
" . c #8B553E",
".. c #935B3F",
"X. c #804F45",
"o. c #835446",
"O. c #8A5444",
"+. c #8C5B45",
"@. c #835549",
"#. c #88574A",
"$. c #85594B",
"%. c #8C5A4A",
"&. c #875947",
"*. c #925D45",
"=. c #925E4B",
"-. c #9C5F42",
";. c #8A5D51",
":. c #946246",
">. c #9A6546",
",. c #9F6947",
"<. c #96624A",
"1. c #9B644A",
"2. c #9D694C",
"3. c #936151",
"4. c #9B6352",
"5. c #9D6A55",
"6. c #8E6151",
"7. c #A36B45",
"8. c #AB6E46",
"9. c #A2664C",
"0. c #A46C4B",
"q. c #A96E4B",
"w. c #A46744",
"e. c #AC7246",
"r. c #AD734A",
"t. c #A77149",
"y. c #B2764B",
"u. c #B5794A",
"i. c #B97C4B",
"p. c #B27447",
"a. c #A16751",
"s. c #A46C54",
"d. c #A96D54",
"f. c #A56D58",
"g. c #A6745A",
"h. c #AD745D",
"j. c #AA7657",
"k. c #B37552",
"l. c #B57A52",
"z. c #BB7C54",
"x. c #B47B5C",
"c. c #BB7B5C",
"v. c #B5765A",
"b. c #AB7A62",
"n. c #B77E63",
"m. c #C17E5B",
"M. c #C57F60",
"N. c #76827C",
"B. c #78827E",
"V. c #78827E",
"C. c #BE8154",
"Z. c #BB845B",
"A. c #B6835B",
"S. c #BC8264",
"D. c #BA8766",
"F. c #BE9170",
"G. c #C5825D",
"H. c #C28B5E",
"J. c #C48359",
"K. c #C48463",
"L. c #C38B64",
"P. c #CA8A65",
"I. c #CE8C6B",
"U. c #C88767",
"Y. c #D28D69",
"T. c #C6956C",
"R. c #CB956D",
"E. c #CB986E",
"W. c #C69267",
"Q. c #D4956D",
"!. c #CB9B72",
"~. c #CD9E7A",
"^. c #C79572",
"/. c #D29573",
"(. c #D39A75",
"). c #DA9C75",
"_. c #D59E7A",
"`. c #DA9E7B",
"'. c #DA9471",
"]. c #C28E71",
"[. c #CEA47B",
"{. c #CFA177",
"}. c #D3A47C",
"|. c #D9A47E",
" X c #D3A87F",
".X c #DBA97F",
"XX c #D3A477",
"oX c #E0A27B",
"OX c #7A8581",
"+X c #7A8982",
"@X c #7B8C84",
"#X c #7B8E85",
"$X c #7B8C84",
"%X c #7E8F8A",
"&X c #768981",
"*X c #7C9087",
"=X c #7E938A",
"-X c #80958C",
";X c #80988E",
":X c #819A92",
">X c #84A397",
",X c #CEA582",
"<X c #D5AC84",
"1X c #DBAC84",
"2X c #D6A782",
"3X c #D6B187",
"4X c #D9B087",
"5X c #D6B288",
"6X c #DBB38A",
"7X c #DCB98D",
"8X c #E2AB82",
"9X c #E1AB85",
"0X c #E2B48C",
"qX c #E4B88F",
"wX c #E5BC93",
"eX c #EABE95",
"rX c #ECB790",
"tX c #EAC399",
"yX c #EAC499",
"uX c #F2C79D",
"iX c #F5CEA3",
/* pixels */
"( _ ' ' ' ' ( _ ] V.$X@X@X@X*X=X-X-X$X] ^ T z j 9 z / &X:X>X-X$X$X@X@XV.' _ ' ] ] ' / v 7 ; @ & 5 z ! ) [ $X-X-X=X*X@X@X@X$XV.] ( ( ' ' ' ' _ ( ",
"' ' ' ' ' ' ' ' ] V.@X#X@X@X@X@X@X$XV.' ~ I z j j z T ] @X*X*X@X$X@X@XV.] ' ' ] ' ^ T z 5 > = > 5 z T ^ ' { $X@X@X@X@X@X#X@XV.] ' ' ' ' ' ' ' ' ",
"] ] ] ' ' ' ' ] N.OX@X#X#X$XV.N.] ' ( ~ R P l j k z I R ( ] OX@X#X#X$XV.[ ] ] ' ^ T z 0 3 < < 1 7 l v T ~ ^ ' ] N.V.$X$X#X@X$XV.] ] ' ' ' ] ] ] ",
"OXV.[ ] ' ' ] N.OX$X$X$X+XV.' ^ W T Y U B C k k l C n 0 n Y ' OX$XOX{ { { { ] ^ T z 7 3 1 4 8 0 0 j l B I I T W ^ ' V.OX$X$X$X$XV.] ' ' ] [ V.OX",
"*X@XV.] ' ] V.@X*X*X@XOX{ ' ~ I z k k n n n n M B n 4 = = 4 Y ' { ] ' ' ] ' ^ T z 5 ; = > 6 n M M n n n n k k z I ~ ' { OX@X*X*X@XV.] ' ] V.@X*X",
"=X*X$XN.[ V.$X=X;X=X@XN.' ~ I l 0 9 7 8 t p Z S V h < . % $ 8 U ~ ^ / ~ Q Y P j 7 : @ X - 6 C G V Z F s p t 8 0 l I ~ ' N.@X*X*X$XV.[ [ N.$X*X=X",
"*X#X$XOXOX$X*X=X-X*XOX' ! v z k 0 0 7 0 m A o.K V f 1 @ . O - 6 C I T I k 8 4 1 , = X X - 5 C G K o.o.o.A F p 0 f l I ~ ] OX$XOXV.{ V.OX$X@X#X*X",
"@X@X@X$X@X@X@X@X$X{ ' ~ I z k k n n f n Z @.%.$.J n 6 < = + X = 3 k z k 3 = $ $ = = $ = , 6 n S @.%.=.=.%.o.Z n f j z T ^ ' ] ' ' ] V.@X#X@X@X$X",
"$X$X$X$X$X$XN.] ) ~ Y B l k k k n n M Z K %.=.%.K Z t 7 , = . . = 1 5 3 ; X   . $ = - < 6 t m D @.%.=.<.=.@.Z n f j k z B U Y Q ^ ` N.$X#X#X$X$X",
"$X$X$XOXV.] ) ! I f 8 8 0 k k f f n Z K %.%.%.%.%.@.D n 7 , @ . @ = ; ; = $ . . $ = 2 8 m Z A o.@.%.=.=.%.K m f f k k 8 4 4 8 z T ^ ' V.OX$X$X$X",
"@X@X$X{ ' ^ T z 5 ; = > 6 n C n n N H %.=.%.%.%.=.%.@.S n 6 , = $ $ = = = = $ $ = , 6 n S @.%.%.%.%.%.=.%.o.N n k C n 6 , = ; 5 z T ~ ' { OX@X@X",
"*X@XOX] / I j 3 & . . - 4 n V V Z H %.=.=.%.%.%.%.%.$.K S n 6 , , , , - - = - > , 3 0 C J %.1.9.1.<.<.=.%.@.A Z N M n 8 < - = , 5 j I ~ ] OX@X*X",
"*X@XN.) T j 3 & X   . - 6 n S K @.%.=.=.=.%.%.%.%.%.%.$.K Z t 7 7 8 6 2 - = - 2 8 0 f n S <.q.y.r.q.2.<.=.%.%.@.H N n t 8 4 < ; > 3 f T ) N.@X=X",
"-X@X] ! z 5 > = $ $ = , 6 n S @.%.=.%.%.%.%.%.%.%.%.%.=.%.o.N n n C n 6 > = > 8 n C k n A :.r.i.u.r.0.<.%.%.%.%.o.Z n n C n 6 > = & 3 z / ] @X-X",
"-X$X` I 7 , , < < < < 3 7 k N K @.@.@.H o.@.%.=.<.<.1.1.:.&.H N B B C 8 , = < r B B B N o.>.r.u.y.q.<.%.o.o.@.@.A m n l M B t 4 > = : 7 I ' $X-X",
"%XV.~ k , - 2 r t r 8 7 0 f n N D Z Z Z D K %.<.0.q.t.8.7.:.&.K J V C 6 , - < r B G J H *.0.r.y.q.1.%.A N N Z D N n f k C M n t 6 > # , l ~ { %X",
"OX' Y 8 = $ 4 n B M n n n n n n n n k n m A %.1.q.r.y.y.r.q.<.%.K V n 6 ; = - 6 n V K %.1.q.r.q.1.%.A m n k n n n n n n n n M B n 4 # = 8 R ' OX",
"' ~ P 4 $ $ < t C B B V S Z m n f 9 9 f m K %.<.0.q.y.l.z.z.k.a.=.K m 6 ; @ @ > 6 m o.=.0.r.r.q.<.@.D m k 0 9 f n m N m a n M G B 8 - $ 4 B ~ ' ",
"! I k 3 $ + - 2 7 k B J @.@.A m f 9 9 f m K %.=.=.<.d.c.P.P.K.c.f.3.A u > @ o @ , u A <.0.y.y.q.1.%.A m n f 9 f m D H A m n C B B r - $ , f I ! ",
"v z 0 3 = + + = , 6 n J $.%.o.Z n f f n Z @.%.%.&.%.5.c.I.'.'.I.S.g.%.s 2 = X X = q s %.2.t.r.q.1.%.D N n f f n D @.%.@.Z n k C n 6 - = , 9 z v ",
"x j 9 3 = + + $ = , 8 m H @.@.H Z m m N D @.%.@.@.#.1.v.P.'.|.`./.S.a.O.i q - & ; 4 y H =.2.0.0.1.%.A m f f n Z o.=.=.%.S M f 0 8 < - = 1 9 l z ",
"x j 9 1 = $ $ $ = - < 6 p Z K K H H D D K @.#.@.@.%.<.q.z.Q..X0X1X/.c.9.O.s u 6 6 7 0 m H %.<.1.1.%.A n f f m K %.=.=.%.J M 0 4 < - $ = 3 9 z c ",
"v z 0 3 = $ $ = = $ = , 6 n S @.%.=.%.%.%.%.%.%.%.%.*.>.r.L.1XwXrX8XI.v.a.%.A m n f f n Z K %.=.=.%.H m n m H %.=.=.%.K S n 6 < = + + = 3 0 z v ",
"! I l 3 $ + $ = = $ $ & 3 f V $.=.2.2.1.1.1.<.=.%.%.O. .,.D.<XyXuXrX`.U.k.1.$.K S V M m Z H %.%.=.%.o.H H o.%.=.=.%.H Z a 8 1 ; $ . . $ 1 9 z c ",
"` ~ P 4 $ . $ = = $ $ ; 3 f V @.=.9.q.q.t.t.0.1.=.#.o.| <.S.2XyXiXuX0X/.Z.q.:.$.K L S D K @.%.%.%.%.%.:.>.1.1.=.%.K m t 4 < ; = $ + O $ , 9 l z ",
"OX' R 0 = . @ = = $ = , 6 n V K %.<.q.r.y.u.r.0.1.%.X.A %.h.~.wXiXiXwX}.H.r.>.*.%.%.%.%.%.%.%.%.@.%.<.q.r.t.1.%.K V n 6 , = $ = = $ $ = 3 9 z v ",
"%X{ ~ C , @ @ = = $ = , 8 M V S H +.1.q.y.u.y.r.0.<.o.A o.5.].0XuXiXyX4XR.z.w.-.*.:.<.1.<.=.%.@.#.%.1.t.r.q.*.H S B n 6 > $ $ $ = = = > 7 z I T ",
"-X$X' I 7 : ; = $ $ = 2 t M B M N A +.1.q.y.y.y.r.0.+.H o.3.n.`.rXuXtXqX(.G.y.w.w.7.7.0.1.=.%.@.%.=.<.9.9.=.o.m M B C 8 < $ $ $ = > , 7 z T ~ ^ ",
"-X@X] ! z 5 > = $ $ = < 8 n C C n m D %.1.q.r.u.u.r.1.+.%.4.v.I.oXqXwXqX|.I.m.k.r.r.r.r.q.<.%.#.%.%.=.=.%.o.N n n C n 8 < = $ $ = , 7 z T ^ ' ] ",
"*X@XN.` T f , $ . X = , 4 8 0 k k M S K %.1.q.y.i.i.y.j.f.d.k.c.P.(.1X1X|./.I.L.Z.C.z.z.y.9.<.%.@.o.K K K S M n k 0 8 4 , $ . . $ , k T ) ] { V.",
"#X#X$XN.^ B , $ . + = - - < 6 0 C M B V K %.2.t.y.i.J.K.K.c.k.p.l.K./._.|.}.}.{.!.R.P.G.z.k.q.:.H N m M V V B C 0 6 < - = @ .   $ 3 B ^ [ OXOX+X",
"$X@X@XOX' U 6 = X $ = = $ = < 8 n C n n m K %.<.7.r.z.P.I.K.l.r.y.m.I.(.}.<X5X5X<X}./.I.G.z.r.:.A n f f n M M n 8 < = $ = = $ X = 6 U ' OX@X@X$X",
"$X$X$XOX] Q k 3 ; = = $ @ $ - 4 r 8 7 7 r y s d o.:.s.x.S.S.Z.A.Z.P./.|.1X7X7X7X6X4X2X(.I.J.r.:.A k 9 5 7 8 r 8 4 - $ = , 2 , , 3 k Q ] $X%X#X@X",
"$X$XOXV.] ~ I k 5 > = $ $ = - , < < , , , < q u p D @.3.s.x.D.T.{..X1X0XwXeXwX7X6X4X4X}.E.J.e.:.Z n 7 3 < < < < > = $ > 4 t 0 0 k P ~ ] $X%X*X*X",
"@X@XOX{ ' ~ T z 9 , = $ $ = = = = = = = $ $ = < 7 n M A %.g.].<XqXeXwXeXeXwXqX4X<X5X5X<X(.H.r.:.H n 5 > = $ = = $ $ = < r n C l z v ~ ' V.$X@X#X",
"@X@X$XV.] ~ I k 5 > = $ $ $ $ $ $ $ $ $ . o X & 6 n N d +.g.~.wXyXyXwXeXeXwX6X<X<X<X5X5X}.P.k.<.H n 3 & $ O + @ @ @ $ , 6 t 0 f k z I ~ ' [ V.OX",
"@X@X#XOX] R k 3 ; = = = $ $ $ $ $ $ $ $ . o X ; y D o.+.>.A. XwXyXwX7X6X6X6X4X<X<X<X5X<X.XQ.m.s.K n 3 & $ + + $ $ @ $ - < 2 2 1 3 7 j I ~ ' ] [ ",
"$X@X@XOX' U 6 = X @ = = = = = = = = - = @ @ = q F %.<.7.r.L..XwXyX7X<X2X2X<X<X<X<X<X<X<X1X).I.h.$.n 3 * = $ $ = = = = = = = $ $ = > 5 z T ^ ' ] ",
"+XOXOX[ ^ B 4 $   . $ - , < < , < > , , > , q i | >.w.8.z.R.9XeXwX7X2X[. X2X<X<X<X<X2X<X1X8X_.D.6.m 6 1 , , > , 1 2 < - = X . O $ ; 5 z T ^ ' } ",
"V.{ ] ) T j 1 $ . . $ > 4 r r 8 7 5 5 5 8 u s | ..w.8.k.G./.0XeXyX7X<X X X<X<X<X<X<X2X<X6X0X<XF.5.D t 8 7 6 6 7 8 t r 4 - $ . O $ > 7 z ! ^ ] } ",
"] ' ^ T z 7 , = $ @ = , 8 n M M n h f n N K %.<.0.r.l.G.I.`.0XwXwX7X<X2X<X<X<X<X<X<X<X<X6X6X<X^.g.%.F m n n n n M M n 8 , = $ $ = , 7 z T ^ ' ] ",
"^ ^ T z 5 : = = = = , 3 0 k B V V S Z H $.<.s.j.Z.H.W./.`.1X0XqX7X6X<X<X<X4X4X<X<X<X<X<X<X<X XT.x.1.&.A V V V V V B k 0 3 < = $ = = , 9 b ! ^ ` ",
"! T z 7 ; @ X $ - 2 6 0 f f M S K $.+.:.2.d.c.U.!.}.1X0X0X0X6X6X<X<X<X<X4X6X4X<X<X<X<X<X<X}./.U.z.t.>.&.K K K K S M f g 0 6 2 - $ $ $ > 0 z T ! ",
"v z 0 3 = + + = < 8 n C C n m K %.<.0.r.l.G.I.`.0XwXtXtXwXqX6X<X<X<X<X<X<X<X<X<X<X5X5X<X2X(.I.G.z.r.,.*.%.%.%.%.o.N n n C n 8 < = X X = 3 0 z v ",
"9 7 5 1 > = - > 6 m S J H H o.+.<.0.y.J.P.'.8XrXuXiXiXyXwX7X<X<X<X<X<X<X X}.}. X<X5X5X<X2X).Y.G.k.q.>.>.<.1.1.<.*.o.H S J S m 6 , = = - 1 5 7 9 ",
"> , 1 4 6 6 3 6 t Z @.%.<.>.>.,.0.r.c.P.).9XeXuXiXiXtXyX7X5X<X<X<X6X4X X~.!.!.}.<X5X5X<X1XoX'.M.d.<.:.>.q.q.q.q.0.,.>.<.%.@.Z t 6 3 6 6 4 1 , > ",
"$ = < 8 n C C n m H %.1.q.r.r.e.r.k.m.I.`.0XwXtXtXwXqX6X<X<X<X<X4X6X<X}.E.T.E.{.<X6X5X<X.X).I.v.4.%.+.2.r.y.y.r.r.r.r.q.1.%.H m n C C n 8 < = @ ",
". $ , 8 B U J J K #.=.1.0.t.r.y.u.z.J.P.R.~.,X,X,X~.~._.|.}.<X<X<X<X X~.E.T.!.[.<X6X4X.X(.L.b.5.%.%.=.0.y.i.u.y.y.r.t.0.<.%.@.K J J U B 8 , $ . ",
"O $ , 8 B E L $.%.=.=.=.<.1.q.r.i.i.z.z.x.S.b.b.b.b.S.I.(.|.1X<X X{.~.!.~.{.[.2X<X1X8X).D.5.$.K o.%.1.q.y.i.i.y.t.0.1.<.=.%.%.%.$.L E B 8 , $ O ",
"$ = > 6 n J @.%.=.=.%.%.#.%.<.0.r.u.u.r.0.<.%.o.o.%.a.c.I.`.1X<X[.!.T.R.{.<X5X5X<X1X`.I.g.K n n Z %.2.q.r.y.u.r.0.<.%.#.#.%.=.=.%.@.J n 6 , = $ ",
"= = ; , 6 y A o.@.@.H K @.%.%.=.:.,.7.7.:.O.s y t s &.9.m.Q.1X5X[.T.L.T. X7XwX7X<XXXI.v.=.m 9 9 n @.<.0.q.t.q.0.<.%.%.#.%.%.%.%.o.A y 6 , ; = = ",
"= = = = - 4 y Z S N N A @.%.@.H A o.*.<.*.A p 0 0 t d *.y.W..X4X[.T.L.T.<XwXyXwX<X^.n.4.X.n 9 9 k Z @.=.1.1.1.<.%.%.%.%.=.=.%.K Z t 2 - = = = = ",
"= = $ $ = < 8 n C k n Z @.%.o.N n m o.%.@.D n g g n A *.r.H.XX<X X!.T.!.<XwXyXeX<X].g.%.A m n k f n Z o.%.=.%.%.%.%.%.%.=.%.@.S n 6 , = $ $ = = ",
"= = = - , 4 8 f f f f m A o.D M k n Z A D m k f f m K 2.l.L.E.}.[.{.}.1XqXeXtXeX<XF.g.+.d F Z M f f n m A @.#.%.#.@.o.o.o.o.D m f 7 3 , - - = = ",
"= - , 4 8 t h f f f k n m N N M l C M M n k f f m D <.j.Z.W.T.E.~.<X6XwXeXeXeXwX<XT.j.>. .o.K S n f f f m A @.%.#.H N N N N m n f f 0 8 4 , - = ",
"@ = < 8 n M M n n n n n n n n n n n n n n n n m A %.s.D.T.R.T.T.~.4XwXtXtXwXeX7X<X!.Z.r.w.>.%.K N n f f n D @.%.@.Z n f k n n n n M M n 6 < = @ ",
". @ - 4 t M M M n n n n C n 0 8 6 u p Z N N Z A &.1.j.L.R.R.R.E.{.6XwXtXtXeXwX7X<X~.L.z.y.q.1.%.H N n n m D @.@.K M f 0 0 f n n M M M t 4 - @ . ",
". X $ - 2 8 n M M n n n M C 7 , > q s @.$.$.@.&.:.q.l.K.I./.(.}.2X4X7XwXeXeXwX7X<X}.R.P.m.k.q.<.o.K D A H K K S M n f 0 0 h n M M n 8 2 - $ X . ",
"= = $ $ = < 8 n M n n M M n 6 ; = w d %.3.%.%.*.,.r.z.G.I.(.}.<X<X<X<X6XqXwXeX7X<X}./.I.G.z.r.,.=.%.%.%.%.@.Z n f n n n n n M M n 8 < = $ $ = = ",
"0 8 , = X $ < 8 n M M n n r 2 ; > q s @.%.%.%.*.7.y.C.P./.|.<X4X<X2X2X<XqXeXwX7X<X|./.I.K.z.y.7.1.1.1.1.=.A u 4 5 0 M V M M n n 8 < $ X = , 6 0 ",
"~ Y n < $ . $ < 8 n M n 6 < , 2 6 t m Z D K o.*.w.y.J.R. X<X6X5X<X2X<X6XwXeXwX7X<X}./.I.G.z.r.e.q.q.0.5.%.s q ; , 7 M G V M t 6 < $ . $ 2 n Y ~ ",
"OX' R 0 =   . = 4 t n 8 , = - 6 n C C n m K %.:.w.r.Z.!.<X6X6X<X2X2X<X6XwXwXeX7X<X|./.I.G.k.r.e.e.r.t.5.%.s < = ; 4 n V B n 8 < = .   = 0 R ' OX",
"=XOX^ B , . o $ , 6 8 2 = @ - 8 C M k n D 6.s.s.0.q.x.!.1X6X4X<X2X<X<X6X7XqX7X6X<X2X|./.L.l.r.e.p.y.r.2.%.s e , > , 6 r t 8 4 - $ . X , B ^ OX-X",
";X$X' T 7 & @ $ - > < - $ @ ; 6 n C n Z %.h.S.x.a.1.g.L.`.8X1X<X2X<X<X<X6X6X4X<X<X<X<X XT.A.r.e.p.u.r.2.%.A y 6 1 , > , < < , - $ @ & 7 T ' $X;X",
"-X@X] ! z 5 > = $ $ = = $ = < 7 n M D %.j.U.I.n.5.%.=.v.I.)..X<X<X<X<X<X<X<X<X<X<X6X6X<X!.Z.r.8.e.r.0.1.%.K V n 6 , = $ $ = = $ = > 5 z ! ] @X-X",
"=X#XN.` T j 3 = + . X $ - < 6 t N K 3.f.K.Y.P.x.3.H o.1.c.R.|.5X6X6X<X<X<X<X<X<X5X6X6X1X!.Z.r.7.7.0.9.<.=.$.J M 0 4 - $ $ X X $ = 3 j T ` N.#X=X",
"*X*X@XN.^ P 4 = .   X = 2 8 t N H 3.h.K.P.P.z.2.@.m m o.a.S.~.5X7X6X<X<X<X<X<X5X5X4X1X_.I.C.r.7.>.<.<.<.=.$.S M k 0 6 < = X . . = 4 P ^ N.@X*X*X",
"@X@X@XOX' Y 6 = . . = , 8 n N H %.f.S.I.Y.J.r.+.A n h F %.h.^.<X6X6X<X<X<X<X5X5X<X}.(.I.G.z.r.,.*.%.%.%.%.o.N n n C n r 2 = . . = 6 U ' OX@X@X$X",
"N.V.OXOX] Y 8 = $ - 2 7 f M V K =.d.c.P.J.C.8.+.Z n 0 m o.s.F.}.1X<X<X<X<X<X<X<X}./.P.m.z.y.r.0.=.#.@.o.H D m n C M M n 8 2 = @ = 8 Y ] OXOXV.N.",
"' ] { OX] Y 6 = $ < 8 n n M N K %.9.k.z.J.i.e.+.Z n f m @.s.S./.|.1X<X<X5X<X2X_./.U.c.k.y.y.r.q.<.%.K D N m n n n M M M n 8 < $ = 4 Y ] OXV.] ] ",
"_ ' ] { ' U 4 = - 4 n M C n m D %.1.q.r.u.i.r.:.D n n Z %.s.c.I.(..X<X5X5X<X}.(.I.G.k.r.e.e.r.q.1.%.A m n k n n n n n M B n 4 = = 4 U ' { ] ' ( ",
"( _ ] ] ' U 4 = - 8 M B C n m A %.<.>.7.p.u.r.<.H n n D %.d.c.U./.|.<X5X5X<X|./.U.m.y.e.e.e.r.q.2.%.A n f f f n n t n M V M 8 - = 4 U ' ] ] _ ( "
};
