/* XPM */
static const char *wall_27[] = {
/* columns rows colors chars-per-pixel */
"72 72 241 2 ",
"   c #380517",
".  c #3C1222",
"X  c #4D0A16",
"o  c #4D0E19",
"O  c #470916",
"+  c #500D18",
"@  c #4E111C",
"#  c #42111F",
"$  c #51131D",
"%  c #4A010D",
"&  c #4C1521",
"*  c #4E1B25",
"=  c #471926",
"-  c #511720",
";  c #531A22",
":  c #581D24",
">  c #4E232B",
",  c #552027",
"<  c #55242B",
"1  c #59252B",
"2  c #55292E",
"3  c #5A292E",
"4  c #5B2227",
"5  c #4D2B35",
"6  c #552C33",
"7  c #5A2D32",
"8  c #543236",
"9  c #5C3236",
"0  c #55363A",
"q  c #5D3539",
"w  c #563A3D",
"e  c #5D3A3D",
"r  c #4F363F",
"t  c #632B2D",
"y  c #642726",
"u  c #6A332D",
"i  c #633334",
"p  c #613739",
"a  c #623B3C",
"s  c #6B3E3C",
"d  c #6A3734",
"f  c #763B36",
"g  c #632E31",
"h  c #6A433E",
"j  c #64413F",
"k  c #75443D",
"l  c #79453E",
"z  c #734A3E",
"x  c #7B4B3D",
"c  c #7C503D",
"v  c #543A41",
"b  c #5C3E41",
"n  c #523741",
"m  c #4F3943",
"M  c #603E41",
"N  c #5E4244",
"B  c #5B4A4A",
"V  c #574645",
"C  c #5C5352",
"Z  c #5F4F50",
"A  c #634343",
"S  c #6B4643",
"D  c #664847",
"F  c #6D4945",
"G  c #654B4A",
"H  c #6D4D4A",
"J  c #62464A",
"K  c #744C44",
"L  c #7A4E45",
"P  c #724D48",
"I  c #764B45",
"U  c #6B514D",
"Y  c #7C5146",
"T  c #74524B",
"R  c #7C5349",
"E  c #785448",
"W  c #654E51",
"Q  c #645355",
"!  c #635B5B",
"~  c #675758",
"^  c #7B5853",
"/  c #666462",
"(  c #6C6465",
")  c #6C6B6A",
"_  c #6E6769",
"`  c #716D6D",
"'  c #706666",
"]  c #6E7270",
"[  c #737373",
"{  c #747B77",
"}  c #767B7A",
"|  c #787B7B",
" . c #777778",
".. c #6C706C",
"X. c #686061",
"o. c #8C553C",
"O. c #935B3C",
"+. c #804A3F",
"@. c #9A613E",
"#. c #844E43",
"$. c #845445",
"%. c #895644",
"&. c #8C5A45",
"*. c #835549",
"=. c #88574A",
"-. c #855A4B",
";. c #8C5A4A",
":. c #865945",
">. c #925E44",
",. c #925D4B",
"<. c #945747",
"1. c #835E51",
"2. c #8E5E51",
"3. c #914F42",
"4. c #946145",
"5. c #9B6444",
"6. c #95624B",
"7. c #9B644B",
"8. c #9D694B",
"9. c #9F6946",
"0. c #896457",
"q. c #9C6553",
"w. c #9C6954",
"e. c #976754",
"r. c #966B50",
"t. c #A36A44",
"y. c #A96D44",
"u. c #A46C4B",
"i. c #AA6E4B",
"p. c #A3664B",
"a. c #AC7246",
"s. c #AD734A",
"d. c #A7704A",
"f. c #B2754C",
"g. c #B5794B",
"h. c #BA7C4C",
"j. c #B37547",
"k. c #A36651",
"l. c #A46B53",
"z. c #AA6E58",
"x. c #AC7254",
"c. c #AB735B",
"v. c #A8765B",
"b. c #B37453",
"n. c #B57953",
"m. c #BB7C53",
"M. c #B4765C",
"N. c #BB7B5C",
"B. c #B6795B",
"V. c #B16F54",
"C. c #967262",
"Z. c #AB7A62",
"A. c #A57862",
"S. c #B57C62",
"D. c #BB7D62",
"F. c #BD7F6B",
"G. c #C17E5B",
"H. c #C17F53",
"J. c #76837D",
"K. c #78827E",
"L. c #BE8155",
"P. c #BB855B",
"I. c #B88459",
"U. c #B98153",
"Y. c #AA846A",
"T. c #BD8363",
"R. c #BA8766",
"E. c #BD9272",
"W. c #BE987C",
"Q. c #B88C73",
"!. c #C38455",
"~. c #C4835C",
"^. c #C9855E",
"/. c #C38B5D",
"(. c #CA8A5B",
"). c #C78551",
"_. c #C58462",
"`. c #CB8C65",
"'. c #C58C6B",
"]. c #CE8C6B",
"[. c #C78764",
"{. c #D28D6C",
"}. c #D28E66",
"|. c #CC936D",
" X c #C7956A",
".X c #D3936B",
"XX c #D8966A",
"oX c #C49572",
"OX c #CD9471",
"+X c #CB9C74",
"@X c #C89C76",
"#X c #D29472",
"$X c #D99471",
"%X c #D49A76",
"&X c #DB9D76",
"*X c #D59C79",
"=X c #DA9D7B",
"-X c #C18E75",
";X c #E29F78",
":X c #CEA37D",
">X c #CDA175",
",X c #D1A275",
"<X c #D3A37C",
"1X c #DCA37D",
"2X c #D4A87D",
"3X c #D9A87D",
"4X c #E1A47D",
"5X c #E2AA7F",
"6X c #7A8581",
"7X c #7B8C84",
"8X c #7E928A",
"9X c #7C9087",
"0X c #839D93",
"qX c #80958C",
"wX c #D6A681",
"eX c #D5AD84",
"rX c #DBAB83",
"tX c #D9AC87",
"yX c #D6B086",
"uX c #D9B086",
"iX c #D6B289",
"pX c #DBB48A",
"aX c #DDB88D",
"sX c #D1AC88",
"dX c #E3AB84",
"fX c #EAAD84",
"gX c #E2A883",
"hX c #E4B48C",
"jX c #E9B58B",
"kX c #E2B98E",
"lX c #E7B58A",
"zX c #E5BC93",
"xX c #E9BE95",
"cX c #E8BF98",
"vX c #F2BB91",
"bX c #E7C195",
"nX c #EAC195",
"mX c #EBC49A",
"MX c #ECC79C",
"NX c #F3CA9C",
"BX c #F4CCA2",
/* pixels */
"0XqXJ...C 0 < ; $ o o o o ; 3 a G G J A K =.6.7.6.;.*.*.=.7.V.[.&XjXxXxXpXeXuXaXeXE.w.$.x $.;.;.;.;.,.7.7.=.K A N J A p 7 ; X % X 1 W  .7X7X7X6X",
"qX7X{ / B 8 , ; $ $ ; $ $ ; 1 q A J A A F Y ;.,.,.;.*.*.;.q.M.].1XjXxXzXpXeXuXaXeXoXv.=.$.$.;.;.;.;.,.,.;.Y F A A J A p 1 ; o X ; 9 ~ [ 6X7X7X7X",
"J.{ ) Q w < ; ; : < 1 < ; ; : 3 9 e e A A K Y *.=.;.%.%.;.l.T.%XgXjXzXpXpXeXuXuXeX@XS.q.,.;.;.;.;.=.=.*.L F A A J D A 9 < $ $ : 7 J ~ [ K.6X7X7X",
"../ Q N 2 ; $ ; 1 9 e 9 1 ; $ ; < 7 q b N A S I *.;.&.%.,.v.oXrXjXkXpXtXeXeXeXyXwX*X'.B.l.6.;.=.;.;.*.P A M b A D G A 9 ; $ : e Q X._ [ } 6X6X7X",
"C B w 6 ; o o ; 3 a A a 3 ; o o ; 1 q A J N A K *.;.%.$.;.A.:XxXmXkXeXeXeXeXeXeXeX3X&X].N.q.;.=.;.;.*.K A b b A D G A 7 ; ; 7 ~ [ | } [ { K.7X9X",
"0 8 2 ; $ X X @ < 9 e 9 < $ @ - < i h P I P K Y -.=.L k Y A.sXMXNXzXeX:X<XeXpXpXpXdX4X$XD.w.=.$.%.>.>.*.R P F S A D A 9 , 1 A ` 7X8X6X| | 6X7X8X",
"< < , ; $ o o @ * < 1 : - $ ; 2 e S L *.;.6.4.6.6.=.K a F C.sXMXNXzXeX:X<XeXpXaXkXlX4X.XN.w.=.$.o.5.u.x.z.w.;.L S A N q 7 q W ` 7X8X7X6XK.7X7X8X",
"; ; ; ; ; ; ; ; ; ; ; $ $ ; < 9 A H R =.5.i.s.s.u.;.S e A 0.W.xXNXzXeX:X<XeXpXzXxXjX4X].M.q.;.&.5.s.!.].]._.z.;.I S A e e A W ( [ K.6X7X7X7X7X7X",
"$ $ @ @ - : t t t 4 ; * ; < 2 9 e A K *.5.f.h.h.s.6.I p A 0.Q.hXxXkXeX:X:XeXaXzXxXjX1X].M.k.7.8.n.`.&X4X4X$XT.l.;.L F A A J J J Q ( { 7X7X6XK.K.",
"$ $ o o $ 4 f l k p 7 6 8 9 7 1 1 7 p K 4.s.h.).h.u.%.z I 2.R.=XfXdXeXeXeXwXpXzXxXjXgX{.N.i.u.n. XrXkXjXlX1XOXD.l.;.Y F D N q 6 7 J ( K.6XK.{ [ ",
"; ; @ @ ; t +.;.-.P A N J A 9 4 ; * 7 A R 7.s.h.h.s.5.&.;.q.M.].&X3XeXeXeXeXaXzXxXhX1X].m.i.s.P.<XxXBXmXxXhX*X].N.k.;.E H A 7 ; ; 7 ~ [ | } [ ` ",
"3 1 < * 1 d %.6.e.-.P H T P s 3 ; * 6 b H R 4.t.s.g.f.x.z.z.b.N.`.,XeXpXpXpXkXxXxXhX%X[.f.t.u.I.*XzXBXBXMXzXgX$X_.b.5.;.R K i : ; 6 J ( [  .[ [ ",
"p q 9 9 q k =.6.6.;.*.-.-.*.I p 7 7 e A J D K :.9.f.!.[._.N.b.f.I.+XeXpXpXkXxXmXxXrX|.n.t.>.6.c.'.gXvXNXBXxXdX$X^.m.i.9.6.*.k i 7 0 V ~ ) [  .| ",
"A A A b A K *.;.,.;.;.;.,.;.R F A N A A b b A I 4.s.~.].]._.b.s.U.oXeXzXzXxXmXmXxX3X[.s.@.%.;.q.M.].1XkXxXkX1X].G.n.s.u.7.;.R F A w v B ~ ) [ } ",
"J J J J D F I Y *.;.,.,.,.;.*.E H D D A A A S Y >.u.m.^.[.~.n.f.I.oXeXkXzXxXmXmXxX<X/.a.O.&.=.,.k.M.'.+X*X@X'.D.b.f.i.9.>.*.E H D e 0 0 B ! ) [ ",
"N A J D D S S K Y =.,.,.,.=.=.-.R P A A A P *.;.6.5.u.b.m.m.m.G.'.+XeXpXzXxXmXmXzX<XP.d.5.>.,.,.,.7.l.v.Z.A.z.l.l.u.5.>.$.K D G D q 1 < 8 B ~ / ",
"A A A A A N b A F R ;.,.;.;.;.,.;.Y S A S Y ;.,.;.;.,.9.s.m.^.].%X<XeXpXzXxXxXzXeX+XP.s.9.>.=.;.=.;.;.;.;.=.=.;.;.,.;.$.F A A J A 9 : ; < w B C ",
"K K S A b v n b A I $.;.,.6.7.p.7.&.I S S I L L P P $.7.f.~..X%X<X<XeXpXzXxXkX2X XP.g.y.4.$.L E *.=.$.L k k I L L Y L K D N N J D 9 : $ ; 8 V B ",
"=.*.L S b n n b A K $.,.7.u.d.s.u.7.=.L S h j e b D R l.G..X&X<XeXeXwXpXxXxXtX XU.a.a.t.&.K A D R ;.$.I h a j S S S S S A J J G D 9 : $ ; 8 V B ",
",.;.$.K A b b A F R ;.7.u.s.f.f.s.u.7.;.R K A w w A -.c.].&XrXeXeXeXeXpXnXxXwXR.s.y.j.s.7.I A S R ;.*.I A b b A A A A A A A D D A 9 : ; < w B C ",
"&.%.$.Y z z z I *.6.l.x.b.f.j.a.a.s.i.l.w.0.1.T h z ,.S.%XgXuXyXyXeXpXzXbXzX<XT.b.m./.`.I.6.Y I Y *.E F A N N J J J A M e q p p q 3 ; ; 6 N ~ / ",
"$.$.%.&.>.O.O.>.8.c.D.T.m.f.a.a.a.f.b.N.R.Q.Q.A.4.&.u.R.wXpXpXeXuXaXkXzXzXpX<X'._.`.*X3X+XI.5.%.L K S A A A A J G G J e 7 1 < 1 1 : $ ; 9 W ( ] ",
"*.;.6.u.s.a.a.s.m.[.].[.m.s.y.y.s.n.~.].=XtXeXoXU.s.n. XeXpXyXeXpXkXxXzXaXeX+X].].%XwXeX,X/.s.>.z A b b A A A A D D A q 1 ; $ - ; @ X ; e ~ [ 6X",
"w.v.v.I././././.`..X{.[.n.y.t.y.b.~.].*XdXzXkX3X X/.`.>XeXiXeXwXpXzXxXzXtX<X|.].`.'.E.E.Q.I.u.&.z b b N D A a q q p q 7 : $ @ $ $ X X $ M ( K.8X",
"E.E.oX+X,X,X,X%X%X$X{.G.f.y.y.f.~.].*XrXaXkXhXrX<X%X>X2XeXeXeXeXpXzXxXkXwXOX[.^.L.n.w.0.0.-.-.L S A N J D A 9 1 < 1 1 < ; $ $ ; $ X % $ M ` 7X0X",
"eXeXeXeXeXeXyXeXwX%X].G.f.s.f.G.].%XwXeXyXyXeXeXeXeXeXeXeXwXeXeXpXzXxXhX=X].^.m.s.4.I A b b A A A A D D A q 1 ; $ $ ; ; ; ; ; ; ; o X ; A ` 7X0X",
"kXaXaXpXpXiXiXiXtXwX%X'.R.P.R.|.%X*X<X<X<X<XeXeXiXiXiXaXpXuXtXpXzXxXzXhX*X].G.f.9.$.h w 5 5 8 q a A A a 9 1 ; o o o $ - ; ; ; ; $ @ @ < J ) K.8X",
"aXaXpXpXeXiXiXiXiXeXwX<X@X@X>X<X<X*X#XOXOX<XwXyXiXpXpXkXzXzXkXzXxXbXzXhX*X].N.u.,.Y D N 8 > < 6 e A a 7 , $ @ o o @ $ ; ; ; $ $ $ @ > 0 Q ) { 6X",
"eXeXeXeXeXeXeXeXeXeXeXeXeXeXyXiXeX<X#X].#X<XeXyXeXeXpXkXxXxXxXxXxXbXxXlX1X].N.k.=.E H A 9 ; ; 1 q A a 3 ; @ $ ; ; ; ; ; ; ; $ $ ; < 0 B ! ) [ } ",
"<X<XwXeXtXtXrX3X<X,X,X<X3XrXpXaXpXwX*X%X%XwXeXeX<X<XrXpXzXzXzXzXxXmXxXlX&X].N.l.,.Y h 9 < @ $ 4 p D M 7 : : 1 3 1 , ; - - ; ; ; 1 0 B ! ) [  .} ",
"#X%X<XeXpXpXrX&X.X`./.`..X1XrXpXiXpXeXwXwXeXeXwX*X%X*XrXpXaXpXpXzXbXxXhX=X].G.b.9.+.d ; o X $ 1 p D D e 9 9 e a 9 1 ; $ $ ; ; 6 w B ! ) [ | K.K.",
"[.].#X<XeXrX*X].G.f.s.f.~.].%XwXeXeXeXeXeXyXeX<XOX].OX<XeXyXeXeXaXzXxXhX*X].^.!.s.o.u ; O o ; 1 q A D A A A D A q 1 ; $ $ ; < 0 B ~ ( [ | 6X7X7X",
"G.~.`.|.+XoXR.c.7.>.&.>.l.B.[.|.+X>X>X>X<XrX3X%X[.~.[.+XeXyXeXwXtXpXkXpX<X#X|.`.m.5.f 4 ; * 1 3 7 q A D G G D a 7 < ; $ $ ; 2 v C / ) } 6X7X8X8X",
"f.n.L.~.P.v.e.-.K h z L ;.q.x.I.P.P.P./.|.*X&X].N.b.I.oXeXpXyXeXeXtXpXpXwX<X*X.X[.V.3.k p q 9 7 1 1 9 A G D e 3 , ; ; $ $ ; 2 w C / ] } 6X7X8X8X",
"d.s.f.g.s.6.Y A v b A F R ;.7.i.s.a.a.s.m.[.]._.b.s.U.oXeXpXpXeXwXwXeXeXeXeX3X%X].N.k.;.E H A 9 ; ; 1 q A a 3 ; $ $ ; $ $ ; < 0 B ~ ( [ | 6X7X7X",
"d.a.a.y.t.%.h w r b S P R $.>.5.5.@.@.5.k.c.M.b.s.s.L.|.wXtXtXeXwXeXwXeXyXyXrX*X{._.b.w.0.-.T p ; o @ 1 9 7 : o X @ $ $ $ ; ; 6 w B ~ ( [ | K.6X",
"d.a.i.u.5.L j w b S Y *.*.$.&.>.>.>.&.%.&.,.q.u.d.g.L.`.%XwXwXeXeXeXeXeXyXyXwX%X]._.m.x.l.r.-.s 4 o o - , : - $ o @ $ $ ; ; ; ; 1 8 N ~ ( [ { | ",
"f.s.i.5.;.I D A S Y ;.,.,.;.=.;.;.;.;.;.=.=.;.6.9.s.m.^.].%X<XeXyXeXeXeXyXeX<X%X].^.m.s.u.7.;.l t ; @ @ ; ; ; ; ; ; ; ; ; ; $ $ ; < 0 B ! ) [ } ",
"h.f.u.,.R P F P Y *.,.,.,.;.=.*.=.2.w.w.q.6.&.&.&.7.u.m.^..X<XyXiXyXeXeXeXeXwX%X].^.g.y.5.>.%.l d 3 < ; ; < < 1 1 1 1 < : $ + + $ ; 8 B ! ) [  .",
"h.f.9.$.F S I *.=.;.;.;.;.;.*.*.*.e.c.S.N.x.9.&.Y Y &.u.m.}.<XyXiXyXwXwXeXeXwX%X{.^.g.y.O.o.#.L l k s p 9 7 8 q e p p 7 , $ o + $ < 0 B / )  .| ",
"h.s.6.Y A A L ;.,.,.;.;.;.;.$.$.;.l.D.].}.^.s.&.F A S &.s./.,XeXpXpXeXeXeXeX<X%X].^.m.s.9.>.;.;.;.;.*.K A b b A D D A q 1 ; o $ ; < 0 B ! ) [ } ",
"f.u.&.K b M L ;.7.7.6.,.,.;.$.%.4.x.[.$XXX(.g.4.F b e z 4.n. X<XtXpXpXpXiXyX<X|.[.^./.R.R.Y.A.A.c.z.6.R F D D H H G N w 7 < ; $ $ ; < w Z / ) [ ",
"u.6.*.F b b K =.7.u.u.5.6.;.&.>.t.n.`.$XXX(.g.4.K b w e I 6.S.%XgXlXkXzXzXiX+XP.m.~.|.wXiXsXwX@X'.N.l.=.Y I E R P D b v w 9 1 ; $ o @ < w B ! / ",
",.;.Y F A A I ;.5.s.s.u.6.;.&.5.s.m.[.].`.~.s.4.Y A w w A *.c.].4XjXxXbXzXeX Xb.s.I.<XxXBXMXzXlX1X].M.q.;.=.;.;.*.K A A J A q 1 ; o o ; 6 w B C ",
";.=.R I K I *.6.u.f.f.u.6.;.6.u.m.^.^._.N.n.u.>.Y A v m N R l.^.;XjXxXbXkX<XT.u.t.B.<XnXBXNXvXvXfX1X'.M.l.7.7.7.,.&.Y R R T S 9 1 : ; : 1 8 0 w ",
";.=.*.R R -.6.u.s.g.f.u.>.;.q.M.[.(.~.n.s.u.7.&.I A v v J Y 5.m.XXdXxXxXdX#XM.7.6.v.OXfXvXfXfXfXjXjXwXOXD.b.i.u.u.t.u.9.6.-.I s q 9 9 9 7 1 < < ",
";.;.=.=.;.6.u.s.g.g.s.9.&.;.w.D.].].L.s.t.7.;.R F A b b A z O.s.`.rXxXzXgX].b.,.;.q.S.].{.{.].*XhXxXjX1X].G.b.s.a.a.s.u.7.;.Y F A J J A 9 1 ; @ ",
";.;.;.;.,.5.d.g.h.g.d.5.%.=.w.F.#X.X!.a.5.&.R P S A e q 9 d x 7.R.wXxXxXfX|.M.6.*.$.<.k.k.k.c.R.wXjXjXgX$X_.m.s.y.9.7.6.=.$.I S D G U G p 4 $ X ",
";.;.;.;.,.5.d.g.h.g.s.5.%.=.w.F.#X.X!.a.4.Y F D D A q 3 , 1 i R Y.sXxXNXjX*XR.e.$.k f f f S -.A.oXgXfX;X$X[.m.s.5.$.I F F F S A D G U G p 1 $ X ",
";.;.=.=.;.6.u.s.g.g.s.9.&.;.w.D.].}.^.s.>.I A N J A p 1 ; & > A C.@XxXNXnXeXE.v.;.f 4 ; = 5 A 1.Z.].$X$X].[.m.s.4.I A b b A A A A D D A 9 < ; @ ",
",.;.*.*.Y $.6.u.s.g.f.u.4.6.l.B.[.^.m.u.&.K A N N A p 7 ; & . 5 ^ Q.zXNXMXpX:XR.k.f : O   . 6 S ;.z.D.[.[.(.!.g.9.:.I F S F D A A a e 9 1 : ; - ",
",.=.*.I S K *.6.u.s.f.s.u.u.i.b.m.n.s.7.$.F A b A A A a 9 =   = s Z.pXNXMXzXrX%XN.3.y O     * 7 s *.w.B.~.(.!.h.s.u.7.>.&.*.E F A q 2 : ; - ; ; ",
",.;.Y F A A L ;.5.u.s.s.s.s.s.s.s.u.7.;.R F A b b A D G A 6 & ; f A.eXmXmXxXjXgX].k.f ; O o ; 1 8 A R 7.s.g.f.s.s.s.s.u.7.;.R H A 9 < ; $ $ ; ; ",
"7.,.R F A D Y ;.7.5.u.d.f.f.f.s.u.7.;.R P D A b e N D H H s u f 3.R.eXbXmXxXxXlX%XM.#.g : ; , 6 8 b S c o.o.o.o.O.5.9.7.;.*.I D A e 7 < : ; ; ; ",
"7.,.*.F J D R ;.,.,.6.9.d.f.f.s.8.;.R P D A b w w b D P R =.<.k.B.oXeXaXxXnXxXjX<XR.6.l i 7 9 w b N a d y y y y d k Y E I F S A A A a q 7 < ; - ",
",.;.Y F A S Y ;.;.;.;.6.u.s.d.5.;.L F A A A A A A A S L ;.l.N.].%X<XeXpXzXxXxXzXeXoXv.;.I h A J J A q 1 ; @ @ ; 1 q A D D A A A A D D A 9 < ; @ ",
"-.$.I a q p K $.*.*.;.7.u.d.5.%.k i 7 9 e S K I I I L %.7.b.].&XgXrXeXyXpXkXzXzXpX@XT.8.;.R T H S p 7 < * ; : 4 g a S D F F S D D D J a 7 ; @ X ",
"P F s 7 1 3 p F E *.;.7.l.8.&.f 4 & & ; i k *.;.;.*.&.4.u.m.`.&X4XrXeXeXeXpXzXbXzX<XR.s.7.6.;.I i 3 < 2 7 p s l x L Y $.$.$.E H D b q 3 : $ o X ",
"G A 9 < ; ; 7 A P *.;.6.6.;.l t ; O O ; t x ;.6.;.;.>.9.s.m.^.].%XwXeXeXeXeXpXbXxX3X`.s.t.7.=.k y ; * 7 A T *.;.,.;.;.;.,.;.*.P A 9 < ; $ $ ; ; ",
"G A 9 : $ & 6 N U E *.*.#.k d 7 < * * , i l *.*.R R &.u.g.h.m.~.'.<XeXyXeXwXpXcXxX3X/.a.5.&.Y d ; o & 7 D ^ 1.;.;.;.;.;.;.-.R S q < @ o - 1 9 e ",
"Q J 9 : $ ; 7 J U T P h d t 3 9 q q 9 9 p h F S A S *.u.h.h.g.n.R.@XyXiXeXeXpXcXxX3X/.y.O.Y S 7 & O & 7 J U T T T T T E E T S p 1 @ X $ 3 A ~ ( ",
"G A 9 < ; : 9 A G G A 9 : ; , 9 A D D A A A A b b A Y 7.s.j.a.s.I.+XeXpXeXeXpXxXxXrX`.s.>.L A 7 * ; < 9 A D D A A A A D D A q 1 ; X X ; e ~ [ 6X",
"p 9 7 2 < 1 7 9 q e 9 < @ o - 3 a D G G G D A A S K Y ;.7.5.t.a.L.|.rXtXeXeXpXxXxXdXXXL.u.:.K s u u d s S D N w 0 8 7 9 q 9 6 ; $ o o < J ) 6X8X",
": , 2 8 0 8 1 : : < < ; @ o @ ; 3 e J G H P L $.&.4.&.Y Y $.4.a.!..X*X3XwXeXiXzXxXjX1X].m.u.4.&.o.o.o.$.L H J b 8 < ; ; < 1 : ; $ @ * 0 ~ [ 7XqX",
"+ ; 2 b B N 6 ; $ $ ; ; ; ; $ $ ; < 9 A H E ;.u.f.s.4.I A F &.s.H.[.].%X<XeXaXxXxXlX=X].G.b.s.a.a.s.u.7.;.R H A 9 < ; $ - ; $ $ ; , 8 B / { 7XqX",
"@ ; 8 B ! ~ b < & @ $ : 1 3 1 ; $ @ < 9 h $.5.g.).h.5.K b A :.u.f.b.M.T.+XeXzXbXzXwX-XS.x.f.h.!.(.(.~.b.u.,.*.I s 7 , $ $ $ + + ; 6 N ! ] J.7X8X",
"> 8 N ! ) ) ~ v < & $ , 9 a q 1 $ O o : d %.u.L.).h.5.K b A R 6.7.<.,.v.E.eXbXmXpXW.C.1.&.9.h.(.}..X].!.f.u.6.*.I s 9 1 ; o X X ; 7 W ) J.7X9X8X",
"V B ~ _ [ [ / B 8 ; ; 4 q A a 3 ; O O ; u o.s.U.U.s.>.I A D R =.&.%.;.v.E.eXxXnXeXY.^ A h o.s.^.`.].[.m.s.t.4.;.R H A q 1 ; o X ; 9 ~ [ 6X7X7X7X",
"Q ! ) [  .) ~ b 2 ; ; < 9 e 9 1 ; @ & < f >.s.h.g.9.:.K A S L =.,.,.q.Z.oXeXkXlX*XA.T w e c 9.n.N.S.c.l.6.&.$.*.E H D N q 3 ; @ ; 9 ~  .6X6XK.J.",
"( ) [ }  .( N 2 ; $ ; : 1 1 < : ; * > 9 x 5.s.g.i.6.Y F A A I =.7.x.S.'.:XeXdX5XOXv.T w e I 6.l.z.w.6.-.Y K K K F S D J A q 1 $ ; 9 ~  .6XK.{  .",
"` [ } | [ ~ 9 ; o @ ; ; ; ; $ $ ; < 8 A R 7.s.s.u.;.I S A A I ;.l.N.].*XwXeXrX1X].z.R A A I ;.7.6.;.Y F A b A A A A A D G A 7 ; ; 7 Q [ | } [ ` ",
" .} | | [ Q 7 + X o ; ; $ o o $ ; < w G -.8.s.i.5.*.K S A A I ;.z.[.$X4XtXeXrX&X].z.*.S A I *.;.%.$.K M v n v b e a A D H D 9 : ; 7 Q [ }  .` ` "
};
