/* XPM */
static const char *wall_39[] = {
/* columns rows colors chars-per-pixel */
"72 72 235 2 ",
"   c #4D0B16",
".  c #460B1A",
"X  c #4D0E19",
"o  c #4C0611",
"O  c #500D18",
"+  c #4E111C",
"@  c #51131D",
"#  c #4A010D",
"$  c #4E1620",
"%  c #4D1A25",
"&  c #451121",
"*  c #511720",
"=  c #531A23",
"-  c #551D25",
";  c #410F21",
":  c #4E222A",
">  c #552027",
",  c #55242B",
"<  c #58252B",
"1  c #55282E",
"2  c #5A292E",
"3  c #5B2227",
"4  c #4E2D35",
"5  c #552C32",
"6  c #5A2E33",
"7  c #502630",
"8  c #4D313B",
"9  c #543236",
"0  c #5C3236",
"q  c #55353A",
"w  c #5D3539",
"e  c #563A3D",
"r  c #5D3A3D",
"t  c #662A29",
"y  c #612F32",
"u  c #633334",
"i  c #613739",
"p  c #623B3C",
"a  c #6A3D3C",
"s  c #6A3734",
"d  c #723C36",
"f  c #72372D",
"g  c #65413F",
"h  c #6B423E",
"j  c #74453E",
"k  c #7A453D",
"l  c #7A4A3C",
"z  c #563A41",
"x  c #5C3E41",
"c  c #503640",
"v  c #603E41",
"b  c #5E4244",
"n  c #5B4A4A",
"m  c #574645",
"M  c #5C5452",
"N  c #5F4F50",
"B  c #634343",
"V  c #6B4643",
"C  c #664847",
"Z  c #6D4945",
"A  c #654B4A",
"S  c #6D4D4A",
"D  c #624649",
"F  c #724640",
"G  c #734B44",
"H  c #794E45",
"J  c #734D48",
"K  c #7A4F48",
"L  c #794640",
"P  c #6B524E",
"I  c #7C5246",
"U  c #75524A",
"Y  c #7C5249",
"T  c #7A584C",
"R  c #654E51",
"E  c #645355",
"W  c #695659",
"Q  c #635B5B",
"!  c #675758",
"~  c #65605F",
"^  c #656361",
"/  c #6C6465",
"(  c #6C6B6A",
")  c #6E6769",
"_  c #716D6D",
"`  c #706666",
"'  c #6E7270",
"]  c gray45",
"[  c #757A77",
"{  c #767B7A",
"}  c #787B7B",
"|  c #777778",
" . c #726F70",
".. c #6C5F62",
"X. c #8B523A",
"o. c #93583B",
"O. c #9A603C",
"+. c #A8693F",
"@. c #804D42",
"#. c #835445",
"$. c #8B5643",
"%. c #8C5B45",
"&. c #835549",
"*. c #88574A",
"=. c #85594B",
"-. c #8C5A4A",
";. c #865945",
":. c #925C44",
">. c #925E4B",
",. c #9B5F4B",
"<. c #875E50",
"1. c #89614D",
"2. c #936244",
"3. c #9B6444",
"4. c #9E6947",
"5. c #95614B",
"6. c #9B644B",
"7. c #9D694A",
"8. c #8A6659",
"9. c #946352",
"0. c #9C6551",
"q. c #9F6855",
"w. c #996A59",
"e. c #9C715F",
"r. c #A36B45",
"t. c #AA6D44",
"y. c #A46C4B",
"u. c #A96E4C",
"i. c #A26647",
"p. c #AC7246",
"a. c #AD734A",
"s. c #A4704E",
"d. c #B1764B",
"f. c #B57A4B",
"g. c #B97B4B",
"h. c #B47545",
"j. c #A46A53",
"k. c #A76C55",
"l. c #AC7252",
"z. c #A4725B",
"x. c #AC745B",
"c. c #AB785B",
"v. c #B37553",
"b. c #B57A53",
"n. c #BB7C53",
"m. c #B5755A",
"M. c #B47A5C",
"N. c #BC7B5D",
"B. c #BC7658",
"V. c #A87962",
"C. c #BA7D62",
"Z. c #B87E66",
"A. c #997263",
"S. c #C27F5A",
"D. c #C57F61",
"F. c #76817C",
"G. c #78827E",
"H. c #BE8056",
"J. c #B6825B",
"K. c #BB845B",
"L. c #BC875C",
"P. c #BD8264",
"I. c #BE8A62",
"U. c #B8876B",
"Y. c #B58C71",
"T. c #BE9475",
"R. c #AD8060",
"E. c #C28456",
"W. c #C4835C",
"Q. c #C8885C",
"!. c #C48462",
"~. c #CA8565",
"^. c #C28D64",
"/. c #CC8B65",
"(. c #C38B6B",
"). c #CE8C6B",
"_. c #C48669",
"`. c #D28D6D",
"'. c #D38F65",
"]. c #C49065",
"[. c #C6946B",
"{. c #CB936D",
"}. c #C9986E",
"|. c #CC9365",
" X c #D4916B",
".X c #C39473",
"XX c #CD9572",
"oX c #CB9C73",
"OX c #C69B79",
"+X c #D39472",
"@X c #D99572",
"#X c #D59A76",
"$X c #D49E79",
"%X c #DA9E7B",
"&X c #D99B74",
"*X c #CD8E70",
"=X c #CDA077",
"-X c #CEA279",
";X c #D2A47C",
":X c #DAA47E",
">X c #D3A87E",
",X c #D9AA7D",
"<X c #D6A276",
"1X c #E3A37D",
"2X c #7A8581",
"3X c #7B8C84",
"4X c #7E928A",
"5X c #7C9087",
"6X c #829D93",
"7X c #80958C",
"8X c #C8A283",
"9X c #D3A782",
"0X c #D6AD84",
"qX c #DAAD84",
"wX c #DCA784",
"eX c #D6B086",
"rX c #D9B087",
"tX c #DBB38A",
"yX c #DEB98E",
"uX c #D6B288",
"iX c #DDBA90",
"pX c #E3AB85",
"aX c #E3B48C",
"sX c #E3B98E",
"dX c #E6B58A",
"fX c #E5BC93",
"gX c #EABD94",
"hX c #E6B791",
"jX c #F3BB91",
"kX c #EAC097",
"lX c #ECC49A",
"zX c #E8C398",
"xX c #F3CC9E",
"cX c #F2C799",
"vX c #F0CBA2",
/* pixels */
"| _ / ! m : + O - i A E A A J =.>.6.6.>.>.>.-.-.-.-.-.-.>.y.d.g.g.g.d.p.r.a.v.!.`.%XqX0X$X).~.`.;X0X0X=X].b.t.t.b.[.0XtXtXtXyXfXgXkXkXfXyXrX0X0X",
"{ ] ( Q n 9 - * > 0 B B B B Z #.-.>.-.-.*.-.-.-.-.-.*.*.-.5.y.a.d.d.a.p.p.a.v.W.).$X0X0X;XXX).+X;X0X0X;X[.K.a.a.J.oX0XtXrX0XrXsXfXkXkXfXsXtX0X9X",
"} { ] ( ! b 9 1 1 6 w w 0 w a L I &.&.I &.*.*.-.-.*.*.I I #.%.2.4.y.u.a.a.d.g.S.!.XX0X0X0X$X+X#X;X0X0X>XoXI.b.b.L.oX0XtX0X;X>XtXfXkXlXkXhXtX0X9X",
"} } { ] ) Q n x 9 1 > - - > 6 a Z Z Z Z G &.*.-.-.*.I G Z Z F I &.>.6.u.d.f.g.g.n.^.=X0X0X0X;X;X0X0X0X0X>X[.I.L.].-XqX0X=XoXoX0XyXfXlXkXfXtX0X9X",
"] ] | | ] ( Q n q , * @ + * < w B B B B Z I -.>.>.-.I G B x x B Z I -.6.u.a.p.t.a.L.oX0XtXtX0X0X0X0X0XtX0X=X}.[.oX>X0X>XoX[.[.=X0XyXfXfXhXtX0X9X",
"E W / ( ] ( E m 9 < - * $ - 6 p V Z C B G *.5.6.6.5.=.G C x v B V Z G I *.%.2.3.r.b.}.:XtXtXuX0X0X0X0XtXtX0X>X=X=X>X>X=XoX}.}.oX=X>XqXqXqXqX0X0X",
"6 w b E ^ E x 5 < 6 0 6 5 6 p F I I K H &.5.y.a.a.y.5.&.G G H H G Z B B V Z H ;.6.v./.&XwXqXeXeX0X0X0X0X0X0X0X0X;XoXoXoX=X;X=XoX[.[.}.oX;X0X0X0X",
"O * 1 x n z , * - 0 B B B B Z #.-.-.*.-.5.y.a.d.f.a.y.5.-.-.-.-.&.G B x x B V H -.j.N.).#X:X0X0X0X0X0X0X0X0XrX0X=X}.[.oX>X0X0XoX[.^.^.[.oX>X0XtX",
"o   * 1 9 1 $ @ - p A P P J Y *.-.>.5.6.i.a.f.g.g.f.a.y.6.6.6.>.=.H Z Z F G G G K -.j.N.).;X0XeXeX0X0X0X0XrXtX0X=X[.^.}.>XrX0X;XoX[.[.[.oX>X0XrX",
"O + @ = - $ + @ > r A U T &.&.*.*.>.6.y.a.d.f.f.f.f.f.d.a.i.6.>.*.&.&.*.5.2.;.G V Z &.j.P.oX0XtXtX0X9X0X0XrXtX0X=X[.^.[.;X0XtX0X;X=X=X=X>X0X0X0X",
"* * * * * @ @ * > 0 B J &.-.-.*.-.5.y.a.d.d.a.a.a.a.d.d.a.y.5.-.*.&.-.6.a.a.6.I B r F -.c..X0XtXtX0X0X0X0XqXtX0X;XoX[.oX;X0XrX0X0X0X0X0X0X0X0X0X",
"* - - > < > - * - > 0 h *.5.6.5.5.4.a.a.a.y.4.3.3.4.y.y.y.4.5.-.&.I *.6.a.d.y.=.V p h #.z.T.0XyXtX0X0X0XrXrX0X0X>X=XoX=X>X0X0XrXtXtXtXtXtXrX0X0X",
"@ * < 0 w 0 < * + + - s @.5.j.y.y.a.d.a.y.3.%.*.;.%.:.5.5.5.5.-.&.G G &.6.y.6.-.I F F &.e.T.0XsXtXrX0XeXtXrX0X0X0X9X9X0X0X0X0X0X0XrXrXrXrXrXrXrX",
"X * < r B p 2 * X . * y j -.7.s.a.d.d.a.y.5.-.*.*.-.-.*.-.>.>.-.I V B V I -.>.>.-.#.#.-.z..X0XtXtX0X0X0X0X0X0X0X0X0X0X0X0X0X0X0X0X0X0X0X0X0X0X0X",
"X @ > w p w < @ + * > 2 s k $.6.a.d.d.a.u.j.q.q.q.q.9.>.%.%.%.&.G B z x B G &.-.-.%.:.6.c..X0XtXqX>X=X=X;X>X0X0X0X0X>X0X0X0X0X0X0X0X0X9X9X>X>X>X",
"@ @ - < 6 < = @ = 2 0 0 6 t d $.6.s.a.a.v.M.Z.Z.Z.Z.m.y.3.:.$.&.G B z z x B G I *.:.3.y.J.oX0XrX>XoX[.[.oX=X9X0X0X=XoX=X>X0X0X0X0X0X0X9X>X=XoXoX",
"* * * * * @ @ * 2 p B w > * 3 j -.7.y.a.n.!.).+X+X).!.n.a.r.6.-.I Z B x x B Z I -.:.i.a.L.=X0X0X=X[.^.^.[.oX0X0X>XoX[.}.=X0XrX0X0X0XrX0X;XoX[.].",
", > % + . . + > r Z C w $ . * u H -.6.y.b.Q.'. X X/.Q.E.H.b.x.j.9.*.I G Z G I -.6.r.+.p.L.oX0X0XoX^.^.].oX;X0X0X;X}.[.[.=X0XeX0X0XtXsXyX0XoX^.I.",
"e 5 : & . . - 0 C A C 0 $ . $ 6 Z T -.6.a.n.E.E.E.E.E.W./.~._.C.M.l.7.%.#.*.>.y.a.p.+.t.K.oX0X0XoX^.^.oX;X0XqX0X=X}.[.}.;X0X0X0X0XyXfXfXqXoX^.L.",
"A B w > * - 0 B A A B 0 > * - 0 B S T -.6.y.a.p.p.a.b.!.).+X+X).!.n.a.4.%.-.5.y.a.p.t.a.L.oX0X0XoX[.[.=X0XtXtX0X=X}.[.oX;X0X0X0X0XyXfXfXrX=X[.^.",
"1.=.I k f d j S A D x w y y u w x C J I &.%.2.2.3.r.l.W./. X X/.W.n.a.6.*.&.I ;.2.4.a.K.[.>X0X0X=XoXoX>XeXtXtX0X;X}.[.}.;X0XrX0X0XrXtXtXqX;XoX}.",
"s.y.y.i.o.:.;.T S b x p j k F B x b C Z G H H I ;.6.u.b.E.E.E.H.b.a.6.*.H V p p F 1.R.oX>XqX0X9X>X>X>X9X0XtXtXrX>X}.[.[.=X0XtXtX0X0X>X;X;X;X>X>X",
"a.a.a.a.a.y.6.-.H B B Z &.-.*.G B x B B B B B Z I -.6.y.a.d.d.a.y.6.-.I G B e q B 8.Y.0XsXtX0X9X0X0X0X0X0X0XtX0X=XoX[.oX=X0XtXtX0X=X}.[.oX>X0XtX",
"4.4.4.7.7.y.y.6.-.I I ;.5.6.5.I V B x x x z x B Z K #.;.2.3.r.r.6.>.*.I I G V V Y A.OXtXfXtX0X9X0XrXtXtXtXqX0X>X=XoXoXoX>X0XtXtX0X=X].^.[.;XrXyX",
"I I I I T 1.7.u.y.4.6.4.y.y.6.;.H V B x x x x x B V V Z H ;.2.6.6.>.*.*.%.5.5.0.z.U.8XtXyXtX0X9X9XeXyXhXsXrX>XoXoXoX>X>X0X0XtXtX0X=X[.^.[.;X0XyX",
"B B x x B I 6.a.f.d.a.a.a.a.y.6.-.I Z B b B B B B B b x B G #.-.-.-.-.:.4.a.n.W.).#X;X0XeXeX0X0X9X0XyXfXfXrXoX[.[.=X0XtX0X0X0XrX0X=X}.[.oX;X0XtX",
"B x z e r j 2.p.h.h.h.d.f.n.b.v.j.>.H V B B V F G Z B x x x Z J I =.*.2.r.f.E.'.@X&X$X$X>XqXtXqX9X0XtXfXgXqXoX^.].=XtXyXtX0X0X0X0X>X=XoX=X>X9X0X",
"G G V V F #.3.t.h.p.p.d.n.W.~.~.N.k.-.H F F H I &.I G B x z x B J Y -.5.r.h.E.'.@X@X X+X$XqXsXyX0X9XtXfXfXqX}.I.].=XtXyXtX0X0X0X0X0X>X>X>X>X9X9X",
"-.-.*.*.-.5.y.a.p.p.a.b.!.).+X@X).C.q.-.&.&.-.>.>.-.&.G B x x B Z I -.6.r.a.n.!.).).).).#XaXfXhXtX0XtXfXfXtX$X[.[.=X0XtXrX0X0X0X0X0X0X0X0X0X0X0X",
"j.j.k.z.x.M.J.K.J.J.J.I.).#X%X:X#X(.M.j.j.j.j.j.0.>.&.G V V Z G I ;.:.6.u.v.N.!.~.~.~.{.;XaXgXkXhXyXyXkXkXgXaX,X;X;X>X0X0X0X0X0X9X9X9X0XtXtXyXyX",
"N.N.P.(..XOXoXoXoXoXoXoX;X;XqXqX:XoX_.N.N.N.N.m.0.-.&.H H I ;.2.2.3.4.u.v.S.!.~.~.~.{.oX0XsXgXkXfXfXfXkXlXlXlXgXaX;X=X=X9X0XeX0X9X-X-X9XtXyXfXkX",
"~.).+X;X0XeXeX0X0X0X0X0X0X0XeXeX0X;XXX).`.`.).C.j.-.#.#.-.6.y.a.p.p.a.b.!.).`.`.).XX;X0XyXhXfXgXgXfXfXfXfXkXkXfXqXoX[.[.=X0XtXrX0X0X9X0XtXhXfXkX",
"+X#X:XqXtXyXyXtXtXtXtXtXeXeXeXeXeX0X$X#X%X:X#XI.j.:.$.>.j.v.n.n.n.H.L.^.XX$X%X%X:XwXaXfXkXkXfXfXhXdXaXqX,X0X9X8X.XI.K.^.}.:XaXsXfXfXfXsXsXdXdXdX",
":X:XqXqXtXtXtXtXtXtXtXrX0X0X0XeX0X0X;X:XwXqX;X(.l.3.3.l.N.D.S.W.W.].}.=X;XqXtXaXhXgXlXlXlXfXyXtXwX:X&X|.^.P.V.V.z.s.a.n./.#XpXgXcXxXxXcXhXpX:X%X",
"0X0X0X0X0X0X0X0X0X0X0X0X0X0X0X0X0X0X0X0XtXyX0X}.J.a.d.W.).`.`.).+X;X0XeX0X0XtXsXfXkXgXfXhXtX0X;X+X).W.n.a.4.>.-.>.4.a.n.W.).%XaXfXlXlXfXwX#X).~.",
"uXeXeX0X0X0X0X0X0X0X0X0X0X0X0X0X0X0X0XeXtXyXtX>X}.^.^.{.$X%X%XwXaXfXfXtX>X=X=X,XrXqX9X$XOXoXoX[.P.m.l.i.3.o.X.$.3.u.b.n.N.N.P..XOX8X8XT.U.Z.m.v.",
"uXeXeX0X0X0X0X0X0X0X0XeXeXeX0X0X0X0X0XuXtXyXyXtX,X,X<X;X0XqXaXhXlXvXlXtX}.L.L.Q.|.I.Z.V.c.J.K.b.l.0.>.:.:.:.o.4.a.N.!.!.m.j.9.w.8.8.8.8.9.9.0.j.",
"0X0X0X0X0X0X0X0X0X0X0X0X0X0X0X0X0X0X0X0X0X0X0X0X0X0X0X0X0XtXyXfXlXlXfX;XI.a.t.p.a.y.>.-.5.y.a.a.6.-.*.*.-.2.4.a.H./.).!.k.-.H V B x x B G &.-.>.",
":X:XqX0X0X0X0X0X0X9X;X;X;X;X0X0X0XqXqX:X;XoX.XT.T.OXOX>X0XqXqXqXrXrX,X[.v.3.o.o.:.$.#.@.$.3.r.4.:.&.&.=.-.5.4.a.E././.C.9.G r q 8 4 9 p F I &.*.",
"+X#X$X;X0XeXeX0X;X$X#X+X+X#X;X9X0XqX:X#X).P.z.w.w.V.U.XX%X$X{.^.].].^.n.y.:.#.H H H #.$.:.:.2.:.%.*.*.*.-.>.5.y.v.E.H.s.=.B 8 8 q r g L #.&.*.*.",
"~.).+X;X0XtXtX0X;X+X).~.~.).#X>X0XqX%X).N.j.*.I H -.k.P.)./.n.a.p.p.a.u.6.-.H V B V I *.>.>.-.*.*.-.-.-.-.*.*.-.6.a.a.4.I B z z B G &.-.>.-.-.*.",
"B.N._.oX0XyXyXtX;X{.W.B.B.S.).$X:X:X{.N.j.*.L j l :.j.m.N.m.u.i.O.O.3.4.6.-.G p q p G =.=.&.I &.*.>.>.*.&.H G G &.2.4.2.;.H Z G I &.-.>.>.>.-.-.",
"6.j.M..X0XfXfXtX=X^.v.t.t.v.!. X#X+XP.j.*.F V H %.r.u.k.j.0.6.:.:.$.$.>.5.-.L y , 5 g U U S Z H *.>.-.&.G B B B G ;.5.6.2.2.2.2.2.:.-.-.-.-.-.-.",
"@.-.z.Y.0XfXfX0XoXK.a.r.r.a.H./.).!.k.-.F v B I 3.a.a.6.-.*.*.-.-.*.-.5.5.-.k t * - 0 B B b B G *.-.*.G B x x B Z I -.6.y.a.d.d.a.y.5.-.*.*.-.-.",
"p G 8.Y.0XsXqXoXI.J.d.p.p.d.n.S.N.x.>.H g e x Z %.r.i.:.I G G Y &.-.>.9.9.&.d 3 @ + - 6 r r b Z I &.G B x x B V G H *.5.a.n.E.Q.E.b.y.5.-.-.-.-.",
"5 B 8.Y.eXrXoXK.f.f.f.f.f.f.b.l.j.>.&.V r q e g l $.:.$.H F B V J =.9.9.<.J p > @   + - 5 w B Z Z Z B x x B G I I I &.5.v.W.'. X/.W.b.y.3.>.-.-.",
"4 B 8.Y.0X,X^.a.r.r.a.d.d.a.y.6.-.I Z B x x B G I -.>.5.-.I V B Z #.-.=.U B 0 < * @ + * < w B C C B x x B G &.-.-.*.-.q.C.).@X+X).!.n.a.4.>.-.*.",
"r G 8.Y.;X<XQ.t.o.o.o.o.o.o.$.&.I Z b x B G =.9.e.V.V.c.k.9.I Z V k k j i 6 5 1 < > > < 6 p B B b x B V G &.*.>.>.>.0.M.*X#X%X{.!.n.f.a.6.>.-.*.",
"j &.w.U.#X&XQ.p.o.d f t t f d F Z B z z Z >.x.(.OX8X$XXX!.x.9.&.j s t 3 - - < 6 w p r w p p B B x B V H *.*.-.>.,.j.m.).wXaX:X^.v.u.y.6.5.-.*.*.",
"#.-.q.C.). XQ.a.X.f * . . * 2 p B b x B &.k.).1XhXfXsX:X).N.k.-.j 2 * X X * < w B C C B B B B B x B G &.-.-.*.-.6.m.).pXgXfXqX^.a.3.:.-.-.*.-.-.",
"H *.6.x.W.Q.E.y.X.u % ; ; % , 5 w r h I 9.C.@XpXjXgXdX#X!.x.9.*.a > + . + < w B C C B p p B C B B B Z I *.#.#.*.j._.:XjXxXlXtX}.b.3.&.H I *.-.5.",
"B G =.y.n.n.v.6.@.a 6 7 4 5 7 : < u l 6.v.~.@X1XpXpX+XP.k.5.=.G i - + $ < w B C B r 6 2 6 p C A C B B Z G L H -.x.oXdXxXvXlXdX<X!.j.&.Z G &.>.6.",
"z B I 2.a.d.y.-.H V B B C B 6 % * t X.a.E./.).+X+X).C.j.-.I Z B 0 - * > 0 B A A B 0 > * > 0 B C C B B B B h j -.V.$XfXvXlXfXdX1X).k.I B B H -.5.",
"c x G %.r.y.5.I S V Z P T U i = @ t X.f.Q.Q.!.!.W.N.l.6.&.G C x 6 > = > 6 p C A C 0 - + @ < w v B B b x x p j *.c.OXaXgXgXdX1X@X!.q.J x B F I *.",
"z b F ;.6.5.&.S B b C U <.&.a - + t X.d.E.E.H.n.n.v.u.6.*.I Z x 9 > * * - 2 r C C r < @ + * < 0 p B B b x g L *.z.(.:XpXpX%X+XP.k.-.G v x B Z G ",
"x B G &.-.*.G B x r B U -.-.k 3 * t X.a.g.f.a.a.a.a.y.6.-.I S B w < * @ X * 2 p B p 2 * X X * < w B B B B V H -.j.C.).@X@X).C.j.-.H V B B B B B ",
"r B Z Y T G a 0 9 q B U -.:.k y < s o.a.a.4.2.3.r.p.y.>.&.J S C r < * X   @ > 6 w 0 2 * X X @ > i C A B B V I -.j.v.S.Q.~.N.j.-.H V B C C B B b ",
"p B V S S a 6 > , 9 B U -.-.H p w j 3.a.y.;.H ;.4.p.r.;.G C A C p 2 * + + @ - > < < > * + X @ < p C A B B V I >.y.d.b.n.v.j.-.H V B C A A B B B ",
"B B C C B 0 > * - 6 B U -.-.I V B I 4.a.6.G B G 6.a.y.#.B x b B p < * @ @ * * * * * * * @ @ * < w B B B B V H -.6.u.a.u.6.-.H Z B b B B B B B B ",
"C C B b w < * @ - 0 C U -.-.#.Z C Y 6.y.:.Z x Z 5.u.4.T B z r w 6 > * @ @ @ @ @ @ @ * * * * * > 6 w r v B V G #.>.4.y.4.-.Y Z B r w 0 6 0 w i p ",
"S A B w < * @ * > w C T -.-.#.Z C G -.6.;.V x V *.6.5.T B e 6 < > - * * @ @ @ @ @ @ * * * * * * - < 6 r B B C Z I :.6.5.T S C B r 0 > * - > 2 6 ",
"C B w 2 * X @ * < 0 B U =.-.#.Z B Z &.-.&.Z B Z #.-.=.U B 0 > * @ @ * * * * * * * * * * * * * @ @ * < w B B b B G *.-.*.G B b B B w < * @ @ * * ",
"w 6 < *     O @ - 5 w V I &.Y V B V G I Y Z B V G I G V w < * + X O @ * > , 1 1 , > * @ @ * * @ + @ > r C D b B Z Y I j u 6 w B R R B 6 - @   o ",
"- * @ X     @ @ * - < i V J S C B B Z S Z B B B V Z a 0 < - @ @ O O @ > 5 q e z q 5 - @ @ * - * @ * < p C A D B A S Z u - * 5 D / _ _ W r -   # ",
"* * * * * * * * @ @ * < w B C C B B B B B B B C C B w < * @ @ * @ @ * < e n M M n e < * @ @ * @ @ * < w B C C B C C B 6 * * 6 E ] 3X3X] E 6 *   ",
"6 6 0 0 0 6 5 > +     + > w b C C B r 0 w p C A A B 0 - X + * , > > > 9 n Q ^ ^ Q n q > + + X     + - 2 0 i u 0 w r r 0 5 6 D / F.4X4X} ..D w < ",
"E E W W W R b 9 % X o   + < w B C p 6 > 1 r C P P B 0 = X + , q q 9 q b E / ' ( / Q n q : + o # o   @ = - - - - < q z m D W ` [ 2X3X2X{ ) ! W R ",
"] ] | | ] ( Q n q , * @ X * 2 p B w > * - 0 B A A B 0 - * > e n n n n E / ] { { ] ( Q n q , * @ @ * * * * @ @ * > q n Q / ] G.3X3X2X{ ] ] ] ] ] ",
"{ } 2X2X2XF.' ^ Q D r 2 * @ - 6 0 6 - @ * < 0 p p w 6 1 5 r N Q ~ Q Q / ] } 2X2X} ] ( Q E D B v v r w 5 , - - , 9 n Q ( ] } 2X3X3XG.{ [ { G.2X3X",
"| { F.2X3X3XG.[ ] ( ! B < @ @ - < > * @ * - > < < < 1 9 r n ^ ( ( ( ( ] { 2X3X3X2X{ ] ( ( ( _ _ / ! R b e 9 9 e n Q ( ] | { G.2X3X3X2XG.2X2X3X3X",
" .] [ G.3X5X3X3X3X2X] W w * X + * = * * * * * @ @ * , q n Q ( ] | ] ] [ G.3X4X4X3XG.| ] [ G.3X3XG.] / E n m m n Q ( ] | ] ] [ G.3X3X3X3X3X3X3X3X",
"_ _ | F.3X4X4X7X7X4X2X/ r *     + * * * * * +     + > e M ^ ' { } | { { 2X3X4X4X3XG.{ { 2X4X6X6X4X2X' ~ M n n M ^ ] { } ] _ ] F.3X4X4X5X3X3X3X2X"
};
