/* XPM */
static const char *wall_22[] = {
/* columns rows colors chars-per-pixel */
"72 72 229 2 ",
"   c #3F111F",
".  c #460B19",
"X  c #4C0D19",
"o  c #4D0612",
"O  c #500E18",
"+  c #4D121C",
"@  c #45101C",
"#  c #51131D",
"$  c #4D1521",
"%  c #4C1923",
"&  c #441927",
"*  c #531A23",
"=  c #581C24",
"-  c #4E242B",
";  c #562027",
":  c #54232B",
">  c #59252B",
",  c #55292F",
"<  c #5B2B2F",
"1  c #4C2530",
"2  c #4E2A33",
"3  c #442530",
"4  c #542D33",
"5  c #5A2D32",
"6  c #4F3137",
"7  c #543235",
"8  c #5C3235",
"9  c #54353A",
"0  c #5C3539",
"q  c #5D393C",
"w  c #58393C",
"e  c #642D2E",
"r  c #652826",
"t  c #6C342C",
"y  c #643233",
"u  c #6A3635",
"i  c #603639",
"p  c #633C3C",
"a  c #6A3C3A",
"s  c #6F3B35",
"d  c #743D36",
"f  c #6E3030",
"g  c #6D433E",
"h  c #6C4137",
"j  c #75443E",
"k  c #7A4A3F",
"l  c #7A463D",
"z  c #563B40",
"x  c #5C3E41",
"c  c #603F42",
"v  c #5D4244",
"b  c #5B4A4B",
"n  c #554141",
"m  c #634243",
"M  c #6B4644",
"N  c #664847",
"B  c #6D4944",
"V  c #664C4A",
"C  c #6B4D49",
"Z  c #734641",
"A  c #734C45",
"S  c #794E45",
"D  c #734E48",
"F  c #794F48",
"G  c #7D4742",
"H  c #6D524D",
"J  c #7C5246",
"K  c #74524C",
"L  c #7D5249",
"P  c #635455",
"I  c #655958",
"U  c #6B6A69",
"Y  c #6A6464",
"T  c #716D6E",
"R  c #737373",
"E  c #767B7A",
"W  c #787D7D",
"Q  c #823E37",
"!  c #8C563D",
"~  c #8C563A",
"^  c #8D5239",
"/  c #97603F",
"(  c #A5683E",
")  c #824F44",
"_  c #845546",
"`  c #8A5543",
"'  c #855946",
"]  c #8D5B45",
"[  c #835549",
"{  c #89574A",
"}  c #85594A",
"|  c #8C5A4A",
" . c #925D44",
".. c #925E4B",
"X. c #995747",
"o. c #875E52",
"O. c #A05B4A",
"+. c #946144",
"@. c #9A6546",
"#. c #95614B",
"$. c #9B654B",
"%. c #9D694B",
"&. c #9E6947",
"*. c #896558",
"=. c #9D6451",
"-. c #9E6857",
";. c #9A6857",
":. c #9D705B",
">. c #8F624F",
",. c #A46B44",
"<. c #AB6E44",
"1. c #A46C4B",
"2. c #A96F4B",
"3. c #A46547",
"4. c #AC7146",
"5. c #AD734A",
"6. c #A7704D",
"7. c #B2764B",
"8. c #B5794B",
"9. c #BA7C4C",
"0. c #B27345",
"q. c #A26752",
"w. c #A36B54",
"e. c #AA6D57",
"r. c #AB7454",
"t. c #A2735B",
"y. c #AD765D",
"u. c #AA795E",
"i. c #A67253",
"p. c #B47653",
"a. c #B57B54",
"s. c #BB7C53",
"d. c #B3765B",
"f. c #BC7B5D",
"g. c #B6795A",
"h. c #B16B53",
"j. c #AE7B61",
"k. c #A37962",
"l. c #BA7D66",
"z. c #C17E57",
"x. c #BE814F",
"c. c #B58157",
"v. c #BD8155",
"b. c #B5815A",
"n. c #BA845B",
"m. c #BD885F",
"M. c #AD8466",
"N. c #B98364",
"B. c #BE8A62",
"V. c #BE8C6B",
"C. c #B3866A",
"Z. c #B48C71",
"A. c #BD9474",
"S. c #C4844F",
"D. c #C38356",
"F. c #C4835B",
"G. c #CB8B5E",
"H. c #C6895C",
"J. c #C48461",
"K. c #CB8664",
"L. c #C28D65",
"P. c #CC8B64",
"I. c #CD8C6B",
"U. c #C4896A",
"Y. c #D28E67",
"T. c #C39066",
"R. c #C6956C",
"E. c #CA956D",
"W. c #C9986F",
"Q. c #CA9264",
"!. c #D5926A",
"~. c #D6996D",
"^. c #D48F71",
"/. c #C19574",
"(. c #CD9572",
"). c #C59A75",
"_. c #CB9C73",
"`. c #C69C7B",
"'. c #D39372",
"]. c #D49A75",
"[. c #D49C78",
"{. c #DA9975",
"}. c #CDA077",
"|. c #CEA279",
" X c #CFA87F",
".X c #D2A177",
"XX c #D1A57C",
"oX c #DAA57E",
"OX c #D3A87F",
"+X c #DBAA7D",
"@X c #E3A77C",
"#X c #D3A780",
"$X c #DCA780",
"%X c #D6AD84",
"&X c #D9AE85",
"*X c #DAAD84",
"=X c #D6B087",
"-X c #D8B087",
";X c #D9B087",
":X c #DAB087",
">X c #DAB087",
",X c #D6B389",
"<X c #D8B188",
"1X c #D9B188",
"2X c #DAB289",
"3X c #DDB38A",
"4X c #DEB68D",
"5X c #DBB38A",
"6X c #DDB98D",
"7X c #DEB991",
"8X c #CCA281",
"9X c #E5AB83",
"0X c #E2B58C",
"qX c #E2B88F",
"wX c #E3B98E",
"eX c #E7B789",
"rX c #F1B98B",
"tX c #E4BA91",
"yX c #E7BD94",
"uX c #E6BE95",
"iX c #E5BC93",
"pX c #E9BE95",
"aX c #E7C097",
"sX c #EAC097",
"dX c #EBC096",
"fX c #EAC299",
"gX c #ECC49B",
"hX c #EFC89F",
"jX c #F4C89A",
/* pixels */
"7X1XOX_.L.n.m.T._.OX%X-X%X%X%X-X1X%X%X#X#X#X#X%X%X%X%X%X%X%X-X1X-X%X%X%X%X%X%X%X%X%X%X%X%X#X#X=X5X1XOX_.L.m.m.T._.OX%X-X%X%X%X-X1X&X%X#X#X#X#X#X",
"1X%XOX_.R.L.L.R._.OX%X-X%X%X%X%X%X%X%X%X%X%X%X%X%X%X%X%X%X%X%X%X%X%X%X%X%X%X%X%X%X%X%X%X%X%X%X&X-X%XOX_.R.L.L.R._.OX%X-X%X%X%X%X%X%X%X%X%X%X%X%X",
"OXXXXXXX.X_._._.}.OX%X-X-X%X#XOXOX#X&X3X4X3X1X-X-X%X%X%X%X#XOXOXOX#X%X%X%X%X%X%X%X%X#X%X%X1X1X&X#XOXXXXX.X_._._.}.OX%X-X-X%X#XOXOX#X&X3X3X3X1X1X",
"R._.XX%X:X&X#XXXOX#X%X-X1X%XOX_._.XX&XqXiXtXqX4X1X-X-X=X%XOX}._.}.OX%X%X%X%X%X%X%X%X#X#X1X4XqX&X|._._.#X:X&X#XXXOX#X%X-X1X%XOX_._.XX&XqXtXtXqX4X",
"L.R..X:XyXyX4X%X#X#X%X-X1X%X|.R.R._.&XyXgXfXyXqX-X%X%X%X%XXX_.R._.XX%X1X-X%X%X%X%X#X#X%X4XyXyX&X_.R._.&XyXyX4X%X#X#X%X-X1X%X|.R.R._.&XyXfXsXyXtX",
"T.W.XX3XyXaXtX-X%X%X%X-X1X%X}.T.L.W.%XyXhXhXfXqX#XXXOX%X%XXXR.L.R.|.=X5X1X%X#X#X#X#X%X3XyXhXfXqXXXW._.:XyXaXtX1X%X%X%X-X1X%X}.T.L.W.%XyXgXgXfXpX",
"}.XXOX&X4X4X1X%X%X%X%X-X1X%X}.T.L.R.OX4XfXhXsX0XXX_._.OX%XXXR.L.T.|.=X5X1X%X#X#X#X%X3XtXfXhXgXtX#XXXOX&X4X4X1X%X%X%X%X-X1X%X}.T.L.R.OX4XyXfXsXsX",
"%X%X%X%X%X%X%X%X%X%X%X-X1X%XXX_.R.R.}.%XtXsXyX:X_.R._.OX%XOX_.R.W.XX%X1X-X%X#X#X%X1XqXyXsXsXyXqX1X%X#X%X%X%X%X%X%X%X%X-X1X%XXX_.R.R.|.%X4XtXyXpX",
"1X1X%X%X#X#X%X%X%X%X%X%X1X-X#XXX_._._.|.#X4XqX&XXX_._.OX%X%XOX|.|.OX#X#X%X%X&X1X4XtXyXiXqX3X&X&X-X1X%X%X#X#X%X%X%X%X%X%X1X-X#XXX_._._.|.#X3XqXtX",
"1X-X%X%X#X%X%X-X-X%X%X%X-X1X1X-X#X|.W.R._.#X-X&XOXXXOX#X-X1X1X%X#XXXXX|.OX%X4XtXyXaXyX4X%XXX_.}.#X-X1X%X#X%X%X-X-X%X%X%X-X1X1X-X#X}.W.R._.OX-X4X",
"%X%X%X%X%X%X%X%X%X%X%X%X%X%X-X1X%XXXW.R._.XX%X1X%X%X%X%X%X=X1X%XXX_.R.R.|.%X4XiXyXiX4X%X|.R.R._.XX%X1X-X%X%X%X%X%X%X%X%X%X%X-X1X%XXXW.R._.XX%X1X",
"%X%X%X%X%X#XOXXXOX#X%X#XOXXXXXOXOX|._._.}.#X-X5X1X-X%X#XOXXX|._.L.n.n.B._.#X3X3X&X%XOX|._.R.R._.OX%X-X-X%X#XOXXXOX#X%X#XOXXXXXOXOX|._._.|.#X-X5X",
"%X%X%X-X%XOX_.W._.OX%X#X|._.R.W._._.|.OX%X1X5X5X1X%X#XXX_.R.B.c.5.<.5.n._.#X%XOX_.W.W.W._._.|.OX#X%X-X1X%XXX_.W._.OX%X#X|._.R.W._._.|.OX%X1X1X4X",
"%X%X%X1X%X|.W.R._.OX%X#X_.R.L.L.R._.OX%X-X%X%X%X%X%XOX_.R.m.a.5.,.,.5.n._.%X%X|.R.L.L.R._.OX%X&X%X%X%X-X%XXXW.R._.OX%X#X_.R.L.L.R._.OX%X-X%X%X%X",
"%X%X%X-X%XOX_._.}.OX%X#X|._.R.R.W._.OXOX|._._.|.#X%X#X_.L.n.a.a.a.a.m.W.#X3X3XOX_.W.R._.|.%X1X5X-X%X%X%X%XOX_._.}.OX%X#X|._.R.R.W._.OXOXXX_._.R.",
"%X%X%X%X%X#XOXOX#X#X%X#XOXXX|.|.XXXX|._.L.n.b.T.OX1X%X_.L.m.B.R._._.XX*XqXtXtXqX&XOXXXXXOX%X1X1X-X%X%X%X%X#XOXOX#X#X%X#XOXXX|.|.XXXX|._.T.m.b.a.",
"%X%X%X%X%X%X%X%X%X%X%X%X%X%X%X%X%X#X|.R.n.5.5.n._.%X#X_.R.R.|.%X4XtXyXpXpXyXpXpXyXqX1X%X#X%X%X%X%X%X%X%X%X%X%X%X%X%X%X%X%X%X%X%X%X#X|.R.m.a.5.<.",
"%X%X%X%X%X#XOXOX#X%X%X-X-X1X1X1X1X%XOXW.m.7.5.c.R.XXOXXXXXOX3XiXfXhXhXgXpXtXtXyXyXiX4X1X#XOXOXOX#X%X%X%X%X#XOXOX#X%X%X-X-X-X1X1X1X%XOXW.m.a.5.<.",
"#X%X%X&X%XOX_._.}.#X-X1X1X-X%X-X-X%X%XXXR.B.n.n.L.W.XX*X3XqXiXsXfXhXhXsXtX4X1X4X4X4X4X=XOX_._._.OX%X1X1X%XOX_._.}.#X1X1X1X-X%X-X-X%X#XXXR.B.c.a.",
"%X%X%X1X%XXX_.R.W.XX%X-X-X%X%X%X%X%X-X%XOX_.R.L.L.R.XX3XyXfXsXyXyXpXyXqX1X%X#X#X%X-X1X%XXX_.R._.XX%X1X1X%X|._.R._.XX%X1X-X%X%X%X%X-X1X%XXX_.R.T.",
"=X=X-X-X%XOX_.W.W._.|.OX#X#X#X#X%X%X-X-X%XOX|._.R._.XX3XyXsXyXqXqXqXqX3X%X#X#XOX#X%X-X%X|.R.L.R.|.%X1X1X%XXX_.W.W._.|.OX#X%X%X#X%X%X1X5X%X#XOXOX",
",X,X=X=X%X#XOX|._.R.R._.|.#X%X%X#X%X%X%X%X%X#XOX|.XX#X-X4X4X4X3X1X1X1X&X%X%X#X#X#X%X1X%X|.R.L.R.|.%X1X-X%X#XOX|._.R.R._.|.#X%X%X%X%X1X5X5X1X1X1X",
"%X%X%X%X%X&X1X%XXX_.R._.XX%X1X&X%X%X%X%X%X%X%X%X%X%X%X%X%X%X%X%X%X%X%X%X%X%X%X%X%X-X1X%X|._.R._.XX%X-X%X%X%X-X%XXXW.R._.XX%X1X&X%X%X%X%X%X%X%X%X",
"[.XXXXOX%X1X5X1X%XXX}.XX%X4X4X5X1X1X1X1X&X%X%X%X=X-X%X%X#X#X#X#X#X#X#X%X%X%X%X%X%X%X-X%XOX_._._.OX%X,X=X%X1X4X4X%XXX}.XX%X4X4X5X%X#XOX[._._._._.",
"I.E.].XX#X,X,X,X%X%X%X*X:X4X4X4X1X1X5X5X1X%X%X#X%X%X%X%X%X%X%X%X#X#X%X%X%X%X%X%X%X%X&X%X#XOXXXOX#X%X%X%X=X1X4X4X1X&X*X*X:X4X6X5X%X#X[.E.J.m.b.b.",
"K.I.'.XX%X,X=X%X%X%X%X%X%X%X%X%X%X%X%X%X%X%X%X%X%X%X%X%X%X%X%X%X%X%X%X%X%X%X%X%X%X%X%X%X%X%X%X%X%X%X%X%X%X%X%X%X%X%X%X%X%X%X=X=X%X#X[.I.F.p.5.4.",
"I.'.[.#X1X1X&XoXXX_.)./.A././._._._._._.|.*X4X4X4X1X%X%X%X%X%X%X%X-X-X-X%X%X%X%X%X%X#X%X%X1X4X1X&X*X+X$XOXXX[._._.)././././._.XXoX$XoX].J.s.7.<.",
"XXXX#X%X5X3X$X].I.N.u.t.:.t.u.b.m.n.c.n.R.OXwXiXqX1X%X%X%X#X%X%X&X1X1X-X%X%X%X%X%X%X#X#X%X5X4X-XOX.X.X[.].E.L.n.b.u.t.t.t.u.N.I.].$X&X$X(.J.z.s.",
"#X%X%X%X%XoX{.I.f.q.| [ [ | @.1.5.4.<.5.n._.%X5X1X%X#X%X%X%X%X%X%X%X%X%X%X%X%X%X%X%X%X%X%X-X%XOX_.R.R.I.I.K.s.5.,.#.| [ _ | q.f.I.[.*X%XXX'.I.K.",
"*X%X#X|._.W.P.f.q._ Z g Z [  .@.3.,.( <.r.M.Z.A.)..XXX*X1X1X1X%XOXOXXXOX#X%X%X%X%X&X1X1X*X+X_.V.M.u.u.n.F.z.7.3. .` ) Z g Z _ q.f.I._.}._.].'.^.",
"[.[.(.L.n.a.p.w.{ B p p Z _ ]  .+.,.4.4.1.>.*.;.r.H.~.*XqXtX4X%X|._._._.OX%X%X%X%X1X4XqX*X~.H.i.| } >.i.s.9.2. .] ] _ Z p p B { w.p.b.n.L.E.'.'.",
"^.I.K.s.5.,.@.| F M m B J | | { | $.5.5.#.S m g ! 5.Q.*XyXfXtX%X_.R.R._.XX%X%X%X%X4XyXyX*XQ.5.! g m S #.5.5.$.| { | | J B m M F | @.,.5.s.J.I.^.",
"J.F.z.9.<.@._ S A A J } | ..{ L L | 1.1.] M 9 7 s  .n.%XfXhXiX%X_._._._.OX%X%XOX%XtXhXgX&XN.+.h 9 w M ' &.$.{ L [ { ..| } J A A S _ / <.9.F.J.J.",
"p.a.9.9.4. .S M A ' $.1.%...[ A B J | #.[ B w 2 7 k :.8XfXhXiX#X}.|.XXOX#X%X#X X#XtXhXhX#Xk.J 0 7 w B _ ..{ J B A [ ..%.1.$.' A M S  .4.9.9.a.a.",
"5.5.7.8.5. .B m A +.5.7.1.| S m m B [ | } F m 9 6 m *.`.yXjXwX%XOX#X%X%X%X%X#X#X%XwXjXyX`.*.m 6 9 m F } | [ B m m S | 1.7.5.+.A m B ] 5.8.7.5.5.",
",.4.5.7.2.{ N x A #.5.5.@.J m x x B _ ] ..[ A x 9 v *.A.eXjXdX4X,X1X1X%X%X%X%X,X4XtXrX+XM.L 9 2 0 A } ...._ B x x m J @.5.5.#.A x N { 1.7.5.4.,.",
"4.4.5.2.$.L m x B ' $.$._ M z z x A ] &.$.#.L m z m *.C.oXrXdXyX7X4X=X#X#X%X4X7XiXeX@XQ.$.s : 1 i L #.1.&.] A x z x M _ $.$.{ B x m L $.2.5.4.4.",
"7.5.1.$.| S m m B [ | [ S m z z m J $.5.7.1.| A c m L t.R.oXwXyXtX4X%XOXOX%X4XyXiX:XQ.5.^ r * : a | i.7.5.@.J m z z m S [ { [ B m m S | $.2.5.7.",
"9.7.1...L B B A S [ [ L S M m c B { i.s.v.a.$.G i 8 a _ t.V.OX0XqX3X%X#X X%XqXpXeXXXg.! t # # r l $.a.D.s.1.{ B c m M S L [ [ S A B B L ..1.7.9.",
"9.7.%._ B M S [ [ [ [ [ [ J S A L >.d.J.G.v.1.^ t : : q L :.V.[.$X&X%X%X#X%X9X9XoXU.;.g : @ # r ^ 1.F.P.J.d.>.L A S J [ [ [ [ [ [ S M B _ %.7.9.",
"9.5.#.J m m S | ....| | | | _ [ | w.l.I.!.H.5.^ t * & 1 m o.y.I.{.oX%X=X=X%XoX{.I.d.o.m 1 & * t ^ 5.H.!.I.l.w.| [ _ | | | | ....| S m m J #.5.9.",
"7.1.] A x c S | $.$.#.#.#...] ] @.r.U.'.!.G.7.^ t * & 2 M | d.I.{.oX%X,X,X%XXXU.g.=.} B 9 1 : t ~ 7.G.!.'.U.r.@.] ] ..#.#.#.@.$.| S c x A ] 1.7.",
"1.#._ B x x A { %.1.1.%.#...]  .,.a.U.'.!.G.7.! h 4 4 p S =.f.Y.{.oX#X,X6X=X).j.$...{ L M 0 7 h ! 7.G.!.'.U.a.,. .] ..#.%.1.1.%.{ A x x B _ #.1.",
"..| J B m m S | $.5.5.1.#.| ] @.5.v.P.I.P.F.5. .A m m A | w.f.I.].OX%X5X4X%XA.t.| ` ] | L M m A ] 5.F.P.I.P.v.5.@.] | #.1.5.5.$.| S m m B J | ..",
"| { L S A S [ #.1.7.7.1.#.{ ..1.s.F.H.J.f.p.1.#.[ K D J } $.y.N.(.#X1XqX0XOXV.:.{ [ _ [ [ K K L +.1.p.f.J.J.F.s.1...{ #.1.7.7.1.#.[ S A S [ { | ",
"| { [ L L } #.1.5.8.7.1. .| =.d.J.G.F.a.5.1.$.#.| } L S S J | t.U.#XqXwX9X'.N.w.| L S A S L } | #.$.1.5.a.F.P.J.d.=.|  .1.7.8.5.1.#.} J [ [ { | ",
"| | { { | #.1.5.8.8.5.&.] | -.l.I.P.D.5.&. .| | ..| L B m p j | j.#XyXpX9XI.g.q.| S m m B J | ..| |  .&.5.D.P.I.l.-.| ] &.5.8.8.5.1.#.| { { | | ",
"| | | | ..$.5.8.9.8.5.@.' { -.l.'.!.D.4.+._ J L [ [ J B x 7 < d -.`.sXjX9XI.h.X.l a q x M J [ [ L J _ +.4.D.!.'.l.-.{ ` @.5.8.9.8.5.$...| | | | ",
"| | | | ..$.5.8.9.8.5.@.` { -.l.'.!.F.4.+.J B M B A A V m 4 % > { /.sXjXrXI.3.Q e > 7 m N A A B M B J +.4.F.!.'.l.-.{ ` @.5.8.9.8.5.$...| | | | ",
"| | { { | #.1.5.8.8.5.&.] | -.l.I.Y.F.5.+.A m x x m N V m , @ * G Z.yXjXrXI.O.f * % 4 m C N m x x m A +.5.F.Y.I.l.-.| ] &.5.8.8.5.1.#.| { { | | ",
"..| [ [ J _ #.1.5.7.7.1.+.#.w.g.J.H.s.1.] A m z w x N C m 1   % Z C.qXjXrXI.X.f % & 4 m N N x w z m A ] 1.s.H.J.g.w.#.@.1.5.7.5.1.#._ J L [ { | ",
"..{ [ S B A _ #.1.5.7.5.1.1.2.p.s.a.5.@._ A m x x m N N m 2 & 1 K C.1XrX9XI.=.a 1 3 7 m N N m x x m A _ @.5.a.s.p.5.1.1.5.7.5.1.#._ A B S [ { ..",
"..| J B m m S | $.1.5.5.5.5.5.5.5.1.$.| J B m v m m m N m w 9 m *.Z.%XeX@XI.e.[ m w q m N m m m v m B J | $.1.5.7.5.5.5.5.5.1.$.| S N m B L | ..",
"$.| L B m N F | #.$.1.5.7.7.7.5.1.$.| L D N m x x m m M B B F o.k.A.#X9XoX(.N.:.o.K A B M m m x x m N D L | $.1.5.7.7.7.5.1.$.@.| F N m B L | $.",
"$...[ B m N L | ....#.%.5.7.7.5.%.| L C N m x x x x m B J | -.j.V.|.%X-X#XXX(.V.j.-.{ J B m x x q x m N C L | %.5.7.7.5.%.#.....| L N m B [ ..$.",
"..| J B m M J | | { | #.1.5.5.$.| S B m m m m m m m M S | w.f.I.].oX%X,X,X%XoX].I.f.w.| S M m m m m m m m B S | $.5.5.1.#.| { | | J M m B J | #.",
"} [ Z a q i A [ [ [ | $.1.6.$.` j y 5 7 q M A S S A S _ @.p.K.{.@XoX%X,X,X4X0X@X{.K.p.@._ S S S S S M i 7 5 y j ` $.6.1.$.| [ [ [ A i q a Z J } ",
"F B a 5 > 5 i B J [ | $.w.%.] d > $ $ * y j [ | { [ ' +.1.s.P.{.{.oX#X,X7XtXeX9X{.K.p.1.+.' [ { | [ j y * $ $ > d ] %.w.$.| [ J B i < > 5 a B F ",
"V m 8 : * * 4 m D [ | #.#.| l e * . . * e l | #.| |  .&.5.s.F.I.].XX%X4XyXyX0X[.I.F.s.5.&. .| | #.| l e * . . * e l | #.#.| L D m 4 * * : 8 m V ",
"V m 7 = # $ 4 m H L [ [ ) j u 5 : % % ; y l [ [ L L ] 1.7.9.s.F.R.XX1XyXfXyX&X(.F.s.9.8.1.] J L [ [ l y ; $ % : < u j ) [ [ L H m 4 $ # = 7 m V ",
"P m q = # * 7 m H K D g u e < 8 q 0 7 8 i g B M m M J %.7.9.8.a.L.XXqXfXgXtXXXB.a.8.9.9.1._ M m M B g i 8 7 0 0 8 < e u g D K H m 5 * # = 8 m P ",
"V m 8 : * = 8 m V V m 8 = * ; 8 m N N m m m m x x m J $.5.0.<.5.B.OXyXhXyX%XR.b.5.4.0.5.$.J m x x m m m m N N m 8 ; * ; 8 m V V m 8 = * : 8 m V ",
"i 8 5 , : > 5 8 i q 7 : + X * < p N V V V N m m M A ' $.1.,.( 4.L.%XsXfX1X_.m.8.4.,.&.#.| J A M m m N V V V N p < * X + : 7 q i 8 5 > : , 5 8 i ",
"= : , 7 9 7 > = = : : * + X + * < q m V C D S [ ' +.#.$.$.@.( 5.T.:XsXtX}.m.8.8.5.@.' J J ] +. ._ S D C V m q < * + X + * : : = = : 7 9 7 , ; = ",
"O * , x b n 4 * # # * * * * # # * : 7 m C L | $.5.5.1.#.| ` / 5.Q.9XyX&XL.5.<.0.5.#.A m A +.5.7.1.| J C m 7 : * # # * * * * # # * 4 n b q , * O ",
"+ * 7 b I I x , $ + # = > < > * # + * 8 g _ $.7.9.9.1.| L S ! 1.L.&XqXOXu.@./ ,.1.| N x A @.9.S.8.$.[ g 8 * + # * > < > = # + $ , x I I b 7 % @ ",
"- 7 v I U U I z , $ # ; 8 p q > # . X = u ` 1.9.S.9.%._ B M k #.N.OX1X`.t.` ^  .#.[ m x A @.9.S.v.1.` u = X . # > q p 8 : # $ , z I U U I v 7 - ",
"n b I U R R Y b 7 * * > q m p < * . . * t ! 5.x.x.5.+.S m p g | j.|.%X`.k.| _ ] | L M m A  .5.x.x.5.! t * . . * < p m i > * * 7 b Y R R U I b n ",
"I I U R R T I x , * * : 8 q 8 > * + $ : d  .5.9.8.%.' B m q g { j.).#X|.C.w.....{ S M m A ' %.7.9.5. .d : $ + * > 8 q 8 : * * , x I T R R U I I ",
"Y U R E R Y v , * # * = > > : = * % - 8 k @.5.8.5.#.J M m p j { u.).%X#X(.l.e.$.{ S m m B J #.2.8.5.@.k 8 - % * = : > : = * # * , m Y R E R U Y ",
"T R E E R I 0 * X # * * * * # # * : 4 m L %.5.5.1.{ F M m g j | u./.%X9XoXI.f.w.| S m m M S | 1.5.5.%.L m 4 : * # # * * * * + O * 0 I R W E R T ",
"R E W W R P 5 O o X * * # X X # * , w V } %.5.2.$.[ D M m g Z | u./.%XeX@X{.J.e.| A m m M A [ $.2.5.%.} V w , * # X X # * * X o O 5 P R W W E R "
};
