/* XPM */
static const char *wall_28[] = {
/* columns rows colors chars-per-pixel */
"72 72 236 2 ",
"   c #4D0B16",
".  c #4E0E19",
"X  c #4A0714",
"o  c #500D19",
"O  c #4E111C",
"+  c #51131D",
"@  c #4A010D",
"#  c #4E1B25",
"$  c #4C1724",
"%  c #511720",
"&  c #531A22",
"*  c #581D25",
"=  c #4F232B",
"-  c #552027",
";  c #55242A",
":  c #58252B",
">  c #55282E",
",  c #5A292E",
"<  c #582127",
"1  c #4B2E39",
"2  c #552C32",
"3  c #5A2D32",
"4  c #512730",
"5  c #4D323B",
"6  c #4F3037",
"7  c #543236",
"8  c #5C3236",
"9  c #54363A",
"0  c #5D3539",
"q  c #563A3E",
"w  c #5C3A3D",
"e  c #632B2C",
"r  c #652726",
"t  c #67332E",
"y  c #613435",
"u  c #613739",
"i  c #613B3C",
"p  c #6B3E3C",
"a  c #6C3835",
"s  c #733D35",
"d  c #612F32",
"f  c #6A423E",
"g  c #64413E",
"h  c #74443D",
"j  c #7A453D",
"k  c #7B4A3D",
"l  c #553A41",
"z  c #5C3E41",
"x  c #503640",
"c  c #623E40",
"v  c #5E4244",
"b  c #5A4A4A",
"n  c #584646",
"m  c #5C5352",
"M  c #5F4F50",
"N  c #634343",
"B  c #6B4643",
"V  c #654847",
"C  c #6D4945",
"Z  c #654B4A",
"A  c #6D4D49",
"S  c #62464A",
"D  c #734B44",
"F  c #7A4D45",
"G  c #734E49",
"H  c #784D46",
"J  c #6B514D",
"K  c #7D5246",
"L  c #75524A",
"P  c #7C5249",
"I  c #755147",
"U  c #654E51",
"Y  c #645355",
"T  c #635B5B",
"R  c #675759",
"E  c #7C5D56",
"W  c #71615D",
"Q  c #666462",
"!  c #6C6565",
"~  c #6D6B6A",
"^  c #6F676A",
"/  c #716D6C",
"(  c #706666",
")  c #6E7270",
"_  c #737473",
"`  c #747B77",
"'  c #767B7A",
"]  c #787B7A",
"[  c #777778",
"{  c #6C706C",
"}  c #6C5F62",
"|  c #814C3C",
" . c #8B553C",
".. c #945A3C",
"X. c #A05F3F",
"o. c #A56B3E",
"O. c #834E42",
"+. c #825346",
"@. c #885545",
"#. c #8C5A45",
"$. c #835549",
"%. c #895749",
"&. c #855A4B",
"*. c #8C5A4A",
"=. c #875945",
"-. c #925C44",
";. c #925D4B",
":. c #9C5F47",
">. c #855B51",
",. c #915E51",
"<. c #946146",
"1. c #9C6444",
"2. c #95614B",
"3. c #9A644B",
"4. c #9D694B",
"5. c #9E6846",
"6. c #88655A",
"7. c #956452",
"8. c #9C6653",
"9. c #9D6953",
"0. c #976B59",
"q. c #9D7255",
"w. c #A46B45",
"e. c #AA6E44",
"r. c #A46C4B",
"t. c #AA6D4B",
"y. c #A06749",
"u. c #AC7246",
"i. c #AD734A",
"p. c #A6704E",
"a. c #B2754B",
"s. c #B5794B",
"d. c #BA7C4D",
"f. c #B37746",
"g. c #A16650",
"h. c #A46B54",
"j. c #A66E59",
"k. c #A96E57",
"l. c #AB7353",
"z. c #AB725A",
"x. c #A8765A",
"c. c #B37552",
"v. c #B57A52",
"b. c #BA7C54",
"n. c #B5755B",
"m. c #B27A5C",
"M. c #BB7B5C",
"N. c #BA7658",
"B. c #957361",
"V. c #AA7B63",
"C. c #A77661",
"Z. c #BB7E62",
"A. c #B37B63",
"S. c #C17E5B",
"D. c #76837D",
"F. c #78827E",
"G. c #B6835A",
"H. c #BB855C",
"J. c #BC855A",
"K. c #AC8468",
"L. c #BD8164",
"P. c #BE8B62",
"I. c #B78768",
"U. c #BC9478",
"Y. c #BB8C71",
"T. c #C28357",
"R. c #C28359",
"E. c #C8895C",
"W. c #C38462",
"Q. c #CA8463",
"!. c #C38D64",
"~. c #CC8B64",
"^. c #CD8C6B",
"/. c #C3896B",
"(. c #D28C6B",
"). c #D28E66",
"_. c #C6946B",
"`. c #CA956D",
"'. c #C9986F",
"]. c #C79469",
"[. c #D5966B",
"{. c #CB9473",
"}. c #CB9B72",
"|. c #CA9C7B",
" X c #C49776",
".X c #D49371",
"XX c #D49B75",
"oX c #DA9C75",
"OX c #DB9E7B",
"+X c #D79975",
"@X c #CA8F72",
"#X c #CDA077",
"$X c #CEA37A",
"%X c #D1A57C",
"&X c #DAA27D",
"*X c #D3A87F",
"=X c #D9AA7E",
"-X c #D4A174",
";X c #E5A67C",
":X c #7A8581",
">X c #7B8C84",
",X c #7E928A",
"<X c #7C9087",
"1X c #80958C",
"2X c #839D93",
"3X c #BC9981",
"4X c #C39D80",
"5X c #C9A282",
"6X c #D2A680",
"7X c #D6AD84",
"8X c #DAAD84",
"9X c #D8AA85",
"0X c #D9B087",
"qX c #D6B189",
"wX c #DBB38A",
"eX c #D9B38A",
"rX c #DEB991",
"tX c #E2A682",
"yX c #E3AC84",
"uX c #E6AD86",
"iX c #E2B48C",
"pX c #E9B68D",
"aX c #E2B98E",
"sX c #E9B78C",
"dX c #E5BC93",
"fX c #EABD93",
"gX c #F1BE93",
"hX c #E6C097",
"jX c #EAC197",
"kX c #EBC399",
"lX c #EAC59C",
"zX c #F3CA9C",
"xX c #F2C59A",
"cX c #F0C08E",
"vX c #F7CDA1",
"bX c #F6D1A5",
/* pixels */
"2X1XD.{ m 9 ; % + . . . . % , i Z Z S N D %.2.3.;.%.$.%.;.g.N.Q.+X8X7X%X`.Q.Q.(.^.L.j.;.%.%.%.%.%.*.2.3.3.%.D N v S N i 2 % X @   : U _ >X>X>X:X",
"1X>X` Q b 7 - % + % % % + % : 0 N S N N C +.*.;.;.*.$.+.*.8.M.^.OX8X7X*X{.^.(.(.^.Z.h.*.+.+.*.*.*.*.;.;.*.K C N N S N u : %     % 8 R _ :X>X>X>X",
"D.` ~ T q > % % * ; : ; & % * , 8 w w N N D K $.;.*.+.K $.7.L.XX8X8X7X6XXXXX+X+X^.A.7.$.K +.*.;.*.%.$.+.H D N N S S N 8 ; + + * 3 S R _ F.:X>X>X",
"{ Q T v 2 % + & : 8 w 8 : % + % ; 2 8 z v N B H *.;.+.D G 6.Y.8XsXiX7X7X9X8XtXoX^.z.*.D D +.;.3.;.*.K D N N z N V Z N 8 & + * w Y } ^ _ ' :X>X>X",
"m b q 2 % . . % , i N i , % . O % : u N S v N G %.*.F i N 6.U.dXxXaX7X7XrXfXpX;X^.j.K N N G *.3.2.*.K C N z z N V Z N 3 & % 3 R _ ' ' _ ` F.>X<X",
"9 7 > & +     O ; 8 w 8 ; + O % ; y f D I G D K &.+.f 7 z 6.5XlXzXaX7XqXdXlXgXuX(.j.H z q B +.*.-.-.#.$.K H C B N V N 8 - : N / >X,X:X' ' :X>X,X",
"; - & % + O . O $ ; : * & + % > w B H $.*.2.<.#.&.D w 6 z 6.5XlXzXaX7XqXdXkXgXuX(.z.K z q z D +...1.r.z.z.8.*.H B N v 0 3 u U / >X,X>X:XF.>X>X,X",
"% % % % % % % % % % % + + % ; 8 N A P *.y.i.i.4.$.N 6 6 N 6.|.dXxXaX7X7XrXdXpX;X^.z.$.N 9 q N K <.i.R.).^.L.j.*.F B N w w N U ! _ F.:X>X>X>X>X>X",
"+ + O O % * e e e < & # & ; > 8 w c C $.r.d.d.r.K l 1 6 B 0. XuXpXiX7XqXeXiXyX+XW.k.%.B 9 5 l L q.!.-X;X;X.XL.h.*.H C N N S S S Y ! ` >X>X:XF.F.",
"+ + . . + : s j h u 3 2 7 8 3 : : 2 0 D 2.s.d.r.K l 1 8 F 9./.OXyX8X7XqXwX9X%X!.v.r.#.F w 1 l E K.8XgXgXiX&X`.Z.h.*.H C V v 8 2 3 S ( F.:XF.` _ ",
"& % O O % e | *.&.G N v S N 8 < % # 2 N &.r.i.5.K N z D *.h.M.^.XX*X7XwXeX7X}.H.i.w.3.*.D w N 6.U.dXvXzXdXyXOX^.M.g.*.P A N 3 % % 3 R _ ] ' _ / ",
", : - # : a @.2.7.&.G A L G p , & # 2 z G &.<.#.+.K &.7.j.n.N.S.~.XX7XrXrX9X}.J.u.e.l.j.;.K K 0. XfXvXbXlXfXtX+XQ.c.4.*.P D y * % 2 S ! _ _ _ _ ",
"i 0 8 8 0 h %.2.7.*.$.&.&.$.D u 3 2 w N V C D K #.4.l.Z.W.M.N.c.H.'.7XdXhXwX#XJ.u.a.M.W.m.r.3.l./.tXgXzXvXfXuX+XE.v.t.4.2.$.h y 3 8 n T ~ _ _ ] ",
"N N N z N D +.*.;.*.*.*.;.*.+.C N v N N z z N D <.i.R.~.^.W.c.i.v._.7XhXlXdX%XH.i.a.W.^.Q.b.i.a.M.^.&XpXdXpX&X^.S.v.i.r.3.*.K C N q n b T ~ _ ' ",
"S S S S V C G K $.*.;.;.;.*.$.P A C V N z N B K <.i.T.~.~.R.f.u.v._.7XkXvXkX*XK.r.t.M.~.~.b.i.r.t.n./.{.|.|./.Z.c.a.t.4.-.$.P A Z w 9 9 n T ~ _ ",
"v N S V V B B D K %.;.;.;.%.%.&.P G N N N G $.%.;.4.l.b.T.d.u.u.v._.7XkXvXhX6XV.2.1.i.T.J.l.4.;.;.8.h.x.V.x.x.h.g.r.4.;.+.D C Z V 0 ; - 7 n T Q ",
"N N N N N N z N C K *.;.*.*.*.;.*.K B N B K *.*.*.*.2.r.i.u.e.i.G._.7XhXzXdX|.C.*.#.5.i.i.3.*.$.%.*.*.*.*.%.%.*.*.;.*.+.C N N S N 8 * % > q b m ",
"D C B N z q q l N D +.*.;.2.3.4.3.%.G B B D F +.$.$.*.2.5.w.t.c.W.}.7XdXhXiX Xx.#. ...5.3.*.$.$.%.%.@.F h h D F F K H D V v v S V y * + & 7 n b ",
"$.+.G B l 9 9 l N D +.#.3.r.t.i.r.3.%.D f i i C K *.*.2.2.y.c.S.^.XX7XrXdX0X'.m.1...-.-.*.%.$.%.*.*.+.D f i g B C C C B N S S Z V 8 * + & 7 n b ",
";.*.+.D N z z N C K *.3.r.i.f.f.i.r.3.*.H B N C K *.*.%.*.8.M.^.XX*X7XeXeX7X}.H.i.5.-.*.*.%.*.;.;.*.+.D N z N N N N N N N N V V N 8 * % > q b m ",
";.*.%.$.K D F K *.9.z.n.v.d.s.s.s.a.l.j.0.0.6.6.&.+.k k +.9./.OXyX8X7XqXqXwX%X).T.i.3.*.%.*.;.;.%.$.G B N v v S S S S c w 0 i i 0 , & % 2 v Y Q ",
"%.%.*.2.3.1.1.4.l.L.~.~.R.d.f.f.s.v.M.W.@X XU.K.0.+.s s O.j. XiXfXiX6X7XqXwX8XoX~.M.g.*.%.*.;.%.K D N N N N N S Z Z S w 3 : ; : : * + % 8 U ! ) ",
"$.*.2.r.i.u.u.i.b.Q.^.~.b.i.w.e.i.v.S.^.&X8X7X XC.*.j j *.V.6XdXkXaX7X7X7X7X9XoX^.M.8.*.%.*.*.$.D N z N N N N N V V N 0 ; % + % % O   % w R _ :X",
";.2.4.i.f.f.e.w.r.z.z.h.2.#. .-.r.c.R.~.[.XX}.Y.K.x.8.8.x.Y.7XdXkXdXwX*X#X}.`./.Z.z.;.+.K $.$.P B z v S V N i 0 0 i 0 3 * + O + +   @ + c ! F.,X",
"r.r.i.i.f.e.1.-.@.+.H C f f h K 2.l.b.T.b.l.x.V.I. X X X X|.7XwXdXdXaX*X_.G.c.l.h.,.K C C A G C N N N Z V N 8 : ; : : ; % + + % +   @ + c / >X2X",
"i.i.i.f.i.r.3.*.K C N z z N C P *.4.i.i.5.#.*.q.U.7XaXwX7X7X*X7XrXhXdX=X!.i.y.-.*.K C N N N N N N N V V N 0 ; % + + % % % % % & % . X % N / >X2X",
"e.u.u.a.c.m.m.C.0.6.E E E 6.6.*.#.-.1.1.-.#.7.V.|.wXjXdXwX7X*X6XwXkXhX8X!.a.X.-.+.P C S q 9 8 0 i N N i 8 ; % .   . + % % % % % + O O ; S ~ F.,X",
"o.e.e.a.S.^.|.5X4XU.U.U.3XU.I.l.1. . .#.7.x.Y.|.7XwXrXaXwX7X7X7XwXhXhXiX.XM.t.:.*.P A S w 2 ; 2 w N i 3 - + O . . O + % % % + + + O = 9 Y ~ ` :X",
"u.i.c.S.^.OXiXdXhXdXdXkXlXdX=X!.i... .*.x.U.7XwXwX7X6X7X7X6X6X7XwXdXdXiX&X^.M.g.*.P A N 8 & % : 0 N i , % + + % % % % % % % + + % - 9 b T ~ _ ' ",
"H.P.!.{.OXuXfXkXxXxXzXzXvXzXsX-XH.p.3.8.V.$XaXdXwX7X*X7X6X6X6X7XwXeXiXpXuXOX/.8.K B w 8 ; O + - i V N 3 - * ; , : - % % % % % & : 9 b T ~ _ _ ' ",
"*X6X8XyXiXpXaXaXaXaXdXfXjXdXiX=X}.P.m.m.Y.$XwXaXwX7X7X6X7X7X7X7X7X7XwXaXfXiX X0.B 2 = & +   + < i V V w 8 8 i i 8 ; % + + % - 2 q b T ~ _ ' F.F.",
"dXdXfXfXdXaXwX7X6X7X7X7X7X7X0XwX7X%X'._.}.%X7XwX7X7X7X7X7X7X7X7X7X6X7XaXxXdX|.B.N = # % + + % : 0 N V N N V V N 0 : % + + % > 9 b T ! _ ] :X>X>X",
"kXkXkXhXdXwX7X7X$X$X6X$X$X6X7XqXwX0X*X%X%X*X6X7X7X7X7X7X7X7X7X7X7X$X6XaXkXkX5XB.G y , : < ; ; > 3 0 N V Z Z V i 3 ; % + + % > l m Q ~ ' :X>X,X,X",
"aXaXaXrXwXwX7X6X7X7X7X7X7X7X7XqXwX0X9X8X7X7X7X7X7X7X7X7X7X7X7X7X7X*X7XaXkXhX6XI.2.| j h p i 8 2 ; : 8 N Z V w , - & % + + % > q m Q ) ' :X>X,X,X",
"7X7X7X7X7X7X7X7X7X7X7X7X7X7X7X7X7X7X7X7X7X7X7X7X7X7X7X7X7X7X7X7X6X7X7XwXkXdX8X!.i.1.-.*.$.G N 3 & % : 0 N i , % + + % + + % ; 9 b T ! _ ] :X>X>X",
"*X7X7X7X7X6X7X7X7X7X7X7X7X7X7X7X6X7X*X*X7X6X7X7X7X7X7X7X7X7X7X7X6X7X7XwXdXdX=XE.f.e.r.9.0.6.G y & . O : 8 3 * .   O + + + % - 2 q b Y ! _ ' F.:X",
"7X6X6X6X6X7X7X7X7X7X7X7X7X7X7X7X7X*X#X}.$X*X7X7X7X7X7X7X7X7X7X7X6X*X6XeXdXrX%XH.u.e.e.l.x.0.&.p < . . % - * % + . O + + % % % - : 7 v Y ! _ ` ' ",
"7X7X7X7X7X7X7X7X7X7X7X7X7X7XqXwX7X%X'._.}.%X7XwX0X7X7X7X7X7X7X7X7X6X7XwXwX7X}.J.i.e.e.i.i.4.*.h e % O O % & % % % % % % % % + + % - 9 b T ~ _ ' ",
"7X7X7X7X7X7X7X7X7X7X7X7X7X7X0XwX7X$X_.!._.$X7XwX0X7X7X7X7X7X6X7X7XwXwX7X%X}.!.H.v.a.u.e.w.-.@.j a , ; & & - - : : , : ; * + o o + & 7 b T ~ _ [ ",
"7X7X7X7X7X7X7X7X7X7X7X7X7X7X0XwX7X$X_.!._.$X7XwX9X7X7X7X7X6X7X6XwXwXwX*X].H.J.W.Q.R.a.o... .O.F j h p y 8 2 7 8 w i i 3 - + . o + - 9 b Q ~ _ ] ",
"7X7X7X7X7X7X7X7X7X7X7X7X7X7X9XwX7X%X}._.}.%X7XwX7X7X7X7X7X7X6X7XwXwX7X'.G.i.c.W.^.~.J.i.5.-.*.*.*.*.$.D N z z N V V N 0 : % O + % ; 9 b T ~ _ ' ",
"7X7X7X7X7X7X7X7X7X7X7X7X7X7X7X0X7X*X}.}.}.*X7X0X0X7X7X7X7XwXwXwX0X6X}.H.r.1.t.N.~.`.].P.I.K.V.C.z.j.2.P C C C A A Z v w 2 - % + + % > q M Q ~ _ ",
"7X7X7X7X7X7X7X7X7X7X7X7X7X7X7X7X7X6X*X*X*X6X7X9X0X0X0X7X0XeXrXwX6X'.H.p.<.-.1.t.b.].-X6XqX7X5X}./.M.h.%.K I P K H V z l q 8 : & + . O - w b T Q ",
"7X7X7X7X7X7X7X7X7X7X7X7X7X7X7X7X7X7X7X7X7X7X7X7X7X7X7X6X7XwXwX7X}.H.i.5.-.*.#.1.i.E.=XdXlXlXdXiX&X^.n.8.*.%.*.*.$.D N N S N 0 : % . . % 2 q b m ",
"6X7X7X7X7X7X7X7X7X7X7X7X7X7X7X7X7X7X0XwXwX0X7X7X*X%X%X*X*X*X$X}.!.d.u.1.;.*.%.-.w.H.&XfXxXxXfXpXuX&X^.m.h.4.3.3.-.%.$.P P L C 8 ; * & * > 7 9 q ",
"7X6X7X7X7X7X7X7X7X7X7X7X7X7X7X7X7X7X0XwXwXwX7X*X}.}.}.}.}._.P.G.v.s.u.r.3.;.%.@.3.m.{.tXuXtXtXyXpXpX9X{.Z.c.t.r.r.w.r.4.2.&.G f 0 8 8 8 3 > ; - ",
"7X7X7X7X7X7X7X7X7X7X7X7X7X7X7X7X7X7X7X7X7X0X7X*X}._._._._.P.b.i.u.u.i.r.3.*.+.+.*.h.Z.^.(.(.^.XXiXdXpX&X^.S.c.i.u.u.i.r.3.*.K C N S S N 8 ; % O ",
"wXwXwX9X7X7X7X7X7X7X7X7X7X7X7X7X7X6X*X*X*X7X7X*X}.}._.].!.H.v.i.e.r.4.2.%.K G G K *.h.n.N.N.S.`.8XpXpXtX.XE.v.i.e.5.3.2.%.+.G B V Z J Z i : +   ",
"dXdXiXwX7X6X7X7X7X7X7X7X7X7X7X0X7X*X}.}.}.*X7X7X6X%X}._.!.!.H.G.l.4.#.$.G C B B C K *.8.r.t.v.E.oX;XtXOX.XQ.b.i.1.=.G C C C B N V Z J Z i : +   ",
"hXdXdXwX7X6X7X7X7X7X7X7X7X7X9XwX7X%X}._.'.$X7XwXwX7X%X}._.].'._.L.h.*.H C N z z N C K *.3.w.i.b.W.^..X.X^.~.J.i.<.D N z z N N N N V V N 8 ; % O ",
"dXdXiXwX7X6X7X7X7X7X7X7X7X7X0XwX7X$X_.!._.$X9XwXwXwX7X}.}.-X*X*X{.A.8.@.D N q q z B H %.2.5.r.r.h.z.A.W.~.E.T.s.5.=.D C C C C N N i w 8 : * % % ",
"wXwXwX9X7X7X7X7X7X7X7X7X6X7X7XwX7X$X_.!._.%XwXwXeX0X6X*X*X7XwXwX9X^.n.g.%.D N q z B K *.3.3.2.%.K +.2.l.R.E.T.d.i.r.1.-.%.$.P C N 0 > * % % % % ",
"7X7X7X7X7X7X7X7X7X7X7X7X7X7XqX0X7X%X}._.'.%X7X0X0X7X6X7X7XwXdXdXpX&X^.M.h.*.G N N C K *.2.2.*.H N N D <.i.s.f.i.i.i.i.r.3.*.K A N 8 ; % + + % % ",
"7X7X6X7X7X7X7X7X7X7X7X7X7XqXwXwX7X6X%X}.}.#X%X*X7X6X7X7XwXdXhXkXfXuXOX^.M.j.*.H C C D P $.*.%.H S z g k  . . . ...1.5.3.*.$.G C N w 3 ; * % % % ",
"6X7X7X7X7X7X7X7X7X7X0X0X0XwXwXwXwX0X7X6X$X}.'.}.$X6X7XqXwXdXdXkXfXiX8XXX^.Z.k.;.K B N N D +.%.P A v 0 y r r r r a h K P G C B N N N i 0 3 ; & % ",
"7X7X7X7X7X7X7X7X7X7X7X7X7X7X7X7X7X7X0X7X%X}.].}.%X7X7X7X7XwXdXdXdXeX7X*XXX^.M.h.*.G N N D +.*.&.L N 8 ; % + O % : 0 N V V N N N N V V N 8 ; % O ",
"7X7X7X7X7X7X7X7X7X7X*X%X$X%X%X%X%X*X*X*X}.}.'.#X7XwX9X*X$X*XwXdXdXwX6X&XOX.XQ.c.3.=.K K &.*.;.%.D i 2 = # & * < d i B C C C B V V V V i 3 & O   ",
"7X7X7X7X7X7XwX0X6X$X}.`.`.'.}.}.'.'.'.'.}.}.%X9XaXaX9X}._.}.7XwXwX9XXX+X+X.XQ.v.r.5.1.4.4.4.2.O.a , - 4 3 u p j k F K +.+.+.P A V v 0 , * + .   ",
"7X7X7X7X7X7X0X7X*X}._.].]._._._._.].]._.}.$X7XrXhXdX8X}._.'.*X7X6XXX^.^.(.^.W.v.i.u.u.i.i.9.*.h e % # 2 N L $.*.;.*.*.*.*.*.$.G N 8 ; % + + % % ",
"7X7X7X7XqX7X6X*X}.'._._.'.}.}.}.}.'.}.}.%X7X0XdXkXhXpX8X}.}.$X#X`.W.S.S.S.W.J.v.f.u.e.r.3.*.G y % . $ 2 V L >.*.*.*.*.*.*.&.K C 0 ; O . % : 8 w ",
"7X7X0XwXwX6X$X}.`._.'.}.%X*X*X$X%X*X8XwXwX9X9XwXdXhXfXaXwX6X#X_.H.v.a.a.c.v.b.d.f.r.<.$.P A N 3 $ . $ 2 S A L L L L L L L L C y ; O   + , N R ! ",
"7X7X7X0X7X*X}._.!.!._.}.*X7X7X7X7XwXdXdXdXwX7X9XwXfXkXkXdXwX%X_.H.v.i.i.t.i.s.s.i.1.H N v S N 8 - % - 8 N V V N N N N V V N 0 : %   X % z R _ :X",
"7X7X7X7X%X}.}.].P.J.H.P.}.*X7X7XwXwXdXdXdXwX7X7XwXaXdXhXdXiX8X}._.P.G.v.i.u.f.f.r.=.g 5 l C K F s t t p B V v w 9 7 2 8 8 8 2 & +   . ; S ~ :X1X",
"0X7X*X#X}.`.'.].H.v.i.v.P.}.%X6X0XwXwXwXwX9X7X7X9XwXwXwXwXwXwXwX8X$X'.P.v.u.u.t.3.K w 6 N >.j.l.1. .| F H A S z 7 > & & - ; * % + O # 9 T _ >X1X",
"wX7X*X}._.].`._.P.v.i.a.H._.#X6X7X9X9X7X7X7X7X7X7X7X7X6X7XwXaXdXdXdX7X}.J.i.w.3.*.G i N >.V.^.).T.i.w.<.*.P A N 8 ; % + % % + + % - 7 b Q ` >X1X",
"0X7X*X#X'._._.].!.H.H.!.`.XX*X6X6X7X7X*X7X7X7X7X7X6X7X*X7X0XiXdXkXhXrX$XH.r.-.+.K H H >.C.{.tX;X[.E.b.i.r.2.$.G p 3 - % + + o + % 2 v T ) D.>X,X",
"7X7X7X6X%X}.].].].}.*X8XwXwX9X7X7X*X*X7X6X7X7X7X7X7X7X7X6X7X9XwXdXhXeX#XK.2.k f C P 7.A.{.iXfXsX;X[.E.b.a.r.2.$.G p 8 ; % .     % 3 U ~ D.>X<X,X",
"7X7X7XwX7X$X_._.}.8XdXkXkXdXiXwX7X6X7X7X7X7X7X7X7X7X7X7X7X7X7X7XwXwX7X Xx.*.f w N K z.^.;XpXfXiX&X^.S.v.i.r.3.*.P A N 8 : %     % 8 R _ :X>X>X>X",
"6X7X0XwX0X*X}.}.*XwXhXlXkXdXaXwXwXwXwXwXwX9X7X7X7X7X7X7X7X7X7X7X8X8X%X/.x.%.B w N K h.~.;XuXwX6X@XA.k.4.<.#.%.$.P A V v 0 , % O % 8 R _ :X:XF.D.",
"7X7X7X0X7X6X*X*X6XwXwXaXwXwXwXiXdXdXdXdXwX0X7X6X7X7X7X7X7X7X7X7X8X&X.XL.j.%.C z N G 3.b.).oXXX{.A.9.*.$.K D D D C B V S N 0 : + % 8 R _ :XF.` _ ",
"7X7X7X7X7X7X7X7X7X7X7X7X6X7XwXaXdXhXhXdXaXwX7X6X7X7X7X7X7X7XqX7X=XXX^.M.h.*.D N N D #.i.T.).^.L.j.*.D B N N N N N N N V Z N 3 % % 3 Y _ ' ' _ / ",
"7X7X7X7X7X7XwXwX7X7X*X$X$X7X0XaXhXkXkXhXdXwX7X6X7X7X7X7X7XqXqX7X=X.XQ.N.h.*.G N N D  .w.d.E.Q.n.4.+.f q l l l z w i N V A V 8 * % 3 Y _ ' _ ) / "
};
