/* XPM */
static const char *wall_23[] = {
/* columns rows colors chars-per-pixel */
"72 72 239 2 ",
"   c #4D0E1A",
".  c #4D0A15",
"X  c #4E121C",
"o  c #51141D",
"O  c #53191E",
"+  c #500F19",
"@  c #4D1621",
"#  c #4D1B24",
"$  c #4C1E29",
"%  c #521620",
"&  c #531B24",
"*  c #521F29",
"=  c #4E222D",
"-  c #542027",
";  c #55232A",
":  c #5A262B",
">  c #55282E",
",  c #5A292E",
"<  c #5E2423",
"1  c #4E2632",
"2  c #542D32",
"3  c #5A2D32",
"4  c #553136",
"5  c #5C3236",
"6  c #56353A",
"7  c #5C3539",
"8  c #5D3A3C",
"9  c #563A3B",
"0  c #63292A",
"q  c #6B332D",
"w  c #622F31",
"e  c #633335",
"r  c #6A3331",
"t  c #603738",
"y  c #623B3C",
"u  c #6C3C3A",
"i  c #6A3A35",
"p  c #723C39",
"a  c #743B34",
"s  c #621F22",
"d  c #6C423F",
"f  c #67413B",
"g  c #73443C",
"h  c #7A453C",
"j  c #77483C",
"k  c #7F513D",
"l  c #5B3D42",
"z  c #563942",
"x  c #613F40",
"c  c #5C4244",
"v  c #5B444B",
"b  c #5C4A4A",
"n  c #564241",
"m  c #5E5152",
"M  c #5C5259",
"N  c #5F4F50",
"B  c #634342",
"V  c #6A4643",
"C  c #664846",
"Z  c #6D4945",
"A  c #62464A",
"S  c #654B4A",
"D  c #6C4D49",
"F  c #724540",
"G  c #744C45",
"H  c #7A4E45",
"J  c #754E49",
"K  c #7A4F48",
"L  c #68514E",
"P  c #7C5146",
"I  c #76524A",
"U  c #7C5249",
"Y  c #765146",
"T  c #634F51",
"R  c #625354",
"E  c #655B5B",
"W  c #6A5B5B",
"Q  c #645558",
"!  c #785A53",
"~  c #7A655B",
"^  c #6A605F",
"/  c #635F62",
"(  c #6B6464",
")  c #6D6B6B",
"_  c #696765",
"`  c #756D69",
"'  c #6E726E",
"]  c #797269",
"[  c #6D7475",
"{  c #737373",
"}  c #747976",
"|  c #757D7B",
" . c #716F70",
".. c #844D3C",
"X. c #8D553C",
"o. c #945A3D",
"O. c #A4683F",
"+. c #99613F",
"@. c #824F42",
"#. c #884F44",
"$. c #835545",
"%. c #845946",
"&. c #8C5B46",
"*. c #845549",
"=. c #895749",
"-. c #84594B",
";. c #8C5A4A",
":. c #8B5745",
">. c #925D44",
",. c #925E4A",
"<. c #995E49",
"1. c #845D52",
"2. c #885F53",
"3. c #946145",
"4. c #9B6446",
"5. c #9F6847",
"6. c #95614B",
"7. c #9B654A",
"8. c #9E694B",
"9. c #94694D",
"0. c #8C6253",
"q. c #856254",
"w. c #956352",
"e. c #9B6451",
"r. c #9B6A55",
"t. c #9B6C5A",
"y. c #956957",
"u. c #99725B",
"i. c #8B604C",
"p. c #A96E45",
"a. c #A46D4A",
"s. c #A86F4B",
"d. c #A26646",
"f. c #AB7147",
"g. c #AC734A",
"h. c #A5704E",
"j. c #B2764B",
"k. c #B5794C",
"l. c #BA7C4D",
"z. c #B37347",
"x. c #A56C53",
"c. c #A56E59",
"v. c #AC6B54",
"b. c #AC7352",
"n. c #A4735B",
"m. c #AD7259",
"M. c #AE7D5B",
"N. c #AB7A56",
"B. c #B37652",
"V. c #B47B53",
"C. c #BA7C54",
"Z. c #B2745A",
"A. c #B37A5B",
"S. c #BC7D5B",
"D. c #89786A",
"F. c #967461",
"G. c #847568",
"H. c #A77B63",
"J. c #B97D64",
"K. c #A15E4D",
"L. c #C17E4A",
"P. c #C07E58",
"I. c #76827C",
"U. c #78827E",
"Y. c #79847F",
"T. c #BD825B",
"R. c #B98256",
"E. c #98846C",
"W. c #A48B6A",
"Q. c #AA8364",
"!. c #B28363",
"~. c #BC8363",
"^. c #BC8A63",
"/. c #BC8D6C",
"(. c #B6876A",
"). c #B58D72",
"_. c #BB9374",
"`. c #A78E76",
"'. c #C3845B",
"]. c #C48659",
"[. c #C58564",
"{. c #C18C63",
"}. c #CA8964",
"|. c #CE8C6B",
" X c #C78967",
".X c #D18E6E",
"XX c #D18E66",
"oX c #C4936B",
"OX c #CD926D",
"+X c #C89468",
"@X c #D3936B",
"#X c #D8926E",
"$X c #CD9472",
"%X c #C59974",
"&X c #CC9C74",
"*X c #C69C7A",
"=X c #CB9E79",
"-X c #C29473",
";X c #D29673",
":X c #D39B75",
">X c #D89E78",
",X c #CEA27A",
"<X c #CCA178",
"1X c #D3A47C",
"2X c #DBA47D",
"3X c #D6A77C",
"4X c #E2A57D",
"5X c #7A8982",
"6X c #7B8D85",
"7X c #768C8B",
"8X c #778885",
"9X c #799494",
"0X c #B7A98C",
"qX c #B89980",
"wX c #D4A680",
"eX c #DBA581",
"rX c #D5AC83",
"tX c #DBAC84",
"yX c #D6AF88",
"uX c #DAB086",
"iX c #D6B289",
"pX c #DBB38A",
"aX c #DAB48B",
"sX c #CBB896",
"dX c #DCBA93",
"fX c #CAAA88",
"gX c #E4AD84",
"hX c #E2B48B",
"jX c #E3B98D",
"kX c #E8B587",
"lX c #E4BB92",
"zX c #E9BE94",
"xX c #E6B790",
"cX c #F0BF94",
"vX c #C19F84",
"bX c #ECC499",
"nX c #EAC196",
"mX c #F7C697",
"MX c #D0C2A0",
/* pixels */
"5X5X5X5X5X6X6X6XU.} { { } { ( Q b n n b Q ( { | Y.5X5X5X5X5X5X5X6X6X5XU.} { { { { ) E b 6 ; % o % % & % % o o % ; 6 b E _ { } Y.5X6X6X5XU.} {  .",
"5X5X5X5X5X5X6X6XY.} { { { ) ( T c 9 9 c b E (  .{ } } | I.I.Y.5X6X6X6XY.} { { { ) ( R c 4 : * * * * * % % % & * > 6 c b E (  .} I.Y.5X5XU.| } { ",
"Y.Y.U.U.U.5X6X6X5X| { { ) ( Q c 7 4 4 6 l A T Q W W ( ) ' } | U.5X6X6X5X| { { ) ( Q v 6 2 > , , 3 , ; & % & ; , 3 4 6 l A T W _ ' } I.Y.U.I.| | ",
"} } } } } I.5X5X5X| { ) ( Q v 6 : ; ; > 2 5 7 7 7 8 c T E _ ' } U.5X5XY.| { ) ( Q c 4 : : 3 7 y y 7 , * % - 3 7 7 3 > : 3 7 l S E _ ' } | U.U.I.",
"( ( ( ( ) } Y.5XU.{ ( E R b 6 ; % o & * - * % o o % ; 4 c R / ) } I.I.}  .( E T c 2 * % - 5 B C C B 5 ; * , 7 B y e : & o % ; 4 c T E (  .{ } } ",
"A A S R E ' I.U.{ W S v v c 4 * o o * : ; o + . . . X # 2 l T E ) ' ) ( W S c 8 2 * X o * 7 C L L C y 3 3 5 l C C u q s o + X # 2 7 l A T Q W W ",
", 3 5 l m _ } } ( A 3 3 8 c 7 * o & , 7 5 - o + +   X o * 2 c m E E Q b 8 3 : ; - % o o ; 7 C S S C y y y 8 l C G H h a 0 o   X * ; : 3 3 7 7 7 ",
"o % * 2 c E ) ) Q 7 * ; 7 B 7 ; % ; 7 B y 3 * % % % o o % ; 6 c b b c 6 ; % o o % % % * , 7 B C B B B V V B x B G -.;.@.r * @ @ % % % % & * * ; ",
"+ X X # 4 b W W S 5 ; , y B t ; % ; 7 C C y 3 ; - * o o o * > 4 6 6 2 ; % X + + o & ; 3 7 y B B B B V H I Z B B G ;.6.-.d 3 * % o o     o & * ; ",
"o o o % ; 7 B S C y 5 t B B 7 ; % ; 7 C C C 7 3 ; % o o o % * ; ; ; - % o o   o % ; 3 7 B B B B l B G U -.I V B G *.,.;.G y 2 * o o   o * , 5 7 ",
"; * * & * , 7 B C C V C C B 7 : * : 5 B C C B 7 ; % o o % % % % % % % % % % % % * 3 7 B C D Z V B B G ;.,.*.Z B V P ;.;.U V 7 ; % o o * 3 y B C ",
"3 3 3 , , 3 7 y Z I I I D B 7 3 , 3 7 B C S C 7 , % o o % % % o o o o o % % * : 3 7 8 C J %.%.G B B H ;.7.&.G B V H ;.;.-.I u , % @ * 3 y B C D ",
"y y y t 7 7 7 y Z U -.U G B 8 7 y y y B C C C 7 , % o o % % % % o % o o o % ; 3 y l l C P 6.8.&.Z B H 6.s.7.P B B H ;.6.0.*.g , % & , y B C C C ",
"B B B B B c l B G *.;.*.H V B B V V V V C C B 7 ; % o o % * * * * * % o o % : 7 B B B V *.a.g.4.P Z $.a.B.a.U B y V @.;.;.*.g w * ; e V C C B B ",
"C C C C C B c B G *.;.;.P G G G I I H H G C B 7 ; % o o % ; , 3 , ; % o o % , 7 C C C G :.s.k.a.&.$.6.B.S.b.-.B 7 e p h $.P F e , 5 d I I C B 8 ",
"C C C C C B c B G *.;.,.;.*.*.*.-.-.*.*.I D B 7 : % o o % , 5 y 7 , % o o % : 7 C D J *.6.s.j.f.5.8.b.'.}.A.2.B 2 : w r d G V y y d H *.U Z B l ",
"V V V B B l l B G $.,.6.e.w.,.;.;.;.,.;.*.G B 7 2 * o o % , 7 B y 3 * o o % ; 5 B J U ;.6.a.a.f.f.B.'.@X;X/.t.J 7 ; * ; 3 y B B V P ;.,.*.G B l ",
"H G F V B l l B F *.7.x.m.m.x.6.;.;.,.,.*.G B 8 5 , * X % ; 7 C C y , * % % ; 5 B J *.;.,.6.7.a.j.'.@X2XeX=X!.w.F e ; $ = 2 7 B I ;.7.7.:.H B z ",
"=.$.H G B l l B G &.a.C.[.[.A.r.;.;.;.;.*.G B c B y , * & : t C S C 7 , * % ; 5 B I -.;.,.,.6.a.V.}.>XgXhXtX$XJ.w.F 7 = # ; w g -.8.g.s.3.P B z ",
",.;.$.G B l l V P 4.B.].#X;X[.n.,.:.;.;.$.Z B B Z F u q 0 0 i V D D B 5 * % * 5 V U ;.,.,.,.w.c.J.;XeXhXjXgX>X}.m.;.V 2 # % 0 h ,.b.k.g.3.P V l ",
"6.;.*.G B 8 B G :.a.S.@X4XeX$XM.6.&.:.;.K V B C Y %.$...a a g G J D B 5 * @ * e G %.3.6.6.7.c.J.$XeXgXpXtX2X#X].A.w.I 5 # X 0 h 7.B.l.g.4.*.H C ",
"6.,.*.G B B Z *.6.B.[.>XkXhX1X^.a.4.>.;.I C B G i.8.a.d.>.>.:.*.U I C 7 ; & : p *.9.8.s.h.B.J.$XeXhXhXeX:XOX'.C.N.r.-.u * % 0 ..s.R.R.g.8.;.*.K ",
"e.w.;.U I I -.r.m.~.OXeXxXlXtX+XV.h.x.r.2.I I -.r.V.R.R.V.N.x.r.0.1.I V e r p *.r.n.N.V.T.[.OX2XhXlXhX2XOX[.T.V.N.n.r.@.i r h 4.V.].R.B.a.6.,.;.",
"m.c.c.t.u.F.H.!./.$X>XtXlXlXuX<X{.T.!.H.H.F.u.H.!.{.+X+X+X{.^.!.H.F.u.0.;.;.w.n.!.^.^.{.+X@X2XtXjXlXpX1X$X X^.^.^.(.!.n.w.;.r.M.{.+X{.C.b.a.7.6.",
"J.~.~./._._.%X%X=X1X2XrXuXuXrX1X=X&X%X%X_._._._.&X<X3X3X1X,X=X%X%X_._.).(.(./.-X%X=X<X<X1X2XtXyXuXuXyXwX>X=X&X&X%X%X%X_.(.(./.%X=X:XOX[.S.b.s.a.",
"|.$X:X1XrXuXrXwX1X,X=X*X*X=X,X,X,X,X,X,X1XrXrXrXrXrXrXrXrXrXrXrXrXrXrXrXrXrXrXrXrXrXrXrXrXrXrXrXwXwXwXrXwX2X1X,X,X,X=X=X*X=X,X1XwX2X>XOX[.C.B.g.",
":X>X2XuXjXjXgX2X=X-X(.!.!.(./.oX%X+X+X+X1XuXjXjXpXuXyXyXiXuXuXpXpXpXhXjXjXjXjXpXpXuXuXuXuXuXyXwX,X<X1X1X1X1X=X&XoX/././._.-X=X1X1XeXeX>XoX[.T.C.",
"2XeXtXuXuXtX2X;X XH.t.y.y.r.n.A.R.R.R.T.oX1XuXpXuXrXrXrXuXuXuXuXuXpXpXpXpXpXpXpXuXuXuXuXuXuXrX,X&XoXOX$X;XOX{.T.M.n.n.t.u.n.!. X;X2XeX2X&XOX}.'.",
"wXwXwX1X,X:XOX[.m.w.*.P $.;.6.a.a.f.p.g.A./.*X,X,X,X1XrXuXuXuXrXrXwXwXrXrXrXrXrXrXrXuXuXyXrX,X%X/.!.~. X}.'.V.a.4.6.;.*.P *.w.m.[.$X1X,X=X$X|.}.",
"1X1X=X%XoX^.S.m.e.$.F F H $.:.>.4.d.O.p.h.n.H.Q.(.oX<XtXpXpXuXrX,X,X<X,X1XwXwXwXrXyXuXpXtX<X+X!.u.t.n.A.S.C.s.4.>.:.$.F d d H <.Z.~.oXoXOXOX.X.X",
";X$XOX{.V.b.x.6.*.G V V H *.:.:.,.4.p.p.8.2.! -.8.V.+XtXjXlXpXrX,X&X&X=X1XrXrXrXrXpXlXjXtX+XR.8.%.U ;.a.B.j.d.>.:.:.*.H V d F *.e.x.N.R.{.}.|..X",
"|.}.'.C.g.5.,.*.K Z Z H *.;.;.*.*.6.a.s.3.Y B f k a.{.tXzXbXlXrX,X&X+X=X1XrXrXwXrXjXnXzXtX^.a.k f B Y 3.a.a.6.*.*.;.;.*.H Z G K *.,.5.g.C.'.}.|.",
"S.S.C.k.p.3.$.G G Y %.;.,.;.*.K K -.7.8.;.Z 8 4 i &.M.1XnXbXlXrX,X&X&X<X3XrXrXwXrXjXbXnX2XM.&.f 6 8 Z &.4.6.-.K K *.;.,.;.%.Y G H $.>.p.k.C.T.T.",
"B.k.k.k.p.&.G V G %.7.a.7.;.I Z Z P ;.6.;.G 8 4 7 F u.*XzXbXlXrX,X,X1X1XrXrXrXwXrXjXbXlX*Xu.g 7 4 8 G ;.,.;.H C Z I ;.7.a.7.%.G V G &.p.k.k.V.B.",
"f.g.j.j.a.&.Z B G 3.a.h.7.*.G B B G *.,.;.U V 8 6 B 0._.jXnXjXuXwXrXrXrXrXrXrXrXuXjXzXuX).2.y 2 6 V U ;.,.*.G B B G *.7.f.a.3.G B Z &.a.j.j.g.f.",
"f.f.g.g.a.-.C B G 3.a.s.,.H B l B F %.6.6.;.H x 9 c 1.(.tXxXjXpXuXuXuXrXrXrXuXuXpXjXgX&Xn.F 2 2 7 H ;.7.6.:.F c l B H ,.a.a.3.G B C -.a.g.g.f.f.",
"f.f.s.a.3.P B B G ;.7.6.$.Z l z B P 3.a.s.7.*.V 8 l U H.&XgXjXjXpXpXrXrXwXrXpXdXjXuX<XR.>.r * ; i *.r.h.a.3.P B z l Z $.6.7.;.G B B P 3.a.s.f.f.",
"j.g.a.6.*.G C V H *.;.*.H V l l V $.8.B.V.b.,.F y y F w.!.=XtXjXjXpXrXwXwXrXpXlXjX3X^.a.h < % ; p ,.b.V.B.8.$.V l l V H *.;.*.H V V G *.6.a.g.j.",
"k.g.a.;.H Z Z H P *.*.*.P G V V H ;.b.T.'.V.8...i 5 t H t.(.=XtXhXuXrXwXwXrXpXhXtX%XN.$.q O o 0 h 8.C.].T.b.;.H V V G P *.*.*.P H Z Z H ;.a.g.k.",
"l.g.7.$.C C H *.;.;.;.*.*.$.H H *.e.A.}.}.'.a...r ; ; 7 I t.~.:X2XtXrXrXrXrXtX2X;X~.w.g > @ % 0 ..a.'.}.}.A.e.*.H H P *.*.;.;.;.*.H C C $.7.g.l.",
"k.a.3.H B B H ;.6.6.,.;.;.;.:.*.,.c.J.|.@X].g.X.q * $ 2 V 0.A.|.>X2XrXiXiXrX2X;X[.m.;.V 2 $ * q X.g.].@X|.J.c.,.*.*.;.;.;.,.,.,.;.H B B H 3.a.k.",
"h.8.&.G B B K ;.7.7.7.6.6.,.;.,.7.m.[..X@X].j.X.i : = 4 V ;.A.|.:X2XrXiXpXrX=X[.m.e.-.G 8 2 3 a X.j.].@X.X[.B.7.,.;.,.6.6.7.7.7.;.H B c G :.8.h.",
"7.3.$.Z B B H ;.7.a.a.8.6.,.,.4.s.C. X|.|.].g.o.g 7 7 y H 6.Z.}.;X2XrXpXpXrX-XM.6.:.*.U Z y y g o.g.].|.|. XC.s.4.,.,.6.8.a.a.7.;.H B B Z $.6.7.",
",.;.$.G V Z P ,.a.g.g.a.6.;.,.a.B.'.[.}.[.C.a.&.Y V B G *.6.Z.[.;X2XuXpXhXwX/.c.;.$.*.*.I Z V G &.a.C.[.}.[.'.B.a.,.;.6.a.g.g.a.,.P Z V G $.;.,.",
";.;.$.H H P ;.7.s.j.j.a.,.;.6.b.S.'.'.T.V.g.8.;.*.I J I *.;.e.A.oXwXpXjXhX>X~.r.;.H P $.U I I *.&.8.g.V.T.'.'.S.b.6.;.,.a.j.j.s.7.;.P H H $.;.;.",
";.;.*.$.*.;.6.a.g.k.g.a.,.;.e.A.[.}.'.V.s.7.3.;.;.*.I J G F $.e.(.wXlXzXgX;XA.e.*.G F G J U *.-.;.,.7.s.V.'.}.}.A.e.;.&.a.g.k.j.a.6.;.*.$.*.;.;.",
";.;.;.=.;.6.a.g.k.k.g.4.:.;.r.J.|.XX].g.4.&.*.*.*.*.I Z B y i @.n.wXzXzXgX|.Z.<.@.d y B Z I *.*.*.*.&.4.g.].XX|.J.r.;.:.4.g.k.k.g.a.6.;.=.;.;.;.",
";.;.;.;.,.7.a.j.k.k.g.4.:.;.t.J..XXX].f.3.$.H J K P H C l 2 ; i y.*XzXmXgX|.v.#.p e 7 l C H P K J H $.3.f.].XX.XJ.t.;.:.4.g.k.k.j.a.7.,.;.;.;.;.",
";.;.;.;.;.6.a.g.k.k.g.4.:.;.t.J.|.XX].f.&.H C C V Z D D B 2 # : =._.zXmXkX|.d.a w : 4 B C Z Z C C C H >.f.].XX|.J.r.;.:.4.g.k.k.g.a.6.;.;.;.;.;.",
";.;.=.*.*.;.7.a.j.j.g.5.,.,.x.J.}.}.C.a.&.G B l l B C S B 2 @ * @.).lXmXkX|.K.a * $ 2 B C C B l l B G &.a.C.}.}.J.x.,.,.5.g.j.j.a.7.;.*.*.=.;.;.",
",.;.*.U H $.;.7.f.g.g.a.4.7.x.A.T.T.V.a.:.F B z 8 l C C B 2 $ : K (.jXmXkX|.d.p ; = 4 B C C l z z B F :.a.V.T.T.A.x.7.4.a.g.g.f.7.;.$.H P *.;.,.",
",.;.$.H Z G $.,.a.f.g.f.a.a.h.j.B.b.s.3.$.Z B l l B B C B 7 2 7 1.).uXcXgX|.x.H 7 4 8 B C B B l l B Z $.3.s.b.B.B.h.a.a.f.g.f.a.,.*.G Z H *.;.,.",
",.;.P Z B V H ;.6.a.a.f.g.g.g.g.a.8.,.*.H C B B B B B C V B B J y._.rXkX4XOXJ.0.J V B V V B B B B B C H *.,.8.a.g.g.g.g.f.a.a.7.;.H B B Z P ;.,.",
",.;.P Z B B H ;.,.6.8.a.g.j.g.a.4.,.$.H Z C B B B B B Z H P -.y.H.*XrXuXtX:X/.H.y.1.I H V V B B B B B Z H $.,.7.a.g.j.g.a.8.7.,.;.H B c C P ;.,.",
",.;.P V B B H ;.,.,.3.8.f.g.f.8.,.$.G V B B B B B B V H *.,.c.J.-X,XrXuXyX2X&XoXJ.c.,.*.H V B B B B B B V G $.,.8.f.g.f.7.3.,.;.;.H B B V P ;.,.",
";.*.H d y y H *.;.;.;.6.a.a.a.>.@.g y y y B V C C V F P ,.x.S.|.:X2XrXiXiXuXtX:X|.S.x.,.P F V C V V B y y y g @.>.a.a.a.6.;.;.;.*.H y y V H *.;.",
"*.P F i 5 e d P *.*.;.6.8.8.>.@.p w 3 3 e d H I J H P :.7.V.}.#X>X2XrXiXdXdXhX4X#X[.B.7.:.P H J J H d t 3 3 w p ..>.8.8.6.;.*.*.P d e 5 i F H *.",
"J Z i 3 ; , y Z I *.=.,.6.,.@.p : & # ; e g *.-.-.*.:.3.a.C.}.#X:X2XrXaXdXlXhX2X@X'.V.a.3.:.*.-.-.*.g e ; # & : p @.,.6.,.=.$.I Z y , ; 3 i Z J ",
"C B 7 ; % * 3 B J U *.;.;.@.g w * @ @ * e h *.-.-.*.:.5.g.l.'.}.$X1XuXdXzXlXtX:X}.C.k.g.5.&.*.-.;.*.h e * @ @ * w g @.;.;.*.I D B 3 * % ; 7 B C ",
"S c 5 * o % 2 B D I P H h u e , : ; ; , e F P U I P :.8.g.k.C.S. X1XpXzXnXjX2XoXT.C.k.j.a.:.P I U P F e , ; ; : , e p h H P I D c 2 % o * 5 c S ",
"S B 5 ; o & 3 B C D V u w : : 3 5 7 7 7 y V G Z C G $.8.g.z.z.B. X2XlXbXzXyX&X~.B.j.j.g.8.$.G Z Z G V y 7 7 7 5 3 : : w u V D C B 3 * % ; 5 B S ",
"B y 5 : * ; 3 y B B y 3 * % * 3 y B B B B V V V V Z $.6.a.p.p.g.^.3XzXbXpX,X{.V.g.p.p.a.3.P Z V V V V B B B B y 3 * % * 3 y B B y 3 ; ; : 5 y B ",
"3 3 3 2 2 3 3 3 5 5 3 ; @ X % , 7 B C C C Z Z G H P ;.6.8.4.O.f.{.tXzXzXrXoXR.j.f.d.3.&.%.$.P P H G C C C C B 7 , % X @ ; 3 5 5 5 3 2 2 2 3 3 3 ",
"* ; 2 8 c 8 3 ; - ; ; * % % % * , 5 8 C D I U :.6.7.6.6.3.,.+.f.{.tXzXpX&XR.g.g.f.6.P H Y &.7.7.;.U J S C 8 5 , * % @ % * ; ; ; ; 2 8 c 8 2 ; * ",
"o ; 4 c m b 7 * o o % * * * & & % * 2 y Z P ,.a.g.g.a.,.*.$.o.a.{.yXlXrX^.a.d.p.a.;.G B G 3.g.j.s.,.U V y 2 * % % * * * * % o o - 7 b m c 4 ; o ",
"# ; 8 R E Q c : o   o & : , ; O +   # , u $.4.j.l.k.d.:.F g ..7.^.3XhX1XA.4.o.d.d.*.B 8 d 3.k.L.k.d.$.u , #     & : , : & o   X : c E E R 8 ; # ",
"2 6 b E ) ( S 6 * X + & , 5 3 & + .   & r X.p.l.L.z.4.H d u j >.T.1XyX=XM.>.X.>.>.$.y 8 g >.z.L.l.p.X.r *   . + * 3 5 , & + X * 6 S ( ) E b 6 2 ",
"b m E ) { ) E c 2 % % ; 5 y 7 , %   X * i >.g.R.l.s.&.H B y g ;.H.=XrX,XH.w.:.,.;.P V B F &.a.l.R.g.>.a * X   % , 7 8 5 ; % % > c E ) { ) E m b ",
"_ ) { | | { E v 6 2 : 3 8 l 8 5 : = 1 7 H 9.N.R.M.r.q.L S S D 0.Q.,XiXfX_.H.t.y.0.! D S I q.r.M.R.N.9.H 7 1 = : 5 8 l 8 3 : > 4 v E { | | [ ) _ ",
"[ | 8X7X8X[ E v 9 6 6 z l c l 8 6 z z T ~ u.Q.Q.Q.F.~ W E Q ! G.`.0XsXsXvX).H.F.G.~ W E W ~ F.Q.Q.Q.u.~ T z z 6 8 l c l z 6 6 6 v E [ 8X7X8X| [ ",
"8X7X7X9X7X[ Q l 9 z l v v l l l l v M ( ] E.W.W.E.D.` ( ( ^ ~ D.`.0XsXsXsXvX).E.D.` ( ( ( ` D.E.W.W.E.] ( M v l l l l v v l z 9 l Q [ 7X9X7X7X8X",
"7X9X9X9X7X[ Q l z l v v v l l l v M / ) D.E.W.W.E.D.` ) _ ( ` D.`.0XsXMXsXfXqX`.D.] _ _ ) ` D.E.W.W.E.D.) / M v l l l v v v l z l Q [ 7X9X9X9X7X"
};
