/* XPM */
static const char *wall_10[] = {
/* columns rows colors chars-per-pixel */
"72 72 194 2 ",
"   c #4D0916",
".  c #4E0E19",
"X  c #4D111C",
"o  c #51131D",
"O  c #4F1923",
"+  c #511720",
"@  c #521A22",
"#  c #581F25",
"$  c #542127",
"%  c #54232A",
"&  c #58252B",
"*  c #55292E",
"=  c #5A292E",
"-  c #552B31",
";  c #592D32",
":  c #4E353F",
">  c #4F3037",
",  c #543136",
"<  c #5B3236",
"1  c #53353B",
"2  c #5E3639",
"3  c #55383E",
"4  c #5C3A3D",
"5  c #492D36",
"6  c #622B2D",
"7  c #602629",
"8  c #633B3B",
"9  c #683937",
"0  c #713A36",
"q  c #69413D",
"w  c #73443E",
"e  c #734A3F",
"r  c #79483E",
"t  c #5C3E41",
"y  c #563A40",
"u  c #5E4143",
"i  c #5A4A4A",
"p  c #5B5251",
"a  c #634343",
"s  c #6B4543",
"d  c #674847",
"f  c #6E4844",
"g  c #6F4D49",
"h  c #654B4A",
"j  c #724641",
"k  c #734C45",
"l  c #794D45",
"z  c #714D49",
"x  c #7B4F48",
"c  c #7C5246",
"v  c #7C5249",
"b  c #70514C",
"n  c #625856",
"m  c #7F5E53",
"M  c #676763",
"N  c #6C6F6A",
"B  c #69706B",
"V  c #737E77",
"C  c #804A3F",
"Z  c #8A533D",
"A  c #935A3C",
"S  c #A5693F",
"D  c #824F42",
"F  c #845345",
"G  c #8A5644",
"H  c #8D5A45",
"J  c #835549",
"K  c #89574A",
"L  c #85594C",
"P  c #8C5A4A",
"I  c #935B42",
"U  c #915E4B",
"Y  c #865F52",
"T  c #8D5E51",
"R  c #8E6049",
"E  c #936346",
"W  c #9C6544",
"Q  c #95614B",
"!  c #9B644B",
"~  c #9E684B",
"^  c #88665B",
"/  c #8A685D",
"(  c #886155",
")  c #936452",
"_  c #9B6551",
"`  c #9C6B54",
"'  c #9C6E5A",
"]  c #936C5E",
"[  c #9F745D",
"{  c #A16743",
"}  c #A46A43",
"|  c #AA6E44",
" . c #A46C4B",
".. c #A86D4A",
"X. c #AC7146",
"o. c #AD734B",
"O. c #A7704C",
"+. c #B1764B",
"@. c #B4794C",
"#. c #BB7C4C",
"$. c #B67647",
"%. c #A46C55",
"&. c #A86E58",
"*. c #A96F55",
"=. c #B26F56",
"-. c #A2745E",
";. c #A9755D",
":. c #A97555",
">. c #B37650",
",. c #B37C53",
"<. c #BA7C52",
"1. c #B3765B",
"2. c #B07D5D",
"3. c #BC7D59",
"4. c #926F60",
"5. c #9C7462",
"6. c #A47662",
"7. c #AA7C63",
"8. c #B77D64",
"9. c #C07E5B",
"0. c #77877F",
"q. c #B68057",
"w. c #BB8156",
"e. c #B68159",
"r. c #BA845B",
"t. c #BD885F",
"y. c #AD8165",
"u. c #AE866B",
"i. c #BC8462",
"p. c #BE8A61",
"a. c #B5896B",
"s. c #BB8C6A",
"d. c #B78B73",
"f. c #BE9374",
"g. c #BE987B",
"h. c #C3865C",
"j. c #C28264",
"k. c #C98663",
"l. c #C28E65",
"z. c #CE8C6B",
"x. c #C98B67",
"c. c #C39066",
"v. c #C6946B",
"b. c #C8976E",
"n. c #C7986F",
"m. c #C9986F",
"M. c #C29473",
"N. c #CB9C73",
"B. c #C39B7E",
"V. c #C99F7E",
"C. c #C99675",
"Z. c #D19D76",
"A. c #DA9E7B",
"S. c #D99C76",
"D. c #CEA077",
"F. c #CEA279",
"G. c #D2A074",
"H. c #D1A57C",
"J. c #DCA57E",
"K. c #D3A87F",
"L. c #D8A97E",
"P. c #7B8C84",
"I. c #80958C",
"U. c #869D93",
"Y. c #C29D82",
"T. c #CBA383",
"R. c #C6A384",
"E. c #D0A780",
"W. c #D6AD84",
"Q. c #D9AE85",
"!. c #D7AF8E",
"~. c #D7B087",
"^. c #D9B087",
"/. c #DBB38A",
"(. c #DFB88F",
"). c #D7B18A",
"_. c #DFB990",
"`. c #DFB793",
"'. c #E2AD86",
"]. c #E3AE89",
"[. c #E2B385",
"{. c #E1B58D",
"}. c #E2B88F",
"|. c #E8B38C",
" X c #E7BD94",
".X c #E5BC93",
"XX c #E9BE94",
"oX c #E7C096",
"OX c #EAC097",
"+X c #EBC39A",
"@X c #EEC89B",
"#X c #F2C799",
"$X c #F3CB9E",
"%X c #F2CDA4",
/* pixels */
"l.c.m.F.W.^.~.W.W.W.W.W.W.W.W.W.W.W.W.W.W.W.W.W.W.W.W.W.W.W.E.W.(.oXoX|.S.k.1.! P K K P U U Q ! ! Q K k a a h h 8 = + X . . . o + % 1 p B P.I.U.",
"c.v.N.H.W.^.~.W.W.W.W.W.W.W.W.W.W.W.W.W.W.W.W.W.W.W.W.W.W.W.E.W.(..X X|.J.z.1._ P J K P P P P P U P c f a a a a 2 & + o + + + o + $ , i M V P.I.",
"m.N.D.H.W.~.W.W.W.W.W.W.W.W.W.W.W.W.W.W.W.W.W.W.W.W.W.W.W.W.W.W.^.(..X|.'.S.i.%.P G G P P J c c c x k s a 4 4 < = # + @ % & & # + + * 4 n N V 0.",
"F.H.H.W.W.W.W.W.W.W.W.W.W.W.W.W.W.W.W.W.W.W.W.W.W.W.W.W.W.W.W.W.W.~./.{.|.Q.M.;.U G H P K k s a a s d a t 2 ; % + o + & < 4 < & + o + - u n M B ",
"W.W.W.W.W.W.W.W.W.W.W.W.W.W.W.W.W.W.W.W.W.W.W.W.W.W.W.W.W.W.W.W.E.E.W.}.+X XF.6.P F G P J k a t t a d d a 2 & + X . + = 8 a 8 = + . . + - 4 i p ",
"^.^.~.W.W.W.W.~.~.~.~.W.W.W.W.W.W.W.W.Q.W.W.W.W.W.W.W.W.W.W.W.W.E.F.E..X$X@XT.5.c w l P L c k k k l c c k q < % + X o % < 8 < % X     o @ * , 1 ",
"~.W.W.W.W.W.~.^.^.^.^.~.W.W.W.W.W.W.~.~.~.W.W.W.W.W.W.W.W.W.W.W.E.F.W..X$X@XR.4.f 8 j K U Q E E E E Q P K x s 4 * + o + # & % O X . X o + @ $ % ",
"W.W.W.W.W.W.W.W.W.W.W.W.W.W.W.W.W.W.W.W.W.W.W.W.W.W.W.W.W.W.W.W.E.K.W..X#X Xg.^ a 4 j P ~ ..o.+.+.o...! P c g a < % + o o + + + + + + + + + + + ",
"W.W.W.W.W.W.H.H.F.F.H.H.W.W.W.W.W.W.H.H.H.W.W.W.W.W.W.W.W.W.W.W.W.W.~.}.XX].d.Y a 8 l ! o.@.#.#.#.+. .Q K k a 4 < * % @ O @ & 6 6 7 # + X X o o ",
"W.W.W.W.W.H.N.N.v.v.N.D.H.W.^.^.W.H.N.N.N.H.W.W.W.W.W.W.W.W.W.W.W.~.^.{.'.A.8.T k e H ..#.#.#.#.o. .Q J k 9 ; & & ; < < - ; 9 w r 0 7 o . . o o ",
"W.W.W.~.W.H.N.v.l.l.v.N.H.W.^.^.W.F.m.v.N.H.W.^.Q.W.W.W.W.W.W.W.W.~.W.L.S.z.1._ P H ~ o.@.+.o...! P v g a < @ + % < a a u a k L P C 6 + X X + @ ",
"W.W.W.W.W.H.N.N.v.v.N.N.H.W.^.^.W.F.v.l.v.H.Q./.^.Q.W.W.~.~.~.~.W.E.F.N.x.h.3.1.&.%..... .W E G F x z h t , $ @ = 8 g b g z L ) ) G 0 & @ $ & = ",
"W.W.W.W.W.W.H.H.F.F.H.H.W.W.^.^.W.F.v.l.v.H.~././.^.Q.~.^.^.^.^.W.F.v.l.w.<.3.j.j.8.*.Q G c l k f f s d a 4 , ; 8 j c J v J P ) Q K w 2 < < 2 8 ",
"W.W.W.W.W.W.W.W.W.W.W.W.W.W.~.^.W.H.N.v.m.H.W.^.Q.W.W.W.W.W.W.W.W.D.v.r.o.o.<.k.z.j.&.P l s a a a a a a a a t a f c P U P P P U P c f a t a a a ",
"W.W.W.W.W.W.~.^.^.^.^.~.W.W.W.W.W.H.D.N.N.D.H.H.H.H.F.F.F.F.F.F.H.K.N.i. .W ..3.x.j.%.P l f a a t t t t a a d g v P ! ! Q U P K c k f d a a a a ",
"W.W.W.W.W.W.W.~.~.~.~.W.W.W.W.W.W.W.E.H.D.N.N.m.m.N.N.m.v.v.c.v.H.[.Q.M.` G I o.w.3.%.P J c x k a t 3 4 a d z v P ~ .. .! P J x k f s d d a a u ",
"W.W.W.W.W.W.W.W.W.W.W.W.W.W.W.W.W.W.~.W.H.N.v.v.v.v.v.v.v.l.l.v.L. X.XT.6.P G W o.O.! P P P P J k a t t a f x P ~ ..o...~ P x f a u u a a a a a ",
"W.W.W.W.W.W.W.W.W.W.W.W.W.W.W.W.Q.^./.^.W.F.N.v.v.N.N.N.Z.N.N.Z./.OX+X!.d.[ ! { } W G J K U U P c k s a f x K ! ..+.+.o. .P x a y 3 3 t a s f k ",
"W.W.W.W.W.W.W.W.W.W.W.W.W.W.W.W.^.^./.^.W.K.F.D.D.F.K.Q././.Q./.}.OX+X.XT.f.e.o.} A c k v L U U P J x k c K Q ..+.@.+.o. .U x a y : : t s k F K ",
"W.W.W.W.W.W.W.W.W.W.W.W.W.W.W.W.W.W.W.W.W.W.W.W.W.W.^.}. XXXXX X X X X.X(.W.N.h.o.H e a s x P U U P K K P Q  .o.+.+.o...! P c f a t t a k J P U ",
"W.W.W.W.W.W.W.W.W.W.W.W.~.W.W.H.H.F.F.H.W.Q.^./.^.^.(..X XoXoX X.X.X.X.XoX.X[.G.r.Q s 3 3 f F U U U U Q !  .o.+.@.+...! P J c c c c c c F P P U ",
"W.W.W.W.W.W.W.W.W.W.W.~.^.W.K.N.m.v.b.N.H.W.^././.^.^./.(.(.(.(./.^.(..X XoX X[.N.[ g 1 < 9 F P U U Q ! ..o.+.@.+.o.~ P v k c R ~  .~ ! U P P K ",
"W.W.W.W.W.W.W.W.W.W.W.W.~.W.H.N.v.l.l.v.N.H.W.~.W.W.W.W.W.W.W.W.W.W.W.^.{. X+XOXW.u.m a 8 l P U P P Q  .o.+.+.o...~ P k a a k E o.#.#.o.~ Q P K ",
"W.W.W.W.Q.~.~.Q.W.W.W.W.W.K.H.F.N.v.c.l.v.N.F.H.H.F.H.H.E.W.W.K.F.N.D.H.Q..X+X+X(.g.5.Y Y ' -.' P F H  .@.@.o. .U F j 4 1 1 q G } $.#.+...~ Q U ",
"W.W.W.Q.~.^.^.~.~.W.W.H.F.N.H.H.K.F.v.l.l.v.m.m.b.m.N.H.W.W.W.E.D.v.v.N.H./..X.X/.F.a.y.a.M.M.u.) F Z  .@.@.O.Q c f 4 > 5 1 8 r I { X.+.o.O... .",
"W.W.W.W.W.W.W.W.W.~.W.H.m.v.N.H.W.W.N.v.v.v.v.v.v.v.N.H.W.^.^.W.F.m.v.m.H.W.^.^.W.F.v.v.D.Q.W.f.[ P H ~ o.o.~ P x f a t t a f c P ! ..o.o.o.o.o.",
"W.W.W.H.H.D.D.H.W.^.W.F.v.t.l.N.H.K.F.N.N.N.N.b.v.N.N.K.~./.(./.W.H.Z.N.F.H.E.E.H.N.c.l.m.L.Q.F.a.-._ ~ ~ W I H P ( ^ / / / ] 5.6.;.1.>.+.X.X.| ",
"~.W.K.F.N.v.v.N.H.~.~.F.p.,.,.p.N.F.H.H.H.H.H.F.F.H.H.W.^.(.(.{.{.{.Q.W.H.N.N.N.N.l.w.<.w.c.D.H.F.M.y.` H Z A W :.a.g.Y.Y.B.B.R.V.C.x.9.@.| | S ",
"^.W.H.N.v.l.l.v.F.W.W.N.e.o.o.e.v.F.W.W.W.W.W.W.W.W.W.W.W.^.{. X+X+X X/.N.v.v.v.v.p.,.o.+.e.v.K./.W.f.-.P Z A o.l.L.XX+X+X X XoXXX|.A.z.9.>.o.X.",
"^.W.K.D.N.v.v.N.H.W.H.c.o.} o.t.N.W.Q.~.~.^.^.^.^.~.E.F.H.W.{.+X%X%X+XQ.v.r.r.l.v.p.e.,.,.i.v.K.}./.V.7._ Q O.t.G.|.#X$X$X#X+X+X+XXX].A.m.l.p.t.",
"W.W.W.H.H.F.F.H.H.H.N.r.| S @.b./..X(.W.W.W.W.^.^.W.H.N.m.H.{.+X%X%X XH.p.@.@.r.v.v.v.v.n.N.F.Q././.F.s.2.2.p.N.L.{.}. X X}.}.}.}.}.|.|.Q.W.W.K.",
"W.W.W.W.W.W.W.W.W.H.v.e.o.o.t.K. X+X}.W.K.E.W.~.^.W.F.v.v.N.Q. X+X.XW.v.q.o.o.e.v.F.W.W.W.W.W.W.~.W.H.N.v.N.H.W.^.~.W.W.W.W.W.W.W.^.}. XXXXX X.X",
"W.W.W.W.^././.^.W.N.v.p.r.l.N.Q. X X(.W.K.E.W.~.^.W.H.N.N.G.W.Q.W.F.c.r.,.,.,.p.m.K./..X.X(.~.W.W.W.H.H.H.K.~.^.^.W.E.F.F.E.F.F.E.W.(..XoX+XoX+X",
"W.W.W.W.~.^.^.W.H.N.b.m.N.K.Q./.(./.~.W.W.W.W.W.~.^.W.W.H.H.H.N.v.e.,.,.e.t.l.v.N.K.{. X.X(.W.E.W.W.W.W.Q.Q.~.^.~.W.E.E.E.E.E.E.W.W.^.(.(.}.}.}.",
"W.W.W.W.W.~.^.W.F.v.v.Z./. X X(.W.E.W.W.W.W.W.W.W.W.W.W.W.K.D.v.r.+.o.,.p.v.v.v.v.H./. X X(.W.E.W.W.W.W.W.W.W.W.W.W.W.W.W.W.W.W.W.W.W.W.W.W.W.W.",
"W.W.W.W.W.~.^.W.N.p.t.N.{.+X+X(.E.H.E.W.Q.W.W.W.H.H.H.H.H.H.F.N.l.r.e.t.v.b.c.r.r.v.Q.XXoX}.W.E.W.W.W.E.H.H.E.W.W.W.W.W.W.W.W.W.W.W.W.E.E.E.E.E.",
"W.W.W.W.W.^./.W.v.q.,.l.W.+X+X}.W.H.E.W.Q.~.W.H.N.N.v.m.N.D.H.H.F.N.N.N.N.v.r.o.o.p.L.XX+X.X~.W.W.W.H.F.N.D.H.W.W.W.W.W.W.W.W.W.W.W.W.W.W.W.W.W.",
"W.W.W.W.W.^.(.W.v.,.o.r.H.XX+X}.W.K.W.W.Q.~.W.H.N.v.l.l.v.N.H.W.^.^.W.K.F.v.e.o.o.t.K. X+X}.W.W.W.W.H.N.v.N.H.W.^.~.W.W.W.W.W.W.W.W.W.W.W.W.W.W.",
"W.W.W.W.~.(._.~.n.q.+.t.K.XX+X{.W.K.E.W.Q.Q.W.H.D.N.v.v.m.N.H.W.W.W.W.H.F.N.l.e.r.v.W.}.}.Q.H.H.W.W.H.v.l.v.F.W.^.~.W.W.W.W.W.W.W.W.W.W.W.W.W.W.",
"W.W.W.W.^.(._.^.N.p.r.v.Q.oX+X(.W.K.E.W.W.W.W.W.H.H.F.F.F.F.F.N.N.N.N.N.F.F.F.H.H.W.~.^.W.F.N.F.W.W.H.v.l.v.F.W.^.~.W.W.W.W.W.W.W.W.W.W.W.W.W.W.",
"W.W.W.W.W.~.^.W.F.v.v.N./. X X(.W.E.W.W.W.W.W.W.W.W.W.~.W.H.N.v.c.c.v.N.F.W.(..X X.X(.W.F.v.v.N.H.W.H.N.v.m.H.W.^.~.W.W.W.W.W.W.W.W.W.W.W.W.W.W.",
"^.~.W.H.F.D.F.F.F.N.F.H.Q./././.^.~.W.W.W.W.Q.~.W.~./.(.^.K.N.l.l.v.N.H.Q.(.oX+X$X+X.XW.N.c.l.b.H.W.W.F.N.N.H.W.Q.W.W.W.W.W.W.W.W.W.W.W.W.W.W.W.",
"(.^.W.D.v.c.c.v.N.H.K.H.H.H.K./.}.{.^.W.W.W.^.~.W.W.^.(.^.H.m.c.v.G.Q.{.}..X+X+X+X+X(.W.N.v.l.b.H.W.W.W.H.H.E.W.W.W.W.W.W.W.W.W.W.W.W.W.W.W.W.W.",
"^.W.H.N.v.l.l.v.N.W.W.H.N.v.N./. X X(.W.E.W.W.W.W.W.Q.^.W.F.v.v.N.Q. X+XoX X XXX X.X(.W.F.m.v.N.H.W.^.~.W.W.W.W.W.W.W.W.W.W.W.W.W.W.W.W.W.W.W.W.",
"F.F.F.D.N.N.N.Z.K.~.W.F.c.l.N./.oX+X.XW.H.F.H.H.W.W.W.W.F.N.v.N.K.}.+X+XoX.X{.{.{.(.^.W.H.N.N.D.H.W.^.^.^.^.~.W.Q.~.~.W.W.W.W.W.W.W.W.W.W.W.W.W.",
"c.v.N.K./.{.{./././.W.D.c.l.N./.oX+X.X~.F.N.N.N.K.W.W.D.m.v.N.F.~..X+X+X.X/.~.~.^.~.Q.W.W.H.H.H.W.W.~.^.^.^.^.^.^.^.^.~.W.W.W.W.W.W.W.W.W.W.W.W.",
"l.v.N.Q.XX+X+X X.X(.W.D.v.v.Z./. XoX.XW.D.v.v.N.K.W.H.N.v.v.D.W.(..X X.X/.W.W.W.W.W.W.W.W.W.W.W.W.W.W.W.W.W.W.W.W.W.W.W.W.W.W.W.W.W.W.W.W.W.W.W.",
"N.Z.K./. X+X+X X.X/.W.F.N.N.H./.}.{.~.H.N.m.m.D.W.W.H.N.m.N.W.(..X.X{./.W.W.E.E.W.W.W.W.W.W.~.~.W.W.W.H.H.H.H.H.H.F.F.H.E.W.W.W.W.W.W.W.W.W.W.W.",
"/./././.(.(.(.(./.^.W.K.H.H.W.~.^.W.H.N.N.N.F.K.W.W.E.F.H.W.(..X.X{.^.W.W.W.W.W.W.W.W.W.W.W.W.~.~.W.K.F.N.N.N.N.b.v.v.N.F.W.W.W.W.W.W.W.W.W.W.W.",
"oXXX.X/.W.W.W.W.W.W.W.W.W.W.W.~.W.H.N.v.N.H.W.^.~.W.W.E.W./..X X.X/.W.E.W.W.W.W.W.W.W.W.W.W.W.W.~.W.H.N.v.v.v.v.v.v.v.N.H.W.~.W.W.W.W.W.W.W.W.W.",
"+X X}.^.E.H.K.E.W.W.W.W.W.~.^.^.W.N.v.l.b.H.^.(.^.W.W.W.~.(..X.X{.~.W.E.W.W.W.W.W.W.Q.~.W.W.W.W.~.W.H.N.v.l.v.v.m.N.N.H.Q././.~.W.W.W.W.W.W.W.W.",
"{.(./.Q.W.E.E.W.W.W.W.W.W.W.~.^.W.N.v.l.b.H.^.(.^.W.W.W.W.~././.^.W.W.W.W.W.W.W.W.W.~.^.~.W.W.W.Q.W.H.N.v.v.N.F.H.W.Q.{..X.X{.~.W.W.W.^.~.W.W.W.",
"W.W.W.W.W.W.W.W.W.W.W.W.W.W.Q.^.W.H.m.v.N.H.W.^.Q.W.W.W.W.W.W.W.W.W.W.W.W.W.W.W.W.W.W.W.W.W.W.W.^.W.H.N.v.m.F.W.(..X XoXoX X}.^.W.W.W.W.W.W.W.W.",
"E.E.W.W.W.W.W.W.W.W.W.W.W.W.^.^.~.W.H.N.N.N.F.H.W.~.^.^.^.W.W.E.W.W.~.~.~.~.^.^.~.W.H.H.H.K.W.^./.W.H.m.v.N.H.(.oX+X+X+XXX.X{./.W.E.H.H.H.W.W.W.",
"W.W.W.W.W.W.W.W.W.W.~.^.^.^.^.^.^.^.W.W.F.N.N.N.H.~.(.(./.~.W.E.W.W.~.^.^.^.^./.^.K.N.N.N.H.W./.(.~.F.v.v.N.W..X+X+X+X X{./.^.^.~.H.N.N.N.H.W.^.",
"W.W.W.W.W.W.W.W.W.W.W.W.W.W.W.W.W.~.^.W.H.m.v.N.H.W.^.W.W.W.W.W.W.W.W.W.W.W.Q.^.W.H.N.v.N.H.W./.^.W.F.v.v.N.Q. X+X+X X{.^.W.W.W.W.H.N.v.N.H.W.^.",
"W.W.W.W.W.W.Q.W.W.E.H.H.H.H.H.H.H.H.H.H.D.N.N.N.F.H.D.N.N.D.W.^.^.W.H.F.F.F.F.F.F.N.b.b.N.H.W.W.W.H.N.N.N.K./..XXX.X{./.W.E.E.K.H.D.N.N.N.H.W.^.",
"W.W.W.W.W.W.^.~.W.F.N.b.b.m.m.N.m.b.v.m.N.D.H.H.F.N.p.q.e.c.H.(.(.W.N.v.v.v.v.v.v.m.N.F.K.W.W.H.N.N.N.F.W.^.(.{.(./.^.Q.W.W.H.N.N.N.N.H.K.W.W.W.",
"W.W.W.W.W.W.~.W.H.N.v.v.v.v.v.v.v.v.c.v.N.H.W.W.H.v.e.o.o.e.N.W.W.F.v.c.v.v.v.v.v.N.H.W.^.^.W.F.m.v.N.H.W.^.Q.W.W.W.W.~.^.W.H.N.v.m.H.W.~.W.W.W.",
"W.W.W.W.W.W.W.H.N.N.v.b.m.N.N.N.m.m.N.N.H.W.^.W.H.N.t.,.+.,.l.N.N.v.l.v.N.Z.Z.N.N.K.~.(._./.W.H.N.m.N.F.H.F.F.N.F.K.W.^./.~.H.b.v.b.H.~.^.^.W.W.",
"W.W.~.^.~.W.F.N.b.v.m.N.H.H.H.H.H.K.W././.^.Q.W.W.H.N.l.t.e.,.q.e.r.l.N.K./.{././.{..X.X.X^.W.K.H.H.D.N.m.v.c.v.N.H.~.(.(.~.H.v.v.v.H.W.^.~.W.W.",
"W.W.W.~.W.H.N.v.l.l.v.N.H.W.W.W.W./..X X.X/.W.W.W.W.W.D.v.r.@.o.o.e.v.K./. XoXXX XXXXX X}.^.W.W.W.W.H.N.v.l.l.v.N.H.W.^.^.W.F.m.v.N.H.W.~.W.W.W.",
"W.W.W.E.H.N.N.v.p.r.r.p.N.H.W.W.^.(. X X.X^.W.W.W.~.W.H.m.t.,.+.,.l.H.Q.}. XoXoX X.X.X.X(.^.W.~.^.^.W.H.N.N.N.G.H.F.F.H.H.H.D.N.m.N.H.W.~.W.W.W.",
"~.W.K.D.N.b.m.v.t.,.o.,.p.N.H.W.~./.(.(./.Q.W.W.~.W.W.D.v.p.e.t.v.H./.{.{.(.(.(.(.(././.^.^.^.~.~.W.Q.Q./.{.{./.K.N.v.v.N.N.N.N.N.D.W.Q.^.W.W.W.",
"^.W.H.N.v.v.b.v.p.,.o.+.r.v.D.W.W.Q.W.W.W.W.W.W.~.W.H.N.v.l.l.v.H./. X X(.W.E.W.W.W.W.W.W.W.W.W.W.W.^.{. X+X+X X/.D.v.l.v.v.v.v.v.N.H.W.~.W.W.W.",
"~.W.K.D.m.v.v.v.l.t.t.l.v.N.H.W.W.W.E.K.E.W.W.Q.Q.W.H.F.N.v.v.N.W..X+XoX(.E.F.H.E.W.W.E.K.H.H.H.H.W.^.}. X+X+X X{.W.N.b.v.l.p.r.r.l.N.H.W.Q.Q.W.",
"W.W.W.W.H.N.v.v.v.N.K.Q././.Q.W.E.K.K.E.E.W.W.W.W.W.W.W.H.N.v.m.K.|.+X+X(.W.H.K.W.W.W.W.H.N.m.N.H.W.^.(.(.(.(.(.{.{./.L.N.l.,.+.o.,.p.N.K.W.^.^.",
"W.W.Q.^.W.F.v.v.N.Q. X+X+X X{.^.W.W.W.W.W.W.W.W.W.W.~.^.W.F.v.v.N./. X X(.W.E.W.W.~.^.W.H.N.v.N.H.W.^.~.W.W.E.W.(..X X{.K.v.e.+.o.@.r.v.F.W.W.~.",
"W.W.~.^.~.K.N.N.H./.oX@X+X.X}.(././././.^.Q.W.W.W.W.~.^.~.H.v.v.N.W.{..X/.W.W.W.W.~.~.W.H.N.N.N.H.W.W.W.E.H.H.E.^..X X}.Q.N.c.t.r.r.p.v.N.F.H.H.",
"W.W.W.~.W.W.H.H.W.^.(.}.(.(.(.{..X.X.X.X(.~.W.W.W.W.~.^.W.H.N.v.N.H.^./.^.W.W.W.W.W.W.W.W.H.H.H.W.W.W.W.W.E.E.W.Q./.(./.W.H.F.N.N.v.v.v.v.m.N.N.",
"W.W.W.W.W.W.W.W.W.W.W.W.W.W.^.}. XoXoX X}./.W.W.W.W.~.^.W.H.N.v.N.H.W.^.W.W.W.W.W.W.W.W.W.W.W.W.W.W.W.W.W.W.W.W.W.W.W.W.W.W.W.~.W.H.N.v.v.v.v.v.",
"W.W.W.W.W.W.^.^.W.W.H.F.F.E.~.}.oX+X+XXX.X/.W.W.W.W.Q.~.W.F.N.v.m.F.E.W.W.W.W.W.W.W.W.W.W.^.^.^.W.W.W.W.W.W.Q.W.W.E.E.E.W.^.(..X(.Q.F.v.l.l.c.c."
};
