/* XPM */
static const char *wall_36[] = {
/* columns rows colors chars-per-pixel */
"72 72 235 2 ",
"   c #3C1222",
".  c #4D0B16",
"X  c #4D0E19",
"o  c #490815",
"O  c #500D18",
"+  c #4E111C",
"@  c #47111D",
"#  c #51131D",
"$  c #4A010D",
"%  c #4C1521",
"&  c #4D1A25",
"*  c #401D2A",
"=  c #521720",
"-  c #531A22",
";  c #581C24",
":  c #4A232C",
">  c #552027",
",  c #55242B",
"<  c #59252B",
"1  c #55292E",
"2  c #5A292E",
"3  c #5B2226",
"4  c #4B2B34",
"5  c #4D2730",
"6  c #552C32",
"7  c #5A2E33",
"8  c #4D313B",
"9  c #543236",
"0  c #5C3236",
"q  c #553539",
"w  c #5D3539",
"e  c #563A3D",
"r  c #5D3A3D",
"t  c #642C2D",
"y  c #652726",
"u  c #6B342E",
"i  c #633335",
"p  c #6A3534",
"a  c #613739",
"s  c #623B3C",
"d  c #6B3E3C",
"f  c #6D3A33",
"g  c #743D36",
"h  c #662F31",
"j  c #65403E",
"k  c #6B423E",
"l  c #75453E",
"z  c #7B453D",
"x  c #7B4B3E",
"c  c #563A41",
"v  c #5C3E41",
"b  c #523741",
"n  c #613E41",
"m  c #5D4244",
"M  c #5B4A4A",
"N  c #574645",
"B  c #5C5452",
"V  c #5F4F50",
"C  c #634343",
"Z  c #6B4643",
"A  c #654847",
"S  c #6D4944",
"D  c #654B4A",
"F  c #6D4D4A",
"G  c #62464A",
"H  c #734C44",
"J  c #794E45",
"K  c #734D49",
"L  c #7A4F48",
"P  c #754741",
"I  c #6A524E",
"U  c #7C5246",
"Y  c #75514A",
"T  c #7C5249",
"R  c #78564B",
"E  c #654E51",
"W  c #645355",
"Q  c #635B5B",
"!  c #685759",
"~  c #65605F",
"^  c #656361",
"/  c #6C6465",
"(  c #6C6B6A",
")  c #6E6769",
"_  c #716D6D",
"`  c #706666",
"'  c #6E7270",
"]  c gray45",
"[  c #757A77",
"{  c #767B7A",
"}  c #787B7B",
"|  c #777778",
" . c #726F70",
".. c #6C5F62",
"X. c #8C533B",
"o. c #945B3C",
"O. c #854B3A",
"+. c #99603D",
"@. c #A3673D",
"#. c #835445",
"$. c #8B5643",
"%. c #865945",
"&. c #8C5A45",
"*. c #835549",
"=. c #89574A",
"-. c #855A4B",
";. c #8C5A4A",
":. c #925D44",
">. c #925E4B",
",. c #9A5D45",
"<. c #895F51",
"1. c #824F43",
"2. c #A05C4C",
"3. c #946245",
"4. c #9B6444",
"5. c #9E6947",
"6. c #95614B",
"7. c #9B654B",
"8. c #9D694A",
"9. c #8A665A",
"0. c #936352",
"q. c #9C6651",
"w. c #9E6856",
"e. c #996959",
"r. c #956851",
"t. c #A36B45",
"y. c #AB6E43",
"u. c #A46C4A",
"i. c #A96E4C",
"p. c #A3664A",
"a. c #AC7246",
"s. c #AD734A",
"d. c #A6714D",
"f. c #B2764B",
"g. c #B5794B",
"h. c #BA7B4B",
"j. c #B37445",
"k. c #A36A53",
"l. c #AB6E53",
"z. c #A66B56",
"x. c #A4735C",
"c. c #AC745B",
"v. c #AA795E",
"b. c #A97353",
"n. c #B37554",
"m. c #B57A53",
"M. c #BB7C53",
"N. c #B5765B",
"B. c #B37A5C",
"V. c #BC7B5D",
"C. c #BA7753",
"Z. c #AD7B62",
"A. c #A47762",
"S. c #BA7D62",
"D. c #B87E66",
"F. c #C37E5C",
"G. c #78827E",
"H. c #76817C",
"J. c #BE814F",
"K. c #BE8055",
"L. c #B5815A",
"P. c #BC855B",
"I. c #BB885D",
"U. c #BE8963",
"Y. c #BA8568",
"T. c #B68B71",
"R. c #B99276",
"E. c #C28356",
"W. c #C4835C",
"Q. c #C9895A",
"!. c #C5844F",
"~. c #C48462",
"^. c #CA8564",
"/. c #C38D64",
"(. c #CC8B65",
"). c #CD8C6B",
"_. c #C4896B",
"`. c #D28D69",
"'. c #C59065",
"]. c #C6946C",
"[. c #CB946D",
"{. c #C9986F",
"}. c #CA9365",
"|. c #D5916A",
" X c #D39768",
".X c #CC9572",
"XX c #C49975",
"oX c #CB9C73",
"OX c #C59978",
"+X c #D39372",
"@X c #DA9572",
"#X c #D59A76",
"$X c #D59D79",
"%X c #DA9D7B",
"&X c #D99B72",
"*X c #D08F71",
"=X c #CDA077",
"-X c #CEA27A",
";X c #D2A276",
":X c #D2A57C",
">X c #DBA47E",
",X c #D4A87E",
"<X c #D9A87C",
"1X c #E3A47D",
"2X c #E4AB7F",
"3X c #7A8581",
"4X c #7B8C84",
"5X c #7E928A",
"6X c #7C9087",
"7X c #829D93",
"8X c #80958C",
"9X c #C6A183",
"0X c #D3A781",
"qX c #DBA681",
"wX c #D6AD84",
"eX c #DAAD84",
"rX c #DEAE89",
"tX c #D6B086",
"yX c #D9B087",
"uX c #DBB38A",
"iX c #DAB68C",
"pX c #DDBB90",
"aX c #E4AA85",
"sX c #E3B48C",
"dX c #E3B98F",
"fX c #E4B488",
"gX c #E5BC93",
"hX c #EABD94",
"jX c #E6B791",
"kX c #F2B68B",
"lX c #EAC097",
"zX c #EBC49A",
"xX c #E8C398",
"cX c #F5C99B",
"vX c #F0CBA2",
/* pixels */
"_ _ | H.4X5X5X8X8X5X3X/ r = . . + = = = = = + . . + , e B ^ ] { | | { { 3X4X5X5X4XG.{ { 3X5X7X7X8X3X' ^ B M M B ^ ] { | ] _ ] H.4X6X6X6X4X4X4X4X",
" .] { G.4X6X4X4X4X3X] ! 0 = X + = - = = = = = # # = , q M Q ( ] | ] ] [ G.4X6X6X4XH.| ] [ G.4X4XG.] / W M N N M Q ) ] | | ] [ G.4X4X4X4X4X4X4X4X",
"| { } 3X4X4XG.[ ] ( ! C < # # ; < > = # = ; < < > < < 9 r M ^ ( ( ( ( ] { 4X4X4X4X{ ] ) ) ) _ _ / ! E m e 9 9 e M Q ) ] | { G.4X4X4X4XG.3X4X4X4X",
"{ } 3X3X3XH.' ^ Q G r < = # ; 7 w 7 ; # = < 0 s s w 7 < 6 e V Q ~ Q Q / ] } 3X3X} ] ( Q W G C n n r 0 6 , - - , 9 M Q ( ] } 3X4X4XG.{ [ { G.3X4X",
"] ] | | ] ) Q M q , = # X = 2 s C w < = ; 0 C D D C 0 ; = , e M M M M W / ] | { ] ( Q M q , = # # = = = = # # = , q M Q ) ] G.4X4X3X{ ]  .] ] ] ",
"W W ! ! ! E N 9 & X o . + > w C A s 7 < 1 r A I I C 0 - X + , q q 9 q N W / ' ( / Q M q > + o $ $ . # - ; ; ; ; < q c N G ! ` [ 4X4X3X{ ) ! ! E ",
"7 7 0 0 0 0 6 > + . . + , 0 m A A C r w w s A D D C 0 ; X + - , , > , 9 M Q ^ ^ Q M q , + + . . . + - 2 0 w 0 0 w r r q 6 7 G / H.5X5X} ..G 0 < ",
"= = = = = = = = # # = < w C A A C C C C C C C A A C w < = # = = # # = < e M B B M e < = # # = = # = < w C A C C A D C 7 = = 7 W ] 4X4X] W 7 = . ",
"; = # + . . # # = - 2 a Z K F C C C S F S C C C Z Z d i < - # # O O # - 6 q e c e 6 - # # = - = # = < s A D D C D F S i ; = 6 G / _ _ ! r ; . $ ",
"w 7 < = . . O # ; 6 w Z T *.T Z C Z H T T Z C Z H U H Z w 1 = # X O # = > , 1 1 , > = # # = = # + # > a A D m C S T T l i 7 w C I F C 7 ; # . o ",
"A C w 2 = X # = > 0 C Y *.;.#.Z C S *.;.*.S C Z #.;.*.Y C 0 , = # # = = = = = = = = = = = = = # # = < w C C m C H *.;.*.H C m C C w < = # # = = ",
"F D C w < = # = , w A R ;.;.#.S A H ;.7.%.Z v Z ;.7.6.R C e 6 < > - = = = # # # # # = = = = = = ; < 7 r C C A S #.>.7.6.T F D C r 7 > = ; > 2 7 ",
"A A C C w < = # - 0 A R ;.;.T S A U 7.u.>.S v S 6.i.8.T C c e w 7 > = # # # # # # # = = = = = > 7 w r n C Z H U >.8.u.8.;.T S A r w 0 7 0 w w s ",
"C C A A C 0 > = - 6 C Y ;.;.U Z C U 8.s.7.H C H 7.s.p.#.C v m C a < = # # = = = = = = = # # = < w C C C C Z J ;.7.d.s.i.7.;.L S C m C C C C C C ",
"s C S F F d 7 > , 9 C Y ;.;.J s w l 4.s.u.%.J #.5.a.t.$.H A D A s < = + + # ; > < < > = + X # < s A D C C Z U >.u.f.C.C.n.k.;.J Z C A D D C C C ",
"r C S T T H d 0 9 q C T ;.>.x 7 < f o.s.s.8.3.4.t.a.u.>.*.K F A r < = X . # > 7 w 0 2 = X X # > a A D C C Z J ;.k.n.F.W.~.V.z.;.J Z A A A C m m ",
"v C H *.;.*.H C c e C Y ;.;.l 3 = t X.s.h.g.s.s.s.s.u.7.;.T F C w < = # X = 2 s C s 2 = X X = < w C C C C Z J ;.z.S.).@X@X).S.z.;.J Z C C C C C ",
"c C H $.3.6.*.F C m A Y -.*.d ; + y X.f.E.E.M.M.M.f.i.7.;.T S v 9 , = # ; 2 r A A r < # + = < 0 s C C m m j P ;.x._.>XaXaX%X+XY.z.;.S v v C S H ",
"b v H &.t.p.>.T F A A I R Y a - + y X.g.Q.Q.^.^.W.V.l.7.%.H A v 6 , - ; 7 s A D A 0 ; # # < w n C C v v v s l ;.Z.OXsXhXhXfXqX#X~.w.K m C H #.;.",
"c C U 4.s.f.u.;.J Z C C A C 7 & = y X.s.E.(.).+X+X).S.z.;.U S C 0 - = > 0 C D D C 0 ; = > 0 C A A C C C C j l ;.Z.$XgXcXzXgXfX1X).z.T C C J ;.6.",
"n S *.k.M.E.n.7.#.d 0 6 6 6 6 , < i x 6.n.^.@X1XaXaX#XY.z.6.-.H a ; + % < w C A C r 7 2 7 s A D A C C S H P J ;.c.oXdXcXvXzXsX>X^.k.#.S H #.>.6.",
"H U 0.c.^.(.K.u.X.p > % % & , 7 w s k U q.S.@XkXkXhXsX#X~.c.q.*.d > + X + < w C A A C s s C A C C C S T *.#.#.;.z._.>XhXcXzXuX[.C.4.%.J T *.;.6.",
"U ;.w.S.).|.Q.s.X.u = @ X = 2 s C m v C *.z.).1XjXgXsX>X).V.z.;.l 2 = X X = < w C A A C C C C C v C H *.;.;.;.;.7.N.).aXhXgXeX'.s.4.:.;.;.;.;.;.",
"$.>.z.V.(.|.Q.f.X.u & % - y p Z C N c v S ;.c.Y.OX9X$X.X~.c.0.*.l p t 3 ; - < 7 w s r w s s C C v C Z J *.;.;.>.>.p.N.).qXaX>X/.m.i.p.7.6.;.;.;.",
";.6.k.n.E.Q.!.g.:.k 6 6 i l P S C N v v C H *.0.e.A.Z.B.z.0.T S Z l z l a 7 6 1 < > > < 7 s C C m v C Z H *.;.>.>.>.q.B.).$X$X[.~.M.f.d.7.>.;.=.",
"*.;.6.8.s.h.h.s.3.H C Z T ;.*.H C v C C C m C S U ;.>.6.;.U Z C S #.;.-.Y C 0 < = # + = < w C A A C v v C H *.;.;.%.;.w.S.).@X+X).^.M.s.5.>.;.=.",
"L T U %.3.4.p.p.6.*.R -.6.8.6.U Z C C C C v v Z U $.:.$.J H C A K *.0.0.-.K s > # . + - 6 w C S S S C v v C H U U J *.6.n.W.`.|.(.W.C.u.4.>.;.;.",
"S S S S J U ;.6.7.7.8.u.d.u.7.%.J Z Z Z C N C Y 3.t.5.:.U H H T *.;.<.0.0.*.g 3 # + - 7 w e m S U *.H C v v C Z H J *.7.s.M.Q.Q.E.m.i.6.;.;.;.;.",
"C C C C C S T ;.7.u.s.f.f.s.u.7.;.T S C v c C U 7.s.s.7.;.*.=.;.;.;.;.6.0.;.l y = - 0 C C m C H *.;.*.H C v v C S T ;.7.u.s.f.f.s.p.6.;.=.;.;.;.",
"j s s r s Z J &.4.y.j.j.h.M.M.n.k.;.H e 4 : 6 f X.t.s.l.k.7.7.,.:.&.&.>.6.;.P 7 , 6 j Y Y F S J ;.>.;.*.H C C C H %.6.7.4.3.3.3.3.3.;.;.;.;.;.;.",
"P l P k k x X.o.@.@.y.g.M.W.^.^.V.w.L q *   @ 3 g :.l.N.V.n.i.4.+.o.4.4.7.;.J s q s H -.-.*.T *.;.>.>.;.*.J H H %.3.5.4.%.J S H U *.;.>.>.>.;.;.",
";.;.;.;.;.6.u.s.a.a.s.C.~.).@X@X).Z.<.C 5 & = 3 g ;.c._.).^.M.s.a.a.s.i.7.;.J Z C Z U ;.>.>.;.;.;.;.;.;.;.=.*.;.7.s.s.7.U C c c C H *.;.>.;.;.;.",
"v.v.v.Z.Z.Y./.}.'./.U./.].#X%X1X#XT.A.9.T P J #.0.A.T..X$X&X[././.'./.V.i.>.#.J J J U $.:.,.4.>.&.*.*.;.;.>.6.u.n.E.K.b.-.C 8 8 q e j P #.%.*.;.",
"XXXXXXXX-X,XeXuXuXeX,X:X:X:X>X>X,X-XR.T.T.T.T.T.R.OXOX:XeXeXeXeXuXfX<X{.n.4.o.o.:.$.#.1.$.4.t.5.>.*.*.*.;.6.8.s.E.(.(.S.0.H e 9 8 8 9 s P U *.;.",
"wXwXwX0XwXyXdXgXlXlXgXdXyXwX0XwXwXwX0XwXuXjXgXjXuXwXwXwXwXyXsXgXzXzXgX,XI.s.y.a.s.u.>.;.6.u.s.i.7.;.*.*.;.3.5.s.E.(.).~.z.;.J Z C v v C H *.;.>.",
"fXaXeX-XOXOX-XeXjXzXzXzXgXpXiXyXtXeXfXfXkXcXcXcXfX<X;X:X0XeXsXjXzXvXzXuX{.I.P.Q.}.U.Z.A.v.L.P.m.b.q.>.>.:.:.o.4.s.V.^.F.N.k.q.e.9.9.9.9.9.0.q.p.",
"aX>X.XY.A.x.B./.=XyXgXzXzXgXpXiXyX0X>X2XkXkXkX2X{././.[.$X%X%XqXrXgXgXiX,X=X;X<XyXeX0X$XOXoXoX].U.N.l.p.4.o.X.$.4.i.m.M.V.V.Y.XXOX9X9XR.T.D.N.n.",
"@X).S.k.;.$.4.s.I.oXwXjXgXgXjXiXwX:X.X).`.*X).W.m.s.m.W.).*X).)..X:XwXtXwXwXyXsXgXlXhXgXjXuXwX:X#X).W.M.s.5.>.;.>.8.s.M.W.).$XaXhXzXzXhXeX#X).^.",
"~.V.l.>.#.X.o.y.h.I.{.:XeXsXsXsX>X.XY.z.k.2.2.,.o.4.p.n.V.F.F.W.W.'.{.-X,XeXrXsXjXgXzXzXzXgXiXuXeX>X&X}./.Y.Z.A.x.b.s.M.(.#XaXhXcXcXcXcXjXaX>X$X",
"l.k.6.>.$.:.t.j.g.g.L.U..X%XaX2X#XY.e.*.d p u g O.:.7.q.k.l.C.M.M.K.P./.oX$X%X%X>XeXsXgXlXlXgXjXjXdXfXeX<X0X0X9XXXU.P./.{.>XsXdXdXgXgXdXdXdXdXsX",
";.;.;.=.;.6.u.s.a.a.s.C.~.).@X@X).Z.<.C 5 % = t z ;.6.;.;.6.p.s.a.a.s.m.^.).*X).)..X:XwXiXjXgXhXhXgXgXgXgXzXzXgXeXoX].{.-XwXyXyXwX0XwXwXuXjXgXlX",
"J H H J T *.;.6.4.t.a.g.M.E.^.^.V.w.R e :   & t z ;.;.*.J U %.3.3.4.5.i.n.F.~.~.~.^.[.oX0XsXhXlXgXgXgXzXzXzXzXgXfX,X-X-XwXwXwXwX0X-X-XwXyXpXgXgX",
"C C C Z Z C A H %.5.j.h.h.M.n.n.k.;.H r 4 5 6 d #.>.;.T Z C Z J U %.>.7.i.n.V.~.^.^.^.).$XsXhXlXjXuXdXlXzXgXsX<X:X:X0XwXwXwXwXwXwXwXwXwXtXyXiXiX",
"C C C C C v v C U 6.s.h.g.s.u.7.;.T S C v v C H *.;.*.H C v v C S T ;.7.t.s.M.^.).).(.).$XsXgXgXyXwXyXgXgXuX#X].{.-XwXyXwXwXwXwXwXwXwXwXwXwXwXwX",
"Z Z S H J H H H U ;.7.u.u.5.3.%.J S Z A A A F Y T U H A v c v C K T ;.6.t.j.E.(.@X@X+X+X:XrXdXiXwXwXyXgXgXeX{.U./.=XwXuXyXwXwXwXwXwXwX:X:X,XwXwX",
"H H U %.>.4.4.3.%.U U #.&.>.%.J Z C C C A A S S S S C v v v Z K T *.;.3.t.g.E.|.@X%X>X:X0XyXyXeX0X0XuXgXhXeXoX/.'.=XwXyXyXwXwXwXwX,X=XoX=X:X0XwX",
"*.;.6.8.s.h.h.s.3.H C Z T ;.*.H C v m C C C C C C C C v C H #.;.;.;.;.>.5.s.M.W.).#X,XwXtXtXwX0XwXwXiXgXgXuX#X].{.-XwXyXwXwXwXyXwX:X{.].oX:XwXyX",
"7.p.i.g.J.!.!.f.>.Z v C T ;.;.H C v v C n v v v C Z Z H J %.>.7.6.>.;.;.&.3.7.w.x.Y.XXwXtXtX0XwX0XwXuXdXdXuX:XoXoX:XwXwXwXwXyXyXwX-X]./.{.:XyXiX",
"i.s.g.h.J.J.f.p.%.Z v Z *.6.;.K C r v m v v v C S L #.%.3.4.t.t.7.>.*.T U H S S R e.Y.oX,XeX0X0XwXwXyXyXyXeX0X:X:XwXwXwXwXwXyXyXwX=X'./.{.:XyXiX",
"d.s.s.s.s.u.7.;.J C C S *.;.*.H C v C C C C C S U ;.7.u.s.f.f.s.u.7.;.T H C e e C -.v.].;XeXwXwXwXwXwXwXwXwXwXwXwXwXwXwXwXwXtXyXwX:X{.].oX:XwXyX",
"8.5.4.:.X.$.#.T K A C k l x l Z C C A S S H J U %.7.i.C.E.W.W.K.C.s.7.;.J Z s j l ;.c.].;XeXwXwXwXwXwXwXwXwXwXyXyXyXyXwXwXwXwXwXwX0X:X:X:X:X:X:X",
"-.T J g u p k F F D C a i t i s C A K U %.&.3.3.4.t.s.E.(.|.|.(.W.M.d.7.;.*.U #.3.i.V.).$XqXwXwXwXwXwXwXwXtXwXwXyXyXyXyXwXwXwXwXwXyXuXuXeX:XoX{.",
"D C w > = ; 0 C D D C 0 > = - 0 C F T ;.7.i.s.a.a.s.m.~.).+X+X).^.M.s.5.>.;.>.5.s.M.W.).#X,XwXtXtXwXwXwXwXwXwXwXwXwXwXwXwXwX0XwXwXiXgXgXuX;X]./.",
"e 9 : % o X , 0 C D A 0 % o % 7 S T ;.7.s.M.W.E.E.K.E.W.(._._.S.B.b.5.&.%.*.;.8.s.M.F.^.[.:XwXyXyXyX0X:X:X:X0XwX0X:X:X:X0XwXwX0XwXiXgXgXeXoX/.I.",
", , & + o o + > r A A w & o % i J ;.7.u.C.Q.(.|.|.(.(.W.K.m.c.k.0.;.U H S H U ;.7.i.f.M./.#XwXiXiXyX:XoXoXoX,XwX,XoX{.oX:XwXwXwXwXyXdXiX0XoX/.U.",
"= = = = = # # = 2 s C w , = 3 l ;.8.u.s.M.^.).+X+X).^.M.s.t.7.;.T S C v v C S T ;.,.t.s.P.oXwXiXiXwX-X{.].oX:XwX:XoX].{.:XwXyXwXwXeXyXwX:XoX].'.",
"# # ; < 2 < - # = 2 0 0 2 t g $.7.d.s.f.n.B.D.D.D.D.N.i.4.:.&.#.H n c c v C H *.;.:.:.t.L.oXwXyXwX:XoX{.oX=XwXwXwX=XoXoX:XwXtXwXwXwXwXwX:X=XoXoX",
"X # < w s w < # + % > 7 p z $.7.d.f.f.s.i.k.w.w.w.w.q.>.&.&.&.%.H C c v C H *.;.;.&.$.6.v.XXwXeX:X{.{.oX:XwXwXwX0X,X:X:X0XwXwXwXwXwX0XwXwX:X:X:X",
"+ = < r C s 2 = X X = t l ;.8.s.s.f.f.s.p.6.;.=.;.;.;.;.;.>.>.;.U Z C Z U ;.>.>.;.#.1.;.x.XXwXeX=X].{.-XwXyXwXwXwXwXwXwXwXwXwXwXwXwXwXwXwXwXwXwX",
"# = < 0 a 0 < = + + > p 1.6.k.i.u.d.f.s.u.4.&.$.%.&.>.6.6.6.6.;.*.H H %.7.u.8.;.U P P *.x.XXwXeX:XoXoX:XyXyXyXwX0XwXwX0X0XwXwXwXwXyXyXyXyXyXyXyX",
"= ; ; > < > ; = - , 0 k *.6.7.6.6.8.d.s.s.u.5.4.4.5.p.u.u.8.6.;.*.T *.7.s.f.p.*.Z s k #.x.XXwXuXwX:X-X0XtXyXyXwX:X-XoX-X:XwXyXyXyXyXyXyXyXyXwXwX",
"= = = = = # # = > 0 C K *.;.;.;.;.6.p.s.f.s.s.s.s.s.f.f.s.u.6.;.*.*.;.7.s.s.7.U C r P ;.c.XXwXuXuXwX0XwXwXyXyXwX:XoX].oX:XwXyXyXwXwXwXwXwXwXwXwX",
"X + # - - % + # > r D Y R T *.*.;.>.7.u.s.f.g.g.g.g.g.f.s.p.7.>.*.*.*.;.6.3.%.H Z S #.k.Y.oXwXiXiXyXwXwXwXwXyXwX-X]./.{.:XyXyX0X:X=X=X-X:XwXwXwX",
"o . = 1 9 1 = # ; a D I I K T *.;.>.7.7.u.s.g.h.h.g.s.u.7.8.6.>.*.J S S H H H H L =.k.V.).:XtXiXuXeXwX0XwXtXyXwX-X]./.{.:XyXyX:XoX].].{.oX:XwXyX",
"O = 1 v M c , = ; 0 C C C C S *.;.;.;.;.6.p.s.f.g.s.p.6.;.;.;.;.*.H C v v C Z J ;.k.V.).#X>XwXwXwXwXwXwXwXtXyXwX:X{.].oX:XwX0XoX]././.].oX:XwXyX",
"7 0 m ! ^ W v 6 < 2 0 0 6 6 s H U T L J #.6.p.d.d.p.6.*.J H J J H S C C Z S J %.7.n.).%XqXeX0X0X0XwXwXwXyXwXwX0X:XoXoXoX-X:X-XoX{.{.{.oX:X0XwXtX",
"W ! / _ ' ( W N 9 < ; = % - 7 a Z S A C H *.6.7.7.6.*.H C n C C Z S H T ;.&.:.+.t.L.oXeXeX>X$X#X,XwXyXyXyX0X:X-X-X:X:X-XoX{.{.oX-X:XeXeXeXeXwXwX",
"] ] | | ] ) Q M q , = # + = < w C C C C S U ;.>.>.;.U H C v v C S T ;.7.i.s.a.y.s.I.=XwX0X#X).[.$XwXuXuXwX:X{.].oX:XwX:XoX].{.-XwXiXgXgXdXuXwXwX",
"} } { ] ) Q M v 9 1 > ; ; > 7 s S S S S H *.;.;.;.=.T H S S H U %.>.7.i.f.g.h.h.M./.oX:XoX~.W.~.oXwXuXtX:X{.I.I.'.:XyXwX-XoXoX0XiXlXzXzXjXuXwXwX",
"} { ] ( Q N 9 1 1 7 w w 0 w s P T *.T T #.*.;.;.;.;.*.T T #.&.4.8.u.i.d.s.f.M.E.^.[.#X+X~.M.n.I.oXwXyX0XoXU.m.m.I.oXwXyX0X:X,XuXjXzXzXzXjXuXwXwX",
"| ] ( Q M 9 - = > 0 C C C C S #.;.>.;.;.;.;.;.;.;.;.;.=.;.6.p.s.f.f.s.a.a.s.C.~.).+X+X).F.f.s.L.oXwXyX:X].L.s.s.L.oXwXyXyXwXyXsXgXlXzXgXsXyXwXwX",
"| _ / Q N : + O ; a D I D D K *.6.6.6.>.>.>.;.;.;.;.;.;.>.u.f.h.h.h.f.a.t.d.m.^.*X@X+X^.C.y.a.L.oXwXyX:X'.m.y.y.m.{.wXiXuXyXiXjXhXlXlXgXiXyXwXwX"
};
