/* XPM */
static const char *wall_14[] = {
/* columns rows colors chars-per-pixel */
"72 72 232 2 ",
"   c #3F111F",
".  c #460B19",
"X  c #4D0E19",
"o  c #4D0814",
"O  c #500E18",
"+  c #4D111C",
"@  c #45101C",
"#  c #51131D",
"$  c #4D1521",
"%  c #4D1924",
"&  c #471A27",
"*  c #511720",
"=  c #521A23",
"-  c #581D24",
";  c #4E242B",
":  c #552027",
">  c #54232A",
",  c #59252B",
"<  c #55292F",
"1  c #5B2A2F",
"2  c #582227",
"3  c #4E2A33",
"4  c #4B2530",
"5  c #542C33",
"6  c #592D32",
"7  c #543135",
"8  c #5C3236",
"9  c #54353A",
"0  c #5C3639",
"q  c #5D3A3C",
"w  c #58393C",
"e  c #4F3137",
"r  c #632C2D",
"t  c #642827",
"y  c #6C342C",
"u  c #633233",
"i  c #603639",
"p  c #633B3C",
"a  c #6A3C3B",
"s  c #6B3735",
"d  c #733C36",
"f  c #6E3030",
"g  c #6C433E",
"h  c #6B4138",
"j  c #74443E",
"k  c #7A4A3E",
"l  c #77473D",
"z  c #553A41",
"x  c #5C3E41",
"c  c #603F41",
"v  c #5D4244",
"b  c #5B4A4A",
"n  c #554141",
"m  c #5B5251",
"M  c #634343",
"N  c #6A4643",
"B  c #664847",
"V  c #6D4945",
"C  c #664C4A",
"Z  c #6C4D49",
"A  c #724641",
"S  c #744C44",
"D  c #7A4E45",
"F  c #734E48",
"G  c #794F48",
"H  c #7D4742",
"J  c #7D5246",
"K  c #73524C",
"L  c #7D5349",
"P  c #635455",
"I  c #615857",
"U  c #655959",
"Y  c #7C5D54",
"T  c #6D524D",
"R  c #666562",
"E  c #6C6B69",
"W  c #6C6566",
"Q  c #716D6E",
"!  c #69706B",
"~  c #737373",
"^  c #767B7A",
"/  c #747E79",
"(  c #823E37",
")  c #834A3A",
"_  c #8C563D",
"`  c #8B563B",
"'  c #945D3C",
"]  c #A5683D",
"[  c #97603F",
"{  c #814E43",
"}  c #845546",
"|  c #8A5544",
" . c #855945",
".. c #8D5B45",
"X. c #835549",
"o. c #89574A",
"O. c #85594B",
"+. c #8C5A4A",
"@. c #925E44",
"#. c #925D4B",
"$. c #995747",
"%. c #855F53",
"&. c #8D5E51",
"*. c #985F50",
"=. c #8E614C",
"-. c #936145",
";. c #9A6546",
":. c #9E6947",
">. c #95624B",
",. c #9B654B",
"<. c #9D694B",
"1. c #896558",
"2. c #946451",
"3. c #9D6452",
"4. c #9E6857",
"5. c #9A6958",
"6. c #9B705C",
"7. c #A36B45",
"8. c #AB6D42",
"9. c #A46C4B",
"0. c #A96E4B",
"q. c #A26548",
"w. c #AC7145",
"e. c #AD734A",
"r. c #A7704D",
"t. c #B2764B",
"y. c #B5794B",
"u. c #BA7C4C",
"i. c #B37447",
"p. c #A36B54",
"a. c #A66A55",
"s. c #AC7455",
"d. c #A2745B",
"f. c #AC755D",
"g. c #AA7A5E",
"h. c #A67455",
"j. c #B47653",
"k. c #B57954",
"l. c #BA7C53",
"z. c #B5765B",
"x. c #B47C5B",
"c. c #BC7B5D",
"v. c #B87756",
"b. c #B16E50",
"n. c #926F60",
"m. c #9E7663",
"M. c #AC7A61",
"N. c #A47961",
"B. c #BB7D64",
"V. c #B97E68",
"C. c #A05B4A",
"Z. c #C17E58",
"A. c #77877F",
"S. c #BE814F",
"D. c #BB845C",
"F. c #B98359",
"G. c #AE876A",
"H. c #BB8364",
"J. c #BD8961",
"K. c #B7886B",
"L. c #B68C71",
"P. c #BE9575",
"I. c #BC9579",
"U. c #B68E6E",
"Y. c #C4834E",
"T. c #C38357",
"R. c #C3835C",
"E. c #C38B5C",
"W. c #CA895E",
"Q. c #C48462",
"!. c #CB8565",
"~. c #C38B64",
"^. c #CB8B64",
"/. c #CE8C6B",
"(. c #C5896A",
"). c #D38D69",
"_. c #C6946C",
"`. c #CB936C",
"'. c #C99568",
"]. c #D5926A",
"[. c #D7986D",
"{. c #D38E70",
"}. c #CC9471",
"|. c #C49975",
" X c #CB9C73",
".X c #C59B7A",
"XX c #C59877",
"oX c #D29372",
"OX c #D49B75",
"+X c #D99C75",
"@X c #D49C79",
"#X c #DA9E7A",
"$X c #DB9472",
"%X c #C08D70",
"&X c #CDA175",
"*X c #CDA27B",
"=X c #CFA87F",
"-X c #D3A37C",
";X c #DBA47D",
":X c #D4A87E",
">X c #D7A77A",
",X c #E3A67D",
"<X c #7B8C84",
"1X c #80958C",
"2X c #869D93",
"3X c #CBA583",
"4X c #D4A781",
"5X c #D5AC84",
"6X c #DBAC84",
"7X c #DAA984",
"8X c #D5B087",
"9X c #DBB187",
"0X c #D6B389",
"qX c #DCB48A",
"wX c #DDB88D",
"eX c #DEBA91",
"rX c #DFB790",
"tX c #E2AB84",
"yX c #E6AB84",
"uX c #E0B085",
"iX c #E3B48B",
"pX c #E3BA8E",
"aX c #EBBB8D",
"sX c #EBB58A",
"dX c #F1B98B",
"fX c #E5BC93",
"gX c #EABD94",
"hX c #EBC096",
"jX c #EBC49B",
"kX c #EAC59A",
"lX c #F4C99A",
"zX c #F5CFA0",
/* pixels */
"2X1XA.! m 9 > * # X X X X * 1 p C C M M S o.>.>.>.+.X.X.o.3.z.!.].-X5XrXkXhXiX+X!.b.>.o.X.X.+.>.>.>.o.S M M C C p 1 * + X + X # * > 9 m ! <X1X2X",
"1X<X/ R b 7 > * # * * * # * , 0 M M M M V J +.#.#.+.X. .+.p.c./.OX:X5XqXfXfXiX;X/.z.3.+.X.X.+.#.#.+.} V M M M M 0 > * # * * * # * > 7 b R / <X1X",
"A./ E I w < * * - 2 , > - * - 1 8 q q M B S J X.+.+.o.o.#.a.Q.OX;X7X5XqXwXfXiXtXOXH.p.#.o.o.+.+.X.J S B M q q 8 1 - * - 2 , 2 - * * < w I E / A.",
"! R I v 5 * # = , 8 q 8 , * # * 2 6 8 x v M N S X.+...o.#.f.}.6XiX9X5X5X5X9XiXiX6X}.f.#.o...+.X.S N M v x 8 6 2 * # * , 8 q 8 , * # * 5 v I R ! ",
"m b w 5 * X X * 1 p M p 1 * X + * , 0 M M v M S X.+.o.} +.N.*XfXjXpX5X=X=X5XpXjXfX*XN.+.} o.+.X.S M M M M 0 , * + X * 1 p M p 1 * X X * 5 w b m ",
"9 7 < - # o o + > 8 q 8 2 # + * 2 u g F S F S J O.o.D j J m.3XjXzXhX5X*X*X5XfXlXjX3Xm.J j D o.O.J S F S S g u 2 * + # 2 8 i 8 > + o o # - < 7 9 ",
"> > - * # + X + % 2 , - * # * < q N G X.+.-.-.-.#.X.A p V n.3XjXzXhX5X*X*X5XfXlXjX3Xn.V p A o.>.-.-.-.+.X.G N q < * # * - , 2 % + X X # * - > > ",
"* * * * * * * * * * * # # * 2 8 M Z J +.,.0.e.e.9.+.A q M 1.I.fXlXfX5X=X=X5XfXlXfXI.1.M q A +.9.e.e.0.,.+.J Z M 8 2 * # # * * * * * * * * * * * ",
"# # # + * - 1 r r 2 - % - 2 < 8 q M S X.,.t.u.u.t.,.D p M %.L.6XaXiX5X4X4X5XpXgXuXL.1.M p S >.e.u.u.t.,.X.S M q 8 < > - % - 2 r r t - * + + # # ",
"# # X X # , d l j i 6 5 7 8 6 , > 6 i S =.e.u.Y.u.9...l S &.V.OXtX6X5X5X5X5XuXyX#XH.&.S j  .9.u.Y.u.e.=.S i 6 , , 6 8 7 5 6 i j l d t # X X # # ",
"= * + + * r ) +.O.F M v M M 8 2 * % 6 M L ,.e.u.u.e.,...+.3.z./.+X;X5X8X0X5X;X+X/.z.3.+...;.e.u.u.e.>.L M 6 % * 2 8 M M v M F O.+.) r * + + * = ",
"1 , > % , s | >.2.O.F Z K F a 1 - % 5 x Z X.-.:.9.9.9.p.a.z.c.!.oX-X5X0X0X5X X^.c.j.s.a.s.t.y.i.7.-.L Z x 5 % - 1 a F K Z K O.2.2.| s > % > , 1 ",
"i 0 8 8 0 j o.>.2.+.X.O.O.X.S i 6 6 8 M B V S J ..>.p.x.Q.!.!./.}.-X5XqXqX5X_.F.t.j.c.Q.Q.T.y.7. .S B M M q 7 6 i S X.O.O.X.+.2.>.X.A 0 8 8 0 i ",
"M M M x M S X.+.#.+.+.+.#.+.X.V M x M M M M M N G +.a.H./.).)./.}.-X5XqXqX5X_.F.e.v.Q././.R.e.-.S M x x M M v M V } +.#.+.o.+.#.+.J V M v M M M ",
"M M M M B V S J X.+.#.#.#.+.X.L Z B M M M B V S D +.p.c.!.).)./.}.-X5XqXrXqX XD.v.k.R.!.R.j.,...G V M M M B V F L X.+.#.#.#.+.X.J S V B M M M M ",
"v M M B B N N S J o.#.#.#.o.o.O.L F B M B S X.o.+.#.<.s.F.R.!./.}.-X5XwXfXpX7X`.R.l.l.l.s.,.+.o.O.X.F B M B F L O.o.o.#.#.#.o.J S N N B B M M v ",
"M M M M M M x M V X.+.#.+.+.+.#.+.J N M N J +.#.+.o.@.:.e.l.R./.OX-X5XwXfXfXiX#X/.R.l.e.9.#.+.+.#.+.J N M N J +.#.+.+.+.#.+.J V M x M M M M M M ",
"S V N M x z z z M S  .+.#.>.,.q.,.o.S N N S D D S S ) ' 7.y.Q.}.@X:X5XqXfXhXgX6XOX~.v.e.0.q.3.#.o.D A g N S o.;.,.,.>.#.+. .S N x w z x M N A S ",
"X.X.G N x z z z M S  .#.,.9.e.e.0.,.o.G V g g p q p j ` 7.l.`.-X4X5X5XqXfXkXfX9X-X`.Q.c.c.c.z.3.D p q p S o.-.7.e.e.9.,.#. .S N v z z z N S } X.",
"#.+.X.S M z x M V J +.,.9.e.t.t.e.9.,.+.J V M z z M S @.e.E.&X5X0X5X5X9XfXfXfXqX5X-X}./.).$X/.f.X.M p S +.<.9.e.t.t.e.9.,.+.J V M z z M S X.+.#.",
"+.o. .J S j j S } #.3.p.0.w.w.w.8.0.0.p.3.1.%.Y Y 1.2.h.D. X6XqXwXqX5X6X9XpXfXwXqX6X4X#X,XyX;X%X6.%.Y 1.d.x.l.l.y.i.w.0.0.3.+.D N g g S } o.+.#.",
"X.......@.' _ @.,.s.z.v.t.8.] ] 8.e.v.c.H.K.G.G.G.L.U.P. X:XiXfXfXqX5X5X5XqXqXfXfXfXiXiXsXaXiX4XP.G.G.U.|.}.^.R.u.8.8.e.v.z.a.o.S k  .-.>.#.+.+.",
"X.+.>.9.e.w.w.e.l.!./.!.l.e.7.8.e.k.R./.OX:X5X8X8X5X5X5X5X9XfXfXfX9X5X5X5X5X9XfXfXgXgXfXgXgXfXpXqX5X5X5X5X4X@X/.Z.t.e.l.^./.B.4.+.@.7.e.9.;.+.X.",
">.3.a.x.E.E.E.E.'.+X;X+X`.J.F.F.J.(.oX;XtXiXpXpXpXpXiXqXqXqXpXfXiXqX5X5X5X5X6XqXfXfXfXfXfXfXfXfXpXpXpXpXwX9X6X@X`.~.J.`.+X;X}.K.g.s.l.l.t.9.@...",
"z.c.H.`. X&X&X&X>X6XuX6X:X-X&X&X*X-X7X6X9X9X9X9X9X9XqXqXqXqX9X9XqX6X5X5X5X5X5XqX9XqXqXqXqXqXqXqXqXqXwXwXqXqX9X7X4X-X-X:X6XuX6X*X|._.!.R.l.0.:.;.",
"!./.oX-X5X0X8X5X5X5X5X5X5X5X5X5X5X5X5X5X5X5X5X5X5X5X5X5X5X5X5X5X5X5X5X5X5X5X5X5X5X5X5X5X5X5X5X5X5X5X5X5X5X5X5X5X5X5X5X5X5X5X5X8X5X4X@X/.Z.v.e.w.",
"+X#X;X6XwXrXqX6X-X X|.|.|..X X*X-X&X X X*X5X9XqXqX5X5X5X5X5X5X5X5X5X5X6X5X5X5X5X5X5X:X5X5X5X5X5X5X:X:X:X-X-X&X&X X.X.XXXP.|.*X5X6XiX6X@X(.R.l.y.",
";X7X6XqXrXiXtX#X`.H.g.d.d.N.G.J.J.D.F.D._.:XpXfXwX0X5X5X5X5X5X5X5X5X8X8X5X5X5X5X5X5X5X5X5X8X0X5X:X>XOXOXOX`.~.D.F.g.N.d.d.g.H.}.;XtXiX7X@X`.Q.Z.",
"5X5X5X5X5X;X+X/.c.p.+.} X.+.>.9.e.w.8.e.D. X5XqXqX5X5X5X5X5X5X5X5X5X5X5X5X5X5X5X5X5X5X5X5X8X5X-X X_.`././.!.l.e.7.>.+.X.} +.p.c./.#X6X5X-X}./.!.",
"5X4X-X&X X`.~.c.p.} A g j { ..@.q.] ] 8.s.G.U.P.|.&X>X6XqXqXqX5X5X-X-X-X5X5X5X5X5X8XqXqX9X:X&XJ.G.g.g.D.R.Z.t.q.@...{ j g A } p.c.(. X X XOXoX{.",
"#X@X}.~.F.k.j.p.o.V q p A } ..@.@.7.w.w.9.2.1.2.h.E.[.6XiXfXqX5X*X X X X-X5X5X5X5X9XrXiX6X[.E.r.+.O.=.s.l.u.0.@.....} A p q V o.p.j.x.D.~./.oX$X",
"{./.Q.l.e.7.;.+.G N M V J +.+.o.+.,.e.e.>.S M g ` e.'.6XfXkXfX5X X_._. X-X5X5X5X5XqXkXfX6X'.e.` g M S >.e.e.,.+.o.+.+.J V M N G +.;.7.e.l.Q./.{.",
"Q.R.Z.u.8.;. .G S F J O.+.#.+.J J +.9.9.+.N 9 7 d @.D.7XkXjXfX5X X X X X-X5X5X-X5XpXjXjX6XJ.-.h 9 w N ..:.,.o.J X.+.#.+.O.J F F G  .[ 8.u.R.Q.!.",
"v.v.u.u.w.-.D V S  .,.9.<.#.X.S V J +.>.X.V w 3 8 l 6.3XkXlXfX5X*X*X-X-X5X5X5X=X5XpXlXjX4XN.J 0 e w V  .#.o.J V S X.#.<.9.,. .F V D @.w.u.l.k.k.",
"e.e.t.y.e...V M F -.e.t.9.+.S M M V X.+.o.G M 9 e M 1..XfXlXpX5X5X5X5X5X5X5X5X5X5XpXlXfX.X1.M e 9 M F O.+.X.V M M S +.9.t.e.-.F M V ..e.y.t.e.e.",
"8.w.e.t.0.o.N x S >.e.e.;.J M z x V } @.#.X.S z 9 v 1.P.iXlXhXqX0XqX8X5X5X5X5X0XqXaXaX:XG.L 7 3 0 S O.#.#.} V x z M J ;.e.e.>.S x N o.0.t.e.8.8.",
"w.w.e.0.,.J M x V ..,.,. .N x z x S ..:.,.>.J M z M 1.K.;XaXhXfXrXqX8X5X5X5XqXrXfXpX,X'.,.d > 4 i J >.9.:...S x z z N  .,.,...V x M J ,.0.e.w.w.",
"t.e.9.,.+.S M M V X.+.X.S M z z M J ,.e.t.9.+.S c M L d._.;XaXgXfXqX5X:X-X5XqXfXfXuX'.e.) t * 2 a +.r.t.e.;.J M z z M S X.+.X.V M M S +.,.0.e.t.",
"u.t.9.#.J V V S G X.X.J S N M c V o.r.l.F.j.,.D i 8 a } d.U.:XuXiX9X5X5X=X5XiXgXiX-XF._ y # # t l ,.k.T.l.9.o.V c M N S J X.X.G S V V J #.9.t.u.",
"u.t.<.} V N S X.X.X.X.X.X.J S S J 2.z.Q.W.F.9.) y 2 > q L 6.K.@X7X6X5X5X5X5XtXyX;X(.5.g > @ # t ) 9.T.^.Q.z.2.J S S J X.X.X.X.X.X.S N V  .<.t.u.",
"u.e.>.J M M G +.#.#.+.+.+.+. .} +.p.B./.].W.e.` y * & 4 M %.f./.+X;X5X8X8X5X;X+X/.z.%.M 4 & * y ` e.W.]./.B.p.+.}  .+.+.+.+.#.#.+.G M M J >.e.u.",
"t.9...A x c S +.>.,.>.>.>.#.....;.s.Q.oX[.W.t.` y - & 3 N +.z./.+X;X5X0X0X5X-X(.v.3.O.V 7 4 > y _ t.W.[.oXQ.s.;.....#.>.>.>.;.>.+.G c x A ..9.t.",
"9.>.} V z x S o.<.9.9.<.>.#...@.7.k.(.oX].W.t._ h 6 5 p D 3.c.).+X;X5X0XwX8XXXM.,.#.o.J N 0 8 h _ t.W.].oX(.k.7.@...#.>.<.9.9.<.+.S x z V } >.9.",
"#.+.J V M M S +.,.e.e.9.>.+...;.e.F.!./.^.R.e.@.S M M S +.p.c./.OX:X5XqXwX5XP.d.+.| ..+.J N M S ..e.R.^./.!.F.e.;...+.>.9.e.e.,.+.S M M V J +.#.",
"+.o.J S S S X.>.9.t.t.9.-.o.#.9.l.R.R.Q.c.v.9.-.X.K F L O.>.s.H.}.4XqXiXiX-XK.6.+.}  .X.X.K K L -.9.v.c.Q.R.R.l.9.#.o.-.9.t.t.9.>.X.S S S X.o.+.",
"+.o.X.J J O.>.9.e.y.e.9.@.+.3.z.Q.^.R.k.e.9.,.>.+.O.J S S J +.h.%X5XpXpXtXoXH.a.+.J S S S L O.+.-.,.9.e.k.R.^.Q.z.3.+.@.9.t.y.e.9.>.O.J J X.o.+.",
"+.+.o.o.+.>.9.e.y.y.e.:...+.4.B././.T.e.:.@.+.+.#.+.J V M p j +.M.4XfXgXtX/.z.p.+.S M M V J +.#.+.+.@.:.e.T././.B.4.+...:.e.y.y.e.9.>.+.o.o.+.+.",
"+.+.+.+.#.9.e.y.u.y.e.;...o.4.V.oX].T.w.-. .J J X.X.L V x 7 1 d 4..XhXlXyX/.b.$.k a q x N J X.X.J J  .-.w.T.].oXV.4.o.o.;.e.y.u.y.e.,.#.+.+.+.+.",
"+.+.+.+.#.,.e.y.u.y.e.;.o.o.4.V.oX].R.w.-.J V N V S F C M 5 % t o.XXhXlXsX/.q.( r , 7 M V F S V N V J -.w.T.].oXV.4.o.o.;.e.y.u.t.e.,.#.+.+.+.+.",
"+.+.o.o.+.>.9.e.y.y.e.:...+.4.B./.).R.e.-.S M x x M V C M < @ * H L.fXlXdX/.C.f * & 5 M Z V M x z M S @.e.R.)./.B.4.+...:.e.y.y.e.9.>.+.o.o.+.+.",
"#.+.X.X.J X.-.9.e.t.t.9.-.>.p.x.Q.W.l.9...S M q q x B Z M 4   & A G.pXlXdX/.$.f & & 3 M V B x q z M S ..9.l.W.Q.x.p.>.;.9.e.t.e.9.-.X.J J X.+.#.",
"#.o.X.S V S X.>.9.e.t.e.9.9.0.j.l.k.e.;. .A M x x M B B M 3 & 4 K G.qXdXyX/.p.a 4 4 e v B B M x z M A  .;.e.k.l.j.e.9.9.e.t.e.9.>.} S V S X.o.#.",
"#.+.J V M M G +.,.9.e.e.e.e.e.e.e.9.,.+.J V M M M M M B M q 9 M 1.L.5XsX,X/.a.X.M w w M B M M M v M V J +.,.9.e.t.e.e.e.e.e.9.,.+.G B M V J +.#.",
">.#.X.V M B G o.>.,.9.e.t.t.t.e.9.,.+.L F B M x x M M N V S F %.N.P.5XuX;X}.H.6.%.K S V N M M x x M B F L +.,.9.e.t.t.t.e.9.,.;.+.G B M V L +.>.",
">.#.X.V M V J +.#.#.>.<.e.t.t.e.<.+.L Z B M x z z x M V J +.4.M.U.*X5X6X5X-X}.K.M.4.+.J V M x z w x M B Z L +.<.e.t.t.e.<.>.#.#.+.J V M V X.#.>.",
"#.+.J V M N J +.+.o.+.>.9.e.e.,.+.G V M M M M M M M N G +.p.c./.OX;X5X0X0X5X;XOX/.c.p.+.G N M M M M M M M V G +.,.e.e.9.>.+.o.+.+.J N M V J +.#.",
"O.} S p 0 i A } X.X.+.>.9.r.,.| j u 6 8 i N S S S S G  .,.j.!.$X,X;X5X0X0XqXiX,X$X!.j.;. .D S S S S N q 8 6 u j | ,.r.9.>.+.X.X.X.A i 0 p S } O.",
"F V a 6 , 6 i V L X.+.,.p.<...d , $ $ - u j X.+.+.X...-.9.v.^.$X+X;X5X0XrXfXiXyX$X!.v.9.-...X.+.+.X.j u - $ $ , d ..<.p.,.+.X.L V i 6 , 8 p V F ",
"C M 8 2 * - 6 M F X.+.>.>.+.l r * . . * r k +.>.+.+.@.:.e.l.R./.OX-X5XwXfXfXiX#X/.R.l.e.:.@.+.+.>.+.k r * . . * r l +.>.>.+.X.F M 6 - * 2 8 M C ",
"C M 8 - # $ 5 v T L X.X.{ j s 6 > % % : u j X.X.J J ..7.t.u.l.Q._.-XqXfXkXfX7X}.Q.l.u.y.9...J J X.X.j u : % % > 1 s j { X.X.L T M 5 $ # - 8 M C ",
"P M 8 - # * 8 M T K F g s r 1 8 0 8 8 8 i g V N M N J <.t.y.y.k.~.-XpXkXkXfX-XJ.k.y.u.u.9.} N M N V g i 8 8 8 8 8 1 r s g F K T M 6 * # - 8 M P ",
"C M 8 2 * - 8 M C C M 8 - * : 8 M B B M M M M x z M J ,.e.i.8.e.J.:XfXjXfX5X_.F.e.w.i.e.,.J M z x M M M M B B M 8 2 * : 8 M C C M 8 - * 2 8 M C ",
"i 8 6 < > , 6 8 0 q 8 > + X * 1 p B C C C B M M N F O.,.9.7.] w.~.7XhXkX9X XD.y.w.7.:.>.+.J S V N M B C C C B p 1 $ X + > 8 q i 8 6 , > < 6 8 i ",
"- 2 < 7 9 7 , - - 2 2 - + X + = 1 q M C Z F G } ..-.>.,.,.;.] w.~.9XkXfX&XD.y.y.w.;. .J J ..-.@. .G F Z C M q 1 * + X + - 2 2 - - > 7 9 7 < 2 - ",
"O * < z b n 5 * # # * * * * # # * 2 8 M Z J +.,.e.e.9.>.+...' e.'.9XfX6X~.e.8.i.e.-.S M S -.e.t.9.+.L Z M 8 2 * # # * * * * # # * 5 n b z < * O ",
"+ - 7 b U I z < $ + # - , 1 , = # + > 8 g  .,.t.u.u.9.+.J D ` 9.~.6XpX-Xx.;.' 7.9.+.B z A ;.u.Y.y.,.} g 8 % + # = , 1 , - # + $ < z I U b 7 - + ",
"; 7 v U E E I z < % # 2 8 p 0 , # . X - s | 9.u.Y.u.<.X.V N k >.H.:XqX.Xd.| ` @.>.X.M x S ;.u.Y.S.9.| s - X . # , 0 p 8 2 # % < z I E E U v 7 ; ",
"n b I W ~ ~ R b 7 - * , 0 M p 6 * . . * y _ e.S.S.e.-.D M p g +.M.*X5X.XN.+.} ..+.J N M S @.e.S.S.e._ y * . . * 1 p M i , * - 7 b R Q ~ E I b n ",
"I U E ~ ~ Q I z < - * 2 8 q 8 , * + $ 2 d @.e.u.y.<. .V M q g o.g.XX5X*XK.p.#.#.o.G N M A  .<.y.u.e.@.d 2 $ + * , 8 q 8 2 * = < z I Q ~ ~ E U m ",
"W E ~ ^ ~ W M < * # * - > , 2 - * % ; 8 D ;.e.y.0.>.J N M p j o.g.XX5X7X}.B.a.>.o.S M M V J >.0.y.e.;.D 8 ; % * - > , > - * # * 5 M W ~ ^ ~ E W ",
"Q ~ ^ ^ ~ U 0 * X # * - * * # # * > 7 M L <.e.e.9.+.F N M g j +.g.|.5XtX;X/.c.p.+.S M M N G +.9.e.e.<.L M 7 > * # # * * - * + O * 0 U ~ ^ ^ ~ Q ",
"~ ^ ^ ^ ~ P 6 O o X * * # X X # * < w C O.<.e.0.,.X.F N M g S +.g.|.5XiXyX$XQ.a.+.S M M N S X.,.0.e.<.O.C w < * # X + # * * X o O 6 P ~ ^ ^ ^ ~ "
};
