/* XPM */
static char *result[] = {
/* columns rows colors chars-per-pixel */
"72 72 219 2 ",
"   c #4B0611",
".  c #4D0A15",
"X  c #4E0E19",
"o  c #510F19",
"O  c #45111F",
"+  c #4E121C",
"@  c #51141D",
"#  c #50181F",
"$  c #4D1A25",
"%  c #4E1B24",
"&  c #511720",
"*  c #531B23",
"=  c #561E27",
"-  c #4F272D",
";  c #552027",
":  c #5A2127",
">  c #54242A",
",  c #5A252B",
"<  c #55292E",
"1  c #59292E",
"2  c #562730",
"3  c #542C32",
"4  c #5A2D32",
"5  c #553236",
"6  c #5C3235",
"7  c #563539",
"8  c #5D3639",
"9  c #563A3C",
"0  c #5D3A3D",
"q  c #602629",
"w  c #632C2D",
"e  c #68302F",
"r  c #643334",
"t  c #6A3434",
"y  c #6C3B37",
"u  c #633938",
"i  c #623C3D",
"p  c #6C3D3B",
"a  c #773B36",
"s  c #733E3A",
"d  c #66403F",
"f  c #6B423D",
"g  c #74443D",
"h  c #7A453C",
"j  c #744B3E",
"k  c #7E493F",
"l  c #5C3E41",
"z  c #613F41",
"x  c #574445",
"c  c #5C4344",
"v  c #5B4748",
"b  c #574A4B",
"n  c #5C4B4B",
"m  c #5C504E",
"M  c #5F4E50",
"N  c #5D5151",
"B  c #5D5959",
"V  c #634343",
"C  c #6A4543",
"Z  c #644847",
"A  c #6D4944",
"S  c #61464A",
"D  c #644B4A",
"F  c #6C4D49",
"G  c #724641",
"H  c #744B45",
"J  c #7A4E45",
"K  c #734F48",
"L  c #794E48",
"P  c #68504F",
"I  c #775044",
"U  c #7D5146",
"Y  c #76524A",
"T  c #7C5349",
"R  c #664E53",
"E  c #635455",
"W  c #695554",
"Q  c #685659",
"!  c #655858",
"~  c #645C5B",
"^  c #6A5B5C",
"/  c #64615F",
"(  c #6B615F",
")  c #695E60",
"_  c #5E6362",
"`  c #656361",
"'  c #6B6464",
"]  c #6A6966",
"[  c #656A69",
"{  c #6C6C6B",
"}  c #716E6D",
"|  c #6E716E",
" . c #71736E",
".. c #6E7573",
"X. c #6D7A75",
"o. c #6C7878",
"O. c #727473",
"+. c #737A76",
"@. c #757C7A",
"#. c #787F7C",
"$. c #834A3F",
"%. c #83523E",
"&. c #824D42",
"*. c #825446",
"=. c #8C5543",
"-. c #855845",
";. c #8D5B44",
":. c #845549",
">. c #895749",
",. c #85594B",
"<. c #8C5A4A",
"1. c #915D46",
"2. c #955849",
"3. c #915D4A",
"4. c #8A5D50",
"5. c #9A5F50",
"6. c #8E604A",
"7. c #946146",
"8. c #9B6445",
"9. c #9E6947",
"0. c #95624B",
"q. c #9B644A",
"w. c #9E694B",
"e. c #8C6153",
"r. c #956452",
"t. c #9D6652",
"y. c #986B57",
"u. c #9E6955",
"i. c #A46B45",
"p. c #A36948",
"a. c #A36B4A",
"s. c #A96F4B",
"d. c #AB7146",
"f. c #A6704D",
"g. c #AC724A",
"h. c #B1764C",
"j. c #B5784B",
"k. c #B4794D",
"l. c #A26956",
"z. c #A46B54",
"x. c #AA6D54",
"c. c #AB7153",
"v. c #A97759",
"b. c #AC745B",
"n. c #B27552",
"m. c #B47A53",
"M. c #BA7C55",
"N. c #B2765B",
"B. c #B8775C",
"V. c #B4795C",
"C. c #BB7C5B",
"Z. c #AB7A60",
"A. c #B47B61",
"S. c #BC7E62",
"D. c #76827D",
"F. c #78837E",
"G. c #BE8156",
"H. c #BC825B",
"J. c #BE895F",
"K. c #B48365",
"L. c #BD8063",
"P. c #BE8A60",
"I. c #BA8669",
"U. c #C3835C",
"Y. c #CB895E",
"T. c #C48463",
"R. c #C98764",
"E. c #C38C63",
"W. c #CB8A64",
"Q. c #C58768",
"!. c #C78B6B",
"~. c #CD8B6B",
"^. c #D08E66",
"/. c #D28E6D",
"(. c #CA936B",
"). c #CD926E",
"_. c #D4926D",
"`. c #DA946F",
"'. c #C28D70",
"]. c #C59674",
"[. c #CD9574",
"{. c #CC9B74",
"}. c #D29572",
"|. c #D49B75",
" X c #D69D7A",
".X c #D99B78",
"XX c #CEA176",
"oX c #D1A478",
"OX c #D4A37C",
"+X c #DAA37D",
"@X c #E0A077",
"#X c #758484",
"$X c #798681",
"%X c #768983",
"&X c #7A8B84",
"*X c #748788",
"=X c #768A89",
"-X c #7A8E8A",
";X c #7C928A",
":X c #7B948A",
">X c #7A9591",
",X c #7C9B93",
"<X c #7E9C99",
"1X c #7FA29B",
"2X c #80978E",
"3X c #809990",
"4X c #D4A481",
"5X c #D5AC83",
"6X c #DBAB84",
"7X c #D6B086",
"8X c #D9B187",
"9X c #D7B289",
"0X c #DAB289",
"qX c #E6B08A",
"wX c #E2B48B",
"eX c #E7BC93",
"rX c #EBC398",
"tX c #F4C89D",
"yX c #F7CDA1",
/* pixels */
"*X*X*X*X*X*X*X*X=X>X,X,X,X,X1X1X1X1X<X>X#X[ _ _ _ _ o.*X>X<X1X1X<X<X,X,X,X,X>X>X,X,X,X,X,X,X>X>X>X=X=X-X=X>X,X,X<X,X,X,X<X,X>X=X*X*X*X*X#X#X#X@.",
"*X*X*X%X#X#X@.*X*X>X,X,X,X,X,X,X,X>X-X*Xo.[ _ B _ _ [ o.#X-X>X,X,X<X,X,X>X,X>X,X<X<X,X,X>X*X*X@.#X*X#X*X#X*X>X>X,X,X,X,X,X,X>X=X*X*X#X#X#X#X#X*X",
"*X*X%X#X@.@.@.@.#X-X>X,X>X:X:X=X%XD.@...[ ) B N b M B ) { ..D.%X=X>X>X>X,X,X1X,X3X1X3X2X#Xo.{ { { o.} } o.#X*X:X,X,X,X3X,X:X-X#X@.o.@.@.#.#X#X#X",
"-X&X#X#.O.O.} +.@.#X-X;X-X$XD...{ ] / ^ ) B n x l 7 7 l n E ` { D.D.%X-X:X:X:X:X3X3X>X2X..Q S S R ) _ ) ` [ +.$X:X:X2X:X:X:X%X@.O.O...+.@.#XF.$X",
"-X&X$X@.O.{ } O.#.$X&X$XF.+.{ ~ N n Z Z Z Z V 8 2 $ * * > 4 x m / {  .D.F.F.:XF.2X$XF.O.^ 0 < 1 l z R n M ! ] O.F.F.D.;X;X&XF.#. .| |  .D.D.F.F.",
";X&X$X#.+.O.O.#.F.$X$X$XO.] ! n x 0 i d f A C u 4 * X X X & - 7 c D W ]  .D.D. .} ' ( Q z 3 & ; r z G z v S ! ^ ] | ..@.F.&XF.D.D.D. .+.D.>XK.F.",
";X;X&XF.#.D.D.F.$X&X$X+.[ ! n l l 0 f G J &.J G z 4 = + X @ * < 4 4 0 D / ( / P S z z l 4 2 < r z z &.J H F F W E B B { +.$X&X&XD.D.D.D.D.D.F.2X",
";X&X&X&X&XF.F.&X$X#.O.{ ~ N v x V A J >.<.<.-.U C z 4 = * & * = = * > 6 n m m 9 2 * * > 2 7 8 A &.>.2.4.,.U F Z v n E ~ ] O.#.F.D.:XD.%XD.:X2XF.",
";X:X;X;X;X&XD.#.O.' ^ R n v c V G T e.t.l.5.1.*.J A i 3 > * # # @ @ & 1 7 9 5 ; @ + + ; 3 i A T <.3.q.z.l.e.T G C Z F P W ^ ) } D.F.F.&X&X:X:XF.",
";XF.;X;X&XD.X.[ ! Z 0 0 l c Z C L 4.l.N.N.p.8.;.*.I C 0 5 < # # @ @ @ = 2 2 > & + + * 3 i A L >.7.8.s.B.N.l.<.J I U T H i i c E ` +.D.:X:XF.:XF.",
"F.:X:X:X&XD.[ E l 3 > < 6 c Z H >.t.A.T.T.M.s.9.1.-.Y A i 6 ; % @ @ * * = $ * * # ; 3 i C L >.3.8.s.M.U.Q.A.r.>.-.,.,.j r 2 2 l m ] +.&X;X2XF.F.",
"F.;X:X:XF.| B l 3 ; ; < 6 V A J 2.x.S./.`.W.U.V.v.t.0.U j u < - & O O + $ = $ $ > 4 i F K *.>.3.a.n.U././.L.b.3.,.,.*.h r ; $ - 9 ! { $X;XF.F.:X",
":XF.:X:XF.' S 3 ; > 1 8 0 V C J 3.x.T.`.@X+X X].I.A.x.8.%.j f 3 $ $ X & $ - 2 3 4 u G L *.:.>.0.c.H.W.`._.Q.b.3.*.J H f u 4 > $ < l ' #.=X:XK.F.",
":X:X;X&X+.Q 8 = ; 4 i c V V C J >.l.B.~..XwX0X6X}.Q.C.n.9.6.j d 3 $ * = 4 z l l i A J :.>.:.<.t.N.R._.`.~.C.z.<.U A C Z V i 4 = = 7 R O.D.=X>X:X",
":X;X&XD.{ S 1 * ; 6 V Z Z V d H T <.5.Z.'.4XqXqX.X_.~.W.P.K.y.T z a a a J :.Y F C H T <.<.1.3.x.S.~.}.~.I.b.0.T H d C Z D V 6 ; & 3 c [ D.D.:XF.",
":X:XD...~ l > # ; 8 Z Z Z V d A H H L 4.Z.'..X4X.X_.`.oXOX].K.l.5.2.2.5.l.l.r.,.J H *.<.1.1.p.m.Q.~.~.S.z.0.:.H C C Z D D Z u ; # - 9 B X.D.F.F.",
"2X;XD.[ N 5 ; # : 6 d Z c V V C C z C F e.A.[._./.~.}.6XwX4X[.Q.S.B.S.T.Q.L.b.t.,.*.:.<.3.8.s.M.R.~.T.b.3.*.H C V 0 C Z Z V 6 : & * 5 n [ @.F.2X",
"3X&XD.[ b 3 % # * 1 8 d V d d c d l 0 A <.b.T.Y.U.U.(.OX6X6X X}.~._.}.|.|.[.Q.N.t.2.<.<.1.7.s.M.U.R.C.z.3.J A V 0 8 8 u 0 8 1 = + $ - v / o.F.2X",
"3X&XD./ x - # # @ ; 1 8 0 d z d z d C I 3.x.m.M.M.M.H.)..X.X4X+XOXOX+X+X+XOX}.E.A.l.3.3.<.3.w.g.M.M.n.z.3.J A V 8 6 < 1 4 1 = @ @ & - x / X.F.2X",
",X;XD./ m 5 - # @ @ * 1 8 V c V V d I :.3.s.h.h.g.n.M.T.}..X+X4X5XOX5X5X5X5XoX}.Q.N.w.3.*.>.<.q.s.n.s.p.3.L F V 8 < = * = = * @ * $ 3 v / +.&X:X",
",X;XD.{ E x 7 < % + @ ; 6 V Z Z Z A L :.3.q.a.s.g.m.C.R.). XOX5X5X5X5X5X5X5XOX+X/.S.t.>.J G *.<.q.a.w.7.,.Y F V 8 > @ @ X @ @ * > 5 c N | F.F.2X",
":X:X%XO./ E n 9 3 + + = 6 V Z Z Z C F Y :.<.7.a.n.C.R.).{.OX5X5X5X7X5X5X5X7X9X8X X'.l.>.G A H U <.7.7.:.Y F F Z u < & o X @ % < 0 b ! ] +.F.F.2X",
":X;X&X#.| ( E x 5 * & > 6 V Z Z z z V C A *.<.z.B.R._.OX5X5X5X5X5X5X5X5X4X7X0X0X4X].v.4.G f C H *.<.<.J C V Z V 8 < & @ @ & ; 5 c N ^ } +.F.&X&X",
"%XF.$X$X+.( E c 3 < 1 1 4 8 0 u 8 6 6 6 u j <.z.S.~.|.6X5X5X7X5X4X5X5X5X5X5X9X9X5X{.K.l.*.H F T <.<.*.s 8 7 8 8 4 > * & ; > 3 5 0 v ~ ]  .D.F.F.",
"+.#.D.$X@.) S 3 3 4 8 8 4 1 1 1 < > ; > r g <.x.S./.|.4X9X7X5X5X5XOX5X5XOX5X7X9X6XoX'.V.t.,.U :.<.<.&.t < = < < : * & > 4 8 6 3 3 9 v ~ { O.+.@.",
"+.@.@.@.O.! 6 = > 4 i u < = & = = & $ = 1 g >.z.S.~.|.+X5X5X7X5X7X7X5X5X5X7X7X7X5XOX|.Q.N.r.>.>.<.<.$.r = % & = * @ & > 8 u 6 1 * - 7 n / { O.+.",
"#.@.#.+.{ Z 3 & * 1 8 6 < & @ @ & & * > 4 p T 0.N.Y./.|.OX5X8X7X7X7X7X9X9X8X7X5X4X+X.X~.B.t.>.*.:.T G t > & * & @ @ & , 6 8 4 ; # % 5 x / | +.#.",
"-X%X@...~ l < # * > 1 < = @ + @ & * 1 4 8 i H ,.a.M.W._.|.4X6X9X9X7X9X9X9X9X5XOX|.|.`.~.S.l.>.J J H C u 6 1 = & @ @ & > 1 1 , * $ ; 3 b / O.D.&X",
"-X-XD.[ N 7 - # @ * = = * @ @ @ & > 6 u l V C J 7.g.G.R./.|.OX7X7XOX7X7X6X7XOX{.~././.~.S.z.<.L A C V V i 4 > & @ @ * * = = & @ & ; 5 x / O.F.2X",
"-X$Xo.` x 5 ; # @ @ @ * * * @ @ @ > 6 c V Z C J 6.a.g.M.U.Q.(.XXoXXXXXoXXX{.].R.Q.R././.Q.V.u.>.J C Z Z V 8 > & @ @ # * & # @ @ @ % 3 x / O.#.$X",
"$X#...~ x 3 ; + o @ @ & * # @ @ @ > 6 i Z K L *.<.7.a.x.N.G.H.J.E.E.P.P.P.P.H.m.M.U.Q./.~.Q.V.l.<.L A Z V 7 ; & + @ * & = @ @ @ + % 3 c ~ | +.#.",
"#.@.| ) n 7 - # @ @ * * * @ @ @ & > 6 c F L :.>.<.<.7.s.g.k.m.m.h.G.k.v.G.m.k.g.h.M.T.~././.Q.V.t.,.J A V 6 < & @ @ & & & & @ @ % ; 5 b ~ { O.@.",
"F.+...] E c 5 < ; & & * & & & = = 4 i C J =.;.1.;.3.p.g.M.M.h.s.9.7.9.9.d.h.d.d.g.g.M.T.~._.~.S.x.7.*.J C i 4 , * * & & @ @ @ & > 3 l N ` | +.@.",
"#XD.#.O.` E v 9 3 = & @ & & = 2 4 i C T *.1.8.8.%.7.x.C.U.G.x.q.6.j U 6.9.d.h.d.g.g.n.m.T.~.~.Y.n.i.;.*.U A i 6 1 ; & @ @ @ % ; 3 l m ) | +.#.F.",
"-X-X#X+.} ( N c 5 > & @ @ & > 3 z C J :.7.a.d.i.d.h.B.U.R.S.b.3.j j A I 7.f.j.h.d.g.g.n.M.R.~.T.m.g.9.7.,.U A d 6 ; * @ @ * ; 5 c M ^ { +.$X$X&X",
";X-X&X#.O.] B b 7 < & @ @ @ > 5 i F J ;.a.b.H.H.G.M.G.T.T.A.y.,.I 9 0 j 6.f.k.j.g.d.d.d.M.T.~.~.T.m.g.a.7.,.F d 5 ; & @ * > 7 x E ` { +.F.#X&X&X",
";X&X&XF.O.' E v 7 - # @ o @ ; 5 l f %.8.n.E.XX|._.Y.U.C.b.u.e.Y i 3 1 t k q.g.h.h.d.d.h.M.T.~./.R.U.M.h.p.1.Y c 5 $ & * > 9 b E / { +.F.&XF.&X&X",
";X;X&XF.O.] ! n 9 - # o @ & ; 5 V J %.s.P.OX0X0XOXR.B.z.0.,.Y C 6 = = w h ;.w.f.d.d.d.d.m.U.~././.!.U.M.g.7.U V 5 = & = 3 v N ) | o.F.&X&X&X&X&X",
":X&X&XD.O.| ] ! c < * @ & > 3 8 C U w.H.|.wXeXeX XS.z.=.J g i u < * * , p T e.w.p.p.p.a.g.C.T.~.~.~.R.M.g.8.U C u 2 > ; 3 l E ' X.D.*XK.&X;X&X&X",
";X-X&X$XD.#...] D 6 * # ; 4 8 i I e.K.{.wXrXeX0X'.b.=.a t w 1 < * & # : u H T 6.7.q.q.0.w.g.M.T.!.~.R.M.g.w.6.U z z 5 - > 5 l ) o.*X>XF.2XF.&X&X",
":X&X&X&X&X&XD. .R 4 * & 3 i C A ,.z.I.0XtXtXrX4XI.r.h e : * = * * & & > 6 C Y ,.<.3.3.3.7.i.g.H.R.~.R.M.d.i.7.>.L H i 1 * ; 8 E } $X$X&X&X&X&X&X",
"&X:X;X&X&XF.@.{ M 2 & = 6 C H %.;.K.oXrXyXtX0X{.Z.r.g , @ @ @ # & & & ; 5 V F :.<.3.<.>.1.8.g.M.W./.~.G.g.i.8.1.4.T A 6 * @ 2 S ' +.#.$X$X$X&X&X",
"&X&X:X;X&XF.| / x > @ , p J *.%.q.K.5XrXtXeX6X).Z.0.g q @ + + & & @ & ; 5 i F :.>.2.<.<.1.8.s.M.W./.W.H.h.d.i.9.0.e.U y = & = l ~ [ O.+.F.&X&X&X",
"-X:X:X-X&XD.] m 7 * * , s :.<.8.g.J.oXrXeX6X}.S.z.;.h w # @ @ # & & & > 5 V H T >.<.<.<.3.8.d.M.R.~.T.M.g.d.i.g.z.0.,.s q * $ 5 n ~ { O.#.$X&XF.",
";X;X;X;XF.+.( v 5 - $ w h 1.a.d.V.P.].4X.X[.S.l.2.$.y 1 , = & @ @ @ & < 8 V H T *.:.>.<.3.p.h.M.C.L.V.c.s.g.h.n.n.c.1.k r ; > 5 c ! ' O.F.&X2X&X",
";X&X;X-XD. .^ c 5 3 7 p %.7.n.M.T.Q.I.K.S.A.l.2.a e w r 6 4 > & o + & 1 8 V Z F G L L <.5.s.g.h.c.x.t.q.q.c.C.T.U.m.9.%.y 6 3 7 c W ' O.F.F.F.&X",
";X&X&X$X+.' W V 0 8 i j ;.s.G.Y.R.S.b.t.r.r.r.&.e = < 6 u u < & X + & > 8 V Z Z C A L >.7.s.d.s.a.0.<.*.<.z.C.R.W.G.g.;.j i 0 0 V P ^ O.#.F.&X&X",
":X&X$X+.] ! D V l l C T w.h.U.^.T.N.3.:.*.<.<.k e > < 8 z l 5 ; & + & = 1 u 0 0 z A *.<.q.p.p.a.0.<.*.J :.r.b.T.Y.Y.m.a.:.F l 0 V D Q ' +.F.$X$X",
"&X#X@.{ ~ n c l z C J e.v.U.Y.Y.H.f.T H J -.<.&.p 4 6 0 l z 8 6 > * & & = 1 5 8 z A *.<.3.q.q.7.0.3.*.G F -.z.G.Y.W.T.b.r.U C d d c b ! [ +.#.$X",
"#.+.| ) R c c V C G :.t.B.R.W.U.k.7.I C F T <.:.G i 0 l V V C 0 6 > & + @ * < 8 z F *.>.3.3.3.3.3.<.L C C J 7.g.U.W.R.S.z.,.H C V c c m ~ { O.@.",
"..[ ` ! v c z C H &.3.c.L.~.W.G.f.%.j c V H *.T H V V V F H H C i 6 > & + + ; 5 V F L *.>.<.<.3.<.:.K z c j -.i.M.U.T.C.x.7.*.J A V v v E / ' } ",
"` ) ! n c V G L -.;.a.N.Q./.W.B.w.k d l z A H G V V C H T :.:.U H i 6 ; + + * 6 i Z F G J >.<.>.*.H V l 0 f U 5.g.n.M.m.c.w.7.-.U H C v D B ~ ~ ",
"B B N v V C J >.3.8.d.M.W./.S.c.3.U f C d V C V z V C L :.<.<.:.U H d 3 * & > 6 V Z V Z H *.>.:.L C z l V A L 3.q.f.g.j.h.g.9.7.>.J A V v n n N ",
"N N b v z A L <.q.p.d.M.U.R.C.z.<.U J A C C z c V V C H U <.3.1.<.Y F 8 1 > 1 u z V z z A T :.T A V z V G J *.>.7.a.g.j.j.d.s.w.<.&.p u 0 x b m ",
"N m b c V G *.2.q.s.h.k.G.M.c.t.<.*.*.*.J C V V V Z V C H *.7.w.q.<.J f 8 8 8 i i V V z C H L H V V C H T *.:.>.7.a.d.j.j.h.g.t.3.k t 1 5 9 b n ",
"N m n c V C J <.q.a.d.h.k.n.a.q.<.>.>.*.U F V l c d l l V U q.s.s.q.<.H f d 0 0 V V V V V C Z z z V A J :.>.>.<.3.a.g.j.d.g.f.w.<.g w ; < 9 v N ",
"m n v c z C H &.<.q.s.s.d.s.a.7.0.<.,.*.J F V 0 0 u 8 z A -.9.g.g.s.7.:.F i l c V V V V i u 6 0 0 z C L *.>.<.3.0.a.s.s.s.s.a.r.:.p , & > 7 x N ",
"b b c v V V C H U 1.q.w.q.q.w.0.<.<.T H A C V 8 4 1 4 p I 6.f.g.j.g.w.;.H V l 0 V V V z 0 4 < 4 8 z Z C H T ,.3.0.0.q.q.p.8.0.,.L p , * > 7 x N ",
"N m n Z V z z C J :.<.3.3.<.<.3.<.*.H C C Z V 6 > = q s *.w.w.g.j.h.d.7.J V l l V C Z V 6 > = 1 6 V Z V C K *.>.3.3.<.3.7.<.,.Y C 4 = * > l x N ",
"` _ E D i i l V A H :.:.:.*.&.&.J g f V Z Z V 6 = & , p *.e.t.s.h.j.d.q.*.H z z z Z Z V r > & = 6 V Z Z V z G h &.*.:.,.,.:.Y A u > + + - l M ~ ",
"D...` E z u z Z C A H H K H p y t r i Z D D Z 6 = & > u J ,.<.w.s.j.h.p.;.U A d V C Z Z 8 > & = 6 Z D D V i t t t f L Y Y L C i 2 * . X 2 Z ^ { ",
":X%X| ^ z u 0 V V V Z C F V u , : , u i D A V 6 ; * = 4 V K T 3.q.s.d.s.q.,.J C V Z Z V 6 ; & = 4 V Z Z V 6 , : , u C F F Z u 4 = o . & 8 E } +.",
"3X;XD.] R i u 6 u z V D D V r > % & 1 8 d i 8 4 * & $ < 8 C H U 1.q.p.p.q.<.U F V 0 0 u 4 = * > 1 8 d i 8 4 * & = 1 r l z 8 4 = & o & 4 R ' O.F.",
":X:XF.+.) V 4 1 1 8 Z R F S 6 > & @ = < 6 6 4 > * & & = 1 6 i G U <.3.q.q.3.*.H z 0 6 4 > = * ; > 4 4 6 4 > * & & = < 4 4 3 * @ @ = 4 S ' O.#.&X",
":X:X&XF. .R 4 ; ; 6 z D F d 8 ; & @ & ; = * = * & & @ # * 1 8 C L :.<.0.3.<.T K V 6 1 = & & & * * = = * = * & * & = = ; ; = @ + # 4 D ' @.$X$X&X",
"F.;X;X&X@.^ 0 > * > 6 0 0 8 6 > * @ @ @ @ . . @ * * # @ @ ; 5 V P 4.<.3.<.:.T F Z 7 = + . . o o o . o o + & & & * & @ # @ @ + + ; 0 ^ +.$X&X&X&X",
":X&X:X;X&X{ n 5 ; ; > 1 1 1 , ; & @ @ @ .     @ ; , ; @ + % 5 V Y 4.3.<.*.H F F Z 8 * X             . . o @ & & * & @ @ @ @ X % 3 b ] D.&X2X&X&X",
"&X:X:X:X&X..~ c 5 > = * * ; * & & & & @ @ @ # < 8 i 6 > & * 3 V H ,.<.:.H C V Z V 8 < & @ @ * @ * & & * * & & & & * & & @ & * 3 x !  .&X&X;X&XF.",
"&X-X&X&XD.+.' ! c 7 < * & & @ @ & * ; < 3 5 i D W W D u < > 3 6 p g h j A V 0 0 6 r l 6 l l z z V 0 8 5 2 = * * & & & * * < 6 c E ' O.F.F.&X&XF.",
";X-X&X$X#.O.{ ] ! v 7 3 ; @ @ @ & ; < 7 c E (  .+. .^ F 8 1 > 1 q w r t i l 8 3 1 4 z R ) Q ( ( ] ( ! v 0 - = * @ @ & * 3 7 v ! ' } O.#.F.&XF.2X",
":X;X&X#.@.O.O.{ ] B c 7 > & o @ * > 5 c E ] @.F.2X+.} W i 4 > = * & : w i V 7 - = 3 R ) } @.@.O.D.@.| ! x 5 > & @ o % ; 5 c E ` { O. .O.D.F.F.;X",
";X;X#X@.} } O.O.{ / n 9 < * @ @ & > 5 b / X.&X2X>XK.+.^ Z 4 > & O X & 1 i i 5 - & 4 R O.F.&X2X2X2X&X+.[ n 7 > $ @ @ & > 5 b ~ ]  .O. . .+.F.F.2X"
};
