/* XPM */
static const char *wall_17[] = {
/* columns rows colors chars-per-pixel */
"72 72 220 2 ",
"   c #4B020E",
".  c #4C0612",
"X  c #4D0A16",
"o  c #4D0E19",
"O  c #460715",
"+  c #500E19",
"@  c #4E121C",
"#  c #4F181F",
"$  c #51141D",
"%  c #4C1622",
"&  c #4E1B24",
"*  c #511720",
"=  c #531A22",
"-  c #571D26",
";  c #4F2127",
":  c #4D212A",
">  c #542027",
",  c #592127",
"<  c #55242B",
"1  c #58252B",
"2  c #54292E",
"3  c #5A292E",
"4  c #552C32",
"5  c #5A2D32",
"6  c #532530",
"7  c #543236",
"8  c #5C3236",
"9  c #55353A",
"0  c #5D3539",
"q  c #563A3D",
"w  c #5C3A3D",
"e  c #4E2B35",
"r  c #642D2D",
"t  c #65292A",
"y  c #603738",
"u  c #613C3D",
"i  c #673837",
"p  c #783B34",
"a  c #6B413D",
"s  c #74433D",
"d  c #7A453D",
"f  c #7C493F",
"g  c #563C40",
"h  c #5D3E41",
"j  c #523641",
"k  c #613F40",
"l  c #5D4244",
"z  c #5C4648",
"x  c #5A4A4A",
"c  c #554444",
"v  c #5F4F50",
"b  c #5C5352",
"n  c #634343",
"m  c #6B4643",
"M  c #664847",
"N  c #6D4945",
"B  c #614749",
"V  c #654B4A",
"C  c #6C4D4A",
"Z  c #734C45",
"A  c #7A4E45",
"S  c #724E48",
"D  c #7A4F48",
"F  c #704541",
"G  c #6A514D",
"H  c #65504E",
"J  c #7C5146",
"K  c #74514A",
"L  c #7C5349",
"P  c #785449",
"I  c #634E52",
"U  c #635455",
"Y  c #695454",
"T  c #69565A",
"R  c #635B5A",
"E  c #6A5B5D",
"W  c #635857",
"Q  c #7F5950",
"!  c #65615E",
"~  c #6B5E60",
"^  c #666462",
"/  c #6C6565",
"(  c #666865",
")  c #6C6B6A",
"_  c #6D6867",
"`  c #716D6C",
"'  c #6C726D",
"]  c #71736E",
"[  c #726F70",
"{  c #6E7470",
"}  c #737473",
"|  c #737B76",
" . c #767C7A",
".. c #787E7C",
"X. c #787779",
"o. c #824B3E",
"O. c #864E33",
"+. c #89533B",
"@. c #A4683F",
"#. c #824E43",
"$. c #894E41",
"%. c #835445",
"&. c #8A5445",
"*. c #845946",
"=. c #8C5B45",
"-. c #835549",
";. c #885749",
":. c #855A4B",
">. c #8C5A4A",
",. c #935E44",
"<. c #925E4B",
"1. c #9B5D43",
"2. c #885E52",
"3. c #945F50",
"4. c #946245",
"5. c #9C6344",
"6. c #9E6946",
"7. c #95624B",
"8. c #9B654A",
"9. c #9D694A",
"0. c #946351",
"q. c #9C6551",
"w. c #9D6B55",
"e. c #8F624D",
"r. c #A16643",
"t. c #A36B45",
"y. c #A46C4A",
"u. c #AA6D4B",
"i. c #A76C46",
"p. c #AB7247",
"a. c #AD734A",
"s. c #A7704A",
"d. c #B2764B",
"f. c #B5784B",
"g. c #BB7C4B",
"h. c #B7744B",
"j. c #A36A53",
"k. c #A86A52",
"l. c #AE7255",
"z. c #AB7559",
"x. c #B37552",
"c. c #B67A53",
"v. c #BC7C53",
"b. c #BB7A5D",
"n. c #B6785B",
"m. c #B06E49",
"M. c #AD7C62",
"N. c #BB7D62",
"B. c #B27D63",
"V. c #C17E5B",
"C. c #C37B57",
"Z. c #C27E61",
"A. c #76827C",
"S. c #78827E",
"D. c #BD8154",
"F. c #BB855A",
"G. c #BD895C",
"H. c #BB8664",
"J. c #C38256",
"K. c #C4815D",
"L. c #C5885D",
"P. c #C48562",
"I. c #CA8562",
"U. c #C28D63",
"Y. c #CB8A63",
"T. c #CE8B6B",
"R. c #C38B6C",
"E. c #D18E6D",
"W. c #D18967",
"Q. c #CB926C",
"!. c #C8956A",
"~. c #D5946E",
"^. c #D5946D",
"/. c #D28F71",
"(. c #CE9471",
"). c #CD9D72",
"_. c #C69875",
"`. c #D29473",
"'. c #D49975",
"]. c #D59C79",
"[. c #DA9E7B",
"{. c #D99975",
"}. c #E09A75",
"|. c #CCA074",
" X c #CFA279",
".X c #D4A37C",
"XX c #DBA27D",
"oX c #D4A579",
"OX c #E3A47F",
"+X c #7A8581",
"@X c #7A8982",
"#X c #7B8D84",
"$X c #7B8C84",
"%X c #7E8E89",
"&X c #778B83",
"*X c #7C9187",
"=X c #7E9389",
"-X c #7F9890",
";X c #80958C",
":X c #80988E",
">X c #829E93",
",X c #84A196",
"<X c #D5A781",
"1X c #DDA582",
"2X c #D6AC84",
"3X c #DAAB83",
"4X c #D9AF88",
"5X c #D7B187",
"6X c #DAB58D",
"7X c #DDBA8E",
"8X c #D9B388",
"9X c #D5AD89",
"0X c #E2AE89",
"qX c #E1A882",
"wX c #E4B48D",
"eX c #E7B48D",
"rX c #E7BD94",
"tX c #EABC94",
"yX c #E9B994",
"uX c #EBC39A",
/* pixels */
"/ ` }  .$X=X=X;X;X%X+X| ( b q > @ + $ = = = @ X X @ > q b ( } X.X.} ` }  .@X#X#X#X#X#X;X>X,X>X&X) b c g x ( A.;X>X;X#X$X#X@XS.} [ ` } } } } [ ` ",
"[ } | S.#X=X*X#X+X..} _ R x 9 < = $ $ = = = = $ $ = < 9 x R ) } } } } | S.#X#X#X#X@X@X#X=X=X#X| ! x q q x ! } #X=X=X#X$X#X#XS.X.} } } } } } } } ",
"S.S.+X@X#X@XA.| } _ E I l q 7 2 < = * $ = = < 1 1 < < 7 q x R ) } } X.S.#X=X=X#X@XA.A.| | } ` E z q 9 q z W ) | A.+X@X#X#X#X@XA.| } } } } } | X.",
"=X=X%X#X+X| ' ( W B w 5 < < 4 8 8 3 = $ = 1 8 y y 8 5 2 4 9 x R ) |  .+X%X=X%X@X..| ) ( R V n 8 2 < 4 0 n H W ! ) | S.@X#X$X@X@XA.| } } }  .S.+X",
"#X#X+X..} / R x 9 < = $ o = 3 u n 0 < = = 8 n V V n 8 > = = 7 x R _ } ..@X#X@X..} / R x 9 < = $ @ = 1 y n n z x b / } ..+X#X*X*X#XS.} } | S.#X=X",
"_ _ / E Y B h 7 ; @ . . o = 8 n M k 5 < 2 0 M G Y M 8 = + @ ; 7 l B T _ } | | } / W z 7 & o . . $ = 5 y k h q q z U / } A.#X=X:X=X#XS. .A.@X*X=X",
"w w w 0 8 5 2 > # X X @ = 5 w n n n 0 8 9 w n C G n 8 = + o % > 2 5 8 l U ^ ( ( R z 9 > @ X o $ 1 8 u k h w w w l z U ( | +X=X;X=X*X@X+X@X@X#X*X",
"= = = = * = = = $ $ = 1 0 n n n n n n n n n n n n n 0 1 = $ * = $ $ = < q x b b x w 2 = + + = < 0 n n n n n n n l l x U / } ..@X#X#X#X#X@X#X#X#X",
"= $ $ o X X $ $ = = 3 y m K C n n n N S S m n n n h w 8 1 = = $ + X o % < 7 q q 9 4 = $ + $ = 4 w n C C N m m n l l l z B Y ~ ) | A.@X@X#X@X@X@X",
"8 5 < = X X + $ = 2 0 m L -.L m n m L -.L Z n h h h h u 0 5 > $ + o @ $ = > < < < > = $ $ $ = < 9 n C L %.A m h h l l 0 5 5 w b ( ' | S.+X@X@X@X",
"M n 0 3 = o $ = 1 8 n K :.>.%.N n m %.>.-.S n h h n n n n 0 1 = $ $ = = = = = = = = = = $ $ = > 8 n K :.>.%.Z n l n n 8 < = = 7 x R / } ..@X#X#X",
"G V n 0 < = $ = < 9 n P >.<.%.m n m -.>.-.m h h n Z S C n 0 1 * $ * = = = $ $ $ $ $ = = $ @ $ < 8 m L :.>.;.J S m m n y 1 = = ; 7 l U / | +X#X=X",
"M n n h 9 < = = < 8 n P e.<.%.m l m -.>.-.m h k Z -.L K n 9 > $ $ $ = = = * $ $ $ $ = = # @ $ , i J :.:.>.>.>.-.L N n u 0 5 < = = 2 g R ' A.#X=X",
"n n n M n 8 > = = 5 n K :.>.%.m n N -.>.-.N n m %.>.:.K n 8 > = $ $ = = = = = = = = = = @ @ = r d >.7.>.>.>.<.>.%.N n n n n 8 1 = & 4 x ( | #X;X",
"w n m K S i , @ % 4 n S L J Z N N A ;.,.=.-.J -.>.<.>.Z n 9 5 1 = = = $ $ $ = 1 1 < - $ @ % < i %.8.y.9.7.<.>.-.Z m n z V V u 5 < = ; 9 U } @X;X",
"w n S Q -.s , @ % 5 n C N N N S L >.7.6.t.6.8.7.7.<.-.Z n h w 0 5 < = @ o $ < 8 0 5 , $ # : 8 Z >.y.d.d.y.7.%.Z n h l n n n n u 8 < % < z _ ..%X",
"w n S :.>.d t = & 8 n n n n m J >.8.y.a.d.d.a.y.8.>.D m n n n n y 1 = o o = 3 u n 0 1 = & 5 n L 8.a.g.g.a.4.J n h h n n n n n V n 5 # = 0 E } +X",
"q n Z -.>.$.p r 5 0 h l l n Z %.4.u.x.v.v.g.d.i.8.>.Z n h l B n y 1 = $ = 1 0 n n w 4 > 6 w C :.9.d.g.g.s.=.N h g n N m a n M H V 8 = $ 5 B / } ",
"h n N L >.<.&.f a k h l n Z %.,.r.d.V.K.K.v.a.t.7.>.S n h l z n 0 1 = = 3 y n n n h 9 7 w m L 7.s.d.f.d.9.-.n w h Z J A m n n V V y = $ < l U ^ ",
"h n N J >.7.7.>.J m n m D >.7.t.a.v.Y.T.Y.v.a.t.4.>.L m n n n n 8 > = > 8 n M n n k l n m D >.9.s.a.s.9.>.Z n n N -.>.-.Z n l n n 8 = = < q x b ",
"n m Z %.,.8.7.>.-.A Z %.<.j.x.c.G.U.`.'.Q.P.c.i.5.,.&.J Z S S m 8 = @ & 7 z V m m m Z J *.>.7.y.u.y.8.>.D Z N S :.7.7.>.K n h w 8 1 = = < 9 c x ",
"Z A %.4.6.9.7.>.%.=.,.6.l.b.P.Q.).oX.X.X'.T.K.c.u.5.5.4.4.e.:.A i = @ % 4 l V C A %.=.4.9.y.y.u.y.9.>.Z m N L :.7.q.0.>.P n w 5 1 = $ = 2 9 c x ",
"-.>.7.y.a.y.7.>.>.6.a.v.K.T.'..X2X8X8X2X.X'.T.K.c.a.p.p.a.a.w.>.s t = & 5 n S L >.7.y.a.d.d.a.y.9.>.A m n m J >.<.<.>.-.S n 9 < = + o = 4 q x b ",
"q.j.l.c.v.x.j.q.j.c.L.!.~.].1X4X6X7X6X8X2X.X'.Q.U.G.D.v.v.v.n.j.&.p r r i f -.7.j.x.v.v.D.g.p.6.;.A m l l m s f o.o.d s u 0 4 = $ X . $ 5 z U ^ ",
"b.b.V.K.K.V.n.n.H.R.).oXoX3X4X8X6X6X6X8X2X<X.X.X|.).!.Y.K.I.P.b.l.1.+.O.+.,.9.l.b.P.Y.Y.L.g.p.4.J m l l n u i r r r r 3 3 1 < = $ X . $ 8 I / { ",
"T.T.T.T.T.T.T.T.`..X2X5X2X2X2X2X2X2X2X2X2X2X2X5X5X2X.X(.T.E.E.T.P.c.a.i.i.a.v.P.T.`.`.T.Y.D.a.4.Z n l n n y 1 = $ $ = = = = = = = o X = w E } +X",
"[.].].].].'.].XX1X8X6X6X4X<X.X.X.X.X.X.X<X4X6X7X7X6X2X.X].'.'.'.`.!.L.G.D.L.!.~.'.{.`.T.I.K.c.9.J m n n n 8 = o O O @ # # $ $ * $ @ @ < B _ ..%X",
"3X3X<X<X<X<X3X3X8X6X6X8X<X].`.`.`.(.(.`..X4X7X7X7X6X2X2X<X<X.X.XoXoXoX).).).oX.XXX].`.T.W.Y.P.z.<.D N m n 8 = o O o @ * * * $ $ $ # ; 9 W } @X;X",
"2X2X2X2X2X2X2X2X5X5X2X.X`.T.T.T.T.T.T.T.`..X2X5X5X2X2X2X2X2X2X2X2X2X2X2X2X2X5X5X2X.X(.T.E.E.T.H.j.>.J N n 9 < = $ $ = = = = $ $ = > 7 x ( | #X;X",
"<X<X<X3X3X.X X|.|.|.).!.P.K.V.I.T.T.I.I.P.R._._. XXXXX3X3X2X5X8X6X6X6X6X6X6X6X6X5X<X).`.`.`.E.P.x.8.-.N h 9 5 1 , = = = $ $ $ = < 7 l R ' A.#X=X",
"'.].].[.[.`.U.G.G.G.G.D.c.c.v.P.T.E.E.I.b.z.z.M.R.'.[.[.]..X2X6X7X7X6X6X7X6X6X6X5X2X<X.X.X'.E.I.v.y.=.N h g w y 8 1 = $ + $ = < 9 z W _ | +X#X=X",
"T.T.E.E.T.P.c.a.p.a.a.a.p.a.c.P.T.~.{.T.n.q.>.q.n.T.~.E.T.(..X2X5X5X2X2X2X2X2X2X2X2X5X2X.X'.T.K.v.a.4.Z n l n n y 1 = $ $ = < 9 x R / } ..@X#X#X",
"K.V.V.N.b.l.y.5.1.5.5.5.t.p.c.P.E.[.qX].H.0.#.&.j.b.Z.b.b.P.Q.).oX|.).).).).)..X.X3X3X<X.X'.T.I.C.c.y.=.Z N V n 0 < $ $ = 4 w x R _ } ..+X@X@X$X",
"v.c.x.k.q.7.<.,.=.=.=.,.6.a.v.K.E.qXeX4X_.w.%.#.<.j.j.j.j.l.F.L.L.L.F.F.F.F.U.Q.'.].].].'.Q.T.I.I.V.c.y.4.*.G n 5 = $ = 4 l b R _ } A.+X#X#X#X@X",
"d.a.y.7.>.;.>.>.>.>.>.7.t.a.v.V.T.1XtXrX<XM.>.#.%.>.>.>.>.7.y.a.d.d.a.p.i.a.c.P.T.E.E.T.T.T.T.E.T.T.Y.v.a.4.P n 5 = = > 7 x R _ } ..+X#X#X#X#X@X",
"a.p.t.4.;.-.-.:.:.>.7.8.t.s.d.c.P..XyXuX2XH.7.+.o.%.J Z A J =.,.5.r.r.r.5.r.u.v.K.K.K.K.I.I.E.'.[.XX{.Y.v.y.*.m 0 4 < < 7 l U ) X.@X#X#X#X#X#X@X",
"a.s.y.7.>.-.-.>.<.8.y.y.y.i.t.i.c.(.wXrX4XH.y.+.+.J Z Z m m N Z %.,.4.4.,.,.y.a.v.v.v.v.C.I.E.[.0XwXqX~.K.u.<.J m u 8 2 < 4 n / X.#X%X#X$X#X#X@X",
"d.a.y.7.>.-.-.>.7.y.a.d.d.a.t.@.a.U.3XrX4XU.a.5.,.>.L N n h h n Z -.>.>.>.>.7.y.a.a.a.a.x.V.T.XXwXrXwXXXT.n.j.>.L C n 5 = = 5 Y } +X#X#X$X#X#X@X",
"g.d.y.7.-.L -.<.9.s.f.v.J.v.d.i.p.U.4XrXwXQ.v.m.l.j.2.S h q g h n Z D D D L >.8.6.6.4.4.9.x.P.'.1XwXyXeX1XT.n.8.>.Q C y $ + - l / | @X#X#X#X#X@X",
"g.d.9.*.Z m L <.9.i.f.J.Y.Y.V.d.a.H.3XuXwX'.K.C.K.N.w.P h q q h n n n n n m J >.<.;.J Z *.y.c.Y.~.XXwXtXyXXXH.y.4.>.L i - + % 9 U ' A.#X*X*X#X@X",
"g.a.4.J n n S >.7.t.a.D.Y.T.K.d.a.G.oXrXyX[.T.W.^.T.M.:.n q q n n n n k h n S -.>.L m n Z 4.a.v.K.T.1XyXrX3XU.a.r.8.>.d t = & e x ( | #X=X*X#X@X",
"d.y.=.Z h h m -.=.4.y.l.N.N.z.y.y.n.).wXwX1X[.{.}.~.N.0.Z u w n N S S m n n Z -.>.L n h m *.t.h.v.K.Q..X<X).G.d.p.y.7.#.i 1 : e l R } @X%X#X#X@X",
"9.7.%.Z n h n N J ;.7.q.j.w.0.>.<.j.R.[.0XwX0XqXXXE.b.q.J m u n Z L :.L m n N -.>.-.m h n J 7.i.f.v.n.B.M.z.x.d.f.d.y.=.a 8 4 7 n Y ` ..#X#X@X@X",
"<.>.-.Z n h h n Z -.>.<.<.>.-.%.>.q.n.T.XXwXrXwXXXT.b.j.>.Z n n Z -.>.-.N n N -.>.-.Z n n Z >.9.s.a.y.7.>.<.9.a.g.g.a.8.J n w w n G / } A.@X#X#X",
"<.>.-.Z n w q h m L >.<.7.,.,.>.<.8.u.b.`.wXuXuX1XT.b.k.<.L m n m A o.d i y a A -.L S n n m L >.9.6.,.f s A =.y.d.g.d.y.:.C n h n B Y / | A.#X=X",
"<.>.-.Z n w q h m D >.7.y.t.y.y.y.6.r.d.R.8XuXuXqXE.b.k.<.-.C M n i r t , 1 y m K K m n k k m J >.,.%.Z a m %.7.i.f.f.s.7.L m n h h z U ) A.#X=X",
"<.>.-.Z n h h n N L >.8.y.a.d.d.a.i.t.a.U.<XrXyXqXT.n.j.>.L N n 9 < = $ @ = < 0 n n n n h h n Z -.>.-.N n n Z >.9.s.a.i.9.>.D N n q q x ^ | #X;X",
"-.-.J N n l n n N L -.>.7.9.y.a.d.a.a.c.U..X3XqX{.P.l.<.J m u 8 < & @ O O o = < 5 w n n n l n S -.>.-.m l n Z ;.7.9.y.y.y.7.>.L N u q l R } @X;X",
"Z Z N m M n n n m C S S Z J =.6.a.f.v.K.T.'.'.~.Y.v.y.*.m 0 4 < = # @ @ o o o # = 5 u n V z n S >.>.-.m h n Z ;.<.<.7.9.y.y.9.<.J a y l W ` ..#X",
"n n n n n n n n n n n h h n Z 4.a.D.Y.T././.T.I.v.a.4.J n 7 > = $ $ = = = = $ $ = 1 0 n n l n Z -.>.-.N n m J >.>.>.>.7.y.a.s.9.>.A i n Y _ } ..",
"l h w 0 8 8 8 0 0 8 9 9 j l Z 4.d.J.Y./.`./.T.V.a.6.=.J m w 4 = * $ = > 1 3 1 < > 1 5 0 0 9 0 i A %.L Z Z J >.<.>.-.-.7.y.d.d.y.<.#.F n V T / ) ",
"n n 0 5 > = < 1 1 1 < 4 q n L 9.f.J.Y.E.`.`.T.b.j.=.%.-.J Z u 5 > = = 1 8 u u 0 8 5 3 1 < < 1 5 u Z K L -.>.<.<.>.-.;.7.y.d.d.y.<.%.F n z I U T ",
"M n 0 1 = $ $ = * $ = > 7 n P 4.a.v.I.T.`.`.T.N.w.>.&.&.>.:.K n 5 = = > 8 n V V n 8 1 = @ $ = 1 8 n S -.>.<.<.>.;.-.>.7.y.a.s.9.>.D m n l z x x ",
"M n u 5 = $ $ o o X o % < 8 a f 4.l.P.E.~.^.Y.n.j.7.<.<.7.0.2.K i 1 = = 3 u V G V u 1 $ X X $ > 7 n C L -.-.-.-.-.-.<.9.y.y.9.>.J Z m n l c c c ",
"n n n u 8 1 = o O O o @ % = 2 i J w.H.E.^.Y.J.f.s.y.9.7.<.7.e.:.s r = @ = 3 u M V u 3 $ X X $ 1 9 n C S Z Z N N Z -.<.9.y.8.>.J m n n n l l c c ",
"n n n n n 0 1 = $ $ = * $ = & 4 n 2.B.T.Y.v.a.p.p.a.y.7.>.>.<.>.f r = o o = 3 u n u 3 = o o = < 0 n n n n h h n N L >.<.<.>.J N n h k n n z x x ",
"u n n V V n 8 3 3 r r r t t < e h Q z.P.K.y.4.4.t.s.y.>.J L :.:.d r = o O $ > 5 8 8 1 = $ $ = < 5 0 u k h h h l m Z %.-.-.A Z n n l u n V U U R ",
"u n n V V n h u i s f o.o.d i q h L j.c.a.=.Z J ,.9.7.J N N K K a 3 = o @ $ = < 1 < = = $ * = = = 1 5 0 h l l n n m N Z m m m n n n u n V E / ) ",
"n n n n n n h n N L >.7.7.>.A n n J 9.a.9.J n m L >.-.Z n l n n 0 1 = $ $ = = = = = = = = = = $ $ = 1 0 n n n n n n n n n n n n n u y n Y _ } X.",
"V n n u 0 8 9 u m L >.0.w.0.-.N n A 4.t.4.Z h h m D L m l h w 8 4 = = $ $ $ $ $ $ $ $ = = = = $ o $ < 0 n M M n n n n n n n k y 8 5 8 l T ] S.#X",
"G V n 8 1 = < 3 0 m P 2.0.7.-.N n Z ;.4.=.Z h h n m N M n w 5 1 = = = = * $ $ $ $ $ * = = = = $ @ $ 1 0 n V n n k n n V V n w 5 > > 2 l ! | +X;X",
"M n 0 3 = o @ = 1 8 n K :.>.%.m n m -.>.-.Z n h h n n n n 0 1 = $ $ = = = = = = = = = = = = = $ $ = 1 0 n n n n n n n n M n 8 < = % 4 x ( | #X;X",
"8 5 1 = X . . o % < 8 n J -.L m n m S L L Z n n h l n u 0 3 = $ o + $ = = < 2 2 < = $ $ $ $ $ $ * = < 5 0 k n n n u y y y 8 3 > = < q U ' A.#X=X",
"- = $ @ X X X $ $ & < 0 m S C n n n m C N m n n n k w 8 1 = $ $ + + $ = 4 9 g g 9 2 = o X + $ = = = = > 1 0 n V n 0 3 < 1 1 1 2 7 l U / | +X#X=X",
"= = = = = = = = $ $ = 1 0 n n n n n n n n n n n n n 0 1 = $ $ = $ $ = < q x b b x q < = $ $ = = = = $ @ = 3 u n u 3 = o $ = < 9 x R / } ..@X#X#X",
"5 5 8 8 8 5 4 > # X X $ = 5 w n n n 0 9 0 u n C G n 8 = + @ = < < > > 7 z R ^ ^ R V h 8 4 1 > % @ o . . X = 1 5 1 $ X . o & 5 z R _ | ..+X@X@X@X",
"Y Y T T Y I l 7 & @ . . o = 8 n M k 5 1 2 0 M Y Y M 8 = o @ < 9 9 7 7 l W / ) ) / / E Y B h 7 ; @ .     . o $ $ $ .   O % 4 l U / | A.@X#X#X#X@X",
"} } } } } ) R x 9 < = + o = 3 u n 0 1 = = 8 n V V n 8 = = > q x x x x U / } } } } } } } ) R x 9 < = $ $ = = = = $ $ = < 9 x R _ }  .+X#X#X#X#X@X",
"X. .+X+X+XA.{ ( U B w 5 < < 4 8 8 3 = $ = 1 8 y 0 8 5 < 4 w v R ^ R R / } ..S.S...S.+X+XA.{ ( W B n k w w w 0 0 0 w n V R ( ' | ..+X#X#X#X#X#X@X",
"} X.S.+X#X#XA.| } _ E I l q 7 2 < = * $ = = 1 1 < < < 7 q x ^ ) ) ) ) }  .@X#X@X@X@X#X#X@XA.| } ] ` _ / E T T E E _ ` ] | | A.S.@X#X#X#X#X#X#X#X",
"[ } | S.#X=X*X#X+X..} _ R x 9 < = $ $ = = = = $ $ = < 9 x R ) } } } } | S.#X#X#X#X@X#X#X#X@X#X#X#X#XS.X.} [ [ } X.S.#X#X#X#X@X@X#X#X#X#X#X#X#X#X",
"` ` | A.$X=X=X;X;X%X+X| ( b q > @ + $ = = * @ X X @ > q b ( } X.X.X.X. .+X#X*X*X#X#X$X$X#X=X;X>X,X>X=X%X+X . .+X%X-X>X,X>X;X=X*X#X#X$X@X@X#X#X#X"
};
