/* XPM */
static const char *wall_6[] = {
/* columns rows colors chars-per-pixel */
"72 72 239 2 ",
"   c #4A010D",
".  c #4B0612",
"X  c #4D0A15",
"o  c #4D0E19",
"O  c #440B1A",
"+  c #500F1A",
"@  c #510B15",
"#  c #4E111C",
"$  c #46101E",
"%  c #51141D",
"&  c #5A181E",
"*  c #4C1521",
"=  c #4E1B24",
"-  c #481926",
";  c #521720",
":  c #531A22",
">  c #591D24",
",  c #4E232C",
"<  c #562027",
"1  c #54232A",
"2  c #59252B",
"3  c #55282E",
"4  c #5A292E",
"5  c #5B2227",
"6  c #4E2C34",
"7  c #542C32",
"8  c #5A2D32",
"9  c #512F39",
"0  c #543236",
"q  c #5C3236",
"w  c #55353A",
"e  c #5D3539",
"r  c #56393C",
"t  c #5D3B3D",
"y  c #4C313B",
"u  c #642B2C",
"i  c #652727",
"p  c #623335",
"a  c #6B3A36",
"s  c #603739",
"d  c #613B3C",
"f  c #6A3837",
"g  c #723E3A",
"h  c #753D36",
"j  c #6F332F",
"k  c #6C413E",
"l  c #6E493F",
"z  c #73433D",
"x  c #7B463B",
"c  c #553941",
"v  c #5C3E41",
"b  c #613F40",
"n  c #5C4344",
"m  c #5B4748",
"M  c #5A4A4A",
"N  c #564444",
"B  c #5D5352",
"V  c #5B504F",
"C  c #634343",
"Z  c #6B4643",
"A  c #654847",
"S  c #6E4944",
"D  c #624649",
"F  c #654B4A",
"G  c #6D4D49",
"H  c #734C45",
"J  c #7A4E45",
"K  c #734E49",
"L  c #7B4F48",
"P  c #714642",
"I  c #6C514E",
"U  c #7C5246",
"Y  c #74524A",
"T  c #7C5349",
"R  c #785346",
"E  c #644E52",
"W  c #645455",
"Q  c #695454",
"!  c #69565A",
"~  c #635B5B",
"^  c #695A5B",
"/  c #795751",
"(  c #66615F",
")  c #6B5F61",
"_  c #656461",
"`  c #6C6465",
"'  c #676865",
"]  c #6C6A69",
"[  c #6C6868",
"{  c #716D6C",
"}  c #706666",
"|  c #6D716D",
" . c #716F70",
".. c #6E7470",
"X. c #737373",
"o. c #737A76",
"O. c #757C79",
"+. c #787C7B",
"@. c #757778",
"#. c #71746F",
"$. c #844A38",
"%. c #89563B",
"&. c #945B3C",
"*. c #904E38",
"=. c #9B613F",
"-. c #A2683E",
";. c #835445",
":. c #865945",
">. c #8D5B45",
",. c #835549",
"<. c #88574A",
"1. c #85594B",
"2. c #8C5A4A",
"3. c #8A5644",
"4. c #935D45",
"5. c #925E4B",
"6. c #995541",
"7. c #845C52",
"8. c #895B50",
"9. c #834E42",
"0. c #8E6048",
"q. c #946245",
"w. c #9B6444",
"e. c #9F6845",
"r. c #95624B",
"t. c #9B644A",
"y. c #9E694B",
"u. c #976849",
"i. c #936351",
"p. c #9E6B52",
"a. c #986553",
"s. c #926B59",
"d. c #A16643",
"f. c #A36A45",
"g. c #A96C44",
"h. c #A46C4B",
"j. c #A96E4B",
"k. c #A1664D",
"l. c #B06F48",
"z. c #AB7146",
"x. c #AD734A",
"c. c #A7704C",
"v. c #B2754A",
"b. c #B5784C",
"n. c #BA7B4B",
"m. c #B27446",
"M. c #A46C53",
"N. c #AB6D54",
"B. c #A56A55",
"V. c #AB745C",
"C. c #AA7657",
"Z. c #B37652",
"A. c #B57A52",
"S. c #BB7D54",
"D. c #B3755A",
"F. c #BB7B5C",
"G. c #B8785A",
"H. c #B36F51",
"J. c #AD7A63",
"K. c #B87C62",
"L. c #A45F4D",
"P. c #C27E5A",
"I. c #C07E54",
"U. c #76827C",
"Y. c #78837E",
"T. c #BB855C",
"R. c #BB8457",
"E. c #BD804E",
"W. c #B98666",
"Q. c #BA9675",
"!. c #C18157",
"~. c #C3835B",
"^. c #CA895B",
"/. c #C28B5E",
"(. c #C0804D",
"). c #C58562",
"_. c #CA8663",
"`. c #C38D63",
"'. c #CB8A64",
"]. c #CE8B6B",
"[. c #C98869",
"{. c #D18E6C",
"}. c #D18E66",
"|. c #C5946B",
" X c #CB936D",
".X c #C9956A",
"XX c #D3916D",
"oX c #D5956B",
"OX c #D18F71",
"+X c #CD9570",
"@X c #CD9D74",
"#X c #C69674",
"$X c #D49372",
"%X c #D49B74",
"&X c #D59D79",
"*X c #D99975",
"=X c #E19F7D",
"-X c #CEA076",
";X c #CEA37A",
":X c #D3A174",
">X c #D3A57C",
",X c #DBA47C",
"<X c #D3A87E",
"1X c #DBAA7E",
"2X c #E3A37A",
"3X c #7A8582",
"4X c #7B8C84",
"5X c #7D8C88",
"6X c #7C9087",
"7X c #7E928A",
"8X c #7F988F",
"9X c #7F9890",
"0X c #80958C",
"qX c #81988E",
"wX c #829D93",
"eX c #84A197",
"rX c #DCA281",
"tX c #D6AD84",
"yX c #D5AC83",
"uX c #DAAE85",
"iX c #D1A382",
"pX c #D6B087",
"aX c #DAB087",
"sX c #DCB38A",
"dX c #DBB68B",
"fX c #D7AF89",
"gX c #E3AC84",
"hX c #E4AC85",
"jX c #E3B48C",
"kX c #E4B98E",
"lX c #E8B58A",
"zX c #E5BC93",
"xX c #E9BD94",
"cX c #E6B995",
"vX c #F2BF93",
"bX c #EAC097",
"nX c #EAC39A",
"mX c #EBC59C",
"MX c #EEC8A2",
/* pixels */
"tXtXtXtXtXtXtXtXtXtXtXtXyXyXyXyXtXtXtXtXtXtXtXtXtXtXtXyXtXpXpXtX<X$X[.F.M.5.<.<.<.2.2.2.2.2.<.<.<.2.5.r.5.<.H C n C C s 8 ; .   X 3 E @.4X4X4X4X",
"tXtXtXtXtXtXtXtXtXtXtXtXtXtXtXtXtXtXtXtXtXtXtXtXtXtXtXyXtXtXtXtX1X*X].F.p.2.;.<.2.2.2.2.2.2.2.2.<.2.2.5.2.;.S C C C C e 4 ; X X ; w ! X.3X4X4X4X",
"tXtXtXtXtXtXtXtXyXyXyXtXtXuXtXtXtXtXtXtXtXtXtXtXtXtXtXyXtXtXtXtXuX,X$XK.i.U J ;.2.5.2.<.2.5.5.5.2.<.<.<.,.J Z C C C C q < % % > 8 D ^ X.Y.4X4X4X",
"tXtXtXtXtXtXtXtXyXyXyXtXtXaXpXtXtXyXtXtXtXtXtXtXtXtXtXtXtXtXyXtXaXgX>XW.7.S Z U 5.5.2.<.2.w.e.t.5.<.,.J H S C C A A C q > % > t Q ) [  .O.3X4X4X",
"tXtXtXtXtXtXtXtXtXtXtXtXtXtXtXtXtXtXtXtXtXtXtXtXtXtXtXtXtXyXyXtXsXkXtXW.7.C d H 2.5.2.2.q.h.x.x.t.2.J S C v b C A A C 8 ; ; 8 ! X.+.O.X.o.Y.4X6X",
"tXtXtXtXtXyXyXtXaXsXsXuX>X;X;XyXtXaXtXtXyXtXtXtXtXtXtXtXtXyXiXyXsXkXdXQ.s.Z d P ,.<.2.q.h.A.S.A.j.q.U C c c c C A A C q < 2 C { 4X7X3XO.O.3X4X7X",
"tXtXtXtXtXyXyXtXsXzXzXuX@X|.@X>XpXaXpXtXyXyXtXtXtXtXtXtXtXyXyXyXsXdXpXQ.V.T k Z H U >.h.A.~.).~.A.e.;.Z c c c C C C n e q e E { 4X7X4X3XY.4X4X7X",
"tXtXtXtXtXyXyXtXsXzXzXaX@X|.|.;XtXaXpXtXyXtXtXtXtXtXtXtXtXyXyXtXsXsXtX#XV.2.P b C H q.x.~.'.].'.~.x.q.H C v v C C C C d d C E ` X.U.4X4X4X4X4X4X",
"tXtXtXtXtXyXyXtXsXzXzXsX<X@X@X-X>XyXyXtXtXtXtXtXtXtXtXtXtXtXtXaXsXsXiX|.V.2.k r c S 0.b.^.XX$XXX].S.h.>.H Z C Z Z S S Z A C C D Q [ o.4X4X4XY.U.",
"tXtXtXtXtXyXyXtXuXaXsXsXsXuX<X-X@X-X>XtXpXtXtXtXtXtXyXyXtXaXsXkXkXgX&X).M.3.k r c Z 0.b.^.}.$X*XXX[.G.h.q.%.J H J J L K G n w 7 8 D [ Y.3XY.o.X.",
"tXtXtXtXtXtXtXtXyXyXtXsXzXzXsX%X|.|.;XtXaXpXtXyXtXtXyXyXtXsXzXzXkX,X].F.M.2.H C C H q.x.!._.].OX$X].).S.x.e.4.2.2.2.2.1.Y C 7 ; ; 8 Q X.+.O.X.{ ",
"tXtXtXtXtXtXtXtXyX>XyXsXnXnXjX@X`.|.-XtXaXpXtXyXtXtXyXyXtXdXnXbXgXXXF.Z.N.M.i.1.U :.q.h.Z.D.K.W.).[._.^.!.S.D.V.M.k.t.r.1.H p > ; 7 F [ X.@.X.X.",
"yXyXyXtXtXtXtXtXyXyXyXsXbXxXsX@X`.|.-XtXaXpXtXyXtXtXyX<XtXzXnXbX1X/.l.j.G.K.K.N.e.q.w.t.t.a.p.M.Z.R.^.'.}.}.[.).F.Z.j.y.r.<.z p 8 e n ~ ] X.@.+.",
"tXtXtXtXyXtXtXtXyXyXtXsXzXzXaX%X|.|.;XtXaXuXtXyXtXtXyXyXtXkXnXzX<XT.x.v.~.].].R.x.e.q.2.<.<.2.q.f.x.S.).].$XOX].).S.x.f.q.2.T S C t N M ~ ] X.O.",
"uXtXtXtXtXtXtXtXyXyXyXsXzXxXjX<X@X@X>XtXpXtXtXyXtXtXyXyXtXsXzXjXyX|.T.T.).'._.S.x.w.:.U L T 3.>.q.e.c.D.W.[.[.).F.A.j.e.4.<.T G A t 0 w m ~ ] X.",
"pXpXtXtXtXtXtXtXyX<XyXsXzXnXzXuX>X;X<XtXtXtXtXtXtXtXyXyXtXuXaXaXaXtX>X+X`.R.Z.j.t.:.H S H T 2.4.4.4.q.M.M.V.V.N.N.h.t.2.U H S G A e 2 1 0 m ~ _ ",
"tXtXtXtXtXtXtXtXyXyXtXsXzXzXzXsXtXyXyXtXtXtXtXtXtXtXtXtXtXyXyXtXdXbXzX1X`.x.d.4.2.T Z C Z U 2.5.5.2.<.2.2.<.<.2.5.5.2.U S C C C C q > ; 1 r M B ",
">X>X<XyXtXyXyXyXtXaXsXsXsXuXuXaXaXpXtXtXyXtXtXtXtXtXtXtXtXyX;XyXzXmXmXaX/.f.&.3.<.K C v C H ,.2.2.2.<.U H H H H U T J H C v n D A p > % : 0 N M ",
"@X@X;X<XyXyX>XyXuXzXzXsX>X@X@XyXpXaXtXyXyXyXtXtXtXtXtXtXtXyX;XyXdXnXnXuX/.f.&.>.<.L A v v C H ,.2.2.<.H Z C C S S S Z Z d v C A A s > % : 0 N M ",
"`.|.@X>XtXtXyXtXsXzXzXsX@X|.|.;XtXaXuXtXyXtXtXtXtXtXtXtXtXyXyXtXkXbXxX1X`.x.w.4.2.T S C c c C H <.2.<.H C v n C C C C C C C A A C q > ; 1 r M B ",
"`.|. X;XpXdXdXkXzXxXkXuX:X.X+X-X<XtXtXtXtXtXyXyXyXyXyXyXyXyXtXsXzXnXxXuX XS.j.w.4.;.J Z C c v Z J ,.T S C r e e e t C A A A C C e 2 ; ; 7 n W ( ",
"_.]. X>XpXzXnXbXxXjX1X:X:X:X@X@X-X>XyXtXtXtXyXyXyXyXyXyXyXtXaXjXxXnXbXjX&X).Z.g.w.4.3.J S C v C Z H H S C e 3 < 8 e C F F A d q 2 ; o ; e E [ | ",
"[.].+X&XtXkXbXzXsX>X|.`.|.|.|.|.|.@X>XtXpXtXtXyXtXtXyXyXtXaXjXzXnXnXzXgX&X].~.A.x.h.t.2.T S C v b C A A C q < ; < q C F A C e 2 ; X . ; t ^ X.3X",
"].].$X%X>XyXyXiX#XW.C.p.p.M.N.D.W.|.:XuXaXaXaXaXsXsXsXaXsXzXzXnXnXzXsXrX$X].'.`./.T.Z.M.5.J Z b r c C A C q > % ; 4 e d d e 8 < % .   % b [ Y.7X",
"].].XX$X+X XW.J.V.s.1.H g h x 5.V.W..X:X1XaXaXdXkXzXzXzXzXzXnXnXzXaX>X X[.[.XX&X1X:X].F.B.2.J Z t v n C C s < ; % > 2 4 4 2 < > % X   % b { 4XwX",
"[.].{.XX].K.M.2.U G C 8 : ; 5 g 2.C.W.|.@X<XtXaXzXzXxXzXzXbXnXzXsX>X|.).).].&XjXzXzX,X].F.k.2.J Z C C C C e 2 ; % % ; ; ; ; ; : ; o . ; C { 4XwX",
"[.].XXXX].G.5.z s w 8 , - - = 4 f J i.V.W.|.@X>XgXkXkXkXjXkXxXlX,X|.T.T.`.&XjXnXMXmXlX&X].F.B.5.J S A C C e < ; # # % % % % % ; % # # 1 F ] Y.7X",
"[.].XX$X{.J.2.k 7 , 1 1 7 7 1 = > 8 k / s.C.T.}.*X,X1X1X<X1XgX2XXXS.Z.T.@XjXnXmXmXmXxXjX,X XK.N.5.T G A n q < % # # % ; ; ; % % % ; , w W ] o.3X",
"[.].XXXX].J.7.C 6 = ; 2 s C s 2 ; = 8 C R q.x.I._.]. X X|. X$X].P.m.x.T.>XzXmXnXzXzXbXzXjX,X].F.k.2.T S C e < ; % % ; ; ; ; % % ; 1 0 M ~ ] X.O.",
"].{.XXXX).V.7.C 6 # % 5 g Y H h u 2 q d H >.d.l.Z.F.F.F.G.D.V.V.h.g.m./.,XkXxXlXgXjXnXmXxXgXXXP.N.t.:.U S d 8 2 > : ; ; ; % % ; 1 0 m ~ ] X.@.O.",
"OX{.}.^.S.y./ C 7 * % i g 1.0.>.%.x z P J 3.4.t.k.k.M.M.p.i.1.,.:.w.m.^.%X,XrX&X&XuXxXMXxXgX{.P.v.h.q.:.T H C e 8 < ; % % % ; 1 w m ~ ] X.O.Y.Y.",
"OX]._.!.x.q.R C 7 - ; i z 2.p.x.x.h.t.2.<.<.2.2.<.2.5.5.2.L Z C H q.x.!._.].].[.].&XjXzXkX,X].P.A.x.h.t.2.T G C e 2 ; % % ; 1 r M ~ [ X.+.4X4X4X",
").).R.Z.f.>.H C 0 , 1 u x 4.x.S.!.~.D.M.a.8.T T H J U ,.U S v r C U u.N.G.G.F.P.~.'.%X1X1X&X].).S.A.m.h.t.2.Y C w 1 % % : 7 r M ~ ] X.+.3X4X6X6X",
"S.A.Z.j.t.;.H v w y 0 a $.w.m.!._.'.'.K.B.7.K C C Z S H S A v t C G T 2.r.k.N.Z.A.E.T.).'. X{.]._.P.S.b.h.r.Y n 8 : % ; 7 N B ~ ] X.U.3X4X4X4X4X",
"b.x.h.t.2.L S C c c C U q.x.S.).].$X*X].V.1.C r t C C C C C C C C n C S T 2.t.h.x.z.z.x.A.).].$XOX]._.S.x.q.R C 8 = ; < 0 M ~ ] X.+.3X4X4X4X4X4X",
"m.z.e.2.T H H S S G T r.C.`..X%X&X=X2X$XD.J w 6 r C C t e s C C b e 8 e k J 2.t.h.e.w.w.f.Z.).$XrXrX%X/.x.w.;.H d 8 < 1 0 N W ] O.3X4X4X4X4X4X4X",
"b.z.w.;.S Z H U ;.>.r.C.#XuXjXjXgXhXhX$XN.h 2 , r C C 8 3 8 d C t 7 1 1 e Z T 2.5.4.4.4.4.f.A. XgXxXuX`.x.w.>.;.H b w 3 1 7 C ` +.4X4X4X4X4X4X4X",
"n.x.q.U C C K 2.w.d.x.).<XzXmXmXxXlXgX].L.j ; = 0 C s < ; < e C e 2 ; : 8 C Y ,.2.2.2.2.>.=.x.|.aXzXaX|.x.=.4.2.1.Y C 7 ; ; 8 Q X.3X4X4X4X4X4X4X",
"(.b.t.U C C T 5.f.l.n.^.,XxXMXMXnXkX,X).6.i % * 7 e 8 : % < e A d 2 % ; 7 C K 1.2.2.2.2.>.=.z.T.:XyX:X/.x.d.4.2.7./ G p % + > n [ O.4X4X4X4X4X4X",
"(.b.w.U C C T r.h.m.n.^.XXrXcXnXnXkX:XA.*.i # o : 2 < % % < d A d 2 % = 7 b K 1.2.5.2.<.>.e.z.A.T.W.T.R.b.f.4.<.7.7.T a > + = w W | U.4X6X4X4X4X",
"n.x.q.U C C K 2.t.h.x.b.P.].rXcXzXaX.Xx.*.i ; $ * ; % % ; 4 d C e 2 ; : 8 C Y 1.2.2.<.2.q.h.x.b.x.x.x.b.x.h.5.2.2.i.2.x u ; - 6 M ' o.4X7X7X4X4X",
"x.h.>.H v v Z U :.>.q.h.v.P.oXgXjX1X`.z.%.a 2 = # # % ; 2 8 e q 4 > ; < e A G T ,.;.<.2.t.h.b.m.z.g.g.g.h.k.t.q.t.k.t.9.f 3 , 7 N ~ X.4X7X7X4X4X",
"k.q.;.S c c C Z S H U :.f.A.'.*X,X%X^.z.&.l s 3 # # ; 3 e e 8 < ; % ; 2 e A G S S H U <.t.j.b.b.m.g.f.t.t.t.h.h.x.x.h.>.z w 7 0 n Q { +.4X4X4X4X",
"5.<.,.H C v C C v v C H q.x.!.'.].'.!.x.q.R C 8 = ; 2 e C d 4 ; o o ; 2 e C C C C Z J 2.t.h.x.b.b.x.y.5.2.5.y.x.n.n.x.r.U C r t C G ` X.Y.4X4X4X",
"<.<.<.;.U H S Z v c c S :.f.x.D.G.G.A.x.r.R n 9 , 2 s Z G Z q : # # % > 8 e t t v Z T 2.t.y.h.j.c.h.q.<.T ,.q.h.b.n.b.y.1.G C v C F Q [ X.U.4X4X",
"<.<.2.q.r.r.<.H C v v Z ;.5.t.r.a.M.Z.x.u.J c y 9 e k J T K C q 1 = % % > 2 8 e b S ,.5.q.q.q.t.t.q.<.H S H <.t.x.b.b.c.r.T S C v N m W [ X.Y.3X",
"<.2.q.h.x.x.t.2.H C C S U 2.2.<.2.t.x.x.u.U C c c C H <.2.<.R C w 3 ; % % ; 3 w C K ,.2.2.2.2.2.5.2.U S C Z H 2.t.x.x.j.t.2.J S C t c M ~ ] X.O.",
"<.5.t.j.b.n.m.t.<.H A S T 2.5.5.5.w.g.g.f.q.1.G D A J >.t.t.1.G C q < # o # > q A Y T ,.;.<.<.5.5.2.J C c C H <.q.t.h.h.h.t.2.U S C t N M ~ [ ] ",
"2.5.t.h.b.n.b.j.r.J A Z L 2.t.h.h.f.-.g.x.A.V.i.K C H q.x.c.r.T G C w 1 # # > q A G G H J ;.2.5.r.2.J C c C H <.5.5.q.t.h.h.t.2.U H C n m M W ~ ",
"<.2.q.y.x.n.n.x.q.H C C H 2.t.j.x.z.g.x.R.}.].J./ C l 4.x.v.h.2.T G C q : ; < q C C C C S U 2.5.r.2.U Z C Z U 2.2.<.2.q.h.x.x.t.2.J Z C n n M M ",
"H T 2.t.b.E.E.x.>.z e t S 1.r.y.x.Z.T.`.%X2X*XK.7.A l :.h.v.j.t.2.T G d 8 2 2 8 e t t v Z R ,.<.<.,.J H H U <.2.<.<.<.q.h.b.b.h.5.,.H C n n n m ",
"C S ;.e.b.E.A.p.;.f 2 7 b R T :.t.D.#XuXlXhX$XJ.7.A C U q.h.j.h.t.2.T H C s 8 3 3 8 e C A G K H H H H U <.<.2.<.<.<.<.q.h.b.v.h.5.,.P C n n M M ",
"c C U q.x.b.M.2.g 5 ; = q C Z H 2.J.iXzXvXhX].M.T C b H 2.k.x.x.j.t.2.T G C q : ; < q C A A C v v C S ,.2.5.5.2.<.<.2.t.h.x.x.t.2.J Z C n n M M ",
"c v H :.q.w.3.g u ; O $ = 8 e z <.J.iXxXlX2X/.t.z e e P <.y.x.b.b.j.t.1.Y C 8 * # : q C A t w 0 r v Z J <.2.2.2.2.2.5.t.h.h.t.2.U H Z C n n n m ",
"c C Z H J z f 5 ; # O O $ = 4 g 2.J.#XrX2XoXS.&.j 2 8 g 2.k.c.b.b.b.h.0.Y C 7 * # > q C d 8 < 1 q v A S H U <.5.5.5.5.q.t.t.2.U S C C C n N N N ",
"C C A A C q 2 ; % ; ; # # ; 2 z 2.V.).].}.^.x.$.i ; < g 2.p.c.x.m.b.x.u.T C 8 = ; 2 s C e 2 ; > q C C C C S T <.5.2.2.2.5.2.;.S C v b C C M M M ",
"C C C C n w 7 1 < u u u u u p k ;.a.Z.P.^.R.f.$.i % > f ,.i.y.h.m.n.b.h.<.S e 3 3 q d C q > % > s A F n v C H ;.<.,.U U U J H Z C n d C F Q ~ _ ",
"C C C C n c r e f z x $.$.x k Z H <.k.b.S.Z.t.x i ; : e K 1.2.t.j.m.b.c.r.U Z s e t C C q > % < q A A C v d Z S H H S Z Z Z Z A C C d C Q [ o.U.",
"C C C C C C v C S T 2.5.r.2.J C C H q.x.b.M.<.g 5 ; = 8 C K T 2.t.j.x.x.t.2.J Z C C C C q < ; < q C A A C C C C C C C C C C C A C d e C ^ o.4X8X",
"A A C d s e e d S T 2.a.a.i.T A v S >.h.h.r.T f < ; * 1 q b S J <.t.h.h.k.5.,.H A F F A s 2 ; : 2 e C A A A C v v n n C C C b s q 8 8 t ^ o.7XeX",
"G A C e 4 < < 4 s Z Y 7.i.2.U Z C S ;.t.q.1.S q < % # * 1 8 d Z U <.5.t.t.5.<.H A F F A d 4 ; % ; 3 q C A A C v v C C A F C t 8 < : 1 c ( o.7XwX",
"A C e 4 ; o % ; 1 w C R <.2.;.Z C S ;.2.1.R C q 1 ; % % ; 3 w C K ,.2.5.5.2.U S C C C C e 2 ; # o ; 2 e C A A C C C C A A C q < ; = 7 M ' O.4X0X",
"q 8 2 ; X . X o * , q Z <.2.<.H C Z K T T S n e 8 2 : % % 1 0 C Y 1.2.5.<.T H Z C d e q 4 > % o X % : 4 e C A A C d s s s q 4 : : 7 n ( ..Y.4X4X",
"> ; % # X X + % # * 3 a <.r.2.H C b Z G G A v t t q 2 : ; 1 w F / 7.i.2.T H S A C s 8 < : ; % % + % % : 4 e A A A e 4 < < < < 1 0 M ' o.4X4X4X4X",
"; ; ; ; ; ; : ; # $ ; u x 2.1.K C v v C C C C A A C q < ; : 8 C R 1.2.;.H C n C C e 2 ; % % ; ; ; ; % # ; 4 d C d 4 ; o % ; 1 0 M ' o.4X7X7X4X4X",
"8 8 q q w q 7 1 # X X & j x J H A v e e e d A I I A s < % % < 8 f h h h f e t n t w 2 : = : 1 3 3 1 = o X % 2 8 2 % X . X = 7 n ~ | U.4X5X4X4X4X",
"Q Q ! ! ! E n 0 = O . @ & i f Z A t 7 < 3 e A Q Q F s < % X # % > & > i 8 e r c t r 0 7 7 7 0 r r w 1 # . . % % % .   X = 7 n W [ X.O.Y.3X4X4X4X",
"X.X.@.@.X.] ~ M w 1 ; + o ; 8 d C e < ; > q C F A C q 2 ; % ; ; ; % ; 2 q C F M M M M M M M M M V M r 3 ; % % ; % % ; 1 w M ~ ] X.@.X.X.O.Y.4X6X",
"O.+.3X3X3XU...' W D t 8 1 , 7 q q 4 > % ; 2 q e e q 8 7 7 7 w e w 8 w v F ^ ( ( ( ' ' ' ' ( ~ ~ ( ~ W D t q q e t t C F ~ ' ..O.+.O.X.{ X.U.4X7X",
"@.O.U.3X4X4XY.o.X.[ ^ E n r 0 3 < > ; % ; > 2 2 < < 3 0 t M Q ! ! ! ! ) { o.o.o.o.o.O.O.o.| ] ] ] ] [ ` ^ ! ! ! ^ ` { #.o.O.Y.4X4X+.@.X.o.Y.4X7X",
" .X.o.Y.4X6X6X4X3XO.X.] ~ M w 1 ; % % ; ; ; ; % % ; 1 w M ~ ] X.@.X.X.o.Y.4X4X4X4X4X4X4XY.O.X.X.X.X.X.X.X.X.X.X.O.Y.4X4X4X4X4X4X4XY.@.X.o.Y.4X6X",
"{ { X.U.4X7X7X0X7X5X3Xo.' B r 1 # + % ; : ; # X X # 1 r B ' o.3X3X3X3X4X7X8XqXqX0XqXqX0X4XY.O.@.@.@.+.Y.3X3X3X3X5X8XwXwXwX0X7X7X4XY.o.X.O.Y.4X6X"
};
