/* XPM */
static const char *wall_2[] = {
/* columns rows colors chars-per-pixel */
"72 72 231 2 ",
"   c #4D0C17",
".  c #4E121D",
"X  c #46121E",
"o  c #51141E",
"O  c #58131A",
"+  c #500F19",
"@  c #4E1621",
"#  c #4C1A24",
"$  c #4B1C27",
"%  c #521720",
"&  c #531A23",
"*  c #561E26",
"=  c #4E242C",
"-  c #562027",
";  c #55222A",
":  c #5B252B",
">  c #56292F",
",  c #5B292E",
"<  c #5B2126",
"1  c #4D2A33",
"2  c #542C32",
"3  c #5A2D32",
"4  c #532730",
"5  c #563236",
"6  c #5D3236",
"7  c #55353A",
"8  c #5D3539",
"9  c #553B3D",
"0  c #5D393C",
"q  c #63272A",
"w  c #632B2D",
"e  c #642727",
"r  c #6D342E",
"t  c #633334",
"y  c #6B3533",
"u  c #633B3C",
"i  c #6A3D3C",
"p  c #663837",
"a  c #733B36",
"s  c #743B37",
"d  c #793B2C",
"f  c #6C423F",
"g  c #6F483F",
"h  c #73443D",
"j  c #7B453B",
"k  c #7E4836",
"l  c #5C3E41",
"z  c #573941",
"x  c #613F41",
"c  c #5C4244",
"v  c #5E4B4B",
"b  c #5D4648",
"n  c #5F5151",
"m  c #644343",
"M  c #6B4643",
"N  c #664847",
"B  c #6C4945",
"V  c #654B4B",
"C  c #674849",
"Z  c #744C45",
"A  c #7B4D44",
"S  c #734E49",
"D  c #7A4F48",
"F  c #7E4741",
"G  c #7C5246",
"H  c #75514A",
"J  c #7B534A",
"K  c #77544B",
"L  c #625354",
"P  c #6A5B5D",
"I  c #665A5B",
"U  c #6D524F",
"Y  c #66605E",
"T  c #6C5E60",
"R  c #6A6363",
"E  c #6D6A6A",
"W  c #676161",
"Q  c #706D6D",
"!  c #71716F",
"~  c #726F70",
"^  c #737473",
"/  c #767D7A",
"(  c #747A76",
")  c #6E726D",
"_  c #814C3C",
"`  c #8B563E",
"'  c #92573E",
"]  c #9C633F",
"[  c #824D42",
"{  c #825446",
"}  c #8B5544",
"|  c #865946",
" . c #8B5B46",
".. c #835549",
"X. c #88574A",
"o. c #85594B",
"O. c #8C5B4A",
"+. c #935E44",
"@. c #915E4A",
"#. c #985D45",
"$. c #855C50",
"%. c #8C5E50",
"&. c #966146",
"*. c #9B6545",
"=. c #94614A",
"-. c #9A654A",
";. c #9E694A",
":. c #9F6947",
">. c #8B6354",
",. c #966452",
"<. c #9B6651",
"1. c #9D6A54",
"2. c #986A57",
"3. c #956850",
"4. c #A46B46",
"5. c #A46C4A",
"6. c #A96E4C",
"7. c #A46A45",
"8. c #AC724B",
"9. c #A9704A",
"0. c #B2764B",
"q. c #B4794D",
"w. c #B97B4B",
"e. c #A46C53",
"r. c #A76D58",
"t. c #A57153",
"y. c #AB7353",
"u. c #AB745A",
"i. c #A6755B",
"p. c #B27654",
"a. c #B47A53",
"s. c #BA7D54",
"d. c #B47C5B",
"f. c #BB7E5A",
"g. c #B2765B",
"h. c #AD7B63",
"j. c #B57C63",
"k. c #9D7762",
"l. c #C17F55",
"z. c #77817C",
"x. c #78827D",
"c. c #B6825C",
"v. c #BB835B",
"b. c #BB8257",
"n. c #BD804F",
"m. c #BC8363",
"M. c #BE8A62",
"N. c #B88567",
"B. c #B78E6E",
"V. c #C2845C",
"C. c #C5895E",
"Z. c #C38564",
"A. c #C48B64",
"S. c #CA8B65",
"D. c #C58C6B",
"F. c #CD8D6B",
"G. c #C48668",
"H. c #D18E6B",
"J. c #C6946B",
"K. c #CB956D",
"L. c #CC996E",
"P. c #C79268",
"I. c #D3926C",
"U. c #D9986E",
"Y. c #CC9471",
"T. c #CC9C73",
"R. c #C69A77",
"E. c #D39673",
"W. c #D29C75",
"Q. c #D59D7A",
"!. c #DB9C76",
"~. c #CDA077",
"^. c #CEA27A",
"/. c #C4A27D",
"(. c #D2A176",
"). c #D3A57C",
"_. c #DBA37C",
"`. c #D4A87F",
"'. c #D9A97E",
"]. c #E3A67B",
"[. c #798680",
"{. c #7A8B83",
"}. c #768280",
"|. c #B4AC8C",
" X c #BEAC89",
".X c #BAA583",
"XX c #B2AE90",
"oX c #BCB595",
"OX c #BCBA9C",
"+X c #B6B495",
"@X c #C9AA84",
"#X c #C9AE89",
"$X c #DDA581",
"%X c #D5AC83",
"&X c #DAAD83",
"*X c #D7A984",
"=X c #CEB28D",
"-X c #C1B08E",
";X c #D7B087",
":X c #DBB087",
">X c #DCB38A",
",X c #DFB88E",
"<X c #D5B189",
"1X c #C6B897",
"2X c #C6BB99",
"3X c #C9BC9B",
"4X c #C4B492",
"5X c #D1B690",
"6X c #D5B994",
"7X c #E1AA83",
"8X c #E2AC87",
"9X c #E2B48C",
"0X c #E2B88F",
"qX c #E7B389",
"wX c #E5BC92",
"eX c #E9BD94",
"rX c #EBBD98",
"tX c #C2BFA0",
"yX c #BFC2A5",
"uX c #BEC2A5",
"iX c #D8C09C",
"pX c #EAC197",
"aX c #EBC39A",
"sX c #E4C29A",
"dX c #F4C59A",
"fX c #C2C2A4",
"gX c #C8C8AA",
"hX c #D3CAA8",
"jX c #CFD1B2",
"kX c #D0D2B3",
"lX c #F5CBA0",
/* pixels */
"|.|.XXXXXXXX|.|.+XOXyXfXyXyXyXfXyXOX+X|.|.|.XX+XOXyXfXfXyXfXfXyXyXyXyXgXgXjXkXjXhXgXfXyXfXgXgXOXXX|.OXgXjXgXoX|.|.OXyXgXfXyXyXyXyXyXyXyXyXyXyXyX",
"|.|.|.|.|.|.|.|.oXOXtXfXfXtXfXfXtXOXoX|.|.|.|.oXOXtXfXfXtX2XtXtX2X2XtXfXgXhXjXjXjXgXfXtXtXfXtXoX|.|.oXgXjXgXoX|.|.oXtXfXfXtX2XtXtXtXtXtXtXtXtXtX",
" X X X.X.X.X.X X-X4X2X3X2X2X2X3X3X1X-X X.X.X.X X4X3X3X3X1X1X1X1X1X1X2X3XiXhXhXhXhXhX3X2X1X4X4X-X X X4X3XhX3X4X-X-X4X1X3X2X2X2X2X2X2X2X2X2X2X2X2X",
"@X@X/.R.B.R./.@X#X=X=X=X=X=X=X5X5X=X=X@X/.B.B./.#X5X6X5X=X#X=X=X=X=X=X5X6X6XiXsXsXiX6X=X#X@X@X@X@X@X=X5X6X5X=X=X#X=X=X=X=X=X=X=X=X=X=X=X=X=X=X=X",
"%X`.~.T.J.K.T.`.%X%X%X%X%X%X%X%X%X%X%X`.T.K.J.T.).%X;X&X%X%X%X%X%X%X%X%X%X;X0XwXeXwX,X%X^.T.T.T.`.%X%X%X%X&X;X;X;X&X%X%X%X%X%X%X%X%X%X%X%X%X%X%X",
"&X'.(.L.K.L.(.'.&X&X&X&X&X&X'.).).).).(.W.L.K.L.W.(.'.&X>X8X9X>X&X&X'.).`.&X&XqX0X0X9X&XW.P.P.L.).&X>X&X'.&X&X>X>X&X&X&X&X&X&X&X&X&X&X&X&X&X&X&X",
"&X%X).(.T.W.).%X&X&X&X&X&X&X`.).W.T.T.T.T.T.T.T.T.T.).&X0XeXwX0X>X&X`.).`.%X&X>X9X9X>X&XT.K.P.K.).&X>X;X&X&X&X&X>X9X9X>X&X&X&X&X&X&X&X&X&X&X&X&X",
"%X%X%X%X`.`.%X%X%X%X%X%X%X%X`.~.T.K.K.T.~.`.`.^.T.T.).&XwXeXeXwX>X;X%X%X%X%X&X;X;X;X;X%X^.L.J.T.).%X;X;X%X%X%X%X;X0XwX0X;X%X%X%X%X%X%X%X%X%X%X%X",
"%X%X%X%X&X&X%X%X%X%X%X;X;X%X`.T.K.J.K.T.^.%X%X%X^.T.).%X>X,X>X>X>X;X;X;X;X;X;X%X%X;X;X%X`.T.T.T.^.`.%X%X`.`.`.%X>XwXeXwX;X`.^.^.`.%X%X%X%X%X%X%X",
"%X%X;X>X,X>X;X%X%X%X%X;X;X%X).T.J.J.T.^.`.%X%X%X`.).).`.).).).).&X>X0XwXwX0X>X&X%X%X%X%X%X).^.~.^.^.~.T.T.^.^.%X,XeXpX0X%XT.L.T.T.).%X%X%X%X%X%X",
"%X%X;X0XwX0X;X%X%X%X%X;X;X%X).T.J.K.T.`.%X%X%X%X%X`.).~.T.T.T.T.).>XwXeXeXwX,X;X%X%X%X%X%X%X`.).T.T.K.K.T.T.^.%X,XeXeX9X).T.J.K.T.~.`.%X%X%X%X%X",
"%X%X>X0XwX0X;X%X%X%X%X;X;X%X`.T.T.T.^.%X%X%X*X`.`.^.~.T.T.L.L.T.`.>X0XeXeXwX,X;X%X%X%X%X%X%X%X).T.J.J.K.T.^.`.&X>X0X9X&X`.T.T.T.T.^.`.%X%X%X%X%X",
"%X%X;X0XwX0X;X%X%X%X%X%X;X%X`.^.T.^.%X%X%X*XQ.W.T.T.T.T.~.T.T.^.`.&X,X0X0X,X;X&X%X%X%X%X;X;X%X).L.J.J.K.~.).&X&X&X&X`.`.).^.^.^.).`.%X%X%X%X%X%X",
"%X%X>XwXeXwX>X%X%X%X%X%X%X%X%X`.`.%X%X%X).W.E.K.K.T.T.^.`.`.`.`.%X&X;X;X;X;X&X&X%X%X%X%X;X;X%X).T.J.K.T.`.&X9X9X&X).T.T.^.`.%X%X%X%X%X%X%X%X%X%X",
"%X%X>XwXaXpXwX;X%X%X%X%X%X%X%X%X%X%X&X&XW.K.S.D.T.).%X%X%X%X%X%X%X%X%X%X%X&X%X%X%X%X%X%X%X;X%X`.T.T.T.^.%X0XwXwX&XT.K.K.T.`.%X;X,X,X>X;X%X%X%X%X",
"%X%X>XwXaXaXeX,X;X%X%X%X%X%X%X%X%X%X&XQ.K.V.v.A.W.&X,X,X;X&X%X%X%X%X%X%X%X%X%X%X%X%X%X%X%X%X%X%X`.`.`.%X;XwXeXeX>XT.J.M.J.T.`.;XwXwXwX>X&X%X%X%X",
"%X%X;X0XeXeXeXwX,X;X%X%X%X%X%X%X%X%X_.E.Z.a.a.v.~.>XeXeXwX>X;X%X%X%X%X%X%X%X%X%X%X%X%X%X%X%X%X%X%X%X%X%X%X,XeXeX>X).J.A.A.J.(.&XwXeXeXwX>X;X%X%X",
"*X*X%X&X&X8X9X9X9X>X;X>X>X,X9X>X&X(.Y.Z.g.6.9.d.K.&XwXaXaXeX0X>X;X&X&X&X%X%X%X%X%X%X%X%X%X%X%X;X;X;X%X^.^.`.>X0X9X'.L.A.c.m.J.).qXeXeXwX0X,X;X;X",
"Q.Q.W.T.L.W.Q.$X&X>X,XwXwXwX0X8X_.Y.Z.g.e.-.-.t.c.L.&XeXaXaXpX0X>X>X>X;X%X%X%X%X%X%X%X%X%X%X%X;X>X;X^.K.P.L.).&X&X_.E.A.d.u.m.Y.$XqXwXeXwXwX0X,X",
"E.E.D.M.v.v.S.E.$X8XwXeXeXwX9X_.E.m.u.<.@.O.=.-.9.v.L.&XeXaXeXwX0XwX0X,X;X%X%X%X%X%X%X%X%X%X%X;X;X%XT.M.c.v.J.T.(.W.F.d.e.<.e.m.E.7X0XeXeXwXwX0X",
"F.S.v.p.8.y.f.S.!.7X9X0X>X%XW.D.j.r.@...{ ..O.&.-.y.m.R.*X>X9X9X0XeXpXeX0X;X;X;X;X;X&X%X%X%X%X;X>X%XK.d.9.y.c.M.G.Z.g.e.O.X.@.r.G.Q.9XeXeXwX9X&X",
"V.v.p.e.;.5.8.V.I._.$X$XT.B.h.i.2.o.D Z Z {  .@.&.-.t.h.B.R.Q.$XqXrXaXaXwX0X,X,X,X>X&X%X%X%X%X&X&XQ.G.y.-.-.t.u.y.-.} [ Z Z G @.u.D.&XwXwX8X_.Q.",
"s.a.9.-.=.&.5.a.C.I.E.Y.N.i.,.o.J S M M Z { O.@.@.@.=.2.i.h.G.E.7X0XeXeXwXwXwXwXwX,X;X%X%X%X%X&X_.E.j.<.O.O.,.<.@.j y t u M Z ..<.N.T.;X&X_.E.H.",
"q.8.5.&. . .&.5.a.Z.G.j.1.o.Z B M m m B G X.@.&.+.@. . .&.e.d.A.E.).&X>X0X0X0X0X0X9X;X;X>X>X>X&XW.G.r.O.{ ..$.O.F r * - 8 m S ..@.i.B.R.T.E.H.H.",
"0.9.4.@.X... .-.e.u.u.1.O.Z m m m m M Z | @.*.*.*.&.+.+.#.7.8.s.V.A.K.W._.&X7X7X7X&X&X;X,X0X>X).D.g.=.{ Z H K J i q o & 5 m H ..@.<.i.h.N.D.F.H.",
"q.8.5.&.O. . .=.-.<.<.O.J M m c m M Z ..@.-.5.6.6.5.5.5.5.6.0.a.a.c.v.A.K.E.E.E.E.W.`.%X>X>X%XR.j.<...Z M B B M p < % & 3 m S ..O.@.,.1.h.G.F.I.",
"s.a.y.5.&.@.@.&.&.=.@...D B m m m B J O.-.6.p.s.s.c.c.c.c.c.f.s.a.q.q.s.m.G.G.m.Z.G.Y.~.^./.B.N.2...Z M m l 0 6 3 - * - 3 u M Z .. .=.e.d.G.F.H.",
"Z.V.d.y.;.*.-.-.-.@. ...G Z B m m B G O.e.p.v.A.P.K.T.T.T.K.A.V.s.q.0.8.u.u.r.r.u.d.m.M.B.N.k.>.o.Z B m c 8 > * * > 2 3 3 3 6 u Z O.<.g.Z.S.F.F.",
"S.Z.f.p.5.4.5.5.;.&.O. . ...Z M m M Z O.e.g.Z.I._.&X>X>X&X(.K.Z.f.q.8.5.5.<.,.,.<.y.s.c.i.3.J S B M B B m 6 - & * 3 0 6 , - ; 6 M $.u.Z.H.H.F.F.",
"S.Z.f.y.5.4.8.8.6.-.O.O.=.O.G M u u B ..<.g.S.!.8XwXaXeX9X_.K.Z.s.8.5.-.&.@.O.@.-.9.q.q.;.J m l x M B Z g y e e w i M u : & # 2 M >.j.I.U.U.F.F.",
"V.f.p.5.-.5.8.0.8.-.O.O.,.@.[ i 3 3 u J =.6.V.U.qXaXaXwX$XE.S.f.y.5.-.@.O. .O.@.;.8.w.0.-.Z l z x Z G { ` _ k d j A Z i : o @ > m >.j.I.U.U.F.F.",
"s.a.9.-.=.-.5.8.5.&.O.O.@.O.j t - ; 8 M { *.a.K.:XeXwX&XE.S.V.a.9.-.@.O. .O.@.-.5.0.q.8.&.Z m m Z ..@.-.;.*.*.#.+.O...s q & # 1 m $.h.F.U.I.F.D.",
"q.8.5.-.@.@.-.;.-.O.X.....[ a q & $ 2 u Z | 5.M.).&X*XE.Z.f.s.q.9.-.O. . .O.&.;.5.9.9.;. .G Z G O.<.y.p.d.v.c.c.d.t.@.j w * $ 1 m $.i.G.F.S.A.Z.",
"0.8.5.-.O. .| | | J J D h a w < & & ; 3 u g  .i.M.L.K.N.g.p.q.q.9.-.O...X.O.&.-.;.-.=. .{ {  .=.e.d.G.D.L.~.).T.J.c.;._ p 2 1 1 m K 2.u.f.v.v.f.",
"0.8.5.-.O.{ D Z Z B M i t : * & & % & - , u Z 3.u.c.d.t.<.-.6.8.5.-.O...X.O.@.&.=.X.G Z G  .;.8.f.Z.K.(.&X>X>X&XT.v.5.` h 0 7 9 m S o.<.y.p.a.a.",
"q.8.5.&...Z Z M M u 8 3 - & o . . . o & & > u G ;.y.6.=...| &.*.-.&.O....... . ...Z f u h  .9.q.l.S.W.&XwXeX0X`.K.b.6.+.k Z M M M Z D X.-.5.8.q.",
"w.0.5. .Z Z Z Z f 6 > $ @ . . . . . o o @ # , h +.5.-.X.Z Z G {  .O. ...J D J J D i 3 3 a ' 8.w.s.V.T.9XpXwX&XK.v.q.9.*.@.| { G Z Z M Z  .;.8.q.",
"w.8.-.{ M B J ..F t - # @ & & & & & & & @ @ - y { =.O.J M m M Z {  .O...Z M B B M t ; - r ' 8.q.0.a.J.&XeX9XT.v.0.8.8.9.5.;.&.O...Z m M { -.8.w.",
"0.5.@.Z m B $.,.+.s e < < : q w : : < - $ # - t j { J Z m m m Z { O.O...Z m m N m 6 $ & r #.0.q.9.9.m.).0X&XP.q.8.0.s.s.q.8.5.-.O.Z m M G *.8.w.",
"6.-.| M m S 2.u.6.' k r y i s s a p t 3 4 > 2 t f Z B M m m M D ..@.O.{ M l c N m 3 $ & r #.s.s.9.4.d.W.$XW.V.0.0.s.V.V.n.0.9.5.@.D m m G *.0.w.",
";.=.G M m J r.m.V.8.#.` _ F [ [ F h i 0 8 8 0 u M M M m m M Z ..O.@.O.J B m N N m 2 # & a e.Z.S.s.8.a.D.E.D.s.8.0.f.Z.Z.s.8.4.-.O.Z m m G &.8.w.",
"=.O.G M M $.h.F.I.A.d.5.+.} } } | D Z M m M M Z Z Z M m m B G  .@.O...J Z Z B C m 2 X o s u.E.(.P.c.c.A.S.v.8.5.6.g.j.d.y.;.&. ...B l l Z =.5.0.",
"@.O.{ Z Z %.j.H.!.!.K.c.6.+.} }  ...D Z Z Z G { { G Z m m B { O.O...J H J J J H m = X o s j.&XqX'.K.A.V.f.y.;.-.-.e.r.e.=. .{ G Z m z l Z  .-.5.",
"@.O.| G ..,.g.F._.8X&XT.c.5.#.+.O. ............. ...Z M m B ..O...Z M Z G ....H m = X & j N.9XdXpX&XT.C.a.4.&.=.=.<.<.=...Z B B M m l m Z ..=.-.",
"O.O.X...O.-.p.S._.qXwX>XT.c.6.-.@.@.@.=.O.........{ Z M m B J X.G M u u h F G H m 2 $ - F N.9XdXlXwX).A.0.7.&.&.-.;.-.O.D M m m M B B Z G X.O.@.",
"O.O. . .@.-.6.v.W.9XpXpX>XT.m.t.-.*.5.;.&...Z Z Z Z B m m B H J Z u 3 , w y h B m 7 1 3 [ j.$XdXlXpX'.A.0.7.*.;.5.6.5.@.Z m l M Z G |  .O.O. . .",
"O.O. . .O.+.7.a.P.&XeXaXeX&XK.d.5.4.4.5.=.G M m M M M m m m B M u 3 - * * : t u m 9 7 0 [ u.E.qXdXeX`.A.8.7.7.5.8.8.5. .Z m m Z ..=.-.;.-.@.O.X.",
"O.O.......} &.9.M.(.9XeXeX8XT.c.8.7.4.5.=.D m l m m B m m m x u 3 - % o o * : t 8 7 7 l J e.S.].qX9XW.c.5.] 7.5.9.5.-.| B m M G @.5.9.5.;.&.O.X.",
"@. ...J Z A } ;.d.Y.$XqXqX$XL.v.8.4.4.-. .Z m l c m N N m x 8 > & & o o o & * : , 3 7 c G ;.V.U.]._.J.u.&.+.7.4.5.*.| Z m N Z | -.9.0.9.5.&.O. .",
"@.O.{ Z M M G =.y.G.E.!.!.E.S.s.8.4.-.=...Z m l l m m m m u 3 - & & & % % & & * - 2 7 m G =.a.S.U.E.N.r.=.&.4.8.5. .Z m l m Z  .5.0.q.8.5.&.O...",
"=.O...Z m m Z ..<.f.S.I.I.S.v.p.5.*.-.@...S m l 0 0 u u 0 6 : < < < - - & & % & - 2 u B G &.5.f.F.I.G.u.<.5.a.s.y.O.B 9 7 u Z  .6.q.w.0.5.@...D ",
"=.@...Z m l m Z @.y.V.C.C.v.p.5.-.&.@.@.X.H m 0 6 3 , 3 3 , e e w t 6 > * % % * 2 t M D {  .-.u.Z.F.G.j.u.d.V.V.d.>.N 7 2 3 s } 5.a.n.q.;. .Z M ",
"@.O...Z m l l M ..;.a.n.n.a.9.-.=.@.@.O...S m 8 3 - & & - : r y i u 0 3 * & & 2 0 M D ..|  .&.e.m.F.F.Z.m.Z.S.Z.u.$.m 1 $ - t j =.9.q.8.&.G M x ",
"X...D Z m z l m G =.5.0.0.9.5.-.@.O. ...D M 8 3 - & o . & : y i M i 8 > & & - 6 M H X. . . .&.e.f.S.H.F.F.F.Z.d.,.D 8 = @ @ < y _ +.5.;. .Z m l ",
"D Z Z M m l l m Z  .-.5.5.;.-.&.O. .J Z f t , - & & o . & : u M M u 3 & % & : u S o.O.O.@.&.-.5.a.V.S.I.F.G.h.2.D u > # X . & : y j } | G B m l ",
"M M M M m l l m Z ..=.-.&.=.@.@.O...H M u 3 - & & & o . & : 0 m u 6 - o . & , f J $.O.O.@.-.5.9.8.a.V.S.F.N.2.J u 3 - & % & & * : y h Z Z B m l ",
"m m m m m m c m Z ..@.@. .........J Z m 0 3 - * & & o o & ; 6 0 8 , & . + & , M J J J ..@.5.8.9.4.;.p.V.A.d.>.M 8 3 q w q q : : : 6 u B B m m x ",
"m m m N N N c m Z ..O.O.{ Z Z Z Z Z M m 0 8 3 ; * & o o & - , 3 3 ; & . . & , f H H S Z  .5.0.5.&.| -.a.v.y.o.m 8 t a s s a p t 6 8 x m m M m x ",
"m m m m m c l m Z ..O...D M M M M M M m m x 0 3 - & o o & * - - - * & . . & : u M C m M | 5.8.;.{ Z X.5.a.5.J m u M F } [ F h i 0 0 0 m M m m m ",
"u u 8 6 6 6 8 u Z J o.J Z m m m m m m m m m m 8 ; & o o & & & & % % o o o & < 6 u x c m G =.;. .Z M G -.5.-.G m m Z } O. .{ Z i 8 6 8 u x m m N ",
"6 3 , : ; , 6 u B H J S B m x m m m x m m N m 0 > & o o & & % o o o o o o & * : 3 8 l m S | | G M m Z O.-.O.Z m m D X.O.o.J M t 3 > > 3 0 m N V ",
"- - * * - 3 0 m B B M M M m m m m m m m m m m 8 ; & o o & & & & & & & % & & & & - 3 8 m B Z Z B m m Z ..O...B m M G O.O.J M u 3 - & & - 3 0 m m ",
"o o & - 3 l V V m u t t u m m m m m m m m m u 3 - & o o o & & ; ; ; - & & o o o & - 3 0 m M M m m m B J ..S M m Z ..@.O.Z u 2 - & o o o - , 6 0 ",
"  . * 6 V P R P V 6 ; : 6 m N m m N N m m 0 3 : - & o o o & > 2 7 7 2 > & o o o o & ; 3 8 u m m m m M Z S B m m Z O.=. .h 3 ; & o o + o & - ; , ",
"  & 3 m T ^ ^ E L 8 - - 6 m m m m m m m u 3 - & & % o o & - 5 l b b l 5 ; & o o & & & - 3 u m m N m M M M M m m Z X.O.[ y - @ @ & & % & & * - - ",
"* 3 0 L Q / }.^ P m 3 3 8 m m u 8 t u 8 3 * o + + + . . & 2 c v L L v l 2 - & & & & o % : 8 m V N m m u u u c N B G j a e o . @ - > > 3 3 3 3 3 ",
"l m V P ~ z.[./ Q I N l c c 0 3 : : , : - o +       . # 2 l n P R R P v 9 2 > 2 2 ; . o * 6 m V V m u 6 3 8 c v V f y e O + . = 5 9 c m N N N N ",
"P T R E ^ / [.[./ Q T I L b 9 2 - * * - - * & o o & - 2 l n P E ^ ^ E P v c 9 c l 5 ; & - 6 m V N m 6 : - 2 0 b b u : & O & ; 7 b L P T T T T P ",
"^ ^ ^ ^ ( x.{.{.x.( Q R P L b 8 > - ; > 2 3 8 8 8 0 l b L W E ( / / ( E I L n L L b 5 > ; 3 8 u u 8 , * & ; 5 9 9 6 , : : 6 l L Y E ^ ^ ^ ^ Q Q ",
"x.x.z./ x.[.{.{.[.( ^ Q E R L c 7 2 2 7 0 N V L I I I P W E ^ z.[.[.z.^ E R R R R L b 7 2 > , 3 3 , - & & & > 2 3 3 6 8 x V I R ! ( z.z.( ^ ^ ~ ",
"[.[.[.x.[.{.{.{.x.( ^ ^ ^ E P v l 7 7 l b L T Q ~ ~ E E E ! / [.{.{.[./ ~ E E E E W n z 5 > - - - - * & & & * - : 3 0 m L T E ^ ( z.{.[./ ( ^ ~ ",
"{.{.{.{.{.{.{.{.x.( ^ ^ ^ Q R L b 9 z b n P Q ^ z.z.( ^ ~ ^ / {.{.{.{./ ^ Q ^ ^ Q R L b 7 ; & & & * & & & o % & < 3 u V P Q ^ / z.{.{.{.x.( ^ ^ "
};
