/* XPM */
static const char *wall_19[] = {
/* columns rows colors chars-per-pixel */
"72 72 222 2 ",
"   c #4A010D",
".  c #4D0B15",
"X  c #4D0E19",
"o  c #4A0815",
"O  c #510E18",
"+  c #500B16",
"@  c #4E121C",
"#  c #51141D",
"$  c #4C1521",
"%  c #4D1C25",
"&  c #521720",
"*  c #531A22",
"=  c #551E26",
"-  c #4F232A",
";  c #542027",
":  c #55242B",
">  c #59252B",
",  c #55282E",
"<  c #5A292E",
"1  c #4D2E37",
"2  c #552B32",
"3  c #5A2D32",
"4  c #502730",
"5  c #4E323C",
"6  c #543336",
"7  c #5B3135",
"8  c #55353A",
"9  c #5D3539",
"0  c #563A3D",
"q  c #5C3A3D",
"w  c #622B2D",
"e  c #60262A",
"r  c #623335",
"t  c #603739",
"y  c #613B3C",
"u  c #6B3E3D",
"i  c #693835",
"p  c #703831",
"a  c #69413E",
"s  c #76433E",
"d  c #77463C",
"f  c #5C3E41",
"g  c #543941",
"h  c #603E41",
"j  c #5E4244",
"k  c #5B4A4A",
"l  c #584646",
"z  c #5F4F50",
"x  c #5C5452",
"c  c #634343",
"v  c #6B4643",
"b  c #664847",
"n  c #6D4945",
"m  c #62464A",
"M  c #644B4A",
"N  c #6D4D4A",
"B  c #734B44",
"V  c #7A4E45",
"C  c #714E49",
"Z  c #7A4F48",
"A  c #724741",
"S  c #69514D",
"D  c #7D5246",
"F  c #73514A",
"G  c #7D524A",
"H  c #795449",
"J  c #644E52",
"K  c #645355",
"L  c #695354",
"P  c #695559",
"I  c #635B5B",
"U  c #695A5C",
"Y  c #795951",
"T  c #65605F",
"R  c #6C5F62",
"E  c #656362",
"W  c #6C6565",
"Q  c #6D6B6A",
"!  c #6F676A",
"~  c #716D6C",
"^  c #706666",
"/  c #726F70",
"(  c #6E7270",
")  c #737473",
"_  c #757A77",
"`  c #767B7A",
"'  c #787B7A",
"]  c #777778",
"[  c #834E3D",
"{  c #8B563B",
"}  c #945E3F",
"|  c #9E633E",
" . c #A7693D",
".. c #854E42",
"X. c #845446",
"o. c #895645",
"O. c #855944",
"+. c #8C5A45",
"@. c #835549",
"#. c #88574A",
"$. c #84594C",
"%. c #8C5A4A",
"&. c #925D45",
"*. c #925D4B",
"=. c #8A5D52",
"-. c #8C604C",
";. c #936145",
":. c #9B6445",
">. c #9E6846",
",. c #95614A",
"<. c #9B644A",
"1. c #9D694C",
"2. c #8A665A",
"3. c #9B6552",
"4. c #9E6953",
"5. c #966655",
"6. c #A16644",
"7. c #A46B45",
"8. c #AA6D44",
"9. c #A46C4B",
"0. c #AA6D4B",
"q. c #A2654C",
"w. c #AC7246",
"e. c #AC734B",
"r. c #A6704E",
"t. c #B2764B",
"y. c #B4784A",
"u. c #B47649",
"i. c #A46B54",
"p. c #A56D59",
"a. c #A76B53",
"s. c #AC7253",
"d. c #A5725B",
"f. c #AC735B",
"g. c #AB7958",
"h. c #B47553",
"j. c #B57A53",
"k. c #BA7C54",
"l. c #BA755A",
"z. c #B37B5C",
"x. c #BC7C5D",
"c. c #B87658",
"v. c #977463",
"b. c #8E6D60",
"n. c #A87862",
"m. c #BA7D62",
"M. c #B47A61",
"N. c #C17F5C",
"B. c #76817C",
"V. c #78827E",
"C. c #BE8156",
"Z. c #B6825A",
"A. c #BC845B",
"S. c #BE895C",
"D. c #BE8264",
"F. c #B98865",
"G. c #B58C71",
"H. c #BE957A",
"J. c #C18156",
"K. c #C3825C",
"L. c #C98859",
"P. c #C58B5E",
"I. c #C48562",
"U. c #CB8564",
"Y. c #C28D63",
"T. c #CC8A64",
"R. c #CD8C6B",
"E. c #C5886A",
"W. c #D28E6B",
"Q. c #D18D65",
"!. c #C4946B",
"~. c #CB926C",
"^. c #C99368",
"/. c #D4926C",
"(. c #D8966D",
"). c #CA9B72",
"_. c #C69876",
"`. c #D49372",
"'. c #D99472",
"]. c #D49A75",
"[. c #D39E79",
"{. c #D99E7A",
"}. c #DD9B75",
"|. c #D28F71",
" X c #E29D70",
".X c #CEA27A",
"XX c #D3A47C",
"oX c #DAA47D",
"OX c #D9AA7E",
"+X c #D4A57B",
"@X c #E4A57E",
"#X c #7A8581",
"$X c #7B8C84",
"%X c #7C9087",
"&X c #7E928A",
"*X c #829D93",
"=X c #80958C",
"-X c #C39D80",
";X c #C8A283",
":X c #D5AD84",
">X c #DBAC83",
",X c #D7A682",
"<X c #D6B086",
"1X c #D9B086",
"2X c #D6B288",
"3X c #DAB38A",
"4X c #DDB98E",
"5X c #DEB990",
"6X c #E2AF8A",
"7X c #E4AB83",
"8X c #E2B48B",
"9X c #E3BA8E",
"0X c #E8B68C",
"qX c #E5BD93",
"wX c #EABC93",
"eX c #E5B690",
"rX c #F1BE94",
"tX c #EBC296",
"yX c #EAC39A",
"uX c #E8C399",
"iX c #F2C89B",
"pX c #F2CBA0",
/* pixels */
"$X$X$X$X) J > .   . & 2 9 c C @.%.*.%.#.#.%.%.%.%.#.#.#.*.q.c.U.].>X:XXX~.U.U.W.R.D.p.*.o.X.#.%.%.%.%.#.#.%.*.%.@.B c 9 2 & .   . > J ) $X$X$X$X",
"$X$X$X#X) P 7 & . X & > 9 c C @.%.*.*.%.#.%.%.%.%.%.@.X.%.3.x.R.{.>X:XXX).R.W.W.R.m.i.%.X.X.%.%.%.%.%.#.%.%.*.%.@.C c 9 > & X . & 9 P ) #X$X$X$X",
"$X$X$XV.) U m 3 = # # ; 7 c C G #.*.*.*.%.#.#.%.*.%.X.V @.5.D.].>X>X:X,X[.].'.'.R.z.5.@.D X.%.*.%.#.%.%.*.*.*.#.G C c 7 ; # # = 3 m U ) V.$X$X$X",
"$X$X#X` / ! R K q = # & 3 c C G #.*.<.:.:.%.#.%.*.*.X.A B 2.G.>X0X8X:X:X>X>X7X}.R.f.#.B B X.*.*.%.#.%.:.:.<.*.#.G C c 3 & # = q K R ! / ` #X$X$X",
"%X$XV._ ) ` ` ) P 7 & & 2 c N G %.<.e.e.9.,.%.%.*.%.B y c 2.H.qXiX9X:X:X5XqX0X@XR.p.G c c Z %.*.%.%.,.9.e.e.<.%.G C c 3 & & 3 P ) ` ` ) _ V.$X%X",
"%X$X$X` ` #X&X$X~ c > ; 2 c N G ;.0.j.k.j.9.,.%.%.X.a 6 f 2.;XiXiX9X:X<XqXyXtX7XW.p.Z f q v @.#.%.,.9.j.k.j.0.;.G N c 2 ; > c ~ $X&X#X` ` #X$X%X",
"%X$X$XV.#X$X&X$X~ N 9 3 8 j B O.7.j.J.I.K.j.9.;.O.B q 1 f 2.;XyXiX9X:X<XqXyXrX7XW.p.G f 0 f B X.&.9.j.K.I.J.j.7.O.B j 8 2 9 S ~ $X&X$X#XV.$X$X%X",
"$X$X$X$X$X$XB.) W L c q q c V ;.e.J.T.R.T.J.e.;.D c 6 1 c 2._.qXiX9X:X:X5XqX0X@XR.f.@.c 0 0 c D ;.e.J.T.R.T.J.e.;.V c q q c L W ) B.$X$X$X$X$X$X",
"B.V.$X$X$X_ W K m m m j c v X.1.k.T./.`./.L.t.;.B g 1 6 v 5._.6X0X8X:X<X3X4X7X].I.a.#.v 0 5 g B ;.t.L./.`./.T.k.1.X.v c j m m m K W _ $X$X$XV.B.",
") _ V.#XV.W m 3 2 9 j m n Z *.s.I./.'.'./.L.t.;.n g 5 q V 3.E.{.7X>X:X<X3X>X+XY.j.9.+.B h g g n ;.t.L./.'.'./.I.s.*.Z n m j 9 2 3 m W ' #XV._ ) ",
"/ ) ` ` ) P 3 & & 3 c N D %.i.m.R.`.`.R.U.J.e.;.B c c B %.i.x.R.].oX:X3X3X:X).A.e.6.:.%.Z c c B &.e.J.U.R.`.`.R.m.i.%.D N c 3 & & 3 P ) ` ` ) / ",
") ] ] ) W M 2 & = r B G +.<.c.T.`.`.E.m.h.s.9.;.O.D $.5.p.c.l.N.T.[.:X4X5X1X).A.w.8.0.p.5.$.G O.;.9.s.h.m.E.`.`.T.c.<.+.G B r = & 2 M Q ) ] ) ) ",
"] ] ) Q I l 9 3 r A @.;.:.e.C.W.'.R.M.4.,.,.<.:.;.<.s.M.I.x.c.j.A.).:XqXuX8X.XA.w.t.x.I.m.s.<.;.:.<.,.,.4.M.R.'.W.C.0.:.*.@.s r 3 9 l I Q ) ] ] ",
"` ) Q I k f f c n G %.,.7.e.C.T.R.m.i.%.X.@.%.,.>.e.C.T.R.I.j.e.j.!.:XuXyXqX+XA.e.t.K.R.T.C.e.>.;.%.@.X.%.i.m.R.T.C.e.7.,.%.G n c q l k I Q ) ` ",
") W I k 8 6 q b N H @.&.:.e.j.x.m.f.3.o.Z B G o.:.e.C.T.T.J.t.w.g.!.:XyXpXtXXXZ.9.0.x.T.T.J.e.:.o.G B V o.3.f.m.x.j.0.:.&.@.H N b q 6 8 k I Q ) ",
"E I k 6 : > 9 c b n B D &.<.9.i.4.3.,.#.D B n B O.<.h.k.J.y.w.w.g.!.:XyXiXtX;Xn.,.:.e.J.J.h.<.X.B n B D #.,.3.4.i.9.<.&.X.B n b c 9 > ; 6 k I E ",
"x k 0 : & = 7 c m c c n D %.*.%.%.%.*.%.D v c v Z %.<.r.e.w.8.e.Z.!.:XuXiXqX_.n.%.o.:.e.e.9.%.Z c c v D %.*.%.%.%.*.%.X.n c c m c 7 = & : 0 k x ",
"k l 6 = # = 7 c M j j c B Z X.X.o.#.#.@.B c f c B @.*.<.:.7.0.j.D.).:XqXtX9X_.d.*.{ } :.1.,.@.B c f c B @.#.#.o.X.X.Z B c j j M c r = # = 6 l k ",
"k l 6 = # = 9 c M b m c c v Z X.#.#.D B c f f c Z #.%.+.;.q.h.N.T.[.:X4XqX3X).z.1.} &.&.,.*.#.Z c f f c B D #.#.X.Z v c c m b M c r = # ; 6 l k ",
"x k 0 : & = 7 c b c c f f c B @.%.@.B c f f c B @.%.%.o.%.3.x.R.].oX:X3X3X:X).A.e.:.&.%.%.%.%.@.B c f f c B @.%.@.B c f f c c b c 7 = & : 0 k x ",
"E K j 2 & * < 9 y y 9 q q c N G @.Z v f f v B @.#.%.X.X.#.4.E.{.7X>X:X<X<X,X].Y.k.9.*.@.$.#.%.#.X.B v f f v Z @.G N m q q 9 y y 9 < * & 2 j K T ",
"( W J 9 & # = > > : > 3 q m N C B v c f v B @.%.*.%.X.V #.n._.6X0X8X:X:X:X:X+X/.K.s.*.@.@.@.%.*.%.@.B v f c v B C N m q 3 > : > > = # & 9 J W ( ",
"#X) U q & . # & & # & > 9 c c c c h f c n D %.*.*.%.X...%.n..XqXtX9X:X:X:X:X,X}.R.x.q.%.X.@.%.*.*.%.D n c f f c c c c 9 > & # & & @ . & q U ) #X",
"=XV.W h #   . # # @ # = < 9 y h f j c c n D @.#.%.#.X.[ &.M.,XyXiXqX<X:X:X:X>X7X{.E.s.;.+.o.%.%.#.@.D n c c j f h y 9 < = # @ # # .   # h W V.&X",
"*X$X~ h #   . & & # # & = > 3 q c m c c v n B Z @.#.o.{ :.Z.>XyXpXqX3X:X:X:X3X0X6X[.Z.7.&.+.#.@.Z B n v c c m c q 3 > = & # # & & .   # h ~ $X*X",
"*X$X~ c &   X & = & & # # & > 9 c c c c f f c n G %.&.:.e.Y.OXqXuX9X:XXXXX:X4XuXqX>XY.e.:.&.%.G n c c h c c c c 9 > & # # & & = & X   & c ~ $X*X",
"&XV.Q m : @ @ # * * & # @ # : 9 c v y 9 9 q j n G *.9.j.Y.).OX>X>X,X.X.X.X:XqXyXyX6X^.k.8.:.*.G N j q 9 9 y c c 9 : # @ # & * * # @ @ : M Q V.&X",
"#X_ Q K 8 - @ # # & & # @ # > 9 c y 3 > 2 q m N D *.f.!.OX>XOX.X).).).)..X:XqXyXyX8X].K.t.q.*.$.C m q 2 > 3 y c 9 > # @ # & & # # @ - 8 K Q _ #X",
"` ) Q I k 6 ; & # & & # # & < y c q > & = 7 c v B %.M.,XqXqXOX!.F.Y.!.)..X:X4XqXqX8XoXR.x.q.%.H N c 7 = & > 9 c y < & @ # & & # & ; 6 k I Q ) ` ",
"` ] ) Q I k 8 > = & & # @ & 3 c c y ; @ @ : 7 9 y Z n.:XyXtX+XY.A.Y.)..XXX:X3X4X8X0X7X{.D.5.Z a q 7 : @ @ ; q c c 3 & # # & & = > 8 k I Q ) ] ` ",
"V.B.` ) Q I k 0 2 ; & # @ & 3 c c y > # X # = - 4 c v.;XyXwX+XY.F.!.+X,X:X:X:X:X3X9XwX6XH.2.c 2 4 = # . # > y c c 3 & @ # & ; 2 0 k I Q ) ` V.V.",
"$X$X#X' ) W I k 8 : & # X & < y c y < & # # & % 4 c b.;XqXwXoX!.!..X:X3X1X:X:X.X:X9XiXqX-X2.c 4 % & # # & < y c y < & X # & : 8 k I W ) ' $X$X$X",
"&X%X$X#X` Q E x 0 , & # # & > 7 9 9 3 > : > e < r B v.;XqXwX>X).).XX3X3X3X:XXX.X,X9XiXyX;Xv.B r < > > ; > 3 9 9 7 > & # # & , f x E Q ` #X$X%X&X",
"%X%X$X#X` ( E x 0 , & # # & = : > 3 7 9 y u s d [ ,.F.,XqXqX3XXX.X:X:X3X<X:X:XXX:X9XyXtX,XF.,.[ d s u y 9 7 2 > : = & # # & , 0 x E ( ` #X$X%X&X",
"$X$X$X' ) W I k 8 : & # # & & # & : 7 c N G %.&.:.e.Y.OXqXyX9X:X:X,X:X:X:X:X,X:X:X4XuXqX>XY.e.:.&.%.G C c 9 : & # & & # # & : 8 k I W ) ' $X$X$X",
"#XV.` ) W K k 0 2 ; & & & # X o X = 9 n Y -.<.6. .y.P.+X9XqX5X1X:X:X:X:X:X:X,X:X:X4XqXqXOXP.t.8.7.1.5.Y N t = X o X # # # & ; 2 0 k K W ) ` V.#X",
"` _ ) W K j 6 > = & & & & # X o X ; y H -.<.7. . .w.A.).3X4X4X:X:X:X:X:X:X:X,XXX,X3XqX4X+XS.w. .8.9.4.5.G u : X o X # & & & & = > 6 j K W ) _ ` ",
"` ) Q I k 6 ; & # # & & * & @ @ & w s %.4.r.e.8.8.e.A.).:X3X3X:X,X:X:X:X:X:X:X,X:X3X3X:X).Z.e.8.8.e.r.1.%.s w & @ @ & * & & # # & ; 6 k I Q ) ` ",
"] ) Q I k 6 ; # O O # = : > > > w p ..q.z.Y.Y.S.k.j.D.).:X3X<X:X,X:X:X:X:X:X<X3X3X:XXX).Y.Z.j.j.k.k.j.9.;.[ p w > > > : = # O O # = 6 k I Q ) ] ",
"] ] Q E k 8 : # O O # ; 3 t y u d ..q.l.~.OX>X+X~.I.E.[.:X2X<X:X:X:X:X:X,X:X3X4X3XXX!.A.C.K.I.T.T.K.k.t.7.&.[ s u y y 3 ; # O O # ; 8 k E Q ] ] ",
"` ) Q I k 8 : & # # & > 9 c n H %.q.l.R.oX0XqX8X].R.R.[.:X3X<X:X:X:X:X:X:X:X3X4X:X).Z.e.t.N.R.`.`.R.I.k.e.7.:.%.G N c 9 > & # # & : 6 k I Q ) ` ",
") Q E z 0 : = & # & ; 2 0 j N @.1.z.~.oX0XwXeX,X`.T.T.].,X>X:X:X:X:X:X:X:X:X:XXX).F.r.:.7.j.T.`.`.`.R.I.k.j.r.1.%.F j 0 2 ; * # & * : 0 z E Q ) ",
"E I k q ; @ @ # = < 7 0 g f v O.9.Y.oX0XwX8X{.T.K.k.J.T.].,X,X:X:X:X:X1X3X:X+X!.A.r.;.&.:.r.k.T.W.`.`.W.T.K.k.r.-.N f g 0 7 < = # @ @ ; q k I E ",
"x k q 2 & X X & > t c m j c d { e.^.1XqXeX,XR.x.t.e.t.N.R.].,X:X:X:X:X3X3X:X).S.e.:.&.%.*.:.e.k.I.R.|.|.R.T.C.e.;.B c j j c t > & X X & 2 q k x ",
"0 8 6 , = & & ; 7 v C F Z D o.6.k.~.>X8X6X{.T.c.0.7.7.t.K./.oX<X<X:X:X3X3X:X).C.8.| &.%.%.;.7.t.k.I.T.T.I.K.k.e.:.+.D Z F C v 7 : & & = , 6 8 0 ",
"; : , 3 7 7 2 7 y B @.%.;.:.9.c.K.~.].oXoX}.W.x.a.;.:.8.k.^.+X<X3X<X:X1X3X:X).A.w.6.&.*.%.%.,.9.t.k.C.x.j.j.t.e.w.7.:.,.%.@.B y 7 2 7 7 3 , : ; ",
"# & > 9 c m m c v G %.,.7.e.k.I.R.W.R.R.W./.R.m.4.%.o.:.e.S.).:X3X1X:X1X3X:X).A.e.:.&.%.@.@.%.,.9.e.t.t.e.e.e.e.e.t.e.9.<.%.Z v c m m c 9 > & @ ",
". # : q M L F F G #.*.:.6.e.x.W.'.'.U.N.N.I.m.p.=.G V +.9.z.~.oX>X:X:X3X3X:X).Z.1.&.O.D Z Z G #.;.>.7.w.w.w.e.e.e.e.0.9.,.*.@.G F F L M q : # . ",
"+ # : 9 M Y Y $.%.*.*.&.&.<.z.R.'.(.L.k.e.a.4.=.H n A X.,.s.I.`.oX,X:X3X4X:X_.g.%.V A n v v n Z X.&.:.7.w.w.e.e.9.<.,.*.*.%.%.#.$.Y Y M 9 : # X ",
"# & ; 7 c F @.%.*.*.%.X.X.%.i.m.R.T.C.e.7.,.%.Z v c v B %.i.x.R.].oX:X3X4X:X_.d.%.B v c j f c n G %.<.9.e.y.y.e.9.,.%.#.#.%.*.*.%.@.F c 7 ; & # ",
"& & = > 7 u Z @.@.@.D D X.#.5.p.f.f.r.7.:.&.o.B c f f v @.3.l.U.`.oX:X3X3X:X).M.3.X.A c q 0 f v G %.<.9.9.e.y.t.e.<.*.%.#.#.#.#.X.V u 7 > = & & ",
"& & & & = 3 u B B n n Z @.%.%.$.$.$.%.,.,.,.%.D v f q v X.<.l.U.`.oX:X2X2X:X[.E.l.q.#.B a q f v G *.<.<.<.9.e.y.y.e.9.<.*.#.@.H B u < = & & & & ",
"& & # # & > 9 c m j c B @.%.@.n c v Z %.,.,.%.D v c c B %.i.x.R.].oX:X<X<X:XoX].R.x.i.%.B c c n G %.*.%.%.,.9.e.y.t.e.9.,.%.G N c 9 : & # # & & ",
"& & & = : 3 q f f f f v D @.B c f c B #.%.@.G B v n Z #.i.z.E.`.+X>X:X:X:X:X>XOX{./.D.p.*.Z n n B D G Z G @.%.<.9.e.e.0.<.*.G n f 8 2 : = * & & ",
"& * : 3 9 y h f f f j v n B v j j n G #.@.B c c v G *.p.m.T.].oX,X:X:X:X:X:X>X>X>XoX`.I.p.*.G B v v v v v n B H %.,.<.9.<.*.@.v f q q 9 3 : * & ",
"@ & > 9 c b c c c c c c c c j f c B @.%.@.B c c B %.i.x.R.].oX:X:X:X:X:X:X:X:X:X:XoX].R.x.i.%.Z v c c c c c f c n D %.*.*.%.D n c m m c 9 > & @ ",
". @ = 3 y c b c v v c c c f q 9 y s o.*.%.X.D D O.<.h.U.'.oX>X<X<X<X:X:X:X:X:X:XXX[./.T.N.s.<.o.B v c c c q 8 6 y v Z @.@.X.B n c m m y 3 = @ . ",
". X # = < q c b c v c c c f 9 , < i ..*.1.1.:.:.:.9.c.U.'.oX>X<X<X:X:X:X:X:X,XoX].~.I.C.j.t.9.<.o.D C n c 9 : : 2 y v B B n n n c c q < = # X . ",
"& & # # & > 9 c c v c c b c 7 = & > u %.4.r.e.w.w.e.j.K.R.].oX:X<X:X:X:X<X:XoX].R.K.j.e.w.w.e.9.,.%.G N c 7 = & ; 7 c b c c v c c 9 > & # # & & ",
"q 9 > & X # > 9 h c c N S c 7 $ X $ r B -.9.r.e.e.e.t.j.I.~.+X:X<X:X:X:X<X:XoX`.U.l.0.7.8.w.t.e.q.*.G N f 4 $ X & 7 m M M c c h 9 > # X & > 7 q ",
"W P c > # . # > 7 y c S S b 7 % X $ 4 c F %.<.9.e.e.e.t.j.F.).:X3X1X:X:X<X:XoX`.U.l.0.8.8.w.t.e.<.%.G b f 4 $ X & 7 m S M m q 7 > # . # < c P W ",
"#X) U q &   . & > 9 c b M c 7 ; & = 7 c N G %.,.9.e.w.8.e.C.).:X3X3X:X:X:X:XoX].R.K.j.e.w.w.e.9.<.%.G C c 7 = & ; 7 c M b c 9 > & .   & f U ) #X",
"&X#XQ M : X X # = 3 9 q 9 7 < w p p V G $.$.+.:.e.t.w.8.w.Z.).:X3X3X:X:X:X:X,X[.`.~.Y.A.j.e.7.6.:.&.%.@.D s i w w 3 7 y y 9 3 = # o X : M Q #X&X",
"=X$X) I 8 % @ # * : > > = ; w p { <.f.f.d.1.:.7.e.y.u.w.w.A.).:X3X3X:X:X:X:X,XoXXXXX.X).F.e.8.| :.>.1.1.<.&.o.d i < ; : > > : * # @ % 8 I ) $X=X",
"=X$X_ E k 6 ; & # * & $ X & p { e.K.R.R.I.k.e.w.e.e.8.8.e.A.).:X3X3X:X:X:X:X:X,X:X3X3X:X).A.e.8.8.e.t.e.e.r.1.%.s w & @ @ & & # & ; 6 k E _ $X=X",
"&X$XV.( I j 2 & # O X X X = s 9.P.(. X'./.T.C.e.9.<.&.:.9.Z.).<X4X3X:X,X:X:X:X<X3X5XqXqX1X).Y.A.C.C.k.y.t.e.i.,.V r = @ @ X O # & 2 j I ( V.$X&X",
"%X%X$XB.Q J 7 & X + X @ % 7 @.z./. X}././.'.T.z.,.D d [ ,.z._.<X4X3X:X,X,X:X:X<X3X4XqXqX9X1XOX+X/.T.J.y.w.7.1.,.@.v 7 ; $ X . . & 3 J Q B.$X%X%X",
"$X$X$X#X) P 9 & X O & ; 2 c =.M.R.'.W.R./.(.R.f.$.c q a %.f._.:X3X3X:X,X:X:X:X:X:X:X:X:X:X<X:XoX].R.K.k.e.7.:.%.G N c 9 > & X . & 7 P ) #X$X$X$X",
"B.V.#X#X] P 9 & # * < 7 q b Y 4.m.I.E.T.W./.I.i.H f 0 v #.d.E.+X>X>X:X:X:X:X,XoX+X).!.G.G.G.G.G.D.I.K.J.j.s.<.#.H N b c 9 < * # & 7 P ] #X#XV.B.",
"] ` ' #X] P 7 & # > 9 j j c C #.4.l.I.R.W.T.j.,.B f f v #.p.D.`.oX>X:X<X<X:X>X[.`.E.z.p.2.2.2.5.i.j.L.T.I.z.i.#.Z n c m c q > # & 7 P ] #XB._ ] ",
"~ ) ` ` ) K 3 & * 3 c b m c v B %.p.D.R.Q.L.e.+.B c c B %.i.x.R.].oX:X<X<X:XoX].R.x.i.%.B c c B +.e.L.Q.R.D.p.%.B v c m b c 3 * & 3 K ) ` ` ) ~ ",
"~ / ] ` ) K 3 & = 9 b M b c y a X.3.m.R.Q.J.8.{ d v c B %.i.x.U.`.oX:X<X<X:XoX`.U.l.<...y 1 1 t [ 8.J./.`.E.f.%.B a c m M b 9 = & 3 K ) ` ] / ~ "
};
