/* XPM */
static char *result[] = {
/* columns rows colors chars-per-pixel */
"72 72 235 2 ",
"   c #3C0F20",
".  c #4A030F",
"X  c #4A0814",
"o  c #4D0A15",
"O  c #4D0E19",
"+  c #510A15",
"@  c #500F19",
"#  c #4E111B",
"$  c #4B141F",
"%  c #51141D",
"&  c #5C161C",
"*  c #4C1521",
"=  c #481825",
"-  c #4D1B25",
";  c #511720",
":  c #521A22",
">  c #561F29",
",  c #4F242B",
"<  c #4D222C",
"1  c #552027",
"2  c #5C2327",
"3  c #54242A",
"4  c #5A252B",
"5  c #55292E",
"6  c #5A292E",
"7  c #4D2933",
"8  c #542C32",
"9  c #5A2D32",
"0  c #4D333B",
"q  c #543236",
"w  c #5B3236",
"e  c #54363A",
"r  c #5C3539",
"t  c #553A3D",
"y  c #5C3B3D",
"u  c #642626",
"i  c #632C2D",
"p  c #68332F",
"a  c #612F31",
"s  c #653433",
"d  c #6C3633",
"f  c #6B3933",
"g  c #623638",
"h  c #633B3C",
"j  c #6C3C3A",
"k  c #723933",
"l  c #723E39",
"z  c #66413F",
"x  c #6D433D",
"c  c #6F493E",
"v  c #75443D",
"b  c #77463C",
"n  c #7C493C",
"m  c #4D3540",
"M  c #553B40",
"N  c #5C3E41",
"B  c #633F40",
"V  c #564243",
"C  c #5C4244",
"Z  c #5C4749",
"A  c #5A4948",
"S  c #5A4B4A",
"D  c #5A504F",
"F  c #5F4E50",
"G  c #5D5352",
"H  c #634343",
"J  c #6B4643",
"K  c #654846",
"L  c #6D4945",
"P  c #634749",
"I  c #654A4A",
"U  c #6C4C49",
"Y  c #734641",
"T  c #784640",
"R  c #744B44",
"E  c #7A4E45",
"W  c #734E49",
"Q  c #69514E",
"!  c #775146",
"~  c #7C5145",
"^  c #74514A",
"/  c #7C534A",
"(  c #6B4F50",
")  c #635355",
"_  c #685659",
"`  c #635B5B",
"'  c #685959",
"]  c #64615F",
"[  c #6A5D61",
"{  c #666562",
"}  c #6B6565",
"|  c #6C6866",
" . c #6C6B6A",
".. c #716D6E",
"X. c #6C736E",
"o. c #716E70",
"O. c #6F7371",
"+. c #737373",
"@. c #737A76",
"#. c #797779",
"$. c #767C7A",
"%. c #787E7C",
"&. c #844C3B",
"*. c #86513E",
"=. c #8B573B",
"-. c #8C533C",
";. c #91593D",
":. c #A1673F",
">. c #854E42",
",. c #835445",
"<. c #8A5543",
"1. c #865944",
"2. c #8C5A45",
"3. c #835549",
"4. c #89574A",
"5. c #855A4C",
"6. c #8C5A4A",
"7. c #925E46",
"8. c #925E4A",
"9. c #985E49",
"0. c #855D51",
"q. c #8C604C",
"w. c #946246",
"e. c #9B6445",
"r. c #9E6946",
"t. c #95624B",
"y. c #9A644B",
"u. c #95684D",
"i. c #9D694C",
"p. c #8D6658",
"a. c #946451",
"s. c #9B6853",
"d. c #9B6C5B",
"f. c #A16647",
"g. c #A46B45",
"h. c #AA6D44",
"j. c #A46C4A",
"k. c #AA6E4B",
"l. c #B46F4A",
"z. c #AC7146",
"x. c #AD734A",
"c. c #A8734D",
"v. c #B2754B",
"b. c #B8754F",
"n. c #B57A4C",
"m. c #BA7D4D",
"M. c #A66B54",
"N. c #A46C54",
"B. c #AB7453",
"V. c #A67459",
"C. c #AB7A5C",
"Z. c #B37453",
"A. c #B97651",
"S. c #B47B53",
"D. c #BB7D54",
"F. c #B3755B",
"G. c #B47C5C",
"H. c #BC7B5C",
"J. c #987362",
"K. c #A97862",
"L. c #B97D63",
"P. c #C07F55",
"I. c #C17E5A",
"U. c #C37F62",
"Y. c #76827C",
"T. c #78837E",
"R. c #BD804E",
"E. c #BA8358",
"W. c #BB835B",
"Q. c #B78564",
"!. c #BD8263",
"~. c #BD8B62",
"^. c #B3896D",
"/. c #BB8D6C",
"(. c #C28257",
"). c #C5835D",
"_. c #C28A5E",
"`. c #CA8A5C",
"'. c #D08C5E",
"]. c #C48463",
"[. c #C88765",
"{. c #C38D64",
"}. c #CC8B64",
"|. c #CE8C6B",
" X c #D18D68",
".X c #C49166",
"XX c #C79569",
"oX c #C6946B",
"OX c #CA966D",
"+X c #C9986F",
"@X c #D4936A",
"#X c #CB8E70",
"$X c #CD9371",
"%X c #CC9C73",
"&X c #C69A79",
"*X c #D39B75",
"=X c #D79975",
"-X c #CEA077",
";X c #CEA279",
":X c #D2A177",
">X c #D2A57C",
",X c #DBA27D",
"<X c #D3A87F",
"1X c #DAAB7E",
"2X c #E2A37B",
"3X c #798581",
"4X c #7B8C84",
"5X c #7C8D87",
"6X c #7C9187",
"7X c #7E938A",
"8X c #80948C",
"9X c #84A297",
"0X c #C99F82",
"qX c #D6A784",
"wX c #D5AC83",
"eX c #DAAD83",
"rX c #D6B186",
"tX c #DAB087",
"yX c #D6B18C",
"uX c #DCB38A",
"iX c #DEB88F",
"pX c #E2AD87",
"aX c #E2B58C",
"sX c #E8B78B",
"dX c #E2B98E",
"fX c #E7B692",
"gX c #E6BC93",
"hX c #EABD94",
"jX c #EAC197",
"kX c #EBC39A",
"lX c #EAC49A",
"zX c #F1C69C",
"xX c #F3CA9C",
"cX c #F3CCA2",
"vX c #F5CEA4",
/* pixels */
"..o.+.+.+.......+.Y.4X4X4X4X6X8X7X8X4X%...` S V t D { Y.9X9X7X4XT.6X4XT.+...+.#.#.+.{ D t , % o o % % 1 : % % % 1 t G { @.3X4X7X7X7X7X4XY.O. .} ",
"+.+.+.+.+.+.+.+.@.T.4X4X6X4XT.6X6XT.Y.+.} ) A V M A ] @.4X6X6X4X4X6X4XT.@.+.+.+.+. .` S q 3 % % % % : : : % % % 3 e S ` | +.$.3X4X6X7X6XY.@.+.o.",
"$.@.+.+.+.o.+.@.T.T.4X4X4XT.T.Y.@.+. .} ' I V C V A D ]  .$.T.4X6X4X4XT.$.#.@.o. .` S V q 5 3 3 3 4 1 % % % : 3 5 q q V F _ | +.@.Y.4X4X4X3XT.%.",
"T.T.$.+...+.$.T.4X4X4X4XT.Y.@. .] ` ) ) S Z A C H H N y H _ +.T.4XT.$.%.%.$.@. .] S e 5 3 6 r g y r 4 : % : 6 w q 5 , , 9 N P ) { O.@.3X4X5X5X7X",
"6X4XY.@.+.+.%.4X6X5X4X3XY.+.} G S C N z H B H K K H 9 % % r _ +.$.#.+.+.@.+. .` S q 1 % 1 w H K K z w : % 3 y z B 5 % + @ ; 3 e S G  .o.T.T.4X4X",
"7X4X4XY.$.$.T.4X6X5X5X3X+.} ) A y y h x v Y Y U K z 4 o . % r _ }  .} } [ _ F V q , O O : w K ' Q K y 3 3 w N K J d u & + o O - q M F _ ' | | | ",
"6X4X4X4XT.Y.%.%.3X5X3X@.| G A t N z v E ,.,.3.W U N 5 $ o + 1 r Z G ` ) B w 6 5 3 $ o % 2 s P U Q P y y w r y H R R l d & o X $ 3 4 9 9 g g r y ",
"4X4X4X6X4XT.@.+.+.+.@.| G S V y B L 3.6.9.8.6./ U H r 3 % % o % 8 Z S N 8 : @ ; : % % % 3 w H H H H z z H N N H W 3.6.&.s * O $ ; : : : : : : : ",
"3X4X5X4X4XY.X.| [ _ ) F P C M N B R 3.8.a.9.8.4.~ L B r 5 * o O * 8 q 8 1 o o o @ % 1 4 w y y N h H J U W H N N W 6.a.3.j 3 - * % % + o O % % : ",
"4X4X4X3X$.@.| ` Z M 9 9 y N C M B J ~ 6.8.8.6.6.4.3.R H r 3 @ O @ * 1 - % % o o # : 6 g y y y y N H L ~ / W J z R 3.6.3.J w 5 - % @ + o % 1 6 w ",
"4X4X3X%.+.} ` S q : : > w z P C H J ,.4.8.8.6.6.6.6./ W B r 3 ; % % : * : % % % : 3 r z K K H y N H R 1.6.,.L H L 3.4.5.W B q 3 : @ O ; 6 h H K ",
"6X4X3X@.| G V q > - : 4 r H U L R E 3.6.6.6.4.6.6.6.6./ W B 9 5 1 1 1 1 1 : : : 4 q y H U ! ! L B N L 4.e.4.Y H J ~ 6.a.5.W h 4 ; # * 3 r H K I ",
"7X4XY.X.G V 8 1 : 2 6 r h H L ~ 3.4.8.8.8.6.4.4.4.4.6.6.3.W B r w r w 6 > % > 6 r y M C ^ 6.e.3.H N L w.j.w.E H J / a.s.a.5.l 2 % * 3 r H H K K ",
"7X4XY.{ A 5 - : 3 r H Z C H Y ~ 6.8.6.6.4.2.6.6.6.6.6.8.6./ Y H H H H w 1 : : w H C N H ~ g.x.e.R H W e.x.r.~ z H R 6.y.s.6.v u : - 8 H K H H H ",
"8XT.X.) e , : 1 6 z I I C C J E 3.3.3.,.~ 3.6.8.t.t.t.7.4.>.R U I Q H r 1 : 1 h K I P R 2.x.n.h.1.E 1.k.D.N.~ N e g b >.6.3.v 9 3 4 h U U J B y ",
"8XY.| Z 3 % 1 w h H H H H N H L R Y L L R 3.6.y.j.j.f.7.3.>.E >.^ Q Z w 1 : 4 y I U U ~ w.x.n.z.e.w.j.D.I.V./ N 7 3 u d Y ^ L h r h R ~ ^ L H y ",
"3X+._ r ; % 9 H I H H H H H H H H N B H J E 6.y.c.x.g.t.6.4.4.4.3.^ H 8 > - > q H U / 6.y.k.x.z.g.x.R. X|.L.0.H 7 * : 3 r H Z C H R 3.6.,.R H N ",
"..} P 8 * : r U Q P H h J J J H N t M N J ~ 6.y.j.j.k.N.s.M.M.f.t./ J 9 - O * - r Y 3.9.y.y.r.f.z.D.@X=X>X#XJ.E w 3 - - 3 w y H L 5.t.y.,.R N M ",
"] ) N 5 % : g K I I B J E ~ E H N t M H R ~ 6.8.9.t.N.F.L.].U.H.V.8.E s > O O = 4 j >.9.a.8.6.y.l.).=XsXaX<XQ.e.n f q , - 3 9 J ~ a.c.j.7.R y t ",
"G S e 3 : : w H H N H R ,.6.3.E H t N B R 3.6.4.,.6.s.G.|.=X=X XL.V.2.v 6 ; O O ; p E 6.5.6.6.y.F.|.2XsXgXeX.Xx.;.! H 7 - ; u l 6.N.v.x.w.! H M ",
"D V e 5 : : i w y N H W 6.8.8.3.Y C y N J 3.4.4.3.3.a.F.'.=X,X,X$XL.M.<.l i ; X O 1 j E 5.2.t.B.].*XpXfXfXqX`.n.g.5.W w = ; 2 n r.S.S.x.t.3.J B ",
"D A t 5 : % : 4 8 N K ^ 5.8.8.6.~ J N N H ~ 6.8.6.6.9.k.(.@X1XpXqX$XF.M.4.v i % O * 9 L ~ w.c.W.*XpXfXpXqX X(.v.j.a.3.j ; O u &.c.R.m.x.e.6.3.E ",
"G S M 8 : o @ % 3 r H W 3.6.8.9.6.~ J H J / 6.6.6.6.2.e.v._.1XjXfXpX XH.N.6.l u ; - q H ! ;.v..XtXgXfXqX XI.l.l.c.i.4.l > & u -.x.R.m.z.i.8.6.4.",
"D A t 4 % + @ % : 5 r B Y / 6.8.9.6.,.~ E 3.4.6.6.6.=.;.r.W.wXlXzXfX=X[.G.u.>.d i 9 r H c =.g..XdXzXgX*XI.l.l.k.c.i.8.l 9 > p -.j.m.m.v.j.y.6.4.",
"D A e 3 % + O % ; > 3 w h J ~ 4.8.y.y.y.w.6.3.3.4.4.,.*.7.L.0XlXvXhXpX*XE.j.;.&.T Y Y E b n 9.^.iXxXjX+Xv.h.h.x.c.i.6.T h r h E t.x.m.n.k.y.6.3.",
"D S t 5 ; % % : % % % 1 r H U ~ 6.y.c.x.j.y.6.4.6.6.,.>.4.K.&XjXvXvXhX,X~.x.:.6.6.6.0.6.,.>.6.K.qXjXpX.Xx.h.h.x.B.y.6.W J H J E 6.i.k.x.g.t.6.3.",
"' G S e 5 * : ; % % % 3 q C I R E 7.g.x.x.f.t.t.t.t.<.E ,.d.#XaXcXvXzXpX@Xm.g.e.e.u.i.s.y.t.a.C./.-XXXE.z.h.h.k.j.y.6.~ U U U / 6.8.w.w.w.6.w.w.",
" .} ' S e , > : % # % 3 y H H K Y E 8.f.j.k.g.k.c.f.2.>.E a.L.=XhXzXcXfX,X[.l.f.f.c.B.E.L.C.C.C.G.E.E.n.v.z.j.y.y.9.6.3.U I W 3.6.3.E L ~ w.r.g.",
"@.+.| ` S e 3 ; @ O : 4 r H H Z H J E 6.y.j.x.v.n.z.e.6.6.y.F.|.,XfXhXaX,X|.H.v.x.S.W.XX%X+XXXW.S.c.z.z.x.j.t.6.6.6.6.E H H Y ,.6.~ L z ! w.z.P.",
"%.%.@. .` V 3 ; o o % 1 6 r y z C H U ~ 6.s.c.n.m.n.x.B.M.M.Z.H.}.%X:X:X$X|.].]._..X-X>XeXtX1X-X.XE.v.g.e.2.n R E 3.3.R h w h Y ! R J L 4.h.b.(.",
"3X4X3X$. .P 5 @ + o % : 1 4 w y P P I L ~ 6.N.x.v.m.(.).[.L.A.x.x.E.W.~.{..XOX:X1XtXaXdXsXsXsXaXtX:X~.N.<.b h h I ( ^ Y a 4 4 y K ^ ~ 2.j.D.U.[.",
"4X4X4X3X+.) w ; o # ; % % : 3 g H H C H L / 6.w.g.z.D.}.|.[.H.x.g.h.x.S.W.OX>XtXgXjXhXgXdXgXhXkXxXgX<XK.6.v h H K I H w > ; : 8 z ! e.x.D.}.|.#X",
"6X4X5X4X$.[ C 5 3 3 6 1 % % : 6 g y r r g j v E *.w.N.G.L.].W.S.x.z.v.G.{.-XeXgXjXjXgXgXiXiXgXlXzXjXyX/.V.p.0./ U t < = = $ - w c 1.j.P.`.@X*X*X",
"6X5X5X4X#.| F V y y h 9 1 % : > 3 5 3 3 > 4 i s x ! / a.M.F.].[.).I.W.|.*XtXiXiXuXuXiXuXuXyXuXuXiXgXiXqX-XXX/.V.1.a *     < a c ;.g.b.).$X=XqXwX",
"4X4X3X%.+.} G S A C H w 4 : % % ; : ; : ; % ; 3 w H J ~ 6.M.L.|.|.|.|.=XpXgXgXuXwXwXwXwXwXwXwXwXqXwXyXgXjXjX1XXXi.k % = 7 A ~ u.x.R.[.|.=X>XeXrX",
"4XT.@.+.} ) S C N y h w 3 % O O @ @ % @ o X X - q H W ! <.s.H.}. X}.|.=XfXlXjXuXwX;X;X;XwXwXqX;X;XqXrXgXjXxXjX1XG.-.k d ^ p.^.~.`. X=X=XqXeXwXrX",
"$.@...| G V q 5 3 6 6 3 : % # # % % % @ X X O > h E 5.t.e.g.Z.D.H.].oX*XdXkXkXuXwX-XwXwXwXwXwXwXqX<XrXyXiXjXiX<XoXB.i.V.^.0XwXwXeXeXpXaXuXrXwXwX",
"@.+.| ' A q 3 * % % : : : % : % ; ; : ; O $ - 6 v 6.s.c.z.l.z.x.S.W.oX<XaXgXgXuXwXwXwXwXwXwXwXwXwXwXwXwXrX<XrXwX-X+XXX%XrXjXlXjXgXgXhXhXiXrXwXqX",
"#.+. .` A q : % o o @ % > 4 8 4 4 3 3 4 3 4 i k &.9.k.S.m.v.h.g.c.~.-XeXuXaXtXtXwXwXwXwXwXwXwXwXrXwXwX<X<X<XwXwXwX<X1X1XsXhXjXkXlXlXjXgXiXrXwX<X",
"#.@. .{ D e 1 % + o # 1 6 g y r q 8 q r g j v &.;.f.v.I.I.b.h.g.E.XXwXuXuXrXwXwXwXwXwXwXwXwXrXeXwXwXwXqX<XrXwXwXrXtX1X1X1X1XtXgXjXjXgXuXrXwXwXwX",
"#.+. .` S q , ; O @ : 4 r H H K H B N P L E 6.t.g.x.D.}.|.].v.x.E./.rXiXrX1XrX1XrX<XrXrXwXwXwXwXwXwXwXwXwXwXwXwXrXrXwX-X+XoX%XtXgXgXuXwXwXwXwXwX",
"O.| [ F t 5 : * % : 3 8 N C P U U U U W E 6.y.N.S._.+X,X=X$X[.D.E.Q.&X<XrXuXuXrXrXrX<XrXwXwXwXwXwXeXwXwXwXwXwXwXrXuXrX-X/.W.oXeXgXgXuXwX;XqXwXrX",
"{ G G e 3 # O % : 8 w t M N P R ~ 3./ / 1.w.j.E.oX>XuXgXfXeX=X[.H.V.Q.^.<XdXjXiXrXwXrXrXeXwXwXwXwXwXwXwXwXwXwXwXrXuXrX-X{.~.$XeXhXjXuXwX<X<XwXwX",
"G S N 8 ; @ O : 4 r H P N H L 3.6.6.6.6.2.e.x.W.qXgXzXzXhXaX2X|.Z.q.1.d./.<XuXiXwXwXwX<XwXwXwXwXwXwXwXwXwXwXwXeXrXtXeX-XoXoX-XtXhXgXuXwXqXwXwXwX",
"t e q 3 > : : 4 s J W ^ ~ ~ ,.w.y.e.y.w.e.h.D.$XaXcXvXkXfXpX=XU.y.&.l T d.^.;X0X>X<XwXwXwXwXwXwXwXrXwXwXwXwXwXwXwXqX;X-X-X:XeXtXdXiXuXeXrXwXrXrX",
"3 3 3 6 9 9 w r B W 4.9.i.g.j.z.j.f.r.f.h.Z.[.,XgXcXcXfX,X$X!.M.>.p 4 9 J 0.J.^.+X>X1XwXwXwXwXwXwXwXwXwXwXwXrXwX;X%X%X-XeXtXaXtXrXrXrXrXrXtXtXtX",
"@ % 2 r H P H H L E 6.y.c.x.x.v.x.h.z.x.Z.I.|.=XaXhXfX=X|.L.V.4.l u ; = 7 H 0.C.XX:X1XrXwXwXwXwXwXwXwXwXwXrXrXrX-XoXoX*XuXgXhXuXwXqXwXrXwXwXwXwX",
"O % 3 y I Q I H J R ~ 1.w.e.f.c.x.v.S.D.I.).}.*X:X1X*X[.F.M.6.R s > O O - N / V..X:X1X<XrXrXrXwXwXwXwXwXrXyXuXrX;XoXoX*XtXgXjXiXwXqX;X;X;X:X;X;X",
"o % 3 h U Q I H H J L J L Y 3.e.z.R._.}.).(.E.(._._.E.B.s.6./ J 9 : @ ; 6 x 5.B..X%X>XrXrXrXrXwXwXeXwXwXyXtXuXtX;X%XXX-XwXiXgXiXrX<X%X+XoX+X+X+X",
"# % 4 w H H P z H z H N N H c w.z.(.}.|.[.S.v.z.z.v.c.y.6./ R H 8 > ; 2 l 6.V.Q..X:X<XwXrXwXwXwXwXwXwXwXrXrXtXwX;X+X+X+X-XwXyXrXwX<X%XoX.XoXoXoX",
"% : 1 3 w y y z H L L J K R 1.r.n.(.@X'.!.N.w.;.e.;.e.7.4.~ U N 0 - > p >.M.].OX:X<XwXwXwX0X<X<XwXwXwX<X-X;XwX;X%X.X~.~.+X;X<X;X;X&X%X%XoX+X+X%X",
"- 1 % % : 5 y N L ! ,.1.w.r.g.x.R.`.'.(.B.6.c c *.7.e.9.6./ R N 0 7 9 B 9.I.=X2XtXuXuXwX>X%X%X-X<XwXwX%X+X+X+X+X~.W.G.W./.+X%X%XoXoX%X;X>X;X;X;X",
"% : % % : 3 w z U / 6.e.c.c.x.z.z.z.m.h.t.E H J R 2.t.9.6./ R B m t C 3.V.|.pXsXjXgXiXwX-X+XoX+X;XwX<X%XoXoXoXoXW.S.x.v.W.XX+XoXoX%X-XwXwXrXeXwX",
": : : : 3 w y C L W ,.6.e.r.e.;.-.=.-.-.b H N P / 6.6.3.E R Y J L ^ 0.d.!.=XpXhXjXjXiXwX&XoX.X+X<XwXwX-X%XoX%X+X~.x.h.z.E..X+X%X%X<XwXtXuXtXwXrX",
"% 1 3 6 r h N z H H L R ~ ~ c f i u u i a y H U / 3.3.Y H B J / 6.M.K.{.%XeXuXjXkXgXiXwX-XoXoX+X;XwXwX<X-X<XwX;X.XS.g.h.S.{.%X1XtXaXtXwXwXrXrXrX",
"$ % 2 w z P K z H h H K H H r 4 & @ @ % 3 q H W 6.6.3.L H H W 6.M.L.#X=X>XwXuXgXgXgXuXwX-X+XoX+X;XwXrXeXwXtXtXwX+XE.z.c.E.oX<XaXgXgXuXwXwXwXwXwX",
"o $ : 6 z P H P H J L J U J g a 2 : ; - 3 8 g T ,.8.q.5.! ! 1.y.Z.].@X=X2XqXqXiXdXgXiXrX-XoX.X+X-XwXyXyXrXuXiXtX&XW.E.E.~.:XtXgXgXiXuXwX<XwXwXwX",
"o @ % 1 5 r N H L ~ ~ ,./ E E T b x g 9 5 < 5 d >.8.u.i.r.e.r.g.Z.]. X=X=X=XqXqXiXiXiXrX;XoX~.oX-XeXeXrXrXrXuXrX;XXX~.~.-XtXdXdXiXrXrXwXwXwXwXwX",
"% % % % % 5 w z ^ / 6.8.6.4.6.8.6./ W H 8 - ; 4 v 6.i.c.x.z.z.z.D.].|.|.|.|.$X*XrXyXyXrX;X+XoX+X;XrXeXeXrXyXtXwX;XoXXX-XtXgXgXuXwXqXwXwXwXwXwXwX",
"y y 4 % o $ 1 y J ~ 6.5.6.6.6.6.p./ ^ I 8 = O ; s ~ q.i.g.g.z.v.H.[.|.|.U.).{.$X;X;X;X-X-X:X:X<XwXwXwXwXwXwXrXwX;X+X+X<XfXlXhXuXwX;X<XwXwXwXwXwX",
"} _ B 4 % X $ 4 g J W / ^ ^ W ~ E ^ U H 8 * X % 9 J ^ / 1.6.g.n.(.|.#X[.I.D.D.~.oX+XoXoX%X1XtXuXyXeXwXwXwXwXtXwX;X+X+X;XtXhXgXuXwX;XwXwXwXwXwXwX",
"T.+._ N % X o % 4 r H P K H h H H P I H 9 > : > s H P V H c ;.x.(.}.|.).A.x.S.W.oXXX.XoX:XuXhXgXtXeX;XwXwXrXtXwX-XoXoX*XaXgXhXuXwXwXwXwXwXwXwXwX",
"7X3X..P 3 O o # : 8 q r w q q q M N K J h k p k Y H N m 0 z ,.j.D.[.].G.j.r.B.~.%X>X:X*X<XaXgXgXyXwXwXwXwXrXtXwX-XoX.X*XtXgXjXuXwX<XwXwXwXrXwXwX",
"7X4X+.` e - $ % ; 3 < > > - 3 q M H L E <.<.;.<.4.E H m e y E y.v.D.S.j.e.t.V.+XeXsXaXtXtXuXuXuXrXwXqXwXwXrXuXrX;X/..X%XaXkXjXiXwX;XwXwXwXwXwXwX",
"8X5X@.{ D q - : % % : % % % 3 w H U ~ 6.y.c.x.c.f.6.E J H L W 4.i.c.x.r.<.6.J.&XhXcXxXhXuXtXwXwXwXwXwXwXwXrXtXrX-X+XoX%XtXhXgXuXeXwXwXwXwXwXwXwX",
"7X5XY.X.G A 5 : @ @ # % % 3 9 j W ,.8.j.x.m.m.n.j.y.6.8.0./ W / w.g.z.:.*.,.d.0XkXvXcXgXuXwXwXwX<XwXwXwXtXrXyXwX;X+X&X-XeXtXaXtXtXwXeXwXwXwXrXwX",
"7X6X4XY.| F 9 : o o # : 3 w h R 3.9.j.x.m.R.m.v.g.g.k.G.L.d./ J ~ f.z.f.*.,.d.0XkXxXkXaXwXwXwXwXwXwXwXrXrXtXeXwXwXwX<X-X%X:X<XaXgXuXuXrXwXwXwXwX",
"4X4X4X3X+.) r : o o % 3 y z W / 6.y.k.x.x.v.x.g.h.c.D. X#XK./ B c e.z.g.;.6.K.0XjXkXdXwX;XwXwXwXwXwXwXwXwXwXwXwXrXrXwX-XOXoX%XtXgXgXuXwXwXwXeXwX",
"$.3X3X3X+._ r ; @ % 6 w N K U E ~ 6.6.e.w.r.r.j.Z.D.'.@X|.V./ B J ,.j.k.N.N.L.qXdXdXyX<X<XwXwXwXwXrXwX;X<X;XqXwXuXuXrX;XoX.X%XtXgXjXiXwX;XwXwXwX",
"O.#.%.T.+._ w ; % 3 y z H K K U R R E E ! ,.8.M.G.`.'.'.H.9.W B H E t.N.F.L.#X=XrXuXrXwX<XwXwXrXtXwX;X-X%X%X;XwXyXuXrX-XoXoX%XtXhXjXuXwXwXwXwXwX",
"o.O.#.%.o._ 9 ; % w H I K B B B H N N B J E 4.M.!.|.}.(.c.w.R B B W 6.M.H.|.=XeXeXwXwXwXwX<XwXrXrXwX;X+XoX+X-XwXuXuXwX-XoXoX*XtXgXgXuXrXwXwXwXwX",
"o.o.+.#.+._ 9 ; > w P U K B N N N M M M y J 1.V.].$X XR.r.=.Y H B J 3.M.U.@X=XeXwXwXwXwXwXwXwXrXtXrX-XoX.X+X-XwXyXrXwX*X+XoX*XtXgXjXyXwXqXwXwXwX"
};
