/* XPM */
static const char *wall_13[] = {
/* columns rows colors chars-per-pixel */
"72 72 217 2 ",
"   c #3F1524",
".  c #4D0E19",
"X  c #4D0612",
"o  c #500E19",
"O  c #4E111C",
"+  c #41111F",
"@  c #51131D",
"#  c #4D1721",
"$  c #4B1924",
"%  c #401623",
"&  c #521721",
"*  c #531A23",
"=  c #581C24",
"-  c #49232C",
";  c #562027",
":  c #55242B",
">  c #59252B",
",  c #55292F",
"<  c #5A2A2F",
"1  c #4F2C33",
"2  c #4D2730",
"3  c #542C33",
"4  c #5A2D32",
"5  c #543135",
"6  c #5C3235",
"7  c #563439",
"8  c #5D3539",
"9  c #5B3A3D",
"0  c #652B2D",
"q  c #6A3636",
"w  c #603639",
"e  c #633C3D",
"r  c #6B3938",
"t  c #643536",
"y  c #763935",
"u  c #6C433E",
"i  c #74433E",
"p  c #7C463D",
"a  c #563B41",
"s  c #5C3E41",
"d  c #603F41",
"f  c #5D4244",
"g  c #5B4A4B",
"h  c #554141",
"j  c #634242",
"k  c #6B4644",
"l  c #664846",
"z  c #6E4944",
"x  c #664C4A",
"c  c #6C4C49",
"v  c #734B45",
"b  c #794E46",
"n  c #734F48",
"m  c #7A4F48",
"M  c #734741",
"N  c #7C5246",
"B  c #7D5249",
"V  c #72554F",
"C  c #635455",
"Z  c #655958",
"A  c #6D524D",
"S  c #6B6A69",
"D  c #6A6464",
"F  c #716D6E",
"G  c #737373",
"H  c #767B7A",
"J  c #787D7D",
"K  c #84453B",
"L  c #8C573E",
"P  c #90593B",
"I  c #9B623F",
"U  c #835446",
"Y  c #8B5643",
"T  c #865945",
"R  c #8D5C45",
"E  c #835549",
"W  c #89574A",
"Q  c #85594B",
"!  c #8C5A4A",
"~  c #925D44",
"^  c #925E4B",
"/  c #915541",
"(  c #84574C",
")  c #946246",
"_  c #9B6545",
"`  c #9E6947",
"'  c #95624A",
"]  c #9B644B",
"[  c #9D694A",
"{  c #886252",
"}  c #9D6954",
"|  c #9C6B5C",
" . c #9A6654",
".. c #9F715C",
"X. c #A56A44",
"o. c #AA6E45",
"O. c #A1674A",
"+. c #A36C4A",
"@. c #A96E4B",
"#. c #A06644",
"$. c #AB7146",
"%. c #AD734A",
"&. c #A7704D",
"*. c #B1764B",
"=. c #B5794C",
"-. c #BA7C4B",
";. c #B07447",
":. c #A16552",
">. c #A36B54",
",. c #AB6953",
"<. c #AC7453",
"1. c #A4735A",
"2. c #A97B5D",
"3. c #A57357",
"4. c #B37653",
"5. c #B47B54",
"6. c #BB7C53",
"7. c #B47C5C",
"8. c #BC7B5D",
"9. c #B2775B",
"0. c #9B7061",
"q. c #A57762",
"w. c #BA7D63",
"e. c #BD7F6B",
"r. c #C07F5B",
"t. c #B58057",
"y. c #BE8154",
"u. c #B6815B",
"i. c #BA845B",
"p. c #BD885F",
"a. c #AF8060",
"s. c #BE8B62",
"d. c #B78468",
"f. c #BF926C",
"g. c #C3814D",
"h. c #C28355",
"j. c #C2825A",
"k. c #C78A5C",
"l. c #C48462",
"z. c #CB8563",
"x. c #C28E65",
"c. c #CC8A64",
"v. c #CD8C6B",
"b. c #D08F62",
"n. c #C39067",
"m. c #C6946B",
"M. c #C9966D",
"N. c #C6996F",
"B. c #C9986F",
"V. c #CB9567",
"C. c #D4916B",
"Z. c #D3956B",
"A. c #D48F71",
"S. c #C29574",
"D. c #C79A72",
"F. c #CB9C73",
"G. c #C89B7A",
"H. c #D49372",
"J. c #DA9573",
"K. c #D39C75",
"L. c #D59D7A",
"P. c #DA9A75",
"I. c #CDA077",
"U. c #CFA279",
"Y. c #D1A176",
"T. c #D1A57C",
"R. c #DBA47D",
"E. c #D3A87F",
"W. c #DAA97F",
"Q. c #E0A57B",
"!. c #C89F82",
"~. c #D7A780",
"^. c #D6AD84",
"/. c #D9AE85",
"(. c #DAA780",
"). c #D7B087",
"_. c #D8B087",
"`. c #D9B087",
"'. c #DAB087",
"]. c #D9B087",
"[. c #D7B288",
"{. c #D8B188",
"}. c #D9B188",
"|. c #D9B289",
" X c #DAB38A",
".X c #DAB289",
"XX c #DDB38A",
"oX c #DEB68D",
"OX c #DEB68D",
"+X c #DBB38A",
"@X c #DEB88F",
"#X c #DFB990",
"$X c #E5A681",
"%X c #E1B68D",
"&X c #E1B68D",
"*X c #E2B88F",
"=X c #E2B88F",
"-X c #E8B58B",
";X c #E2BA91",
":X c #E4BA91",
">X c #E5BC93",
",X c #E7BD94",
"<X c #E6BE95",
"1X c #E5BC93",
"2X c #E8BE95",
"3X c #E9BF95",
"4X c #E7C096",
"5X c #EAC197",
"6X c #EAC39A",
"7X c #ECC39A",
"8X c #EEC69D",
"9X c #ECC39A",
"0X c #EFC89F",
"qX c #F1C89F",
"wX c #F1C79C",
"eX c #F2CBA1",
"rX c #FAD2A4",
/* pixels */
"#X}.E.F.x.i.p.n.F.E.^._.^.^.^._.}._.^.~.~.~.~.^.^.^.^.^.^.^._.}._.^.^.^.^.^.^.^.^.^.^.^.^.~.~.^._.}.}.^.^._.}.^.U.M.n.M.E.}. X_.^.^.}.^.T.B.n.x.",
"}.^.E.F.m.x.x.m.F.E.^._.^.^.^.^.^.^.^.^.^.^.^.^.^.^.^.^.^.^.^.^.^.^.^.^.^.^.^.^.^.^.^.^.^.^.^.^.^.^.^.^.^.^.}.^.T.F.m.F.U.^._.^.^.^.}.^.T.F.m.n.",
"E.T.T.T.Y.F.F.F.I.E.^._._.^.~.E.E.~./.XXXXXX}._._.^.^.^.^.~.E.E.E.~.^.^.^.^.^.^.^.^.^.^.^.}.}./.~.E.E.~.^.^.^.^.E.F.F.F.I.E.~.^.^.^._.^.E.I.F.B.",
"M.F.T.~.'./.~.T.E.~.^._.}.^.E.F.F.T./.=X1X:X&XXX}._._._.^.E.I.F.I.E.^.^.^.^.^.^.^.^.~.~._.OX&X/.T.F.F.E.~.^.^.~.~.E.T.F.F.F.U.E.^._._.^.~.E.T.U.",
"x.m.Y.'.,X,XOX^.~.~.^._.}.^.U.M.m.F./.,X9X7X,X&X}.^.^.^.^.T.F.m.F.U.^.}._.^.^.^.^.~.~.^.OX,X,X'.F.m.M.U.^.}.^.^.^._.^.T.F.m.F.T.^.}._.^.^.^.^.^.",
"n.B.T.XX,X4X;X_.^.^.^._.}.^.I.n.x.B.~.,X8XqX6X&X~.T.E.^.^.U.m.x.m.U._. X}.^.~.~.~.~.^.XX,X8X7XXXF.x.n.T.}.&XOXXXOXOX}.E.B.n.M.U.^.}.^.^.^._.}.}.",
"I.T.E./.OXOX}.^.^.^.^._.}.^.I.n.x.M.E.OX6X8X4XXXT.F.F.E.^.T.m.x.n.U.^. X}.^.~.~.~.^.XX:X7XeX9XXXF.x.m.E.&X,X1X=X=X@X}.E.B.n.M.U.^._.^.^.^.^._._.",
"^.^.^.^.^.^.^.^.^.^.^._.}.^.T.F.m.M.I.^.;X4X,X'.F.m.F.E.^.E.F.m.B.T.^.}._.^.~.~.^.}.&X,X7X9X,X/.F.m.F./.,X9X7X,X;XOX^.U.M.m.F.T.^.}._.^.^.^.^.^.",
"}.}.^.^.~.~.^.^.^.^.^.^.}._.~.T.F.F.F.U.~.OX&X/.T.F.F.E.^.^.E.U.U.E.~.~.^.^./.}.OX;X1X1X:X&X/.T.F.F.E.&X7XqX8X,X&X/.E.F.n.n.F.E.^.}._.^.^.^.^.^.",
"}._.^.^.~.^.^._._.^.^.^._.}.}._.~.U.B.M.F.~._./.E.T.E.~._.}.}.^.~.E.U.U.E.^.OX;X,X4X,XOX/.T.F.F.F.E._.:X7X8X6X;X}.E.F.n.x.n.F.E._.}._.^.~.^.^.^.",
"^.^.^.^.^.^.^.^.^.^.^.^.^.^._.}.^.T.B.m.F.U.^.}.^.^.^.^.^.^.}.^.T.F.m.M.U.^.OX1X,X1XOX^.U.B.m.B.U.^.OX1X,X1XOX^.U.F.m.n.x.m.F.E.^._.^.^.^.^.^.^.",
"^.^.^.^.^.~.E.U.E.~.^.~.E.T.T.E.E.U.F.F.I.~._. X}._.^.~.E.T.U.F.x.i.i.s.F.^.XXXX/.~.E.U.F.M.M.F.E.}.@X&XXX~.F.M.n.x.x.n.M.F.I.U.E.~.^.^.^.^.^.^.",
"^.^.^._.^.E.F.B.F.E.^.~.U.F.M.M.F.F.U.E.^.}. X X}.^.~.T.F.m.s.t.%.o.%.i.F.~.^.E.F.M.M.M.B.F.U.~.^.}.}.^.T.m.i.t.5.i.x.F.U.E.U.F.F.U.~._.}._.^.^.",
"^.^.^.}.^.U.B.m.F.E.^.~.F.m.x.x.m.F.E.^._.^.^.^.^.^.E.F.m.p.5.%.X.X.%.i.F.^.^.U.m.x.x.m.F.E.^.}.}.^.E.I.m.i.*.%.*.i.m.T.^.^.E.F.m.B.U.^.}.^.^.^.",
"^.^.^._.^.E.F.F.I.E.^.~.U.F.m.m.B.F.E.E.U.F.F.U.~.^.~.F.x.i.5.5.5.5.i.M.~.XXXXE.F.M.m.F.T.^.}.}.^.T.F.M.x.i.*.%.5.s.F.~.}._.E.B.x.n.F.T.~.^.^.^.",
"^.^.^.^.^.~.E.E.~.~.^.~.E.T.U.U.T.T.U.F.x.i.t.n.E.}.^.F.x.p.s.m.F.F.T./.&X:X:X&X/.E.T.T.~._.}.^.T.B.n.n.x.i.i.i.s.B.E._.}.^.E.F.x.x.n.F.U.~.^._.",
"^.^.^.^.^.^.^.^.^.^.^.^.^.^.^.^.^.~.U.m.i.%.%.i.F.^.~.F.m.M.U.^.OX;X,X3X,X,X3X3X,X=X}.^.^.^.^.E.F.m.n.n.m.n.n.m.F.E.^.}.}.^.E.F.m.x.x.m.F.E.^.}.",
"^.^.^.^.^.~.E.E.~.^.^.}._.}.}.}.}.^.E.B.i.*.%.t.n.T.E.T.T.E.XX>X6X0XqX9X,X;X:X,X,X>XOX}.^.~.E.F.F.F.F.F.F.I.U.T.E.^._.}._.^.E.U.F.B.M.F.I.E.^._.",
"~.^.^.^.^.E.F.F.F.~.}.}.}._.^.^.^.^.~.T.M.s.i.i.x.F.T./.XX=X1X4X6X8X8X4X;XXX}.XXOXOX X^.E.I.F.F.F.T.E.~.~.~.~.^.^.^./.^.^.^.~.E.E.T.U.T.E.~.^.^.",
"^.^.^.}.^.T.F.m.B.U.^._._.^.^.^.^.^._.^.E.F.m.x.x.m.T.XX,X6X4X,X,X3X,X=X}.^.~.~.^._.}.^.T.B.m.B.T.^.}./.^.^.^.^.^.^.^.^.^.^.^.^.^.^.^.^.^.^.^.^.",
"}.}.}. X_.E.F.M.B.F.U.E.~.^.^.^.^.}.}.}.^.~.U.F.M.B.T.XX,X4X,X;X&X&X&XXX^.~.~.E.~.^._.^.U.M.n.B.E.}.}.^.E.T.E.E.~.~.^.^.^.^.^.^._.}.}.}._.^.^.^.",
"OXOX X X[.^.E.U.F.M.M.F.U.~.^.^.^._.}.[._.^.E.T.U.U.E._.OXOXOXXX}.}.}./.^.^.~.~.~.^._.^.U.M.n.F.E.^.^.T.F.M.B.F.U.E.^.^.^.^.^.^.^._._./.^.^.^.^.",
"^.^.^.^.^.^.}.^.T.F.m.F.T.^.}.^.^.^.^.^.^.^.^.^.^.^.^.^.^.^.^.^.^.^.^.^.^.^.^.^.^._.}.^.T.B.m.F.E.^.~.F.m.x.x.m.F.E.^._.^.^.^.^.^.^.^.^.^.^.^.^.",
"N.D.F.F.T.~.}.}.^.T.F.T./.XX X^.E.E.T.E.~.^._.}. X}._.^.~.~.~.~.~.~.~.^.^.^.^.^.^._.}.^.T.F.M.F.E.^.~.U.B.n.n.m.F.E.^.}._.^.^.^.^.^.^.^.^.^.^.^.",
"t.t.i.l.M.L.^.[._.^././.XXXX_.E.F.F.H.P.L.~.^.[. X}.^.^.~.~.~.^.^.^.^.^.^.^.^.^.^.^._.^.T.F.M.F.T.^.^.~.T.F.M.M.F.E._.}._.^.^.^.^.^.^.^.^.^.^.^.",
"$.%.4.j.v.L.~.^.^.^.^.^./.^.E.F.m.x.c.v.H.T.^._._.^.^.^.^.^.^.^.^.^.^.^.^.^.^.^.^._.}.^.T.F.m.B.U.^.}.}.^.U.B.m.F.T.^.}.^.^.^.^.^.^.^.^.^.^.^.^.",
"o.*.6.l.H.R.(.W.E.G.G.S.S.S.f.s.p.i.8.j.v.K.W./.~.E.~.^.^.^.^.^.^.^.^.^.^.^.^.^.^._.}.^.E.B.n.M.U.^.OX@X}.U.n.p.s.F.E.^.^.^.^.^.^.^.^._._._./.^.",
"6.r.l.F.~./.R.P.v.d.2.1...1.2.5.5.=.*.4.j.M.Y.T.I.F.U.~.^._.^.^.~.^.^.^.^.^.^.~.^._. X}.E.B.n.M.I.^.OX#X_.F.i.5.5.s.F.E.~.^.^.^.^.^.^.}.}.}.}._.",
"z.v.H.T.^./.L.v.8.:.! U E ! ] +.%.%.$.%.5.s.m.M.m.m.F.E.^._.^.^.^.^.^.^.^.^.^.^.^.^._.^.T.F.m.B.U.^.OX@X^.D.t.%.%.i.m.U.~.^.^.^.^.^.^.^.^.^.^.^.",
"A.H.K.F.I.F.v.8.:.U i u i U ~ ] +.o.$.$.%.2.2.u.i.k.V.I.E.^.}.}._.^.^.~.^.^.^._.^.^.E.T.F.F.F.I.E.^. XOX^.F.i.*.*.i.n.F.~._.}.}._.~.E.U.U.U.T.T.",
"J.H.M.x.i.t.9.>.W z e e M U ! ^ ] +.;.;.+.{ { { <.y.k.V.F.~.XX&XXX_.~.~.~.^.}.}._.E.F.F.F.F.E.~.~.^.}.}.^.I.n.i.i.i.n.F.~.}.OXOX}.E.F.M.m.M.F.F.",
"A.v.z.6.%.X.] ! m k j k N ! ! W ! ] %.%.) v j z R %.y.k.m.E.&X,X1XOX^.~.~.^._.}.^.T.F.m.F.T.^._.^.^.^._.^.E.F.m.x.x.m.F.E.^.}.}.^.E.F.m.n.n.m.M.",
"l.l.h.=.o.I Y b v v N Q ! ^ ! B B ! +.+.Y t - 2 u R +.5.p.K.-X9X8X1X}.^.^.^.^.~.E.F.F.F.F.E._.}._.^.^.^.^.~.E.U.F.M.m.B.F.U.U.U.U.U.T.K.F.F.F.B.",
"5.4.=.-.$.~ b z v T ] +.] ^ E v z B ' ) p > +   3 z T ` 5.V.-X8XeX6X&X}._.^.E.I.F.F.F.T.E.^.^.^.^.^.^.^.^.^.^.~.U.F.m.n.M.M.M.m.M.I.~.XX/.~.T.I.",
"$.%.;.=.%.R z j v ) %.*.O.! v j j v Q ! K 0 & $ 3 j N ) %.x.W.,X8X9X,X=XOX^.U.M.m.F.T.^.}.^.^.^.^.^.^.^.^./._.^.E.F.m.n.n.m.n.x.m.T.&X,X1XXX^.E.",
"o.$.%.;.@.W k s M ) %.%.] N j s s l U ~ / K y r u v N ~ X.5.n.E.&X3X6X,X;X^.F.n.x.M.E.}. X}.^.~.^.^.^.^.^._.}.^.E.F.m.m.F.F.F.F.F.E.&X,X>XOX}.^.",
"$.$.$.@.] B j s z R ] ] U k s a s z T _ @.,.,.:.] ) R ~ ] +.<.s.K.&X6X6X;X^.F.n.x.M.T.^.}.}.^.~.^.^.^.^.^._.}.^.T.F.M.F.E./.XX'./.'.XXXX}.}._.^.",
";.%.@.] ! v j j z E ! W v j a a j b ) %.h.c.v.c.y.%._ ^ ! R _ %.x.W.,X6X;X^.F.M.m.F.T.^.}.^.^.^.^.^.^.^.^._.}.^.U.M.m.F./.,X9X7X,X&X}.^.^.^.^.^.",
"-.;.+.^ B k k v b E E B v k j j z U +.6.b.P.P.Z.k.=.` W B U P o.h.Y.&X1X;X^.E.F.F.F.E.^.^.^.^.^.^.^.^.^.^._.}.^.U.M.n.F.XX9XeXeX6X:XXX/.^.^.^.^.",
"-.;.` U z k v E W W W E E N v v B ' <.l.C.J.H.b.k.;.) N z v L o.h.V.T._.}._.^.~.E.E.~.^.^.^.^.^.^.^.^.~.^.}. X_.T.M.n.F.XX7XeX8X4X1X;XOX}./.^.^.",
"-.%.) N j j b ! ^ ^ ! ! ! ! W U ! } w.v.H.H.v.z.h.%.R z j M R %.y.k.m.F.E.^.^.^.^.^.^.^.^.^.^.^.^.^.^.^.^._.}.^.U.M.m.F./.,X6X4X,X3X3X,X&X}.^.~.",
"*.+.R v s j b ! ] ] ) ) ' ^ ! R ] <.l.H.J.H.v.z.h.%.R u s k R &.4.5.7.d.D.E.^._._.^.^.^.^.^.^.^.^._._.^.^.~.E.U.F.F.F.T./.&X1X,X3X4X7X6X:XXX^.~.",
"O.) U z s s v W ] +.+.` ' ^ R ) X.4.l.H.J.J.C.c.h.%.R u s l E ] O.] ] 3.d.F.E./.^.^.^.^.^.^.^.^._.}.}.}.^.T.F.B.F.F.T.~.^.}.OX:X3X7X9X6X;XXX^.~.",
"^ ! B z j j v ! ] %.%.+.) ! ! _ %.6.l.v.H.A.v.z.h.%.R v j k B ! ! W ! } u.m.Y.E.^.^.^.^.^.^.^.^.^.^.^.}.^.T.F.m.F.T.^.^.^.^.}.=X,X6X6X,X&X}.^.~.",
"! W B v v v E ) +.;.;.+.) W ' @.6.h.j.l.l.d.w.9.4.+.) U v v v N N E W } 7.n.Y.~.^.[.^.^.^.^.^.~.E.T.E.^.^.~.F.F.I.~.}.}.^.~.^.XX=X:X:X=XXX_.^.^.",
"! W W B B Q ) +.%.=.;.+.~ !  .9.l.k.j.4.<.>.>.} ] ] ) ! W b v k v B ! >.u.m.Y.^.}.}._.^.^._.^.E.F.F.F.~._._.~.E.~._.}.}.^.^.^./.}.XXXX}._.^.^.^.",
"! ! W W ! ) +.%.=.=.%._ R ! } w.v.b.h.%._ ~ ! W W W ^ ^ ! N z j j v ! >.u.m.Y.E.^.^.^.^.^.}.^.T.B.m.F.T.^.}._.^.^.^.^.^.^.^.^.^.^.^.^.^.^.^.^.^.",
"! ! ! ! ^ ] $.=.-.=.$._ Y W | d.H.C.h.$._ R U m m B E W W N l f 9 r p ^ 9.m.K.Y.U.U.~.^._.}.^.E.F.B.F.I.E.~.~.E.E.U.U.T.~.^.^.^.~.~.~.~.^.^.^.^.",
"! ! ! ! ^ ] $.=.-.=.%._ Y W | e.H.C.h.$._ ~ U b v k z v v v l j 6 : 0 K ,.v.K.B.M.D.U.^._._.^.~.E.T.I.F.F.F.F.F.F.M.M.F.U.~.^.^.^.~.~.~.^.^.^.^.",
"! ! W W ! ) +.%.=.=.%._ R ! } w.v.c.y.%.X.) ! B k j s d j l c j 3 $ & y ,.v.P.Z.m.D.U.^._.^.^.^.^.^.E.F.m.n.n.m.n.n.m.F.E.^._.^.^.^.^.^.^.^.^.^.",
"^ ! W E N W ' +.%.;.;.+.) ) :.7.l.j.4.@.+.] ^ E z j s 9 s l l j 2 % $ r >.H.R.R.F.U.E.^.^.^.^._.}._.E.F.n.x.n.M.F.F.F.E./.XXXX_.^.^.^._._.^.^.^.",
"^ W E v z v U ) +.%.;.%.+.+.&.5.6.4.@.] ] ' ^ E v j s s j l l j 1 - 2 M q.T.-X-XXX/./.^.~.~.^._.}.^.E.F.n.n.F.U.E.~./.&X:X:X&X}.^.^.^.}._.^.^.^.",
"^ ! N z j j b ! ] +.%.%.%.%.%.;.%.+.) ! W ! ! E v j s f j j l j 9 7 j { d.^.5X7X,X&X}.^.~.~.^._.}.^.T.F.m.B.U.^.OX;X,X4X4X,X=X}.^.~.^.^.^.^.^.^.",
"] ! B z j l m ! ] ] +.$.;.;.=.%.+.) Q B B E E b k j s s j j k k z n { q.G.OX4X6X,XOX}.^.^.^._.}. X^.T.M.n.F.E.OX4X9X9X7X3X:XOX}.^.~.T.T.E.~.^.^.",
"] ^ E z j l B ! ^ ^ ) ` $.;.;.&.[ ! B c z z z z j s s s s j z N !  .q.S.^.;X4X1XOX/.^.^.^.^.}. XOX_.U.M.n.F.~.:X8X8X7X,X&XXX}.}._.E.F.F.F.E.^.}.",
"^ ! N z j k N ! ! W ! ) +.%.$.] ! m k j f j j j j j j j j k b ! :.8.v.R.-X,X>XOX^.~.~.^.^.^.^._.}.^.U.M.m.F./.,X9X7X,X&X}.^.^.^.^.T.B.m.F.E.^.}.",
"Q U v e 8 e M U W W W ' +.&.] Y i t 4 6 7 9 s l z v v v v b T ] 4.z.J.$X-X,X;X}.^.~.^._.^.E.U.U.T.T.I.F.F.E.XX1X3X1X&X}.^.~.~.E.E.I.F.F.F.E.^.}.",
"n z e 4 > 4 w z B E ! ] >.[ Y y > & & * , 7 f z B W W W W R ) +.4.z.J.$X&X;X@X}.^._.}.}.~.F.M.n.m.F.F.T.~._.OX&XOXXX}./.^.~.E.F.F.F.F.T.E.~.^.^.",
"l j 8 : & * 4 j n E ! ' ' ! p 0 & . . & : 8 j n E ! ! ! ! ~ ` %.6.j.v.K.E.^.^.^.^.^._.^.E.F.m.n.x.m.F.E.^._./.^.^.^.^.^.}.^.T.F.m.B.U.^._.^.^.^.",
"x j 6 = O # 3 j A B E W U i q 4 ; $ & ; < 8 j v B E B m B R +.=.6.j.l.x.m.F.I.U.U.U.U.U.U.T.F.F.B.F.F.U.E.U.U.I.U.E.^.}. X_.T.M.n.M.T._.}._.^.~.",
"C j 8 = @ & 6 j A V n u q 0 < 6 8 8 6 6 8 e j k z z k j k U +.=.g.6.5.5.5.i.x.m.M.M.M.M.F.~.'.'.~.T.F.F.B.m.n.M.F.E._.OXOX_.U.M.n.M.T.^.}._.^.^.",
"l j 8 : & = 6 j x x j 6 = & ; 6 j l l j j j j j j j s s j N ) %.=.=.%.o.o.%.5.s.m.m.n.m.T.XX,X,X@X^.U.F.m.x.x.m.F.E.^.}.}.^.U.B.m.F.T.^._.^.^.^.",
"w 6 4 , : : 4 6 w 9 6 : O . # < e l x x l l j j j j k z v N R ) +.$.$.X.I #.<.x.F.T.K.K.E.&X,X,X#X}.E.T.F.F.F.K.I.U.U.E.E.E.I.F.B.F.E.^._.^.^.^.",
"= : , 5 7 5 : = = : : $ O . O & < w l x x l j j k b W ^ ) R N N T ` $.X.~ ~ 3.S./.=X&XXXXXXXOX X}.^././.'.&X&XXXE.F.M.M.F.F.F.F.F.I.~._.}.^.^.~.",
"o & , s g f 3 & @ @ & & & & @ @ & > 8 j j j j k b ! O.*.%.) v j v ) %.X.~ ! q.G.,XqXwX,XOX}.^.~.~.^.}.=X,X6X7X,X'.Y.m.n.n.m.m.n.m.F.E.^._.^.^.^.",
"O * 5 g Z Z s , # O @ = > < : & @ & > 6 8 9 f z E ] =.g.-.) z s z ] *.o.Y E 0.!.9XrXeX,XOX^.~.E.E.^.}.=X,X6X6X,X&X~.F.M.n.x.s.i.i.x.F.E.^./.^._.",
"- 5 f Z S S Z a , # @ : 6 e 8 : @ o @ = , 7 s v R +.-.g.-.) z s v [ ;.X.L U | !.7XeX9XOX^.^.~.~.~.^._. XOXOXOXOX&X&XXXE.F.x.t.*.%.5.s.F.E.^.}.}.",
"h g Z S G G D g 5 * & > 8 j e < & . @ & : 7 j B ) %.-.-.%.R z j v ] %.X.~ ! q.!.,X9X=X^.~.~.^.^.^.^.^.^.^.~.~.^.OX1X,X&XE.m.i.*.%.*.i.m.U.~.^.^.",
"Z Z S G G S Z s , * & > 6 8 6 > & @ & : 4 e v R ` %.=.;.` T z j v ! +.+.O.>.d.U.&X=X X~.E.~.^.^.^.^.^.^.~.E.E.~.}.;X,X=X/.F.n.p.i.i.s.n.F.U.T.E.",
"D S G H G D f , & @ & = > > : = & * , 8 e v E ) +.%.;.+.) N k j k N ) +.4.w.M.E.}. X_.^.~.^.^.^.^.^.^.^.^.~.~.^./.}.OX}.^.E.U.F.F.M.n.n.M.B.F.F.",
"F G H J G Z 8 & . O & * & & @ @ & : 8 j c B ! ] @.%.$.] ! m k j j v ! >.8.v.P.W.^._.^.^.^.^.^.^.^.^.^.^.^.^.^.^.^.^.^.^.^.^.^._.^.E.F.m.n.n.m.M.",
"G H J J G C 4 o X . & & @ . . . & : 9 l V Q ^ O.@.%.+.] W v k j j v W >.l.J.Q.W.~.^.^.^.^.^.^.^.^.^.^.^.^.^.^.^.^.~.~.~.^.}.OX#X@X/.U.M.x.x.n.n."
};
