/* XPM */
static const char *wall_11[] = {
/* columns rows colors chars-per-pixel */
"72 72 195 2 ",
"   c #4D0916",
".  c #4E0E19",
"X  c #4D111C",
"o  c #51131D",
"O  c #4F1923",
"+  c #511720",
"@  c #521A22",
"#  c #581F25",
"$  c #542127",
"%  c #54232A",
"&  c #58252B",
"*  c #55292E",
"=  c #5A292E",
"-  c #492D36",
";  c #552B31",
":  c #592D32",
">  c #4F3037",
",  c #4E353F",
"<  c #543136",
"1  c #5B3236",
"2  c #53353A",
"3  c #5E3639",
"4  c #5C3A3D",
"5  c #54383F",
"6  c #622B2D",
"7  c #602629",
"8  c #633B3B",
"9  c #673535",
"0  c #713A36",
"q  c #6A413E",
"w  c #73443E",
"e  c #734A3F",
"r  c #79483E",
"t  c #5C3E41",
"y  c #563A40",
"u  c #5E4143",
"i  c #5A4A4A",
"p  c #5B5251",
"a  c #634343",
"s  c #6B4543",
"d  c #674847",
"f  c #6E4945",
"g  c #654B4A",
"h  c #6F4D49",
"j  c #724641",
"k  c #734C45",
"l  c #794D45",
"z  c #714D49",
"x  c #7B4F48",
"c  c #7C5246",
"v  c #7C5249",
"b  c #70514C",
"n  c #625856",
"m  c #7F5E53",
"M  c #676763",
"N  c #6C6F6A",
"B  c #69706B",
"V  c #737E77",
"C  c #804A3F",
"Z  c #8A533D",
"A  c #945C3D",
"S  c #90563A",
"D  c #A56B3E",
"F  c #845345",
"G  c #8A5644",
"H  c #8D5A45",
"J  c #835549",
"K  c #895749",
"L  c #85594C",
"P  c #8C5A4A",
"I  c #925C43",
"U  c #915E4B",
"Y  c #865E50",
"T  c #8D5E51",
"R  c #8E6049",
"E  c #936346",
"W  c #9B6444",
"Q  c #95614B",
"!  c #9B644B",
"~  c #9E684C",
"^  c #866156",
"/  c #88665B",
"(  c #8A685D",
")  c #896255",
"_  c #956551",
"`  c #9B6551",
"'  c #9D6C54",
"]  c #986E5D",
"[  c #9E755C",
"{  c #A16743",
"}  c #A36A45",
"|  c #AB6E43",
" . c #A46C4B",
".. c #A86D4A",
"X. c #AC7146",
"o. c #AD734B",
"O. c #A7704D",
"+. c #B1764B",
"@. c #B4794B",
"#. c #BB7C4C",
"$. c #B67647",
"%. c #A46D54",
"&. c #A86E58",
"*. c #A96F55",
"=. c #B26F56",
"-. c #A9755D",
";. c #A4745A",
":. c #B37650",
">. c #B37B52",
",. c #B3765B",
"<. c #B07D5D",
"1. c #BC7D59",
"2. c #BA7C53",
"3. c #926F60",
"4. c #9D7462",
"5. c #9C7A66",
"6. c #A47662",
"7. c #A97B63",
"8. c #B77D64",
"9. c #C07E5B",
"0. c #77877F",
"q. c #B68057",
"w. c #B68159",
"e. c #BA845B",
"r. c #BD885F",
"t. c #BB8055",
"y. c #AF8165",
"u. c #AE886D",
"i. c #BE8A61",
"p. c #B48A6C",
"a. c #BA8766",
"s. c #BA8D71",
"d. c #B68C74",
"f. c #BE997B",
"g. c #BE9373",
"h. c #C3865C",
"j. c #C28264",
"k. c #C98663",
"l. c #C28E65",
"z. c #CE8C6B",
"x. c #C98B67",
"c. c #C39067",
"v. c #C6946B",
"b. c #C8976E",
"n. c #C7986F",
"m. c #C9986F",
"M. c #C29372",
"N. c #CB9B72",
"B. c #CA9778",
"V. c #C39B7E",
"C. c #C99E7D",
"Z. c #CF9470",
"A. c #D19D76",
"S. c #DA9E7B",
"D. c #D99C76",
"F. c #CEA077",
"G. c #CEA279",
"H. c #D2A175",
"J. c #D1A57C",
"K. c #DCA57E",
"L. c #D3A87F",
"P. c #D8A97F",
"I. c #7B8C84",
"U. c #80958C",
"Y. c #869D93",
"T. c #C29D82",
"R. c #CBA383",
"E. c #CAA684",
"W. c #D0A780",
"Q. c #D6AD84",
"!. c #D9AE85",
"~. c #D7AF8E",
"^. c #D7B087",
"/. c #D9B087",
"(. c #DBB38A",
"). c #DFB88F",
"_. c #D7B18A",
"`. c #DFBB92",
"'. c #E2AD86",
"]. c #E3AE89",
"[. c #E2B487",
"{. c #E1B68D",
"}. c #E2B98E",
"|. c #E8B38C",
" X c #E5BD90",
".X c #E7BD94",
"XX c #E5BC93",
"oX c #E9BE94",
"OX c #E7C096",
"+X c #EAC097",
"@X c #ECC39A",
"#X c #EEC89B",
"$X c #F2C799",
"%X c #F3CB9E",
"&X c #F2CCA3",
/* pixels */
"Y.U.0.B p 2 % + o . . . . + = 8 g g a a k K Q ~ ! Q U U P K K K ! =.k.S.|..X.X).Q.W.Q.Q.Q.Q.Q.Q.Q.Q.Q.Q.Q.Q.Q.Q.Q.Q.Q.Q.Q.Q.Q.Q.Q./.(.Q.G.m.c.l.",
"U.I.V M i < $ + o + + + o + & 8 a a a a f F P U P P P P P K F P ` ,.z.K.|..XXX).Q.W.Q.Q.Q.Q.Q.Q.Q.Q.Q.Q.Q.Q.Q.Q.Q.Q.Q.Q.Q.Q.Q.Q.Q./.(.Q.J.N.v.c.",
"0.V N n 4 * + + # % & % # + # = 1 4 4 u s k c v x c F K P G G U %.a.A.'.|.XX).(.Q.Q.Q.Q.Q.Q.Q.Q.Q.Q.Q.Q.Q.Q.Q.Q.Q.Q.Q.Q.Q.Q.Q.Q.Q.Q./.Q.J.F.N.m.",
"B M n u ; + o @ & 1 4 1 & + o + % : 1 t a d s a a s l K P H G U -.M.!.|.{.(.!.Q.Q.Q.Q.Q.Q.Q.Q.Q.Q.Q.Q.Q.Q.Q.Q.Q.Q.Q.Q.Q.Q.Q.Q.Q.Q.Q.Q.Q.Q.J.J.G.",
"p i 4 ; + . . + = 8 a 8 = + . . + & 3 a d d a t t a k J P G F P 7.G..X@X}.Q.W.W.Q.Q.Q.Q.Q.Q.Q.Q.Q.Q.Q.Q.Q.Q.Q.Q.Q.Q.Q.Q.Q.Q.Q.Q.Q.Q.Q.Q.Q.Q.Q.Q.",
"2 < * # o     X % 1 8 1 % o X + % 1 q k x c l k k k c L K l w c 4.E.#X%X.XW.G.W.Q.Q.Q.Q.Q.Q.Q.Q.Q.Q.Q.Q.Q.Q.Q.Q.Q.Q.Q.Q.Q.!./././.Q.Q.Q.Q./.(.(.",
"% $ # + o X . X O % & # + o + * 4 s l K P Q E E E E U U K j 8 f 3.E.@X%X.XQ.G.W.Q.Q.Q.Q.Q.Q.Q.Q.Q.Q.Q./././.Q.Q.Q.Q.Q.Q./.(.(.(.(.Q.Q.Q.Q.Q././.",
"+ + + + + + + + + + + o o + % 1 a h v P !  .o.$.$.o. .~ P j 4 a / f..X$X.XQ.W.W.Q.Q.Q.Q.Q.Q.Q.Q.Q.Q.Q.Q.Q.Q.Q.Q.Q.Q.Q.Q.Q.Q.Q.Q.Q.Q.Q.Q.Q.Q.Q.Q.",
"o o o X + # = 6 6 & # O # % * 1 4 s k K Q  .+.#.#.#.#.o.! l 8 a ^ s.].oX}./.Q.Q.Q.Q.Q.Q.Q.Q.Q.Q.Q.Q.Q.J.J.J.Q.Q.Q.Q.Q.Q.J.J.G.G.J.J.Q.Q.Q.Q.Q.Q.",
"o o . . o & 0 r w 8 : ; < 1 : & & : 8 k J Q  .o.#.#.#.#. .H e k T 8.S.'.{.(.^.Q.Q.Q.Q.Q.Q.Q.Q.Q.Q.Q.J.N.N.N.J.Q.(.(.Q.J.N.N.b.b.N.N.J.Q.Q.Q.Q.Q.",
"@ + X X + 6 r P L k a u a a 1 % + # 1 a h v P !  .o.@.@.o.! H P ` ,.z.D.P.Q.Q.Q.Q.Q.Q.Q.Q.Q.Q.Q.(.Q.J.N.v.m.J.Q.(.(.Q.J.N.v.l.l.v.N.J.Q./.Q.Q.Q.",
"= & $ O & 0 F Q _ L z h b h 8 = # $ ; t d z l F H E W }  . .&.&.,.1.h.x.m.G.W.Q.!./././.Q.Q.Q.(.(.Q.J.b.l.v.G.Q.(.(.Q.J.N.N.b.b.N.N.J.Q.Q.Q.Q.Q.",
"8 3 1 1 3 w K Q _ P J v L v j 8 : < 4 a d s f f k l c H Q &.8.j.j.1.2.t.l.b.G.Q.(.(.(.(./.^.(.(.(.(.J.b.l.v.G.Q.(.(.Q.W.J.J.G.G.J.J.Q.Q.Q.Q.Q.Q.",
"a a a t a k F P U P P P U P F f a t u a a a a a a a s l P &.j.z.k.2.o.o.e.v.F.P.Q.Q.Q.Q.Q.Q.Q.Q.(.Q.J.N.v.N.J.Q.(.Q.Q.Q.Q.Q.Q.Q.Q.Q.Q.Q.Q.Q.Q.Q.",
"a a a a d f l c F K U Q ! ! P v h d a a t t t t a a s l K &.j.x.1...W  .a.N.L.J.G.G.G.G.G.G.J.J.J.J.F.N.N.F.J.Q.Q.Q.Q.Q.Q.(.(.(.(./.Q.Q.Q.Q.Q.Q.",
"u a a d d s f k l F P !  . .~ P v z d a 4 4 t a f l c F P %.1.t.o.I G ' M.!.[.J.b.c.c.b.m.N.N.m.m.N.N.G.J.W.Q.Q.Q.Q.Q.Q.Q.Q./././.Q.Q.Q.Q.Q.Q.Q.",
"a a a a a a u a f x P ! ..o...! P x f a t t a k J P P K P ! O.o.W G P 6.R..X.XP.v.i.l.v.b.b.v.c.c.v.N.J.Q./.Q.Q.Q.Q.Q.Q.Q.Q.Q.Q.Q.Q.Q.Q.Q.Q.Q.Q.",
"k f s a t 5 5 y a x P  .o.$.$...! K l f a a k c P U P L J H W } W ! ] d.~.@X+X/.A.N.N.N.N.N.N.b.b.m.G.Q.(.(.(.Q.Q.Q.Q.Q.Q.Q.Q.Q.Q.Q.Q.Q.Q.Q.Q.Q.",
"K F l s t , , y a x U  .o.$.@.$. .Q K v l l F K U U L v l c A } o.w.s.R.XX@X+X}./.!.!./.!.P.J.G.G.J.L.Q.(.(.(./.Q.Q.Q.Q.Q.Q.Q.Q.Q.Q.Q.Q.Q.Q.Q.Q.",
"U P J k a t t a f v P !  .o.$.$.o. .Q K K K P U U P v s a e H o.h.N.Q.)..X.X.X.X.X.X.X.X}.(.Q.Q.Q.Q.Q.Q.Q.Q.Q.Q.Q.Q.Q.Q.Q.Q.Q.Q.Q.Q.Q.Q.Q.Q.Q.Q.",
"U P K F c c c c c v J K !  .$.@.$.o. .! Q U U U U F s 4 2 s Q e.H.[.OXOX.X{.{.XX.XOX+X.XXX(./.^.(./.Q.J.G.G.G.J.L.Q.Q.Q.Q.Q.Q.Q.Q.Q.Q.Q.Q.Q.Q.Q.",
"K K P E ! ~  .~ R c k v K ~ o.$.@.$.o. .~ Q U U U F q < 2 h [ N.[.$X@XOX}.(.!.(.).{.}.).(./.Q.^.(.Q.W.F.m.b.b.N.G.J.Q.Q.Q.Q.Q.Q.Q.Q.Q.Q.Q.Q.Q.Q.",
"K P Q ~ o.#.#.o.E l a a l P !  .o.$.@.o. .Q P P U P l 8 a m u.Q.+X+X.X{.(.Q.Q.Q.Q.Q.Q.Q.Q.Q.Q.Q./.Q.J.N.v.l.l.v.C.J.Q./.Q.Q.Q.Q.Q.Q.Q.Q.Q.Q.Q.Q.",
"P Q ~ ..$.#.$.} G q 2 < 4 j F U  .o.@.@.} I F K Q ' _ Y ^ 5.f.(.}.[.!.Q.Q.Q.Q.Q.Q.W.J.J.J.Q.Q././.Q.J.N.N.c.c.b.N.J.Q.(./.Q.Q.Q.Q.Q.Q.Q.Q.Q.Q.Q.",
" . .O.o.$.X.{ I r 8 < - > 4 s c Q O.@.@.} H F K %.w.a.p.p.f.E.^.Q.J.N.N.J.Q.(.(.Q.L.G.F.J.Q./.(./.Q.Q.L.J.N.b.b.N.L./.(./.Q.Q.Q.Q.Q.Q.Q.Q.Q.Q.Q.",
"o.o.o.o.o. .! P v f a t t a f v P ! o.o.} I P _ <.v.H.P.Q.(.(.Q.J.m.v.m.J.Q.(.(.Q.G.m.v.N.J.Q./.Q.Q.Q./.Q.J.N.v.N.J.Q./.Q.Q.Q.Q.Q.Q.Q.Q.Q.Q.Q.Q.",
"| X.X.+.:.,.-.6.4.] ( ( ( / ) P H I W ! ~ ' ;.y.v.H./.{.}.}.{.!.J.N.N.N.J.Q.Q.Q.J.m.i.w.r.b.J.Q.Q.Q.(.(.(.G.c.i.l.m.J.Q.Q.Q.Q.Q.Q.Q.Q./././.Q.Q.",
"D | | +.9.x.B.T.R.V.V.T.T.f.p.*.W S Z H ' y.M.G.J.P./.(.}.}.}.{.(.(.!.P.J.G.G.G.N.l.>.o.>.i.N.J.W.Q.(.).Q.C.e.>.>.i.N.J.Q.Q.Q.Q.Q.Q.!.(.(.(.(./.",
"X.o.:.9.z.S.{..XOX.X.X+X@X.XP.l.o.A Z P ;.g.Q.{.(.Q.W.W.Q.(.{..X@X@X.X/.N.v.c.b.v.i.>.o.+.e.v.F.J.Q.(.).Q.N.w.o.o.w.v.G.Q.Q.Q.Q.Q.Q.Q.Q.Q.Q.Q.Q.",
"r.i.l.Z.S.].oX@X#X@X$X%X%X$X|.H.r.O.Q ` 7.C.(.OX}.Q.G.C.G.Q.{.@X&X&X@X!.b.e.w.l.c.l.e.q.e.l.N.G.L.Q.(.(.Q.N.e.+.+.w.c.N.Q.!.(.(./.Q.J.G.G.G.J.J.",
"L.Q.!.'.|.|.}.}.}.}.}..X.X.X[.P.N.i.<.<.a.G.(. X).Q.G.b.b.J.(.@X&X&X.XJ.i.+.+.w.c.b.b.b.N.N.J.J.Q.Q.(.(.Q.F.c.e.w.r.c.N.L.(.).).(.L.N.b.v.b.m.N.",
".X.X.X.X.X}.(.Q.Q.Q.Q.Q.Q.Q.!.(.Q.J.N.v.m.G.Q.(.(.Q.G.b.v.N.!..X+XXXQ.b.q.o.o.w.v.G.Q.Q.Q.Q.Q.Q.Q.Q.Q./.Q.J.N.v.l.l.v.N.J.Q.(.(.Q.J.N.v.c.c.v.b.",
"OXOX+XOX.X).Q.W.G.G.W.J.G.W.Q._.(./.P.J.J.J.Q.Q.(.Q.J.N.N.H.Q.!.!.G.c.e.>.>.>.i.m.L.(.XXXX).^.Q.Q.Q.Q.Q.Q.Q.J.G.N.b.b.m.N.G.J.G.G.J.J.A.N.N.m.m.",
"}.}.).).).(.Q.Q.W.W.W.W.W.W.Q.^.(./.!.Q.Q.Q.Q.Q./.(.Q.Q.J.J.J.N.c.e.>.>.w.i.l.c.N.L.{..X.X).Q.Q.Q.Q.Q.Q.Q.Q.Q.W.G.N.v.c.b.b.b.v.b.F.!.(.!.Q.J.N.",
"Q.Q.Q.Q.Q.Q.Q.Q.Q.Q.Q.Q.Q.Q.Q.Q.Q.Q.Q.Q.Q.Q.Q.Q.Q.Q.Q.Q.Q.L.F.v.e.+.o.>.i.v.b.c.v.J.(..X.X).Q.W.Q.Q.Q.Q.Q.Q./.Q.J.N.v.c.c.v.c.l.v.J.(..XXX(.Q.L.",
"W.W.W.W.W.Q.Q.Q.Q.Q.Q.Q.Q.Q.Q.Q.Q.W.J.J.W.Q.Q.Q.J.J.J.J.J.J.G.N.l.e.w.r.c.b.c.e.e.v.!..X+X}.Q.W.Q.Q.Q.Q.Q./.(.Q.J.N.v.v.N.N.N.N.N.L.[..XXX)./.Q.",
"Q.Q.Q.Q.Q.Q.Q.Q.Q.Q.Q.Q.Q.Q.Q.Q.Q.J.F.N.G.Q.Q.W.F.N.b.b.N.F.J.J.G.C.N.N.N.b.e.o.o.i.P..X@XXX/.W.Q.Q.Q.Q.Q./.(.Q.J.N.b.N.L.!.(./.!./.(.(.(.(.!.Q.",
"Q.Q.Q.Q.Q.Q.Q.Q.Q.Q.Q.Q.Q.Q.Q.(.Q.J.m.v.N.J.Q.Q.N.v.l.l.v.N.J.Q.(.(.Q.L.G.v.w.o.o.r.L..X+X}.Q.W.Q.Q.Q.Q.Q./.(.Q.G.b.v.N.!..X@X@X.X{.(.Q.Q.Q.Q.Q.",
"Q.Q.Q.Q.Q.Q.Q.Q.Q.Q.Q.Q.Q.Q./.(.Q.G.c.l.b.J.Q.Q.G.N.c.v.m.N.J.Q.Q.Q.Q.J.G.N.l.e.e.v.Q.}.}.!.J.J.W.Q.Q.Q.Q./.(.Q.G.b.c.N.(.@X&X&X+XXX(.!.Q.Q.Q.Q.",
"Q.Q.Q.Q.Q.Q.Q.Q.Q.Q.Q.Q.Q.Q./.(.Q.G.v.l.b.G.Q.Q.Q.J.G.G.G.G.G.N.N.N.N.N.G.G.G.J.J.Q./.(.Q.G.N.N.J.Q.Q.Q.Q.(.(./.J.b.c.N.(.@X&X@XOX.XXX).(.!.Q.Q.",
"Q.Q.Q.Q.Q.Q.Q.Q.Q.Q.Q.Q.Q.Q.!.(.Q.J.N.v.N.J.Q./.Q.Q.Q.^.Q.J.N.v.l.c.v.N.G.Q.).XX.XXX).Q.G.b.v.N.J.Q./.Q.Q.Q.(.Q.G.b.v.N.!..X+XOX.X.X.X.X{.(.Q.W.",
"Q.Q.Q.Q.Q.Q.Q.Q.Q.Q.Q.Q.Q.Q.Q./.Q.J.N.N.N.J.Q././.(.(.).(.L.N.l.l.c.N.J.!.).OX@X%X+XXXQ.N.c.l.b.J.Q.(.(.Q.Q.J.J.N.N.N.J.!.{..X.X.XOX@X+XXX(.Q.W.",
"Q.Q.Q.Q.Q.Q.Q.Q.Q.Q.Q.Q.Q.Q.Q.Q.Q.Q.J.J.J.Q.Q.Q.Q.!.(.).(.J.b.l.c.H.!.{.XX.X+X@X@X+X}.Q.C.c.l.b.J.(.).(.Q.J.N.m.m.N.J.Q.Q.(.).XX.X@X@XOXXX(.Q.W.",
"Q.Q.Q.Q.Q.Q.Q.Q.Q.Q.Q.Q.Q.Q.Q.Q.Q.Q.Q.Q.Q.Q.Q.Q.Q.Q.Q.(.Q.G.b.v.N.!..X+XOX.X.X.X.XXX).Q.G.b.v.N.G.Q.(.(.Q.G.N.v.m.J.Q.Q.Q.Q.(.{..XOX+X.X{.(.Q.Q.",
"Q.Q.Q.Q.Q.Q.Q.Q.Q.Q.Q.Q.Q.Q.Q.Q.Q.Q.(.(.(.Q.Q.Q.Q.Q.Q.L.G.N.b.N.L.}.@X@XOXXX{.{.{.).(.Q.J.F.N.N.N.J.Q.^.Q.L.N.N.F.Q.(.(.Q.Q.Q.(.}.XXXX}.(./.Q.Q.",
"W.Q.Q.Q.Q.Q.Q.Q.Q.Q.Q.Q.Q.Q.Q.Q.Q.Q.(.(.(.Q.Q.Q.Q.Q.J.N.m.b.N.G./..X@X+XXX(././.(./.!.Q.Q.Q.J.N.N.N.N.Q./.Q.Q.J.Q./.(.(.Q.Q.Q.!.(.(.(.(./.Q.Q.Q.",
"Q.Q.Q.Q.Q.Q.Q.Q.Q.Q.Q.Q.Q.Q.Q.Q.Q.Q.Q.Q.Q.Q.Q.!.(.Q.J.N.v.b.G.Q.)..X.XXX(.Q.Q.Q.Q.Q.Q.Q.Q.(.Q.J.N.v.N.J.Q.(.Q.Q.Q.Q.Q.Q.Q.Q.Q.Q.Q.Q.Q.Q.Q.Q.Q.Q.",
"(.(.(.!.Q.Q.Q.Q.Q.Q.Q.Q.Q.Q.Q.Q.Q.Q.J.J.J.W.Q./.(.Q.J.N.m.N.Q.).XXXX{.(.Q.Q.W.W.Q.Q.Q.Q./.(./.L.N.m.N.N.J.W.W.J.J.G.G.J.W.Q.Q.Q.Q.W.W.Q.Q.Q.Q.Q.",
".XXX{.(.Q.Q.Q.Q.Q.Q.Q.Q.Q.Q.Q.!.Q.J.N.N.N.J.Q././.Q.J.G.J.Q.)..X.X{.(.Q.Q.Q.Q.Q.Q.Q.Q.Q.Q.Q.Q.Q.L.J.N.C.N.N.N.N.N.b.b.N.G.Q.Q.Q.Q.Q.Q.Q.Q.Q.Q.Q.",
"OX.X}.(.Q.W.Q.Q.Q.Q.Q.Q.Q.Q.Q.(.Q.J.N.v.N.J.Q.(./.Q.Q.W.Q.(.XX.XXX(.Q.W.Q.Q.Q.Q.Q.Q.Q.Q.Q.Q.Q.Q.Q.Q.J.N.v.c.c.v.c.c.v.N.J.Q./.!.Q.Q.Q.Q.Q.Q.Q.Q.",
".XXX{.(.Q.Q.Q.Q.Q.Q.Q.Q.Q.Q.!.(.Q.G.v.l.b.J.Q.(./.Q.Q.Q./.(.XXXX{./.Q.W.Q.Q.Q.Q.Q.Q.Q./.Q.Q.Q./.(./.J.N.c.l.c.b.N.N.N.L.!.(.(./.Q.Q.Q./.!.Q.Q.Q.",
"(.(.(.!.Q.Q.Q.Q.Q.Q.Q.Q.Q.Q.Q.(.Q.F.c.l.b.J.(.(.(.Q.Q.Q.Q./.(.(.(.Q.Q.W.Q.Q.Q.Q.Q.Q./.(./.Q.Q.Q.(.Q.J.N.c.c.N.G.J.Q.!.[.XXXX{.(.Q.Q.Q././.Q.Q.Q.",
"Q.Q.Q.Q.Q.Q.Q.Q.Q.Q.Q.Q.Q.Q.^.(.Q.J.m.v.m.J.Q.(.Q.Q.Q.Q.Q.Q.Q.Q.Q.Q.Q.Q.Q.Q.Q.Q.Q.Q.Q.Q.Q.Q.Q./.(.Q.J.N.v.m.G.Q.).XX.X.XOX.X}.(.Q.Q.Q.Q.Q.Q.Q.Q.",
"W.W.Q.Q.Q.Q.Q.Q.Q.Q.Q.Q.Q.^.(.(.Q.Q.J.N.N.N.J.L.Q.Q.(.(.(.Q.Q.W.Q.Q././.!.!./.(./.Q.J.J.J.L.Q.(.(.Q.G.b.c.N.J.).OX@X@X@X.XXX).(.Q.W.J.J.J.Q.Q.Q.",
"Q.Q.Q.Q.Q.Q.Q.Q.Q.Q./././.(.(.(.(./.Q.Q.G.N.N.N.L./.).).(./.Q.W.Q.Q./.(.(.(.(.(.(.L.N.N.N.J.Q.(.)./.G.b.c.N.!.XX@X@X@X.X{.(.(.(./.J.C.N.N.J.Q.(.",
"Q.Q.Q.Q.Q.Q.Q.Q.Q.Q.Q.Q.Q.Q.Q.Q.Q.Q.(.Q.J.m.v.N.J.Q.(.Q.Q.Q.Q.Q.Q.Q.Q.Q.Q.Q.Q.(.Q.J.N.v.m.G.Q.(.(.Q.G.b.v.N.!..X@X@X.X{./.Q.Q.Q.Q.J.m.v.N.J.Q.(.",
"Q.Q.Q.Q.Q.Q.Q.Q.Q.W.J.J.J.J.J.J.J.J.J.J.F.N.N.N.G.J.F.N.N.F.Q.(.(.Q.J.G.G.G.G.G.G.C.b.b.N.J.Q.Q.Q.J.N.N.N.L.(..X.X.X{.(.Q.W.W.L.J.F.N.N.N.J.Q.(.",
"Q.Q.Q.Q.Q.Q.(./.Q.G.N.b.b.m.m.N.m.b.b.m.N.F.J.J.G.N.i.q.w.c.J.).).Q.N.b.b.b.b.b.b.N.N.G.L.Q.Q.J.N.m.N.G.Q.(.).{.).(.(.!.Q.Q.J.N.N.N.N.J.L.Q.Q.Q.",
"Q.Q.Q.Q.Q.Q./.Q.J.N.v.c.c.v.b.b.v.c.c.v.N.J.Q.Q.J.v.w.o.o.w.N.Q.Q.F.v.l.c.v.c.c.v.N.J.Q.(.(.Q.G.m.v.N.J.Q.(.!.Q.Q.Q.Q./.(.Q.J.N.v.m.J.Q./.Q.Q.Q.",
"Q.Q.Q.Q.Q.Q.Q.J.N.m.b.b.m.N.N.N.m.m.N.N.L.Q.(.Q.J.N.r.>.+.>.l.N.N.c.l.c.N.N.A.N.N.L./.).).(.Q.J.N.m.N.G.J.G.G.F.G.L.Q.(.(./.J.b.c.b.J./.(.(.Q.Q.",
"Q.Q./.(.(.Q.G.N.b.b.m.N.J.J.J.G.J.J.!./.(.(.!.Q.Q.J.N.l.r.w.q.w.w.e.l.N.L.(.{.(./.[.XX.XXX(.Q.L.J.J.F.N.m.v.c.b.N.J.^.).)./.J.b.c.b.G.Q.(./.Q.Q.",
"Q.Q.Q./.Q.J.N.v.l.l.v.C.J.Q.Q.Q.Q.(.XX.XXX(.Q.Q.Q.Q.Q.F.v.e.+.o.+.w.v.L.(..X+XOX.X.X.X.X}.(.Q.Q.Q.Q.J.N.v.l.l.v.N.J.Q.(.(.Q.G.m.v.N.J.Q./.Q.Q.Q.",
"Q.Q.Q.W.J.N.m.c.i.e.e.l.N.J.Q.Q.(.)..X.XXX(.Q.Q.Q./.Q.J.m.r.>.+.>.l.J.!.XX.XOXOX.X.XXXXX).(.Q.^.(.(.Q.J.N.N.N.A.G.G.G.J.J.J.F.N.m.N.J.Q./.Q.Q.Q.",
"/.Q.L.F.N.b.b.c.r.>.o.>.i.N.J.Q./.(.).).(.!.Q.Q./.Q.Q.F.v.i.w.r.c.J./.{.{.).).).).).(.(.(.(.(.^.^.Q.!.!./.{.[.(.P.N.b.b.N.N.N.N.N.F.Q.!.(.Q.Q.Q.",
"(.Q.J.N.v.c.b.v.i.>.o.+.e.v.F.Q.Q.!.!.Q.Q.Q.Q.Q./.Q.J.N.v.l.l.v.J.(..X.X).Q.W.Q.Q.Q.Q.Q.Q.Q.Q.Q.Q.Q.(.{..X+X@X.X/.F.v.l.c.v.c.c.v.N.J.Q./.Q.Q.Q.",
"/.Q.L.F.m.b.v.c.l.r.r.l.v.N.J.Q.Q.Q.W.L.W.Q.Q.!.!.Q.J.G.N.v.c.N.Q.XX@X+X).W.G.J.W.Q.Q.W.L.J.J.J.J.Q.(.}..X+X+X.X{.Q.N.b.c.l.i.e.e.l.N.J.Q.!././.",
"Q.Q.Q.Q.J.N.c.c.v.N.L.Q././.!.Q.W.L.L.L.W.Q.Q.Q.Q.Q.Q.Q.J.N.b.b.L.|.@X+X).Q.J.L.Q.Q.Q.Q.J.N.m.N.J.Q.(.).).).).).{.{.(.P.N.l.q.+.o.>.i.N.L.Q.(.(.",
"Q.Q.!.(.Q.G.b.v.N.!..X@X@X.X{.(.Q.Q.Q.Q.Q.Q.Q.Q.Q.Q./.(.Q.G.b.v.N./..X.X).Q.W.Q.Q./.(.Q.J.N.v.N.J.Q.(./.Q.Q.W.Q.)..X.X{.L.v.w.+.o.+.e.v.G.Q.Q./.",
"Q.Q./.(.(.L.N.N.J.(.OX@X+X.X}.).(.(.(.(.(.!.Q.Q.Q.Q./.(./.J.b.c.N.!.{.}.(.Q.Q.Q.Q././.Q.J.N.N.N.J.Q.Q.Q.W.J.J.W.(.XX.X}.Q.N.c.r.e.e.i.c.N.F.J.J.",
"Q.Q.Q./.Q.Q.J.J.Q.(.).}.).).).{.XXXXXXXX)./.Q.Q.Q.Q./.(.Q.J.N.v.N.J.(.(.(.Q.Q.Q.Q.Q.Q.Q.Q.J.J.J.Q.Q.Q.Q.Q.W.W.Q.!.(.).(.Q.J.G.N.N.b.c.c.b.m.N.N.",
"Q.Q.Q.Q.Q.Q.Q.Q.Q.Q.Q.Q.Q.Q.(.}..XOXOX.X}.(.Q.Q.Q.Q./.(.Q.J.N.v.N.J.Q.(.Q.Q.Q.Q.Q.Q.Q.Q.Q.Q.Q.Q.Q.Q.Q.Q.Q.Q.Q.Q.Q.Q.Q.Q.Q.Q.Q./.Q.J.N.v.c.c.v.b.",
"Q.Q.Q.Q.Q.Q.(.(.Q.Q.J.G.G.W./.}.OX@X@X.XXX(.Q.Q.Q.Q.!./.Q.G.N.v.m.G.W.Q.Q.Q.Q.Q.Q.Q.Q.Q.Q.(.(.(.Q.Q.Q.Q.Q.Q.!.Q.Q.W.W.W.Q.(.).XX).!.G.b.l.l.c.c."
};
