/* XPM */
static char *result[] = {
/* columns rows colors chars-per-pixel */
"72 72 43 1 ",
"  c #A4683F",
". c #A66940",
"X c #A96E45",
"o c #AD734A",
"O c #B0774E",
"+ c #B2784F",
"@ c #B37C53",
"# c #B68057",
"$ c #B88057",
"% c #B78158",
"& c #BA845B",
"* c #BD885F",
"= c #BF8B62",
"- c #C28E65",
"; c #C39067",
": c #C6946B",
"> c #C8976E",
", c #C7986F",
"< c #C8986F",
"1 c #C79A71",
"2 c #CB9C73",
"3 c #D09F76",
"4 c #CDA077",
"5 c #CFA279",
"6 c #D0A077",
"7 c #D1A57C",
"8 c #D3A87F",
"9 c #D6AD84",
"0 c #DAAE85",
"q c #D7B087",
"w c #D9B087",
"e c #DBB38A",
"r c #DEB88F",
"t c #DFBA91",
"y c #E0B68D",
"u c #E1B88F",
"i c #E5BC93",
"p c #E9BE95",
"a c #E7C097",
"s c #E9C097",
"d c #ECC39A",
"f c #F0C89F",
"g c #F1CBA2",
/* pixels */
"re81-&&-279q999eq09889998999990eq9999999990999999qe990e95:-:8eeq99e95>--",
"q982:--:279qq09999099990999999999999999999099999999999q95,:,59q990q971:;",
"775632213899q985789yeeqq0q990988899999999989900098599999822228999qe9821>",
":169y0866890q982360uiuyee9e998224899999999880ry052259999855422289q998876",
"-:6epir9899qe94::20idsiyq99995>:159qq9999989yip02:>69q099q951:<69qq99999",
";>6eiarq999qe94;->9iffpy955995:-:59ee999989eiff02--7eyeerre8<;:599q99qeq",
"2880yre0999ee94;->7rsfsy6>2895:-:5qeq98580eipfde2-:7ypiyrre5<:,59e999999",
"9999999999999971:>29uppw2>>8981:>59q99998eyppfi02:29pdppie95::169qq99999",
"eq9999999999e99521159ey0611899855789990qeiiiiy07227ydfdir081::<7qeq99999",
"q999999e99999qe9951:28q98678qeqq876489eipiir9821270udfdi071:-;<89e999999",
"99999999999999qq96>:<60q99999qq96<:>49yuiir95:::20riiir951:-;:2799q99999",
"9999986759998558862148qeee987721-&%=19ey09841:,28eryq82:=;;:>22679999999",
"9999981>189821>>12789qeee9952:=#oXo&,9982>>>>2589qe93:*@@&-<6852258ee999",
"999q96<:18982:--:289q9999992:*@o..o*2992:--:279qe982>&Oo@&:59981:>69q099",
"999e962<389851:::47851149081-&@@@@&>8e082::<69ee962:-@Oo@-19eq8:--159999",
"99999988899985567641-&%;5q91===:,279yiiy087680e95<;:-*@&=:89e97<--;:4899",
"9909999999999999992:&oo&1992>>20riipiiaiire999081>-:::::179ee952>-->289e",
"99999988890qq0ee998>&+o@:68668widdfdiiiiiirq98722<<24227899e99851>:>2890",
"9999982129qeq9q99995:*&&->70yuipdddpieqeere9821245888899909q999885578999",
"99qq96<>159099999e9981:--:30ipppippuq99990e951>1590099909999999999999999",
"999q952:>269999999eq0962:18eipiryuyy995589e95:-:89e9556888999999qeqqq999",
"99999986211289q9999ee9998890reeeeree998899e96:->5q981,>248999999q99q9999",
"999999e961:<59q999999999999999999999999999996<>18982:--:289qq99999999999",
"9999qerq92<1299e9985555858888998544799eqq999722599821:-:179eq99999999999",
"999qeeee99522380e92,:<1<<<28999941>16qrqe9555789999952::28qeq99999999999",
"99999999qq95>:26992:-:>:::269qq951:>60ee95::169e9999971:1699999999999999",
"999852259ee5-*->4821:<<::>290ry0933359998:=%=>8999qrq5;=->699999999q99q0",
"e984:::>5qe5-@@=:25558555559qeyyyy0854441=@o@*1699er92&@@-28899999qqeqqq",
"q952:--:5991&oO@:5809999999999ypddpq2::::=@o+&:259er0:%oo&:5899q99999990",
"q9851::1598;o X*29qqqe9eqe9559ysggde:&&=;=&#&=<289qe91&+O$;289ee99555567",
"90955555771&X +>eiy0999qe951:7ydggi5*Oo&;::1124899qe92-&$*:28qrrq92:::11",
"9999909985:@oo*8pay9899qe95::20pdi9:@oo&:4999q9999qq972>--:189qqq52:;:::",
"9999qeee83:*&=20iie9889qq982238095;*@+@=>70iiy99999999821>:>266566633>1<",
"99999eqq72>>380ere999999q0998772;&@+#==;37yiuy999999999861::>>::>39e0852",
"99999qq93>:3eipy999999999990984:&oo@=:,;>30iuy9899999qq982:;::;;-6ypie98",
"99999q99<-*>yddy959999988677774>=&%*:1=&&>0ppu0999999qq971::122237yiuy00",
"999999e9>@@-8pdu99899q9821>>127752211:&oO&8pdi99999999q97>:>70y000eee099",
"99999er9:@o&7idu95999e982:;-:289qq986:#oO*7par9989999qe96::30pdpiye99999",
"99999rr0>@O&8pdy9959909841::>269q9985<-&&:9yr08689999qe96>:3ydgfdie99899",
"9999qrre2=&:0pde959999988556555222222554780q952259999eeq6:->edffpiiyq999",
"999999q95::2wpiy9899999999q9982:;-:160ripir95::159e999e95>:20pdppippyw99",
"99982555454800y0q99999999eerq81;-:279yidfdr91;;>59eq988521260yiippdpue98",
"rq95:;;:2688368yrre999e99qqre51;:30yuidddir92:->8qrq952>14790qeipsddie98",
"q952:--:2995>>30iir99999999e95::30psppiipie94>>159ee95<:<69990wypspiy099",
"633343<38005-->0adiq5558899852<17uddpuyyyee982112699q82129qq999eyiiyeq99",
";>38ey0eee95--3eadi9511279821:160idduy090e9999821129qq9899re9990qee00q99",
"-:30ifdiue94>:30idr95,:28982::29yipue98999999q95<:169qq99999999999999999",
"<380iddiie962270yr081:<49082129yiuyw998999999e992<1558955445999998999999",
"eee0rreeeq95559ee9621258999559eiirq999999999990995221222>>>2689099989999",
"piyy9999999999q9961>169q99899eiiie9899999999999q9982::;::-:<890999999999",
"pii0855999999qqq91:-<8eeq999qruye0999999999q9999e081--:<><379eee999q9q99",
"yy009899999999qq92:->8qrq95999eee9598999999eq99qq981::,2880yuir0999q9999",
"09999990999999eq951:,890q99999999999999999999999q071:>20eipppiyw99999999",
"89899999q999q99e997222689qeeq99899q9q9eqq985789qe951:<8yiddspiye9855899q",
"89999999909eeqe9e99951>28qrreq9999qqqeee9921179er95:-29idddpueeee82>189q",
"999999999999999999e96<>1599999999999999e95<:,59re95::20iddpyq99996<>169e",
"999999q999866685687741>15521:59ee984455562<:2999962128eiaiye9888821<289q",
"999999e0941::1<>>>>:24574,-#%-6ye82>:::::>15599821159qeyyeq9095222278999",
"99999q9951::::::::-:28996:%oo&2995:-:::;:269eq951>1690099999e951:1599q99",
"999qq99821>:>221>>23890981=@o@->1;-;1362380yte951>228633589ee98:;:5eeq99",
"990q0951,:1268856890eeq995<-*@@@@&-<8ee00yuiue998522>:-:299erq5:->60e999",
"9999981:;;:289999eupye999994:&@O+&:8yipppippyq990982:=-:159eq961><59q999",
"999952>;=%&=1599qriiiq999e96>*+O@-30uipppiiur00qeq963333455887511289q098",
"q982<>>:&@o+=1490eree099q985:=$&:70uyyyyeyeeqeqq9qq00eey82::<2211290q999",
"e981::>:*+O+&:38009999990971:--:3yiiy9999999999999qyiddi03>-->:->3790099",
"q982>::;=*&=:3788888889999841::<8idpy8585999885559eyiddiu83>:-=@&=>790q9",
"999961:--389000095888999999881:>7uddy968999952>259ererreyyw83-@OO@=289qe",
"999q96>:3eidppi09999999999qe95::30pie99899995<:159qq9899eipy7:&OX+$:4990",
"999ee8225raddiyeeeey0099999e06,:29yye9899qe9541289q99589etiy92==&&*-1288",
"99q999889qrrreryyiiur09999qe97,:<80eq9999999985899999859qqee99521:::>>21",
"99999999999989eyisspyq0899qe96<:,59e9999999q99999999999999999999981>;:::",
"999999qqq955589ipddpue99899q95<:,29q999999999qeq99999q9999589qrir96>----"
};
