/* XPM */
static const char *wall_35[] = {
/* columns rows colors chars-per-pixel */
"72 72 232 2 ",
"   c #4E0E18",
".  c #4A0C19",
"X  c #500E19",
"o  c #4E131D",
"O  c #4F181F",
"+  c #51141D",
"@  c #5A191E",
"#  c #4E1A24",
"$  c #4B1723",
"%  c #521720",
"&  c #531B23",
"*  c #561E25",
"=  c #4C222A",
"-  c #542027",
";  c #5B2226",
":  c #55232A",
">  c #5A262B",
",  c #55292E",
"<  c #5A292E",
"1  c #552C31",
"2  c #5A2D32",
"3  c #512630",
"4  c #553236",
"5  c #5C3235",
"6  c #563439",
"7  c #5C3639",
"8  c #563A3D",
"9  c #5D393C",
"0  c #652C2A",
"q  c #652928",
"w  c #793B2E",
"e  c #622E31",
"r  c #633434",
"t  c #6B3533",
"y  c #6D3935",
"u  c #613739",
"i  c #623C3D",
"p  c #6A3D3B",
"a  c #633837",
"s  c #723C35",
"d  c #723C37",
"f  c #66302E",
"g  c #6C423E",
"h  c #64403F",
"j  c #73443D",
"k  c #7A453A",
"l  c #7A473B",
"z  c #7F503F",
"x  c #5C3E41",
"c  c #563B41",
"v  c #623F40",
"b  c #5D4244",
"n  c #5D464B",
"m  c #5D4B4C",
"M  c #5D4C53",
"N  c #5D5354",
"B  c #5E545A",
"V  c #5E5A5E",
"C  c #5B504F",
"Z  c #634343",
"A  c #6B4643",
"S  c #654847",
"D  c #6D4945",
"F  c #634B4C",
"G  c #6C4C49",
"H  c #62464A",
"J  c #734540",
"K  c #744C45",
"L  c #7A4D45",
"P  c #754E48",
"I  c #7A4F48",
"U  c #6B514D",
"Y  c #7C5146",
"T  c #76514A",
"R  c #7C5249",
"E  c #644D50",
"W  c #635354",
"Q  c #655C5C",
"!  c #6A5C5D",
"~  c #645758",
"^  c #5E5D62",
"/  c #685F60",
"(  c #5F6566",
")  c #5F7273",
"_  c #656362",
"`  c #6B6464",
"'  c #6D6C6B",
"]  c #686B6A",
"[  c #706B68",
"{  c #6E706F",
"}  c #687877",
"|  c #737473",
" . c #757977",
".. c #767D7A",
"X. c #787C7B",
"o. c #656F71",
"O. c #67605F",
"+. c #824C3C",
"@. c #804434",
"#. c #84513E",
"$. c #8D563D",
"%. c #955B3E",
"&. c #824E42",
"*. c #835545",
"=. c #8A5644",
"-. c #865946",
";. c #8C5B46",
":. c #835549",
">. c #89574A",
",. c #86594A",
"<. c #8C5A4A",
"1. c #935D44",
"2. c #915E4A",
"3. c #9B5D47",
"4. c #845D52",
"5. c #8F604B",
"6. c #8F6044",
"7. c #946145",
"8. c #9B6445",
"9. c #94614A",
"0. c #9B654A",
"q. c #9D694A",
"w. c #9D6946",
"e. c #9A6553",
"r. c #9E6A54",
"t. c #976856",
"y. c #956958",
"u. c #A36B46",
"i. c #A96E45",
"p. c #A36C4B",
"a. c #A96F4B",
"s. c #A16647",
"d. c #AC734B",
"f. c #A9714B",
"g. c #B2764C",
"h. c #B5794C",
"j. c #B97B4D",
"k. c #B27347",
"l. c #A46C53",
"z. c #A86D56",
"x. c #AC7252",
"c. c #AD745C",
"v. c #AB7A5E",
"b. c #A87455",
"n. c #B27552",
"m. c #B57A53",
"M. c #BB7C54",
"N. c #B2755C",
"B. c #B47B5B",
"V. c #BC7D5A",
"C. c #AD7D62",
"Z. c #B67C62",
"A. c #C17E5B",
"S. c #76817D",
"D. c #79837E",
"F. c #B68057",
"G. c #BD8156",
"H. c #BD825C",
"J. c #BA855B",
"K. c #B38465",
"L. c #BD8263",
"P. c #BD8963",
"I. c #B98B6C",
"U. c #B38C71",
"Y. c #BD9272",
"T. c #B48668",
"R. c #C2835C",
"E. c #C5865B",
"W. c #C58563",
"Q. c #C38C64",
"!. c #CA8B64",
"~. c #C38C6B",
"^. c #CC8C6A",
"/. c #C98766",
"(. c #D18E6D",
"). c #D18E65",
"_. c #C4926B",
"`. c #CC936D",
"'. c #C89469",
"]. c #D1926C",
"[. c #CE9471",
"{. c #C59A75",
"}. c #CC9B73",
"|. c #C79976",
" X c #D19673",
".X c #D29A75",
"XX c #D49E79",
"oX c #D99D78",
"OX c #C78E70",
"+X c #CEA27B",
"@X c #CCA077",
"#X c #D3A47C",
"$X c #DAA47D",
"%X c #D6A67B",
"&X c #E2AA7F",
"*X c #6A8584",
"=X c #748482",
"-X c #798681",
";X c #7B8B84",
":X c #748C8B",
">X c #778B87",
",X c #7C938C",
"<X c #77928D",
"1X c #769494",
"2X c #7A9A96",
"3X c #7B9E9A",
"4X c #779796",
"5X c #6F908F",
"6X c #7BA19C",
"7X c #7CA6A0",
"8X c #7AA3A0",
"9X c #7DAAA4",
"0X c #7FB1A9",
"qX c #80B1AB",
"wX c #81B4AE",
"eX c #80948C",
"rX c #DBA681",
"tX c #D6AC84",
"yX c #DBAC84",
"uX c #D4A780",
"iX c #DAB086",
"pX c #DCB48A",
"aX c #D9B48A",
"sX c #DFB991",
"dX c #CEA680",
"fX c #E5AC84",
"gX c #E2B38B",
"hX c #E8B78C",
"jX c #E4BB92",
"kX c #E8BC94",
"lX c #E8C198",
"zX c #F4C394",
/* pixels */
"5X1X1X,X-X[ S 7 2 5 i Z Z Z Z Z x 8 8 c x A I =.7.u.d.M.R./.(.(./.H.m.d.d.d.h.j.j.g.a.0.9.2.<.<.<.<.<.2.2.9.0.2.<.Y P U U S i < & % = 6 m Q ` ' ",
"1X1X1X,X-X[ S 7 2 2 9 i Z Z Z Z Z Z Z Z S K :.<.8.p.n.V.W.^.(.^.W.G.m.d.d.d.d.d.d.p.0.9.<.<.<.<.<.<.<.<.<.<.2.<.:.K A S S Z 7 < : - 1 x W _ ' | ",
"4X4X4X,X-X[ S 7 , < 5 9 i Z S A G K K K Y *.<.9.p.d.V.Q.^.`.^.!.E.G.M.g.d.f.p.p.0.9.=.*.:.:.:.<.<.<.:.:.:.:.:.Y K g a u 7 7 2 2 1 4 8 m Q ' | | ",
"6X3X3X,XD.` H 5 : & : 2 7 Z A K T :.;.1.7.8.0.p.a.M.W.}.}.}.~.R.G.M.j.h.d.p.0.;.:.K K K K Y :.>.<.>.:.I K K G G g u 2 > : : , 1 7 b W Q ' |  . .",
"9X7X3X,X .! Z 2 & + % - 2 9 Z K :.2.w.p.f.f.d.g.V.W.[.#X#X}.Q.F.g.d.d.a.p.9.,.I A Z b Z A K :.<.<.<.:.K A S S Z i 2 : % + % - 1 x M Q ' | | | | ",
"0X7X3X>X{ ~ x 2 & + + o & , 5 g L <.q.f.g.h.j.G.W.`.#XyXyX}.P.b.p.8.7.;.*.Y K G S Z Z Z K Y <.9.0.9.<.Y K G A A i 5 , & & & : 1 8 m Q ` ` ` ! ! ",
"0X7X2XS.` H 7 , & + + o o % : 5 p I <.0.a.d.m.R.`..X%XrX$X[.L.b.9.*.I D A A A K K K K I :.<.0.p.p.p.0.<.:.Y Y Y K p u 5 5 5 2 , 1 8 m W W H x 9 ",
"qX7X1X} ~ 8 1 : & % % % + % : 2 9 Z K :.;.8.p.B._.@X#X#X XW.N.e.>.I A Z b Z G I :.:.<.<.2.0.p.d.d.d.p.0.9.2.2.<.:.K A S S Z 7 < : , 8 x 8 1 : & ",
"0X6X:X] m 1 - # # # - : : > 2 7 9 v Z p d w +.0.K.{.+X}.W.c.e.>.Y K K K D K K :.<.2.9.0.p.f.g.h.h.h.g.a.p.0.0.2.<.:.T T U G i 2 & & : , : & o o ",
"9X3X=X_ 9 & o $ $ = 1 5 y d j D Z v a e ; * 0 +.b.Y.{.I.v.e.:.K K Y =.;.=.,.:.>.<.2.0.p.d.g.h.h.h.h.h.g.f.p.0.2.<.:.:.R T G Z 2 : % % % % + o o ",
"8X1X .~ 2 + + % - 1 9 D I :.:.T D i 5 : o . % d t.I.{.K.r.,.K A K ;.w.p.0.9.<.<.<.2.0.p.f.d.d.d.d.d.d.g.d.p.0.9.2.<.<.:.T A i 2 : & % % % % % % ",
"3X:Xo.m , + @ q r p J R <.5.<.L p r 2 - $ . * J r.I.Y.K.t.R K K Y 7.p.p.0.2.<.<.<.2.9.0.p.p.w.8.0.0.u.a.f.f.p.0.q.0.9.<.L p 2 : & & - : : & & & ",
"5X*X_ b : @ q s l &.:.<.e.9.=.k r < 1 1 3 1 p <.C.Y.Y.K.t.,.Y Y <.9.0.9.<.:.Y :.<.<.2.2.9.2.;.=.=.;.7.w.p.f.a.p.a.l.0.=.j e ; % & : 2 5 2 < : & ",
"*Xo.V c : ; t L >.<.<.2.9.<.l t > > 2 9 i g :.r.I.{.{.K.r.2.<.<.<.2.<.:.K A G I :.<.<.<.<.<.<.<.<.<.2.0.p.f.d.d.f.p.9.&.y > & + % : 5 9 7 2 : & ",
"o.( B c 2 0 d L :.:.:.:.:.I p 2 : , u g z *.0.v.Y.|.|.K.b.0.9.2.<.:.I G Z x Z A I *.=.;.2.9.e.e.e.r.l.l.f.d.d.d.p.1.*.j t < & % % - 2 7 5 < & % ",
"^ B M x 7 a g K K K G G A Z 9 4 1 7 j #.$.7.p.F._.}.|.P.b.p.0.<.:.I G Z x c x A I *.=.7.p.b.N.Z.Z.Z.B.m.n.g.f.p.1.+.s t r 5 < - & & : > > & & % ",
"B M n x 9 i i Z S Z Z Z Z Z x x Z K ;.w.u.i.d.J._.@X}.Q.F.f.p.9.:.I A Z Z Z S K :.;.8.p.n.V.W.^.(.^./.G.m.d.p.9.+.t > < 5 9 7 2 : & % % % % % % ",
"M M b 9 2 2 7 9 Z Z A D K Y T R 4.y.v.P.H.M.M.R.'.+X}.'.R.M.n.p.9.*.Y K K Y :.<.e.l.x.m.G.E.!.).).).!.V.n.a.0.:.d > % & 2 9 i 7 2 - $ o o $ # * ",
"B M x 2 & & 2 9 Z G I :.;.0.q.l.v.I.|.#X.X`.!.!.}.#X#X}.^.W.G.m.a.0.<.=.;.9.q.b.N.Z.W.W.W.R.R.R.E.E.M.n.a.0.<.K a : % & 1 9 Z Z 9 1 # $ $ # 3 1 ",
"B M x 1 % % , 9 A K :.<.0.p.d.M.W..XyXgXyX$X X.X#X#X#XXX X!.R.m.a.0.9.9.8.p.n.V.W.^.(.^.W.V.m.g.d.d.a.0.9.,.T A i < : : 2 9 Z S Z 7 < : < 5 9 i ",
"V M x 1 & & < i A K Y *.;.9.p.n.R.].$XfXgXfXrXyXyXyXyX#X XQ.B.p.9.-.:.=.1.p.n.V.E.).).!.E.M.d.u.8.7.;.=.:.I G Z i u r r a i Z A A A p y d l L Y ",
"B M n 7 2 < 5 i Z G G D G K :.0.x.R.`.oXfXfXgXgXpXpXyX%X}.L.r.,.K A A K Y 2.p.x.M.E.E.R.M.n.p.7.-.Y K J D S Z Z Z J j j g Z S G P Y *.=.1.7.0.0.",
"B M n x 9 i i Z S Z Z x x Z K -.w.d.M.W. XrXgXgXpXpXyX%X}.K.t.R S Z Z S K :.2.0.p.d.d.d.a.p.9.:.K A Z Z Z Z b Z G Y :.Y K A A K :.<.0.p.f.d.d.d.",
"M M n b v Z Z S Z Z b v Z D Y 6.w.u.a.n.L.`.#X%X#X#X#X#X}.I.b.4.R K K I Y :.,.=.;.7.7.7.;.=.Y K S Z x x x x x Z G R ,.R K S A Y 2.p.g.j.j.h.g.g.",
"M M n b v Z S S Z b Z A Y ;.8.u.i.u.s.s.l.B.H.Q.^.`..X#X+X{.I.C.l.r.0.9.2.<.:.Y Y Y L L K J A Z Z x x x x x x Z G Y :.T A Z K *.w.d.j.j.h.d.a.p.",
"B M n x 9 i i Z b x Z K =.w.f.g.d.p.0.9.9.0.p.g.V.W.`.XX#X#XXX[.!.G.m.f.p.9.:.K A Z Z Z Z Z Z Z Z Z Z Z Z Z b Z G Y :.Y K A K =.w.f.g.d.p.0.9.<.",
"^ B M x 2 < 2 7 9 9 Z K *.7.p.p.p.p.0.9.=.-.;.0.n.W.`.#XyXgXgXfXoX!.G.g.p.9.:.K Z x c c x Z S G G A S S S Z Z A K *.=.=.:.:.:.-.;.7.7.7.=.:.Y I ",
") ( N x : & & : 2 7 i A K Y *.;.9.0.0.9.,.Y Y <.l.W. X%XgXkXkXhX$X'.G.d.p.2.:.K Z x c x Z K I Y T P A A S S A K *.;.7.w.w.0.9.-.Y K K K J D A S ",
"*Xo.( b : + + % : 2 9 9 v Z A K :.<.2.<.Y G A T e.Z.[.$XgXkXlXkXyX`.J.d.p.9.:.I A Z x Z G Y :.:.K A Z Z Z S K :.<.0.p.d.g.d.w.=.K A Z Z Z Z Z Z ",
"5X*Xo.M 1 O o + & > 2 7 8 x Z G P Y *.L p u 7 p :.l.T.}.yXjXlXkXpX+X_.B.b.0.;.*.K D D G K T Y K p 7 4 4 8 A Y 2.l.x.n.j.j.g.u.7.:.K G A A Z Z Z ",
"4X:X} Q b , - & % & : 1 7 x Z S G G g t < : - < d >.b.I.+XpXjXkXjXiX+X_.F.f.8.;.:.Y Y Y Y T K i 2 : # = 4 A <.z.B.A.A.A.M.g.f.u.0.9.<.:.Y I K K ",
"3X1X=X] W 8 1 : % + % : 2 9 Z S Z 9 2 : % o % ; t L e.K.{.tXpXjXjXjXpX#XQ.F.f.0.9.2.<.<.,.T A i 2 : - : 9 I e.Z./.(.^.W.G.m.g.g.d.p.0.9.<.<.<.<.",
"3X4X:X ._ H 7 , % + + & : 2 5 7 5 , & $ o + * 0 s #.0.C.OX#XyXgXkXkXjXiX@XQ.J.b.b.l.0.0.1.:.z j s t y d L 5.v.~..XoXoX.X_.P.F.j.g.i.8.1.2.0.q.l.",
"4X1X:X=X' W 9 < % + + % % & : : & % o o % > t k #.1.a.B.~..XrXpXjXkXkXgXyX#X|.P.P.B.x.p.w.7.%.1.1.3.3.s.z.N.~.}.%XyXfXyXuX}._.G.g.s.%.=.2.l.x.N.",
"1X1X:X=X| ! Z 2 : % % % % % % % % o o % > y L ;.0.p.n.V.W.^..X#XyXgXjXjXpXpXtX#X}.Q.J.m.d.f.d.m.G.W.^.^.^.[..X#XyXpXjXjXjXpX#X_.F.p.7.9.l.N.Z./.",
"4X4X1X>X| ` E x 2 : & & & & - - & & & > y &.2.p.f.d.m.M.R.R.P.~.{.dXpXsXjXjXjXpXyX@X'.Q.H.J.Q.`.$XfXfXfXfXfXyXyXpXpXjXlXlXkXpX%X}.P.C.C.T.~. XXX",
"8X6X4X>X| ` Q F 8 1 : : < 2 5 5 5 5 u p &.3.z.N.m.n.h.j.m.n.x.b.K.Y.dXpXjXkXlXjXjXiX%X#X}.}.#XyXhXzXzXzXhXhXpXpXaXaXpXjXlXlXlXjXpXtX+X+X+XuXyXyX",
"9X7X3X>X .' O.W b 1 : : 2 9 v Z Z Z K :.e.N.L.W.V.m.g.g.d.u.7.9.r.K.{.tXpXjXjXkXkXjXpXpXtXtXtXpXgXjXjXpXpXtXtXtXtXtXtXiXpXjXjXkXkXjXpXpXyXtXtXtX",
"9X7X6X,X..' ! F 8 , - : 2 9 Z S G T ,.t.C.OX.X XQ.M.g.d.p.1.#.*.9.v._.XXyXfXgXjXkXkXjXsXaXtX#X}.|.Y.U.U.U.Y.{.+X#X#X#X#X#X#XyXyXyXyXtX#X+X|.{.{.",
"7X7X6X,XD.[ ~ x 1 & % & 1 9 Z G T <.e.c.~.rXyX%X`.H.x.a.0.=.*.*.2.b.~. X.XoXrXyXgXsXsXpXiX#X'.B.p.<.&.Y 4.y.C.~..X.X X[.~.Q.Q.Q._.Q.P.K.C.C.v.v.",
"9X7X3X,X .! Z 2 & + % & 2 9 Z K :.2.z.L. XyXgXyX}.J.x.q.9.<.*.<.e.c.L./.^.^.[..X#XtXtXtX#X'.F.8.k 0 : : 9 I e.Z./.(.^.W.V.m.g.g.d.p.0.9.<.<.<.<.",
"qX7X4X=X` Z 2 & % % & < u p D I :.e.N./..X$X$X@XQ.B.p.9.2.2.e.r.z.N.N.V.A.A.R.Q._.}.#X#X}.P.a.$.t ; $ $ 1 g >.z.B.W.R.A.M.k.i.u.8.%.#.l j j j j ",
"wX9X1X{ H < & % % & 1 u g K I Y :.e.N./.].].'.H.B.l.9.<.<.e.z.N.Z.c.z.z.x.n.g.m.M.Q.`.`.~.B.r.=.j u 1 1 7 Z L 2.l.x.n.h.g.k.i.s.1.*.K g i i i i ",
"wX7X>X_ 7 + + % - 1 9 A I :.*.*.<.e.N.L.W.R.m.f.q.9.<.*.<.r.N.L.Z.z.e.0.q.p.u.i.d.M.R.W.W.c.e.<.I S Z Z Z A K :.2.0.p.d.d.d.a.p.9.:.I A Z Z Z Z ",
"7X1X..~ 5 % % : 2 i A P :.<.<.2.9.q.b.N.N.x.s.1.=.*.I I :.e.N.V.N.r.<.<.9.0.u.u.i.g.M.V.B.x.q.<.T G S S S S D K :.;.0.q.q.q.q.0.9.<.,.Y P K G G ",
"5X*Xo.W 9 , , 5 i D I R :.<.2.0.p.p.l.l.q.0.1.*.L K A K :.9.x.n.b.9.:.T ,.5.0.u.i.d.g.g.g.d.p.7.Y G S S Z Z Z A K -.5.5.,.,.,.9.0.w.w.0.<.,.:.Y ",
"} o.] W Z 9 9 Z G I :.:.>.<.9.p.p.p.0.9.2.2.<.:.K A A K :.9.p.p.0.-.K G K :.<.0.p.f.d.d.g.g.d.w.-.K A Z Z Z x Z G Y :.Y K A K =.w.f.g.d.p.0.9.<.",
") ) ( W H Z S G T :.>.<.>.<.9.0.p.p.9.2.<.2.<.:.K K K Y <.0.p.w.1.z g i a j L ;.0.p.p.f.g.M.M.x.q.-.K A Z b b Z A J j p 5 5 p #.w.g.j.h.d.a.q.0.",
") ) ( N Z Z K T :.,.<.<.<.<.2.9.0.0.2.2.<.2.<.:.:.Y :.<.0.p.p.0.=.j r < : < t l =.8.u.f.m.R.E.R.N.p.=.K Z Z b Z Z a e : # * f +.8.d.h.g.f.p.0.9.",
"} o._ N Z g K :.<.<.<.<.<.<.<.<.<.<.<.<.<.<.<.<.<.<.9.0.p.a.p.9.&.s > % o % > y L ;.8.p.n.H.W.!.R.m.p.=.K A S Z i 2 : $ o % 0 k 1.i.g.d.p.0.9.<.",
"*X} o.~ Z g L >.<.2.<.<.<.<.:.:.Y Y :.:.Y Y Y :.<.9.p.p.a.p.0.:.J t ; +   o & e j *.;.0.z.B.H.W.E.R.m.q.<.Y D i 5 , - # # - f k 1.u.d.f.p.9.=.:.",
"1X:X} / S D L >.<.2.2.2.2.<.:.I K K K K A S A Y ;.0.p.p.p.9.,.I p e ; + o o & 2 a J Y <.0.a.n.V.E.W.R.B.p.;.k r < 1 1 1 1 5 p l =.0.f.f.w.;.Y K ",
"3X1X=X` F D L :.<.<.<.<.2.<.:.K A Z Z Z x x Z K ;.w.p.0.9.,.T A i 2 : % + % : 2 9 Z K :.;.8.p.n.H.W.!.E.m.3.k 0 > 2 9 i v Z S K :.9.p.p.0.:.K A ",
"9X3X>X' F Z D K Y Y *.:.<.<.:.K A Z x x x x Z Y ;.0.0.2.:.T P S 9 2 : * & & : 1 7 Z K :.=.7.u.d.M.R.!.E.M.3.w q ; r g G A G G G T <.0.0.2.Y D Z ",
"qX6X:X{ W Z Z A G A G I :.<.:.I S Z x x x Z K :.2.9.2.*.K G A S 9 5 : & % % - 1 7 Z K :.<.0.p.d.h.M.E.E.h.%.w q q y j I K A S S G T <.2.*.I D Z ",
"qX6X<X} ~ n b Z Z x Z G Y :.:.K A Z Z Z S K :.<.<.<.:.K A S S Z 9 2 : % + % : 2 9 Z K :.<.0.p.f.f.d.g.j.d.%.w 0 0 s L Y K A Z Z Z G Y :.Y K A Z ",
"0X7X1X.._ F n b b x b S K I K K A Z A K I :.<.<.<.:.T G S Z v i 5 < & + + % : 2 i Z G I <.0.p.p.w.8.u.f.p.1.k t y k &.*.I D i 7 7 i D K K G S S ",
"9X7X4X=X' Q m m b b n S A A A Z Z A K Y >.<.2.<.:.P G G S Z 7 2 : & % + + % : 5 i Z Z G :.0.p.8.;.*.;.w.u.7.z j j L *.:.I D i 2 2 2 i Z S S Z Z ",
"9X7X3X>X .[ Q W m n Z Z Z Z Z Z Z S K :.<.<.<.:.K A S S Z 9 2 : & % % + + % : 2 9 9 x Z Y 7.w.7.Y K Y 7.w.7.:.K K Y :.:.T A i < : : 2 9 i Z Z Z ",
"9X7X3X,XD.| ' _ W Z i 9 i x b b Z A K Y :.,.:.I A i 9 9 7 2 : & & & : & & & & < 2 7 8 x K <.0.;.I G K =.9.5.Y P K Y :.:.T G i 2 : & : 2 7 i Z S ",
"9X7X6X,X;XD...{ ! Z 5 2 7 9 Z Z Z Z A D K P K A i 2 , , , : & & : < 2 2 < : & & : 1 4 i K ,.<.:.K S K :.;.-.Y K K Y :.:.T G i 2 : & % : 2 9 Z S ",
"9X7X6X,X;X;X-X .` Z 2 < 2 9 i Z Z Z Z Z S S Z i 2 : & % % + + % : 5 9 7 2 : % + % & 1 9 D Y :.Y K A K Y :.Y K A K L :.:.T A i 2 : % + % : 2 i i ",
"8X6X4X,X;X;X-X..` F 7 , , 2 7 i Z Z Z Z b x 7 2 : & % + +     + - 5 9 9 2 - + + + + : 2 a D K K A A G K T K S A G K T K D i 5 < & +   X + & > < ",
"4X4X1X<X;X;XD. .' ~ b 4 , : < 7 Z S S Z b 7 1 : & % % + + X     & 4 8 8 1 - + + + + % : 2 u i Z Z Z Z A G A Z Z S G G A i 5 < - & +     + + + % ",
"1X1X<X>X-XD.X. .{ _ W b 1 : : 2 9 Z S Z i 2 : % % % % % % + + % , 8 x 8 4 : & % % + + % : 2 9 i Z Z Z Z Z Z Z Z S S Z i 2 : & % % % % % % % % % ",
"1X1X:X=X.. . . . .{ _ m 8 , : : < 2 5 5 < ; % + + + % & - : , 2 9 n m n 8 1 , : : & o + & , 9 Z S S Z 9 9 9 i Z Z Z 9 2 & + o o & - 1 2 5 5 2 2 ",
"1X1X:X..| |  .S.S. .' Q m 8 1 - & & * * & + + X X + + - 1 8 b E ~ / / ~ m x 8 8 6 , & + & < 9 Z S S i 5 2 5 9 Z Z 9 2 & +     # : 8 b F W ~ W W ",
"4X1X:X..| | ..-X;XD. .' _ W b 4 : & % % % % % + + % - 1 x m Q ' | | | ' Q W C m m 8 1 : : 2 9 Z S Z 7 < : < 5 9 7 2 : % + % & 1 x m Q ' | | | | ",
"4X1X:XS. . .D.;X>X;XD...| ' O.E b 7 2 , , , , , , 1 4 b W _ { ..-X-XD. .' ` _ _ Q W b 7 5 2 5 7 7 5 2 - & - < 2 < - & & < 5 x F Q ] | ..S.-XD...",
"1X1X:X=XS.D.D.>X;X;X;X;XD.S. .' ` ~ H b x 8 8 8 8 8 b W _ ' ..D.>X;X;XS. .| { ' ' _ W m 8 5 , , : : - % % & - - % + % : 9 F ! ' | ..-X;X-XD.....",
"1X1X:X>X-XD.;X;X;X;X;X;X;X;X;XD. .' Q W m m m m b m N Q ' | ..-X>X;X;X-X.. .| | | ' _ W b 4 : & % % % % % % % % + + % 2 H / | ..-X;X;X;X-X.. .| ",
"1X1X<X>X;X;X;X;X;X;X;X;X,X,XeX,X>X .' Q N N N C m N ~ ` {  .D.-X;X;X;X;XD.X.X.X. .| ' ~ n 4 - + o o + + % % % +     % 2 E ' ..;X,X,X,X;XD...| | "
};
