/* XPM */
static const char *wall_30[] = {
/* columns rows colors chars-per-pixel */
"72 72 241 2 ",
"   c #380517",
".  c #3C1222",
"X  c #4D0A16",
"o  c #4D0E19",
"O  c #470916",
"+  c #500D18",
"@  c #4E111C",
"#  c #42111F",
"$  c #51131D",
"%  c #4A010D",
"&  c #4C1521",
"*  c #4E1B25",
"=  c #471926",
"-  c #511720",
";  c #531A22",
":  c #581D24",
">  c #4E232B",
",  c #552027",
"<  c #55242B",
"1  c #59252B",
"2  c #55292E",
"3  c #5A292E",
"4  c #5B2227",
"5  c #4D2B35",
"6  c #552C33",
"7  c #5A2D32",
"8  c #543236",
"9  c #5C3236",
"0  c #55363A",
"q  c #5D3539",
"w  c #563A3D",
"e  c #5D3A3D",
"r  c #4F363F",
"t  c #632B2D",
"y  c #642726",
"u  c #6A332D",
"i  c #633334",
"p  c #613739",
"a  c #623B3C",
"s  c #6B3E3C",
"d  c #6A3734",
"f  c #763B36",
"g  c #632E31",
"h  c #6B433E",
"j  c #65413E",
"k  c #75443D",
"l  c #79453E",
"z  c #774B3D",
"x  c #7C503D",
"c  c #553B41",
"v  c #5C3E41",
"b  c #523741",
"n  c #4F3943",
"m  c #603E41",
"M  c #5E4244",
"N  c #5B4A4A",
"B  c #574645",
"V  c #5C5352",
"C  c #5F4F50",
"Z  c #634343",
"A  c #6A4643",
"S  c #664847",
"D  c #6D4945",
"F  c #654B4A",
"G  c #6D4D4A",
"H  c #62464A",
"J  c #744C44",
"K  c #7A4E45",
"L  c #724D49",
"P  c #764B45",
"I  c #6B514D",
"U  c #7C5146",
"Y  c #74524A",
"T  c #7C5349",
"R  c #785448",
"E  c #654E51",
"W  c #645355",
"Q  c #635B5B",
"!  c #675758",
"~  c #7B5853",
"^  c #666462",
"/  c #6C6465",
"(  c #6C6B6A",
")  c #6E6769",
"_  c #716D6D",
"`  c #706666",
"'  c #6E7270",
"]  c #737373",
"[  c #747B77",
"{  c #767B7A",
"}  c #787B7B",
"|  c #777778",
" . c #6C706C",
".. c #686061",
"X. c #8B553C",
"o. c #935B3C",
"O. c #804A3F",
"+. c #9A613E",
"@. c #844E43",
"#. c #845445",
"$. c #8A5644",
"%. c #8C5A45",
"&. c #835549",
"*. c #88574A",
"=. c #855A4B",
"-. c #8C5A4A",
";. c #865945",
":. c #925D44",
">. c #925D4B",
",. c #945747",
"<. c #835E51",
"1. c #8E5D51",
"2. c #914F42",
"3. c #946145",
"4. c #9B6444",
"5. c #95624B",
"6. c #9B644B",
"7. c #9D694B",
"8. c #9F6946",
"9. c #896557",
"0. c #9C6552",
"q. c #9C6855",
"w. c #976654",
"e. c #9D7258",
"r. c #8E6149",
"t. c #A26A45",
"y. c #A46C4B",
"u. c #AA6E4A",
"i. c #A66947",
"p. c #AC7246",
"a. c #AD734A",
"s. c #A7704A",
"d. c #B2754C",
"f. c #B5794B",
"g. c #BA7C4C",
"h. c #B47547",
"j. c #A36651",
"k. c #A46B53",
"l. c #A96E58",
"z. c #AC7253",
"x. c #A4735C",
"c. c #AB735B",
"v. c #AC7B5A",
"b. c #B37453",
"n. c #B57A54",
"m. c #BB7C53",
"M. c #B4765C",
"N. c #B47B5C",
"B. c #BC7B5C",
"V. c #B87759",
"C. c #B16F54",
"Z. c #967262",
"A. c #AB7A62",
"S. c #A57862",
"D. c #B57C62",
"F. c #BB7D63",
"G. c #BD7F6B",
"H. c #C17E5B",
"J. c #C17F53",
"K. c #76837D",
"L. c #78827E",
"P. c #BE8155",
"I. c #BB855C",
"U. c #B88559",
"Y. c #B98153",
"T. c #AA846A",
"R. c #BB8765",
"E. c #BD9272",
"W. c #BE977A",
"Q. c #B78C73",
"!. c #C38455",
"~. c #C4835C",
"^. c #C9855E",
"/. c #C38B5D",
"(. c #CA8A5B",
"). c #C78551",
"_. c #C58462",
"`. c #CB8C65",
"'. c #C68C6B",
"]. c #CE8C6B",
"[. c #C78864",
"{. c #D28D6C",
"}. c #D28E66",
"|. c #C5956D",
" X c #CC946D",
".X c #C99468",
"XX c #D3936B",
"oX c #D8966A",
"OX c #C49572",
"+X c #CD9371",
"@X c #CB9C74",
"#X c #C89B77",
"$X c #D29472",
"%X c #D99471",
"&X c #D49A76",
"*X c #DB9D76",
"=X c #D49C79",
"-X c #DA9D7B",
";X c #C18E75",
":X c #E29F78",
">X c #CEA37D",
",X c #CDA175",
"<X c #D3A37C",
"1X c #DBA37D",
"2X c #D4A87D",
"3X c #D6A57A",
"4X c #E1A47D",
"5X c #E2AA7F",
"6X c #7A8581",
"7X c #7B8C84",
"8X c #7E928A",
"9X c #7C9087",
"0X c #839D93",
"qX c #80958C",
"wX c #D6A681",
"eX c #D5AD84",
"rX c #DBAB83",
"tX c #D8AA85",
"yX c #D6B086",
"uX c #D9B086",
"iX c #D6B289",
"pX c #DBB48A",
"aX c #DDB88D",
"sX c #DFBC91",
"dX c #CAA484",
"fX c #E3AB84",
"gX c #E6AB84",
"hX c #E4B48C",
"jX c #E9B58B",
"kX c #E2B98E",
"lX c #E7B58A",
"zX c #E5BC93",
"xX c #E9BE95",
"cX c #E8BF98",
"vX c #F2BB91",
"bX c #E6C195",
"nX c #EAC195",
"mX c #EBC49A",
"MX c #ECC79C",
"NX c #F3CA9C",
"BX c #F4CCA2",
/* pixels */
"7X7X7X7X] E 1 X % X - 7 a Z Z M Z J -.5.6.>.-.-.-.-.#.z #.q.E.eXpXuXeXpXzXnXjX*X[.C.6.-.&.&.-.5.6.5.*.J Z Z F F a 3 - @ o @ o $ - < 0 V  .6XqX0X",
"7X7X7X6X] ! 9 - X X - 3 q Z Z M Z D #.-.>.-.-.-.-.-.#.#.-.x.OXeXpXuXeXuXzXzXhX1X].M.0.-.&.&.-.>.>.-.#.D Z Z Z Z q 1 - $ - - - $ - < 8 N ^ [ 7XqX",
"7X7X7XL.] Q H 7 : $ $ , q Z Z Z Z Z J K #.*.-.-.-.-.-.>.0.D.#XeXuXyXeXuXaXzXhXfX&XR.k.-.$.$.-.-.&.U J S Z e e 9 3 : - ; , 1 , : - - < e Q ( [ K.",
"7X7X6X{ ' ) ..W e : $ : 9 Z F S Z v Z Z J &.-.-.-.-.5.k.N.'.=XeXyXeXeXeXeXpXhXhXrXOXx.>.$.%.-.&.J A Z M v q 7 , - $ - 1 9 e 9 1 - $ - 6 M Q ^  .",
"9X7XL.[ ] { } ] ! 7 - - 7 Z F S Z v v Z J &.-.-.*.-.0.B.].*X1XeXeXyXeXwXwXeXkXmXzX>XS.-.#.$.-.&.J Z M Z Z q 1 - @ o - 3 a Z a 3 - o o - 6 e N V ",
"9X7X7X{ { 6X8X7X_ Z 1 , 9 Z S S A D L T &.%.:.$.#.*.q.F.%X4XfXpXuXuXeX2X>XeXzXNXMXdXS.U k K -.=.U J J J J h i , - @ $ , 9 a 9 , @ X X $ ; 2 8 0 ",
"9X7X7XL.6X7X8X7X_ G q 7 q M Z A K -.q.l.z.i.4.X.#.*.0.B.XX4XlXkXaXpXeX2X>XeXzXNXMXdXZ.D a J *.5.5.3.5.-.&.K A e 2 - $ - : 1 , * @ o o $ - ; < < ",
"7X7X7X7X7X7XL.] / I Z e e Z A P -.k._.].`.!.a.4.%.-.0.M.].1XhXzXzXaXeX2X>XeXzXNXzXW.9.Z e J -.y.a.a.u.6.-.T G Z 9 , - $ $ - - - - - - - - - - - ",
"K.L.7X7X7X[ / W H Z Z Z S D K -.k.R.%X4X4X*X`.v.7.6.j.V.].4XjXxXzXaXeX2X>XeXkXxXhXQ.9.Z a J 5.a.g.g.d.6.&.J m e 9 2 , ; * ; 4 t t t : - @ @ $ $ ",
"] [ L.6XL.` H 7 6 q M F D K -.k.F.+X1XlXjXkXrX|.n.u.u.B.{.fXhXxXzXpXeXwXwXeXhXgX-XR.1.J k ;.y.g.).g.a.r.J a 7 1 1 7 q 8 6 7 p k l f t $ o o @ $ ",
"_ ] { } ] ! 7 - - 7 Z G T -.j.B.].-XhXzXMXBXzX<XI.a.u.m.].1XhXzXzXpXeXeXeXeX2X*X].M.0.-.%.4.a.g.g.a.5.T Z 7 * - 4 q Z Z M Z J =.-.O.t - @ @ - ; ",
"] | | ] ) H 6 - : i J T -.6.b._.%XfXxXMXBXBXxX=XI.u.t.d._.&XhXzXzXkXuXuXuXeX=X`.B.b.l.l.z.d.f.p.t.3.T G v 6 * ; 3 s L Y G Y =.w.5.$.d 1 * < 1 3 ",
"| | ] ( Q B 0 7 i k &.5.7.u.n.^.%XgXxXBXNXvXfX'.c.5.:.t.n. XrXzXmXzXkXaXaXeX@XU.d.b.B._._.!.d.8.;.J S Z Z e 7 7 p J &.=.=.&.-.5.5.&.k q 8 9 q a ",
"{ ] ) Q N c v Z D T -.6.y.a.n.H.].1XhXzXhX4X].M.0.-.$.+.a.[.2XzXMXmXzXzXzXeX|.n.a.b._.].].~.a.3.P Z v v Z Z M Z D &.-.>.-.-.-.>.-.&.D Z v Z Z Z ",
"] / Q N 0 0 e F G T &.:.7.s.d.b.F.'.#X=X@X'.M.j.>.-.%.o.p./.2XzXMXMXxXzXzXeXOXU.d.n.~.[._.m.u.:.U A Z Z Z S D L T &.-.>.>.>.-.&.U J D S Z Z Z Z ",
"^ Q N 8 < 1 q S F D J #.:.6.y.k.k.x.A.A.c.k.6.>.>.>.:.4.a.I.<XzXmXmXxXzXaXeX@X'.H.m.m.m.b.y.6.5.-.&.J S Z S L T =.-.-.>.>.>.-.K J A A S S Z Z M ",
"V N w < - : 9 Z Z Z Z D U -.>.-.-.-.-.-.-.-.-.-.-.-.:.8.a.I.@XeXzXzXzXzXpXeX<X&X].^.n.a.8.5.-.-.>.-.U A Z A U -.>.-.-.-.>.-.U D Z v M Z Z Z Z Z ",
"N B 8 ; $ : 9 S F M M S J K U K P J k k K #.-.&.T K #.3.u.f.I.|.2XhXxXzXpXeXwX<X&XXX~.d.4.&.L L K K J A A J $.3.6.6.5.>.-.#.J Z v c c v Z A J J ",
"N B 8 ; $ : q S F F Z Z A A A A A j a h J #.-.T D Z J %.t.p.p.n.|.eXxXzXaXeXwXwX<X*XXXH.k.T S v e a h h J ;.3.t.u.u.y.6.>.#.J A M c c v A K &.-.",
"V N w < - : 9 Z S S Z Z Z Z Z Z Z M v Z J &.-.T A Z J 5.a.h.p.a.R.eXzXnXaXeXwXeXeXrX*X].c.=.Z w w Z J T -.6.u.a.d.d.a.u.6.-.U D Z v v Z J &.-.>.",
"^ W M 6 - ; 3 q a p q e m Z Z Z Z M M Z D T &.U P U 5.U.[.~.n.b.R.<XzXbXzXuXeXeXyXuXfX&XD.>.k h Y <.9.e.x.N.N.m.g.f.d.a.z.k.1.K A j h P #.#.$.%.",
"' / E q - $ ; 1 1 , 1 7 e Z F F Z Z Z Z Z A J P $.4.U.@X3X&X`._.'.<XaXzXzXkXpXuXyXpXpXwXR.y.%.r.e.Q.W.W.OX|.'._.m.f.d.n.I.F.l.-.J z X.:.:.%.#.#.",
"6X] Q e - X @ - - $ - 1 q Z S S Z Z Z Z v v Z z :.a./.,XeXwX&X].].=XeXaXzXzXkXuXeXyXpXeX|.n.a.n.|.eXaXpXeX<X&X].H.d.a.m.[.].F.q.-.:.t.a.u.6.-.&.",
"qXL./ m $ % X $ $ @ $ : 7 q a p q a Z S M v v k %.y.U.Q.E.E.'.`.`. X<XeXzXxXzXpXeXeXiXeX,X`./..X3XkXnXbXaXrX-X{.B.u.u.f.[.{.].D.x.v.I./.I.v.x.q.",
"0X7X_ m $ % X $ - $ $ - , 1 1 , 1 9 Z S F M Z A U =.=.9.9.e.v.P.^.`.+XwXhXxXzXpXeXwXeXeX2X,X&X3XrXhXzXzXaXeX-X].B.u.i.h.H.{.$X+XOXOX@X,X@XOXE.E.",
"0X7X_ Z - X X - ; - - - - - $ $ - 1 q Z S S Z Z Z Z v v Z K 3.a.m.^.].-XhXzXzXaXeXwXeXeXeXeXeXeXeXeXeXyXeX<X&X].H.d.a.d.H.].&X<XeXyXyXeXeXeXeXeX",
"8XL.) H < @ @ $ ; - - - - $ o o o - 1 9 a Z Z a q 6 5 5 0 h #.8.d.H.].-XhXzXzXzXpXuXpXpXpXpXpXiXeXwX2X<X=X&X&X+X'.R.I.R.'.&XwXpXaXaXpXuXuXpXaXkX",
"6X[ ) W 0 > @ $ $ $ - - - $ @ o o @ $ , 7 a Z e 6 < > 8 M D U >.y.B.].-XlXzXbXzXzXzXzXzXkXaXpXiXyXeX<X+X].+X&X<X>X,X@X@X<XeXeXuXpXpXuXeXuXpXpXaX",
"{ ] ) Q N 8 < - $ $ - - - - - - - $ $ - 3 a Z q 1 - ; 9 Z G T -.j.B.].1XlXzXbXxXzXxXxXzXkXuXeXeXyXeX<X+X].$X<XeXiXyXeXeXeXeXeXeXeXeXeXeXeXeXeXeX",
"{ | ] ( Q N 0 1 ; - - - - - , 3 3 1 : : 7 Z S a 4 $ @ < q h U >.k.B.].-XlXxXmXzXzXzXzXzXpXwX<X<XeXeXeX=X&X=XtXpXaXaXrX2X3X,X,X3X1XwXeXuXtXwX<X3X",
"L.L.{ ] ( Q N w 6 , - $ $ - 1 9 a e 9 9 e S S a 1 $ O o ; d O.8.b.H.].-XhXxXbXzXpXuXpXpXwX=X&X=XeXeXeXeXwXtXuXpXpXrX1XXX`./.`.XX*XrXpXuXtX<X&X$X",
"7X7X7X} ] / Q N 0 < - $ $ - 1 q Z S S Z Z S Z q 1 - o O - u X.a.P.^.].-XhXzXzXpXeXeXyXeX3X$X].+X<XeXyXeXeXeXyXeXwX=X].H.d.a.d.H.].=XwXeX2X$X].[.",
"8X9X7X6X{ ( ^ V c 2 - $ $ - , 7 a S F F S Z q 7 7 1 ; ; 4 f 4.m.(. X$X<XpXkXaXuXeXeXyXeX@X[.~.[.&X2XrX2X,X,X,X@X X[.V.k.:.%.:.6.c.R.OX@X X[.~.H.",
"9X9X7X6X{ ' ^ V w 2 - $ $ - : , 3 e S F Z q 1 1 6 q q i f ,.C.[.XX&X<XeXuXuXuXeXeXyXpXeX@XI.b.B.].*X&X.X/.I.I.I.U.z.0.-.K k A J =.w.v.I.I.m.n.b.",
"7X7X7X} ] / Q N 0 < - $ $ - $ $ - 3 a Z q 1 - ; 9 Z G U -.j.B.].&X1XeXeXeXeXeXeXeXuXaXeXOXY.a.b._.].`.m.a.p.p.a.u.6.-.T D Z v c Z U 5.a.f.d.a.s.",
"6XL.{ ] / W N w 6 , - - $ $ @ X o : 7 9 1 @ o ; p Y <.r.q.b._.{.=XwXyXyXeXeXeXeXeXuXuXwX XP.p.a.b.M.c.y.:.o.+.4.3.:.#.T J A v w w h ;.t.p.p.p.s.",
"{ [ ] / W M 8 1 ; - - - $ $ @ o $ - : , - o o 4 s =.w.e.z.n._.].=XwXyXyXeXeXeXeXeXeXwX&X`.P.d.u.y.0.>.%.$.%.:.:.:.%.&.&.&.U A v w j K :.i.u.p.p.",
"{ ] ( Q N 0 < - $ $ - - - - - - - - ; - @ @ - t k -.6.u.a.n.^.].&X<XeXyXeXeXeXeXeX<X&X].^.n.a.8.5.-.-.-.-.-.-.-.-.-.-.>.>.-.U A Z Z J -.6.u.a.d.",
"| ] ( Q N 8 , $ + + $ : , 1 1 1 1 < < ; ; 4 3 d l $.:.4.p.f.^.{.=XwXeXeXeXeXeXiXeX<XXX^.m.y.5.%.%.%.5.0.q.w.1.=.&.-.-.>.>.>.&.U J D L T 5.u.d.g.",
"| | ( ^ N 0 < $ + o $ , 7 p a e q 8 7 9 p s k l K @.X.o.t.f.^.{.=XwXeXeXeXeXeXiXyX3X}.m.i.%.U U %.6.z.B.D.x.w.=.&.&.-.>.-.-.-.-.&.J A D ;.7.d.g.",
"{ ] ) Q N 0 < - $ $ - 1 q Z S S Z v v Z J &.-.-.-.-.:.8.a.n.^.].&X<XeXeXeXeXuXuXeX,X/.a.%.A Z D %.a.~.}.].F.k.-.#.#.-.-.-.-.>.>.-.K Z Z U 3.a.g.",
"] ( ^ C w < ; - $ - < 7 e M F G G D D D T 5.k.c.A.A.T.R.R./.~._. X<XyXpXpXuXpXuX<X|.n.3.z e v D 3.f.(.oX%X[.z.3.$.#.-.>.>.5.6.6.-.K m v J %.y.d.",
"^ Q N e < @ @ $ ; 2 9 w c v S L T T J U -.k.B.'.#XdXeXiXeX X~.m.I.@XiXsXzXkXlXfX&XF.5.P e w v J 3.d.(.oX%X`.n.t.:.%.-.5.6.y.y.6.-.J m v D &.5.y.",
"V N e 6 - o o - 1 q Z Z Z Z D &.-.-.-.-.0.M.].1XlXxXMXBXzX<XU.a.b.|.eXzXbXzXlX4X].c.&.Z w w Z U 3.a.~.`.].`.P.a.4.%.-.5.y.a.a.6.-.J Z Z D T -.>.",
"w 0 8 1 : ; : 1 9 A Y T U &.$.>.6.6.6.k.N.'.1XgXjXvXNXBXnX<XN.t.u.R.<XhXbXxXlX:X^.k.T M n c Z U :.u.n.B._._.~.m.u.5.-.5.u.d.d.u.5.&.J J J T *.-.",
"< < 1 7 9 9 9 q s J =.5.7.y.t.u.u.u.b.F.+XwXhXjXgXgXgXvXgXOXc.5.6.M.$XfXxXxXlXoXm.4.U Z c c Z J %.6.y.a.n.~.[._.M.0.-.:.y.d.f.a.y.5.=.U T &.-.-.",
"@ - 1 q Z Z Z Z A K -.6.u.a.a.a.a.b.H.].1XhXzXhX=X].{.{.].D.0.-.>.b.].fXxXzXrX`.a.X.z Z v v Z D T -.5.t.a.P.`.].F.q.-.%.8.a.f.f.a.y.5.-.*.-.-.-.",
"X $ 4 a F I F S A J #.%.5.4.8.i.a.n._.$XgXjXjXwXE.c.j.j.j.,.#.&.5.c. XgXxXxXeXR.6.x d q q e Z A L U %.4.p.!.XX$XG.q.-.$.3.s.f.g.f.s.6.>.-.-.-.-.",
"X $ 1 e F I F S Z A A A D J #.4.a.m.[.$X:XgX4XOXS.=.J f f f k &.w.R.=XjXNXxXdXS.T i 4 , 3 q Z S H D U 3.p.!.XX$XG.q.*.$.3.s.f.g.f.s.6.>.-.-.-.-.",
"@ - 1 9 Z S S Z Z Z Z v v Z P 3.a.m._.].%X%X].A.<.Z 5 = - 4 f -.x.E.eXnXNXzX#XZ.Z > & - 1 p Z Z M Z P :.a.~.}.].F.q.-.%.8.a.f.f.a.y.5.-.*.-.-.-.",
"- - : 1 9 e a Z Z A D A D J ;.7.f.!.(.[.`.F.l.-.A 6 .   O : f j.R.>XpXMXNXkXQ.~ 5 . # ; 7 a Z M v Z J %.y.m.^._.N.k.5.3.u.d.d.a.y.5.&.U U &.-.>.",
"- - - - : 2 q Z D T &.%.:.6.u.a.g.!.(.~.N.q.&.s 7 *     O y 2.B.&XrXzXMXNXuXA.s =   = 9 a Z Z Z v Z D #.6.a.n.n.b.u.y.u.a.d.a.u.5.&.J D J #.-.>.",
"- - $ $ - 1 q Z G T -.6.u.a.a.a.a.d.f.a.5.T Z 8 1 - o O - f j.].fXhXzXmXmXeXA.f - & 6 Z F S Z v v Z D U -.6.u.a.a.a.a.a.a.a.u.6.-.K S Z D T -.>.",
"- - - : 1 7 e Z D J &.-.6.7.4.o.X.X.X.X.x A v 8 6 : - : g @.M.&XlXxXnXMXbXeXR.,.f d s G I S M e e Z S L T -.6.u.a.d.d.d.s.y.6.5.-.K S Z D T -.6.",
"- ; , 7 q a Z Z Z A D J R U z d y y y y d a M c w 7 7 i l 5.R.<XjXxXnXbXzXeXOXN.j.,.*.T L S v e e v Z S G T -.7.s.d.d.s.7.5.>.>.-.T D Z D &.>.6.",
"@ - 1 q Z S S Z Z Z Z S S Z q 1 - @ @ - 1 q Z Z Z Z h P -.x.OXeXzXnXzXzXpXeX<X&X].B.k.-.K A Z Z Z Z Z Z Z D K -.6.s.a.u.5.-.-.-.-.U A Z D U -.>.",
"X @ : 7 a Z Z S Z A A D D A a g 4 : ; * < 7 a A G Y T -.7.R.#XpXzXzXkXuXyXeXrX4X:X].b.6.;.P J J L J A a 9 7 i k $.6.s.y.6.-.&.&.#.J p q a J #.=.",
"X o $ : 3 q M S G T #.#.U U K l k s p 7 6 < 3 d K -.5.6.a.R.2XzXbXzXuXeXeXeXrX1X*X`.m.i.3.%.&.-.-.&.k i ; & & 4 f %.7.k.6.-.&.T D a 7 1 7 a D L ",
"- - $ $ - , 9 Z L &.-.-.-.-.-.>.-.&.Y Z 7 * - t k -.6.t.a.[.2XzXxXaXeXwXeXeXwX&X].^.n.a.8.:.-.-.5.-.l t - O O - t l -.5.5.-.T L Z 7 ; - , q Z F ",
"e q 1 - o @ < q A T =.-.-.-.-.-.-.<.~ S 7 & o : d U %.4.p./.2XxXcXaXeXwXyXeX<X|.~.m.g.f.y.%.T T &.&.k i , * * < 3 d k @.&.&.R I Z 6 & @ : 9 Z F ",
"/ ! Z 1 $ X @ 1 p A Y R R Y Y T Y Y G Z 7 & O & 7 A U o.u./.2XzXzXaXeXeXiXeX#XR.n.f.g.g.y.&.A Z A D h p 9 9 q q 9 3 t d h L Y I Z 9 - $ : q Z W ",
"6X] Q e - X X - 2 q Z S S Z Z Z Z S S Z 9 , - ; 7 Z K :.a.`.rXzXzXaXeXeXuXeX@XU.a.p.h.a.6.U Z v v Z Z Z Z S S Z 9 , - , 9 Z F F Z 9 : - , q Z F ",
"8X6X( H < o X $ ; 6 9 q 9 7 8 0 e M S A s d u u s J =.y.P.oXlXxXzXaXeXeXeXwX XP.p.t.4.5.-.U J A A Z S F F F S a 3 & o @ < 9 e a 9 3 1 < 2 7 9 p ",
"qX7X] Q 0 * @ $ - : , < ; ; < 8 v Z G K #.X.X.X.%.3.y.V.}.4XlXxXzXaXeXwX1X-XXX!.p.3.#.U U %.3.:.#.K L G F Z e 3 - @ o @ ; , , : : 1 8 0 8 2 4 : ",
"qX7X[ ^ N 8 < - $ $ - - $ - , 9 Z G T -.6.u.a.p.p.a.b.H.].-XlXzXbXaXeX<X&X].^.J.a.%.D Z J 3.a.d.y.-.T G Z 9 , - $ $ - - - - $ $ - 6 B N v 2 - + ",
"8X7XK.' Q M 6 - $ + $ $ - , 7 s J &.>.y.b.~.(.(.!.g.d.z.D.;XtXzXnXkXeX#XR.M.b.d.u.;.Z v J 4.g.).f.6.#.h 9 : @ @ ; 1 3 1 : $ @ - < v W Q N 8 ; @ ",
"9X9X7XL.) E 7 - X X o - 1 9 s J &.5.y.d.!.`.XX}.(.g.4.%.<.Z.W.aXnXbXeXE.x.>.:.6.5.&.Z v J 4.g.).P.u.$.d : o O $ 1 q a 9 , $ * 2 c W ( ) Q M 8 > ",
"7X7X7X6X] ! q - X X - 1 q Z G T -.3.t.a.m.[.].`.~.a.X.h Z ~ T.eXnXnXeXE.x.-.$.%.-.T A Z J :.a.P.P.a.X.u - O O - 3 a Z p 1 - ; 8 N ^ ' ] ) Q N B ",
"K.L.6X6X| ! q - @ - 3 q m S G T &.#.%.3.k.c.D.F.n.7.x e w Y S.<XlXkXeXOXA.0.>.>.*.K A Z J ;.7.f.g.a.:.f , & @ - 1 q e 9 4 - ; 2 v ! ( | ] ( Q V ",
"| { } 6X| ! 9 - $ 1 q Z Z S A D J J J U =.5.q.k.k.5.P e e Y x.+X5XhXeX>X'.D.l.6.-.J Z Z D U 5.u.f.a.4.P q > * - : 1 1 1 : - $ - 2 M / | { ] ( / ",
"_ ] { } ] W 7 - - 7 Z F S Z Z Z Z Z v Z D U -.5.6.-.J Z Z T l.].1XrXeXeX=X].B.k.-.J Z Z A J -.y.a.a.7.T Z 8 < - $ $ - - : - @ X - q ! ] } { ] _ ",
"_ ' | { ] W 7 - : q F G S Z a e v c b c m J #.$.-.&.J Z A &.l.].*X2XeXrX4X%X_.l.-.P Z Z A J &.6.u.s.7.=.F w < - $ o @ $ - - o X + 7 W ] } } | | "
};
