/* XPM */
static const char *wall_33[] = {
/* columns rows colors chars-per-pixel */
"72 72 232 2 ",
"   c #4E0E18",
".  c #4A0C19",
"X  c #500E19",
"o  c #4E131D",
"O  c #4F181F",
"+  c #51141D",
"@  c #5A191E",
"#  c #4E1A24",
"$  c #4B1723",
"%  c #521720",
"&  c #531B23",
"*  c #561E25",
"=  c #4C222A",
"-  c #542027",
";  c #5B2226",
":  c #55232A",
">  c #5A262B",
",  c #55292E",
"<  c #5A292E",
"1  c #552C31",
"2  c #5A2D32",
"3  c #512630",
"4  c #553236",
"5  c #5C3235",
"6  c #563439",
"7  c #5C3639",
"8  c #563A3D",
"9  c #5D393C",
"0  c #652C2A",
"q  c #652928",
"w  c #793B2E",
"e  c #622E31",
"r  c #633434",
"t  c #6B3533",
"y  c #6D3935",
"u  c #613739",
"i  c #623C3D",
"p  c #6A3D3B",
"a  c #633837",
"s  c #723C35",
"d  c #723C37",
"f  c #66302E",
"g  c #6C423E",
"h  c #64403F",
"j  c #73443D",
"k  c #7A453A",
"l  c #7A473B",
"z  c #7F503F",
"x  c #5C3E41",
"c  c #563B41",
"v  c #623F40",
"b  c #5D4244",
"n  c #5D464B",
"m  c #5D4B4C",
"M  c #5D4C53",
"N  c #5D5354",
"B  c #5E545A",
"V  c #5E5A5E",
"C  c #5B504F",
"Z  c #634343",
"A  c #6B4643",
"S  c #654847",
"D  c #6D4945",
"F  c #634B4C",
"G  c #6C4C49",
"H  c #62464A",
"J  c #734540",
"K  c #744C45",
"L  c #7A4D45",
"P  c #754E48",
"I  c #7A4F48",
"U  c #6B514D",
"Y  c #7C5146",
"T  c #76514A",
"R  c #7C5249",
"E  c #644D50",
"W  c #635354",
"Q  c #655C5C",
"!  c #6A5C5D",
"~  c #645758",
"^  c #5E5D62",
"/  c #685F60",
"(  c #5F6566",
")  c #5F7273",
"_  c #656362",
"`  c #6B6464",
"'  c #6D6C6B",
"]  c #686B6A",
"[  c #706B68",
"{  c #6E706F",
"}  c #687877",
"|  c #737473",
" . c #757977",
".. c #767D7A",
"X. c #787C7B",
"o. c #656F71",
"O. c #67605F",
"+. c #824C3C",
"@. c #804434",
"#. c #84513E",
"$. c #8D563D",
"%. c #955B3E",
"&. c #824E42",
"*. c #835545",
"=. c #8A5644",
"-. c #865946",
";. c #8C5B46",
":. c #835549",
">. c #89574A",
",. c #86594A",
"<. c #8C5A4A",
"1. c #935D44",
"2. c #915E4A",
"3. c #9B5D47",
"4. c #845D52",
"5. c #8F604B",
"6. c #8F6044",
"7. c #946145",
"8. c #9B6445",
"9. c #94614A",
"0. c #9B654A",
"q. c #9D694A",
"w. c #9D6946",
"e. c #9A6553",
"r. c #9E6A54",
"t. c #976856",
"y. c #956958",
"u. c #A36B46",
"i. c #A96E45",
"p. c #A36C4B",
"a. c #A96F4B",
"s. c #A16647",
"d. c #AC734B",
"f. c #A9714B",
"g. c #B2764C",
"h. c #B5794C",
"j. c #B97B4D",
"k. c #B27347",
"l. c #A46C53",
"z. c #A86D56",
"x. c #AC7252",
"c. c #AD745C",
"v. c #AB7A5E",
"b. c #A87455",
"n. c #B27552",
"m. c #B57A53",
"M. c #BB7C54",
"N. c #B2755C",
"B. c #B47B5B",
"V. c #BC7D5A",
"C. c #AD7D62",
"Z. c #B67C62",
"A. c #C17E5B",
"S. c #76817D",
"D. c #79837E",
"F. c #B68057",
"G. c #BD8156",
"H. c #BD825C",
"J. c #BA855B",
"K. c #B38465",
"L. c #BD8263",
"P. c #BD8963",
"I. c #B98B6C",
"U. c #B38C71",
"Y. c #BD9272",
"T. c #B48668",
"R. c #C2835C",
"E. c #C5865B",
"W. c #C58563",
"Q. c #C38C64",
"!. c #CA8B64",
"~. c #C38C6B",
"^. c #CC8C6A",
"/. c #C98766",
"(. c #D18E6D",
"). c #D18E65",
"_. c #C4926B",
"`. c #CC936D",
"'. c #C89469",
"]. c #D1926C",
"[. c #CE9471",
"{. c #C59A75",
"}. c #CC9B73",
"|. c #C79976",
" X c #D19673",
".X c #D29A75",
"XX c #D49E79",
"oX c #D99D78",
"OX c #C78E70",
"+X c #CEA27B",
"@X c #CCA077",
"#X c #D3A47C",
"$X c #DAA47D",
"%X c #D6A67B",
"&X c #E2AA7F",
"*X c #6A8584",
"=X c #748482",
"-X c #798681",
";X c #7B8B84",
":X c #748C8B",
">X c #778B87",
",X c #7C938C",
"<X c #77928D",
"1X c #769494",
"2X c #7A9A96",
"3X c #7B9E9A",
"4X c #779796",
"5X c #6F908F",
"6X c #7BA19C",
"7X c #7CA6A0",
"8X c #7AA3A0",
"9X c #7DAAA4",
"0X c #7FB1A9",
"qX c #80B1AB",
"wX c #81B4AE",
"eX c #80948C",
"rX c #DBA681",
"tX c #D6AC84",
"yX c #DBAC84",
"uX c #D4A780",
"iX c #DAB086",
"pX c #DCB48A",
"aX c #D9B48A",
"sX c #DFB991",
"dX c #CEA680",
"fX c #E5AC84",
"gX c #E2B38B",
"hX c #E8B78C",
"jX c #E4BB92",
"kX c #E8BC94",
"lX c #E8C198",
"zX c #F4C394",
/* pixels */
"' | |  .| ! 9 & o o % & & & % % % * 1 i Y 0.d.g.p.<.I S Z Z K <.l.N./.XXyXtX{.v.<.j i Z G Y <.0.9.<.:.K A Z Z Z S Z Z S S i < % % 2 W | ....| | ",
"` ' |  .| ! x : o o % & : : & & % # 3 9 L 0.d.g.a.9.Y A Z Z K <.q.x.Z. XyXtX{.v.<.j i Z G :.9.q.0.9.=.Y K D D A S Z Z Z Z i > + % 2 W | D... .| ",
"Q _ ' | | ` H 1 & + % & < 2 < & % $ # 5 l 7.d.h.d.0.:.D Z Z I <.0.l.N.~.uXtX|.C.<.j i Z K ,.0.a.p.0.9.;.:.Y I K G S Z i 9 2 & + % 5 ~ | -XD.....",
"m W Q ' | ` W 8 : % % : 2 7 5 > % o $ < d 1.f.j.h.p.=.J Z A Y <.2.2.l.T.+XyX+XC.<.j i Z P <.p.d.f.p.p.w.0.2.*.Y K S i 7 2 : + + % 5 W | S.-X-XD.",
"6 x m Q ' ` W x , % % : 5 9 7 > % o $ : y =.p.j.j.d.7.K Z A :.9.1.=.9.C.+XpX#XK.9.l g A Y 0.d.h.g.d.f.f.p.0.2.:.K Z 9 2 : % X   % 2 F ' ..;X;X;X",
"= 1 8 W Q Q m 8 : % % - 2 5 2 : % $ # < p *.0.g.j.g.7.K Z G <.0.8.%.7.C.+XpXtXP.0.#.K I ,.w.g.j.h.g.d.f.p.0.<.Y D i 2 : % +     % 1 b Q | -X;X,X",
"% - 4 b M m 8 , & % & & : : - & & - 1 7 A Y <.p.d.f.7.K A K 9.p.i.s.p.P.tXjXyXQ.p.%.*.:.<.w.f.g.d.i.u.0.9.<.T G i 2 : & & % + + % - 8 m ] ..;X,X",
"& : 1 7 x 8 1 : & : : & & % % & : 2 9 Z A P :.2.w.w.;.Y K :.0.d.g.g.F.}.pXkXyX_.d.8.1.9.9.0.w.w.8.1.1.=.:.T G Z 7 2 : : : : & & % & : x Q | -X,X",
"< < 2 1 1 1 , < 2 2 2 : % + % - 2 7 Z S A G K Y *.=.-.-.=.7.u.g.j.G._.%XjXkXyXQ.g.u.s.p.0.9.=.#.+.k k l K G S Z 7 2 < 2 2 2 < - % o # 1 F ' ..;X",
"i 7 2 , - : 2 7 i Z i 2 ; & & < 7 i Z Z Z S A A K K :.9.w.u.f.g.F._.#XpXlXjXyXQ.g.i.i.a.q.,.K p f 0 f p S G S Z i i i i i i 5 < & o   & x ! | ..",
"S Z 7 : % & 5 Z G G A p e > < 5 9 9 9 9 i Z A S Z A :.0.d.g.g.m.P.}.pXkXlXjX#XQ.m.k.k.d.q.,.A 5 * % - 5 Z G A A D D A G G A i 5 : +   % 5 F / ' ",
"U S 7 : + & 5 S U T T L j y t r 5 2 1 2 a g K K A K :.w.g.j.M.G._.uXjXlXlXpX#X~.V.M.g.d.q.,.K 5 # o # 1 v A K K I I T T T T D i 2 & + + < 9 H E ",
"U S u > % & 5 S T R :.<.=.&.j t < & & : r j Y R T Y =.w.d.j.A.W..XyXjXlXjXiX#X[.W.A.h.d.q.5.Y p : $ # 1 i G I Y *.:.:.:.:.:.K A i 2 & % & : 2 2 ",
"P A a 2 : , u A T :.<.9.0.9.*.s > % % : r j :.,.:.:.=.7.p.n.A.^.oXfXjXjXpXtX#X X^.R.n.p.0.5.:.j e : - 1 9 g j L &.*.:.:.:.:.T G Z 9 2 : & % % % ",
"Y K g u 2 5 p K :.:.<.0.l.p.1.+.t > : < u J Y R Y Y *.;.0.x.A.(.oXyXpXpXaXtX#X.X(.W.x.0.;.-.Y J a 2 , 1 2 r y s k L Y Y Y L K G S Z 9 2 - + +   ",
"<.:.K g i i K :.<.<.2.q.a.f.p.1.+.d a i i Z G G G G K *.<.l.B./..X%XyXpXaXtX#X.X/.B.l.2.:.K G A Z i 5 < > ; q 0 y j K K K K G S S Z Z 7 < % +   ",
"2.<.Y G Z A Y <.2.2.9.0.p.d.d.p.9.:.K A Z Z Z Z Z Z A K :.2.z.Z.~.}.#XyXpXtX+X~.Z.z.2.:.K A Z Z Z Z i r 0 q q 0 t j K P K A A Z Z Z Z 9 2 - % + ",
"0.2.:.G S A Y 2.0.0.0.p.a.d.d.f.p.0.<.T G Z b x x b Z A K Y <.e.v.~..XyXpXtX{.C.e.>.L K D Z x b b S D k k w w w k z :.Y Y K S Z Z i 9 5 < - % % ",
"9.<.:.K S G Y 2.0.p.p.f.f.f.d.g.d.a.0.,.I S Z x x Z Z S S A A I 5.N.[.fXhXtXY.y.I g Z A S Z Z b Z A Y ;.3.3.%.%.1.7.7.5.-.Y K A Z 9 5 < - & % % ",
"2.<.:.K A K :.9.p.f.d.f.p.p.f.n.m.n.a.9.:.D Z x x Z S S Z 8 4 9 L z.^.fXhXpXU.4.9 1 7 Z S Z Z Z Z K <.p.m.M.h.d.p.u.w.9.;.:.T G Z 9 2 : & % % % ",
"2.<.:.I K Y <.0.a.g.g.a.w.0.l.m.G.V.n.0.=.J Z x x Z S A Z 4 = : d s.^.fXzXpXU.Y : $ 1 Z S S Z A K =.q.B.E.E.E.j.f.w.7.=.:.Y K A Z 9 5 < - % % + ",
"<.<.:.:.:.<.0.p.g.h.d.u.7.2.l.B./.!.M.a.;.K Z x x Z S A Z 4 # - y 3.^.fXzXjXU.&.: $ 1 Z S S A K =.p.m.R.!.!.E.g.u.;.Y K K K G Z Z Z i 7 2 - % + ",
"<.<.<.>.<.9.p.d.h.h.d.0.;.<.r.Z.^.).E.d.7.Y A Z x Z A P A 7 : : t 3.W.fXzXjXY.<.0 ; u S G G K -.p.m.R.W.W.R.M.d.8.*.K G S A A Z Z S S Z 5 : % o ",
"<.<.<.<.<.0.p.d.h.h.d.0.=.<.e.Z.(.).E.d.8.-.K S Z Z G T K p 2 2 s 1.G.$XhXgX|.p.k t j I T Y -.q.N.R.E.E.H.M.h.f.w.;.Y I K K A Z Z S S S 7 : % o ",
"<.<.<.>.<.9.p.d.h.h.d.8.=.<.e.Z.^.).R.g.u.7.:.K Z Z G Y :.K i i j 1.m.`.yXpX}.B.8.$.=.<.<.7.w.x.R.!.W.V.n.d.d.f.p.8.7.;.:.Y K Z i Z Z Z 7 , & + ",
"<.<.:.:.:.<.0.p.g.h.d.w.;.<.e.N.W.!.R.m.d.p.9.Y A Z S I :.Y K A z %.d.Q.#XtX#X'.F.a.r.e.q.p.d.M.E.W.H.n.p.u.p.p.p.p.w.0.<.:.K i 9 9 9 9 5 , : - ",
"2.<.:.Y K Y <.0.f.g.d.p.2.<.9.b.V.E.R.V.M.n.p.=.J Z Z K Y T T T :.7.f.J.}.tXtX#X'.P.B.c.x.d.g.M.R.H.B.a.8.7.0.0.0.0.7.<.,.Y D u 2 , < 2 2 5 4 4 ",
"9.<.:.K A K :.2.p.d.f.p.9.<.2.p.n.G.W.W.E.M.a.;.K Z x Z G K Y ,.1.w.d.H.}.tXaXiX#X}.~.W.B.g.g.g.m.n.z.0.;.=.<.<.<.:.Y K K D a 2 : & & : 5 8 b n ",
"0.9.*.K Z Z I <.0.p.p.0.2.<.;.7.p.m.W.^.!.R.d.7.L Z c x Z G Y <.0.p.m.Q.#XpXsXpXtX#X`.W.V.g.d.f.f.p.0.<.:.:.:.:.I G Z x i 9 2 : % + + : 7 m W ~ ",
"a.0.=.K b Z K <.9.0.0.9.2.<.=.=.8.x.W.(.).E.d.7.L Z c c x D Y <.0.x.J.'.%XpXjXsXtX#X`.R.M.g.d.p.u.8.;.Y K K K K G Z x 8 4 1 : % + o & 1 b W _ ' ",
"g.p.9.K Z Z K :.2.2.2.2.<.<.*.*.;.l.Z.^.).E.d.7.Y Z x x Z D Y 2.l.B.Q.@XiXjXkXsXtX}.Q.M.g.d.f.p.8.;.*.J Z Z Z Z Z Z 9 7 1 & + + + & , 8 W _ ' | ",
"j.d.0.:.A S K :.<.<.<.<.<.:.I I :.e.N.W.E.M.p.;.Y A Z Z A K :.9.b.P.}.yXjXkXkXgX#X_.M.d.i.i.p.0.=.L j a 9 7 7 9 i i 9 2 : % + + % : 6 m Q ' |  .",
"j.d.p.;.I G K I :.>.<.<.:.I A A K <.b.V.V.x.0.=.Y K K K I *.;.0.b.P.#XpXjXkXjXyX.XQ.m.i.u.u.0.;.l y e 2 2 1 1 2 2 5 2 < & + + + % : 8 m _ ' | X.",
"h.d.p.0.,.K A G K :.<.<.Y G Z x S :.q.n.n.p.2.,.:.:.:.:.:.;.8.f.J.|.tXjXlXjXgXrX[.R.g.u.u.0.<.L t > & & : : - : : : : & & % + + & , 8 C _ { | X.",
"d.d.f.p.9.Y A Z K ,.9.2.:.A x c Z Y 9.p.p.2.:.:.<.9.9.2.9.0.f.F.Q.#XpXjXkXjXfXoX^.A.n.p.0.5.:.j < % o o % & % % % % % & : : - - : 1 x W ` |  .X.",
"d.d.d.d.p.*.A b D =.0.0.<.K Z x Z K ;.8.1.Y K Y 2.p.p.p.p.b.F.Q.@XyXpXjXjXpXyX.X^.A.x.q.9.,.K a : o   o + & % + + + + & < 2 2 1 4 8 m Q '  ...D.",
"d.d.g.h.a.;.D Z K ;.p.p.9.:.G Z Z K =.9.=.K S I 9.f.g.d.d.B._.#XiXgXjXsXpXtXXX X/.V.z.0.<.T G i < % + + % * & % + + + & 2 7 9 8 8 n ~ '  .S.-X;X",
"m.m.M.j.d.7.I A K =.w.p.0.<.I G A Y <.9.:.A Z K 0.m.G.G.J._.+XpXjXkXjXpXdX{._.~.L.N.z.e.<.:.K g r > ; ; : : : : & % % : 2 9 9 8 x m / | D.;X;X;X",
"H.G.G.M.d.8.*.I K Y ;.7.9.2.:.I I *.0.0.-.A Z K r.G.!.'.`.+XiXjXkXkXgXdXY.K.v.b.c.N.c.z.r.9.-.z j s t e 2 2 5 2 < & % & < 5 5 4 8 n / | -X;X;X;X",
"/.W.E.G.g.p.9.>.Y K K Y <.<.<.:.:.9.a.a.9.K S R l.!.oX$XyXpXjXjXkXjXyX{.K.r.9.2.e.z.Z.Z.N.b.0.1.=.&.J p i 9 9 9 5 : & & : : - & , 9 ~ | -X>X>X;X",
"(.^.!.R.F.b.b.e.>.K A K Y <.2.<.9.p.m.m.p.,.R 4.C.[.fXhXkXkXkXjXgXpX#X~.b.9.*.*.<.r.N.L.V.n.p.w.0.9.:.I A S S Z i 2 : & & % +   % 2 E ' ..D.-X-X",
"(.(.^.~.Q.P.L.N.e.:.K K Y <.9.0.p.n.G.R.B.r.t.b.I.XXgXkXlXlXjXpXyXrX.XP.x.7.#.*.*.e.z.N.N.x.p.p.p.p.0.,.T P A S v 7 2 : & +     + , b Q { ....D.",
"/.^.`.}.}.}.[.W.c.e.,.R ,.2.0.p.f.M.W.!.Q.L.K.I.{.#XgXkXkXjXpXtX#X.X^.R.n.u.1.=.<.2.e.r.e.9.9.0.p.a.p.9.,.T G S Z Z 9 2 : +   X + : 8 m _ ' |  .",
"R.W.^.}.#XyX$X XW.v.r.t.t.r.b.b.F.R.^. X X}.}.}.+X#XyXgXgXyX+X{.OX~.W.R.m.d.p.0.9.2.<.<.:.:.:.<.0.p.a.p.9.:.K A S S Z 7 , % + + % - 1 x W _ ' { ",
"M.V.Q.}.#XyXrX#X}.I.K.K.K.K.K.P.Q.'.}.XX#X%X%X#X#XXX#X%X$X}.I.K.C.B.V.M.j.g.d.a.q.9.<.*.I K K Y <.0.p.p.0.2.*.K G G S 9 , % + + % & - 1 b W Q ` ",
"d.n.V.W.[.#X%X#X+X{.{.Y.Y.{.|.|.}.}.#X#XyXyXyX#X.X`.`. X[.T.b.e.0.a.n.m.h.g.g.x.x.p.9.<.I A A K :.9.p.p.p.0.2.:.T G S 9 , & % % % % + - 4 b N ~ ",
"u.p.d.M.W.`..X@X{.Y.I.I.Y.{.|.}.@X+X#X#XyXpXpX#X`.W.W.W.Z.l.>.L #.1.p.d.n.m.M.H.J.B.l.9.*.K A K Y <.9.0.w.0.9.<.:.P A i 2 : & % % + + % 1 8 m N ",
"7.8.p.a.V.W.`._.K.b.t.r.C.I.Y._._.'.}.#XyXpXpX#X^.V.n.l.e.:.d t s #.0.f.m.V.Q.`.}.Q.B.q.=.L K K :.<.<.;.;.;.2.<.<.:.K A i 2 : & % + X + , 8 b m ",
"=.<.9.p.g.G.R.B.0.+.d J <.r.v.F.J.R.!..XyXgXgX%XQ.g.0.<.T p < ; 0 k ;.p.N.W. X%XyX@XH.f.1.*.:.:.:.<.:.Y K Y :.<.<.<.:.I A i 2 : % + X + , 8 m C ",
"I :.<.0.d.j.m.p.+.0 % * p :.0.p.d.M.!. XrXgXgX#XH.p.;.Y A 7 - % * t L 2.z.L..XyXgX$X'.m.s.1.<.<.<.<.Y A Z Z K :.<.2.<.:.K Z 7 1 : % + % , 8 m N ",
"A K *.8.f.h.d.8.w * . . 1 g *.7.i.M.`.$XfXfXrX`.B.0.-.Y G u : o + > y &.3.N.OXrXyX$X].R.x.0.2.2.2.<.Y S x x Z K :.<.<.,.P S x 7 2 ; + % , 8 m N ",
"x S Y 7.f.g.a.;.d ; o $ 3 i z $.u.H..XyXgXfX XL.l.9.=.,.Y p < % o % > y &.e.C.~. X.X].W.N.q.2.<.<.<.Y A x x x S I >.<.:.K S b b i < & % , x m N ",
"c Z K 1.p.f.0.:.p e : - 1 9 g #.w.P.#XgXfXoXW.n.s.9.9.9.<.L t : $ o % > p :.t.c.L././.L.N.l.9.2.2.<.:.K Z x x Z K Y :.Y D Z Z Z Z 5 * % , b W Q ",
"8 Z K ;.w.q.<.K Z a 5 2 1 2 u j ;.v.|.yX$X`.M.a.s.0.0.0.2.*.g 2 & o o & u K ,.e.z.N.N.N.b.l.0.9.2.<.:.K Z x x Z A K K K A Z Z S S 5 * % 2 H Q ' ",
"8 Z K :.2.<.I Z v v i r < > , 7 K y.I..X].R.d.u.u.p.p.0.<.Y G 9 , % o & 5 Z T <.2.e.e.e.q.p.p.p.0.<.Y K Z Z Z Z Z A S A Z Z Z S Z 2 & & 7 ~ '  .",
"x Z G T :.L p 9 9 Z D p r > : 1 Z 4.v.W.R.x.w.w.i.d.p.9.:.P G Z 5 & % & 5 Z G T :.:.:.<.9.p.p.p.0.<.Y K A A S A A Z Z Z Z Z Z Z 9 < & : b `  .>X",
"Z Z A K K g 5 2 7 D T L k t 2 4 x R l.M.n.0.-.6.u.g.p.;.K G S S 7 : % - 5 Z S G K I Y *.2.0.p.0.9.<.:.I K K I K K Z Z b Z Z i 7 2 : - 4 E ' D.,X",
"Z Z S A Z 5 : : 2 j :.<.=.l p 9 x T q.d.p.:.K Y 8.f.p.*.A Z Z Z 5 : % - 5 v Z Z Z D I *.<.2.9.9.2.<.:.:.:.:.:.:.K A Z b Z i 7 < : : 1 b O. .;XeX",
"Z Z Z Z 9 , % % > d :.5.9.<.I Z Z Y 0.p.9.K Z D ;.w.7.Y Z x x 9 2 & % & 2 9 9 9 9 p K :.<.<.<.<.<.<.<.<.<.<.<.:.I A Z x 9 9 2 : : , 8 W ' S.;X,X",
"Z Z i 7 2 & o + : y I <.e.9.:.A Z K ;.0.;.G x Z Y =.*.K v 8 7 2 : % % & < 2 2 1 2 u g I :.:.>.>.<.<.<.2.2.<.:.Y K A Z i 7 2 , , 1 8 m _ | D.;X,X",
"Z i 9 2 - o o % : 5 D R <.2.:.G Z D :.<.*.D x v A K K A 9 7 1 : & % % & : : : & & < u A P R :.<.<.<.<.2.<.:.I G S S Z 9 2 < , 4 b m Q ' ..;X;X;X",
"i 9 5 : % + + % - 1 9 J :.<.:.G Z A I :.Y G Z b Z Z Z i 9 2 : % + + % & : : - % % & 1 9 A I :.>.<.<.<.2.<.*.G Z b n Z i 5 2 7 b W _ '  .D.;X;X;X",
"5 2 < & + + + % # = 1 p &.<.:.K Z Z G K K G Z Z b x 9 7 2 > & + + + % : 1 1 , & + % & 1 i D I :.,.<.2.2.<.Y A x x b n Z Z Z F ~ _ {  .D.;X;X;X;X",
"2 2 , : & & & & # $ - r l >.:.K S Z Z A A Z S Z Z b 9 2 : & % % % % : 2 8 b 8 1 & % % - 2 i G T :.<.<.<.<.Y G Z b b m W ! ` ` ' {  .S.;X>X;X;X;X",
"7 7 7 5 2 2 , : # $ % q s L L K Z 9 9 9 i i Z S S Z 7 : % + & : , < 2 x F W F x 2 & % % : 5 Z G T :.>.>.:.K A Z b m W _ {  ... . . .S.-X;X>X;X;X",
"S S S H Z x 7 1 - o + @ q t d g i 7 2 , < 5 i Z S i 2 & + o - 1 7 9 Z E Q O.! ~ Z 2 & + % , 9 S K K L L L D Z b n m Q ' ..-X-XD.X. . ...D.D.;X;X",
"[ [ [ ` ! ~ H 8 1 & + + @ ; 0 a i 2 & % & < i Z Z i < & + O , 8 H W ! ` ` ' ' [ ! Z < + % , 9 Z Z g g D D Z Z n F Q [ | D.;X;X;XD. .| |  .D.D.;X",
"-X-X-XD. .{ ` ~ m 9 2 , : : 2 7 9 2 & % & 2 9 v v 9 2 : : 1 b W _ ' | | |  ...D. .` H 7 5 9 Z H Z Z Z S F F W ~ _ '  .D.;X;X;X;X-X..| |  .S.-X;X",
",X,X,X,X,X>XS.} ] _ ~ m b c c x x 9 2 1 1 7 x b b x x x b M Q ]  .=X=X>X>X>X,X,X,X=X{ _ ~ W W W N N ~ / ` ' { } ..=X>X,X,X,X,X<X>X=X....S.=X>X>X",
"1X1X4X3X3X3X2X1X:X=X .o._ V B M n b x x x n n n n n M N ( o.} =X:X:X:X1X4X3X6X6X3X4X1X>X..o.] ( ( _ o.} =X>X:X<X1X4X3X3X6X6X4X1X<X:X:X:X:X:X:X<X",
"1X1X4X3X7X7X7X7X6X3X1X:X*Xo.( B M M M M M M M M M M B ( o.*X:X1X4X1X1X4X6X7X7X7X7X7X9X7X1X*Xo.) ) o.} :X1X3X6X6X7X7X7X7X7X7X6X4X1X1X1X1X1X1X1X1X",
"5X1X4X6X9X0X0XqX0X9X8X3X5X*Xo.^ B M B B V B B M M B ^ ) *X5X4X3X3X4X1X4X8X9X9X7X9XqXwXwX7X5X} ) ) } *X1X3X9XqXqX0X9X9X9X9X9X8X4X1X1X1X4X4X1X1X1X"
};
