/* XPM */
static char *result[] = {
/* columns rows colors chars-per-pixel */
"72 72 233 2 ",
"   c #4E0C16",
".  c #4F0E19",
"X  c #500F19",
"o  c #4E121C",
"O  c #51141D",
"+  c #5D1A1E",
"@  c #4E1923",
"#  c #511720",
"$  c #531B23",
"%  c #591E24",
"&  c #531F28",
"*  c #4F212A",
"=  c #542027",
"-  c #5A2025",
";  c #55242A",
":  c #59262B",
">  c #55292E",
",  c #5B292E",
"<  c #512630",
"1  c #552D32",
"2  c #5A2D32",
"3  c #553135",
"4  c #5C3235",
"5  c #563639",
"6  c #5D3639",
"7  c #57393C",
"8  c #5D3A3C",
"9  c #632C2D",
"0  c #692C29",
"q  c #6D322D",
"w  c #633435",
"e  c #6A3533",
"r  c #683837",
"t  c #623C3D",
"y  c #6A3D3B",
"u  c #733D37",
"i  c #65403F",
"p  c #6C423E",
"a  c #73433C",
"s  c #79473B",
"d  c #7B453C",
"f  c #7F503E",
"g  c #5B3D41",
"h  c #613F40",
"j  c #5C4344",
"k  c #5A4446",
"l  c #5D4B4C",
"z  c #5F504F",
"x  c #5E4E50",
"c  c #5D5659",
"v  c #644343",
"b  c #6A4543",
"n  c #654847",
"m  c #6D4945",
"M  c #61474A",
"N  c #644B4B",
"B  c #6B4C49",
"V  c #734843",
"C  c #734B45",
"Z  c #7A4E44",
"A  c #734E48",
"S  c #6B504C",
"D  c #7C5146",
"F  c #75514A",
"G  c #7C5349",
"H  c #79584F",
"J  c #644D51",
"K  c #635455",
"L  c #6B5755",
"P  c #635659",
"I  c #655B5B",
"U  c #6A5C5C",
"Y  c #755C54",
"T  c #68615F",
"R  c #776259",
"E  c #685F61",
"W  c #676162",
"Q  c #6A6463",
"!  c #6F6769",
"~  c #6D6B6A",
"^  c #7A6862",
"/  c #706D6D",
"(  c #6E716D",
")  c #6F7271",
"_  c #737473",
"`  c #747976",
"'  c #767C7A",
"]  c #787E7C",
"[  c #854C39",
"{  c #8D563D",
"}  c #915D3F",
"|  c #814D41",
" . c #835446",
".. c #895545",
"X. c #855846",
"o. c #8C5B45",
"O. c #845649",
"+. c #885749",
"@. c #85594B",
"#. c #8C5A4A",
"$. c #925D45",
"%. c #925E4B",
"&. c #885D51",
"*. c #8A624E",
"=. c #956146",
"-. c #9B6545",
";. c #95614A",
":. c #9A654A",
">. c #9A694B",
",. c #9D694B",
"<. c #866757",
"1. c #956352",
"2. c #976A55",
"3. c #9D6C52",
"4. c #94715B",
"5. c #9C755A",
"6. c #A36B46",
"7. c #A56947",
"8. c #A46C4A",
"9. c #A96E4A",
"0. c #B06F4A",
"q. c #AB7148",
"w. c #AC724A",
"e. c #B2764C",
"r. c #B4784D",
"t. c #A46D54",
"y. c #A66D56",
"u. c #A57354",
"i. c #AC7453",
"p. c #AC735B",
"a. c #AE7C5C",
"s. c #B27652",
"d. c #B47B53",
"f. c #BA7D55",
"g. c #B2765A",
"h. c #B47A5C",
"j. c #BB7D5B",
"k. c #876F63",
"l. c #877065",
"z. c #8C7264",
"x. c #967863",
"c. c #A77B64",
"v. c #AC7D64",
"b. c #B77E63",
"n. c #BB7E61",
"m. c #C27E57",
"M. c #77817C",
"N. c #78847E",
"B. c #B6825B",
"V. c #BA8459",
"C. c #BC835C",
"Z. c #A98568",
"A. c #B38363",
"S. c #BC8363",
"D. c #BD8A63",
"F. c #B8876A",
"G. c #B48B6B",
"H. c #BA906C",
"J. c #A68471",
"K. c #B98F75",
"L. c #BD9374",
"P. c #BC9678",
"I. c #C2845B",
"U. c #C2835D",
"Y. c #C48562",
"T. c #C38C64",
"R. c #CB8A65",
"E. c #C38B6A",
"W. c #CC8C6A",
"Q. c #C49268",
"!. c #C5946B",
"~. c #CA956D",
"^. c #CB996F",
"/. c #D4956D",
"(. c #CA8F70",
"). c #CC9471",
"_. c #C79976",
"`. c #CB9B73",
"'. c #C49D7B",
"]. c #D29572",
"[. c #D29C75",
"{. c #D89D78",
"}. c #CEA077",
"|. c #C2A27D",
" X c #CEA27A",
".X c #D1A177",
"XX c #D2A47B",
"oX c #D9A37D",
"OX c #D4A87F",
"+X c #D9AA7E",
"@X c #758483",
"#X c #798680",
"$X c #7A8A83",
"%X c #768B89",
"&X c #7A928C",
"*X c #799893",
"=X c #BFA784",
"-X c #C59E81",
";X c #CDA383",
":X c #C5AA87",
">X c #CEAC85",
",X c #DAA681",
"<X c #D5AC83",
"1X c #D4AA86",
"2X c #DBAD84",
"3X c #C5B18E",
"4X c #CDB38E",
"5X c #DCB086",
"6X c #D3B18A",
"7X c #DAB38A",
"8X c #DCB38A",
"9X c #C6AB90",
"0X c #CCB692",
"qX c #C6B995",
"wX c #C8B995",
"eX c #CAB995",
"rX c #C5BC9A",
"tX c #D4B993",
"yX c #E2AC85",
"uX c #E2B486",
"iX c #E2B58C",
"pX c #E3B98E",
"aX c #E0B791",
"sX c #E4BB92",
"dX c #E9BD94",
"fX c #BFC3A4",
"gX c #C3C09F",
"hX c #DAC29D",
"jX c #EBC197",
"kX c #ECC399",
"lX c #F1C79B",
"zX c #C1C1A1",
"xX c #D6C3A0",
/* pixels */
"@X@X@X@X$XN.$X$X$XN.` ~ Q z g > $ O O O = O O O O # ; 3 k c T ( ( _ _ _ ] N.$X$X$X&X=X%X` W z k k l c T ( ' N.$X$X$X$X$X&X@XM.) _ _ _ _ _ / _ _ ",
"%X@X@X@XN.N.N.N.M.` / W P l 7 1 ; $ O $ O = $ + $ $ * 3 g z T ~ ~ / _ ` ] N.$X#X#X#X@X) ) W z k k l z T ~ _ ' M.N.N.N.N.$X=X@XM.` _ _ _ _ _ _ _ ",
"&X&X&X@XN.M.' ` ( Q L N j 7 5 1 , ; $ O = ; ; ; : : > > 5 j c T ~ ~ ` ` ` N.#X#X#X] _ ! c z l k j k l K T T ~ ( ` ' M.N.N.%X@X@X] ` _ _ _ _ ] ] ",
"*X*X&X$X' ) ~ W K l 8 5 > > 1 4 6 , ; $ = : 4 6 6 6 4 > > 3 j z W ~ ) _ ` ` ] N.] ! L M k j j v v j j N S K K I T ( ` M.N.N.N.%XN.] _ _ _ ] ] #X",
"*X%X@X' / E J l 7 < % O O % , t i 6 , ; ; 4 t v n i 6 ; = = > g J I ! ! / ~ ) _ ! K 6 & ; 2 t v i n b b b i j l z I ~ ) N.M.N.N.#XN.' ` M.N.$X$X",
") ) ! U J h g 3 ; o . X + 9 e i v 8 5 , 2 8 v B N n w > O o * 1 5 g N K U E E E J 6 $ X O ; t v B a V V a p 8 h k z I Q M.M.N.N.N.M.M.] N.$X$X&X",
"c x l g 2 < & & @ o O % q u s C v i 8 t 8 t v n B n 6 : O O @ = & < 2 g k x M g 6 ; O O O > t b F G X. .D s b i g k z T ( ) N.M.' ' N.N.N.$X$X$X",
"k g 3 < $ O # # @ o $ 9 d  . .C b v i v v v v v n i 8 , : $ $ O # o # < 5 g g 3 $ O O $ ; 4 h C D X.o.%.#.O.C v j j k z T Q ~ ( / ( M.N.$X$X$X$X",
"g g 3 $ X   X o @ @ : y | #.@.C p v m C C b v v h h 8 5 2 : $ O X   X # ; > > @ o o $ > 6 y b Z  .+.%.%.#.+.C b h j j v k N J P W ~ ) M.N.$X$X$X",
"P M g , o   X O @ * 4 b  .+. .C v m F G G C v i j i i i 8 2 ; $ o X o # & & @ o O $ ; 4 t C D X.+.%.%.%.#.O.C n h j h 8 6 4 3 j z c ~ ` M.N.$X$X",
"E U J 6 % # o $ ; 4 v C  .+.G m v C D #. .C b v i m m n v t 2 ; $ # # $ $ $ $ $ $ : 6 i m D +.#.#.#.#.%.#.O.C m i n i 6 , = ; 3 k l I ~ ` N.N.$X",
"Q E K M 2 # # $ : w m G @.+.G m v Z +.=.+.C b b s D D B n t 6 2 : & $ $ % ; ; ; , 4 i m G +.#.#.%.+.#.#.#.+.O.C F m i h , > = = 3 7 l c ( ' N.$X",
"E U K N t ; $ $ 9 y D #.*.#.D b v D =.,.=.D n s X.=.*.D b v g w 2 ; $ - , 4 4 6 8 i C O.+.#.#.#.+.+.#.%.o.#.#. .D B v i 8 4 , = = > 7 z T ` N.$X",
"E U L B b 4 & : 9 y | +.#...V v v D =.9.>.G Z D >.6.-.X.C b n v w ; $ ; 2 t v v v V Z +.#.#.#.#.%.+.+.+.+.+.#.X.D V b v n v 8 , = = 1 7 I ( M.#X",
"I P L L A y 4 2 w h | | Z u r t h G 3.i.w.*.X.=.q.w.6.=.Z B B b w : & ; 4 g n B C F  .+.%.;.;.;.%.#.O. .G G D  .Z b i n n n i 6 , - * 3 l Q ` N.",
"P I Y H D Z y r h b V h e 9 , 1 t G t.j.V.w.,.,.q.w.6.=.+.H F b 6 : & ; 4 v B F G O.X.+.%.-.8.6.;.#.O.Z V m V V m v v j v v v i 6 > $ ; g L / ` ",
"c U Y H #...Z b v v h 4 , & = > p &.v.E.R.U.d.e.w.w.7.,.%.O.A h 4 & % ; 2 h A O.%.%.%.1.:.7.9.9.7.%. .C b i g v v v v v h b v n i 3 = = 6 N W _ ",
"c I Y #.;.;.+.G m r 4 < < ; > e D 2.F.).{.W.U.s.t.8.,.;.%. .V w : & # & 9 h O.%.y.p.y.y.y.t.8.7.;.%.O.b v j 8 j v b C b b h n N n 6 = O 1 v P W ",
"c P Y *.,.8.;.+.V e , & < 2 r s =.a._.2XyX{.R.j.t.:.;.;.%.| u 9 $ # % % r Z #.y.g.n.n.n.g.y.1.%.%.#.O.C v 8 g g b C D Z b v v n i 6 - $ : g l c ",
"E E R *.8.w.8.;.Z e % & 1 h C o.6.V.}.2XyXyX].Y.u.:.%.*...V e % O O + q h +.y.b.W././.W.h.t.%.#.%.+.O.C b g v v V  .+. .V n v v i 4 ; $ > 5 k l ",
"Q R R >.9.e.w.6.[ q + $ 4 C X.=.q.I.].,XyXyX,X(.h.3.;.@.D y 9 # # % 9 h ..t.n.(.{.{./.R.h.t.#.#.+.+.G m b h v C O.+.#.+.Z b v 8 6 : $ = * 5 k k ",
"^ <.<.2.q.e.r.9.{ q + 9 r Z $.,.w.f.Y.].,XyX5X,XT.i.;.@.A r ; $ $ 9 h $.%.b.W.,XyX,X].m.w.,.%.#.%.#.O.C v b V D +.#.#.+.G v g 2 : $ O $ > 5 k k ",
"l.l.4.>.q.e.r.w.{ u 9 9 u  .%.8.w.w.f.Y.{.8XaX,XQ.d.:. .m w : : 0 u $.y.h.W.,XiXiX2X~.s.6.%.#.%.%.+.O.C m C D +.#.#.+.G A h 4 : = o o @ * 7 k l ",
"k.z.4.t.w.e.e.6.o.y 9 e h ..%.8.9.q.0.f.(.yXsX2X!.i.=.O.Z h r e u | :.0.E.{.yXdXsX<XD.u.=.%.#.#.+.+...X. ...#.%.#.+.D C y 4 , ; O o . O > 7 k l ",
"l.z.4.u.w.9.9.;. .a t y Z ..%.8.q.6.7.e.Q.+XpX2XH.t.#.#.G Z Z Z | $.7.j.).2XdXlXdX,XF.3.#...#.#.+.#.#.;.:.:.%.%.#.G C t 4 , $ & O o X O > 7 j k ",
"l.z.4.>.6.6.-.%. .b b b A +.%.8.6.9.6.q.V..X+XXXA.3.;.%.1.;.#.%.$.-.i.Y.}.8XkXkXaX-Xv.1.#.#.#.#.#.%.:.,.6.7.=.#.G A b 6 , $ $ O $ o O & 1 8 l l ",
"x.z.4.;.o.$.o.o.G B B B G O.%.:.,.-.6.q.B.T.~.E.v.u.3.u.u.3.,.,.7.7.f.W.oXpXkXdXyX_.c.1.#.$.;.:.;.:.8.7.9.,.$.G A m v 6 : O O O $ $ @ ; 7 k K I ",
"Z.Z.4.*.D Z X.X.O.A m m G +.#.%.;.-.9.q.e.B.B.B.A.A.A.F.D.B.i.w.0.s.m.].yXdXdXuX{.n.y.%.#.$.8.7.6.7.7.8.,.#.Z C b n j 6 : $ O O @ = > 7 l I W ! ",
"Z.Z.4.*.a a D G Z b h b Z O.O.O.+.o.-.6.w.w.d.B.T.~.`.`.`.Q.C.V.f.U.W.[.,X5X2X{.W.n.y.1.:.7.9.e.w.w.8.;.#.D C b v v h 4 > $ O O # ; 1 k I ~ _ _ ",
"H.H.Z.2.G F f Z V r 4 r h Z Z A Z D o.=.8.d.C.T.[.XX+X2X+X.X^.Q.T.E.W.].`.[.~.R.m.h.g.p.y.w.e.e.e.6.,.#.G B n v g t 4 2 ; & O X @ : g P ~ _ ' M.",
"|.P.H.a.>.} f S t 2 : 2 y b m m b b Z +.t.F.`.2X5XuXpXpXiXuX5X2XoX`.~.Q.T.C.V.e.s.d.j.n.j.f.e.e.9.,.#.D m m v v 8 4 : ; $ $ . . @ > v T ) M.N.$X",
"=X|._.C.V.6.*.a r 2 & : 2 r h n m C  .1.c._.8XsXdXpXpXpXsXdXdXsX8X2X`.T.V.d.e.w.e.j.n.Y.U.h.9.,.$...Z b y h j t 4 : $ $ $ $ # O & 2 J ~ ' N.$X$X",
"9X:X'.).U.e.-.X.p 9 : & * < 6 V O.<.2.v.K.1XtXjXsXaXpX8XpXpXhXjXsX8XXX^.C.f.s.d.f.j.j.b.g.t.=.X.s a r w 2 4 6 2 2 & # $ % : : ; 3 8 K ~ N.#X$X$X",
"eX4X1X[.R.V.r.6.+.V r < @ ; e  .3.G.!.'.;X8X8X8X8X8X8X7X8X7X7X7X8XpX7XoX~.Y.U.U.Y.n.h.y.1.@.D p r 9 : ; ; : : ; $ O $ $ 2 4 6 5 g k I _ ] #X$X$X",
"wXeX6X;X/.R.I.V.u.2.H h 1 9 a :.F..XuXiXiX8X<X<X<X7X<X6X<X<XOX<X8XsXsX8X{.].W.W.W.S.y.:.+.F m t : & + O # # # # # O # ; , 6 8 j k l K ~ ` M.N.N.",
"rXeX4X2XoX{././.H.G.c.<.D | $.d.`.5XpXdXpX8X<XOXOXOXOX<XOXOXOXOX8XsXjXpX,X[.W.W.Y.j.8.;.@.D V t ; @ . o o O O O o O # $ , 4 5 5 7 j z T ~ _ ' M.",
"wXeXtX7XiXyXyX+X7X<X;XL.A.p.B.H.XX7XiX8X8X7X<XOX<X<X<X<X<XOXOXOX8XsXsXpX,X).E.C.B.d.9.6.:.*.O.y , $ O X O O O O O O O $ ; ; ; ; > 1 7 z E ~ _ ` ",
"wXeXtXtXpXpXdXdXjXsXpX5X.X^._. X+X<X<X<X<X<X<X<X<X<X<X<X<XOXOX6X7XpXpX8X2X`.T.B.r.e.w.e.i.8.%.[ e 9 % $ % $ $ $ $ $ ; $ $ + o o O * 3 k P Q / _ ",
"eXeXtX6XpXdXjXjXjXdXiXuX5X+X2X<X<X<X<XOXOX<X<X<X6X<X<X<X5X<X+X6X7X7X8X8X<X XQ.B.w.e.e.f.f.e.8.o.[ r e 2 2 2 > 2 2 , > ; $ O o . o * 1 7 c W / _ ",
"wX0X0X6X8XtXsXdXsXuX+X+X+X+X7X<X<X<X<X<X<X<X<X7X<X<X<X<X<X<X<X<X<X<X<X7X7XOXQ.B.w.e.f.U.U.f.w.,.o.[ a y w 6 6 6 8 t w 4 ; O O X o @ 1 j P Q ~ _ ",
"wXeX0X6X1X8XpXdX8XXX`.`.`.<X<X<X<X<X<X<X<X<X<X<XOXOXOX>X6X+X<X<X<X+X<X<X1X X!.B.f.f.Y.W.W.T.f.w.,.;.X.C b b v b m v v 8 2 ; O O # & 1 g z W ~ ~ ",
"wXeX9X>X<X2XpXpX2X`.T.!.`.;X<X<X<X<X<X<X7X<X<X<X X XOXOX+X6X<X<X5X5X<X<X-X(.G.B.C.E.).{.{.[.~.C.d.t.;.+.G A A A B B v h 6 1 ; ; $ $ & 3 k K W W ",
"eXeX4X>X<X8XpXsX2X`.!.!. X<X<X<X<X<X<X<X<X7X<XOX}._.}.XXOX<X<X6X7X8X<X|.F.c.y.g.Y.(.oX2XiXiX2X].D.i.,.*.+.+.+. .G B v v h 8 2 ; $ # $ ; 3 k J c ",
"wXeX4X1X<XyXpXpX7X+X`.`. XOX<X<X<X<X<X<X<X<X<XXX}.^.^. XOX>XOXOX<X<X XG.3.#.%.y.n.).{.iXdXkXsXyX~.V.6.;.;.;.%.%.+.D V m m v y , & # # $ 1 3 j j ",
"eXeX4X6X<X7X8XiX8X7XXX.X X}. X<X<X<X<X<X7X<X<X<X X}.}.}.}..XXX X XP.Z.2.D a d %.g.E.{.yXsXkXdXiX[.I.d.6.,.-.:.:.=.o.X.G G F a t 2 : : : , 1 3 3 ",
"eXeX4X4X<X2X2X2X8X8X8X2X.X`. X X<X2X<X<X<X<X<X<XOXXX}.^.`..X`.^.H.c.<.C w 9 e [ 1.p.n.].,XdXdXaXoXW.j.s.9.9.7.9.9.6.-.>.*.+.D p t w 4 4 1 > & & ",
"qX0X3X<X<X+XOX<X8XsXaX5X.X`.~. X<X<X7X<X<X<X<X<X<X<XXX}.^.^.^.~.A.<.F 6 ; $ : e | 1.y.n.].,X,X5X{.W.Y.f.e.e.w.q.w.q.9.-.;.#.D m v n n h 6 : $ # ",
"3X:X:X X X}.XX<X8XsXpX2X}.^.^.}.<X<X6X<X<X<X<X<X6X7XOX X}.`.^.Q.A.*.a 4 $ # - 4 h ..;.y.b.(.).).~.Y.Y.U.V.V.r.e.q.,.=.=.+.D Z m b B N M t , $ O ",
"=X=X|._.~.`. X<X<X8X7XOX}.^.~. XOX6X<X<X6X<X<X6X<X<X<X<XOX.X}.!.A.3. .e : $ & 1 y C +.%.t.a.f.V.f.f.V.C.U.U.m.e.6.o.D Z C C p n n B N n w : % # ",
"=X=X|.P.^.^. XOX<X7XOX}.^.Q.!.}.OXOXOXOX+X<X<X<X<X<X<X<X<X+X X^.E.b.1.| e : : 2 t b A +.%.8.6.7.6.9.i.j.Y.U.I.e.-.X.C n i n i i h n h h 4 : $ # ",
"=X=X|.}.`.^.`.}. X X X^.Q.D.D.!.}. X X XXXOX<X<X<X<X<X7X<X7X<XXX`.(.b.%.u e < 5 g b C +.o.$.$.$.{ o.,.p.I.I.V.r.6.=.D C C m m m h h h 4 > & $ $ ",
"3X3X3XOXXX.X`.`._. X~.H.V.B.V.D.!.!.`.`.}.XXOX<X<X<X<X<X<X7X8XuX2X[.Y.p...h 6 g h m C +.$.%.o. .a Z +.,.e.V.r.q.w.6.>.=.X.O.D m h w 2 : & $ # # ",
"qXwX0X6X<XOX`.`.`.^.^.D.B.e.r.V.Q.~.!.~.`. X<X<X<X<XOX<X<X7XtXjXiXyX].n.2.O.n h b C D  .#.#.#.Z m n a X.-.6.6.6.6.6.9.-.=.#.G C b h 2 & & # # # ",
"gXeXtX4X7X+X+XXX}.}.Q.V.e.q.B.V.~.`.}._.}.XX<X<X7X<X<XOX<X7X8XsXdXyXoX(.v.2.&.G C C C F  .#.#.H B v i a s [ [ [ { =.=.=.o.O.D B b h 4 , & % # # ",
"eXeXtX6X<X5X5X5XOX X!.V.e.q.B.D.`. XXX XXX<X<X<X<X<X<X>X<X7XpXjXsXiX2X{.(.b.c.:.#.C b C C  .+.G B v t w 0 0 0 9 e a s F F V m v h h h 6 2 ; & # ",
"eXeX4X<X<X5XpXpX8X+X`.V.V.B.V.H.<X<X<X<X<X<X<X<XOX<XOXOX<X7X8XjXiX7X1XoX{.(.n.p.;.O.V C F  .+. .Z i 6 > - O O - , w i n p b v i h h h h 6 ; % # ",
"qX0X4X>X<X5X8XpXjX7XOX~.I.V.D.}.<X7X<X7X<X<X<X<X X X XOX<X7X8X8X7X<X;XoX{./.R.f.8.;.X.G X.o.#.O.V r 1 , ; ; % 9 w r b b V C b b h h h h , % # O ",
"eXwX4X6X<X+X7X8X8X8X5XOX^.Q.Q. X<X<X<X7X<X7X<X X}.`.`. X+X7X8X7X1X[.].]././.n.f.w.6.-.>.>.>.#.[ r , : < 3 w y y s s D D D D Z m h h h , ; # # O ",
"eXeX4X6X<X+XOX<X8XjXtX5XXX^.~. X<X<X<X<X7X<X<XOX}.`.`.}.OX<X<X<X.X~.W.W.W.W.R.m.e.q.q.8.,.2.+.s 9 % & 1 h b Z O.+.+.+.+.+.+.G C h 6 ; & $ & & & ",
"eXeX0X6X<X+XXX>X8XjXjXpXXX`._. X<X<X<X<X<X<X<X<XXXXX}.}. X X X}.).T.U.Y.Y.W.Y.m.r.q.,.-.;.*.D u 9 $ & 2 h B H G @.G @.G O.O.Z b w ; # O % 2 g g ",
"eXeX0X6X<X+XOX<X8XsXsX5XXX`.^. X<X<X<X<X<X+X<X7X7X7X+X.X`.`.`.^.T.V.f.j.n.W.R.m.d.6.=. .G A b r % $ & 2 h m B A A C C B A C b w ; # X O 2 h J E ",
"wXeX4X6X<XOXOX<X8XsXsX7XXX^.^. X<X<X<X<X<X<X<X7XpXpX7XoX`.`.`.`.D.d.w.s.m.Y.Y.m.w.;.D m v n b y 9 : 9 w h b b v h h h v h h 4 : & o X & g L / ` ",
"qXeX0X7X6X+XOX<X8XjXjX5X X!.`.}.OX<X<X<X<X<X<X7XpXaX8X<XXXXX+X.X!.a.8.u.s.j.m.j.8.#.C g g j b a u u u V b b v h 7 3 1 1 1 1 < & # o o < h ! ` @X",
"wX0X0X6X<X+XOX6X7XsXpX7X X^.^.}.>X<X<X<X<X<X<X<X7X8X7X5X8XiXpX8X_.v.3.,.8.s.s.y.;.+.b v h m Z ....$.$...O.Z m h 7 2 ; ; ; ; & $ O @ & g P _ @X%X",
"wXeX0X6X<X+X<X2X8XpXpX5X.X`.`. X<X<X<X<X<X<X<X<X<X<X<X8XaXkXlXjX;Xv.2.%.7.9.w.-.#.G C A Z D +.%.9.9.q.7.$.+.F m t , ; $ $ $ O O O = 3 l T ) M.$X",
"eXeX4X6X<X2X2X5XiX5X2XXX.X`. XXXXX<X2X<X+X<X5X+XOXOX<X<XpXkXlXjX;Xv.1.%.6.7.-.o.D D @.%.1.%.:.9.e.e.r.0.8.;.+.Z p e : $ + O . . O ; 8 P ~ ` N.N.",
"eX0X4X>X<XyXiXiX5X+X.X}..X.X+X+X+X<X<X2X<X<XOX+XOX+X+X<X5XjXlXdX;Xv.1.$.6.7.} f V G 1.p.g.e.9.9.0.e.e.q.q.7.=...Z p w : $ O     o > j U ` N.N.N.",
"eXeX4X<X<X8XsXsX5X.X~.^. X<X<X<X<X<X<X<X<X<X<X<X6X<X<XOX<X8XdXpX;XF.3.1.7.7.=.s b H y.n.U.j.d.w.q.w.q.q.7.8.=.o.G C n t 1 ; O X $ 2 n ! M.N.N.$X",
"gXwXwX4X6X8XjXjX8X X_.L. X6XtX6X6X6X6X6X6X6X7X6X6X6X>XOX<X7XtX7X;XK.v.p.i.3.*.F B H 5.V.T.T.C.a.i.3.2.;.*.;.*.H H S S N v 6 2 & < g c ) M.M.@XN.",
"gXrXqXwX4XtXhXhXtX>X|.|.:X4X6X6X4X4X6X4X4X4X4X4X4X0X4X4X4X0XtXtX>X-XP.F.v.5.R L L Y <.Z.H.!.L.G.Z.5.<.<.R H Y Y Y L K L K M g 1 1 g I ) M.@X@X@X",
"zXgXzXgXeXtXhXhXtX3X|.:X:XqX0X0X0X4X0X0X0X0X0X0XeX0X4X0X4XeXeXeX4X;X-XL.Z.z.R T U Y <.Z.G.^.P.K.Z.z.<.U L I P I P P I U I P M g g g W @X@X@X@X@X",
"fXzX=XrXeXeXxXhXeX3X=X=X3X3XwXwXwXwXwX0XwXwXwX0XeXeXeXeXeXqXqX0X0X4X;XP.J.z.R R U R k.5.Z.L.'.P.J.l.^ U c c c c P P P U Q W K j g x W ` @X@X@X@X"
};
