/* XPM */
static const char *wall_34[] = {
/* columns rows colors chars-per-pixel */
"72 72 232 2 ",
"   c #4E0E18",
".  c #4A0C19",
"X  c #500E19",
"o  c #4E131D",
"O  c #4F181F",
"+  c #51141D",
"@  c #5A191E",
"#  c #4E1A24",
"$  c #4B1723",
"%  c #521720",
"&  c #531B23",
"*  c #561E25",
"=  c #4C222A",
"-  c #542027",
";  c #5B2226",
":  c #55232A",
">  c #5A262B",
",  c #55292E",
"<  c #5A292E",
"1  c #552C31",
"2  c #5A2D32",
"3  c #512630",
"4  c #553236",
"5  c #5C3235",
"6  c #563439",
"7  c #5C3639",
"8  c #563A3D",
"9  c #5D393C",
"0  c #652C2A",
"q  c #652928",
"w  c #793B2E",
"e  c #622E31",
"r  c #633434",
"t  c #6B3533",
"y  c #6D3935",
"u  c #613739",
"i  c #623C3D",
"p  c #6A3D3B",
"a  c #633837",
"s  c #723C35",
"d  c #723C37",
"f  c #66302E",
"g  c #6C423E",
"h  c #64403F",
"j  c #73443D",
"k  c #7A453A",
"l  c #7A473B",
"z  c #7F503F",
"x  c #5C3E41",
"c  c #563B41",
"v  c #623F40",
"b  c #5D4244",
"n  c #5D464B",
"m  c #5D4B4C",
"M  c #5D4C53",
"N  c #5D5354",
"B  c #5E545A",
"V  c #5E5A5E",
"C  c #5B504F",
"Z  c #634343",
"A  c #6B4643",
"S  c #654847",
"D  c #6D4945",
"F  c #634B4C",
"G  c #6C4C49",
"H  c #62464A",
"J  c #734540",
"K  c #744C45",
"L  c #7A4D45",
"P  c #754E48",
"I  c #7A4F48",
"U  c #6B514D",
"Y  c #7C5146",
"T  c #76514A",
"R  c #7C5249",
"E  c #644D50",
"W  c #635354",
"Q  c #655C5C",
"!  c #6A5C5D",
"~  c #645758",
"^  c #5E5D62",
"/  c #685F60",
"(  c #5F6566",
")  c #5F7273",
"_  c #656362",
"`  c #6B6464",
"'  c #6D6C6B",
"]  c #686B6A",
"[  c #706B68",
"{  c #6E706F",
"}  c #687877",
"|  c #737473",
" . c #757977",
".. c #767D7A",
"X. c #787C7B",
"o. c #656F71",
"O. c #67605F",
"+. c #824C3C",
"@. c #804434",
"#. c #84513E",
"$. c #8D563D",
"%. c #955B3E",
"&. c #824E42",
"*. c #835545",
"=. c #8A5644",
"-. c #865946",
";. c #8C5B46",
":. c #835549",
">. c #89574A",
",. c #86594A",
"<. c #8C5A4A",
"1. c #935D44",
"2. c #915E4A",
"3. c #9B5D47",
"4. c #845D52",
"5. c #8F604B",
"6. c #8F6044",
"7. c #946145",
"8. c #9B6445",
"9. c #94614A",
"0. c #9B654A",
"q. c #9D694A",
"w. c #9D6946",
"e. c #9A6553",
"r. c #9E6A54",
"t. c #976856",
"y. c #956958",
"u. c #A36B46",
"i. c #A96E45",
"p. c #A36C4B",
"a. c #A96F4B",
"s. c #A16647",
"d. c #AC734B",
"f. c #A9714B",
"g. c #B2764C",
"h. c #B5794C",
"j. c #B97B4D",
"k. c #B27347",
"l. c #A46C53",
"z. c #A86D56",
"x. c #AC7252",
"c. c #AD745C",
"v. c #AB7A5E",
"b. c #A87455",
"n. c #B27552",
"m. c #B57A53",
"M. c #BB7C54",
"N. c #B2755C",
"B. c #B47B5B",
"V. c #BC7D5A",
"C. c #AD7D62",
"Z. c #B67C62",
"A. c #C17E5B",
"S. c #76817D",
"D. c #79837E",
"F. c #B68057",
"G. c #BD8156",
"H. c #BD825C",
"J. c #BA855B",
"K. c #B38465",
"L. c #BD8263",
"P. c #BD8963",
"I. c #B98B6C",
"U. c #B38C71",
"Y. c #BD9272",
"T. c #B48668",
"R. c #C2835C",
"E. c #C5865B",
"W. c #C58563",
"Q. c #C38C64",
"!. c #CA8B64",
"~. c #C38C6B",
"^. c #CC8C6A",
"/. c #C98766",
"(. c #D18E6D",
"). c #D18E65",
"_. c #C4926B",
"`. c #CC936D",
"'. c #C89469",
"]. c #D1926C",
"[. c #CE9471",
"{. c #C59A75",
"}. c #CC9B73",
"|. c #C79976",
" X c #D19673",
".X c #D29A75",
"XX c #D49E79",
"oX c #D99D78",
"OX c #C78E70",
"+X c #CEA27B",
"@X c #CCA077",
"#X c #D3A47C",
"$X c #DAA47D",
"%X c #D6A67B",
"&X c #E2AA7F",
"*X c #6A8584",
"=X c #748482",
"-X c #798681",
";X c #7B8B84",
":X c #748C8B",
">X c #778B87",
",X c #7C938C",
"<X c #77928D",
"1X c #769494",
"2X c #7A9A96",
"3X c #7B9E9A",
"4X c #779796",
"5X c #6F908F",
"6X c #7BA19C",
"7X c #7CA6A0",
"8X c #7AA3A0",
"9X c #7DAAA4",
"0X c #7FB1A9",
"qX c #80B1AB",
"wX c #81B4AE",
"eX c #80948C",
"rX c #DBA681",
"tX c #D6AC84",
"yX c #DBAC84",
"uX c #D4A780",
"iX c #DAB086",
"pX c #DCB48A",
"aX c #D9B48A",
"sX c #DFB991",
"dX c #CEA680",
"fX c #E5AC84",
"gX c #E2B38B",
"hX c #E8B78C",
"jX c #E4BB92",
"kX c #E8BC94",
"lX c #E8C198",
"zX c #F4C394",
/* pixels */
"| | ..D.;X,X,X,X;X..' E 2 %     + % % % + + o o + - 4 n ~ ' |  .X.X.X.D.;X;X;X;X-XD. .{ ` ~ N m C N N N Q '  .>X,XeX,X,X;X;X;X;X;X;X;X;X>X<X1X1X",
"|  ...-X;X;X;X-X..| / H 2 % + + % % % % % % % % & : 4 b W _ ' | | |  ...-X;X;X>X-X..| ' Q N m b m m m m W Q '  .D.;X;X;X;X;X;X;X;X;XD.-X>X:X1X1X",
"....D.-X;X-X..| ' ! F 9 : % + % - - & % % - : : , , 5 8 m W _ ' ' { |  .S.;X;X>XD...' _ W b 8 8 8 8 8 x b H ~ ` '  .S.D.;X;X;X;X>XD.D.S.=X:X1X1X",
"..D.-XS...| ] Q F x 5 < & & - < 2 < - & - 2 5 7 7 5 2 5 7 b W Q _ _ ` '  .D.-X-X..{ _ W b 4 1 , , , , , , 2 7 b E O.' | ..D.;X>X;XD. . .S.:X1X4X",
"| | | | ' Q m x 1 & % + % : 2 7 9 5 < : < 7 Z S Z 9 2 : : 1 8 m m C W Q ' | | | ' Q m x 1 - % + + % % % % % & : 4 b W _ '  .D.;X-X..| | ..:X1X4X",
"W W ~ W F b 8 : #     + & 2 9 Z Z 9 5 2 5 i S S Z 9 < & + & , 6 8 8 x m ~ / / ~ E b 8 1 - + + X X + + & * * & & - 1 8 m Q '  .S.S. .| | ..:X1X1X",
"2 2 5 5 2 1 - & o o + & 2 9 Z Z Z i 9 9 9 Z S S Z 9 , & + o & : : , 1 8 n m n 9 2 , : - & % + + + % ; < 5 5 2 < : : , 8 m _ {  . . . ...=X:X1X1X",
"% % % % % % % % % & : 2 i Z S S Z Z Z Z Z Z Z Z i 9 2 : % + + % % & : 4 8 x 8 , % + + % % % % % % : 2 i Z S Z 9 2 : : 1 b W _ {  .X.D.-X>X<X1X1X",
"% + + +     + & - < 5 i A G G S Z Z A G A Z Z Z Z i u 2 : % + + + + - 1 8 8 4 &     X + + % % & : 1 7 b Z S S Z 7 < : , 4 b ~ '  .D.;X;X<X1X4X4X",
"< > & + X   + & < 5 i D K T K G A S K T K G A A K K D a 2 : + + + + - 2 9 9 5 - +     + + % & : 2 7 x b Z Z Z Z i 7 2 , , 7 F ` ..-X;X;X,X4X6X8X",
"i i 2 : % + % : 2 i A T :.:.L K A K Y :.Y K A K Y :.Y D 9 1 & % + % : 2 7 9 5 : % + + % % & : 2 i Z S S Z Z Z Z Z i 9 2 < 2 Z `  .-X;X;X,X6X7X9X",
"S Z 9 2 : % & : 2 i G T :.:.Y K K Y -.;.:.K S K :.<.,.K i 4 1 : & & : < 2 2 < : & & : , , , 2 i A K P K D A Z Z Z Z 9 7 2 5 Z ! { ..D.;X,X6X7X9X",
"S Z i 7 2 : & : 2 i G T :.:.Y K P Y 5.9.=.K G I ;.0.<.K x 8 7 2 < & & & & : & & & : 2 7 9 9 i A I :.,.:.Y K A Z b b x i 9 i Z W _ ' | D.,X3X7X9X",
"Z Z Z i 9 2 : : < i A T :.:.Y K K :.7.w.7.Y K Y 7.w.7.Y Z x 9 9 2 : % + + % % & : 2 9 Z S S A K :.<.<.<.:.K S Z Z Z Z Z Z Z n m W Q [  .>X3X7X9X",
"Z Z S S Z i 2 2 2 i D I :.*.L j j z 7.u.w.;.*.;.8.p.0.:.G Z Z i 5 : % + + % & : 2 7 Z S G G P :.<.2.<.>.Y K A Z Z A A A S n b b m m Q ' =X4X7X9X",
"S S G K K D i 7 7 i D I *.&.k y t k 1.p.f.u.8.w.p.p.0.<.I G Z i 2 : % + + & < 5 i v Z S G T :.<.<.<.:.I K A Z A K K I K S b x b b n F _ ..1X7X0X",
"Z A K Y :.Y G Z Z Z A K Y L s 0 0 w %.d.j.g.d.f.f.p.0.<.:.K Z 9 2 : % + % : 2 9 Z S S A K :.<.<.<.:.K S Z Z Z A K :.:.Y G Z x Z Z b n ~ } <X6XqX",
"Z D I *.2.<.T G S S A K I j y q q w %.h.E.E.M.h.d.p.0.<.:.K Z 7 1 - % % & : 5 9 S A G K *.2.9.2.:.K Z x x x Z S I :.<.:.I G A G A Z Z W { :X6XqX",
"Z D Y 2.0.0.<.T G G G A G g r ; q w 3.M.E.!.R.M.d.u.7.=.:.K Z 7 1 : & & * : 2 9 S P T :.2.0.0.;.Y Z x x x x Z A K :.<.<.:.*.Y Y K D Z F ' >X3X9X",
"A K :.0.p.p.9.:.K S Z v i 9 2 > 0 k 3.m.E.!.W.H.n.p.8.;.:.K Z 9 2 : % + % : 2 i A T ,.9.0.p.w.;.K Z x x Z Z Z A K :.<.2.<.<.<.<.:.L D F ` =X1X3X",
"K Y ;.w.f.f.0.=.l p 5 1 1 1 1 < r k ;.p.B.R.W.E.V.n.a.0.<.Y J a 2 & o o + ; e p I ,.9.p.p.p.0.;.Y A S A K K K K I :.<.2.2.2.2.<.>.L D S / } :X1X",
":.=.9.p.f.d.u.1.k f - # # - , 5 i D Y <.q.m.R.E.W.H.B.z.0.;.*.j e & o   + ; t J :.0.p.a.p.p.9.<.:.Y Y Y :.:.Y Y :.:.<.<.<.<.2.<.>.L g Z ~ o.} *X",
"<.9.0.p.d.g.i.1.k 0 % o $ : 2 i Z S A K =.p.m.R.!.W.H.n.p.8.;.L y > % o % > s &.9.p.a.p.0.9.<.<.<.<.<.<.<.<.<.<.<.<.<.<.<.<.<.<.:.K g Z N _ o.} ",
"9.0.p.f.g.h.d.8.+.f * # : e a Z Z b Z Z K =.p.N.R.E.R.m.f.u.8.=.l t < : < r j =.0.p.p.0.<.:.Y :.:.<.2.<.2.2.0.0.9.2.<.<.<.<.,.:.T K Z Z N ( ) ) ",
"0.q.a.d.h.j.g.w.#.p 5 5 p j J A Z b b Z A K -.q.x.M.M.g.f.p.p.0.;.L j a i g z 1.w.p.0.<.Y K K K :.<.2.<.2.9.p.p.0.9.<.>.<.>.:.T G S Z H W ( ) ) ",
"<.9.0.p.d.g.f.w.=.K A K Y :.Y G Z x Z Z Z A K -.w.d.g.g.d.d.f.p.0.<.:.K G K -.0.p.p.9.:.K A A K :.<.2.2.9.0.p.p.p.9.<.>.:.:.I G Z 9 9 Z W ] o.} ",
"Y :.,.<.0.w.w.0.9.,.,.,.5.5.-.K A Z Z Z S S G Y 7.p.d.g.g.g.d.i.u.0.5.,.T :.9.b.n.x.9.:.K A K L *.1.0.q.l.l.p.p.0.2.<.:.R I D i 5 , , 9 W o.*X5X",
"G G K P Y ,.<.9.0.q.q.q.q.0.;.:.K D S S S S G T <.q.x.B.V.M.g.i.u.u.0.9.<.<.r.N.V.N.e.:.I I *.=.1.s.x.N.N.b.q.9.2.<.<.:.P A i 2 : % % 5 ~ ..1X7X",
"Z Z Z Z A I :.9.p.a.d.d.d.p.0.2.:.K A Z Z Z S I <.e.c.W.W.R.M.d.i.u.p.q.0.e.z.Z.L.N.r.<.*.<.9.q.f.m.R.W.L.N.e.<.*.*.:.I A 9 1 - % + + 7 _ >X7XwX",
"i i i i g K *.1.s.i.k.g.h.n.x.l.2.L Z 7 1 1 u j =.r.B.~.`.`.Q.M.m.g.n.x.z.z.c.Z.N.z.e.<.<.9.l.B.H.'.].]./.N.e.:.Y I K g u 1 & % % & < H { 1X9XwX",
"j j j j l #.%.8.u.i.k.M.A.R.W.B.z.>.g 1 $ $ ; t $.a.P.}.#X#X}._.Q.R.A.A.V.N.N.z.r.e.2.2.9.p.B.Q.@X$X$X.X/.N.e.:.I D p u < & % % & 2 Z ` =X4X7XqX",
"<.<.<.<.9.0.p.d.g.g.m.V.W.^.(./.Z.e.I 9 : : 0 k 8.F.'.#XtXtXtX#X.X[.^.^./.L.c.e.<.*.<.9.q.x.J.}.yXgXyX XL.z.2.:.K Z 9 2 & % + & 2 Z !  .,X3X7X9X",
"v.v.C.C.K.P.Q._.Q.Q.Q.~.[. X.X.X~.C.y.4.Y &.<.p.B.'.#XiXpXsXsXgXyXrXoX.X X~.b.2.*.*.=.0.a.x.H.`.%XyXrX~.c.e.<.T G Z 9 1 & % & 1 x ~ [ D.,X6X7X7X",
"{.{.|.+X#XtXyXyXyXyX#X#X#X#X#X#X+X{.Y.U.U.U.Y.|.}.#XtXaXsXjXkXkXjXgXfXyXXX_.v.9.*.#.1.p.d.g.M.Q. X.XOXC.t.,.T G S Z 9 2 : - , 8 F ! ' ..,X6X7X9X",
"tXtXtXyXpXpXjXkXkXjXjXpXiXtXtXtXtXtXtXpXpXjXjXgXpXtXtXtXpXpXjXkXkXjXjXpXtX{.K.r.9.7.u.d.g.g.m.V.W.L.N.e.:.K Z Z Z v 9 2 : : 1 b W O.'  .>X3X7X9X",
"yXyXuX+X+X+XtXpXjXlXlXlXjXpXaXaXpXpXhXhXzXzXzXhXyX#X}.}.#X%XiXjXjXlXkXjXpXdXY.K.b.x.n.m.j.h.n.m.N.z.3.&.p u 5 5 5 5 2 < : : 1 8 F Q ` | >X4X6X8X",
"XX X~.T.C.C.P.}.%XpXkXlXlXjXpXpXyXyXfXfXfXfXfX$X`.Q.J.H.Q.'.@XyXpXjXjXjXsXpXdX{.~.P.R.R.M.m.d.f.p.2.&.y > & & & - - & & & & : 2 x E ` | >X1X4X4X",
"/.Z.N.l.9.7.p.F._.#XpXjXjXjXpXyX#X.X[.^.^.^.W.G.m.d.f.d.m.J.Q.}.#XtXpXpXjXjXgXyX#X.X^.W.V.n.p.0.;.L y > % o o % % % % % % % % : 2 Z ! | =X:X1X1X",
"N.x.l.2.=.%.s.g.G._.}.uXyXfXyX%X}.~.N.z.s.3.3.1.1.%.7.w.p.x.B.P.P.|.#XyXgXkXkXjXpXrX.X~.B.a.1.#.k t > % o o % & : : & % % + + % < 9 W ' =X:X1X4X",
"l.q.0.2.1.8.i.g.j.F.P._..XoXoX.X~.v.5.L d y t s j z :.1.0.0.l.b.b.J.Q.@XiXjXkXkXgXyX#XOXC.0.#.s 0 * + o $ & , 5 7 5 2 : & + + % , 7 H _  .:X4X3X",
"<.<.<.<.9.0.p.d.g.g.m.G.W.^.(./.Z.e.I 9 : - : 2 i A T ,.<.<.2.9.0.f.F.Q.#XpXjXjXjXpXtX{.K.e.L t ; % o % : 2 9 Z S Z 9 2 : % + % : 1 8 W ] =X1X3X",
"K K I Y :.<.9.0.u.f.g.M.A.A.A.B.z.<.A 4 = # : 2 i K T Y Y Y Y :.;.8.f.F._.+XiXjXkXjXpX+XI.b.>.d < - : < t g G G S Z x 7 1 : & % & - , b Q } :X4X",
"Z Z Z A A G K :.7.u.g.j.j.n.x.l.2.Y A 8 4 4 7 p K Y T K G D D K *.;.0.b.B._.+XpXkXlXjXyX}.T.l.:.p 7 u p L *.Y P G Z x 8 7 2 > & + o O 1 M o.*X5X",
"Z Z Z Z Z Z A K =.w.d.g.d.p.0.<.:.K S Z Z Z A K :.:.Y G Z x Z A I :.9.p.d.J.`.yXkXlXkXgX$X[.Z.e.T A G Y <.2.<.:.K A Z v 9 9 2 : % + + : b ( o.*X",
"S A D J K K K Y -.9.0.w.w.7.;.*.K A S S A A P T Y I K Z x c x Z K :.2.p.d.G.'.$XhXkXkXgX%X XW.l.<.Y Y ,.9.0.0.9.;.*.Y K A i 7 2 : & & : x N ( ) ",
"I Y :.=.7.7.7.;.-.:.:.:.=.=.*.K A Z Z S S S A G G S Z x c c x Z K :.9.p.g.G.!.oXfXgXgXyX#X`.W.n.0.;.-.=.9.0.p.p.p.p.7.*.K Z 9 9 7 2 < 2 x M B ^ ",
"<.9.0.p.d.g.f.w.=.K A K Y :.Y G Z b Z Z Z Z Z Z Z Z Z Z Z Z Z A K :.9.p.f.m.G.!.[.XX#X#XXX`.W.V.g.p.0.9.9.0.p.d.g.f.w.=.K Z x b Z i i 9 x n M B ",
"p.a.d.h.j.j.d.w.*.K Z A T :.Y G Z x x x x x x Z Z A J K L L Y Y Y :.<.2.9.0.r.l.C.I.{.+X#X.X`.^.Q.H.B.l.s.s.u.i.u.8.;.Y A Z b Z S S Z v b n M M ",
"g.g.h.j.j.g.p.2.Y A S K R ,.R G Z x x x x x Z S K Y =.;.7.7.7.;.=.,.:.Y I K K R 4.b.I.}.#X#X#X#X%X#X`.L.n.a.u.w.6.Y D Z v b Z Z S Z Z v b n M M ",
"d.d.d.f.p.0.<.:.K A A K Y :.Y G Z b Z Z Z Z A K :.9.p.a.d.d.d.p.0.2.:.K S Z Z S R t.K.}.%XyXpXpXgXgXrX XW.M.d.w.-.K Z x x Z Z S Z i i 9 x n M B ",
"0.0.7.1.=.*.Y P G S Z g j j J Z Z Z S D J K Y -.7.p.n.M.R.E.E.M.x.p.2.Y K A A K ,.r.L.}.%XyXpXpXgXgXfXfXoX`.R.x.0.:.K G D G G Z i 5 < 2 7 n M B ",
"Y L l d y p A A A Z i a r r u i Z G I :.=.;.7.8.u.d.M.E.!.).).E.V.n.p.1.=.:.-.9.p.B.Q. X#XyXyXyXyXrXfXgXfX$X].R.n.p.9.;.*.Y K A i < & & 1 x M V ",
"i 9 5 < : < 7 Z S Z 9 2 : : < i A T ,.9.0.a.d.d.g.m.V.W.^.(.^.W.V.n.p.8.9.9.0.a.m.R.!. XXX#X#X#X.X X$XyXgXyX.XW.M.d.p.0.<.:.K A 9 , % % 1 x M B ",
"1 3 # $ $ # 1 9 Z Z 9 1 & % : a K <.0.a.n.M.E.E.R.R.R.W.W.W.Z.N.b.q.9.;.=.<.0.a.m.G.W.^.}.#X#X}.!.!.`..X#X|.I.v.l.q.0.;.:.I G Z 9 2 & & 2 x M B ",
"* # $ o o $ - 2 7 i 9 2 & % > d :.0.a.n.V.!.).).).!.E.G.m.x.l.e.<.:.Y K K Y *.9.p.n.M.R.'.}.+X'.R.M.M.H.P.v.y.4.R T Y K D A Z Z 9 7 2 2 9 b M M ",
"% % % % % % & : 2 7 9 5 < > t +.9.p.d.m.G./.^.(.^.W.V.n.p.8.;.:.K S Z Z Z A I :.9.p.f.F.Q.}.@X_.J.d.i.u.w.;.K Z x x Z Z Z Z Z S Z i i 9 x n M B ",
"% & & > > : & & - < 5 r t s +.1.p.f.g.n.m.B.Z.Z.Z.N.b.p.7.=.*.I A x c x Z G I :.<.0.p.b.P.|.}._.F.p.7.$.#.j 7 1 4 9 Z A G G K K K g a 7 x M B ^ ",
"% & < 5 7 2 - % % & < t j *.1.p.d.d.d.f.l.l.r.e.e.e.9.2.;.=.*.I A Z x Z G I :.<.2.9.0.b.K.|.|.Y.v.0.*.z g u , : 2 p I :.:.:.:.:.L d 0 2 c B ( o.",
"& : 2 7 9 5 : % + & > y &.9.p.f.d.d.f.p.0.2.<.<.<.<.<.<.<.<.<.:.I G A K :.<.2.<.<.<.2.r.K.{.{.I.r.:.g i 9 2 > > t l <.9.2.<.<.>.L t ; : c V o.*X",
"& : < 2 5 2 : & % ; e j =.0.l.a.p.a.f.p.w.7.;.=.=.;.2.9.2.2.<.<.:.Y :.<.9.0.9.<.Y Y ,.t.K.Y.Y.C.<.p 1 3 1 1 < r k =.9.e.<.:.&.l s q @ : b _ *X5X",
"& & & : : - & & : 2 p L <.9.0.q.0.p.f.f.a.u.0.0.8.w.p.p.0.9.2.<.<.<.2.0.p.p.7.Y K K R t.K.Y.I.r.J * . $ - 2 r p L <.5.<.R J p r q @ + , m o.:X3X",
"% % % % % % & : 2 i A T :.<.<.2.9.0.p.d.g.d.d.d.d.d.d.f.p.0.2.<.<.<.9.0.p.w.;.K A K ,.r.K.{.I.t.d % . o : 5 i D T :.:.I D 9 1 - % + + 2 ~  .1X8X",
"o o + % % % % : 2 Z G T R :.:.<.2.0.p.f.g.h.h.h.h.h.g.d.p.0.2.<.>.:.,.=.;.=.Y K K :.e.v.I.{.Y.b.+.0 * ; e a v Z D j d y 5 1 = $ $ o & 9 _ =X3X9X",
"o o & : , : & & 2 i G U T T :.<.2.0.0.p.a.g.h.h.h.g.f.p.0.9.2.<.:.K K D K K K Y >.e.c.W.}.+X{.K.0.+.w d p Z v 9 7 2 > : : - # # # - 1 m ] :X6X0X",
"& : 1 8 x 8 , : < 7 Z S S A K :.<.2.2.9.0.p.d.d.d.p.0.2.<.<.:.:.I G Z b Z A I >.e.N.W. X#X#X@X_.B.p.8.;.:.K Z 9 2 : % + % % % & : 1 8 ~ } 1X7XqX",
"9 x H W W m 8 1 , 2 5 5 5 u p K Y Y Y :.<.0.p.p.p.0.<.:.I K K K K A A A D I *.9.b.L.[.$XrX%X.X`.R.m.d.a.0.<.I p 5 : % o o + + & , 7 H ` S.2X7X0X",
"! ! ` ` ` Q m 8 1 : & & & , 5 i A A G K Y <.9.0.9.<.Y K Z Z Z S G K Y *.;.7.8.p.b.P.}.yXyX#X`.W.G.j.h.g.f.q.<.L g 5 , & o + + & 2 x ~ { >X3X7X0X",
"| | | | ' Q M x 1 - % + % : 2 i Z S S A K :.<.<.<.:.K A Z b Z A I ,.9.p.a.d.d.g.F.Q.}.#X#X[.W.V.g.d.f.f.p.w.2.:.K Z 9 2 - % + & 2 Z !  .,X3X7X9X",
" . .| ' Q W b 7 1 , : : > 2 u g G G K K I :.>.<.>.:.Y K K K K :.;.0.p.d.h.j.M.G.R.~.}.}.}.W.M.a.p.0.8.7.1.;.:.T K A Z 7 2 : & : 5 H ` D.,X3X3X6X",
"| | ' Q m 8 4 1 2 2 7 7 u a g K Y :.:.:.:.:.<.<.<.:.:.:.*.=.9.0.p.p.f.d.g.M.G.E.!.^.`.^.Q.V.d.p.9.<.*.Y K K K G A S Z i 9 5 < , 7 S [ -X,X4X4X4X",
"| ' _ W x 1 - : < 7 Z S S A K :.<.2.<.<.<.<.<.<.<.<.<.<.9.0.p.d.d.d.d.d.d.m.G.W.^.(.^.W.V.n.p.8.<.:.K S Z Z Z Z Z Z Z Z i 9 2 2 7 S [ -X,X1X1X1X",
"' ` Q m 6 = % & < i S U U P Y <.2.0.9.2.2.<.<.<.<.<.2.9.0.a.g.j.j.h.d.d.d.m.H./.(.(./.R.M.d.u.7.=.I A x c 8 8 x Z Z Z Z Z i 5 2 7 S [ -X,X1X1X5X"
};
