/* XPM */
static const char *wall_20[] = {
/* columns rows colors chars-per-pixel */
"72 72 228 2 ",
"   c #4E0E19",
".  c #4E121C",
"X  c #45131F",
"o  c #51141E",
"O  c #500D16",
"+  c #4D1520",
"@  c #4E1A24",
"#  c #4B1C27",
"$  c #521720",
"%  c #531B23",
"&  c #591E24",
"*  c #511F28",
"=  c #562027",
"-  c #5C2226",
";  c #55232A",
":  c #59252B",
">  c #55292E",
",  c #5A292E",
"<  c #552C32",
"1  c #5A2D32",
"2  c #553136",
"3  c #5C3236",
"4  c #563439",
"5  c #5C3539",
"6  c #5D3A3D",
"7  c #57393C",
"8  c #4C242E",
"9  c #642C2D",
"0  c #672D2D",
"q  c #6B342E",
"w  c #622F31",
"e  c #623535",
"r  c #6B3533",
"t  c #613738",
"y  c #623C3D",
"u  c #6B3D3A",
"i  c #6C3A36",
"p  c #723D38",
"a  c #763D36",
"s  c #70392F",
"d  c #6C413E",
"f  c #65403F",
"g  c #73433D",
"h  c #7A443C",
"j  c #7D4A3D",
"k  c #774537",
"l  c #5D3D41",
"z  c #613F41",
"x  c #5D4244",
"c  c #5E4A4D",
"v  c #5D4649",
"b  c #5E4D51",
"n  c #5D5458",
"m  c #634343",
"M  c #6B4643",
"N  c #664847",
"B  c #6D4945",
"V  c #624649",
"C  c #644A4C",
"Z  c #6D4C49",
"A  c #734641",
"S  c #734C45",
"D  c #7A4E45",
"F  c #734E48",
"G  c #7B4A44",
"H  c #7C5146",
"J  c #75514A",
"K  c #7D534A",
"L  c #765046",
"P  c #654E50",
"I  c #645354",
"U  c #695355",
"Y  c #655B5B",
"T  c #6B5B5C",
"R  c #665758",
"E  c #6A615F",
"W  c #665E60",
"Q  c #6A6363",
"!  c #6D6B6A",
"~  c #656669",
"^  c #716C6B",
"/  c #716765",
"(  c #6E706E",
")  c #676E71",
"_  c #697879",
"`  c #737472",
"'  c #747A76",
"]  c #767D7A",
"[  c #787A75",
"{  c #71726E",
"}  c #834B3A",
"|  c #80473D",
" . c #8A553D",
".. c #935B3F",
"X. c #9D633F",
"o. c #824E42",
"O. c #845546",
"+. c #8B5544",
"@. c #855846",
"#. c #8C5B46",
"$. c #835649",
"%. c #85594B",
"&. c #8B5B4A",
"*. c #89574A",
"=. c #925D46",
"-. c #925E4A",
";. c #975A43",
":. c #885D51",
">. c #915E50",
",. c #956146",
"<. c #9C6545",
"1. c #94624B",
"2. c #9B654B",
"3. c #9E694B",
"4. c #9E6847",
"5. c #8B6254",
"6. c #956453",
"7. c #9C6552",
"8. c #9B6A55",
"9. c #9B6C59",
"0. c #976A58",
"q. c #946854",
"w. c #A56A45",
"e. c #A46C4B",
"r. c #A96E4C",
"t. c #A46948",
"y. c #AC724B",
"u. c #A7704C",
"i. c #B2764C",
"p. c #B5794D",
"a. c #BA7C4C",
"s. c #A46C53",
"d. c #A86E53",
"f. c #A47253",
"g. c #AB7353",
"h. c #AD7A57",
"j. c #A3735B",
"k. c #AB735A",
"l. c #AC7A5C",
"z. c #B17553",
"x. c #B57B53",
"c. c #B1755B",
"v. c #B47B5B",
"b. c #BB7D5A",
"n. c #B97B53",
"m. c #997461",
"M. c #AC7E64",
"N. c #A67761",
"B. c #B67C63",
"V. c #77817C",
"C. c #79837E",
"Z. c #6F807C",
"A. c #B6825B",
"S. c #BC825C",
"D. c #BD845A",
"F. c #BC8463",
"G. c #BE8C64",
"H. c #B5896B",
"J. c #B68668",
"K. c #BD9171",
"L. c #B78A6A",
"P. c #C2845D",
"I. c #C1875C",
"U. c #C38563",
"Y. c #C38B64",
"T. c #CA8B65",
"R. c #C58D6B",
"E. c #CB8C6A",
"W. c #C48567",
"Q. c #C19167",
"!. c #C5936B",
"~. c #CB946D",
"^. c #CA996E",
"/. c #D2936D",
"(. c #C39472",
"). c #CC9471",
"_. c #CC9C74",
"`. c #C79B77",
"'. c #D29B76",
"]. c #D39E79",
"[. c #D69A75",
"{. c #D18E6B",
"}. c #CDA177",
"|. c #CDA37C",
" X c #D3A47C",
".X c #DAA37C",
"XX c #D4A87F",
"oX c #D4A578",
"OX c #E1A479",
"+X c #667E82",
"@X c #678085",
"#X c #698789",
"$X c #7A8781",
"%X c #7B8A83",
"&X c #738987",
"*X c #6B8D92",
"=X c #699395",
"-X c #6B999A",
";X c #7B9B96",
":X c #769896",
">X c #75928D",
",X c #7BA19B",
"<X c #6DA7A7",
"1X c #78A5A3",
"2X c #77AAA8",
"3X c #7DB2AD",
"4X c #79B3B3",
"5X c #7BBCBB",
"6X c #76B6B5",
"7X c #7DC0BB",
"8X c #7DC2BD",
"9X c #7ECAC5",
"0X c #7DC5C3",
"qX c #D5AC83",
"wX c #D9AD84",
"eX c #D7A680",
"rX c #DAB187",
"tX c #DAB289",
"yX c #D7B086",
"uX c #CFA681",
"iX c #E1AE87",
"pX c #E5B58B",
"aX c #E6BB93",
"sX c #E9BC94",
"dX c #F0BF94",
"fX c #F2C599",
"gX c #80CDC9",
"hX c #80D1CB",
/* pixels */
"9X9X9X9X9X9X9X9X0X5X5X5X5X5X5X6X<X<X<X<X6X5X0X9XgXhXhXgX9X9X9X9X9X9X0X8X5X5X5X5X5X5X6X<X<X-X*X*X*X*X=X=X=X*X*X*X-X<X<X6X5X0X9X9X9X9X9X9X8X5X5X4X",
"7X7X7X7X7X8X8X7X5X4X4X4X4X4X2X<X-X=X-X-X<X2X4X5X5X7X8X8X7X7X5X7X8X8X7X5X4X4X4X4X4X2X<X-X=X#X@X+X+X@X@X@X@X+X+X@X#X=X-X<X2X4X6X5X7X8X8X7X5X4X4X4X",
"3X3X3X3X3X3X3X3X3X2X1X1X1X:X=X#X+X_ _ _ #X*X:X:X1X1X1X2X2X3X3X3X3X3X3X3X2X1X1X1X:X:X#X@X_ ) ~ ~ ~ ~ ~ ~ ~ ~ ~ ~ ) _ _ #X*X:X:X1X2X3X3X3X3X2X2X1X",
";X;X;X;X;X;X;X;X;X>X>X&X&X_ ) ~ n b b n W ~ ) ` ` ' Z.&X&X>X>X;X;X,X,X;X>X>X&X&X_ ) ~ n b b c c b c v l l l v c b b n n ~ ) ' &X&X>X;X;X;X;X;X>X",
"] ] ] ] ] C.%X%X%X] ` ! Q Y c 6 < > > < 5 l m V N C I Y Q ( ' ] $X%X%X$X] ` ! Q Y c 6 < > , 1 3 3 1 : * % * : 1 3 < < 3 5 m P Y Q ( ' ] V.V.V.V.",
"/ / / / ^ ' V.V.[ ^ T U I V 5 ; o o o % = ; : : : , 3 6 V U Q ^ ` [ [ ` ^ T U C x 2 * o o & , 1 1 , % o O o & , , : & & * : 1 6 V U T / / ^ ^ ^ ",
"U U U T Q ` V.V.` T P V V v 5 = o o % = = * $ o % % ; < 5 v U Q ( ` { ! T P V l 5 ; o o % : e y y 3 , * % = , e e r 9 - & $ * > 5 V C U R T T T ",
"z m V C Y ( ] ] ^ U m l v v 5 ; $ % : 1 1 ; % o o % % ; < l C Y Q ! Q Y P m 6 5 < ; % % ; 3 m N N m 6 3 1 3 6 m M g p 0 - % @ ; < 5 l m V C C C ",
"1 1 4 l c Q ` ` Q C 5 5 x V 6 ; $ * 1 6 5 , * o o o $ % ; 2 x c R Y I C l 3 1 ; ; * % * 1 6 V N N N m y y y m N F D G p 9 * @ @ ; ; < 1 5 6 l l ",
"* * ; < 6 I Q Q R l 1 3 y m 5 ; o * 3 y y 3 ; % $ o o o % ; 2 l x v x 5 1 ; % % % % * : 3 6 m V V N M M M M m N S $.O.j r ; @ @ % % % * ; 1 3 5 ",
"$ % % = < x U T C y 1 3 y m 5 ; % = 3 m m y 1 ; * % o o % * ; < 2 2 < ; * % o o % * ; 1 6 y m m m m M S D S m m S $.&.O.d 1 ; * % o o % ; , 1 3 ",
"% % % * > 6 V C N y t y m m 5 ; * ; 5 N N m 6 1 ; % o o $ % * ; ; ; ; * % o o o * ; 1 5 f M B m m m M H O.H M m B $.-.*.S 6 < * % o o % ; 1 3 5 ",
": ; ; ; > 3 l N B M d M M m 5 < ; 1 6 m N N y 3 ; % o o $ % % % % * % % o o $ * ; 1 5 y M H H S m m S @.1.@.B m B $.-.&.F y < ; % o % ; 1 5 y y ",
"3 1 1 1 1 3 6 m B S D S B m 6 3 1 3 y m N N m 5 ; % o o % % % % % % % $ o % * : 1 5 6 m S @.#.H M m S -.3.-.S m M H &.%.J m 2 ; % % ; 1 6 z m N ",
"6 6 5 5 5 6 6 m B K $.K S m y y y y y m N N m 5 : $ o o % * * * % % o o o % ; 1 6 6 m M H 1.3.#.S M H 2.u.2.H m M D $.$.J m 3 * $ % , y m N N N ",
"6 y y y y y 6 m B $.*.$.D B M M M M m m V N N t : o o o % = : : ; * o . o % ; 3 y N N S #.e.u.<.@.H &.f.x.f.*.B M S H K J m 3 * . & e A S B m m ",
"m m m m m m l m S $.&.*.$.D D H D S M m V V m 5 : % . . % ; 1 1 1 ; % o o % ; 3 m B B D #.e.y.w.,.#.3.x.S.c.1.D A S S F Z m 3 * $ : p D J B m l ",
"B M N m m l l m S O.=.-.&.*.*.*.O.H M m m m l 5 > * . . + ; 1 5 5 , * o o % ; 5 m N F O.-.e.u.e.4.3.g.S.U.b.7.$.D S S Z N m 3 ; - 0 h $.K Z m l ",
"S S B N x l m M D #.,.2.7.7.7.2.=.O.D M m m l 5 < ; % . + ; 3 y y 3 : % o % ; 3 m Z K *.-.2.e.e.u.z.b.T.T.U.g.1.O.D S B N m 5 1 w a o.*.K Z m l ",
"H D S M m m B D @.,.3.d.k.c.k.d.3.=.O.D S M m y 6 1 ; % % ; 5 m N y 1 ; % % ; 3 m F $.&.-.1.2.e.z.S.T.{.E.U.z.3.#.O.D S N m y y p | +.&.K Z m l ",
"O.H D S S F $.&.1.3.g.v.F.F.F.v.g.e.1.&.$.J S M d y w - - 9 y m N m 5 ; % + * 3 m J %.-.=.=.2.d.b.T./.[.).U.x.t.,.#.@.D B M d g j +.=.-.$.S m l ",
"O.O.O.$.%.5.0.j.l.l.A.G.R.).!.Y.A.v.l.j.0.5.%.$.H j k s s s g B Z N 6 < @ + * 3 B K #.1.2.2.s.c.Y.).].].'.Y.n.r.<.,.=.@.H D D D O.=.2.1.*.D B m ",
"*.&.&.6.9.N.J.H.L.G.!.^.'.]._.^.!.G.L.H.M.N.9.6.1.#. .} } } D D J Z m 1 * % : i D &.1.3.e.d.c.F.).].eXeX].!.S.y.w.t.3.2.,.#.#.*.&.1.2.3.1.O.D S ",
"1.6.8.k.B.L.(.`.`.}.}. XXXwXXX X}.}.}.`.(.L.B.l.f.s.3.<.;.;.=.*.$.J B e : - 0 h *.7.f.g.h.v.F.R.'. XwXwX X^.D.x.y.y.g.g.f.3.2.1.-.2.e.e.e.1.*.$.",
"j.j.M.J.(.'. XuXqXqXeXqXwXrXwXqXqXqXqXqX X'.(.R.F.A.v.z.g.d.s.7.6.%.H g q s a +.7.k.v.A.G.R.)._. XeXqXwXeX_.Q.A.A.A.A.A.A.A.k.8.7.e.d.z.g.s.7.6.",
"J.H.K.(.]..XwXqXqXqXqXqXqXqXqXqXqXqXqXqXeX X]._.^.!.Y.P.S.b.b.c.f.7.#.} j } +.e.c.F.G.!.^._.]. XeXqXyXtXqX X_.!.Y.Q.!.^.^.!.F.l.k.g.x.b.b.v.c.k.",
"`.`.`. X.XwXwXwXqXeXXX|.|.|.|.|.|. XXXXX X X.X X X}._.^.E.E.W.F.B.k.3.<.,.<.e.c.F.R._._.}. XeXeXqXyXtXtXtXqX X}.}.}.}. X X X_.R.F.F.U.Y.Y.U.U.F.",
"qXqXeX X.X.X.X X X}._.(.K.K.K.K.(.(.(._._.'..X.XeXeX X_._.).).).R.F.A.h.h.v.A.Y.)._. X XqXqXqXqXyXtXtXtXtXtXqXqXqXeXqXqXqXqX X].'.).).).).).~.).",
"yXqXeX X'.'.'.'._.!.G.F.J.M.M.M.M.J.J.G.!.~.'. XeXqXeX X].].].]._.^.!.Q.Q.!.^._.]. XeXqXqXqXqXqXqXqXqXqXqXqXqXqXqXqXqXqXqXqXeX.X.X.X].].'.'.'.'.",
"qXXX}.).R.E.~.~.T.D.v.h.j.j.9.0.9.j.h.A.I.T.~.'.eXqXeX X X XeXeXXX X X}.}. X X XwXwXrXrXtXwXqXeX X X|.|.}.}._._.}.|.uXqXqXqX X X.X.X X X.X.X.X.X",
"}._.!.J.B.B.U.T.P.x.u.3.3.6.:.%.%.1.f.x.D.P.Y.~.]. X X X X XeXwXwXwXwXwXwXwXwXwXwXtXtXtXrXwX X X_._.^.^.^.!.R.R.R.(.`.`.`.`.`.(.(.(._. XoX X X X",
"Q.G.F.l.k.k.b.b.x.r.2.1.-.&.$.S S @.2.y.p.n.b.U.~.'.].'.'. XeXqXqXqXqXqXqXqXqXqXqXqXqXqXeX X'.^.!.G.G.G.G.U.P.S.F.J.H.H.H.H.J.M.M.J.!._.'._._._.",
"A.A.h.s.7.s.s.f.e.2.#.#.+.o.A d d j #.w.r.r.g.v.Y.~.~.E.~.). XXXXX|.|.|.|.|.|.|.|.|.|.`.`.(.R.U.A.A.A.D.G.U.U.P.A.v.l.j.j.9.0.q.0.j.J.!.^.^.!.!.",
"p.i.u.2.-.-.1.1.1.&.$.H j k i e e i j  ...,.2.f.A.U.U.F.F.G.^._._.(.K.K.K.(.(.(.K.K.H.H.H.J.B.v.z.i.n.D.!.^.^.!.F.v.s.1.&.%.K K %.6.j.F.U.Y.U.U.",
"i.y.e.2.&.$.O.@.@.K S A p r w , , e s k j j @.1.h.b.b.c.k.k.F.G.G.J.M.M.M.M.J.J.M.N.m.m.m.j.k.d.r.y.n.Y._. XoX_.Y.x.3.#.H S B B S *.6.k.v.b.b.b.",
"i.y.e.1.$.H D S S M m y w : - ; ; : 9 0 q i g #.e.z.g.s.6.7.f.h.h.j.9.0.0.0.9.9.0.q.5.:.5.6.7.t.w.y.A.^.wXrXwX}.Y.x.4. .H S M M S D *.6.s.z.z.n.",
"p.y.e.#.H S S S M y 3 1 ; % % % % % & & - , e D <.r.e.-.$.$.#.1.3.1.1.&.%.%.%.%.%.K F Z K &.2.t.w.y.D.oXpXaXwX_.U.x.w.;.@.H S S S S F $.1.e.i.p.",
"p.y.3.#.S S F D A y 1 ; % % $ $ $ $ % % @ # 1 g #.2.1.$.S S H @.#.#.&.$.K S S S S M m m S &.2.w.w.y.Y.wXsXaXeX!.D.x.y.t.<.#.@.H D S B S #.3.y.p.",
"p.u.1.H B Z K &.o.p , = * * & - & * * @ @ @ ; i o.&.*.H M M B D O.#.*.O.S M m M M y 5 6 S -.e.r.w.u.G.wXsXpX'.D.n.x.x.i.u.3.1.#.$.S N M @.<.y.a.",
"y.e.#.S m F :.7.=.} s 9 9 9 w 0 0 9 : ; # # ; e A H K B m m M S O.&.&.O.M m x m m 6 < 3 g 2.z.p.w.y.D..XiXwX!.x.p.n.D.n.p.u.e.2.*.S m m H <.y.a.",
"r.2.O.M m J 0.c.g.;.} a p p a a p i e 1 < < 1 y A S S M m m M D $.&.&.$.S m x V m 5 < 1 h s.P.P.p.y.S.)..X'.S.y.y.x.S.S.x.y.e.2.&.S m m H <.y.a.",
"e.1.O.M m K j.U.U.z.2.#.} | j j G g u y t t y d S S B N m M S $.*.&.&.K S B N N m < # : h k.E./.I.x.S.E.).Y.z.w.e.z.b.b.z.e.4.1.$.S l m S 1.u.p.",
"2.#.O.S S :.k.E./.E.A.f.2.#.+.+.O.D S M M M A S D S B m m M D *.&.%.K K S S F Z m < + % a c.[..X^.U.F.Y.U.b.e.<.e.g.c.k.s.1.#.#.K B l l S #.e.y.",
"-.&.O.D D >.c.E.[..X_.G.h.3.=.=.&.$.K D D D D H H D S m m B $.&.*.K S S D D K F m > X % a B.eXpXwX_.R.U.b.g.e.2.3.d.k.s.1.@.H H S M x m S *.2.e.",
"-.*.O.O.$.2.c.E..XiXrX X!.h.e.2.-.#.*.*.%.$.K K H H S m m B $.*.$.S M d A D H J N < + * h B.wXfXsXwX_.I.x.r.<.2.7.s.d.7.%.S B B S B M B H *.1.2.",
"&.*.$.$.*.2.z.U.[.iXsXtX XY.h.e.2.1.1.1.#.$.K H H D S m m B K $.D d t e i g S S N 2 # ; G B.wXfXfXaX XY.i.w.<.2.e.e.e.1.H M m M S S H H O.*.#.-.",
"#.&.*.*.&.=.r.b./.wXaXaXrX_.F.g.3.<.<.3.1.@.S S S S B m m M S S M e 1 , 0 r u M m 4 8 1 D M..XdXfXsXXXY.y.w.<.3.e.e.3.#.S m m B D O.#.#.#.#.&.*.",
"#.&.*.$.*.=.2.z.R.wXaXsXpX X!.x.e.t.w.e.1.H B M B B B N V N M d e , ; * - 9 r y y 4 < 5 H k.'.pXfXaX XF.e.X.<.e.e.e.<.@.B m m S O.-.2.2.1.-.&.*.",
"-.&.$.$.K O.=.e.F.'.iXsXpXeX^.S.y.w.w.e.#.D m m m M B N N m y e , * % o % & : w 3 2 4 6 H d.T.OXpXiX_.v.3.X.<.w.e.3.#.H M m M H -.e.e.e.3.1.&.*.",
"-.&.$.K S D @.2.v.~..XiXiX.X~.S.y.w.w.2.*.S m l l m m N m y 3 1 ; * % o o $ * : 1 2 7 m H 2.b./..X.X(.k.2.<.w.y.u.2.@.S m m B O.2.u.i.y.e.1.&.$.",
"-.&.$.F B M D #.s.F./.].].'.Y.n.u.w.<.1.%.S m l 6 6 y y y 5 1 ; ; = * % $ o $ * ; 3 6 M H 1.g.P./.[.R.k.2.t.i.n.y.1.H m 6 y S *.e.p.a.i.e.1.$.K ",
"1.&.$.S m m M O.2.v.Y././.T.S.g.e.<.2.-.$.F V 6 5 3 3 3 3 3 1 , , , : ; % $ $ * > 3 m S H =.e.b.E./.W.k.s.d.n.D.h.>.B 6 2 5 g #.e.p.a.i.e.#.H S ",
"-.&.$.S m l m S &.d.b.P.P.b.z.e.2.1.-.&.$.S m 6 3 1 , , 1 1 1 1 3 3 1 : * % % ; 1 y M D @.#.2.z.U.E.W.B.k.c.S.S.g.%.m < 8 1 i O.2.y.p.y.2.O.S M ",
"&.$.H S m l l B $.2.z.n.n.z.r.2.1.-.&.$.D M y 3 > ; * * ; , 3 y y y 3 : * % * , y A D $.#.#.2.f.P.T.E.U.B.B.U.v.8.K 6 8 # ; 0 k +.3.u.e.,.H B m ",
"$.H S B m l l m H -.e.y.y.e.t.2.-.*.$.K S y 3 > ; * % o % , 5 y m y 3 ; % % : e A H $.*.#.=.2.e.b.U.E.E.W.U.B.j.:.S 3 8 @ % - r h +.,.,.@.S m l ",
"D S S M m l l m S *.2.e.e.2.1.-.&.$.K S M t 1 ; * % o o $ : 5 m m y 1 * $ % : u D %.&.&.#.1.3.e.x.S.T.{.E.U.k.6.K u 1 ; @ % & 9 r h @.@.H B m l ",
"B B B M m x l m S O.1.2.1.#.*.*.$.K F B y 3 , = % $ o . $ ; 5 z y 3 ; % . % , g K %.%.*.-.2.e.u.u.h.S.T.E.F.9.K M y w : - & - : w u S L S M m l ",
"M N N N N x x m S O.-.-.*.@.H H H D B m y 3 , ; % $ o o $ ; 1 5 3 , * . . % , g K K K H #.e.y.e.2.2.g.P.U.v.5.B y t r r 0 0 9 , 1 t f B B m m 6 ",
"m m m m m l l m S $.&.*.K S S S S S M m 6 5 1 : * % o o % = : 1 , ; % . . % , u S F F S #.e.y.e.#.@.1.z.b.g.%.m 6 y p a a p r e 1 3 6 m N m m m ",
"y y y y y 6 6 m S K %.$.F B M M B M m m m y 6 1 ; % o o % * = = * % o . . % : e M M N B @.3.e.<.H S %.e.z.3.H l 6 u j o.o.G d e 3 3 5 6 m m N N ",
"5 5 3 3 3 3 6 m B K K K B m m m m m m m m m y 3 ; % o o % % % % % $ o o o % : 1 y y m N H -.1.@.S M H 2.e.1.S m z A O.+.$.D M y 1 < 1 5 y m N N ",
"1 1 , , 1 3 6 m B S S S M m m m m m m m N N m 5 ; % o o % % % % % % % $ o % * : 1 3 6 m S @.@.H M m S #.2.#.S m M H &.#.$.S d e 1 ; ; 1 3 y m N ",
"* * ; : 1 6 m N M M u u f m m m m m m N N N z 3 ; % o o o % % * * * * % % o o % = > 3 6 M S S B m m S %.#.O.B m B $.1.&.K M y 1 : * % = , 3 y y ",
"o % * 1 l C I U N y e 3 y m V V V V N N m y 5 1 ; % o o o % ; ; > > ; ; * o o o % ; < 3 y M M m x m B H $.D M m S %.1.&.S y 1 ; * o o % = , 3 3 ",
"o % ; 5 C T Q T C 6 1 1 5 m N m m m m m y 3 1 ; * % o o $ ; < 4 7 7 4 < ; % o o % * ; 1 3 y m m m m M S S B m m S $.&.O.u 1 * % % o o % * : 1 1 ",
"$ ; 1 m T ^ ` ^ U l 1 1 5 m m y y y y y 3 : * o o o o o % > 5 x v v x 4 ; % $ % % % % = 1 6 m V N m m M M m m m S H o.k 0 * . . % % * ; ; 1 1 1 ",
"1 4 z U / ' ] ` Q C 5 5 6 x y 5 3 3 3 3 , * o . O . . % ; 4 v I Y Y I x 2 ; = ; ; * $ % : 5 V C N N y y t 6 z N B G k q & . . + ; > < 4 5 5 6 6 ",
"V C U Q ` $X$XV.{ T C V V v l 3 1 , 1 1 : * % o o % * ; 4 x I Q ! ! Q I x 4 2 4 4 > * % ; 3 m N N m 6 1 1 3 6 m M d r 9 & % @ ; 4 l V C P C C C ",
"Q Q ! ` ' $X%X%X] ^ Y R U I v 5 1 > > < 1 1 1 1 1 1 5 6 v I Q ( ' ' ( Q I v v v v 6 < ; ; 1 y m m y 1 ; ; ; 3 y y y e , : 1 3 l c R Q Q Q Q Y T ",
"` ` ' ' ] $X%X%XV.` ^ Q Q Y C 6 2 < < 2 5 6 l z V V V P I Q ( ' V.V.] ! E R I Y U c 6 < > 1 3 5 5 3 , * % * , 3 3 3 3 3 5 l V I W ! ` ` ` ^ ^ ! ",
"V.V.V.] V.$X%X%X$X] ` ^ ! Q I x 4 < < 4 6 x C I U R Y Y Q ! ` V.$X$XV.` ! Q Q Q Q I x 4 < > 1 1 1 1 ; * % % : 1 1 2 4 6 x C U Q ! ` V.V.] ' ` ` ",
"%X%X$XV.V.C.%X%X%XV.' ` ! Q I x 4 < 2 4 x C U T E Q Q Q Q ( ' C.%X%XC.' ! Q Q ! Q Y v 7 < > : , , : ; % o % = : < 2 4 l C U T ! ` V.$X%XV.] ' ` "
};
