/* XPM */
static const char *wall_29[] = {
/* columns rows colors chars-per-pixel */
"72 72 234 2 ",
"   c #4D0B16",
".  c #4D0E19",
"X  c #490916",
"o  c #500F1A",
"O  c #4E121D",
"+  c #45121E",
"@  c #51141E",
"#  c #4C1621",
"$  c #4D1C25",
"%  c #4D1E29",
"&  c #511720",
"*  c #531B23",
"=  c #561F26",
"-  c #552027",
";  c #55232A",
":  c #59262B",
">  c #55282E",
",  c #59292E",
"<  c #5B2227",
"1  c #552C32",
"2  c #5A2D32",
"3  c #553135",
"4  c #5C3235",
"5  c #56343A",
"6  c #5C3539",
"7  c #56393C",
"8  c #5D393C",
"9  c #4E272F",
"0  c #632B2D",
"q  c #692E2D",
"w  c #622F31",
"e  c #623536",
"r  c #623C3D",
"t  c #6C3D3A",
"y  c #683535",
"u  c #763C37",
"i  c #6E302A",
"p  c #621E21",
"a  c #6C413E",
"s  c #67413F",
"d  c #75443D",
"f  c #7A443C",
"g  c #754A3E",
"h  c #563A41",
"j  c #5C3D41",
"k  c #593740",
"l  c #613F41",
"z  c #5C4144",
"x  c #5C4549",
"c  c #5C4B4C",
"v  c #564343",
"b  c #5B4F52",
"n  c #5E5253",
"m  c #5B5A5C",
"M  c #634343",
"N  c #6A4643",
"B  c #664847",
"V  c #6D4944",
"C  c #644A4B",
"Z  c #6B4E4B",
"A  c #62474B",
"S  c #724641",
"D  c #734C45",
"F  c #7A4E45",
"G  c #734D48",
"H  c #794E48",
"J  c #6C514E",
"K  c #7C5245",
"L  c #75514A",
"P  c #7C5349",
"I  c #745147",
"U  c #634D51",
"Y  c #625355",
"T  c #645C5C",
"R  c #6A5C5C",
"E  c #685559",
"W  c #795C54",
"Q  c #77635D",
"!  c #6B605E",
"~  c #695F60",
"^  c #656363",
"/  c #6B6465",
"(  c #6D6B6B",
")  c #6B6969",
"_  c #746C69",
"`  c #69726F",
"'  c #6C7D78",
"]  c #737373",
"[  c #757976",
"{  c #767B79",
"}  c #787E7C",
"|  c #727070",
" . c #844C3E",
".. c #8D573E",
"X. c #9A623E",
"o. c #A0663D",
"O. c #814C42",
"+. c #835445",
"@. c #895546",
"#. c #865946",
"$. c #8B5B45",
"%. c #845549",
"&. c #84594A",
"*. c #8C5A4A",
"=. c #89574A",
"-. c #925D45",
";. c #915E4B",
":. c #9B5B43",
">. c #875D51",
",. c #905F51",
"<. c #8E604A",
"1. c #956145",
"2. c #9C6545",
"3. c #95614A",
"4. c #9B654A",
"5. c #9D684A",
"6. c #9E6944",
"7. c #8C6253",
"8. c #86685C",
"9. c #8B6B5D",
"0. c #866155",
"q. c #946454",
"w. c #9A6552",
"e. c #9D6953",
"r. c #976D5B",
"t. c #9D725C",
"y. c #A46C45",
"u. c #AA6E45",
"i. c #A36C4B",
"p. c #A96F4A",
"a. c #A26644",
"s. c #AB7246",
"d. c #AC724B",
"f. c #AA744D",
"g. c #B2764D",
"h. c #B5794C",
"j. c #BB7D4D",
"k. c #B6774A",
"l. c #A46C53",
"z. c #A66C59",
"x. c #AB7353",
"c. c #A4735D",
"v. c #AC725B",
"b. c #A97556",
"n. c #B37652",
"m. c #B47B53",
"M. c #BB7D55",
"N. c #B3755B",
"B. c #B57A5B",
"V. c #BC7D5A",
"C. c #BA7757",
"Z. c #846E63",
"A. c #8C7366",
"S. c #867468",
"D. c #967C6B",
"F. c #A87C65",
"G. c #B47B62",
"H. c #BB7D63",
"J. c #B37963",
"K. c #C17E5B",
"L. c #78827E",
"P. c #77837D",
"I. c #6F807B",
"U. c #B6825A",
"Y. c #BD835C",
"T. c #BA8459",
"R. c #A8856C",
"E. c #B98768",
"W. c #B68E73",
"Q. c #B99377",
"!. c #AC8A74",
"~. c #C2835D",
"^. c #C5885C",
"/. c #C58563",
"(. c #C98663",
"). c #C38B64",
"_. c #CA8965",
"`. c #CD8C6B",
"'. c #C6896B",
"]. c #D18E6C",
"[. c #D18D67",
"{. c #C3946B",
"}. c #CD926D",
"|. c #C79368",
" X c #D5936D",
".X c #CF9471",
"XX c #CC9B74",
"oX c #C49D7B",
"OX c #CB9D7A",
"+X c #C49775",
"@X c #D29472",
"#X c #D29A76",
"$X c #D49D79",
"%X c #DB9B77",
"&X c #CDA37C",
"*X c #CAA078",
"=X c #D3A47D",
"-X c #DCA37C",
";X c #D3A87E",
":X c #D4A479",
">X c #E0A178",
",X c #7A8681",
"<X c #7B8B83",
"1X c #758D87",
"2X c #79928A",
"3X c #769690",
"4X c #80A59E",
"5X c #85ADA5",
"6X c #C49E81",
"7X c #CBA786",
"8X c #D6A680",
"9X c #D5AC83",
"0X c #DAAC83",
"qX c #D9A884",
"wX c #D7B086",
"eX c #DAB187",
"rX c #DCB48A",
"tX c #D6B48B",
"yX c #CAB794",
"uX c #DBB994",
"iX c #CDB18F",
"pX c #E4AD88",
"aX c #E2B48C",
"sX c #E3B98E",
"dX c #E5B187",
"fX c #E4BC93",
"gX c #EABE94",
"hX c #ECBD98",
"jX c #D4C19D",
"kX c #E9C097",
"lX c #EAC399",
"zX c #F2C79A",
"xX c #D4C9A6",
"cX c #F7CEA2",
/* pixels */
"5X4X3X1X` m c j h h h h h z U ^ ) ) ^ / _ S.D.D.D.S.S.S.S.D.!.6X7XiXyXxXxXxXjXiXQ.!.D.S.S.S.S.D.D.D.S._ / ^ ) ) ~ U z h h h k h j c m ` 1X3X3X5X",
"4X3X2X' ^ b z h k h h h k h x Y T ^ T T / _ A.A.A.A.Z.Z.A.D.!.6X7XiXyXjXxXxXuXiX6X!.D.A.Z.Z.A.A.A.A._ Q T ~ ^ T Y x h 7 h h h k h z b ^ ' 2X3X3X",
"3X1XI.) n h 5 5 6 h j h 5 5 6 z C Y Y Y E W Q 8.9.9.8.8.9.F.Q.7XiXiXyXyXjXjXuXtX7XW.D.9.8.8.9.9.8.Q W E Y Y Y C z 6 5 6 h j h 6 5 5 h n ) I.1X3X",
"' ` ^ n 7 > - > 2 8 j 8 2 > ; 1 4 7 z A C Z J W 0.7.7.*.q.F.+X9XrXtXtXiXtXuXuXuX9X+XF.q.*.7.7.0.W J Z C A z 8 4 1 ; > 2 8 j 8 2 > - > 7 n ^ ` ' ",
"T n x 5 = O O * : 6 r 6 : * @ @ * 2 8 M N N N D %.*.@.+.*.c.OXaXgXaX9X9X9X0XsXgXaXOXc.*.+.@.*.%.D N N N M 8 2 * @ @ * : 6 r 6 : * . O = 5 x n T ",
"v 7 3 ; @   X . = , 4 , * @ . @ - 2 t S S S g F @.@. .d +.c.OXgXzXsX0X=X&XqXsXzXgXOXc.+.f  .@.@.F g S S S t 2 - @ . @ * , 4 , = . X   @ ; 3 7 v ",
"1 > ; * @ .   . & - : * @ @ @ ; 4 r D F @.$.$.$.*.@.d t S r.6XkXzXgX9X&X&X9XfXzXkXoXr.S t S @.;.$.$.$.@.F S r 4 ; @ @ @ * : ; & .   . @ = ; > 1 ",
"- = = * * & @ * * * * * & & - 2 r N H %.3.5.i.i.5.*.S r N 9.oXfXzXfX9X&X&X9XfXzXfXoX9.N r S *.5.i.i.5.3.%.D N r 2 ; * & * * * * * @ @ * * = = - ",
"& & @ @ & * < 0 , : - % - ; > 2 6 r D %.3.f.g.g.f.3.F r N 0.W.aXgXsX9X7X7X9XsXgXaXQ.7.N r D 3.f.g.g.f.3.%.D r 6 2 > - % % - : , 0 < * & O @ & & ",
"@ @ O . @ < y u t e 1 1 1 2 1 > , 2 r D <.p.h.j.h.i.+.g S 7.E.-XdXdX9X9X9X9XaXdXqXE.7.S g +.5.g.j.h.p.<.D r 2 : : 2 1 1 1 1 e t u y < @ . O @ @ ",
"* * O O * 0 f +.K N r 8 j r 4 : * ; 5 N &.5.d.h.h.p.1.@.%.w.H.@X-XqX9XwXwX9XqX-X@XH.w.%.@.1.p.h.h.d.5.&.N 5 ; = : 4 r 8 8 r N K +.f 0 * O O * * ",
": ; = $ ; y O.*.*.P V N V V r , - > 5 M I $.4.i.i.i.5.w.e.v.H.`.#X;X9XwXwX9X=X}./.N.z.e.l.f.d.d.u.4.&.I M 5 > - , r V V N V P *.*.O.y ; $ = ; : ",
"4 4 2 1 4 a +.;.;.%.P P P K S e 2 1 7 M N I K #.-.4.l.v.G.H./.`.@X=X9XrXrX9XXX).C.n.N.G.V.M.g.u.1.K D N M 8 1 2 e S P P P P %.;.;.+.t 4 1 2 4 4 ",
"r r 8 7 r N +.*.*.=.%.%.=.%.F N r 8 j M M N V D +.;.l.B./._.`.`.@X=X9XrXrX9XXXT.g.n.V././.M.d.2.+.V M M M l 8 r N F %.=.%.%.=.*.*.+.N r 8 8 r r ",
"M M z z M V F %.=.*.*.*.*.=.+.D N M M M M N D F +.;.l.B./._._.`..X=X9XrXrXeXXXY.n.n.V./.~.n.i.$.K D N M M M M N D +.=.*.*.*.=.=.+.F N M z z M M ",
"z M M M M N V D +.=.*.;.*.=.%.+.F V M M N D +.%.=.;.e.n.Y.~.(.`.@X=X9XrXfXrX;X`.V.M.M.M.m.i.3.*.&.P D N M N V H +.%.=.*.;.*.=.P D V N M M M z z ",
"M M M M M M M N D %.*.;.*.*.*.*.%.F N M N F %.=.=.*.3.i.g.M.(.`.@X=X9XrXfXfXeX#X_.K.C.n.i.4.;.*.=.%.F N M N F %.*.*.*.*.;.*.%.D N M M M M M M M ",
"D V N M j h h j N F @.*.;.3.4.4.;.@.D N N S F F F F +.1.u.M.(.}.$X=X9XrXfXgXaX8X.X/.M.n.p.i.4.;.%.F N M N S +.-.4.3.3.;.*.@.F N M j j j M N V D ",
"%.P D N j h h j M D @.;.4.i.i.i.i.3.+.D N a a r r a g ..u.T.|.#X;X9X9XrXfXgXfX0X$X|.~.V.V.C.v.w.K a r r S +.-.2.i.i.5.4.;.@.F N z h 7 j N D K %.",
"*.%.K D M j j M V P *.4.i.p.d.d.p.5.;.%.F D N M M N K -.d.^.XX;X9X9X9XrXfXfXfXrX9XXX`._._.[./.c.&.N M D %.3.i.p.d.d.p.i.4.*.P V M j j M D K %.*.",
"@.@.+.K D V V D %.,.w.l.p.u.s.s.d.f.l.e.q.7.0.W W >.7.l.U.|.;XeXrXeX9X0XrXfXfXrXwX8X$X#X%X%X#XE.r.>.W 7.t.v.B.m.n.g.d.f.l.w.*.H V N V D K @.%.=.",
"+.+.@.$.$.$.$.<.w.v.N.N.d.u.u.s.d.n.B.G.G.R.R.R.R.R.R.E.{.=XeXfXfXeX9X9XwXrXrXsXsXrX0X0XpXdX0XOXW.F.F.R.W.{.'./.V.g.d.n.B.N.z.>.H K #.*.;.*.%.@.",
"=.*.3.4.i.y.6.i.x.H././.m.d.u.s.d.n.V./.}.+XoXoXoXoXoXOX=X0XaXfXfXrX9X9X9X0XrXsXfXfXaXaXaXfXaXeX&XoXoX*X*XOX.X_.V.g.d.n.~./.J.q.%.$.4.i.5.3.*.=.",
"r.e.b.x.n.g.u.u.n.~.`.`.).U.g.s.u.g.C.~.'.}.XXXX=X=X;X9X9XeXsXfXrXeX9X;X=X9XwXaXfXgXgXgXfXfXfXrXwX9X9X9X=X#X`.~.n.s.s.M.(.`.H.l.-.-.6.u.p.i.w.w.",
"E.E.E./.K.k.u.u.g.K.`.@XXX{.Y.g.u.u.g.C.M.T.Y.).}.#X=X9X9XeXrXrXeX9X9X=X=X9X0XrXfXkXkXgXfXsXrXeXwX0XqX=X#X`.~.C.d.y.s.M._.]./.x.2.X.o.u.g.n.N.N.",
"&X*XOX.X_.V.g.d.n.K.`.$X;X=X{.U.d.u.d.g.m.m.m.T.).}.$X;X9XwXwX0X9X9X9X9X9X9XeXsXfXkXkXfXsXrX0X9X9X9X8X$X}./.V.g.s.u.d.M._.`./.m.p.a.y.d.m.Y./.'.",
"wX9X9X=X@X).Y.U.Y.)..X=X0X9X*X).U.m.m.U.U.U.U.Y.'..X$X8X9X9X9X9XwXrXrXrXrXrXfXfXgXkXfXfXrX0X9X9X9X9X8X$X.X`.E.U.m.g.n.V./.`._.Y.m.m.m.U.E.|..X#X",
"tXwX0XqX=XXXXX{.{.XX$X;X9X9X=XXX{.).{.{.{.{.{.{.XX=X;X9X9X9X9X9XeXfXfXfXfXfXfXkXkXfXfXrXwX9X9X9X9X9X9X;X$XXXXX{.).Y.V.K./._.`.'.{.{.{.{.XX=X=X;X",
"9X9X9X9X9X=X=X=X=X=X9X9X9X9X9X=X=X&X=X=X=X=X=X=X;X8X9X9X9X9X9X9XeXrXfXfXfXfXfXgXfXfXrX0X9X9X9X9X9X9X9X9X9X9X;X=XXX}._._._.`.@X#X=X=X=X=X=X;X9X9X",
"8X8X;X=X=X=X=X8X9X9XwXeXeXeXeXeXwX0XqXqX0X0X0XqX;X8X9X0XeX0X9X8X8XqX0X0X0X0XeXaXaXaX0XqX0XwXeXwX9X9X9X9X9X9X9X9X;X$X#X@X@X%X-X0XrXrX0X8X;X;X8X8X",
"$X$X$X#XXXXX#X$X=X9XeXrXrXrXrXrXrX0X-X-X-X-X-X-X$X$X;X0XrXwX8X$X.X}.|.|.|.|.XX-X-X-X-X-X-XeXrXrXwX9X9X9X9X9X9X9X9X8X;X-X-X-XdXsXsXaX0X$X#X$X$X$X",
"}.}.}..X}.`.`.}.#X;X9X9X9X9X9XwX9X;X#X}.`.}.}.`.`.}.#X;X9X9X$X}.).Y.m.m.m.m.~.`.@X@X@X}.#X;X9XwXwX9X9X9X9X9X9X9X9X9X9X;X;X8X9X9X9X;X#X}.`.`.}..X",
"/./._.]. X[._.(.|.XX:X&XOX+XoXOXOX+XE.G.v.v.v.N.K.(.|.+X+XXX}._.K.n.i.a.a.p.n.V./.H.H.J.G.W.+X&X9XeXeXwXwXeXrXrXwX;XXX+XW.W.W.W.W.W.E./././././.",
"n.V./.[. X[./.Y.~.^.).).E.E.E.E.E.F.t.q.%.O.O.:.p.M.Y.E.G.E.~.~.C.i.4.-.1.4.i.x.v.l.q.,.q.r.F.W.&XeXrXrXrXfXgXfXrX:XE.B.t.9.8.8.9.r.z.v.N.C.M.V.",
"d.g.V./.`._.V.g.g.g.m.x.e.q.q.w.q.7.&.H r , 0 u 2.g.m.l.q.e.x.g.d.5.;.*.*.;.3.4.3.*.P G D %.q.G.+X9XsXfXfXfXkXfX;X|.m.5.&.L Z Z L P *.3.l.d.g.h.",
"s.g.m.B.G.v.l.i.6.2.3.<.&.+.F O.f d a r > # @ i ..p.f.3.%.+.$.4.4.3.*.&.%.%.%.%.%.H N N N K ;.b.E.*XwXfXkXkXfXqXXXY.s.1.+.D V N V D F %.3.i.d.h.",
"k.d.p.w.q.,.3.1.$.+.K I D V a y q 0 w , $ + O q  .4.4.&.D N D K #.=.=.%.P D D D D N M M V @.2.f.m.).=XsXkXfX;X|.T.d.u.6.1.$.+.K D V N D #.4.s.h.",
"h.d.4.&.G H &.;.$.K V N N N r w < = * * # O * q  .;.*.P N M M V K =.*.%.D N M N N M j M D 3.p.d.d.m.{.rXgXrX}.m.d.s.d.d.p.i.4.3.%.F M N K 4.d.h.",
"g.i.$.D M V *.w.4.@.g V V V r 4 ; * @ O # # ; e D +.P D M j M V K =.*.%.D M z M M 8 5 r F 4.n.k.u.u.Y.;XaX8X).g.u.g.M.T.j.g.d.i.;.H M M K 2.d.j.",
"p.4.+.N j G q.N.n.4...g K H V r 1 - O O # - 1 r N V V M M M N F %.;.;.+.N j j M M 5 1 , f i.V.M.u.y.m..X-X#XY.g.g.M./.^.~.h.d.i.;.H M M K 2.d.j.",
"5.;.K N M P c./.(.m.i.1.$.%.P V r 1 = * * 2 r M N N M M M V F %.*.;.*.K V M M B M 1 $ * u z._._.M.d.m.`.@X`.M.d.g.Y._./.M.d.i.4.*.H M M K 4.d.j.",
"3.*.K N V >.J.]. X[.Y.x.5.-.+.D N r 2 : w t D H H D N M M D +.*.;.*.%.P H D Z Z M 1 + & u N.$X-X}.Y.T././.V.f.i.x.B.H.B.x.4.1.$.%.V j j D 1.i.g.",
";.=.+.D F ,.J.].>X-X#XE.x.2...+.H S t t d F P %.%.K D M M D %.;.*.%.I I P %.P I M 9 + @ u G.0XgXeXXX).~.M.d.4.3.4.l.z.e.*.+.K K D M h j D =.4.i.",
";.*.@.+.%.w.N.`.-XdXrX=XY.s.2.$.%.%.+.+.+.+.%.=.*.%.D M M V %.*.%.D N V K %.&.I M 9 + * f E.aXzXzXrXXX^.g.a.1.;.3.3.3.*.K V N N N M j M D %.;.4.",
"*.*.=.=.*.5.n./.-XaXgXaX:XY.x.4.;.;.3.3.;.&.+.%.%.+.D M M V P &.K N 8 r d F F I N 1 $ ; F E.aXcXcXkX;X).g.a.1.3.4.5.4.=.D M j M N V S D K %.*.*.",
"*.*.=.*.;.4.p.V.@XaXkXlXsX=XE.x.5.2.i.i.3.%.D D D D N M M N L I V e 2 : 0 y u V N 7 1 4 O.J.8XzXcXlX0X).g.a.2.5.i.f.i.-.D l j M D +.$.$.*.*.=.=.",
"*.*.=.*.*.-.a.g.|.;XfXlXkXrXXXU.p.y.u.p.3.K N M M N N M M N N N r 2 * * * < w r M 7 5 r P v.@XdXkXfX9XE.d.a.a.p.d.g.p.1.D M M D %.3.i.i.4.3.*.%.",
"*.*.%.%.%.+.-.p.Y.#XaXhXhXaX#XY.d.u.u.i.3.D M j z N B N N M r 4 , * @ O @ * < 2 6 5 7 z P l.(.>XdXaXOXU.i.2.a.s.d.s.4.#.V N V +.3.i.d.d.i.4.*.=.",
";.=.%.P D F +.4.B.}.-XpXpXqX}.Y.g.u.y.4.=.S M j z M B B N r 4 > * @ O O O & * < : 1 5 M K 5.M. X>X-X'.b.1.X.6.u.u.1.+.V M N D $.i.g.g.d.i.4.;.=.",
";.*.%.D N N F ;.b./.@X%X%X@X).M.d.u.4.;.%.V M j j M N N M 6 , * * & * * * * * * * > 5 M K 3.g.^. X@XE.z.;.1.u.d.i.$.V j h M I 3.p.h.h.d.i.3.*.%.",
"3.*.%.D M M N %.w.B.(.[.[.(.V.x.i.4.3.*.%.G N j 8 8 r r 6 4 , ; ; ; ; ; * * & * - 1 r V K $.i.M._.]./.v.w.l.n.M.x.&.N 5 5 8 D ;.f.j.j.g.5.*.+.F ",
"4.;.%.D M j M D *.x.M.^.^.M.n.i.4.3.;.*.&.L N 8 4 , : : , 2 2 2 4 6 4 2 * * # - 1 r N F +.$.3.x./.`.'.H.N.V.(.(.B.7.N 3 9 2 t @.i.m.T.h.5.#.D N ",
";.*.%.D M h j N +.5.g.M.M.g.i.4.;.*.*.*.%.D M 5 > * * * * , 4 r M M r 2 * * = 1 r V P %.@.$.;.l.E.`.].'./._.[._.v.>.M 9 $ = 0 f ;.f.g.d.1.K N j ",
"%.%.F D M j j M K 3.i.d.d.p.i.3.*.=.=.%.F a 6 1 - * @ O * > 8 N B N 8 > * * < e V P *.*.*.$.3.l.V._. X].`.`.'.G.q.D 4 % + O = q f -.4.4.$.D M h ",
"D D D N M j j M D #.4.i.i.4.4.;.*.&.P D a 4 > = * & @ O & , r N N r 2 = O * , t P *.*.;.;.3.4.i.m.~._. X].'.J.q.F e - # + O @ < q d  .+.K V M j ",
"N N N M M j j M D +.;.3.3.;.;.;.*.%.I N 8 , * * * * @ O & : r M r 2 * O O * 0 d %.*.*.*.;.5.p.s.s.g.~.[.`.H.q.G 8 > * * & * * * < e t V V N M l ",
"N N N N N M z M D %.*.;.=.%.%.%.%.P V M 6 1 ; * * * @ @ * ; 4 8 4 : * . . * 0 d %.&.P %.;.i.g.d.6.5.x.~.(.v.>.M 3 2 0 0 0 0 < : : 2 r N N N M M ",
"M M N B B M z M D %.*.=.K D D D D D N M 8 6 2 > * * @ @ * * : 2 , ; * O . * , a I L Z D $.p.h.i.$.+.3.n.Y.b.&.M 5 r u f f u t e 4 5 j M N M M M ",
"M M M M M z j M D %.=.%.D N M M N M M M M M r 4 ; * @ @ * * = * * = * @ O * : r N N M N +.i.d.4.K V +.i.g.i.K M l S +.@.@.+.D a r 8 j M M M M M ",
"r 8 6 4 4 4 6 r D P &.P D M z M M M M M N B N 8 > * @ @ * * & @ @ @ @ @ @ * ; 2 8 j j N K 3.4.$.V M D 3.i.4.K M M F =.;.*.%.D a 8 5 6 r r M N B ",
"2 2 > ; ; > 4 r V I I G N M j l M M l M N B N 8 : * @ @ * * @ @ @ @ @ @ & * * ; 2 5 8 N I +.+.D M M D $.4.*.D M N F *.*.&.P N e 2 > > 2 8 M B C ",
"- = = * * , 6 M B N N M M M M M M M M M N N M 6 ; * @ @ * * * * * * * * * * & * * , 6 M N V V M M M D =.;.%.V M N K *.=.P N 6 , * & @ * 2 8 M B ",
". @ * ; 2 l C C N r 4 4 r M N N N N N N N M 8 2 ; * @ @ @ * = - ; ; - = * @ @ @ @ - 2 8 r M M M j M D P &.P N M D %.*.=.D 8 1 = @ o   @ * , 4 6 ",
"X . * 5 U / / R B 4 - ; 4 M B B N B B N M 6 2 ; * * @ @ @ = > 3 7 7 3 > = @ o o @ * ; 2 4 8 l M M M N D I V M M D *.3.&.a 2 % # @ @   O @ * - ; ",
"  * 2 A / { { _ Y 5 * - 4 M B N M M N M 6 , * * * * @ @ * ; 5 z c c z 5 ; * @ @ * * * * , 8 M N M M M N N M j M D &.*.O.q * # # * * & * * = * * ",
"; 2 l E ] ,X,X[ ~ M 2 2 6 z M 8 4 4 e 4 , * O     . O @ - 3 z n T T n z 1 - = - - * O @ ; 6 N Z Z N l r 8 8 j N D F f i < O . O = > 1 2 2 2 2 2 ",
"M A E ~ ] ,X,XL.] R C z z v 8 2 : < : : * @   X X   O $ 1 v Y ^ ) ) ^ U 7 1 1 3 1 - O @ * 4 B J J B r 2 , 4 8 N N t q p @   O $ 1 7 z C U U C C ",
"/ / ) ( ] } ,X,XL.] / R Y c 7 > * * * * * = * @ @ * - 3 z Y ^ ( ] ] ( R c z v x z 5 - * - 4 M C B M 4 ; * > 8 M r e < @ @ * - 3 z Y R / ( ) / / ",
"{ { [ [ { L.,X<X,X} ] ( ^ Y x 5 > - - > 1 4 6 6 8 8 z c Y ^ | [ L.L.[ ( T Y Y T Y c 5 > > 2 6 r r 6 , * * * 2 6 6 2 > > 2 6 z C T ) ] { { ] ] ] ",
",X,XL.L.L.,X<X<X,X} ] ] ( / Y x 5 3 3 5 j C E E R ! ! ^ / ( [ L.<X<XL.[ ( / / / / T c 7 1 > , , , , ; * & * ; , 1 3 5 j A E R ) | [ P.L.} { ] ] ",
",X,X,X,X,X,X<X<XL.{ ] ] ] ( ^ Y z 7 7 z c T / ] [ [ ] | ( ] } ,X<X<X,X} ] ( _ _ ( / Y z 3 ; * * * * * * * & * * > 5 z b R / ] [ P.P.,X,XL.[ ] | ",
",X,X,X,X,X<X<X<XL.[ ] ] ] ] ) T c v v c Y / ] L.<X<XL.[ ] ] P.,X2X2X,XL.[ ] ] ] ] ) T c 5 ; * @ @ * * * * @ @ * ; 7 c T ) ] } ,X,X<X2X,XL.[ ] | "
};
