/* XPM */
static const char *wall_40[] = {
/* columns rows colors chars-per-pixel */
"72 72 235 2 ",
"   c #4D0B16",
".  c #460B1A",
"X  c #4D0E19",
"o  c #4C0611",
"O  c #500D18",
"+  c #4E111C",
"@  c #51131D",
"#  c #4A010D",
"$  c #4E1620",
"%  c #4D1A25",
"&  c #451121",
"*  c #511720",
"=  c #531A23",
"-  c #551D25",
";  c #410F21",
":  c #4E222A",
">  c #552027",
",  c #55242B",
"<  c #58252B",
"1  c #55282E",
"2  c #5A292E",
"3  c #5B2227",
"4  c #4E2D35",
"5  c #552C32",
"6  c #5A2E33",
"7  c #502630",
"8  c #4D313B",
"9  c #543236",
"0  c #5C3236",
"q  c #55353A",
"w  c #5D3539",
"e  c #563A3D",
"r  c #5D3A3D",
"t  c #662A29",
"y  c #612F32",
"u  c #633334",
"i  c #613739",
"p  c #623B3C",
"a  c #6A3D3C",
"s  c #6A3734",
"d  c #723C36",
"f  c #72372D",
"g  c #65413F",
"h  c #6B423E",
"j  c #74453E",
"k  c #7A453D",
"l  c #7A4A3C",
"z  c #563A41",
"x  c #5C3E41",
"c  c #503640",
"v  c #603E41",
"b  c #5E4244",
"n  c #5B4A4A",
"m  c #574645",
"M  c #5C5452",
"N  c #5F4F50",
"B  c #634343",
"V  c #6B4643",
"C  c #664847",
"Z  c #6D4945",
"A  c #654B4A",
"S  c #6D4D4A",
"D  c #624649",
"F  c #724640",
"G  c #734B44",
"H  c #794E45",
"J  c #734D48",
"K  c #7A4F48",
"L  c #794640",
"P  c #6B524E",
"I  c #7C5246",
"U  c #75524A",
"Y  c #7C5249",
"T  c #7A584C",
"R  c #654E51",
"E  c #645355",
"W  c #695659",
"Q  c #635B5B",
"!  c #675758",
"~  c #65605F",
"^  c #656361",
"/  c #6C6465",
"(  c #6C6B6A",
")  c #6E6769",
"_  c #716D6D",
"`  c #706666",
"'  c #6E7270",
"]  c gray45",
"[  c #757A77",
"{  c #767B7A",
"}  c #787B7B",
"|  c #777778",
" . c #726F70",
".. c #6C5F62",
"X. c #8B523A",
"o. c #93583B",
"O. c #9A603C",
"+. c #A8693F",
"@. c #804D42",
"#. c #835445",
"$. c #8B5643",
"%. c #8C5B45",
"&. c #835549",
"*. c #88574A",
"=. c #85594B",
"-. c #8C5A4A",
";. c #865945",
":. c #925C44",
">. c #925E4B",
",. c #9B5F4B",
"<. c #875E50",
"1. c #89614D",
"2. c #936244",
"3. c #9B6444",
"4. c #9E6947",
"5. c #95614B",
"6. c #9B644B",
"7. c #9D694A",
"8. c #8A6659",
"9. c #946352",
"0. c #9C6551",
"q. c #9F6855",
"w. c #996A59",
"e. c #9C715F",
"r. c #A36B45",
"t. c #AA6D44",
"y. c #A46C4B",
"u. c #A96E4C",
"i. c #A26647",
"p. c #AC7246",
"a. c #AD734A",
"s. c #A4704E",
"d. c #B1764B",
"f. c #B57A4B",
"g. c #B97B4B",
"h. c #B47545",
"j. c #A46A53",
"k. c #A76C55",
"l. c #AC7252",
"z. c #A4725B",
"x. c #AC745B",
"c. c #AB785B",
"v. c #B37553",
"b. c #B57A53",
"n. c #BB7C53",
"m. c #B5755A",
"M. c #B47A5C",
"N. c #BC7B5D",
"B. c #BC7658",
"V. c #A87962",
"C. c #BA7D62",
"Z. c #B87E66",
"A. c #997263",
"S. c #C27F5A",
"D. c #C57F61",
"F. c #76817C",
"G. c #78827E",
"H. c #BE8056",
"J. c #B6825B",
"K. c #BB845B",
"L. c #BC875C",
"P. c #BD8264",
"I. c #BE8A62",
"U. c #B8876B",
"Y. c #B58C71",
"T. c #BE9475",
"R. c #AD8060",
"E. c #C28456",
"W. c #C4835C",
"Q. c #C8885C",
"!. c #C48462",
"~. c #CA8565",
"^. c #C28D64",
"/. c #CC8B65",
"(. c #C38B6B",
"). c #CE8C6B",
"_. c #C48669",
"`. c #D28D6D",
"'. c #D38F65",
"]. c #C49065",
"[. c #C6946B",
"{. c #CB936D",
"}. c #C9986E",
"|. c #CC9365",
" X c #D4916B",
".X c #C39473",
"XX c #CD9572",
"oX c #CB9C73",
"OX c #C69B79",
"+X c #D39472",
"@X c #D99572",
"#X c #D59A76",
"$X c #D49E79",
"%X c #DA9E7B",
"&X c #D99B74",
"*X c #CD8E70",
"=X c #CDA077",
"-X c #CEA279",
";X c #D2A47C",
":X c #DAA47E",
">X c #D3A87E",
",X c #D9AA7D",
"<X c #D6A276",
"1X c #E3A37D",
"2X c #7A8581",
"3X c #7B8C84",
"4X c #7E928A",
"5X c #7C9087",
"6X c #829D93",
"7X c #80958C",
"8X c #C8A283",
"9X c #D3A782",
"0X c #D6AD84",
"qX c #DAAD84",
"wX c #DCA784",
"eX c #D6B086",
"rX c #D9B087",
"tX c #DBB38A",
"yX c #DEB98E",
"uX c #D6B288",
"iX c #DDBA90",
"pX c #E3AB85",
"aX c #E3B48C",
"sX c #E3B98E",
"dX c #E6B58A",
"fX c #E5BC93",
"gX c #EABD94",
"hX c #E6B791",
"jX c #F3BB91",
"kX c #EAC097",
"lX c #ECC49A",
"zX c #E8C398",
"xX c #F3CC9E",
"cX c #F2C799",
"vX c #F0CBA2",
/* pixels */
"_  .| { ] E 6 * - w C S C B p r x z c z B H #.j r 4 5 p @.6.B.~.+X:X0XuXuX0X:X+X~.N.j.-.G B B I 4.a.s.1.A e , * @ X X @ * * O o O 6 E ] } } { | ",
"_ ] { } ] E 6 * * 6 B A C B B B B b x B G *.-.&.G B B G -.j.N.).#X:X0XeXeX0X:X#X).N.j.-.G x B I 4.a.y.=.B 5 > * @ @ * * - * +   * w W ] } { ] _ ",
"| [ F.2X| W 0 * @ < w B B C V Z G F G I =.6.q.w.8.8.8.8.z.M._.+X$XqX0XeXeX0XqX:X+XP.k.*.V z x I 4.a.y.I w : % * - > < < - * @ * 1 b / | { ] ( / ",
"F.G.2X2X| W 0 * X * 2 w b C S Y &.;.%.2.y.x.C.U.Y.Y.Y.Y.Y..XoX;X;X0X0X0X0X0XqXqX;X(.z.*.V e x I 7.a.i.k > & + * < w r 0 > * = 1 x E ( | ] ( Q ! ",
"3X3X3X2X] W 0 *     * < w B S T -.6.r.a.n.W.).#X;X0XeX0X0X0X0X0X0X0X0X0X0X0XtXtX0X.Xx.-.F r B T 7.a.o.f * . . * 6 p B w < * - 9 n ^ ] ] ) ! n m ",
"4X5X3XF.( R 6 *     X * < 0 a G *.5.y.d.n.Q. X&X<X,XrXsXfXfXyXtXeX0X0X0X0X0XtXyXeXOXM.5.#.j I 1.y.y.:.d - . . @ < w p 0 > @ $ 1 z E ( ( Q b 9 : ",
"4X3XG.' Q b 5 * @ O @ @ * > 6 a G &.5.y.v.E.Q.Q.Q.^.oXqXfXfXyXtXeX0X0X0X0X0XtXyXeXoXJ.y.3.2.6.7.y.6.;.j 0 - + @ = < 2 < - @ + $ , x E Q n 9 - + ",
"7X3X[ ^ n 9 > * @ @ * * @ * > 0 B S I -.6.y.a.p.t.a.K.oX0XtXtX0X0X0X0X0X0X0XtXtX0XoXK.a.t.p.a.u.6.-.T S B 0 > * @ @ * * * * @ @ * 5 m n x 1 * O ",
"7X3X] Q q % + @ * - < > - - , 9 x B S H @.X.X.o.o.r.f.I.oX=X;X;X;X0X0X0X0X0XtXtX0XoXJ.p.h.h.f.y.-.H S A A C r 2 = + X + - > > - - < 9 q 9 1 > - ",
"4X2X( D , X   @ - 5 0 w 0 6 9 q r b V V a u f d o.r.f.J.K.^.{.+X$X9X0X0X0X0XtXtX0XoXJ.p.p.h.d.4.I B b D A A Z p 2 * . + > 0 r p 0 6 < , 1 6 0 i ",
"2X] ! r * o   * < w B C C B B B B C Z B 6 % * f o.a.f.d.a.v.W.).#X;X0X0X0X0XtXtX0XoXJ.a.p.h.a.6.I B x x B C C B 0 > * - 0 B A A B 0 - * > w B A ",
"/ W B 2 @   + < i V U T U U U U U U P B 7 ; . t o.d.f.p.r.t.B.~.+X;X0XeX0X0XrXtX0XoXI.b.d.d.a.4.;.Z p w 0 0 w w 0 2 y s h J U P B 6 * @ - w B E ",
"r w < * X + > w V I =.-.-.-.-.-.-.<.T C 4 ; . t o.d.f.p.r.t.B.~.+X;X0XeX0X0X0XeX0X;X).!.n.f.a.y.5.&.j y > $ $ > 6 s j @.*.&.T P B 5 $ + - 0 B A ",
"* * @ @ * < w B J &.-.-.-.-.-.:.-.&.U B 5 % * f o.a.f.d.a.v.S.).#X;X0XeX0X0X0XeX0X;X#X).W.n.a.y.6.-.k y * . . * t k -.5.5.-.&.J B 6 - * > w B A ",
"  X @ - 2 w b C S Y #.#.#.I H k k a i 6 7 , 2 d $.y.b.n.H.!.).#X;X0X0X0X0X0X0XeXeXqX%X+X~.b.y.6.5.*.F u - $ * 3 d $.7.j.6.-.&.Y Z p 6 < 6 a Z J ",
"  + - 6 p B C C C V Z Z Z V p y 3 - = % : 5 p F &.6.l.S./. X$X>X9X0X0X0X0X0XeXeXeXqX:X@X~.v.6.;.I G B w 0 6 u j $.6.s.y.5.*.*.*.#.F p w a L #.=.",
"+ * < 0 B C C B B B B C C B w < * + @ * < w B Z I -.j.N.).#X:X0X0X0X0X0X0X0X0XeX0X:X#X).N.j.-.H V B x x B Z H -.6.a.a.y.5.-.*.-.-.I V B Z I -.>.",
"* = > 6 w p B B B V Z G Y I j s t t t t u r b B Z I >.x.!.+X:XqXqXqX0X0X0X0X0X0X;XoX(.C.k.>.I V B x b C S T -.7.s.d.d.a.4.5.>.>.-.I Z B Z &.>.6.",
"* * * - > 6 r B Z G &.-.6.4.3.o.X.X.X.X.l h x z b Z &.>.k.P.{.%X:XqX0X0X0X0X;X$XXX_.M.q.-.H Z B x B C J T -.6.y.a.d.d.d.a.y.6.5.*.K C B Z &.-.6.",
"* * @ @ * > 0 B S I -.6.y.a.a.a.a.d.f.a.6.I B z x B V H -.j.N.).#X:X0XuXeX0X:X#X).N.j.-.H V B x x B Z I -.6.y.a.a.a.a.a.a.a.y.6.-.H B B Z I -.>.",
"* * * * - 1 w B Z Y &.;.:.6.y.a.g.E.Q.E.v.9.&.Z B x r g F *.j.N.).;X0XtXtXtXwX%X`.N.j.&.F B b x x B G &.6.a.b.n.v.u.y.y.a.d.a.i.5.&.G Z G &.*.>.",
"* * - < 0 r p B B Z Z V Z G ;.4.f.E.Q./.~.C.k.>.G x q e v F *.j.P.oX0XyXyXyXqX:X`.N.j.&.F B B x z B H %.y.n.Q.!.M.j.5.3.y.d.d.a.y.5.*.I &.*.-.>.",
"+ * > 0 B C C B B B B x x B H 2.a.H.!.).@X@X).x.=.B e x B V L *.z..X0XyXtX0X;X#X).N.j.-.H V B x x B H 2.a.E.'.).Z.q.-.%.4.a.f.f.a.y.5.-.*.*.-.-.",
"  @ < p A P A C B V Z V Z G ;.3.a.n.!.+X1XpX1X(.9.G g Z I H j I w.T.0XtX>X}.(.I.C.m.j.>.I F B x B Z I 2.p.E. X+XZ.q.*.*.3.a.f.g.d.a.6.>.-.-.-.-.",
"  @ < p A P A C V G #.*.5.6.4.r.a.n.W.+XpXjXhXOXe.I l %.3.%.l H w.T.0X,X}.J.l.j.j.0.0.>.&.G B B Z I ;.3.p.E. X+XZ.q.*.;.3.a.f.g.f.a.6.>.-.-.-.-.",
"+ * < w B B B B Z I -.6.u.a.p.p.a.v.N.).pXgXfX8XV.-.$.r.a.r.:.-.V.OX0X,X^.a.3.:.-.-.>.-.I Z B V K -.6.r.a.E./.).Z.q.-.%.4.a.f.f.a.y.5.-.*.*.-.-.",
"> , 1 6 0 0 0 w a G =.5.4.y.r.y.y.u.l.C.+XdXsX$XV.>.:.i.a.u.j.k.U.OX0X<X^.d.3.$.#.&.&.&.G B b V #.6.u.l.b.E.Q.!.m.9.-.:.y.d.f.a.y.5.=.I I *.*.-.",
"e q 9 1 - = - < 0 V U T T #.;.>.6.6.6.j.P.#X:XXXc.5.$.:.6.k.m.P.XX>X0X;X{.W.l.>.#.H G G B x x Z ;.y.b.W.!.W.E.n.y.>.*.5.y.d.d.y.5.&.G G G I *.-.",
"M n r 5 * X X * < w B B B B G &.-.*.&.-.k.!.).!.k.-.H I -.j.N.).%X0X0X0X$X).N.j.-.H V B x x B H 2.a.E./.)./.H.a.3.%.-.5.y.a.a.6.-.G C B Z I -.>.",
"^ Q n r > + + @ - < 0 e z x C J I I G I 5.x.N.x.9.I F G *.0.m./.$XqXtXqX%X`.D.v.6.I V x z x G ;.3.d.E. X+X~.b.r.:.%.>.5.4.y.i.6.-.G x x Z #.5.y.",
"' ( ^ N e , * @ @ * > 6 r b A S S Z C Z =.9.k.9.I V B G *.6.u.n.{.qXyXaX%X`.S.n.y.;.Z x x Z #.2.r.d.E. X+X_.x.6.$.%.>.5.5.5.6.6.-.H v x F %.y.d.",
"{ ] ( Q n q , * @ + * < w B C C B x x B G *.-.&.Z B V Y -.:.i.a.^.qXfXhXwX).W.n.a.2.G B B J -.6.r.a.H./.).C.j.-.&.&.-.-.-.-.>.>.-.H B B I 2.a.g.",
"} | ( ~ n q > @ O X @ > 6 p p r w 9 6 0 i a j j V Z J &.-.:.O.p.].rXlXlXaX+XW.n.p.2.I Z J I -.6.6.y.b.W.!.M.9.I G G I &.&.*.*.=.&.G V Z &.4.d.g.",
"| ] ( Q n 9 > @ O O @ - > < 2 < < > > - - > 2 s k #.=.-.*.$.O.p.].rXlXvXfX;X].H.p.3.;.I Y =.-.>.>.6.a.n.n.l.*.Z B B V G I &.&.H G Z Z I >.y.d.g.",
"{ ] ( Q n q > * @ @ * * * * * * * * = * + + * t k -.9.>.-.$.3.a.^.,XfXlXfX0X}.L.a.4.:.-.-.*.-.*.*.-.6.a.a.7.I B z z B G *.-.&.Z B B G -.6.u.a.d.",
"{ [ ] / E b 9 < > * * * @ @ + X @ * > > $ . X 3 j =.9.9.5.>.4.u.n.[.;XtXtXeX=X^.b.u.6.6.5.2.:.*.I I *.6.4.%.G x z x V &.6.6.*.Z x B I 6.u.a.p.p.",
"2XG.{ ] / E n e 5 > * @ @ @ +   X - 6 0 < + X - i U <.9.5.5.6.6.y.v.I.}.>X0X;XXX!.v.u.r.r.r.4.%.I G H *.%.#.Z x x B I 6.a.a.5.F x V *.u.d.a.p.r.",
"3X3X2X} ] / Q n q , * @ @ * @ @ * 2 p B w < * - 6 B J &.-.-.-.-.:.3.a.L.=X0XqX$X).S.v.a.h.f.a.5.G B V &.-.*.G B B G -.y.d.a.2.G B Z %.a.f.d.a.a.",
"4X4X3X2X{ ' ^ M e 1 * @ @ * - > 2 r C A B w < < 5 0 p d k L G H #.o.t.L.=XtXtX%X`.!.N.n.E.E.n.5.V e p I 5.>.I Z G &.>.6.y.6.;.G V H 2.p.g.g.v.v.",
"4X4X3X2X{ ( ^ M z 1 * @ @ * > 6 p C A A C B w 6 1 < > 3 t y p V H o.p.Q.,XsXaX%X`.~.!.!.'.'.W.0.V q p ;.y.y.-.I I -.>.-.=.I G G H ;.3.t.g.S.W.!.",
"3X3X2X} ] / Q n q , * @ @ * < w B C C B B C B w < * @ @ * , q B H :.a.|.rXfXhX:X).~.~.).@X@X).z.Y B F 2.a.a.6.-.*.-.-.I V B V K -.6.r.a.n.!.).`.",
"G.G.{ ] ( Q n e 5 > * @ @ * < 0 p r 0 0 r C C p > @   + - 5 p V H $.y.I.qXkXgXwXXX~.~.).@X&X#XU.A.8.1.4.p.p.r.:.:.%.#.F p r Z -.j.v.b.L.^.XX$X%X",
"{ | ] ( Q n q < - * * * * * > 2 2 < - > 6 B C r > + + - 0 g G I #.#.>.Z.9XgXlXaX;X{.~.). X$X;X8XOXY.R.a.t.+.+.i.3.:.#.F h F &.j.N./.}.oX=X0X0XqX",
"{ ] ( Q n q > * @ @ * * * * * * * @ + * 2 p B w < * - 6 B U =.*.$.@.-.V.$XfXlXfX0XoX{.).+X$X0XtXtX0XoXK.a.t.p.a.y.6.-.&.#.-.j.N.).&X:X0X0X0X0X0X",
"2X[ ( E q : + @ @ @ * * * @ + X X + @ > 6 p B p 6 < 5 r B U =.>.:.$.5.c.OXhXlXkXyX0X;X#X$X>XeXyXfXsX>X[.L.K.L.L.J.c.z.e.z.c.P.).#XwXtXtX0X0X;X$X",
"4XG.( D , + + @ * * * * * @ X X X * < 0 p B B p p w w r b S &.>.:.3.y.J.oXtXfXkXhXsXaXaXqXqXeXtXtXtXqX>XoXoXoX=XoX.X.XT.T..XoX;X:XqXtXtX0X$XXX).",
"6X3X_ B * o X * - * * * * * @ @ * < w B C C B B B B B b B Z I -.2.r.a.K.oX0XyXfXfXgXgXfXsXtX0X0X0X0X0X0X0X0X0X0X0X0X0X0X0X0X0X0X0XeXuX0X;X+X).~.",
"6X3X_ v @ #   @ * @ @ * > < < > < 0 v C A B B B B C Z Z G H &.*.:.4.a.b.[.;XtXfXgXkXkXhXyXqX0X9X9X9X9X0X0X0X0X0XrXtXtXsXyXtXtXeX0XeX0X0X;X#X+X`.",
"4XG./ v @ o   @ @ + @ - 6 w p i w p B C C B x x b C Z I *.*.*.*.%.:.6.l.P.+XwXhXgXfXhXtX0X9X9X9X0X0X>X=XoXoXoX=X>XqXtXtXtXtXtXeX0X0X0X0X0X;X;X;X",
"2X] ! r *   + * * @ * < w B C C B B B B B B B B x B Z &.-.>.>.-.*.&.-.0.m.).:XdXfXfXyX0X9X0X0XeXrX0X>XoX[.^.^.[.oX>X0XrX0X0X0X0X0X0X0X0X0X0X0X0X",
"' / R w * @ - < < > < 6 r B A A B B b B B Z G V B x B G *.-.>.-.*.&.*.>.l.W.&XaXfXfXyXtXtXtXyXyXtX0X>XoX[.^.^.^.[.=X0X0X0X0X9X0X0X0X0X0X0X0X0X0X",
"~ E b 5 * = 2 w p r w r v B B B B b x B Z I &.H V x x B G &.*.-.*.=.*.:.i.n.|.qXfXkXkXfXfXfXfXhXtX0X9X>X=XoX].^.[.=X0XeX0X0X0X0X0X0XtXtX0X>X;X=X",
"M n e , * - 0 B C C B B B B B B B x x B G *.-.*.G B x x B G &.-.-.-.-.:.3.a.^.,XfXlXkXfXfXgXfXsXtX0X0XeX0X;XoX[.oX;X0XtXrX0X0X0X0X0XtX0X>XoX[.].",
"n m 9 - @ - i C A D B B V V V V V g p h L #.-.*.&.G B x x B H *.>.5.2.:.o.4.P.0XkXlXgXtXqXqXrXrXqX0XtXtXtX0X;XoX=X>X0XrXrXqXrXrX0X0X0X=X[.I.K.b.",
"n m 9 - @ - u C D b b C G H I I H L j j H #.*.-.*.&.G B x B G *.5.4.4.o.X.>.V.9XkXlXaX$X}.oXoX>X0XtXtXtXtXqX0X0X9X0X0X0X0XtXtXtXrX0X>X}.I.b.a.t.",
"M n e , * - 0 B B B B Z #.-.>.-.-.*.*.-.-.*.-.>.>.-.I V B B G -.y.a.a.4.$.-.V.8XfXgX,X[.I.^.[.oX>X0XrX0X0X0X0X0X0X0X0X0X0X0X0X0X0X0X=X[.L.b.a.t.",
"^ Q n 9 > < w C A Z G I >.6.y.j.j.z.c.V.x.j.6.,.>.-.I G Z G &.6.v.E.H.a.3.>.z..XqXaX;X[.].].[.oX=X=X>X;X=X=X;X>X0X0X0X0X>X;X=X=X=X;X=XoX].L.J.b.",
"] ( Q n q q r C S Y *.:.4.u.d.v.C.(.OX$XoX_.m.j.>.*.I H I ;.2.a.E././.N.u.4.s.I.oX;X;X=X=X=X=XoXoXoX}.}.}.}.}.oX=X0X0X9X=XoX[.[.}.oX>X>X-XoXoX[.",
"{ ] ( Q n z r B Z I -.6.y.a.b.S.).:XaXfXdX:X).m.0.-.&.*.-.5.4.a.H./.).!.b.a.a.K.[.=X>X0XtXtX0X>XoX[.[.[.[.[.[.[.oX>X0X9XoX[.^.^.[.oX>X0XqX0X0X0X",
"} | ] ( Q m 0 6 u j *.5.4.u.n.Q.@XpXgXvXxXjXpX).M.q.5.5.6.6.2.4.s.C.!.!.n.n.n.^.[.=X0XtXyXyXtX>XoXoX[.}.oX}.[.}.=X0X0X0X=XoX[.}.oXoX=X>X0XtXtXtX",
"] ] | ] / D 5 * - u G T -.6.v.~.@XpXgXlXvXxXgXwX*XC.v.a.y.2.;.I =.9.k.m.N.W./.}.=X9X0XrXtXtX0X0X>X=X=X;X;X;X=X=X>X0X0X0X>X;X;X>X>X=XoXoX=X0XrXtX",
"_ ] { } ] W 6 * * 6 B S Y -.j.N.).%XdXfXlXlXfXaX#X).W.n.a.2.H B B G -.j.N.).#X:X0X0X0X0X0X0X0X0X0X0X0X0X0X0X0X0X0X0X0X0X0X0X0XrX0X;X}.[.oX;X0XtX",
"] [ G.2XG.` D 6 5 w b C Z H -.j.C.+X1XdXdXtXqX:X%X@X'.E.d.2.Z z 8 r H 9.P.%XpXaXtXeX0X0X0X0X0XtXtXtXtXrX0X0XeXrX0X0X0X0X0XrXtX0X0X=X}.[.oX>XrXyX",
"F.G.2X3X3X[ / E D B B B B Z H -.j.P.@X1X<X}.^.^.{.+X XQ.d.2.G z 8 q V w..XaXgXsXrX0X0X0X0X0XrXtXtXtXtX0X0X0X0X0X0X0X0X0XrX0X0X;XoXoXoX=X0XtXsXfX",
"3X3X3X3X3X2XF.] / R B r r B V H -.k.!.).!.b.a.v.!.)./.E.a.2.I B q 8 B 8.OXfXcXfX0X9X9X0X0X0X0X0X0X0X0X0X0X0X0X0X0X0X0X0XtX0X;XoX[.[.=X0XyXfXfXgX",
"4X3X3XG.2X3X4X3X_ R w 0 w b B V H -.q.k.j.3.3.u.n.!.W.b.y.:.&.G r 4 x 8.8XlXxXfX0X-X9X0X0X>X=X=X=X=X0XrXyXyXtX0X0X0X0XrXtX0X=X[.^.[.>XyXfXkXkXkX",
"4X3X2X{ { 2X4X3X_ B < > 0 B C B V G J I &.&.:.y.f.n.b.y.5.-.-.&.g 9 x 8.8XlXxXfX9X-X9X0X>X=X}.[.].}.>XtXfXfXsXrX0X0X0XrXtX0X=X[.^.}.qXfXlXlXkXkX",
"5X3XG.[ ] { } ] W 6 * * 6 B A C B v x B Z H -.6.a.a.y.5.-.-.>.-.L p B 8.T.fXcXsX0X9X0X0X>XoX[.^.^.[.;XtXfXfXyX0X9X9X0XrXtX0X=X[.[.oXqXfXkXkXfXfX",
"3X3X2X{ ] ) ..E r - @ - 0 B A C B x B B G I -.5.6.4.3.-.*.-.>.>.#.F G 9.U.wXhXsXtXtXtX0X>X=XoX[.[.oX;XqXrXqX0X;X>X9X0XrXtX0X>XoXoX;XqXhXfXhXsXyX",
"3X3X2XG.] ! D 6 - @ @ > w B B B B B F H &.*.*.-.>.>.>.-.*.-.>.-.&.I &.9.Z.#XpXdXhXyXtX0X>X>X;X;X;X>X;X;X=XoXoXoX=X>X0XrXrX0X0X>X>X0XqXtXtXtXtXrX",
"3X3X3X2X] W w *     * 2 i B B B B Z I -.>.-.-.*.-.-.-.-.-.-.-.-.*.&.-.0.m.).:XdXfXfXyX0X9X9X0X0XrX0X>XoX[.^.^.[.oX>X0XrX0X0X0X0X0X0X0X0X0X0X0X0X",
"2X3X3X3X] R <   # o * 6 p B B b B G *.5.6.5.-.*.*.*.-.-.-.-.-.*.*.*.>.j.v.~.%XdXkXkXyX0X9X0XtXyXyXtX>X}.^.L.I.].oX>X0XrX0X0X0XrXtX0X0X9X9X9X9X0X"
};
