/* XPM */
static const char *wall_32[] = {
/* columns rows colors chars-per-pixel */
"72 72 221 2 ",
"   c #3F1524",
".  c #4E0E19",
"X  c #4D0814",
"o  c #500E19",
"O  c #4D111C",
"+  c #41111F",
"@  c #51131D",
"#  c #4D1721",
"$  c #4D1924",
"%  c #401623",
"&  c #521720",
"*  c #521A23",
"=  c #581D24",
"-  c #49232C",
";  c #552027",
":  c #55242A",
">  c #59252B",
",  c #55292F",
"<  c #5A2A2F",
"1  c #4F2C33",
"2  c #4D2730",
"3  c #542C33",
"4  c #5A2D32",
"5  c #543135",
"6  c #5C3236",
"7  c #55353A",
"8  c #5D3539",
"9  c #5C3A3D",
"0  c #5D3937",
"q  c #632B2D",
"w  c #64282A",
"e  c #6A3636",
"r  c #603639",
"t  c #633B3C",
"y  c #6A3B3A",
"u  c #653536",
"i  c #753935",
"p  c #6B433E",
"a  c #74433E",
"s  c #744A3E",
"d  c #7C4B3E",
"f  c #7A463D",
"g  c #553A40",
"h  c #5C3E41",
"j  c #503640",
"k  c #4F3740",
"l  c #603F41",
"z  c #5E4143",
"x  c #5B4A4A",
"c  c #554141",
"v  c #5B5251",
"b  c #634343",
"n  c #6A4644",
"m  c #674847",
"M  c #6E4944",
"N  c #664C4A",
"B  c #6D4D49",
"V  c #694748",
"C  c #724641",
"Z  c #734C44",
"A  c #794E45",
"S  c #734E48",
"D  c #7A4F48",
"F  c #7C5246",
"G  c #7D5249",
"H  c #72544E",
"J  c #635455",
"K  c #615857",
"L  c #655959",
"P  c #6D524D",
"I  c #666562",
"U  c #6C6B69",
"Y  c #6C6566",
"T  c #716D6E",
"R  c #69706B",
"E  c gray45",
"W  c #767B7A",
"Q  c #747E79",
"!  c #83463C",
"~  c #8C573E",
"^  c #905A3C",
"/  c #9B623F",
"(  c #814E44",
")  c #835446",
"_  c #8A5644",
"`  c #865945",
"'  c #8D5C45",
"]  c #835549",
"[  c #89574A",
"{  c #85594B",
"}  c #8C5A4A",
"|  c #925D43",
" . c #925D4B",
".. c #915541",
"X. c #8A5E52",
"o. c #946246",
"O. c #9B6544",
"+. c #9E6946",
"@. c #95624B",
"#. c #9B644B",
"$. c #9D694B",
"%. c #89665A",
"&. c #876356",
"*. c #9C6552",
"=. c #9E6954",
"-. c #9D6D5C",
";. c #966957",
":. c #916B55",
">. c #A06744",
",. c #A46A44",
"<. c #A96E44",
"1. c #A1674A",
"2. c #A46C4B",
"3. c #A96E4B",
"4. c #AB7146",
"5. c #AD734A",
"6. c #A6714D",
"7. c #B1764B",
"8. c #B5794B",
"9. c #BA7C4C",
"0. c #B07346",
"q. c #A46B54",
"w. c #A76953",
"e. c #AC7354",
"r. c #A8775A",
"t. c #B37653",
"y. c #B57B54",
"u. c #BB7D53",
"i. c #B4765B",
"p. c #B37D5B",
"a. c #BB7B5B",
"s. c #B87652",
"d. c #B26F56",
"f. c #9D7362",
"g. c #926F60",
"h. c #A37561",
"j. c #A57962",
"k. c #AA7A61",
"l. c #BA7D62",
"z. c #BB7F69",
"x. c #C27F59",
"c. c #77877F",
"v. c #B78057",
"b. c #BC8155",
"n. c #B5825C",
"m. c #BA845B",
"M. c #BD885F",
"N. c #AD805D",
"B. c #BC8363",
"V. c #BD8A62",
"C. c #B38468",
"Z. c #B78D73",
"A. c #BA9475",
"S. c #C3814D",
"D. c #C28355",
"F. c #C3825B",
"G. c #C28A5C",
"H. c #CC8B5B",
"J. c #C8855A",
"K. c #C48462",
"L. c #CA8563",
"P. c #C28E65",
"I. c #CC8A64",
"U. c #CD8C6B",
"Y. c #C08968",
"T. c #C49066",
"R. c #C6946B",
"E. c #C8966D",
"W. c #C9986F",
"Q. c #C7986F",
"!. c #D4916A",
"~. c #D3966B",
"^. c #D38E71",
"/. c #C49372",
"(. c #C69B73",
"). c #CB9C73",
"_. c #C49B7B",
"`. c #CB9876",
"'. c #D39272",
"]. c #DA9473",
"[. c #D29D74",
"{. c #DA9E79",
"}. c #D89B76",
"|. c #D08F62",
" X c #CEA077",
".X c #CFA279",
"XX c #D1A176",
"oX c #D1A57C",
"OX c #DBA47C",
"+X c #D3A87F",
"@X c #DAAA7D",
"#X c #E0A57B",
"$X c #7B8C84",
"%X c #80958C",
"&X c #869D93",
"*X c #C89F82",
"=X c #CAA484",
"-X c #D6AD84",
";X c #D9AE85",
":X c #D9A986",
">X c #D7B086",
",X c #D9B087",
"<X c #D7B088",
"1X c #DBB38A",
"2X c #DDB88F",
"3X c #DFB991",
"4X c #E4AA84",
"5X c #E1B487",
"6X c #E1B68D",
"7X c #E3B98E",
"8X c #E9B58E",
"9X c #E5BC93",
"0X c #E9BE94",
"qX c #E6C096",
"wX c #EAC197",
"eX c #ECC39A",
"rX c #ECC89D",
"tX c #F2CB9E",
"yX c #F1C79A",
"uX c #F3CBA1",
"iX c #FAD2A4",
/* pixels */
"T.T.P.P.R..X;X2X3X2X,X-X-X-X-X-X-X-X-X-X-X-X-X-X-X-X-X-X-X-X-X-X@X#X].K.q.] Z b b n S ] #.2.5.3.1. .{ H N 9 > & @ . . @ & & . X o 4 J E W W W E ",
"R.R.T.T.R.).oX-X,X-X-X-X-X-X-X-X-X-X-X-X-X-X-X-X-X-X-X-X-X-X-X-XOX}.U.a.w.} Z b b n A } #.4.5.3.#.} G B b 6 : & @ @ & & * & @ . & 6 L E W W E T ",
").).Q.R.T.T.R.).)..XoX-X,X1X1X;X-X-X-X-X-X-X-X-X-X-X-X-X-X,X1X,X+XE.l.t.2.@.F n b n F @.2.7.5.2.@.] Z t 8 , * & = : > : = & @ & , z Y E W E U Y ",
"oXoX.X).T.V.m.m.M.T.).;X6X9X9X,X-XoX+X-X-X-X-X-X-X-X-X+X-X,X7X6X.XC.q.1.2.1.} S b M ` $.7.8.5.$.' Z t 4 : & @ & > 6 9 6 : & * , h K T E E U L K ",
",X-X-X.XR.m.7.5.5.m.R.+X6X0X9X2X-X-X-X-X-X-X-X-X-X-X-X-X-X7XeX0X*Xh.} | ,.5.#.Z b M ' 5.9.9.5.o.G b 7 : & @ . & < t b 8 > & * 5 x I E E Y K x c ",
",X,X-X+X).V.y.5.5.y.P.).+X1X6X6X2X2X2X2X1X;X-X-X-X-X-X-X2XeXuXeX*X-.) ~ ,.7.$.S h M o.9.S.9.2.} S h 7 , = @ o @ : 8 t 6 : @ # , h K U U L z 5 - ",
",X,X;X-XoX).P.m.m.V.P.T.E.[.-X6X0XeXeX0X7X,X-X+XoX-X-X2X0XuXiXeX*Xf.] _ <.7.#.M h M o.9.S.8.#.] M z 9 9 6 > & @ & : < > = @ O # , h K L x 5 * O ",
"-X-X-X,X-XoX).R.T.R.R.T.P.R.XX1X0XeXeX0X6X,X-X-X-X-X,X2X0XyXtX0X_.h.} | ,.5.o.Z b S o.5.7.1.} A n b b b b 8 > & @ @ & & & & @ @ & 3 c x h , & o ",
"-X-X-X,X,X-X X).).).).).R.R.).+X1X6X5X1X;X;X-X,X1X2X1X1X1X6X7X;X/.r.| | ,.4.$.` F F ' o. .] A M b b m N N m r < & O . O * : : = = > 5 7 5 , : = ",
"-X-X-X,X-XoX).).). XoXoXoX.X.XoX[.).).).oX+X,X3X0X0X6X+X).[.oX).P.e.>./ ,.4.4.1.o.' F Z M n b b b b m N N N m t < & . O : 6 9 8 6 4 > : , 4 6 r ",
"-X-X-X,X-XoX).R.)..X-X,X,X-XoX).R.P.T.R.)..X-X7X0X0X1XXXR.T.R.R.V.y.5.<.<.5.8.8.5.o.F b h h b b b b b b b m m b 6 ; & = 6 b N N b 6 = & : 8 b N ",
"-X-X,X,X-XoXR.T.R.oX,X2X2X>XoX).R.T.R.Q.).).oX-X1X1X-X).R.R.R.E.R.P.m.y.y.y.u.x.8.1.) n b n M M n b t 8 6 6 9 8 6 < q e p S H P b 4 & @ = 8 b J ",
"-X-X,X,X,XoXR.T.R.oX,X1X,X-XoX.X X.X.XoX.X).).).).).oX.X.X.X.XoX.X).).R.P.K.F.u.8.2.' G D F ] G S b 8 < ; & $ ; 4 e a ( ] ] G P b 3 # @ = 6 b N ",
"-X-X-X,X-XoXQ.R.).oX-X,X;X-X-X-X-X;X,X-XoX).R.P.P.R.).oX-X,X-X-X-X-X-X+X}.U.F.u.5.+.| } } } } ] S b 6 > & . . & q f } @.@.} ] S b 3 * & : 8 b N ",
"-X-X-X+XoX).).).).oX-X-X;X,X1X2X6X2X,X-XoX).).R.T.R.).-X,X,X,X>X,X2X9X6X4X].L.s.2.o.' [ ] [ ] G M z 7 , * & & > i _ $.q.#.} ] G M r 4 > 4 y M S ",
",X-XoX).).). XoX+X-X-X-X,X6X9X0X9X1X+X).). XoXoX.X.XoX-X,X-X-X-X,X9X0X8X4X].L.t.#.` A Z Z Z S M m h 9 7 6 4 u a _ #.6.2.#.} ] ] ) Z t 8 t Z ) [ ",
",X-XoX).R.).oX-X-X-X-X,X6X0XeXeX0X;X).R.R..X-X,X,X-X-X-X-X-X-X-X2X9X0X8XOXU.a.q.} A n b b b b b b b b z b M D } #.4.5.2.@.} [ } } F n b M G }  .",
",X-XoX).).).oX,X,X,X1X6X0XeXrXrX9X-X).T.R..X,X2X1X,X-X-X-X-X;X2X9XqX9X:X/.k.*.[ F M b h h h h b n M M B B G } $.6.7.7.4.$.@. . .} G n b M ]  .#.",
"-X-X-XoXoXoX-X-X,X2X9X0XeXeXeXqX2XoX).T.Q.oX-X1X,X,X-X-X-X,X2X0XrXqX2X_.j.X.S M M n b b h h b n A ) ) G G [ o.2.5.8.7.7.4.1.#.#.} D m b M G  .#.",
"-X-X-X-X-X-X-X-X,X7X0XqXqX0X9X2X-X.XQ.R.).oX-X,X,X-X-X-X-X,X6X0XwX0X-XC.&.b 7 9 b m b b b h b M ] } } [ } @.1.5.7.5.5.5.5.5.2.#.} A b b M F }  .",
"-X-X-X,X,X-X-X-X,X6X9X9X6X;X-XoX.X).T.T.).oX-X,X,X-X-X-X-X;X;X1X6X5XoXj.Z 2 - 3 b m m b h h b M ]  .@.#.#.2.t.u.y.6.1.2.5.7.5.2.@.] Z M Z ) [  .",
"-X-X-X;X,X-X-X-X,X1X1X;X+X).).).R.T.P.T.).oX,X,X,X-X-X-X-X+X.X).OXOX'.q.e $ % 1 b n m h 9 h b M ]  .#.1.2.s.F.K.i.q.@.o.2.7.8.5.1.@.] F ) ] }  .",
"-X-X-X-X-X-X-X-X;X,X-XoX).R.T.T.R.T.T.R.).oX-X-X-X-X-X;X-X.X(.R.~.}.U.w.i & $ 3 b V m b l h b M G } @.,.5.b.I.U.l.=.} ' O.5.8.8.5.1.@.} [ [ } } ",
"-X-X-X-X-X-X-X-X-X-X-X.X).R.R.).).).).).). XoXoX-X-X;X,X-X.X(.R.W.[.U.d.! w : 6 b n S Z Z M M Z A ` | O.4.D.!.'.z.=.[ _ O.5.8.9.8.4.#. .} } } } ",
"-X-X-X-X-X-X-X-X-X-X-X-XoX.X.XoXoX-X-XoX X).).).oX-X,X,X-X-X.X.XXX[.R.i. .f y 9 z n F ] ] ] G D G ` ' O.4.D.!.'.B.-.[ _ O.5.8.9.8.4.#. .} } } } ",
"-X-X-X-X-X-X-X-X-X-X-X-X-X-X-X-X-X,X,X-XoX).R.).oX-X,X-X-X-X-X-X+XXXR.n.q.} Z b b M F }  . .} [ [ } | O.5.D.I.U.l.=.} ' O.5.8.8.5.1.@.} [ [ } } ",
"-X-X-X,X,X1X1X,X;X-X-X-X,X,X,X-XoX-X-X,X-X).).).oX-X,X-X-X,X,X,X-XXXR.n.q.} G Z M Z A ] } @.#.#.*.q.q.e.s.F.H.K.i.*.} | 1.7.8.5.1.@.[ G G ] [ } ",
"-X-X,X1X6X9X9X7X1X-X-X-X,X,X-X X).).+X-X-X+XoXoX-X-X-X-X-X-X<X-X-XXXT.p.=.} ) F F Z Z Z ) o.2.t.i.l.B.K.K.F.F.u.2. .[ @.2.7.7.2.@.] Z Z Z ) [ } ",
"-X-X,X6X0XeXqX0X6X,X-X-X-X-XoX).R.).oX-X,X-X-X-X-X-X-X-X-X-X-X-X+XXXR.p.=.} _ } } G n b Z ' 5.D.L.U.^.'.U.K.u.5.O.' } @.2.5.5.#.} Z b b M F }  .",
"-X-X1X9XqXeXeX0X9X2X,X-X-XoX).).Q.).oX-X,X,X,X,X-X-X-X-X-X-X-X-X;X+X).C.r.#.#.1.#.] m h p ' 5.D.I.!.].].'.K.s.,.o.'  .@.$.2.2.#.[ Z h h M ) @.1.",
"-X-X1X9XeXeXqX0X0X9X6X;XoX).).).oX+X-X-X-X-X-X-X-X-X-X-X-X-X-X,X,X-XoX(.C.p.y.y.6.' n h p ' 5.D.L.U.'.].'.K.e.#.' '  .@.@.@.#.#.} Z b h Z ' 1.7.",
"-X-X,X6X0X0X0X0XqXeX0X;X).R.E..X-X,X,X-X-X-X-X-X-X-X-X-X-X-X-X-X-X-X-X+X).R.G.b.5.' Z b M ' 5.D.L.U.'.'.U.l.=.} ` ` } } } }  . .} A b b F o.5.9.",
"-X-X;X,X6X9X9XqXrXuXeX1X).T.R.oX,X1X,X-X-X-X-X-X-X-X-X-X-X-XoXoX+X-X>X,X,XoXE.D.<.^ Z M F o.7.J.!.'.].!.K.e.@.G Z Z F ) ) ] ] ] ] Z n M ` $.7.9.",
"-X-X-X-X;X1X9XeXuXuXeX1X).T.R..X-X,X,X-X-X-X-X-X-X-X-X-X-XoX).).).oX-X3X9X6XXXD.<.^ ) G [ +.8.H.~.}.}.|.u.1.` M b b n Z G ) ) A Z M M G  .2.7.9.",
"-X-X-X-X-X,X6X0XeXeX0X;X).R.R..X-X,X,X-X-X-X-X-X-X-X;X,X-XoX).R.R. X-X9XeX0X@XP.5.O.' }  .O.5.b.I.U.I.D.5.o.A b h h b Z ] } ] M b b Z } #.2.5.7.",
"-X-X,X,X1X1X,X;X1X1X;X+X).R.).oX-X,X,X-X-X-X-X-X-X-X,X,X;XoXE.T.T.).-X9XeXeX6X[.V.e.1.#.| ' o.#.q.w.w.3.O.` M h g h n ` #.#.' M h b G #.3.4.4.4.",
"-X,X2X9X9X6X+X).).).).).R.R.).oX-X,X,X-X-X-X-X-X-X-X,X1X,XoXE.P.T.).-X9X0XeX0X6X+XT.y.,.| F S p e i ! ..| ) n h h b F #.5.5.@.Z h n [ 3.7.5.4.<.",
"+X-X1X9X0X5XoXR.P.T.R.R.T.R.).oX-X,X-X-X-X-X-X-X-X-X-X,X-XoX).R.R..X-X2X7X0XeXrX0X@XG.5.o.F b 3 $ & w ! } { S b b Z } 1.7.5.o.S b M ' 5.8.7.5.4.",
" XoX-X;X1X-X XR.R.R.R.R.T.R.)..X-X-X-X-X-X-X-X-X-X-X-X-XoX).).)..XoX-X,X,X6XeXuXrX6XE.y.+.' Z 3 % + > f  .@.G M Z )  .#.1.#.` S n A | 4.9.9.s.y.",
"Q.).).).[.oXoX.X.XoX.X).Q.R.R.)..XoX-X-X-X-X-X,X,X,X+X).).).).oX-X-X-X-X-X,X9XrXeX8XXXM.y.2.' p 3 - r _ 1.2.} G G [  .} [ F S S A _ / <.9.D.K.K.",
"R.R.T.T.R.).oX-X,X,X-XoX).R.P.P.R.).oX-X,X-X-X-X,X-XoX).R.Q.oX-X,X,X-X-X-X-X1X9X0X6XoXR.G.b.5.' M b Z o.5.5.#.} [ } } F n b n D } #.,.5.u.K.U.^.",
").Q.R.R.R.).+X,X2X2X,X+X).T.m.m.m.T. X-X,X,X-X-X-XoX).).).).+X,X,X,X-X-X-X-X,X1X6X1X-X).R.H.b.6.:.&.X.2.5.4.,.#. .' ) C t 9 n [ q.t.p.m.P.E.'.].",
"oXoX.X.X.XoX-X,X,X,X,X-X).T.m.7.7.m.).-X2X1X-XoX X).).).oX+X-X-X,X-X-X-X-X-X-X,X,X,X-XoX).T.G.n.p.r.r.6.4.4.<.,.O.' ( a y p ( 1.a.I.).).).'.'.^.",
"-X-X-X-X-X-X-X-X-X-X-X-X.XR.m.5.5.n.(.-X2X2X-X.XQ.R.).oX-X,X-X-X-X-X-X-X-X-X-X-X-X-X,X-XoX).R.R.E.R.V.y.5.4.4.5.2.#.} ) ) } q.a.U.{.;X-XoX'.U.L.",
",X,X,X,X,X;X-X-X-X-X-X-XoX).V.y.y.m.).-X3X2X-X).T.P.R.oX,X1X,X-X-X-X-X-X-X-X-X-X-X-X,X,X,X-XoX@X@X@X[.K.u.s.u.b.n.p.k.j.k.C.Y.'.{.:X5X:X[.R.K.x.",
"-X;X,X,X,X-X-X-X-X-X-X-X-XoXQ.P.V.T..X,X2X2X-X XT.P.R.oX,X1X,X-X-X-X-X-X-X-X-X+X-X-X<X1X1X1X1X7X7X5XOXE.K.K.K.T.R.(.`..X.XoX+X-X;X:X:X{.U.F.u.8.",
"-X-X-X-X-X-X-X-X-X-X-X-X,X-XoX).R.Q..X-X,X,X-X.XQ.R.).oX-X,X,X-X-X-X-X-X-X-X-X-X-X-X-X-X-X-X-X>X>X-XoX'.U.I.P.R.).oX-X;X-X-X-X>X-X:X}.U.F.s.5.4.",
"-X-X-X-X-X-X-X-X-X-X-X,X,X,X+X).E.E.).oX-X-X-XoX X).).oX-X-X-X-X-X-X-X-X;X1X1X2X,X;XoX[.Q.A.Z.A.A././.I.I.K.K.P.R.(._._.A.A.A.(. X[.!.J.s.3.+.O.",
"-X-X-X-X-X-X-X-X-X-X-X,X,X-XoX).T.T.T.Q. X+X-X-X+XoXoX+X-X-X-X-X-X-X-X;X1X7X9X3X1X@X~.G.e.:.%.%.;.r.p.a.u.u.b.y.p.p.h.;.%.%.g.N.G.H.H.u.3.#.| ' ",
"-X-X-X-X-X-X-X-X-X-X-X-X,X-XoX).R.P.P.R.).oX-X,X-X-X-X-X-X-X-X-X-X-X-X1X7X9X0X3X-X).G.5.' s b m S } #.2.5.7.7.5.2.#.} Z b b Z o.5.9.9.5.$.@.} ] ",
"-X-X-X-X;X,X,X-X-X-X-X-X-X-X+X.X).Q.Q.)..X-X-X,X,X,X,X2X2X2X2X2X,X;X,X6X9XqX9X;X).V.6.' s 0 7 7 t Z _ o.,.4.4.4.,.O._ s t r p ! | O.O.o.' } } } ",
"-X-X-X,X,X,X,X,X-X-X-X-X-X-X-X-XoXoXoXoX-X-X,X,X,X,X2X9X0XqX0X0X9X6X6X9XqX9X1X[.m.2.' s t 7 7 7 9 p A _ #.2.4.4.4.<.O.| ) Z C Z A s A A F [ }  .",
"-X-X-X-X-X-X-X-X-X-X-X-X-X-X-X-X-X-X-X-X-X-X-X-X-X-X,X7X0X0X0X0X9X9X0X0X2X-X).G.5.| A b h h b b b b M G } #.2.5.7.7.5.2.#.} F M b h h b Z ] }  .",
"-X-X-XoXoX.XoXoX-X-X-X-X-X;X-X-X-X-X-X-X+XoXoX.X.X.X+X;X1X1X;X1X7XwXeX9X=XZ.n.5.,.^ A n V S Z S n b b M G } #.2.5.5.6.2.1.@.] n h k k h n Z ) ] ",
",X-X+X X).R.Q.)..X+X-X,X,X,X-XoXoX.X X).).).).Q.E.Q.).).[.).).[.1XwXeX<XZ.-.#.>.,.O.` G G ] [ F M b h b M F } #.#.#.#.#.#.} G n h j g h b n M Z ",
",X-XoX).R.P.P.R.).oX-X,X,X-XoX).R.T.T.R.R.R.R.R.R.R.R.R.R.T.P.R.@X0X0X=Xj.} _ O.5.6.#.} [ } } ] Z b h h b Z ) }  .} } }  .} ) M b h b b b b b b ",
",X-X-X.X).T.P.P.).oX-X,X,XoXQ.V.m.b.m.P.T.R.Q.).).).Q.Q.R.T.T.R.oX5X;X/.=._ | 5.b.a.q. .] ) G Z n b h h b n S G { [ [ }  .} ] A Z n n m m b b z ",
"-X-X-X-XoX).T.P.Q.oX,X,X-X).V.y.5.7.b.P.Q.).oXoXoXoX.X.X.X.X.X.XoX+X).V.2.O.3.a.I.K.q.[ A Z n b b z z b b m n B G ] }  . . .} ] F Z M m b b b b ",
"-X-X-X,X-X.XQ.R.).oX-X-XoXR.m.7.5.7.m.R. X-X-X-X-X-X-X-X-X-X-X-X-X XR.m.5.5.u.L.U.K.q.} A n b b b b b b b z h b M ) }  .} } }  .} ) Z b h b b b ",
"-X-X,X,X,X-X X).)..XoXoX).P.m.y.v.M.R.oX-X,X,X,X,X,X,X,X1X1X1X,X-X.XR.K.b.u.a.K.K.l.e.@.' F Z M n M n m b 9 3 4 t Z ] { ] ] } @.@.[ a 8 6 6 8 r ",
"-X-X-X-X-X-X-XoX.X X).E.T.P.P.T.R. X-X1X1X1X,X,X>X-X,X,X,X,X,X,X-X-X.XW.I.F.a.i.q.q.2.2.2.O.o.' ) A S m h 3 ; * < y S H B S { :.@._ e > $ ; > < ",
"-X-X-X-X-X-X,X-XoX).R.T.P.R.)..X-X2X9X0X9X1X-X-X-X-X-X-X-X-X-X-X-X-X-XOX}.U.i.*.} ' #.5.8.8.5.2.#.} G B b 6 * & : 6 b b z b S { } ! q & O O & * ",
"-X-X-X-X-X,X,X,XoX).T.P.T.).oX,X9XeXrXeX9X;XoX.X-X-X-XoX.XoXoX-X>X<X,X5X4X{.z.X.Z s ' 2.9.9.9.9.7.1.@.] Z t 4 > > 4 6 5 3 4 t a f i > @ . . @ @ ",
"-X-X-X-X-X,X,X-XoX).T.T.).oX;X7X0XrXtXeX6XoX).).+X-X+X).).).oX-X>X-X,X7X0X5XZ.X.b t A #.5.9.9.9.9.7.1.@.] Z b 9 6 , : * $ * > q q < = & O @ @ @ ",
"-X-X-X-X-X,X,X-XoX).R.R..X-X2X9X0XeXeX0X;X).R.).oX-XoX).R.Q.oX-X-X-X-X7XyX0XA.%.b 9 C } $.2.5.7.7.5.2.#.} G B b 6 : & @ @ & & & & & & & & & & & ",
",X;X-X-X-X-X,X-X.XE.T.Q.oX,X3X9X7X9X0X6X+XE.P.R.oX-X-X).Q.).oX-X-X.X-X7XtXrX=Xg.M t C ]  .@.o.o.o.o.@.} ] A n 9 , & @ & = > : # O . O @ & * ; : ",
",X,X,X-X-X-X,X-X.XR.T.Q.oX,X2X2X1X1X2X,XoXR.P.R..X-X-X+XoXoX-X-X-X.X-X9XtXrX=Xf.F a A [ [ F Z Z Z A F G Z p 6 : & O @ : 6 r 6 : O X X @ * , 5 7 ",
"-X-X-X-X-X,X,X-XoX).R.).oX-X,X-X-X-X,X-XoXQ.R.).oX-X,X-X-X-X-X-X-X-X-X7XeX0X.Xj.} ) _ } ] Z b h h b m m b 8 > & O . & < t b t < & . . & 3 9 x v ",
".XoXoX-X-X,X,X-X+X.X).).).oXoX-X-X-X-X-XoX X)..XoX-X,X,X,X-X-X-X-X;X1X6X8X:X/.r. ._ ' } ] Z n b b n m b h 9 4 : & @ & > 6 9 6 > * @ & 3 z K I R ",
"Q.). XoX-X,X-X-X-X-XoX.X).).).oX-X-X-X-X-XoXoX+X-X-X-X,X-X-X-X-X,X2X9X8X4X}.B.q. ._ _ } [ ) G G G F S n b 9 9 6 < = & * : > : = & & , 9 K U Q c.",
"T.R.).oX-X,X-X-X-X,X-XoX).R.).oX-X,X;X-X-X-X-X-X-X-X-X-X-X-X-X-X2X9X0X8XOXU.i.*.} ` ] } } } }  . .} F M b b b b 8 > & @ & & & @ & ; 5 x I Q $X%X",
"K.T.Q.oX-X,X-X-X,X1X,XoXE.T.R..X-X,X,X-X-X,X,X,X-X-X-X-X-X-X-X-X2X0X0X8X{.L.d.#.[ ] ] }  . .@.#.#.@.] Z b b N N t < & . . . . @ & : 7 v R c.%X&X"
};
