/* XPM */
static const char *wall_21[] = {
/* columns rows colors chars-per-pixel */
"72 72 232 2 ",
"   c #4E0E18",
".  c #4A0C19",
"X  c #500E19",
"o  c #4E131D",
"O  c #4F181F",
"+  c #51141D",
"@  c #5A191E",
"#  c #4E1A24",
"$  c #4B1723",
"%  c #521720",
"&  c #531B23",
"*  c #561E25",
"=  c #4C222A",
"-  c #542027",
";  c #5B2226",
":  c #55232A",
">  c #5A262B",
",  c #55292E",
"<  c #5A292E",
"1  c #552C31",
"2  c #5A2D32",
"3  c #512630",
"4  c #553236",
"5  c #5C3235",
"6  c #563439",
"7  c #5C3639",
"8  c #563A3D",
"9  c #5D393C",
"0  c #652C2A",
"q  c #652928",
"w  c #793B2E",
"e  c #622E31",
"r  c #633434",
"t  c #6B3533",
"y  c #6D3935",
"u  c #613739",
"i  c #623C3D",
"p  c #6A3D3B",
"a  c #633837",
"s  c #723C35",
"d  c #723C37",
"f  c #66302E",
"g  c #6C423E",
"h  c #64403F",
"j  c #73443D",
"k  c #7A453A",
"l  c #7A473B",
"z  c #7F503F",
"x  c #5C3E41",
"c  c #563B41",
"v  c #623F40",
"b  c #5D4244",
"n  c #5D464B",
"m  c #5D4B4C",
"M  c #5D4C53",
"N  c #5D5354",
"B  c #5E545A",
"V  c #5E5A5E",
"C  c #5B504F",
"Z  c #634343",
"A  c #6B4643",
"S  c #654847",
"D  c #6D4945",
"F  c #634B4C",
"G  c #6C4C49",
"H  c #62464A",
"J  c #734540",
"K  c #744C45",
"L  c #7A4D45",
"P  c #754E48",
"I  c #7A4F48",
"U  c #6B514D",
"Y  c #7C5146",
"T  c #76514A",
"R  c #7C5249",
"E  c #644D50",
"W  c #635354",
"Q  c #655C5C",
"!  c #6A5C5D",
"~  c #645758",
"^  c #5E5D62",
"/  c #685F60",
"(  c #5F6566",
")  c #5F7273",
"_  c #656362",
"`  c #6B6464",
"'  c #6D6C6B",
"]  c #686B6A",
"[  c #706B68",
"{  c #6E706F",
"}  c #687877",
"|  c #737473",
" . c #757977",
".. c #767D7A",
"X. c #787C7B",
"o. c #656F71",
"O. c #67605F",
"+. c #824C3C",
"@. c #804434",
"#. c #84513E",
"$. c #8D563D",
"%. c #955B3E",
"&. c #824E42",
"*. c #835545",
"=. c #8A5644",
"-. c #865946",
";. c #8C5B46",
":. c #835549",
">. c #89574A",
",. c #86594A",
"<. c #8C5A4A",
"1. c #935D44",
"2. c #915E4A",
"3. c #9B5D47",
"4. c #845D52",
"5. c #8F604B",
"6. c #8F6044",
"7. c #946145",
"8. c #9B6445",
"9. c #94614A",
"0. c #9B654A",
"q. c #9D694A",
"w. c #9D6946",
"e. c #9A6553",
"r. c #9E6A54",
"t. c #976856",
"y. c #956958",
"u. c #A36B46",
"i. c #A96E45",
"p. c #A36C4B",
"a. c #A96F4B",
"s. c #A16647",
"d. c #AC734B",
"f. c #A9714B",
"g. c #B2764C",
"h. c #B5794C",
"j. c #B97B4D",
"k. c #B27347",
"l. c #A46C53",
"z. c #A86D56",
"x. c #AC7252",
"c. c #AD745C",
"v. c #AB7A5E",
"b. c #A87455",
"n. c #B27552",
"m. c #B57A53",
"M. c #BB7C54",
"N. c #B2755C",
"B. c #B47B5B",
"V. c #BC7D5A",
"C. c #AD7D62",
"Z. c #B67C62",
"A. c #C17E5B",
"S. c #76817D",
"D. c #79837E",
"F. c #B68057",
"G. c #BD8156",
"H. c #BD825C",
"J. c #BA855B",
"K. c #B38465",
"L. c #BD8263",
"P. c #BD8963",
"I. c #B98B6C",
"U. c #B38C71",
"Y. c #BD9272",
"T. c #B48668",
"R. c #C2835C",
"E. c #C5865B",
"W. c #C58563",
"Q. c #C38C64",
"!. c #CA8B64",
"~. c #C38C6B",
"^. c #CC8C6A",
"/. c #C98766",
"(. c #D18E6D",
"). c #D18E65",
"_. c #C4926B",
"`. c #CC936D",
"'. c #C89469",
"]. c #D1926C",
"[. c #CE9471",
"{. c #C59A75",
"}. c #CC9B73",
"|. c #C79976",
" X c #D19673",
".X c #D29A75",
"XX c #D49E79",
"oX c #D99D78",
"OX c #C78E70",
"+X c #CEA27B",
"@X c #CCA077",
"#X c #D3A47C",
"$X c #DAA47D",
"%X c #D6A67B",
"&X c #E2AA7F",
"*X c #6A8584",
"=X c #748482",
"-X c #798681",
";X c #7B8B84",
":X c #748C8B",
">X c #778B87",
",X c #7C938C",
"<X c #77928D",
"1X c #769494",
"2X c #7A9A96",
"3X c #7B9E9A",
"4X c #779796",
"5X c #6F908F",
"6X c #7BA19C",
"7X c #7CA6A0",
"8X c #7AA3A0",
"9X c #7DAAA4",
"0X c #7FB1A9",
"qX c #80B1AB",
"wX c #81B4AE",
"eX c #80948C",
"rX c #DBA681",
"tX c #D6AC84",
"yX c #DBAC84",
"uX c #D4A780",
"iX c #DAB086",
"pX c #DCB48A",
"aX c #D9B48A",
"sX c #DFB991",
"dX c #CEA680",
"fX c #E5AC84",
"gX c #E2B38B",
"hX c #E8B78C",
"jX c #E4BB92",
"kX c #E8BC94",
"lX c #E8C198",
"zX c #F4C394",
/* pixels */
"1X1X1X4X4X1X1X1X4X8X9X9X9X9X9X0XqXqX9X3X1X*X} ) ) } 5X7XwXwXqX9X7X9X9X8X4X1X4X3X3X4X5X*X) ^ B M M B B V B B M B ^ o.*X5X3X8X9X0XqX0X0X9X6X4X1X5X",
"1X1X1X1X1X1X1X1X4X6X7X7X7X7X7X7X6X6X3X1X:X} o.) ) o.*X1X7X9X7X7X7X7X7X6X4X1X1X4X1X:X*Xo.( B M M M M M M M M M M B ( o.*X:X1X3X6X7X7X7X7X3X4X1X1X",
"<X:X:X:X:X:X:X<X1X4X6X6X3X3X4X1X<X:X>X=X} o._ ( ( ] o...>X1X4X3X6X6X3X4X1X:X:X:X=X} o.( N M n n n n n x x x b n M B V _ o. .=X:X1X2X3X3X3X4X1X1X",
">X>X=XS.....=X>X<X,X,X,X,X>X=X..} { ' ` / ~ N N W W W ~ _ { =X,X,X,X>X>X>X=X=X .] Q M b x x x b b x 7 1 1 2 9 x x c c b m ~ _ ] } S.>X,X,X,X,X,X",
";X-XS. .| | ..-X;X;X;X;XD. .' _ ~ W F F S Z Z Z H Z 9 5 7 H `  .D... .| | | ' _ W b 1 : : 2 9 v v 9 2 & % & 2 9 7 2 : : , 2 9 m ~ ` {  .D.-X-X-X",
";XD.D. .| |  .D.;X;X;XD.| [ Q F n Z Z D D g g Z Z 9 , % + < Z ! [ ' ' ` ` ! W H 8 , O + & < i Z Z i < & % & 2 i a 0 ; @ + + & 1 8 H ~ ! ` [ [ [ ",
";X;XD.D... . .X.D.-X-X..' Q m n b Z D L L L K K S 9 , % + & 2 Z ~ ! O.Q E Z 9 7 1 - o + & 2 i S Z i 5 < , 2 7 i g d t q @ + o - 1 7 x Z H S S S ",
";X;X>X;X-XS. . . ... .{ _ W m b Z A K :.>.>.:.T G Z 5 : % % & 2 x F W F x 2 < , : & + % : 7 Z S S Z i i 9 9 9 Z K L L s q % $ # : , 2 2 5 7 7 7 ",
";X;X;X>X;XS. .{ ' ` ` ! W m b b Z G Y <.<.<.<.:.T G i 2 - % % & 1 8 b 8 2 : % % % % & : 2 9 b Z Z S Z A A Z Z S K :.>.l r - $ # & & & & : , 2 2 ",
";X;X;X;XD. .{ _ ~ F Z Z Z n b x x A Y <.2.2.<.,.:.I D i 1 & % + & , 1 1 : % + + + & > 2 7 9 x b Z Z G K K G Z Z K :.<.&.p 1 = # % + + + & < 2 5 ",
";X;X;XD. .' _ W b 7 2 5 i Z n b Z G *.<.2.<.<.<.>.:.I A 9 1 & % % - : : & % + + % : 2 9 i Z Z Z b Z G Y :.I A Z G :.<.:.J 9 1 - % + + % : 5 9 i ",
";X;X;X..' Q m b 4 , < 2 9 Z S S G I :.<.2.<.<.<.<.:.R P A u < & & : : : & % % & : 1 7 9 A K K A v x D *.<.:.D Z G :.2.<.R D 5 : % o o - 2 9 i Z ",
",X;XD.| _ m 8 1 , , 2 7 i Z A K Y :.<.2.2.<.<.<.>.>.:.:.I g u 2 1 2 2 < & % % : 2 7 8 v K *.=.Y Z x G ;.0.;.K Z A :.9.e.<.I y : + o & 2 7 i Z Z ",
",X;XS.' W 8 , : : 2 9 9 x Z A I :.<.<.<.<.<.<.<.<.<.<.<.:.K p 9 9 9 9 2 & % & 2 9 x x Z Y 7.w.;.D Z K 9.p.0.Y Z Z I <.9.5.:.d > % % , 9 Z Z Z Z ",
"eX;X .O.b 1 : : < 7 i Z b Z A K :.:.:.:.:.:.<.2.9.9.2.<.*.I D Z Z Z v 5 - % : 5 Z Z Z A *.p.f.8.Y K :.p.d.q.T x 9 p l =.<.:.j 2 : : 5 Z A S Z Z ",
",XD.' E 4 - : 2 7 i Z Z b Z Z K K I K K I :.<.9.0.p.0.2.*.Y I K G S Z 5 - % : 7 S S G K ;.p.g.u.6.-.0.n.M.l.R x 4 2 t k L T D 7 2 5 g K K A Z Z ",
">X .` b : & < 9 Z Z Z Z Z Z Z A A S A A K Y <.0.p.p.p.9.<.:.:.:.T G Z 5 & % & 5 Z G P :.9.p.d.i.w.w.x.R.W.v.4.Z 1 : > r p D Z 9 9 p L :.T G Z x ",
" .' ~ 7 & & 2 Z S Z Z Z A S A Z Z Z Z Z K Y <.0.p.p.p.q.e.e.e.2.<.T Z 5 & o % , 9 G Y <.0.p.p.u.u.d.R.]..XI.y.K 7 , > < r i v v Z I <.2.:.K Z 8 ",
"' Q H 2 % * 5 S S Z Z A K K K A Z x x Z K :.<.2.9.0.l.b.N.N.N.z.e.,.K u & o o & 2 g *.2.0.0.0.s.a.M.`.$XyX|.v.;.j u 2 1 2 5 a Z K <.q.w.;.K Z 8 ",
"Q W b , % * 5 Z Z Z Z D Y :.Y K Z x x Z K :.<.2.2.9.l.N.L././.L.c.t.:.p > % o $ : t L <.9.9.9.s.n.W.oXfXgX#XP.w.#.g 9 1 - : e p :.0.f.p.1.K Z c ",
"N m x , % & < i b b S K :.<.>.I S x x x A Y <.<.<.2.q.N.W.]..X X~.C.e.&.y > % o % < p Y ,.=.9.l.L. XfXgXyX.XH.u.$.z i 3 $ o ; d ;.a.g.f.7.Y S x ",
"N m 8 , % + ; 2 7 x S P ,.<.<.:.K Z x x S Y <.2.2.2.0.x.R.].$XyXrXOXN.3.&.y > + o : u G Y -.0.B.`.rXfXfX$X`.M.i.7.*.g 1 . . * w 8.d.h.f.8.*.K A ",
"N m 8 , % + % : 1 7 Z K :.<.2.<.:.K Z Z A Y <.<.<.<.1.s.m.'.$XgXyX.XL.z.2.L t * % - 7 A Y ;.p.H.#XgXgXrX X!.M.d.p.0.:.p * % 0 +.p.m.j.d.0.<.:.I ",
"C m 8 , + X + % : 2 i A I :.<.<.<.:.Y K Y :.<.:.:.:.*.1.f.H.@XyX%X XW.N.p.;.k 0 ; < p T <.0.g.Q.%XgXgXyX.X!.R.J.F.v.r.<.J d +.0.B.R.G.g.p.9.<.=.",
"m b 8 , + X + % & : 2 i A K :.<.<.2.;.;.;.<.<.:.K K L =.q.B.Q.}.`.Q.V.m.f.0.#.s t d :.e.l.n.V.^.#XpXpXyX#X}.'._._.Y.I.C.r.t.b.K._.`.W.V.a.p.8.7.",
"N m 8 1 % + + % % & : 2 i A P :.<.9.0.w.0.9.<.Y K A K *.9.l.B.J.H.M.m.n.d.p.1.#.L >.l.Z.W.W.W.`.#XpXpXyX#X#X+X@X}.|.{.Y.I.I.Y.{.@X.X`.W.M.d.p.u.",
"~ N b 4 - + % % % % & , 9 S G T :.2.0.p.p.p.9.:.K A A I <.9.p.x.x.g.g.h.m.n.a.0.e.b.T.[. X`.`..X#XyXyXyX#X#X}.}.|.|.{.Y.Y.{.{.+X#X%X#X[.W.V.n.d.",
"` Q W b 1 - & % + + % , 9 S G G K *.2.0.p.p.0.<.Y K K I *.<.9.q.a.d.g.j.M.V.B.C.K.I.}.$X%X#XXX#X#X%X%X#XXX}.'.Q.P.K.K.K.K.K.I.}.#XrXyX#X}.Q.V.M.",
"{ ' _ W x 1 - % + + % , 7 Z S S A K :.9.p.a.p.0.<.:.:.:.<.<.2.9.0.p.d.m.R.W.~.OX{.+XyXgXgXyX#X+X}.}.}. X X^.R.F.b.b.r.t.t.r.v.W. X$XyX#X}.^.W.R.",
" .| ' _ m 8 : + X   + : 2 9 Z Z S G T ,.9.p.a.p.0.9.9.e.r.e.2.<.=.1.u.n.R.^..X#XtXpXjXkXkXgX#X{.I.K.L.Q.!.W.M.f.p.0.2.,.R ,.e.c.W.[.}.}.}.`.^./.",
"D.....{ Q b , +     + & : 2 7 v S A P T ,.0.p.p.p.p.x.N.N.z.e.*.*.#.7.x.P..XrXyXpXjXlXlXkXgXXXI.b.t.r.B.R.G.n.p.0.9.<.Y K K :.e.N.L.P.Q.~.^.(.(.",
"-X-XD...' E 2 %   + % & & : 2 i Z S S A I :.9.0.w.p.n.V.L.N.r.<.*.*.9.b.~.#XpXgXjXkXkXkXhXfX[.C.4.R ,.p.m.m.p.9.<.2.<.Y K A K >.e.b.b.F.R.!.^.(.",
";X>X>X-X| ~ 9 , & - : : & & : 5 9 9 9 i p J &.=.1.0.b.N.Z.Z.z.e.2.9.r.K.{.yXjXkXjXjXpXyX$XoX!.l.R S K 9.a.a.9.:.:.<.<.<.Y K K Y >.9.p.g.G.E.W./.",
";X;X;X-X| / n 8 4 5 5 < & % & < 2 5 2 2 e t s j z -.9.r.z.c.N.c.b.v.K.Y.dXgXkXkXjXiX+X`.'.!.G.r.K Z A -.0.0.*.I I :.2.9.7.;.Y K I *.8.d.M.G.G.H.",
";X;X;XD.| / m x 8 9 9 2 : % % & : : : : ; ; > r g K :.<.e.z.N.L.~._.{.dXpXjXkXjXpX+X_.J.G.G.m.0.K Z A :.9.<.Y A G I <.0.p.w.=.K A I 7.d.j.M.m.m.",
";X-XS. .' ~ n 8 8 9 7 2 & + + + % & * % + + % < i G T <.0.z.V./. XXXtXpXsXjXgXiX#X_.B.d.d.g.f.9.I S K =.9.=.K Z Z G :.9.p.p.;.K Z D ;.a.h.g.d.d.",
"D... .' Q m 8 4 1 2 2 < & + + + + % & + o   o : a K ,.9.q.x.A.^..XyXpXjXjXpXyX@XQ.F.b.p.p.p.p.2.Y K Y 1.8.;.K Z x Z K <.0.0.=.D b A *.p.d.d.d.d.",
"X. .| ` W x 1 : - - : : & % % % % % & % o o % < j :.5.0.p.n.A.^.oXfXjXkXjXpX#XQ.F.f.0.9.2.9.9.<.:.:.2.p.p.9.Y Z c x A :.2.9.,.K Z A Y 9.p.f.d.d.",
"X.| { _ C 8 , & + + % & & : : : : - : : & & > t L <.0.u.u.g.R.[.rXgXjXlXjXtX|.J.f.8.;.:.:.:.:.:.,.2.p.n.n.q.:.S x Z G Y <.<.:.K G A K ,.0.p.d.h.",
"X.| ' _ m 8 : % + + + & < 2 5 2 2 1 1 2 2 e y l ;.0.u.u.i.m.Q..XyXjXkXjXpX#XP.b.0.;.*.I K K K Y =.0.x.V.V.b.<.K A A I :.<.<.>.:.I K G I ;.p.d.j.",
" .| ' Q m 6 : % + + % : 2 9 i i 9 7 7 9 a j L =.0.p.i.i.d.M._.#XgXkXkXjXyX}.P.b.9.:.K A Z Z A Y ;.p.M.E.W.N.e.:.I I :.<.<.<.<.<.:.K S A :.0.d.j.",
"| ' _ W 8 , & + + + & 1 7 9 Z Z Z Z Z Z J *.;.8.p.f.d.g.M.Q.}.tXsXkXjXiX@XQ.B.l.2.Y D Z x x Z Y 7.d.E.).^.Z.l.;.*.*.<.<.2.2.2.2.:.K Z Z K 9.p.g.",
"' _ W b 1 & o + % : 1 4 8 x Z G K K K K Y ;.8.u.p.d.g.M.R.`.#XtXsXjXpX%X'.J.x.0.<.Y D x c c Z L 7.d.E.).(.W.x.8.=.=.<.2.9.0.0.9.<.K Z b K =.0.a.",
"~ W m 7 : + + % : 2 9 i x Z G I :.:.:.:.<.0.p.f.f.d.g.V.W.`.#XtXpXsXpX#XQ.m.p.0.<.Y G Z x c Z L 7.d.R.!.^.W.m.p.7.;.<.2.0.p.p.0.<.I Z Z K *.9.0.",
"n b 8 5 : & & : 2 a D K K Y :.<.<.<.=.;.0.z.n.m.g.g.g.B.W.~.}.#XiXaXtX}.H.d.w.1.,.Y K G Z x Z K ;.a.M.E.W.W.G.n.p.2.<.9.p.f.d.p.2.:.K A K :.<.9.",
"4 4 5 2 2 < , 2 u D Y ,.<.7.0.0.0.0.7.8.a.B.H.R.M.g.d.x.c.B.P.'.#XtXtX}.J.f.7.:.T T T Y K Z Z J =.p.n.M.V.R.E.V.b.9.<.2.p.d.g.f.0.<.Y K Y :.<.2.",
"- : , 5 9 9 9 9 i K :.<.0.w.p.p.p.p.u.p.n.H.W.E.M.d.p.q.e.r.a.F.'.#XtX#XQ.d.%.z A K Y :.I S Z A Y 9.p.d.m.R.!.W.N.e.<.;.w.d.h.g.p.0.<.:.:.:.<.<.",
"+ & , 7 Z Z Z i Z K Y :.;.7.8.p.f.d.d.n.V.W.!.R.x.w.7.<.<.=.$.8.B.}.pXyX`.m.1.j i i K :.Y G Z Z K :.7.u.g.R.).^.Z.e.<.=.8.d.h.h.d.p.9.<.>.<.<.<.",
"o % : 7 S S S Z Z A K K I Y ;.w.f.h.M.H.E.E.R.N.q.-.Y T I j t k p.|.gXhX$XG.1.s 2 2 p K T G Z Z S K -.8.d.E.).(.Z.e.<.=.0.d.h.h.d.p.0.<.<.<.<.<.",
"o % : 5 Z S S Z Z A A S G K *.8.d.M.R.W.W.R.m.p.-.K G G S u ; 0 <.Y.jXzXfXW.3.t : : 7 A P A Z x Z A Y 7.d.E.).^.Z.r.<.;.0.d.h.h.d.p.9.<.>.<.<.<.",
"+ % - 2 7 i Z Z Z G K K K Y ;.u.g.E.!.!.R.m.p.=.K A S S Z 1 $ : &.U.jXzXfX^.3.y - # 4 Z A S Z x x Z K ;.a.M.!./.B.l.2.7.u.d.h.g.p.0.<.:.:.:.<.<.",
"+ % % - < 5 9 Z A K Y :.=.7.w.f.j.E.E.E.B.q.=.K A Z S S Z 1 $ : Y U.pXzXfX^.s.d : = 4 Z A S Z x x Z J =.0.n.V.G.m.l.0.w.a.g.g.a.0.<.Y K I :.<.2.",
"% % % & : 2 9 Z G T :.;.9.w.u.p.d.h.M.m.p.<.K Z Z Z Z S Z 7 1 9 4.U.pXhXfX^.z.L 9 4 8 Z S S Z x x Z D :.9.a.n.m.n.f.p.p.f.d.f.p.9.:.K A K :.<.2.",
"% % & - < 5 9 Z A K Y -.5.7.7.1.%.%.3.3.;.Y A Z b Z Z S A Z g I y.Y.tXhXfX[.N.5.I A A S S Z Z x x Z S I ,.0.a.d.g.d.f.f.f.p.p.0.2.Y G S K :.<.9.",
"% % - < 5 9 i Z Z S K Y Y :.z k w w w k k D S b b x Z D K L >.e.C.{.tXpXyX.X~.v.e.<.Y K A Z b x x b Z G T <.0.p.f.d.d.a.p.0.0.0.2.Y A S G :.2.0.",
"+ % - 2 9 Z Z Z Z A A K P K j t 0 q q 0 r i Z Z Z Z A K :.2.z.Z.~.+XtXpXyX#X}.~.Z.z.2.:.K A Z Z Z Z Z Z A K :.9.p.d.d.p.0.9.2.2.<.Y A Z G Y <.2.",
"  + % < 7 Z Z S S G K K K K j y 0 q ; > < 5 i Z A G K :.2.l.B./..X#XtXaXpXyX%X.X/.B.l.<.*.K G G G G Z i i a d +.1.p.f.a.q.2.<.<.:.K i i g K :.<.",
"  + + - 2 9 Z S G K L Y Y Y L k s y r 2 1 , 2 a J Y -.;.0.x.W.(..X#XtXaXpXpXyXoX(.A.x.0.;.*.Y Y R Y J u < : > t +.1.p.l.0.<.:.:.K p 5 2 u g K Y ",
"% % % & : 2 9 Z G T :.:.:.:.*.&.L j g 9 1 - : e j :.5.0.p.n.R.^. X#XtXpXjXjXfXoX^.A.n.p.7.=.:.:.,.:.j r : % % > s *.9.0.9.<.:.T A u , : 2 a A P ",
"2 2 : & % & 2 i A K :.:.:.:.:.*.Y I G i 1 # $ : p Y 5.q.d.h.A.W.[.#XiXjXlXjXyX.XW.A.j.d.w.=.Y T R Y j r : & & < t j &.=.<.:.R T S 5 & % > u S U ",
"E H 9 < + + & 2 i D T T T T I I K K A v 1 # o # 5 K ,.q.d.g.M.V.~.#XpXlXlXjXuX_.G.M.j.g.w.:.K A K K g a 2 1 2 5 r t y j L T T U S 5 & + : 7 S U ",
"' / F 5 %   + : 5 i A G G A D D A A G Z 5 - % * 5 A ,.q.d.k.k.m.Q.#XjXlXkXpX}.P.m.g.g.d.0.:.A Z S A Z i 9 9 9 9 5 < > e p A G G Z 5 & % : 7 Z S ",
"..| ! x &   o & < 5 i i i i i i Z S G S p f 0 f p K ,.q.a.i.i.g.Q.yXjXlXpX#X_.F.g.f.u.w.9.:.K K A A S Z Z Z i 7 < & & ; 2 i Z i 7 2 : - , 2 7 i ",
";X..' F 1 # o % - < 2 2 2 < 2 7 Z S G K l k k +.#.=.9.0.p.s.u.g.Q.yXkXjX%X_.G.j.g.u.7.=.-.-.=.*.Y K G A S Z 7 2 - % + % : 2 2 2 < , 1 1 1 2 < < ",
",X-X| Q x : & % & & : : : : 2 7 Z G T :.=.1.1.8.w.w.0.9.9.1.8.d._.yXkXpX}.F.g.g.d.0.:.K Y ;.w.w.2.:.P A Z 9 2 : & % % & & : : & : 1 8 x 7 1 : & ",
",X;X..] m 8 - % + + % & & : 2 i G T <.9.0.u.i.d.g.f.w.<.:.*.%.p.Q.yXjXtXP.p.s.i.p.9.K A K 7.f.d.p.<.Y A 7 1 - & & - : : & & % & , 8 m M b 4 - % ",
",X;X-X| Q b 1 %     + % : 2 i D Y <.0.p.f.d.g.h.j.g.w.,.I K #.0.P.tXpX+XC.7.%.8.0.<.G Z K 7.g.j.g.0.*.p < # $ % : 2 5 2 - % % : 8 m Q Q W 8 1 = ",
";X;X;X..' F 2 %   X % : 2 9 Z K :.2.0.p.f.f.d.g.h.d.0.Y A g l 9.K.#XpX+XC.9.=.1.9.:.A Z K 7.d.j.j.p.=.y : $ o % > 7 9 5 : % % , x W ` ' Q m x 6 ",
"D.-X-XS.| W 5 % + + : 2 7 i S K Y *.2.0.w.p.p.f.d.p.<.P Z i j <.C.+XyX+XT.l.2.2.<.Y A Z J =.p.h.j.f.1.d < $ o % > 5 7 2 : % % : 8 W ` | ' Q W m ",
"....D.-X| ~ 5 % + & 2 9 i Z S G K I Y :.;.9.0.p.a.0.,.K Z i j <.C.|.tXuX~.N.l.0.<.I Z Z D :.0.d.h.d.7.l 5 # $ % & < 2 < & % + & 1 H ` | | ' _ Q ",
"|  ...D.| W 2 % + > i Z Z Z Z S A D D K Y =.9.0.q.9.:.G Z i j <.v.{.tXyX XZ.x.q.<.K Z Z A Y 9.a.g.d.0.L 9 3 # % & & : : & % o o : x ! |  .| ' ` ",
"| | ....| W 2 % % < i S S Z Z S Z Z Z A K :.<.9.0.<.Y G Z i j <.v.{.tXyXXX/.N.l.<.K Z Z S I <.p.g.d.0.Y i 1 * % % % & & & % o o & 9 ! |  .| | ' "
};
