/* XPM */
static char *result[] = {
/* columns rows colors chars-per-pixel */
"72 72 230 2 ",
"   c #4A010D",
".  c #4B0612",
"X  c #4C0A15",
"o  c #440B19",
"O  c #4D0E1A",
"+  c #510D18",
"@  c #46101E",
"#  c #4E121C",
"$  c #51141D",
"%  c #5A181D",
"&  c #4D1621",
"*  c #481925",
"=  c #4E1A24",
"-  c #521720",
";  c #531A22",
":  c #561F26",
">  c #4F2127",
",  c #4C232C",
"<  c #542027",
"1  c #5A2127",
"2  c #54232A",
"3  c #5A252B",
"4  c #55292E",
"5  c #59292E",
"6  c #4F2C34",
"7  c #542C33",
"8  c #502B35",
"9  c #5A2D32",
"0  c #4C303A",
"q  c #543236",
"w  c #5C3236",
"e  c #55353A",
"r  c #5D3539",
"t  c #563A3C",
"y  c #5D3B3D",
"u  c #652727",
"i  c #642B2D",
"p  c #6F332F",
"a  c #623334",
"s  c #663636",
"d  c #6C3A35",
"f  c #613C3D",
"g  c #6B3C3B",
"h  c #753D37",
"j  c #723E3A",
"k  c #65423F",
"l  c #6B423E",
"z  c #6E493E",
"x  c #73443D",
"c  c #7B463B",
"v  c #563A40",
"b  c #5D3E40",
"n  c #613E41",
"m  c #564444",
"M  c #5C4244",
"N  c #5C4648",
"B  c #584A48",
"V  c #5A4A4A",
"C  c #5D5452",
"Z  c #634343",
"A  c #6B4643",
"S  c #654847",
"D  c #6E4944",
"F  c #624649",
"G  c #654B4A",
"H  c #6D4D49",
"J  c #764B46",
"K  c #734C44",
"L  c #7A4E46",
"P  c #724E49",
"I  c #6C524D",
"U  c #7C5146",
"Y  c #74524A",
"T  c #7C534A",
"R  c #785448",
"E  c #634E52",
"W  c #645355",
"Q  c #665556",
"!  c #685659",
"~  c #635B5A",
"^  c #6A5B5C",
"/  c #795650",
"(  c #64615E",
")  c #6A635F",
"_  c #6B5F61",
"`  c #666562",
"'  c #6C6465",
"]  c #6A6867",
"[  c #6C6A69",
"{  c #716C6C",
"}  c #6D726E",
"|  c #70726F",
" . c #707170",
".. c #737373",
"X. c #737A76",
"o. c #767C7A",
"O. c #787D7B",
"+. c #864B38",
"@. c #89553B",
"#. c #945B3C",
"$. c #9B613F",
"%. c #A2673E",
"&. c #835446",
"*. c #8A5643",
"=. c #865945",
"-. c #8D5C44",
";. c #845549",
":. c #88574A",
">. c #855A4C",
",. c #8C5A4A",
"<. c #935D45",
"1. c #995A43",
"2. c #925D4B",
"3. c #815750",
"4. c #845C51",
"5. c #A45F4C",
"6. c #8E6149",
"7. c #946245",
"8. c #9C6544",
"9. c #9F6846",
"0. c #95624A",
"q. c #9B644A",
"w. c #9E694C",
"e. c #936351",
"r. c #986552",
"t. c #9E6A52",
"y. c #916A59",
"u. c #A16647",
"i. c #A46A44",
"p. c #AA6D44",
"a. c #A46C4A",
"s. c #A96E4A",
"d. c #B16F4D",
"f. c #AB7146",
"g. c #AD734A",
"h. c #A8724C",
"j. c #B27546",
"k. c #B2754B",
"l. c #B5784B",
"z. c #BA7C4B",
"x. c #A36751",
"c. c #A46C53",
"v. c #AA6D54",
"b. c #A76F59",
"n. c #A97757",
"m. c #AB745B",
"M. c #B37653",
"N. c #B57A52",
"B. c #BB7D54",
"V. c #B3755A",
"C. c #B8795A",
"Z. c #BA7A5C",
"A. c #AD7A62",
"S. c #B87B61",
"D. c #C07F4D",
"F. c #C17F56",
"G. c #C17D5A",
"H. c #76827C",
"J. c #78837E",
"K. c #BD8054",
"L. c #BC845B",
"P. c #BB875C",
"I. c #B98565",
"U. c #B69172",
"Y. c #C0804C",
"T. c #C18156",
"R. c #C3835C",
"E. c #C38A5D",
"W. c #CA895B",
"Q. c #C48562",
"!. c #CA8663",
"~. c #C38D64",
"^. c #CB8A64",
"/. c #C68A6B",
"(. c #CD8B6B",
"). c #D18E66",
"_. c #D18E6C",
"`. c #C79368",
"'. c #C5946B",
"]. c #CA946E",
"[. c #CB996E",
"{. c #D5956B",
"}. c #D3916D",
"|. c #D28F71",
" X c #C89573",
".X c #CC9C73",
"XX c #D49371",
"oX c #DA9472",
"OX c #D49B74",
"+X c #D59C79",
"@X c #D99C78",
"#X c #E09F7D",
"$X c #CEA076",
"%X c #CEA279",
"&X c #D3A275",
"*X c #D2A57C",
"=X c #DBA37C",
"-X c #D2A87F",
";X c #DAAA7E",
":X c #E3A47B",
">X c #7A8582",
",X c #7B8C84",
"<X c #7B8C85",
"1X c #7C9187",
"2X c #7E928A",
"3X c #7E988E",
"4X c #80958C",
"5X c #81988E",
"6X c #829E93",
"7X c #84A196",
"8X c #CEA381",
"9X c #DAA382",
"0X c #D5AD84",
"qX c #DBAE84",
"wX c #D7B087",
"eX c #DAB087",
"rX c #DBB38A",
"tX c #D8B48A",
"yX c #DFB990",
"uX c #E4AB84",
"iX c #E2AC85",
"pX c #E7B488",
"aX c #E3B48C",
"sX c #E3B98D",
"dX c #E6B692",
"fX c #E5BC93",
"gX c #E9BC94",
"hX c #E9C298",
"jX c #EBC39A",
"kX c #EDC7A2",
/* pixels */
",X,X,X,X..E 2 . . . ; 9 n n n n Z K &.2.2.2.,.:.:.:.:.,.,.,.,.,.:.,.2.x.Z.!.XX=X0XtXtXtX0X.X'.I.~.~.[.*X0XeX0X0X0X0X0X0X0X0X0X0X0XwXrXtX%X.X~.P.",
",X,X,X>X..! w - X X - 3 r n F F n K &.:.2.2.,.,.,.,.,.,.,.,.,.,.&.&.,.x.Z._.OX=X0XwXtX0X%X X[.P.'.'.$X*X0XwXwX0X0X0X0X0X0X0X0X0X0XwXwX0X%X.X'.~.",
",X,X>XH. .^ F 7 : O $ : a Z F Z Z A K &.;.:.:.,.,.<.<.:.:.,.0.,.&.L L r.A.XX=XqX0X0X0X%X$X[.'.'.'..X$X-X0X0X0X0X0X0XwX0X0X0X0X0X0X0X0X%X$X.X.X.X",
",X,XH.o. .{ _ W v : $ : 9 Z S F Z Z A K L ;.:.2.8.9.8.,.,.,.2.,.&.A A 4.I.*XiXiXwX%X$X.X'.I.'.'..X%X-X0X0X0X0X0X0XeXeX0X0X0X0X0XwX%X$X.X.X%X-X0X",
"1X,XJ.X...X.o...! 9 ; ; 9 Z S S Z n n Z A L ,.q.h.g.a.0.,.,.2.,.z f S / U.0XyXrXwX%X X'.~.~.'..X*XwXwXwX0X0X0X0X0X0XwX0X0X0X0XwX0X%X[.'..X%X0XwX",
"2X,XJ.H.o.,X2X<X[ Z 2 < 9 Z S Z Z v v v Z L 7.s.N.B.M.s.0.,.,.U x k A y.U.wXhXyX0X.X.X X'.'..X%X-XwXwXwX0X0XeXwX0X%X%X%X0XeXrXrX0X%X X'..X$X-X0X",
"1X,X,XJ.J.,X2X>X{ E a w r b Z Z b v v t Z @.u.z.R.E.G.N.a.-.&.D A l R y.U.tXyXtX0X%X%X-X%X%X-X0XwXwXwX0X0XwXeXwX%X X[..XqXfXfXrX0X0X-X%X$X.X.X X",
",X,X,X,X,X,XO...' E Z f f Z Z S M b b Z K 7.g.R.^.(.(.T.g.-.K k f K 6.n.$X;XrXeX0X0X0X0X0X0X0X0X0X0X-X0X0XeXwX0X$X[.'.OXeXfXhXrX0X0X0X0X%X[.'.~.",
"o.>X,X<X>Xo.' W S Z F S A A A A A k z R 6.a.B.^.{.oX).W.g.#.A v e n 2.m./.9XrXaXrXwXwXrX0XeXwX0X0X0X0X0X0X0X-X-X$X.XOX*XrXfXsXeX0XwXwXeX-X.X[.'.",
"....>X>XO.' S 9 4 q M G J L L J K c c 7.a.N.!.XXoXoX).W.j.6.z t e A *.v.Q.+XqXaXaXrXrXwX0X0X0XwX0X0X0XwX0X-X$X.X%X%XqXrXaXrXeX0X0X0XwXwX0X-X%X%X",
"[ ..o.O...! 9 ; - 9 n P ;.,.,.,.:.2.9.j.K.Q.(.|.XX(.E.T.g.6.K k n K :.x.C.|.=XaXfXfXrX0X-X0X0XqX0X0XwXwX0X$X'.'..XeXfXfXeX0X0X0X0XqX0X0X0X0X0X0X",
"........[ F 5 ; : a K ;.0.q.x.b.v.V.B.G.W.W.~.Q.S.S.V.k.a.7.=.U ;.e.c.v.d.B.}.iXgXhXrX0X-X-X0X0X0X0XwXwX0X$X'.`..XaXjXhXtX0X%X0X0X0X0X0X0X0XeXeX",
"O.....[ ~ m w 9 s x ;.2.9.h.M.Z.G.(._.(.W.R.B.M.v.t.r.q.q.8.7.8.c.S.S.Z.d.d.R.;XjXjXyX0X8X0X0X0X0X0XeXeX0X$X'.I..XiXhXhXyX0X0X0XwX0X0X0X0XwX0X0X",
"o...] ! V m t Z A U ,.0.u.g.B.E._.|.|._.Q.B.g.9.7.,.;.:.,.<.9.g.L.^._.G.k.s.P.*XfXjXyX0X0X8X0X0X0X0XwXwX0X%X'.'.OXeXfXfXrX0X%X0X0X0X0X0X0X0X0X0X",
"{ ' ~ N e q b S P T ;.-.q.s.M.Z.Q././.S.C.h.9.<.*.:.;.J U :.q.s.B.!.^.E.Z.P.`.0XsXsXrX0X0X0X0X0X0X0X0XeX0X%X.X.X-XaXfXfXrX8X0X0X0X0X0X0X0X0X0XwX",
"` ~ N q 2 2 r S S S K &.-.w.a.h.b.b.b.b.t.q.<.<.<.:.T J A J :.q.s.N.F.~.[.*XqXeXrXrXwX0X-X0X0X0X0X0XwX0X0X-X$X-X0XfXhXfXtX0X0X%X0XeX0X0X0XwXwXwX",
"C V t , ; : 9 Z Z M Z K U ,.2.2.,.:.-.,.,.,.,.,.2.,.U A Z Z T ,.8.$.g.~.0XgXhXrX0X-X0X0XwX0X0X0X0X0X0X0X0X0X0X0XeXfXgXfXeXrX8X0X0X0X0X0X0X0XwX0X",
"B v q : $ : a Z F M t Z K L L L L K K K U &.,.2.:.;.K Z b Z J ;.@.#.i.E.qXjXkXfX0X%X-X0X0X0X0X0X0X0X0X0X0X0XwXwXwXeXqXrXrXrXeX0X0X0X0X0X0X-X*X-X",
"B m e > $ : a F G F b f n A A K A Z Z l J &.,.,.U K Z b b S T 3.<.#.p.P.qXjXjXrX-X%X-X0XwX0X0X0X0X0X0X0X0XwXwXeX-X.X.X*XrXfXyXwX0X%X0X0X%X%X.X[.",
"C B t , $ : w Z S S Z k Z Z Z Z Z b n Z K ;.,.;.K Z y b Z A T ,.<.u.f.~.;XgXjXrX0X0X0X0X0X0X0X0X0X0X0X0X0XwXeX0X$X'.'.%XeXgXfXrX0X0X0X0X%X.X'.I.",
"( W N 7 ; $ 5 r k Z Z S Z Z y r r r y b K T &.J A t b M D z &.<.8.s.N.(.qXfXhXfXwX0X0X0X0X-X0X0X0X0X0X0X0XwX0X-X&X[.[.&XqXsXgXfXsXyXtXwX%X]./.Q.",
"} ' E r ; + $ 2 w f S G G F y 4 2 2 q n S K D A Z y Z A L &.#.8.p.l.Q.OXaXgXjXfXrXeX0X0X-X-X-X-X0X0X0X0X0X0X*X.X[..X.X&X&X:XpXfXjXjXyXwX%X].(.!.",
"J...^ f $ . X ; 4 r Z S G Z w : ; : w Z S S Z y M Z A U ,.8.i.g.B.G._.@XrXgXhXjXfXaX0X0X0X0X0X0X0X0X0XeX0X%X.X'.`.`.'.'.U.'.&XeXfXfXsX0X+XXX_.!.",
"2XJ.' n $   . $ < 5 r f k r 3 ; # : a Z S Z M t f A L ,.x.V.L.~.Q.!.(.XX=XrXfXhXjXfXfXrXrXrXrXrXwXwXrXeX0X&X'.I.n.n.h.t.t.n.I. X8X0X9X*X.X X|.!.",
"6X<X{ b $   . $ < < 2 5 5 2 : $ - 1 r Z F Z b y l K ,.x.Z.(.+X=X&XXX!.!.XX*XrXfXjXjXfXfXfXfXfXyXrXtXtX;X*X[.I.b.<.c h d K / y.b.A.Q. XXX|.(.(.(.",
"6X<X[ n = . X ; : ; ; - ; ; # $ ; 2 a Z F Z Z Z U ,.x.C._.9XsXgXaX@X_.Q.~.'.%XqXgXgXgXgXfXfXgXsXrXwX&X.X'.P.b.,.h 1 ; = 9 Z H L ,.x.S._.}._.(.!.",
"2X>X[ F 2 # O - $ $ # # $ $ $ # # 2 r M Z Z D L 2.c.Z.(.@XpXjXjXgXaX+X/.L.P.~.*XpXgXsXsXaXdXpXiX&X$XU.P.n.e.&.d 3 = * * , q q y J 2.C.!.XX_._./.",
">X..[ W e > $ $ $ $ ; $ $ $ O # $ < w n S P U ,.v.I.(.=XpXgXjXkXkXjXrX XL.M.B._.:XuX;X-X*X=X=X@X`.P.n.y./ l 5 < : 2 , 8 > > > 7 n ,.A._.oX_.(.!.",
"o...[ ( B e 2 = $ $ $ ; ; ; $ $ ; 2 r Z D U ,.x.C.(.@XaXdXgXfXgXjXjXfX*XL.g.g.G._.XX'.'.].(.(.!.Y.g.7.R Z 7 ; ; 1 f A s 3 % * 4 Z 4.A._.oX_.(./.",
"o... .[ ~ m q 2 ; $ $ $ $ ; ; < 2 9 f S L :.q.v.G._.uXgXkXjXdXrXpXgXsX;XP.f.p.a.b.A.m.Z.Z.Z.C.C.j.u.@.K y w 3 u d K P A 3 $ # , M 4.n.~.)._.|.(.",
"H.J.o...[ W B e 2 $ # $ $ ; 2 5 a g K L =.7.a.k.G._.uXgXkXfXqX@X@X9X=X{.W.j.1.,.;.3.0.t.c.c.x.u.u.<.=.L z x c @.<.,.;.n u $ * , Z R w.B.W._.(.XX",
",X,X>XO...] C V e 4 ; # $ $ 2 w F H T ,.0.u.g.z.G._.9XaXfXaX+X(.G.(.(.^.T.g.<.z Z Z L ,.0.,.,.,.,.,.:.;.,.0.p.g.g.t.,.j 3 ; * 7 Z R 7.j.G.!.(.|.",
"1X1X<XJ.O...] ~ V t 7 ; # - : e N Y 6.q.p.d.N.B.Q.(.+X=X*XOX(.G.G.G.C.C.v.q.U k t b D U ;.L L K J T ,.r.v.Z.T.T.B.g.<.c u 2 , 0 n P ,.u.z.L.Q.Q.",
"1X<X1X,X>XH. .] ~ C b 7 - - = 7 M Y 6.a.k.B.G.!.(.|.(.~.E.P.K.z.d.v.x.r.,.T D M t y S A K A A Z Z P 4.b.S.!.^.^.F.j.$.@.d q 0 0 b D &.0.s.M.N.B.",
",X,X,X1X,X>XO...[ ~ V q : - = 7 Z R 7.g.F.R._.|.|.(.Q.N.g.g.f.g.d.q.,.&.D Z M k Z Z Z Z Z Z Z b e n / m.(.oXoX_.Q.F.f.7.K Z v b n J U ,.q.a.g.j.",
",XJ.,X,X,X,X>Xo.[ ~ m 6 2 2 9 r D =.7.g.W.oX9X=XoXQ.k.p.$.$.u.q.2.2.J n w q q b A f f w y Z Z e 0 r U V.oX:X#X@XOX[.~.n.e.T D D A D J U ,.9.s.j.",
",X,X,XJ.<X1X<Xo._ n 9 2 2 w n P &.-.$.f.`.;XsXiX].N.u.<.2.2.2.1.=.R A r 2 2 7 y k f 5 2 9 f F e , 2 c d.oXuXuXiXaXsXqX[.K.6.=.=.U P Z A &.8.h.j.",
",X,X,X1X<X<X>X .Q 9 - & 7 n P ;.,.<.$.g.`.eXhXiX`.g.#.<.,.,.,.,.>.P Z 9 = ; 1 r Z r 2 ; 3 f Z 7 = ; p 5._.#XpXgXjXjXfX*XP.h.u.7.,.L n Z U 7.g.z.",
"J.1X1X,X<X>Xo.] N : O - a H / 4.,.1.%.g.P.*X0X$XP.p.$.-.,.,.,.,.;.H M 4 = $ 3 f Z y : $ ; 9 r 7 * # u 1.G.@XsXjXkXkXdX=XW.z.p.i.2.T k M L 7.k.D.",
",XJ.1X1X<X>X[ W e - + : j T 4.4.,.<.u.j.K.E.I.P.l.s.8.<.,.,.,.,.;.Y n 7 $ $ 3 f S f 1 + $ 1 3 = O O u +.C.@XsXjXjXdX=X{.R.z.j.p.2.T Z k R 7.k.D.",
"J.1X1X2X,XX.` V 6 * ; i c ,.e.,.,.2.a.g.g.g.g.k.k.g.a.0.,.,.,.:.T Y Z 7 : & 2 r Z f 3 ; $ $ ; & # $ u +.g.[.eXgXsX9X(.G.l.g.a.q.,.J Z Z U 0.g.z.",
"J.1X1X1X,X| ~ M 6 , 2 p +.0.w.w.0.q.9.a.s.i.%.f.j.k.s.0.,.;.&.&.R Y S r 2 ; : 3 w r 9 2 ; $ # O $ 1 x @.f.W.=XaXuXXXF.d.u.0.-.&.U A v b J -.a.g.",
"1X1X1X,XO.{ I M q 7 q x -.a.g.g.p.w.q.q.9.i.f.j.j.k.s.q.,.L K K S H S r 2 ; # - : 9 r w 2 ; O * 4 r x #.f.E.oX=XoX^.z.9.=.L K D A n t v D =.0.w.",
"1XJ.J.J...) I Z r y Z Y 0.g.z.l.g.9.2.,.2.u.j.j.k.h.a.q.,.L A Z Z F Z r 3 ; # O ; 5 y Z y 1 - : q k R 7.g.K.!.(./.T.g.<.z Z b b Z Z b Z K U ,.2.",
"<X>XH...' W F Z n n P :.w.k.z.j.a.<.;.L &.0.a.h.a.a.u.q.2.U A M t y r 5 : $ O # : w A D A a 2 , 0 M R 7.g.B.Z.V.V.g.9.=.D b v b A A K U &.;.;.:.",
">XH...] C N M y Z A T 0.h.k.l.s.q.;.K A J :.0.q.q.2.0.0.,.;.D b r 9 3 ; $ $ & 2 7 f Y T L l r 7 0 t R 7.g.k.c.q.2.0.2.&.z y v Z L &.0.7.0.,.:.;.",
"o...[ ~ B m b Z A L ,.q.s.g.s.w.,.J A Z S U ,.,.,.,.,.,.,.;.K Z q 2 ; # $ ; 2 w Z Y :.,.&.J Z t t M z i.g.s.q.,.:.2.,.U A Z A J ,.w.h.g.a.7.,.;.",
"{ ' ~ V M t k D U ,.7.a.a.a.w.0.;.K Z t A J ,.0.2.:.*.;.U T H S w < # X $ 2 w y P >.0.q.-.J F F I >.7.a.i.i.8.2.2.2.,.U D S K ;.q.j.z.k.s.q.2.:.",
"W W V N n Z K &.,.q.p.a.q.0.2.2.:.J Z y Z L ,.2.2.,.;.J K S G A r ; O # < w Z H U 0.s.h.<.K S P e.A.M.s.%.%.i.i.9.q.,.L S S J 6.a.l.K.j.a.7.2.,.",
"V V B M n A J ,.q.s.k.a.0.,.,.,.,.U A Z A U ,.0.q.,.&.A Z F S Z w 2 - : 7 Z H R ,.x.k.g.-.K n / A.(.).G.g.i.f.g.h.w.,.K Z Z K 7.j.l.j.j.w.0.,.;.",
"B m M M n J &.2.s.k.g.a.0.;.;.,.,.&.L K K J U ;.:.;.J A b t y r 9 3 9 9 f H T ,.q.a.j.a.=.l Z 3.S.oX:X{.I.P.M.h.q.0.>.A r y x -.h.K.K.k.9.=.U J ",
"V B m M n J ;.2.s.k.k.a.<.:.;.;.:.,.,.;.U K K D K P H S b r 9 2 3 9 a n K T ,.q.a.s.s.7.R k S 3.S.oX:XpX0X Xn.q.=.T Y k 5 2 p &.w.z.K.l.9.&.K Z ",
"V V M M Z D J ,.q.g.g.a.q.,.:.;.,.,.2.,.U D Z M b Z S S Z w : - : 9 Z H T ,.q.h.g.s.a.,.J n n U b._.:XjXgX*XA.,.K D Z 7 = ; 3 j ,.s.M.g.7.U Z v ",
"B m m M Z A K L <.q.a.u.q.,.,.,.2.,.-.;.U A f e q q f Z Z 9 : O * 7 F Y >.q.s.j.k.g.w.:.A r r x 2.R.:XgXgX9XA.:.x r 7 * @ # - u j @.7.0.=.D b e ",
"m m M M Z Z Z K U ,.q.q.2.2.2.2.2.:.U K A F y w 2 2 9 n Z a : O & 8 M R 6.a.k.l.k.h.x.,.j 9 2 p #.N.{.:X9XXXA.,.d 5 = * o O O - 3 d x L H A f b ",
"B V m F Z y f Z D &.,.2.2.,.,.2.,.&.A Z M F k w : ; 2 r Z a 3 ; = 7 Z R q.g.l.j.g.h.w.,.d 2 # u +.j.W._._.S.m.,.x 3 - O & - - $ $ 2 r k F Z Z Z ",
"( ( Q G k b n M S K L &.L U &.;.U K k b M G S r < $ : w n f w 2 2 r K =.a.k.l.j.a.t.e.;.s : # u +.u.K.R.F.m.q.&.j i u u i i i : 2 4 e m F Z Z f ",
"H.X.] I k f M S F A A A A K A K K Z f b F G S a < # % w f Z f w s A L 0.a.k.j.s.w.,.>.H y = - u c 7.M.K.z.w.:.D l l j +.&.c j s r e t M Z Z Z f ",
"1XJ.| ^ Z r f k F Z Z k Z Z Z Z Z Z k Z Z S Z w < % < w Z F Z Z A J ,.q.h.g.h.8.,.T P Z 7 = ; 3 d ,.t.k.g.7.L Z Z L ,.q.2.,.;.A k n n k Z Z Z Z ",
"7X3XH.( n 5 5 w f f M F F M n y y k F Z Z k r 2 ; = 3 r F G F S P ;.2.x.a.u.0.,.L A f q 2 & - 1 s U 0.s.a.-.z M Z U e.r.r.4.T A y r r f f Z S S ",
"7X1XH.) b , < 2 9 r G G S Z b y y Z S Z n w 2 ; $ ; 2 f S G F S P ;.2.q.8.2.,.L A f 9 2 # O # < r A :.0.0.&.K y A U ,.e.4.T A r 9 2 2 5 r k F I ",
"4XJ.H.) B 6 $ ; : w Z G S Z n Z Z F S Z r 3 ; O # ; 3 r n Z M Z A U ,.0.2.,.;.H Z w 2 ; $ $ ; 2 q Z Y :.,.U A Z D T ,.:.Y Z q 2 $ + O $ 4 r k F ",
"3XJ.H.} ( M 6 > : 5 w a a y f Z A S Z r 3 ; $ X + $ < 5 w f n n A K U :.,.6.>.I M q 2 $ $ % 2 9 r b H T U L Z Z K ;.,.;.A 7 > & + X . + $ 5 w w ",
"J.1XJ.H.X.( B q 2 < 1 1 < 5 r Z S S r 2 : $ + + $ $ $ ; ; 9 f Z A S D T e.e.4./ F e : $ ; 2 r y y b Z H H A Z Z J 4.0.:.g 2 * & + X X X O $ = = ",
"J.J.J.3XJ.H.` B q 2 $ # X ; 5 y Z y 5 $ # $ ; ; ; & # $ ; 2 r k Z Z Z K &.,.>.Y Z w : = < w Z S S Z Z k Z y b Z J :.,.+.i - @ # $ ; - ; - - - - ",
"J.3X3XJ.3XJ.} ( m q = O . . $ 5 9 3 $ X X = 2 4 2 2 > $ = 4 q n M t r f h h h d 5 < # # 1 y S I G Z f r w e y F P J x p - X O # < 7 9 r q w w 9 ",
"J.3XJ.J.H.H.H.( C m q # . . . $ $ $ X . O , e v e e 6 7 4 q t t M t r 5 u : % % $ O X $ 1 r G I I S f 3 2 4 y S A s u % + . O = q m E Q ! ! ! E ",
"3XJ.J.H.| | | } } ~ B e , $ $ $ $ $ # % 4 t V V V V B B V B B B N S Z r < - $ $ ; $ $ ; 3 y Z S G Z w : ; 3 y Z f 2 - O + - 2 e V C [ ..........",
"<X<XH.X.{ | O.O.X.} ] C G Z b v y w r b F E ~ ( ( ( ( ( ` ` ( ( ` ^ ^ H v v 9 9 r w 7 4 7 9 w r y w 5 $ $ : 5 w q 4 , , 9 f F W ` } o.>X>X>XO.o.",
"2X<XH.X.| ..X.U.,XJ.H.X. .{ _ ~ ! Q ! ! _ ] [ { ] [ } X.H.H.H.X.X.o.X.{ ^ ! ! ! ! W V v q 2 < 3 1 2 < ; $ $ : 2 4 q e m E ^ [ | X.>X<X<X>XO.O...",
"2X<X>X} } } >X>X2X,X<X1X<X,X>XX.....{ ..........| ..X.J.1X1XJ.J.<X<X>XO...........[ ~ B q 2 = $ $ ; ; ; ; $ $ $ 2 e C C ] ..o.>X1X1X2X<XO.o...{ ",
"1X<X>XH.X.} >X<X2X2X2X3X7X3X3X<X>XH.>X>XO.o.o.......H.1X2X3X3X3X5X3X4X4X4X>XJ.4X>X..] C t > # . X # $ ; ; $ + $ > t C ] ..O.,X4X2X2X2X<Xo...{ { "
};
