/* XPM */
static const char *wall_37[] = {
/* columns rows colors chars-per-pixel */
"72 72 235 2 ",
"   c #3C1222",
".  c #4D0B16",
"X  c #4D0E19",
"o  c #490815",
"O  c #500D18",
"+  c #4E111C",
"@  c #47111D",
"#  c #51131D",
"$  c #4A010D",
"%  c #4C1521",
"&  c #4D1A25",
"*  c #401D2A",
"=  c #521720",
"-  c #531A22",
";  c #581C24",
":  c #4A232C",
">  c #552027",
",  c #55242B",
"<  c #59252B",
"1  c #55292E",
"2  c #5A292E",
"3  c #5B2226",
"4  c #4B2B34",
"5  c #4D2730",
"6  c #552C32",
"7  c #5A2E33",
"8  c #4D313B",
"9  c #543236",
"0  c #5C3236",
"q  c #553539",
"w  c #5D3539",
"e  c #563A3D",
"r  c #5D3A3D",
"t  c #642C2D",
"y  c #652726",
"u  c #6B342E",
"i  c #633335",
"p  c #6A3534",
"a  c #613739",
"s  c #623B3C",
"d  c #6B3E3C",
"f  c #6D3A33",
"g  c #743D36",
"h  c #662F31",
"j  c #65403E",
"k  c #6B423E",
"l  c #75453E",
"z  c #7B453D",
"x  c #7B4B3E",
"c  c #563A41",
"v  c #5C3E41",
"b  c #523741",
"n  c #613E41",
"m  c #5D4244",
"M  c #5B4A4A",
"N  c #574645",
"B  c #5C5452",
"V  c #5F4F50",
"C  c #634343",
"Z  c #6B4643",
"A  c #654847",
"S  c #6D4944",
"D  c #654B4A",
"F  c #6D4D4A",
"G  c #62464A",
"H  c #734C44",
"J  c #794E45",
"K  c #734D49",
"L  c #7A4F48",
"P  c #754741",
"I  c #6A524E",
"U  c #7C5246",
"Y  c #75514A",
"T  c #7C5249",
"R  c #78564B",
"E  c #654E51",
"W  c #645355",
"Q  c #635B5B",
"!  c #685759",
"~  c #65605F",
"^  c #656361",
"/  c #6C6465",
"(  c #6C6B6A",
")  c #6E6769",
"_  c #716D6D",
"`  c #706666",
"'  c #6E7270",
"]  c gray45",
"[  c #757A77",
"{  c #767B7A",
"}  c #787B7B",
"|  c #777778",
" . c #726F70",
".. c #6C5F62",
"X. c #8C533B",
"o. c #945B3C",
"O. c #854B3A",
"+. c #99603D",
"@. c #A3673D",
"#. c #835445",
"$. c #8B5643",
"%. c #865945",
"&. c #8C5A45",
"*. c #835549",
"=. c #89574A",
"-. c #855A4B",
";. c #8C5A4A",
":. c #925D44",
">. c #925E4B",
",. c #9A5D45",
"<. c #895F51",
"1. c #824F43",
"2. c #A05C4C",
"3. c #946245",
"4. c #9B6444",
"5. c #9E6947",
"6. c #95614B",
"7. c #9B654B",
"8. c #9D694A",
"9. c #8A665A",
"0. c #936352",
"q. c #9C6651",
"w. c #9E6856",
"e. c #996959",
"r. c #956851",
"t. c #A36B45",
"y. c #AB6E43",
"u. c #A46C4A",
"i. c #A96E4C",
"p. c #A3664A",
"a. c #AC7246",
"s. c #AD734A",
"d. c #A6714D",
"f. c #B2764B",
"g. c #B5794B",
"h. c #BA7B4B",
"j. c #B37445",
"k. c #A36A53",
"l. c #AB6E53",
"z. c #A66B56",
"x. c #A4735C",
"c. c #AC745B",
"v. c #AA795E",
"b. c #A97353",
"n. c #B37554",
"m. c #B57A53",
"M. c #BB7C53",
"N. c #B5765B",
"B. c #B37A5C",
"V. c #BC7B5D",
"C. c #BA7753",
"Z. c #AD7B62",
"A. c #A47762",
"S. c #BA7D62",
"D. c #B87E66",
"F. c #C37E5C",
"G. c #78827E",
"H. c #76817C",
"J. c #BE814F",
"K. c #BE8055",
"L. c #B5815A",
"P. c #BC855B",
"I. c #BB885D",
"U. c #BE8963",
"Y. c #BA8568",
"T. c #B68B71",
"R. c #B99276",
"E. c #C28356",
"W. c #C4835C",
"Q. c #C9895A",
"!. c #C5844F",
"~. c #C48462",
"^. c #CA8564",
"/. c #C38D64",
"(. c #CC8B65",
"). c #CD8C6B",
"_. c #C4896B",
"`. c #D28D69",
"'. c #C59065",
"]. c #C6946C",
"[. c #CB946D",
"{. c #C9986F",
"}. c #CA9365",
"|. c #D5916A",
" X c #D39768",
".X c #CC9572",
"XX c #C49975",
"oX c #CB9C73",
"OX c #C59978",
"+X c #D39372",
"@X c #DA9572",
"#X c #D59A76",
"$X c #D59D79",
"%X c #DA9D7B",
"&X c #D99B72",
"*X c #D08F71",
"=X c #CDA077",
"-X c #CEA27A",
";X c #D2A276",
":X c #D2A57C",
">X c #DBA47E",
",X c #D4A87E",
"<X c #D9A87C",
"1X c #E3A47D",
"2X c #E4AB7F",
"3X c #7A8581",
"4X c #7B8C84",
"5X c #7E928A",
"6X c #7C9087",
"7X c #829D93",
"8X c #80958C",
"9X c #C6A183",
"0X c #D3A781",
"qX c #DBA681",
"wX c #D6AD84",
"eX c #DAAD84",
"rX c #DEAE89",
"tX c #D6B086",
"yX c #D9B087",
"uX c #DBB38A",
"iX c #DAB68C",
"pX c #DDBB90",
"aX c #E4AA85",
"sX c #E3B48C",
"dX c #E3B98F",
"fX c #E4B488",
"gX c #E5BC93",
"hX c #EABD94",
"jX c #E6B791",
"kX c #F2B68B",
"lX c #EAC097",
"zX c #EBC49A",
"xX c #E8C398",
"cX c #F5C99B",
"vX c #F0CBA2",
/* pixels */
"wXwXyXiXgXlXlXhXjXiXyXuXiXwX{.m.y.y.m.'.:XyXwXoXL.a.y.C.^.+X@X*X^.m.d.t.a.f.h.h.h.f.u.>.;.;.;.;.;.;.>.>.>.6.6.6.*.K D D I D a ; O + : N Q / _ | ",
"wXwXyXsXgXzXlXgXsXyXwXyXyXwXoXL.s.s.L.].:XyXwXoXL.s.f.F.).+X+X).~.C.s.a.a.s.f.f.s.p.6.;.=.;.;.;.;.;.;.;.;.;.>.;.#.S C C C C 0 > = - 9 M Q ( ] | ",
"wXwXuXjXzXzXzXjXuX,X:X0XyXwXoXI.m.m.U.oX0XyXwXoXI.n.M.~.+X#X[.^.E.M.f.s.d.i.u.8.4.&.#.T T *.;.;.;.;.*.#.T T *.T P s w 0 w w 7 1 1 9 N Q ( ] { } ",
"wXwXuXjXzXzXlXiX0XoXoX-XwXyX:X'.I.I.{.:XtXuXwXoX~.W.~.oX:XoX/.M.h.h.g.f.i.7.>.%.U H S S H T =.;.;.;.*.H S S S S s 7 > ; ; > 1 9 v M Q ) ] { } } ",
"wXwXuXdXgXgXiXwX-X{.].oX:XwX:XoX].{.:XwXuXuXwX$X[.).#X0XwX=XI.s.y.a.s.i.7.;.T S C v v C H U ;.>.>.;.U S C C C C w < = + # = , q M Q ) ] | | ] ] ",
"wXwXeXeXeXeX:X-XoX{.{.oX-X:X:X-X-X:X0XyXyXyXwX,X#X$X>XeXeXoXL.t.+.:.&.;.T H S Z C C n C H *.6.7.7.6.*.H C A S Z a 7 - % = ; < 9 N W ( ' _ / ! W ",
"tXwX0X:XoX{.{.{.oX-X:X-XoXoXoX:X0XwXwXyXwXwXwX0X0X0XeXqX%X).n.7.%.J S Z C C S H J J H J *.6.p.d.d.p.6.#.J L T U H s 6 6 0 0 2 < 6 v W ^ ! m 0 7 ",
"yXwX:XoX]././.].oX0XwX:XoX].{.:XwXyXtXwXwXwXwXwXwXwX>X#X).V.k.;.J Z C v v C H *.;.;.;.;.6.p.s.g.f.s.p.6.;.;.;.;.*.S C C C C 0 ; = , c M v 1 = O ",
"yXwX:XoX{.].].oX:XyXyX:X{./.].-XwXyXtXwX0XwXeXuXiXtX:X).V.k.=.L H H H H S S J *.>.6.8.7.u.s.g.h.h.g.s.u.7.7.>.;.*.T K I I D a ; # = 1 9 1 = . o ",
"wXwXwX:X-X=X=X:X0XyXyX:X{./.].-XwXyXwXwXwXwXyXiXiXwXoXY.k.#.S Z H %.3.6.;.*.*.*.>.7.p.s.f.g.g.g.g.g.f.s.u.7.>.;.*.*.T R Y D r > # + % - - # + X ",
"wXwXwXwXwXwXwXwXyXyXwX:XoX].oX:XwXyXyXwXwX0XwXuXuXwXXXc.;.P r C U 7.s.s.7.;.*.*.;.6.u.s.f.f.s.s.s.s.s.f.s.p.6.;.;.;.;.*.K C 0 > = # # = = = = = ",
"wXwXyXyXyXyXyXyXyXyXwX:X-XoX-X:XwXyXyXtX0X-X:XwXuXwXXXx.#.k s Z *.p.f.s.7.*.T *.;.6.8.u.u.p.5.4.4.5.u.s.s.d.8.6.6.7.6.*.k 0 , - = ; > < > ; ; = ",
"yXyXyXyXyXyXyXwXwXwXwX0X0XwXwX0XwXyXyXyX:XoXoX:XeXwXXXx.*.P P U ;.8.u.7.%.H H *.;.6.6.6.6.>.&.%.$.&.4.u.s.f.d.u.i.k.6.1.p > + + = < 0 a 0 < = # ",
"wXwXwXwXwXwXwXwXwXwXwXwXwXwXwXwXwXwXyXwX-X{.].=XeXwXXXx.;.1.#.;.>.>.;.U Z C Z U ;.>.>.;.;.;.;.;.=.;.6.p.s.f.f.s.s.8.;.l t = X X = 2 s C r < = + ",
":X:X:XwXwX0XwXwXwXwXwX0X:X:X,X0XwXwXwX:XoX{.{.:XeXwXXXv.6.$.&.;.;.*.H C v c C H %.&.&.&.>.q.w.w.w.w.k.i.s.f.f.d.7.$.z p 7 > % + # < w s w < # X ",
"oXoX=X:XwXwXwXwXwXtXwX:XoXoX=XwXwXwX=XoX{.oX:XwXyXwXoXL.t.:.:.;.*.H C v c c n H #.&.:.4.i.N.D.D.D.D.B.n.f.s.d.7.$.g t 2 0 0 2 = # - < 2 < ; # # ",
"'.].oX:XwXyXeXwXwXyXwX:X{.].oX:XwX:XoX].{.-XwXiXiXwXoXP.s.t.,.;.T S C v v C S T ;.7.t.s.M.^.).+X+X).^.M.s.u.8.;.l 3 = , w C s 2 = # # = = = = = ",
"U./.oX0XiXdXyXwXwXwXwX:XoX{.oX,XwX,XoXoXoX:XyXiXiXwX#X/.M.f.i.7.;.U H S H U ;.0.k.c.m.K.W.(.(.|.|.(.Q.C.u.7.;.J i % o & w A A r > + o o + & , , ",
"I./.oXeXgXgXiXwX0XwXwX0X:X:X:X0XwX0X:X:X:X0XyXyXyXwX:X[.^.F.M.s.8.;.*.%.&.5.b.B.S._._.(.W.E.K.E.E.W.M.s.7.;.T S 7 % o % 0 A D C 0 , X o % : 9 e ",
"/.].;XuXgXgXiXwXwX0XwXwXwXwXwXwXwXwXwXwXwXwXwXtXtXwX,X#X).W.M.s.5.>.;.>.5.s.M.^.).+X+X).~.m.s.a.a.s.i.7.;.T F C 0 - = > 0 C D D C 0 ; = > w C D ",
"{.oX:XeXuXuXyXwXwXwXwXwXyXyXyXyXwXwXtXwXwXwXwXwXwXwXqX$X).V.i.3.#.U *.;.7.d.M.W.(.|.|.(.E.s.t.4.3.3.&.%.U K A C s i t i a C D F F k p u g J T -.",
":X:X:X:X:X:X0XwXwXwXwXwXwXyXyXyXyXwXwXwXwXwXwXwXwXwXeX;X].c.;.l j s Z J ;.7.s.C.K.W.W.E.C.i.7.%.U J H S S A C C Z l x l k C A K T #.$.X.:.4.5.8.",
"yXwX:XoX].{.:XwXyXtXwXwXwXwXwXwXwXwXwXwXwXwXwXwXwXwXeX;X].v.-.C e e C H T ;.7.u.s.f.f.s.u.7.;.U S C C C C C v C H *.;.*.S C C J ;.7.u.s.s.s.s.d.",
"iXyX:X{./.'.=XwXyXyXwXwXwXwXwX:X:X0XeXyXyXyXwXwX0X0XeX,XoXY.e.R S S H U T *.>.7.t.t.4.3.%.#.L S C v v v m v r C K ;.6.*.Z v Z %.p.f.J.J.h.g.s.i.",
"iXyX:X{./.].-XwXyXyXwXwXwXwX:XoXoX:XuXdXdXuXwX0XwX0XtXtXwXXXY.x.w.7.3.&.;.;.>.6.7.>.%.J H Z Z C v v v n C v v C H ;.;.T C v Z >.f.!.!.J.g.i.p.7.",
"yXwX:XoX].{.:XwXyXwXwXwXyXwX-X{.].#XuXgXgXiXwXwX0XwXtXtXwX,X#X).W.M.s.5.>.;.;.;.;.#.H C v C C C C C C C C m v C H *.;.T Z C H 3.s.h.h.s.8.6.;.*.",
"wX0X:X=XoX=X,XwXwXwXwXyXyXwX=X'./.oXeXhXgXuX0X0XeXyXyX0X:X>X%X@X|.E.g.t.3.;.*.T K Z v v v C S S S S A A C C C Z J %.>.&.#.U U %.3.4.4.>.%.U H H ",
"wXwX,X:X:XwXwXwXwXwXwXyXuXwX=X/.U.{.eXgXgXyXwXwXiXdXrX:X+X+X@X@X(.E.j.t.6.;.T K C v c v A H U T Y F A A A Z S J %.3.5.u.u.7.;.U H H H J H S Z Z ",
"wXwXwXwXwXwXwXwXwXwXwXwXyXwX-X{.].#XuXgXgXyXwXyXgXgXsX$X).(.).).^.M.s.t.7.;.T S C v v C H *.;.*.H C v v C S T ;.7.u.s.g.h.s.6.U C v v C C C C C ",
"iXiXyXtXwXwXwXwXwXwXwXwXwX0X:X:X<XsXgXzXlXdXuXjXlXhXsX$X).^.^.^.~.V.n.i.7.>.%.U J Z C Z T ;.>.#.d 6 5 4 r H ;.k.n.n.M.h.h.j.5.%.H A C Z Z C C C ",
"gXgXpXyXwX-X-X0XwXwXwXwX-X-X,XfXgXzXzXzXzXgXgXgXlXhXsX0XoX[.^.~.~.~.F.n.i.5.4.3.3.%.U J *.;.;.z t &   : e R w.V.^.^.E.M.g.a.t.4.6.;.*.T J H H J ",
"lXgXjXuXwXwX0XwXyXyXwX-X{.].oXeXgXzXzXgXgXgXgXhXhXgXjXiXwX:X.X).).*X).^.m.s.a.a.s.p.6.;.;.6.;.z t = % 5 C <.Z.).@X@X).~.C.s.a.a.s.u.6.;.=.;.;.;.",
"sXdXdXdXdXgXgXdXdXsX>X{./.P.U.XX9X0X0X<XeXfXdXjXjXgXlXlXgXsXeX>X%X%X$XoX/.P.K.M.M.C.l.k.q.7.:.O.g u p d *.e.Y.#X2XaX%X.XU.L.g.g.j.t.:.$.>.6.k.l.",
"$X>XaXjXcXcXcXcXhXaX#X(.M.s.b.x.A.Z.Y./.}.&X>XeXuXiXgXzXzXzXgXjXsXrXeX,X-X{.'.W.W.F.F.V.n.p.4.o.,.2.2.k.z.Y..X>XsXsXsXeX:X{.I.h.y.o.X.#.>.l.V.~.",
"^.).#XeXhXzXzXhXaX$X).W.M.s.8.>.;.>.5.s.M.W.).#X:XwXuXjXgXhXlXgXsXyXwXwXtXwX:X.X).).*X).W.m.s.m.W.).*X`.)..X:XwXiXjXgXgXjXwXoXI.s.4.$.;.k.S.).@X",
"n.N.D.T.R.9X9XOXXXY.V.V.M.m.i.4.$.X.o.4.p.l.N.U.].oXoXOX$X0XeXyX<X;X=X,XiXgXgXrXqX%X%X$X[././.{.2XkXkXkX2X>X0XyXiXpXgXzXzXgXyX=X/.B.x.A.Y..X>XaX",
"p.q.0.9.9.9.9.9.e.q.k.N.F.^.V.s.4.o.:.:.>.>.q.b.m.P.L.v.A.Z.U.}.Q.P.I.{.uXzXvXzXjXsXeX0X:X;X<XfXcXcXcXkXfXfXeXtXyXiXpXgXzXzXzXjXeX-XOXOX-XeXaXfX",
">.;.*.H C v v C Z J ;.z.~.).(.E.s.5.3.;.*.*.;.7.i.s.u.6.;.>.u.s.a.y.s.I.,XgXzXzXgXsXyXwXwXwXwXuXjXgXjXuXwX0XwXwXwX0XwXyXdXgXlXlXgXdXyXwX0XwXwXwX",
";.*.U P s 9 8 8 9 e H 0.S.(.(.E.s.8.6.;.*.*.*.>.5.t.4.$.1.#.$.:.o.o.4.n.{.<XfXuXeXeXeXeX:XOXOXR.T.T.T.T.T.R.-X,X>X>X:X:X:X,XeXuXuXeX,X-XXXXXXXXX",
";.*.%.#.P j e q 8 8 C -.b.K.E.n.u.6.>.;.;.*.*.&.>.4.,.:.$.U J J J #.>.i.V./.'././.[.&X$X.XT.A.0.#.J P T 9.A.T.#X1X%X#X]./.U./.'.}./.Y.Z.Z.v.v.v.",
";.;.;.>.;.*.H C c c C U 7.s.s.7.;.*.=.;.;.;.;.;.;.;.>.>.;.U Z C Z J ;.7.i.s.a.a.s.M.^.)._.c.;.g 3 = & 5 C <.Z.).@X@X).~.C.s.a.a.s.u.6.;.;.;.;.;.",
";.;.>.>.>.;.*.U H S J %.4.5.3.%.H H J *.;.>.>.;.*.T *.-.-.H s q s J ;.7.4.4.o.+.4.i.n.V.N.l.:.g 3 @   * q L w.V.^.^.W.M.g.y.@.@.o.X.x k k P l P ",
";.;.;.;.;.;.3.3.3.3.3.4.7.6.%.H C C C H *.;.>.;.J S F Y Y j 6 , 7 P ;.6.>.&.&.:.,.7.7.k.l.s.t.X.f 6 : 4 e H ;.k.n.M.M.h.j.j.y.4.&.J Z s r s s j ",
";.;.;.=.;.6.p.s.f.f.s.u.7.;.T S C v v C H *.;.*.H C m C C 0 - = y l ;.0.6.;.;.;.;.=.*.;.7.s.s.7.U C c v C S T ;.7.u.s.f.f.s.u.7.;.T S C C C C C ",
";.;.;.;.6.i.m.E.Q.Q.M.s.7.*.J H Z C v v C H *.U S m e w 7 - + # 3 g *.0.0.<.;.*.T H H U :.5.t.3.Y C N C Z Z Z J %.7.u.d.u.8.7.7.6.;.U J S S S S ",
";.;.>.4.u.C.W.(.|.`.W.n.6.*.J U U H C v v C S S S C w 6 - + . # > s K -.0.0.*.K A C H J $.:.$.U Z v v C C C C Z U 6.8.6.-.R *.6.p.p.4.3.%.U T L ",
"=.;.>.5.s.M.^.).+X@X).S.w.;.%.;.;.*.H C v v C A A C w < = + # = < 0 C Y -.;.#.S C Z U ;.6.>.;.U S C m C C C v C H *.;.T Z C H 3.s.h.h.s.8.6.;.*.",
"=.;.>.7.d.f.M.~.[.$X$X).B.q.>.>.>.;.*.H Z C v m C C s 7 < > > < 1 6 7 a l z l Z S T 0.z.B.Z.A.e.0.*.H C v v N C S P l i 6 6 k :.g.!.Q.E.n.k.6.;.",
";.;.;.6.7.p.i.m./.>XaXqX).N.p.>.>.;.;.*.J Z C v C C s s w r s w 7 < - ; 3 t p l *.0.c.~..X$X9XOXY.c.;.S v c N C Z p y - % & u X.f.Q.|.(.V.z.>.$.",
";.;.;.;.;.:.4.s.'.eXgXhXaX).N.7.;.;.;.;.*.H C v C C C C C A A C w < = X X = 2 l ;.z.V.).>XsXgXjX1X).z.*.C v m C s 2 = X @ = u X.s.Q.|.).S.w.;.U ",
"6.;.*.T J %.4.C.[.uXzXcXhX>X_.z.;.#.#.*.T S C C C A C s s C A A C w < + X + > d *.q.c.~.#XsXhXkXkX@XS.q.U k s w 7 , & % % > p X.u.K.(.^.c.0.U H ",
"6.>.#.H S #.k.^.>XsXzXvXcXdXoXc.;.J P H S C C A D A s 7 2 7 r C A C w < % + ; a H -.6.z.Y.#XaXaX1X@X^.n.6.x i < , 6 6 6 6 0 d #.7.n.E.M.k.*.S n ",
"6.;.J C C T z.).1XfXgXzXcXgX$XZ.;.l j C C C C A A C 0 > = ; 0 C D D C 0 > = - 0 C S U ;.z.S.).+X+X).(.E.s.X.y = & 7 C A C C Z J ;.u.f.s.4.U C c ",
";.#.H C m K w.~.#XqXfXhXhXsXOXZ.;.l s v v v C C n w < # # ; 0 A D A s 7 ; - , 6 v A H %.7.l.V.W.^.^.Q.Q.g.X.y + - a Y R I A A F T >.p.t.&.H v b ",
"H S C v v S ;.z.Y.+X%XaXaX>X_.x.;.P j m m C C s 0 < = + # < r A A r 2 ; # = , 9 v S T ;.7.i.f.M.M.M.E.E.f.X.y + ; d *.-.Y A m C F *.6.3.$.H C c ",
"C C C C C Z J ;.z.S.).@X@X).S.z.;.J Z C C C C w < = X X = 2 s C s 2 = X # = < w C F T ;.7.u.s.s.s.s.g.h.s.X.t = 3 l ;.;.Y C e c C H *.;.*.H C v ",
"m m C A A A Z J ;.z.V.~.W.F.n.k.;.J Z C C D A a > # X X = 2 0 w 7 > # . X = < r A F K *.>.u.a.t.4.3.8.s.s.o.f < 7 x >.;.T C q 9 0 d H T T S C r ",
"C C C D D A C Z J ;.k.n.C.C.f.u.>.U Z C C D A s < # X + = > < < > ; # + + = < s A D A H $.t.a.5.#.J %.u.s.4.l w s J ;.;.Y C 9 , > 7 d F F S C s ",
"C C C C C C m C S L ;.7.i.s.d.7.;.J Z C C C C w < = # # = = = = = = = # # = < a C m v C #.p.s.7.H C H 7.s.8.U C Z U ;.;.Y C 6 - = > 0 C A A C C ",
"s w w 0 7 0 w r A S T ;.8.u.8.>.U H Z C n r w 7 > = = = = = # # # # # # # = > 7 w e c C T 8.i.6.S v S >.u.7.U A S T ;.;.R A 0 - # = < w C C A A ",
"7 2 > ; = > 7 r C D F T 6.7.>.#.S A C C r 7 < ; = = = = = = # # # # # = = = - > < 6 e C R 6.7.;.Z v Z %.7.;.H A S #.;.;.R A w , = # = < w C D F ",
"= = # # = < w C C m C H *.;.*.H C m C C w < = # # = = = = = = = = = = = = = # # = , 0 C Y *.;.#.Z C S *.;.*.S C Z #.;.*.Y C 0 > = # X = 2 w C A ",
"o . # ; 7 C F I C w 7 i l T T S C m D A a > # + # = = # # = > , 1 1 , > = # O X # = 1 w Z H U H Z C Z T T H Z C Z T *.T Z w 6 ; # O . . = < 7 w ",
"$ . ; r ! _ _ / G 6 = ; i S F D C D D A s < = # = - = # # - 6 e c e q 6 - # O O # # - < i d Z Z C C C S F S C C C F K Z a 2 - = # # . . + # = ; ",
". = 7 W ] 4X4X] W 7 = = 7 C D A C C A C w < = # = = # # = < e M B B M e < = # # = = # = < w C A A C C C C C C C A A C w < = # # = = = = = = = = ",
"< 0 G ..} 5X5XH./ G 7 6 q r r w 0 0 w 0 2 - + . . . + + , q M Q ^ ^ Q M 9 , > , , - + X ; 0 C D D A s w w r C A A m 0 , + . . + > 6 0 0 0 0 7 7 ",
"E ! ! ) { 3X4X4X[ ` ! G N c q < ; ; ; ; - # . $ $ o + > q M Q / ( ' / W N q 9 q q , + X - 0 C I I A r 1 < 7 s A C w > + . o X & 9 N E ! ! ! W W ",
"] ] ]  .] { 3X4X4XG.] ) Q M q , = # # = = = = # # = , q M Q ( ] { | ] / W M M M M e , = ; 0 C D D C 0 ; = < w C s 2 = X # = , q M Q ) ] | | ] ] ",
"4X3XG.{ [ { G.4X4X3X} ] ( Q M 9 , - - , 6 0 r n n C G W Q ( ] } 3X3X} ] / Q Q ~ Q V e 6 < 7 w s s 0 < = # ; 7 w 7 ; # = < r G Q ^ ' H.3X3X3X} { ",
"4X4X4X3XG.4X4X4X4XG.{ | ] ) Q M e 9 9 e m E ! / _ _ ) ) ) ] { 4X4X4X4X{ ] ( ( ( ( ^ M r 9 < < > < < ; = # = > < ; # # < C ! ( ] [ G.4X4X3X} { | ",
"4X4X4X4X4X4X4X4XG.[ ] | | ] ) Q M N N M W / ] G.4X4XG.[ ] | H.4X6X6X4XG.[ ] ] | ] ( Q M q , = # # = = = = = - = + X = 0 ! ] 3X4X4X4X6X4XG.{ ]  .",
"4X4X4X4X6X6X6X4XH.] _ ] | { ] ^ B M M B ^ ' 3X8X7X7X5X3X{ { G.4X5X5X4X3X{ { | | { ] ^ B e , + . . + = = = = = + . . = r / 3X5X8X8X5X5X4XH.| _ _ "
};
