/* XPM */
static char *_668855989_16756723921675672398[] = {
/* columns rows colors chars-per-pixel */
"72 72 227 2 ",
"   c #000000",
".  c #0B0300",
"X  c #090900",
"o  c #00000A",
"O  c #150500",
"+  c #130B00",
"@  c #1B0E00",
"#  c #1D1200",
"$  c #171400",
"%  c #210C00",
"&  c #241400",
"*  c #291600",
"=  c #251D00",
"-  c #2B1A00",
";  c #311E00",
":  c #381501",
">  c #2B2300",
",  c #2E2C00",
"<  c #242400",
"1  c #332300",
"2  c #392500",
"3  c #342C00",
"4  c #392C00",
"5  c #3B3300",
"6  c #3C3C00",
"7  c #353B00",
"8  c #220025",
"9  c #421E00",
"0  c #432500",
"q  c #412C00",
"w  c #4C2C00",
"e  c #552700",
"r  c #413400",
"t  c #433B00",
"y  c #493C00",
"u  c #4E3206",
"i  c #5B3300",
"p  c #543400",
"a  c #643B00",
"s  c #643800",
"d  c #773F00",
"f  c #3C4100",
"g  c #444200",
"h  c #4B4200",
"j  c #4C4900",
"k  c #414B00",
"l  c #534E00",
"z  c #5C4800",
"x  c #595500",
"c  c #5B5C00",
"v  c #575400",
"b  c #654100",
"n  c #6C4400",
"m  c #684B00",
"M  c #764B00",
"N  c #695600",
"B  c #7B5400",
"V  c #755900",
"C  c #686200",
"Z  c #797101",
"A  c #7A6900",
"S  c #0F024F",
"D  c #12054F",
"F  c #2B2B61",
"G  c #2F3161",
"H  c #5B634F",
"J  c #6F754F",
"K  c #D42600",
"L  c #D82A00",
"P  c #D73F00",
"I  c #D0310D",
"U  c #DB281D",
"Y  c #DA3324",
"T  c #845D00",
"R  c #8A5C00",
"E  c #845400",
"W  c #945500",
"Q  c #945B00",
"!  c #995B00",
"~  c #8C510E",
"^  c #A94E00",
"/  c #866300",
"(  c #8B6D00",
")  c #856B00",
"_  c #966800",
"`  c #8A7400",
"'  c #8B7600",
"]  c #937500",
"[  c #937B00",
"{  c #9A7800",
"}  c #9C7300",
"|  c #9D6B1B",
" . c #A76F00",
".. c #AB6D00",
"X. c #A76600",
"o. c #B76900",
"O. c #AE7B00",
"+. c #AA7400",
"@. c #B57800",
"#. c #DA5D00",
"$. c #D14807",
"%. c #E64B04",
"&. c #EA5900",
"*. c #CA7500",
"=. c #D96807",
"-. c #E17700",
";. c #E37B00",
":. c #E96A1E",
">. c #EC4F3F",
",. c #D37B2D",
"<. c #F47F3E",
"1. c #EF564D",
"2. c #F37C4E",
"3. c #78804F",
"4. c #958200",
"5. c #948A00",
"6. c #9A8600",
"7. c #9C9700",
"8. c #9D9800",
"9. c #A68900",
"0. c #B58500",
"q. c #B98300",
"w. c #BB8C00",
"e. c #B58900",
"r. c #AC9200",
"t. c #A49F00",
"y. c #A89401",
"u. c #BC9200",
"i. c #B79800",
"p. c #9FA100",
"a. c #ABA400",
"s. c #A7A800",
"d. c #B9AB02",
"f. c #B3B200",
"g. c #BCBB00",
"h. c #AAB100",
"j. c #B6B925",
"k. c #C38E00",
"l. c #C58800",
"z. c #D08C00",
"x. c #C49400",
"c. c #CE9200",
"v. c #C49B00",
"b. c #CB9B00",
"n. c #D49B00",
"m. c #D79300",
"M. c #F48800",
"N. c #FB9600",
"B. c #EC8E00",
"V. c #CDA300",
"C. c #C4A700",
"Z. c #D3A300",
"A. c #DBA400",
"S. c #D3AA00",
"D. c #DBAC00",
"F. c #C2BC00",
"G. c #C9B400",
"H. c #DEB600",
"J. c #DABC00",
"K. c #D2B600",
"L. c #E6A900",
"P. c #E3B400",
"I. c #EDB400",
"U. c #E3BC00",
"Y. c #EEB807",
"T. c #F4BE00",
"R. c #FBB700",
"E. c #F1B30F",
"W. c #F1B231",
"Q. c #F2823E",
"!. c #B3C200",
"~. c #CBC402",
"^. c #DCC300",
"/. c #DECB00",
"(. c #D4CB00",
"). c #DAD602",
"_. c #E4C200",
"`. c #E3CA00",
"'. c #E9CD00",
"]. c #EBC200",
"[. c #F3C200",
"{. c #FEC600",
"}. c #FBCA00",
"|. c #E3D200",
" X c #EDD400",
".X c #EDDB00",
"XX c #E5DB01",
"oX c #F2D500",
"OX c #FED300",
"+X c #F3DC00",
"@X c #FEDC00",
"#X c #FBC81D",
"$X c #DEE000",
"%X c #ECE201",
"&X c #F5E400",
"*X c #FCE400",
"=X c #F6ED00",
"-X c #FCEC00",
";X c #FCEF0D",
":X c #F6F200",
">X c #FEF600",
",X c #FEFD00",
"<X c #FFF10E",
"1X c #FFE71D",
"2X c #FFC83F",
"3X c #FFD324",
"4X c #FFFF26",
"5X c #FFE624",
"6X c #CED725",
"7X c #FF875F",
"8X c #F89E4D",
"9X c #FFAE4D",
"0X c #D8DD4F",
"qX c #FFFF4F",
"wX c #FFFF51",
"eX c #F0EC4F",
"rX c #FFFF62",
"tX c #4E4AA8",
"yX c #AFB4A8",
"uX c #FFFFAA",
"iX c #E5E8AA",
"pX c #D3D3A8",
"aX c #9A9BCF",
"sX c #FFFFCF",
"dX c #FFFFD2",
"fX c white",
"gX c None",
/* pixels */
"gXgXgXgXgXgXgXgXgXgXgXgXgXgXgXgXgXgXgXgXgXgXgXgXgXgXgXgXgXgXgXgXgXgXgXgXgXgXgXgXgXgXgXgXgXgXgXgXgXgXgXgXgXgXgXgXgX      gXgXgXgXgXgXgXgXgXgXgXgX",
"gXgXgXgXgXgXgXgXgXgXgXgXgXgXgXgXgXgXgXgXgXgXgXgXgXgXgXgXgXgXgXgXgXgXgXgXgXgXgXgXgXgXgXgXgXgXgXgXgXgXgXgXgXgXgXgXgX      gXgXgXgXgXgXgXgXgXgXgXgX",
"gXgXgXgXgXgXgXgXgXgXgXgXgXgXgXgXgXgXgXgXgXgXgXgXgXgXgXgXgXgXgXgXgXgXgXgXgXgXgXgXgXgXgXgXgXgXgXgXgXgXgXgXgXgXgXgX6 l v l 5 gXgXgXgXgXgXgXgXgXgXgX",
"gXgXgXgXgXgXgXgXgXgXgXgXgXgXgXgXgXgXgXgXgXgXgXgXgXgXgXgXgXgXgXgXgXgXgXgXgXgXgXgXgXgXgXgXgXgXgXgXgXgXgXgXgXgXgX. x t.F.8.v   gXgXgXgXgXgXgXgXgXgX",
"gXgXgXgXgXgXgXgXgXgXgXgXgXgXgXgXgXgXgXgXgXgXgXgXgXgXgXgXgXgXgXgXgXgXgXgXgXgXgXgXgXgXgXgXgXgXgXgXgXgXgXgXgXgX    x F.>X~.v     gXgXgXgXgXgXgXgXgX",
"gXgXgXgXgXgXgXgXgXgXgXgXgXgXgXgXgXgXgXgXgXgXgXgXgXgXgXgXgXgXgXgXgXgXgXgXgXgXgXgXgXgXgXgXgXgXgXgXgXgXgXgXgXgX    j s.(.a.j     gXgXgXgXgXgXgXgXgX",
"gXgXgXgXgXgX                  gXgXgXgXgXgXgXgXgXgXgXgXgXgXgXgXgXgXgXgXgXgXgXgXgXgXgXgXgXgXgXgXgXgXgXgXgXgXgX    < l C l <     gXgXgXgXgXgXgXgXgX",
"gXgXgXgXgXgX                  gXgXgXgXgXgXgXgXgXgXgXgXgXgXgXgXgXgXgXgXgXgXgXgXgXgXgXgXgXgXgXgXgXgXgXgXgXgXgX                  gXgXgXgXgXgXgXgXgX",
"gXgXgXgXgXgX                    gXgXgXgXgXgXgXgXgXgXgXgXgXgXgXgXgXgXgXgXgXgXgXgXgXgXgXgXgXgXgXgXgXgXgXgXgX% - - & X           gXgXgXgXgXgXgXgXgX",
"gXgXgXgXgXgXgXgX              . .       gXgXgXgXgXgXgXgXgXgXgXgXgXgXgXgXgXgXgXgXgXgXgXgXgXgXgXgXgXgXgXgX  ; i a i *           gXgXgXgXgXgXgXgXgX",
"gXgXgXgXgXgXgXgXgX                        gXgXgXgXgXgXgXgXgXgXgXgXgXgXgXgXgXgXgXgXgXgXgXgXgXgXgXgXgXgX    2 B  .R q         . gXgXgXgXgXgXgXgXgX",
"gXgXgXgXgXgXgXgXgX                X @ & * # gXgXgXgXgXgXgXgXgXgXgXgXgXgXgXgXgXgXgXgXgXgXgXgXgXgXgXgX  $ 3 V 0.Z.b.' h = X     gXgXgXgXgXgXgXgXgX",
"gXgXgXgXgXgXgXgXgX                & w s i ;         gXgXgXgXgXgXgXgXgXgXgXgXgXgXgXgXgXgXgXgX        - z ` i.^.oXoX^.9.z =     gXgXgXgXgXgXgXgXgX",
"gXgXgXgXgXgXgXgXgX                q R  .R q         . gXgXgXgXgXgXgXgXgXgXgXgXgXgXgXgXgXgXX         r { P.*X>X>X>X*XH.( 4     gXgXgXgXgXgXgXgXgX",
"gXgXgXgXgXgXgXgXgXgX          @ q T x.D.i.A g 3 3 4 3 & gXgXgXgXgXgXgXgXgXgXgXgXgXgXgXgX# - - # & 3 A C.*X,X,X,X,X-XT.} q     gXgXgXgXgXgXgXgXgX",
"gXgXgXgXgXgXgXgXgXgXgX      & w R x.U.oX|.F.t.5.4.( N 1         .                       & u b M V ` i./.>X,X,X,X>XOXA.R 2     gXgXgXgXgXgXgXgXgX",
"gXgXgXgXgXgXgXgXgXgXgXgX    & s  .D.oX>X,X,X>X>X@XU.{ r         X                       ; n +.k.Z.U.'.&X>X,X,X>XoXD. .s &     gXgXgXgXgXgXgXgXgX",
"gXgXgXgXgXgXgXgXgXgXgXgX    @ w R v. X,X,X,X,X,X,X*Xd.V 4 = , g j g g t g g h g g 6 7 g m } c.I.}.*X>X:X,X>X,X&XK.} n : O   gXgXgXgXgXgXgXgXgXgX",
"gXgXgXgXgXgXgXgXgXgXgXgX      O q ` (.,X,X,X,X,X,X>X^.r.` ) 5.a.s.a.s.t.a.t.a.t.t.p.p.a.i.v.A.Y.+X>X,X>X>X>X>X'.9.m - .   gXgXgXgXgXgXgXgXgXgXgX",
"gXgXgXgXgXgXgXgXgXgXgXgXX         j f.>X,X,X>X>X,X>X+X_.P._.+X>X,X,X>X>X>X>X>X>X>X,X,X>X&X_.H._.+X>X,X,X>X>X*XH.` 4     gXgXgXgXgXgXgXgXgXgXgXgX",
"gXgXgXgXgXgXgXgXgXgXgXgXgX        t 9. X>X,X>X,X,X,X=X*X*X-X>X,X,X,X,X,X,X,X,X,X,X,X,X,X=X X'. X&X>X,X,X,X>XOXA.T 2     gXgXgXgXgXgXgXgXgXgXgXgX",
"gXgXgXgXgXgXgXgXgXgXgXgXgXgX      2 / Z.@X>X,X,X,X>X>X>X>X>X,X,X,X,X,X,X,X,X,X,X,X,X,X,X,X-X=X&X=X,X,X,X,X*X[.z.B ;     gXgXgXgXgXgXgXgXgXgXgXgX",
"gXgXgXgXgXgXgXgXgXgXgXgXgXgXgX    & a +.D.+X>X,X,X>X:X>X>X>X>X>X>X>X>X>X>X>X>X>X>X>X>X>X>X>X>X<X>X>X,X,X>XoXD. .s &     gXgXgXgXgXgXgXgXgXgXgXgX",
"gXgXgXgXgXgXgXgXgXgXgXgXgXgXgXgX. @ : d _ i./.&X:X>X>X>X,X:X:X:X:X=X:X:X=X:X:X=X:X:X=X:X:X,X,X,X>X:X=X&X`.d.} n 0 % . gXgXgXgXgXgXgXgXgXgXgXgXgX",
"gXgXgXgXgXgXgXgXgXgXgXgXgXgXgXgXgX  O - p T u._.*X<X,X,X:X:X:X:X>X>X>X>X>X>X:X>X>X>X:X>X>X,X,X,X,X=X+XU.u./ p - @   gXgXgXgXgXgXgXgXgXgXgXgXgXgX",
"gXgXgXgXgXgXgXgXgXgXgXgXgXgXgXgXgXgX    & s  .D.oX>X,X,X>X>X>X>X>X>X>X>X>X>X>X>X>X>X>X>X>X-X>X,X,X>X+XD. .a *     gXgXgXgXgXgXgXgXgXgXgXgXgXgXgX",
"gXgXgXgXgXgXgXgXgXgXgXgXgXgXgXgXgXgX    & s ..D.oX:X,X,X,X>X>X>X>X>X>X>X>X>X>X>X,X>X,X>X:X-X:X,X,X,X&XD...s &     gXgXgXgXgXgXgXgXgXgXgXgXgXgXgX",
"gXgXgXgXgXgXgXgXgXgXgXgXgXgXgXgXgXgX    ; B k.[.@X=X,X,X,X,X,X>X>X>X>X>X>X>X>X>X>X>X>X>X:X-X=X>X,X,X;X}.k.M ;     gXgXgXgXgXgXgXgXgXgXgXgXgXgXgX",
"gXgXgXgXgXgXgXgXgXgXgXgXgXgXgXgXgXgX    4 ( H.*X>X>X:X,X>X>X>X>X>X>X>X>X>X>X>X>X>X>X>X>X>X>X>X>X,X>X:X*XH.( 4     gXgXgXgXgXgXgXgXgXgXgXgXgXgXgX",
"gXgXgXgXgXgXgXgXgXgXgXgXgXgXgXgXgXgX    r 4.oX4XwXrX0Xj.s.f.).>X,X,X>X>X>X>X,X>X>X>X>X>X4XqXrX0Xj.p.F.+X Xy.y     gXgXgXgXgXgXgXgXgXgXgXgXgXgXgX",
"gXgXgXgXgXgXgXgXgXgXgXgXgXgXgXgXgXgXo   t 5.*XwXuXdXyXH 6 c f.>X,X,X>X=X=X:X=X;X>X>X:X>XqXuXsXyXH f Z (.*Xd.l     gXgXgXgXgXgXgXgXgXgXgXgXgXgXgX",
"gXgXgXgXgXgXgXgXgXgXgXgXgXgXgXgXgXgXo   g 7.>XrXdXfXaXF   , t.>X<X,X>X:X:X,X>X>X>X>X=X>XrXsXfXaXF   y F.>X~.x     gXgXgXgXgXgXgXgXgXgXgXgXgXgXgX",
"gXgXgXgXgXgXgXgXgXgXgXgXgXgXgXgXgX  o - N g.,XwXiXaXtXD . y a.,X,X,X>X:X,X,X,X;X>X,X,X>XeXpXaXtXD . v ~.,X).Z -     gXgXgXgXgXgXgXgXgXgXgXgXgXgX",
"gXgXgXgXgXgXgXgXgXgXgXgXgXgXgXgX  O : n i.&X,X6XJ F S 8 e ] K.>X,X,X>X>X,X,X,X:X>X,X,X>Xj.J G D 8 e { /.,X%Xr.n : O   gXgXgXgXgXgXgXgXgXgXgXgXgX",
"gXgXgXgXgXgXgXgXgXgXgXgXgXgXgX    & i +.[.>X>Xh.j   . e  .D.+X>X,X,X<X:X:X>X>X:X>X,X,X>Xs.f   . e  .U.*X>X*XP.+.s &     gXgXgXgXgXgXgXgXgXgXgXgX",
"gXgXgXgXgXgXgXgXgXgXgXgXgXgXgX    1 B c.{.OXT.y.c f j ] D.OX*X>X,X,X>X).a.7.s.(.>X,X,X>Xf.x 3 h [ U.OX}.T.T.R.c.B 2     gXgXgXgXgXgXgXgXgXgXgXgX",
"gXgXgXgXgXgXgXgXgXgXgXgXgXgXgX    5 ' H.R.N.-.*.y.h.!.(.+X*X-X>X,X,X>Xa.l , l a.>X,X,X>X(.a.7.f.$X:XOXB.-.B.R.D.[ 5     gXgXgXgXgXgXgXgXgXgXgXgX",
"gXgXgXgXgXgXgXgXgXgXgXgXgXgXgX    6 5.H.N.&.P #.I.>X,X,X>X:X=X>X,X,X>X8.3   , 8.>X,X,X>X=X:X<X,X,X>XI.#.$.&.N.P.5.6     gXgXgXgXgXgXgXgXgXgXgXgX",
"gXgXgXgXgXgXgXgXgXgXgXgXgXgXgX    6 4.H.N.%.K $.B.*X,X,X,X:X>X>X,X,X,Xf.c 7 c f.,X,X,X>X>X,X,X,X:X[.B.P K %.N.P.5.6     gXgXgXgXgXgXgXgXgXgXgXgX",
"gXgXgXgXgXgXgXgXgXgXgXgXgXgXgX    5 ` c.M.%.K K &.M.R.*X,X,X,X>X,X,X,X$Xg.h.g.$X,X,X,X>X,X,X,X&XI.;.%.K L &.M.n.' 5     gXgXgXgXgXgXgXgXgXgXgXgX",
"gXgXgXgXgXgXgXgXgXgXgXgXgXgXgX    > m  .*.#.P K K %.-.I.,X,X,X>X>X>X>X>X>X>X>X>X>X>X>X>X,X,X>X[.*.I K K P #.*. .m >     gXgXgXgXgXgXgXgXgXgXgXgX",
"gXgXgXgXgXgXgXgXgXgXgXgXgXgXgXgX  $ 2 a W o.#.%.Y Y :.E.:X,X,X>X*X&X+X+X*X*X*X&X+X&X-X>X,X,X:XE.:.Y U I P ^ E i > +     gXgXgXgXgXgXgXgXgXgXgXgX",
"gXgXgXgXgXgXgXgXgXgXgXgXgXgXgXgXgX  . * i ! *.:.>.1.8XE.:X,X,X>X*X X_.S.b.n.Z.S.U. X&X>X,X,X=X#X<.1.>.$.^ d 0 O         gXgXgXgXgXgXgXgXgXgXgXgX",
"gXgXgXgXgXgXgXgXgXgXgXgXgXgXgXgXgXgX    = m ..,.2.7X8X3X>X,X,X>X*XoXU.x.O. .O.x.H.oX*X>X,X,X>X3X9X2.2.,. .m >         . gXgXgXgXgXgXgXgXgXgXgXgX",
"gXgXgXgXgXgXgXgXgXgXgXgXgXgXgXgXgXgXgXo $ 3 z ~ ,.8X2X1X,X,X,X>X-X+X_.S.u.0.u.S.'.+X;X>X,X,X>X1X2X9X9X#XC.5.v > # & * - @ gXgXgXgXgXgXgXgXgXgXgX",
"gXgXgXgXgXgXgXgXgXgXgXgXgXgXgXgXgXgXgXgXgX  + u | W.3X;X,X,X,X,X>X:X-X.X/./.`..X&X>X>X>X>X>X>X<X5X5X1X:X%X~.r.) B M a w &   gXgXgXgXgXgXgXgXgXgX",
"gXgXgXgXgXgXgXgXgXgXgXgXgXgXgXgXgXgXgXgXgXo o 5 ( H.*X>X>X,X>X>X>X>X>X>X>X>X>X>X>X>X>X>X>X>X>X>X>X>X,X,X>X&X XP.A.c. .b -     gXgXgXgXgXgXgXgXgX",
"gXgXgXgXgXgXgXgXgXgXgXgXgXgXgXgXgXgXgXgXgX$ 3 N y.`.-X-X-X&X>X>X-X-X&X=X>X>X>X=X-X&X>X>X,X>X>X>X:X%X%X). X%X&X;X-XOXA.R 2     gXgXgXgXgXgXgXgXgX",
"gXgXgXgXgXgXgXgXgXgXgXgXgXgXgXgXgXgXgX. 3 N [ d./.&X&X+X X+X-X>X&X X'._. X+X'.'.'. X&X>X,X,X>X&X.X`.S.v.v.K.XX,X,X>XT.} 4     gXgXgXgXgXgXgXgXgX",
"gXgXgXgXgXgXgXgXgXgXgXgXgXgXgXgXgXgX    4 ( U.*X,X>X.X_.U._.&X>X:X XH.H.H.P.H.H.H.'.&X>X,X,X>X-X XH.k. .+.u./.>X,X>XH.( 4     gXgXgXgXgXgXgXgXgX",
"gXgXgXgXgXgXgXgXgXgXgXgXgXgXgXgXgXgX    4 _ I.>X,X,XXXK.b.S..X>X>X+X_.D.Z.Z.S.D.U. X&X,X,X,X,X>X*X'.b.@.X.0.K.`./.G.6.N 1   gXgXgXgXgXgXgXgXgXgX",
"gXgXgXgXgXgXgXgXgXgXgXgXgXgXgXgXgXgX    ; M k.OX,X,X|.C.0.x.'.>X,X>X+X_.D.S.H._.+X=X>X,X,X,X,X,X,X;X'.b.w.l.b.v.6.N y > $ gXgXgXgXgXgXgXgXgXgXgX",
"gXgXgXgXgXgXgXgXgXgXgXgXgXgXgXgXgXgX    & s +.P.-X>X`.u. .0.^.>X,X,X>X+X_.H._.&X>X,X,X>X>X:X>X>X,X>X&X XH.A.c. .b -     gXgXgXgXgXgXgXgXgXgXgXgX",
"gXgXgXgXgXgXgXgXgXgXgXgXgXgXgXgXgX. @ - w M  .b._.^.v. .! O.^.>X,X,X,X&X X'..X&X,X,X>X-X+X`.^.^.^.|.%X-X&X].c.Q e %     gXgXgXgXgXgXgXgXgXgXgXgX",
"gXgXgXgXgXgXgXgXgXgXgXgXgXgXgXgX  # 0 n Q O.x.b.v.q. .W ! 0.^.>X,X,X,X:X&X&X=X>X>X>X-X XH.v.0.O.O.v.^.=X>X*XZ.! e %     gXgXgXgXgXgXgXgXgXgXgXgX",
"gXgXgXgXgXgXgXgXgXgXgXgXgXgXgX    * a +.n.P.H.V.w. .Q W  .v.`.>X,X,X>X:X>X>X>X,X>X-X XP.b.q. .! Q  .C..X>X*XP. .s &     gXgXgXgXgXgXgXgXgXgXgXgX",
"gXgXgXgXgXgXgXgXgXgXgXgXgXgXgX    1 B c.{.@X+X^.C.0.+.0.v.J..X>X,X,X>X=X>X,X,X,X,X.XH.v.w.w.q.O.X. .w.K.|. XU.0.M 1 .   gXgXgXgXgXgXgXgXgXgXgXgX",
"gXgXgXgXgXgXgXgXgXgXgXgXgXgXgX    4 ( D.*X>X&XXX/.J.G.J.`..X&X>X>X>X>X:X=X>X,X,X>X|.v.O.e.V.^.J.V.k.q.e.u.S.P.V./ 3     gXgXgXgXgXgXgXgXgXgXgXgX",
"gXgXgXgXgXgXgXgXgXgXgXgXgXgXgX    4 ( P.*X>X>X,X>X>X>X>X>X>X>X>X>X>X>X>X>X>X,X,X>X^.e. .w./.>X,X+XU.k. . .x.I.H.4.5     gXgXgXgXgXgXgXgXgXgXgXgX",
"gXgXgXgXgXgXgXgXgXgXgXgXgXgXgX    4 ( H.*X>X>X>X,X,X,X,X,X>X,X,X>X,X,X,X,X,X,X,X&XH.q.o.u.`.,X,X,X+XZ.+.X.z.{.}.r.h     gXgXgXgXgXgXgXgXgXgXgXgX",
"gXgXgXgXgXgXgXgXgXgXgXgXgXgXgX    1 T n.{.@X*X=X>X,X,X,X,X,X>X,X>X,X,X,X,X,X>X=X`.Z.@.@.v.`.,X,X,X>XH.q.o.m.OX@Xr.g     gXgXgXgXgXgXgXgXgXgXgXgX",
"gXgXgXgXgXgXgXgXgXgXgXgXgXgXgX    - a  .c.A.P. X&X,X,X,X>X>X>X>X>X>X>X>X,X>X-X+XH.x.+.+.w.^.>X,X,X>X^.e. .q.P.P.6.t     gXgXgXgXgXgXgXgXgXgXgXgX",
"gXgXgXgXgXgXgXgXgXgXgXgXgXgXgXgX  # q a B _ { 6.5.7.a.G.^.+X-X>X>X&X+XoX+X+XoX[.A.O.E M ] C.&X,X,X&XG.] B B ( ' N 5   gXgXgXgXgXgXgXgXgXgXgXgXgX",
"gXgXgXgXgXgXgXgXgXgXgXgXgXgXgXgXgX+ % & 1 q r , < , h ) u.U.@X*X+X].D.n.Z.A.I.L.c.Q w 1 l y.'.>X=X_.r.N 2 & ; 4 5 < gXgXgXgXgXgXgXgXgXgXgXgXgXgX",
"gXgXgXgXgXgXgXgXgXgXgXgXgXgXgXgXgXgX      .         - n +.c.P.H.S.w. ._ !  .@.l...a @   , ` H.@X@XP.] r         X gXgXgXgXgXgXgXgXgXgXgXgXgXgXgX",
"gXgXgXgXgXgXgXgXgXgXgXgXgXgXgXgXgXgXgX        X $ 3 b W X.@.+.` V m s i i s n M n 1     > / A.OX@X].9.t         gXgXgXgXgXgXgXgXgXgXgXgXgXgXgXgX",
"gXgXgXgXgXgXgXgXgXgXgXgXgXgXgXgXgXgXgXgX      > N 9.c.z.@.Q z 4 = & & & & & ; ; - X     1 E c.{.*X}.9.y       gXgXgXgXgXgXgXgXgXgXgXgXgXgXgXgXgX",
"gXgXgXgXgXgXgXgXgXgXgXgXgXgXgXgXgXgXgXgXgX    5 [ H.{.A. .a *         .       .         - a  .A.{.P.[ 5     gXgXgXgXgXgXgXgXgXgXgXgXgXgXgXgXgXgX",
"gXgXgXgXgXgXgXgXgXgXgXgXgXgXgXgXgXgXgXgXgXgXX y ` r.r._ M w #         .               . & w b T ] [ N 5 . gXgXgXgXgXgXgXgXgXgXgXgXgXgXgXgXgXgXgX",
"gXgXgXgXgXgXgXgXgXgXgXgXgXgXgXgXgXgXgXgXgXgXgX5 y y y 5 - & gXgXgXgXgXgXgXgXgXgXgXgXgXgXgX& * 1 4 5 5 > gXgXgXgXgXgXgXgXgXgXgXgXgXgXgXgXgXgXgXgX",
"gXgXgXgXgXgXgXgXgXgXgXgXgXgXgXgXgXgXgXgXgXgXgXgX            gXgXgXgXgXgXgXgXgXgXgXgXgXgXgX            gXgXgXgXgXgXgXgXgXgXgXgXgXgXgXgXgXgXgXgXgX",
"gXgXgXgXgXgXgXgXgXgXgXgXgXgXgXgXgXgXgXgXgXgXgXgX            gXgXgXgXgXgXgXgXgXgXgXgXgXgXgX            gXgXgXgXgXgXgXgXgXgXgXgXgXgXgXgXgXgXgXgXgX"
};
