/* XPM */
static char *player_walk_front_31675751436[] = {
/* columns rows colors chars-per-pixel */
"72 75 220 2 ",
"   c None",
".  c #000000",
"X  c #0A0200",
"o  c #0A0A00",
"O  c #010606",
"+  c #140500",
"@  c #140C00",
"#  c #1B0A00",
"$  c #161200",
"%  c #1A1A00",
"&  c #0F1200",
"*  c #210F00",
"=  c #251400",
"-  c #2B1A00",
";  c #281800",
":  c #331B00",
">  c #381501",
",  c #1D2400",
"<  c #2C2200",
"1  c #2D2B00",
"2  c #252500",
"3  c #342400",
"4  c #392B00",
"5  c #362900",
"6  c #2D3200",
"7  c #343500",
"8  c #3A3300",
"9  c #353A00",
"0  c #3D3C00",
"q  c #230027",
"w  c #4F1D00",
"e  c #482700",
"r  c #542700",
"t  c #413400",
"y  c #423E00",
"u  c #4B3B00",
"i  c #593600",
"p  c #603600",
"a  c #623A00",
"s  c #6A3C00",
"d  c #742E00",
"f  c #3C4300",
"g  c #444200",
"h  c #494400",
"j  c #4B4B00",
"k  c #414B00",
"l  c #5C4500",
"z  c #544C00",
"x  c #554501",
"c  c #4D5100",
"v  c #555400",
"b  c #595500",
"n  c #5B5C00",
"m  c #565900",
"M  c #664100",
"N  c #6B4400",
"B  c #664E01",
"V  c #774B00",
"C  c #675700",
"Z  c #7D5600",
"A  c #686300",
"S  c #7A7800",
"D  c #7A6B00",
"F  c #120151",
"G  c #100650",
"H  c #2B2C62",
"J  c #2F3161",
"K  c #5C664F",
"L  c #6E744E",
"P  c #9C2D00",
"I  c #BC3C00",
"U  c #D42600",
"Y  c #D73F00",
"T  c #DA3C1D",
"R  c #8E4F00",
"E  c #815600",
"W  c #865900",
"Q  c #B05300",
"!  c #816200",
"~  c #8B6E00",
"^  c #876700",
"/  c #986800",
"(  c #897301",
")  c #897900",
"_  c #9C7A00",
"`  c #937600",
"'  c #A76F00",
"]  c #AA6E00",
"[  c #AC7400",
"{  c #AF7900",
"}  c #A27F00",
"|  c #B67A00",
" . c #D54404",
".. c #D75800",
"X. c #D94917",
"o. c #E54600",
"O. c #EC5413",
"+. c #CB6700",
"@. c #D57500",
"#. c #DB6200",
"$. c #E86907",
"%. c #E6740F",
"&. c #E64524",
"*. c #F44E3F",
"=. c #EF7C3E",
"-. c #F45E4D",
";. c #EF5A4D",
":. c #798252",
">. c #898600",
",. c #948400",
"<. c #948B00",
"1. c #9A8A00",
"2. c #9B9500",
"3. c #9D9900",
"4. c #959400",
"5. c #A58C00",
"6. c #AC8500",
"7. c #B38500",
"8. c #B98E00",
"9. c #B78800",
"0. c #A39E00",
"q. c #A89400",
"w. c #B49A00",
"e. c #B79200",
"r. c #9CA200",
"t. c #A5A400",
"y. c #ACA500",
"u. c #ADAB00",
"i. c #B4AD00",
"p. c #BAA502",
"a. c #ADB200",
"s. c #B3B300",
"d. c #BCBA00",
"f. c #B9B500",
"g. c #B8BB25",
"h. c #C88D00",
"j. c #C59300",
"k. c #CC9200",
"l. c #CC9E00",
"z. c #C59900",
"x. c #D49C00",
"c. c #D78A00",
"v. c #F68700",
"b. c #FC9A00",
"n. c #EC9209",
"m. c #C8A600",
"M. c #D3A400",
"N. c #D9A500",
"B. c #D4AA00",
"V. c #DBAC00",
"C. c #C3BD00",
"Z. c #CAB200",
"A. c #DFB600",
"S. c #D5BE00",
"D. c #D8BC00",
"F. c #E4A900",
"G. c #E2B401",
"H. c #EDB400",
"J. c #E3BC00",
"K. c #F3BB00",
"L. c #F8B709",
"P. c #FCAE00",
"I. c #F3863E",
"U. c #EEAF24",
"Y. c #CCC300",
"T. c #CBCA00",
"R. c #C6C302",
"E. c #DDC500",
"W. c #D4CD00",
"Q. c #D7C900",
"!. c #D8D401",
"~. c #E4C200",
"^. c #E6CA00",
"/. c #EACD00",
"(. c #EAC600",
"). c #F3C300",
"_. c #F4CD00",
"`. c #FACB00",
"'. c #FFC600",
"]. c #E5D301",
"[. c #EDD300",
"{. c #EDDB00",
"}. c #E6DA00",
"|. c #F1D500",
" X c #FDD300",
".X c #F3DB00",
"XX c #FCDD01",
"oX c #F6C11D",
"OX c #DEE000",
"+X c #E9E200",
"@X c #F5E400",
"#X c #FDE400",
"$X c #F6ED00",
"%X c #FBEC00",
"&X c #FEF600",
"*X c #FFFE00",
"=X c #F6F100",
"-X c #FFFF16",
";X c #FFDB24",
":X c #FFFE23",
">X c #FFFF2C",
",X c #FFE724",
"<X c #CED826",
"1X c #FA8755",
"2X c #FFB54D",
"3X c #F8E948",
"4X c #FFFA4A",
"5X c #FFFF51",
"6X c #FFFF62",
"7X c #E6D74F",
"8X c #4E4AA9",
"9X c #B0B6A8",
"0X c #FFFFAA",
"qX c #E5E9AB",
"wX c #D3D3A8",
"eX c #999BCF",
"rX c #9D9DD0",
"tX c #FFFFCF",
"yX c #FFFFD2",
"uX c white",
/* pixels */
"                        . . .                                                                               . . .                               ",
"                        . . .                                                                               . . .                               ",
"                        . . . .                                                                           1 0 g 0 1                             ",
"                        . . . . .                                                                       . h >.t.>.j .                           ",
"                        . . . . . .                                                                   . . n R.&XC.v . .                         ",
"                        . . . . . . o                                                               . & g 4.+X*Xd.v . .                         ",
"                        . . . . . . o o                                                           . 1 C 0.+X*X*Xy.j . .                         ",
"                        . . . . . . . . .                                                       . . y 3.&X*X*X&X3.f . .                         ",
"                        . . @ = : = o . .                                                     o % f S d.*X*X*X$X2.0 . .                         ",
"                        . . = i N i - . .                                                   . 1 A 3.R.+X*X*X*X$X2.y . .                         ",
"                        . . 5 Z ' E 3 . .                                                 . . g 0.&X*X*X&X*X*X&X0.g . .                         ",
"                        . . 4 / h.j.( j 6 &                                             % 7 b >.T.*X*X*X*X*X*X*Xt.h . .                         ",
"                        . . 4 ^ N. X^.s.S 9 .                                         . y >.R.+X=X*X*X*X*X*X*X*Xt.j . .                         ",
"                        . . 4 ^ A.*X*X&Xr.h . .                                     . . g 0.&X*X*X&X$X$X&X*X*X&Xt.h . .                         ",
"                        . . 4 ~ ~.*X*X*Xs.C = . .                                 2 y b S y.T.T.s.3.4.4.0.u.i.2.A 1 . . .                       ",
"                        . . 4 ( ~.*X*X*XY._ p > # o                             o b 3.C.f.>.v 9 9 9 f 6 7 7 7 7 % o . . . . . . . . . . .       ",
"                        . . 4 ~ G.%X*X&X.XV.' a ; . .                         . . v d.=X!.C . . . . o . . . . . . . . . . . . . . . . . .       ",
"                        . . 3 ^ N.XX%X$X%XXXV.^ 3 . . .                     . . . g 4.R.r.z . . . X # # = ; 2 1 y z x 8 % . . . . . . . .       ",
"                        . . : Z k.).#X&X*X*X X5.y . . . . o . . . . . . . . . . . % 9 j z i r w e r a V D ( >.3.i.Z.e.^ 4 . . . . . .           ",
"                        . . = a ' N./.&X*X*X&Xu.j . . . . o . . . . . . . . . . . . . . 3 V ' | [ ' { j.G.{.$X&X&X#XJ._ t . . . . o             ",
"                          . # > V } Y.*X*X*X*XC.D t < 7 g j h g h g g g y g j b j 7 @ # u ' V.K.H.G.J.[.&X*X*X*X@XD.5.B - . . . .               ",
"                            . X - C i.*X*X*X*XW.w._ ` 1.t.y.t.t.0.0.0.0.0.t.u.f.i.1.^ ! _ Z..X#X#X.X@X$X*X*X*X*XT.>.u = o . . .                 ",
"                              . . g 3.&X*X*X&X{.J.A.~..X&X*X*X&X&X&X&X&X&X&X*X*X&X.X~.A.~..X&X*X&X&X&X&X&X%XXXA._ t . . . . o                   ",
"                              . . y q.%X*X*X&X@XXX#X#X&X*X*X*X*X*X*X*X*X*X*X*X*X*X&X%X%X%X&X*X*X*X&X&X%X{.S.e.! l - . . . .                     ",
"                              . . t 1.|.*X*X&X=X&X&X&X&X*X*X*X*X*X*X*X*X*X*X*X*X*X*X&X&X&X*X*X&X$X@X X).M._ B 4 % o                             ",
"                              . . 4 ~ A.%X&X&X&X&X&X&X&X&X&X&X&X&X&X&X&X&X&X&X&X&X=X&X&X&X*X&X%X/.A.N.k.' M ; . .                               ",
"                              . . 3 Z j.).#X&X*X*X=X=X$X$X$X=X=X&X$X$X$X=X@X=X$X$X&X*X&X=X@X{.~.B.j.[ R s e # .                                 ",
"                              . . - N { G.XX-X*X*X=X$X&X&X&X&X&X&X=X&X&X=X&X&X&X=X*X-X&X=X[.D.M.k.[ E e ; + .                                   ",
"                              . . ; a ' N..X&X*X*X&X&X=X&X&X&X&X&X&X&X&X&X&X&X&X&X*X*X&X%X/.G.N.k.' M - . .                                     ",
"                              . . - N { G..X=X*X*X*X*X&X&X&X&X&X&X&X*X&X&X&X&X&X&X=X&X$X%X#XXX).F.{ N - . .                                     ",
"                              . X 5 Z j.).XX$X*X*X*X*X&X&X&X&X&X&X*X&X&X&X&X*X&X&X&X$X=X*X*X*X&X_.j.Z - . .                                     ",
"                              . . 4 ~ G.#X&X&X&X*X=X&X&X&X&X&X*X&X&X&X&X*X&X&X&X&X&X&X&X&X=X&X&X#XG.( 4 . .                                     ",
"                              O . 8 ,./.:X5X6X7Xg.t.f.!.&X*X*X&X=X&X=X&X&X&X&X&X&X>X5X5X7Xg.u.R.@X[.5.y . .                                     ",
"                              O . t 1.@X5X0XtX9XK 0 A s.&X-X*X&X$X&X$X=X&X&X&X=X&X5X0XtX9XK f S Q.#Xp.z . .                                     ",
"                              O . g 3.*X6XyXuXeXH . 1 2.&X*X*X&X$X=X&X&X-X&X&X$X&X6XtXuXeXH O g C.&XR.b . .                                     ",
"                            O O : A d.=X5XqXrX8XG X u y.&X-X*X&X=X*X*X*X&X&X&X&X*X3XwXrX8XG X v R.-X!.S - . .                                   ",
"                          . + > N e.@X*X<X:.H F q r ~ S.&X*X*X&X=X*X*X=X=X&X*X*X&Xg.L J F q r } ].*X+Xq.N > + .                                 ",
"                        . . = i ' K.&X&Xa.k . X r [ V..X&X*X*X&X&X&X&X&X=X&X*X*X&Xt.g . X r ' G.#X&X#XG.' p = . .                               ",
"                        . . < Z k.'. X).6.v 6 h ` F. X#X&X*X*X&XW.u.2.y.W.&X*X*X&Xu.n 1 u ` A.`.`.K.K.K.k.! 5 . .                               ",
"                        . . 8 ) A.P.b.@.| 5.r.a.W..X#X%X&X*X*X&Xy.z 1 z y.&X*X*X&XW.y.3.u.!..X'.n.@.v.P.V.` 8 . .                               ",
"                        . . 0 <.G.b.#.Y ..K.&X*X*X&X&X$X&X*X*X&X3.1 . 7 3.&X*X*X&X$X$X&X*X*X&XF...Y $.b.A.<.0 . .                               ",
"                        . . 0 ,.G.v.o.U X.U.>X:X-X*X&X$X&X*X*X*Xs.n 9 n s.*X*X*X&X&X=X-X-X>X,XU. .U o.b.A.,.0 . .                               ",
"                        . . 8 ( x.v.o.U X.1X2X4X:X*X*X*X&X*X*X*XOXd.u.d.OX*X*X&X&X*X*X*X:X,X2XI.T U o.%.x.( 8 . .                               ",
"                        . . < B ' +...Y &.-.1X2X;X=X*X*X&X&X&X&X&X&X&X&X&X&X&X&X&X*X*X&X;X2X1X-.&. ...+.' B < . .                               ",
"                          . $ 4 M R Q ..O.*.;.I.oX$X*X*X&X$X@X.X@X#X#X#X.X.X@X%X&X*X*X$XoXI.-.*.O.#.Q R a 4 $ .                                 ",
"                            . o - i / @.$.&.&.%.L.&X*X*X&X#X[.J.B.M.l.M.V.J.[.@X&X*X*X&XL.%.&.&.O.@./ l = o .                                   ",
"                              . . < C ' +. .Y $.K.&X*X*X&X#X|.A.j.{ ' { j.A.[.#X&X*X*X&XL.$.Y  .+.[ B < . .                                     ",
"                                . % 0 M d P I @.).*X*X*X&X%X.X^.B.e.7.e.B.^..X%X&X*X*X*X(.@.I P d l y % .                                       ",
"                                    O % > d Q c./.*X*X*X&X%X%X%X{.^.Q.^.{.%X%X%X&X*X*X*X_.c.Q d > $ O                                           ",
"                                    . . = i ' N..X&X*X*X&X&X&X&X&X&X&X&X&X&X&X$X&X*X*X&X|.N./ i ; . .                                           ",
"                                    @ 3 x ( m.~.[..X%X&X&X&X$X%X$X&X&X&X%X@X$X&X&X&X%X.X|.~.m.( x 3 $                                           ",
"                                . - l ( q.Y.].}.^.~./.%X&X$X[.^.^.[..X[.(.^.[.$X&X$X[.~.(.}.}.Y.q.( l < .                                       ",
"                              O . 4 ~ G.%X*X&X+X~.A.^.@X&X%X/.G.V.A.A.A.V.A.[.%X&X@X^.A.~.+X&X*X%XJ.~ 4 . .                                     ",
"                            . O - B w.#X*X*X&X{.^.^.[.@X&X$X{.~.A.M.M.M.V.~.{.&X&X%X/.~.^.{.&X*X*XXXw.B - . .                                   ",
"                          . + > a _ S.%X*X&X@X|.[.@X@X&X&X&X&X.X~.A.N.A.^..X&X&X&X&X@X.X{.{.XX&X*X&XS._ M > + .                                 ",
"                        . . = p ' A.#X&X%X/.A.J..X&X*X&X&X*X*X&X.X~.A.~..X&X*X&X&X*X*X&X.XJ.A.^.%X&X#XV.' p ; . .                               ",
"                        . . : V h. X*X*X}.B.h.z.].*X*X*X&X&X*X*X$X}./.[.$X*X*X&X&X*X*X*X].l.h.m.}.*X&X Xh.V : . .                               ",
"                        . . 3 E x.XX*X*XW.8.] 9.E.*X*X*X&X&X*X&X=X#X@X$X&X*X*X&X&X*X*X*XE.9.' 8.!.*X*X#Xx.Z 3 . .                               ",
"                        . . 5 ~ J.&X*X&XE.9.' 9.E.&X*X*X&X&X&X&X&X&X&X&X&X&X&X&X&X*X*X&XE.7.' 8.E.&X*X&XG.~ 4 . .                               ",
"                        . . y q.#X*X%XE.m.8.e.m.[.&X*X*X&X&X&X&X&X*X*X&X&X&X$X&X&X*X*X&X^.B.e.8.m.E.%X*X#Xq.h . .                               ",
"                        . . j a.*X*X~.9.6.m.~.+X$X&X&X&X&X&X&X$X&X&X&X&X&X&X$X&X&X&X&X&X$X@XE.m.7.8.D.*X*Xa.c . .                               ",
"                        . . j a.&X%Xl.' { E.&X*X*X&X&X&X&X&X&X&X&X&X&X&X&X&X&X&X=X&X&X&X*X*X&XD.{ ' x.#X&Xa.c . .                               ",
"                          . k >.s.p.9.| z.}.*X*X*X=X&X&X=X*X*X*X*X*X*X*X*X*X&X*X*X&X$X&X*X*X*X].z.| 8.Z.f.S 7 . .                               ",
"                            , f v D 6.M.(.%X*X*X*X$X$X$X*X*X*X*X*X*X*X*X*X*X*X*X*X=X@X$X*X*X*X%X^.M.6.) v 6 & . .                               ",
"                              . . 4 ( G.#X&X&X&X&X&X&X&X&X&X&X&X&X&X&X&X&X&X&X&X&X&X&X&X*X*X&X&XXXG._ t . . . . o                               ",
"                              . . 3 Z M.`.XX@X$X*X*X*X*X&X%X#X.X|.|..X.X.X.X@X%X&X*X*X*X&X=X@X|.).M.^ 5 . . . .                                 ",
"                              . . - B [ x.J./.+X=X*X*X&X#X_.J.V.x.N.V.N.N.N.G._.#X&X*X*X=X@X/.G.x.[ N - . .                                     ",
"                              . . - M ' h.N.G.[.&X&X$X|.J.z.| ' ' ' ' ' ' ' | l.J.[.&X&X$X[.G.N.h.' M - . .                                     ",
"                            2 j A ) e.m.F.F.N.m.p.0.2.,.~ Z N a i p a p p a N W ~ ,.2.0.p.m.N.F.F.M.q.) A j 7                                   ",
"                        . . 0 >.!.*X*X%X XH.k.' C g 7 7 4 5 - = = = = = = ; - 3 4 7 7 g C / k.H. X%X*X&X!.4.g . .                               ",
"                        . . g 0.&X*X*X&X/.M.' s - . . . . . . . . . . . . . . o . . . . - s ' M./.&X*X*X&X0.g . .                               ",
"                          . 0 >.C.!.T.a.<.! a e * . . . . X . . . . . . . . . . . . . . * e s ! <.s.T.!.d.) 0 . .                               ",
"                            1 h v n m j 0 3 - *                                           # - 3 0 j m n v h 1                                   ",
"                              . . . . . . . . .                                           . . . . . . . . .                                     ",
"                              . . . . . . . . .                                           . . . . . . . . .                                     "
};
