/* XPM */
static char *player_walk_front_41675751436[] = {
/* columns rows colors chars-per-pixel */
"72 78 229 2 ",
"   c None",
".  c #000000",
"X  c #0B0300",
"o  c #0B0A00",
"O  c #020307",
"+  c #120A00",
"@  c #1B0E00",
"#  c #140400",
"$  c #151200",
"%  c #1C1300",
"&  c #1A1A00",
"*  c #210D00",
"=  c #241300",
"-  c #241D00",
";  c #2C1B00",
":  c #291500",
">  c #341A01",
",  c #2B2300",
"<  c #2D2B00",
"1  c #242500",
"2  c #332400",
"3  c #342C00",
"4  c #3A2C00",
"5  c #392500",
"6  c #353400",
"7  c #3C3300",
"8  c #3D3C00",
"9  c #353B00",
"0  c #2F3000",
"q  c #220025",
"w  c #452A00",
"e  c #552700",
"r  c #413300",
"t  c #433D00",
"y  c #4B3D00",
"u  c #4D3204",
"i  c #5B3200",
"p  c #573800",
"a  c #643D00",
"s  c #603500",
"d  c #3E4300",
"f  c #454300",
"g  c #4B4300",
"h  c #4B4B00",
"j  c #414B00",
"k  c #564B00",
"l  c #595500",
"z  c #575900",
"x  c #654100",
"c  c #6D4400",
"v  c #674B00",
"b  c #744A00",
"n  c #695900",
"m  c #7C5300",
"M  c #785900",
"N  c #6B6500",
"B  c #626100",
"V  c #746900",
"C  c #7A7501",
"Z  c #0E024F",
"A  c #12044F",
"S  c #2B2B61",
"D  c #2F3161",
"F  c #5D664F",
"G  c #6F754F",
"H  c #D42500",
"J  c #D73E00",
"K  c #D5270F",
"L  c #DA3324",
"P  c #E4311D",
"I  c #825C00",
"U  c #895900",
"Y  c #935500",
"T  c #955A00",
"R  c #995B00",
"E  c #915C1C",
"W  c #8B6D00",
"Q  c #856600",
"!  c #9C6300",
"~  c #936A00",
"^  c #8C7400",
"/  c #8B7700",
"(  c #927400",
")  c #937B00",
"_  c #9A7900",
"`  c #9C7100",
"'  c #9D6B1B",
"]  c #A76F00",
"[  c #AA6D00",
"{  c #A66600",
"}  c #B86800",
"|  c #AE7B00",
" . c #A77600",
".. c #B57800",
"X. c #DA4404",
"o. c #DA5D00",
"O. c #E64904",
"+. c #E85700",
"@. c #D96200",
"#. c #CB7500",
"$. c #D76B0F",
"%. c #E17800",
"&. c #EC701D",
"*. c #F55A3F",
"=. c #D37C31",
"-. c #EC763E",
";. c #EF574D",
":. c #F57D4E",
">. c #78804F",
",. c #8B8600",
"<. c #9A8200",
"1. c #948A00",
"2. c #978500",
"3. c #9C9600",
"4. c #9D9900",
"5. c #AC8C00",
"6. c #A88700",
"7. c #B58400",
"8. c #B98400",
"9. c #BB8D00",
"0. c #B78900",
"q. c #AB9200",
"w. c #A39E00",
"e. c #AA9900",
"r. c #BD9400",
"t. c #B69400",
"y. c #A5A400",
"u. c #ACA400",
"i. c #ACAC00",
"p. c #A4AE00",
"a. c #B7AB01",
"s. c #B3B200",
"d. c #BABB00",
"f. c #BAB501",
"g. c #ABB300",
"h. c #B8BC25",
"j. c #C28D00",
"k. c #C68900",
"l. c #D28B00",
"z. c #CD9200",
"x. c #C49B00",
"c. c #CC9C00",
"v. c #C59500",
"b. c #D49B00",
"n. c #D89400",
"m. c #F48900",
"M. c #FC9800",
"N. c #EB8D00",
"B. c #CDA300",
"V. c #C6A800",
"C. c #D4A300",
"Z. c #DAA400",
"A. c #D4AB00",
"S. c #DBAD00",
"D. c #C2BC00",
"F. c #C7B400",
"G. c #D3B300",
"H. c #DEB600",
"J. c #DABC00",
"K. c #D4BC00",
"L. c #E4A600",
"P. c #E3B400",
"I. c #ECB400",
"U. c #E3BC00",
"Y. c #EDB20D",
"T. c #F2BE00",
"R. c #F9B600",
"E. c #F8B713",
"W. c #F4AF24",
"Q. c #F3833E",
"!. c #B3C100",
"~. c #CCC400",
"^. c #C9C402",
"/. c #DCC300",
"(. c #DECB00",
"). c #D5CC00",
"_. c #DBD802",
"`. c #E4C300",
"'. c #EAC300",
"]. c #E4CB00",
"[. c #E9CD00",
"{. c #F2C200",
"}. c #FEC500",
"|. c #FDCC00",
" X c #F4CD00",
".X c #E3D200",
"XX c #EDD400",
"oX c #ECDB00",
"OX c #E4DB01",
"+X c #F1D500",
"@X c #FED300",
"#X c #F4DC00",
"$X c #FEDC00",
"%X c #FEDC1E",
"&X c #DEE000",
"*X c #EDE201",
"=X c #E7E500",
"-X c #F5E400",
";X c #FDE400",
":X c #F6EC00",
">X c #FCEC00",
",X c #FDED0D",
"<X c #F6F200",
"1X c #FEF600",
"2X c #FFFE00",
"3X c #FFF90E",
"4X c #FEE61D",
"5X c #FFF71D",
"6X c #FECB34",
"7X c #FFFF26",
"8X c #FFE624",
"9X c #CED725",
"0X c #FB9B4D",
"qX c #FF875F",
"wX c #FFB24D",
"eX c #FFFF4F",
"rX c #FFFF51",
"tX c #F0EC4F",
"yX c #FFFF62",
"uX c #DADF4F",
"iX c #4E4AA8",
"pX c #B0B6A8",
"aX c #FFFFAA",
"sX c #E5E8AA",
"dX c #D3D3A8",
"fX c #9A9BCF",
"gX c #FFFFCF",
"hX c #FFFFD2",
"jX c white",
/* pixels */
"                                          . . .                                                                                                 ",
"                                          . . .                                                                                                 ",
"                                          . . .                                                                                                 ",
"                                          . . .                                                                                                 ",
"                                          . . .                                                                                                 ",
"                                        . . . . .                                                                                               ",
"                                      . . X . X . .                                                   . . .                                     ",
"                                    . . . . . . . . .                                                 . . .                                     ",
"                                    . . . . . . . . .                                               < 8 f 8 <                                   ",
"                                    o X . . . . . . X                                             . f ,.y.,.f .                                 ",
"                                    . . . . . . . . .                                           . . z D.1XD.l . .                               ",
"                                  . . . + - ; = + . .                                         X $ f 1.=X2Xd.h . .                               ",
"                                . . . . ; p c p - . .                                       . < B y.=X2X2Xp.h . .                               ",
"                              X . . . . r U ] m 5 . .                                     . . f 4.1X2X2X2X4.t . .                               ",
"                              . . X $ 4 Q 8.k.] x ; X .                                 o & f C d.2X2X2X:X1.t . .                               ",
"                              . . - k _ B.L.Z.j.~ c w @ .                             . 3 N y.~.=X2X2X2X:X3.t . .                               ",
"                              . . 7 ^ H.@X XP.C.z.[ x : . .                         . . f w.1X2X2X1X2X2X1Xy.f . .                               ",
"                              . . t q.$X2X>XXX'.I.z.I 2 . .                       o - f C ^.2X2X2X2X2X2X2Xy.f . .                               ",
"                              . . f e.1X2X2X-X$X@XS.~ 4 X .                     o 6 N w.^.=X2X2X2X2X2X2X2Xy.h o .                               ",
"                              . . f w.1X2X2X1X>X;XH.^ 4 . .                   . . f y.1X2X2X1X:X:X1X2X2X1Xy.f . .                               ",
"                              . . f y.<X2X2X2X1X;XU.) 4 . . .               . . . f y.2X2X2X-X~.i.w.y.i.3.N < . . .                             ",
"                              . . d y.2X2X2X1X>X;XU._ 7 . . . . o . . X o . . . . h p.2X2X2XXXe.n 9 1 1 < 1 o . . . . . . . . . . . . . .       ",
"                              . . f w.1X2X2X1X>X$XH._ 4 . . . . . X . . o . . . . h i.1X2X1XH.^ 7 . . . . X . . . . . . . . . . . . . . .       ",
"                              . . t e.1X2X2X1X-X XS.5.V h 8 8 f h f f f g f 6 3 r n e.J.[.P.j.U u = + & < d h z l k y 3 $ . . . . . . . .       ",
"                              . . t 6.;X2X2X1XoX`.S.B.a.s.i.y.y.w.w.w.y.y.y.3.<._  .6.7.8...[ ! U M Q ,.4.p.g.f.D.V.5.M 3 . . . . X .           ",
"                              . . 4 W H.>X2X1X-X`.H.`.#X1X2X1X1X1X1X1X2X2X1X>X[.H.c...] ! ! [ 8.c.H.XX:X2X2X2X1X1X;XP._ r . . . . o             ",
"                              . . % y W F.*X1X1X+X[.XX:X2X2X2X2X1X2X2X2X2X2X1X1X$X'.B.0.| 6.x.G.#X1X2X2X2X2X2X1X#XJ.5.n , . . . .               ",
"                              . . . X < V ^.1X2X1X-X*X<X2X2X2X2X2X2X2X2X2X2X2X2X1X-X[./.J./..X*X<X2X2X2X1X>X$XT.v.W y 1 o . . .                 ",
"                              o . . . . h a.1X2X2X1X:X<X1X1X1X1X1X1X1X1X1X1X1X1X1X1X1X3X1X1X1X1X2X1X:X[.H.C.z.] b > . . . . X                   ",
"                              o . . . @ n f.3X2X2X2X<X:X<X<X<X>X<X:X<X:X<X:X<X1X1X2X2X2X1X1X1X:XoX(.F.5.~ M c i 5 @ . . . .                     ",
"                              . . X : p _ /.3X2X2X1X:X<X<X1X1X<X1X1X1X1X<X1X1X1X1X2X2X3X<XoX`.H.A.t.( v 4 ; = = * #                             ",
"                              . . = s [ S.+X1X2X2X1X1X1X1X1X1X1X1X1X1X1X1X1X1X1X1X2X2X1X:X[.H.C.z.] b ; . . . . o                               ",
"                              . . > I z.}.;X<X2X2X2X2X1X1X1X1X1X1X2X1X1X1X1X1X1X1X1X:X>X>X;X@XT.n.[ c ; . . . .                                 ",
"                              . . w Q Z.@X;X<X<X2X2X2X1X2X1X1X1X1X1X1X1X1X1X1X2X1X<X:X:X<X2X2X>X'.j.m > . . .                                   ",
"                              . . 4 W H.;X1X<X1X1X1X1X1X1X1X1X1X1X1X1X1X1X1X1X1X1X1X1X1X2X2X1X1X;XH.W 3 . .                                     ",
"                              O . r ) [.7XeXyXuXh.y.s._.3X2X2X1X<X<X1X1X1X1X1X1X1X7XeXyXuXh.p.^.-XXXq.y . .                                     ",
"                              O . 8 2.-XeXaXhXpXF d B s.2X2X2X1X:X:X<X:X1X1X1X1X1XeXaXgXpXF d C ).;Xa.k O O                                     ",
"                              O . t 4.1XyXhXjXfXS . < 4.1X3X2X1X<X1X1X3X3X1X1X:X1XyXgXjXfXS . f d.1XD.l . O                                     ",
"                            O O ; N D.2XeXsXfXiXA X y u.1X2X2X1X<X2X2X2X<X1X2X2X1XtXdXfXiXZ X k ^.2X_.C ; . .                                   ",
"                          . # > c t.#X2X9XG S Z q e W K.1X2X2X1X:X2X2X2X<X1X2X2X2Xh.G D A q e _ .X2X*Xq.c > # .                                 ",
"                        . . = i ] T.1X1Xg.j . X e ] S.+X1X2X2X1X<X1X1X1X<X1X2X2X1Xy.d . X e ] U.;X1X;XP.] s = . .                               ",
"                        . . 2 M z.}.@XT.q.z 9 h _ S.@X>X1X2X2X1X).i.3.u.).1X2X2X1Xs.l < g 2.H.@X XT.T.R.z.M 5 . .                               ",
"                        . . 7 / S.R.M.%.#.q.p.!.).#X;X:X1X2X2X1Xi.k , k u.1X2X2X1X).u.4.s._.>X|.N.%.N.R.H./ 7 . .                               ",
"                        . . 8 1.U.M.+.X.@.I.1X2X2X1X>X:X1X2X2X1X4.< . 0 4.1X2X2X1X:X>X1X2X2X1XI.@.X.+.M.P.1.8 . .                               ",
"                        . . t 1.S.m.O.H X.N.;X2X2X2X1X<X1X2X2X2Xs.B 9 B s.2X2X2X1X2X3X2X3X<X'.N.J H O.M.S.2.8 . .                               ",
"                        . . 8 / b.m.O.H H +.m.R.;X2X2X2X1X2X2X2X&Xd.i.d.&X2X2X1X1X2X2X2X-XI.%.X.H H O.m.c./ 6 . .                               ",
"                        . . , v ] #.o.J H H X.%.T.1X2X2X1X1X1X1X2X1X1X1X1X1X1X1X1X2X2X1XT.%.J H H J @.#.] v , . .                               ",
"                        . . X ; i Y } @.P L L $.Y.1X2X2X1X:X-X#X#X-X;X;X#X-X-X-X1X2X2X:XY.&.L P O.o.} Y a 5 @ .                                 ",
"                        X . . O # p ` l.&.*.;.-.W.<X2X2X1X;XXX`.A.C.c.B.A.`.XX;X2X2X2X<XE.Q.;.;.&.#.R i = X .                                   ",
"                        o . . . . 8 1.H.W.0XqX0X6X2X2X2X1X;XXXP.v.| [ | v.P.+X;X1X2X2X<X%XwXqX:.=.[ v ; . O                                     ",
"                      % ; ; @ @ < N f.*X4X6XwX6X4X1X2X2X1X>X-X'.A.9.7.r.A.`.-X>X1X2X2X2X8XwX0X=.E k < + .                                       ",
"                    . = u a b b W u._.2X3X5X7X4X,X1X2X1X1X1X1X:XoX]./.].oX:X>X>X1X2X2X2X,X4XW.' u + .                                           ",
"                  . . - a ] z.Z.H.[.:X1X2X2X1X1X1X1X1X1X1X1X1X1X1X1X1X1X1X1X1X1X1X1X2X1X1X;XP.W 4 O .                                           ",
"                  . . 5 U Z.@X>X1X-XXX].].OX-X<X<X1X1X1X1X1X:X-X:X1X1X1X:X:X:X1X1X1X:X:X>X>X].e.n 3 %                                           ",
"                  . . w ` {.1X2X2XOXF.r.r.A.`.oX:X1X1X2X1X-XXX].[.XX+XXX].`.oX>X1X<X#XXX+X:X*X(.a.<.n 3 o                                       ",
"                  . . 3 W P.1X2X1X(.r.] ] j.P.+X;X1X2X2X1X-X].P.S.H.H.H.S.H.XX>X1X;X`.H.`.*X1X2X>XP.W 4 . .                                     ",
"                    . 2 n <.V..X.XG.8.[ ..c.[.>X2X2X2X2X1X:XXX`.H.C.C.A.S.`.#X1X1XoXA.c.A.OX2X2X>XI.~ 5 . .                                     ",
"                      $ 1 t n <.x.c.j.9.c.[.>X2X2X2X2X2X2X1X<X#X`.S.A.S.`.#X1X2X1X].x.8.V.OX2X2X@Xz.b > . .                                     ",
"                        . . ; x [ z.Z.H.[.:X1X2X1X1X1X1X1X2X2X1X-X`.H.`.#X1X2X2X1X/.8.] 9..X1X>XP.] s = . .                                     ",
"                        . . = e T z.'.;X>X-X.X/././.[.XX:X1X2X2X:XXX[.XX-X2X2X2X1XJ.| R ] x./.U.B.] b u ; @ X                                   ",
"                        . . * e R C.#X1X<X/.r.| | 0.x.H.[.-X1X2X1X:X-X-X<X2X2X2X1X/.8.T Y { 8.x.c.j.| ~ c w % .                                 ",
"                        . . = s ] P.>X1XoXV.] Y T ] 7.c.P.+X:X1X1X2X1X1X<X1X2X2X1X[.x.] T T ] 9.C.H.P.b.] a : . .                               ",
"                        . o 2 b 8.U.oX.XG.r.[ {  .8.j.v.C.U.-X1X2X2X2X1X<X1X1X2X1XoXG.x.7. .7.V./.+X$X}.z.m 2 . .                               ",
"                        . . 4 Q x.P.A.r.0.8.j.B.J.J.S.v.z.C.XX2X2X2X1X<X>X1X1X1X1X:XoX].J.G.J.(.OX>X>X;XS.W 4 . .                               ",
"                        . . r <.H.I.v.] [ j.H.-X2X1X].0.] 8./.1X2X2X1X<X1X1X1X1X1X1X1X1X1X1X1X1X2X1X1X;XP.W 4 . .                               ",
"                        . . g q.@X}.l.{ [ B.+X2X2X2XD.W b I a.:X2X2X2X2X2X2X2X1X1X2X2X2X2X2X2X2X2X1X1X;XS.W 4 . .                               ",
"                        . . g e.@X|.n.[ ..G.:X2X2X2Xs.k ; u  .XX1X2X2X2X2X2X2X2X2X1X2X2X2X2X2X1X>X;X$X}.b.I 2 . .                               ",
"                        . . r 2.H.I.k.] 6.J.1X2X2X1X4.6 . = Q J.>X1X1X1X1X1X1X1X1X1X1X1X2X2X1X:X.XH.Z.z.] x ; . .                               ",
"                          . 6 n / W m m ) ^.2X2X2X-X1.< . = M Z.|.$X+X+X+X+X-X<X1X>XoX`.F.u.4.1.<._ ~ I a w @ .                                 ",
"                            1 7 4 ; * 5 V d.2X2X2XXX/ , . = m z.I.I.S.C.Z.S.'.$X;X$XU.r.Q g < 1 3 r 5 2 : @ +                                   ",
"                              o . . . . k s.1X2X1XH.Q , . @ a [ k...[ ! ! [ 9.B.H.H.z.[ c ; . . . . . . . .                                     ",
"                                . . . . h i.1X2X;XZ.I < X X 5 x b b s i i s v M ^  .| [ U x 4 % X . . . .                                       ",
"                                  . . . g w.;X1X@Xz.I > . . o ; > ; : = : = = - 4 k T ..z.z.6.n , . . .                                         ",
"                                    . . 7 ) U.}.Z.[ a ; . . . . o . . . . . . . . ; a ] Z.}.H.) 8 . .                                           ",
"                                      o 7 n W ~ I x w = . . . . . . . . o . . . . = w b ~ 0.q.^ y o                                             ",
"                                        - 3 4 3 > ; =                               = > 4 t g y 3                                               ",
"                                          . . . . . .                               . . . . . .                                                 ",
"                                          . . . . . .                               . . . . . .                                                 "
};
