/* XPM */
static char *_304157160_16756723931675672398[] = {
/* columns rows colors chars-per-pixel */
"72 72 227 2 ",
"   c #000000",
".  c #0C0400",
"X  c #0B0A00",
"o  c #050800",
"O  c #150501",
"+  c #140B00",
"@  c #1A0D00",
"#  c #141200",
"$  c #1C1300",
"%  c #1E1B00",
"&  c #2A0E00",
"*  c #241400",
"=  c #2B1600",
"-  c #241C00",
";  c #2A1A00",
":  c #361B01",
">  c #2D2200",
",  c #2D2B00",
"<  c #262500",
"1  c #332300",
"2  c #3A2400",
"3  c #342B00",
"4  c #392C00",
"5  c #2E3200",
"6  c #333300",
"7  c #3D3500",
"8  c #3C3C00",
"9  c #333A00",
"0  c #240B25",
"q  c #442C00",
"w  c #462A00",
"e  c #542C00",
"r  c #433200",
"t  c #433D00",
"y  c #4B3D00",
"u  c #4B3104",
"i  c #543400",
"p  c #5B3600",
"a  c #5D3B00",
"s  c #533A00",
"d  c #623A01",
"f  c #6A3E00",
"g  c #613600",
"h  c #703E00",
"j  c #444300",
"k  c #4E4300",
"l  c #4B4C00",
"z  c #474900",
"x  c #5C4300",
"c  c #564700",
"v  c #585600",
"b  c #664100",
"n  c #6D4500",
"m  c #6C4C00",
"M  c #654C00",
"N  c #774C00",
"B  c #6A5600",
"V  c #755200",
"C  c #7D5300",
"Z  c #7B5E00",
"A  c #725D00",
"S  c #6B6500",
"D  c #686700",
"F  c #756700",
"G  c #7A7A00",
"H  c #757500",
"J  c #140B4F",
"K  c #2F3061",
"L  c #5E6151",
"P  c #6C724F",
"I  c #CF1A00",
"U  c #D10617",
"Y  c #D73F00",
"T  c #DE3624",
"R  c #E4273D",
"E  c #825500",
"W  c #8C5D00",
"Q  c #855A01",
"!  c #935C00",
"~  c #9A5C00",
"^  c #955500",
"/  c #914C00",
"(  c #846900",
")  c #8B6E00",
"_  c #866300",
"`  c #9B6200",
"'  c #966900",
"]  c #867400",
"[  c #957C00",
"{  c #9B7B00",
"}  c #977700",
"|  c #98601D",
" . c #A16500",
".. c #A66E00",
"X. c #AB6E00",
"o. c #AA6400",
"O. c #A47300",
"+. c #AB7300",
"@. c #AE7D00",
"#. c #A37C00",
"$. c #B37500",
"%. c #B37B00",
"&. c #BB7B00",
"*. c #DA5B00",
"=. c #DC6600",
"-. c #DE7100",
";. c #E47C00",
":. c #F1781D",
">. c #E34024",
",. c #F25B4D",
"<. c #898600",
"1. c #958500",
"2. c #9C9500",
"3. c #9D9A00",
"4. c #969300",
"5. c #A48300",
"6. c #A48B00",
"7. c #AB8B00",
"8. c #AC8100",
"9. c #B58400",
"0. c #BA8400",
"q. c #B68A00",
"w. c #BC8C00",
"e. c #AD9100",
"r. c #A39E00",
"t. c #A69700",
"y. c #BD9400",
"u. c #BC9B00",
"i. c #B59800",
"p. c #B0911D",
"a. c #9DA000",
"s. c #A3A300",
"d. c #AAAB00",
"f. c #ACA300",
"g. c #B3AC00",
"h. c #BAA700",
"j. c #AEB100",
"k. c #B2B100",
"l. c #BDBA00",
"z. c #BAB600",
"x. c #B6B626",
"c. c #C18C00",
"v. c #C78700",
"b. c #D18B00",
"n. c #C49500",
"m. c #CD9200",
"M. c #C39B00",
"N. c #CC9C00",
"B. c #D19600",
"V. c #D39A00",
"C. c #DE9700",
"Z. c #E78E08",
"A. c #CCA400",
"S. c #C5A800",
"D. c #D4A400",
"F. c #DAA500",
"G. c #D4AB00",
"H. c #DBAB00",
"J. c #CEB100",
"K. c #C6BB00",
"L. c #D5B400",
"P. c #DFB600",
"I. c #DBBB00",
"U. c #D3BB00",
"Y. c #E0AC00",
"T. c #E9A800",
"R. c #EBB500",
"E. c #E2BC00",
"W. c #ECBB00",
"Q. c #E5B400",
"!. c #F3BE00",
"~. c #F9B703",
"^. c #F8AC0F",
"/. c #DA993E",
"(. c #F08E31",
"). c #C3C200",
"_. c #CDCB00",
"`. c #CBC400",
"'. c #DCC300",
"]. c #D2CE00",
"[. c #DECB00",
"{. c #D4C200",
"}. c #DBD600",
"|. c #E4C200",
" X c #ECC300",
".X c #E3CB00",
"XX c #EACD00",
"oX c #F4C300",
"OX c #FDC500",
"+X c #F5CC00",
"@X c #FDCB00",
"#X c #E5D300",
"$X c #ECD400",
"%X c #ECDB00",
"&X c #E6D900",
"*X c #F2D500",
"=X c #FCD500",
"-X c #F2DC00",
";X c #FEDC00",
":X c #F9CB10",
">X c #E6E300",
",X c #EDE200",
"<X c #EDED00",
"1X c #F4E400",
"2X c #FDE400",
"3X c #F5EC00",
"4X c #FCEC00",
"5X c #F6F200",
"6X c #FEF600",
"7X c #FFFE00",
"8X c #F7FD00",
"9X c #FFDB24",
"0X c #FFFF26",
"qX c #FD9056",
"wX c #FEAB47",
"eX c #FFFF4F",
"rX c #EDEF4F",
"tX c #FFFF61",
"yX c #D6D64F",
"uX c #524EA8",
"iX c #B0B1AA",
"pX c #FFFFA9",
"aX c #D3D7A8",
"sX c #9C9DCF",
"dX c #FFFFCF",
"fX c white",
"gX c None",
/* pixels */
"gXgXgXgXgXgXgXgXgXgXgXgXgXgXgXgXgXgXgXgXgXgXgXgXgXgXgXgXgXgXgXgXgX                        gXgXgXgXgXgXgXgXgXgXgXgXgXgXgXgXgXgXgXgXgXgXgXgXgXgXgX",
"gXgXgXgXgXgXgXgXgXgXgXgXgXgXgXgXgXgXgXgXgXgXgXgXgXgXgXgXgXgXgXgXgX                        gXgXgXgXgXgXgXgXgXgXgXgXgXgXgXgXgXgXgXgXgXgXgXgXgXgXgX",
"gXgXgXgXgXgXgXgXgXgXgXgXgXgXgXgXgXgXgXgXgXgXgXgXgXgXgXgXgXgXgXgXgX> = $ X               gXgXgXgXgXgXgXgXgXgXgXgXgXgXgXgXgXgXgXgXgXgXgXgXgXgXgXgX",
"gXgXgXgXgXgXgXgXgXgXgXgXgXgXgXgXgXgXgXgXgXgXgXgXgXgXgXgX        1 a n s ;         o   gXgXgXgXgXgXgXgXgXgXgXgXgXgXgXgXgXgXgXgXgXgXgXgXgXgXgXgXgX",
"gXgXgXgXgXgXgXgXgXgXgXgXgXgXgXgXgXgXgXgXgXgXgXgXgXgXgXo         q Q +.Q q         o gXgXgXgXgXgXgXgXgXgXgXgXgXgXgXgXgXgXgXgXgXgXgXgXgXgXgXgXgXgX",
"gXgXgXgXgXgXgXgXgXgXgXgXgXgXgXgXgXgXgXgXgXgXgXgXgXgX$ 1 4 3 5 j ( c.b.` q         gXgXgXgXgXgXgXgXgXgXgXgXgXgXgXgXgXgXgXgXgXgXgXgXgXgXgXgXgXgXgX",
"gXgXgXgXgXgXgXgXgXgXgXgXgXgXgXgXgXgXgXgXgXgXgXgXgX  > b ( 1.4.s.S.H.b.^ 2       gXgXgXgXgXgXgXgXgXgXgXgXgXgXgXgXgXgXgXgXgXgXgX      gXgXgXgXgXgX",
"gXgXgXgXgXgXgXgXgXgXgXgXgXgXgXgXgXgXgXgXgXgXgXgX    4 ( P.4X7X6X-XH...g *     gXgXgXgXgXgXgXgXgXgXgXgXgXgXgXgXgXgXgXgXgXgXgXgX      gXgXgXgXgXgX",
"gXgXgXgXgXgXgXgXgXgXgXgXgXgXgXgXgXgXgXgXgXgXgX@ ; k ] l.7X7X7X7X`.{ b : O   gXgXgXgXgXgXgXgXgXgXgXgXgXgXgXgXgXgXgXgXgXgXgXgX, 8 j t , gXgXgXgXgX",
"gXgXgXgXgXgXgXgXgXgXgXgXgXgXgXgXgXgXgXgXgXgXX 4 F e.U.%X7X7X7X6Xg.B ; o   gXgXgXgXgXgXgXgXgXgXgXgXgXgXgXgXgXgXgXgXgXgXgXgX  j <.r.<.j   gXgXgXgX",
"gXgXgXgXgXgXgXgXgXgXgXgXgXgXgXgXgXgXgXgXgX    4 ) Q.4X6X6X6X4XP.) 4     gXgXgXgXgXgXgXgXgXgXgXgXgXgXgXgXgXgXgXgXgXgXgXgX    v K.6X).v     gXgXgX",
"gXgXgXgXgXgXgXgXgXgXgXgXgXgXgXgXgXgXgXgX      > m 5.h.g.a.4.1.( b >   gXgXgXgXgXgXgXgXgXgXgXgXgXgXgXgXgXgXgXgXgXgXgXgXo # j 4.>X7Xz.l     gXgXgX",
"gXgXgXgXgXgXgXgXgXgXgXgXgXgXgXgX              + - 4 7 8 9 5 , > - gXgXgXgXgXgXgXgXgXgXgXgXgXgXgXgXgXgXgXgXgXgXgXgXgX  , D r.>X7X7Xd.z     gXgXgX",
"gXgXgXgXgXgXgXgXgXgXgXgXgXgXgX                                    gXgXgXgXgXgXgXgXgXgXgXgXgXgXgXgXgXgXgXgXgXgXgXgX    t 2.6X7X7X6X2.j     gXgXgX",
"gXgXgXgXgXgXgXgXgXgXgXgXgXgX+ @ * = 1 4 t k l z 8 5 < - * @ @ + + gXgXgXgXgXgXgXgXgXgXgXgXgXgXgXgXgXgXgXgXgXgXgXX - j G l.7X7X7X<X4.t     gXgXgX",
"gXgXgXgXgXgXgXgXgXgXgXgXgX  @ w d N Q ) 1.f.k.j.d.3.1.] Q C n p w $   gXgXgXgXgXgXgXgXgXgXgXgXgXgXgXgXgXgXgXgX  3 D s._.>X7X7X7X3X2.j     gXgXgX",
"gXgXgXgXgXgXgXgXgXgXgXgX    = b ..m.F.E.XX3X6X7X7X6X3XXXP.F.m...b ;     gXgXgXgXgXgXgXgXgXgXgXgXgXgXgXgXgXgX    j r.6X7X7X6X7X7X6Xs.j     gXgXgX",
"gXgXgXgXgXgXgXgXgXgXgXX % 4 M #.H.@X;X4X4X6X7X7X7X7X7X6X4X;X!.B.! e * .   gXgXgXgXgXgXgXgXgXgXgXgXgXgXgXgXX < j G ).7X7X6X3X7X7X7Xd.j     gXgXgX",
"gXgXgXgXgXgXgXgXgXgX  ; c ) i.I.*X4X6X6X6X7X7X7X7X7X7X7X7X4X+XF.%.Q d : @         o     gXgXgXgXgXgXgXgX  3 S s.].<X7X7X5X3X7X7X7Xs.j     gXgXgX",
"gXgXgXgXgXgXgXgXgX    4 ) E.2X6X6X6X6X6X6X6X6X6X6X6X6X7X6X3XXXP.F.v.+.n ;                 gXgXgXgXgXgX    j r.6X7X7X6X3X3X6X7X7X6Xs.j     gXgXgX",
"gXgXgXgXgXgXgXgX  . * M u.2X7X7X6X8X6X8X5X5X5X5X5X3X3X1X-X%X$X$XoXW.F.7.F l 9 6 2 * +       gXgXgXgXX < j H ).7X7X7X3X5X7X7X<X].s.S ,   gXgXgXgX",
"gXgXgXgXgXgXgX  O : b { {.6X7X7X7X8X7X6X6X5X6X6X6X6X1X$X|..X%X1X3X;X%X{.l.d.t.} C i $     o X       5 F s._.<X7X7X5X3X7X7X7X).G j - X gXgXgXgXgX",
"gXgXgXgXgXgX    * d X.F.-X6X7X7X6X6X6X6X6X6X6X7X7X6X-X|.P.|.-X6X7X6X6X7X7X6X-XD...f =               z g.6X7X7X6X3X3X6X7X7X6Xs.j     gXgXgXgXgXgX",
"gXgXgXgXgXgX    : E m.:X4X7X8X7X3X4X4X6X6X6X6X7X7X6X1X.XE.XX3X7X7X7X7X7X7X6X#Xn.W e *         X % j <._.7X7X7X5X5X7X7X<X_.r.S ,   gXgXgXgXgXgXgX",
"gXgXgXgXgXgX    4 _ F.:X6X6X8X5X3X3X5X6X6X6X6X7X6X6X4X-X%X1X4X7X7X7X7X6X2X!.w.C q # o         , S s.].<X7X7X6X6X7X7X7X).G j % o gXgXgXgXgXgXgXgX",
"gXgXgXgXgXgX    4 ) E.4X6X6X6X6X6X6X6X6X6X6X6X6X6X6X6X6X6X6X5X6X7X7X6X%XD...f =     o         z g.6X7X7X6X<X3X6X7X7X6Xs.j     gXgXgXgXgXgXgXgXgX",
"gXgXgXgXgXgX    7 1.XX6X6X5X5X8X7X7X7X6X6X6X6X7X8X7X7X7X7X7X6X3X&Xl.2.] m e : O         # 3 D s.}.7X7X6X5X5X6X6X,X).a.D 6   gXgXgXgXgXgXgXgXgXgX",
"gXgXgXgXgXgX    t t.3X7X7X3X3X6X7X7X7X6X6X6X6X6X6X7X7X7X7X7X6X:Xh.S 6 # X O O O         7 4.].6X7X7X6X5X6X7X7X6Xz.H 9 # gXgXgXgXgXgXgXgXgXgXgXgX",
"gXgXgXgXgXgX    j r.6X7X7X6X3X5X6X6X6X6X6X6X6X6X6X6X6X8X6X6X;XE.} r         X X         l g.6X7X7X6X3X3X6X7X7X6Xs.j     gXgXgXgXgXgXgXgXgXgXgXgX",
"gXgXgXgXgX  . & B g.7X0XeXtXyXx.s.z.}.6X7X7X6X5X1X1X$X[.I.E.H.c.' s - # $ - % + o       z <.l.}.5X7X7X5X6X7X7X8Xg.M *   gXgXgXgXgXgXgXgXgXgXgXgX",
"gXgXgXgX  O : h #.U.7XeXpXdXiXL 8 B d.6X7X7X6X1X*X|.G.n.9.%.+.+.} ' ) ( Z m q $     gXgXgX7 v <.`.7X7X7X5X6X7X6X[.i._ y *   gXgXgXgXgXgXgXgXgXgX",
"gXgXgX    * d X.F.XX6XtXdXfXsXK   , 3.6X7X7X6X1XXXP.N.9...` ~ ..w.D.Q.Q.V...d ;     gXgXgX    j s.6X7X7X6X5X6X6X6X2XP.) 4     gXgXgXgXgXgXgXgXgX",
"gXgXgX    1 Z F.:X6X6XrXaXsXuXJ . t d.7X7X7X6X1X%X|.G.n.q.8.@.y.G. X@XOXT.&.f =     gXgXgXgX  3 S r._.<X7X7X7X6X7X7X4XJ.G y - o gXgXgXgXgXgXgXgX",
"gXgXgX    7 [ *X7X7X6Xx.P K J 0 i [ {.7X7X7X6X3X1X-X$X.X'.{.'..XXXXX!.R.C.$.b =     gXgXgXgXgXo % t H ).7X7X7X6X6X7X6X1XP.7.V ;     gXgXgXgXgXgX",
"gXgXgX    j 3.6X7X7X6Xa.8 o . e ..H.1X6X7X7X6X6X6X6X6X6X6X6X7X6X1X$XP.F.m...b =     gXgXgXgXgXgX    j s.6X7X7X6X5X6X6X6X2XP.) 4     gXgXgXgXgXgX",
"gXgXgX    j s.7X7X7X6Xd.v , u | (.^.^.!.*X4X6X7X7X7X7X7X7X7X7X7X5X%X|.E.H.q.V 1     gXgXgXgXgXgXgX  , S 2.).>X6X7X7X6X%XI.7.A >     gXgXgXgXgXgX",
"gXgXgX    j s.7X7X7X6X].j.3.p./.qXqX:.;.C.+X6X7X7X7X6X7X7X7X7X7X7X5X1X;X@XD.( 4 o   gXgXgXgXgXgXgXgXgXX , D g.8X7X7X2XS.( k - X gXgXgXgXgXgXgXgX",
"gXgXgX    j s.6X7X7X6X8X8X6X9XwXqX,.T Y -.!.6X7X7X6X6X6X6X6X6X6X8X6X6X6X2XE.) 4     gXgXgXgXgXgXgXgXgX    j s.6X7X7XQ.( 3     gXgXgXgXgXgXgXgXgX",
"gXgXgX    j t.6X7X7X6X8X7X7X9X(.,.R U I *.R.7X7X7X6X3X4X5X6X6X6X6X6X6X4X;XG.( 4     gXgXgXgXgXgXgXgXgXo 6 F ).6X6XI.{ a ;   gXgXgXgXgXgXgXgXgXgX",
"gXgXgX    t 6.2X7X7X8X8X7X7X:X(.>.U U I =.W.7X7X7X6X4X4X6X7X7X7X6X3X-X+XW.c.V >     gXgXgXgXgXgXgX  6 D s.}.5X2XJ.( r # . gXgXgXgXgXgXgXgXgXgXgX",
"gXgXgX    4 ) E.2X4X6X7X7X6X!.;.Y I I *.-.!.6X7X7X6X6X6X6X6X7X6X3XXXP.F.m...b =     gXgXgXgXgXgX    j s.6X7X7XP.( 1     gXgXgXgXgXgXgXgXgXgXgXgX",
"gXgXgXgX  - s ) h..X6X7X7X6XXXC.-.*.=.;.T.~.-X4X6X6X6X6X6X6X4X-X.XF.c.$.o.^ N x t 7 < gXgXgXgX. * y <.].7X6XJ.( q #     gXgXgXgXgXgXgXgXgXgXgXgX",
"gXgXgXgXgX  # 4 A u.;X7X7X7X3XXXW.R.!.+X XE.|.$X1X6X7X7X6X3X-X|.D.0.+.~ / ^ ..5.5.] k o       1 B 7.|.2X2XJ.F *         gXgXgXgXgXgXgXgXgXgXgXgX",
"gXgXgXgXgXgX    4 ) P.2X6X6X6X6X6X6X7X6X1X|.P.|.-X6X7X7X6X3X+XP.N.0...~ ! ..m.W.P.6.k         y [ P.=X;XP.[ t         X gXgXgXgXgXgXgXgXgXgXgXgX",
"gXgXgXgXgXgXgX  > M } S.E.-X4X6X7X7X7X6X1XXX|.XX-X6X7X7X6X3X-X|.G.M.y.q.i.A.E.OXR.5.y       o t F e.G.R.G.5.c 3 < 1 r q ; gXgXgXgXgXgXgXgXgXgXgX",
"gXgXgXgXgXgXgXgXX - r m O.F.=X6X7X7X5X1X%X-X-X1X6X6X7X7X7X6X3X-XXX'.'..X&X%X;XoXm.Z 1     gXgXgX1 t F e.P.L.e.] ( ' W b ;     gXgXgXgXgXgXgXgXgX",
"gXgXgXgXgXgXgXgXgX    * d ..H.2X6X3XXXP.|.%X6X7X6X6X6X6X6X6X6X6X6X6X6X7X7X6X-XH...g *     gXgXgX    3 ) E.=X+XQ.F.B.+.f ;     gXgXgXgXgXgXgXgXgX",
"gXgXgXgXgXgXgXgXgX    . & p 5.[.5X2XQ.n.A.$X7X7X7X6X4X4X3X4X6X7X7X7X7X7X6X,XP.0.! h e q 4 gXgXgX  O r ) H.;X;XOXF.9.C q @     gXgXgXgXgXgXgXgXgX",
"gXgXgXgXgXgXgXgXgXo       @ S `.6X;XD.%.w.[.7X7X7X6X1X*X$X-X3X7X7X7X7X3X'.A.9...~ ~ ` ! m 1     = p E O.B.~.~.Y.@.m 2 @ o gXgXgXgXgXgXgXgXgXgXgX",
"gXgXgXgXgXgXgXgXgXX         v l.8X;XN...8.I.6X7X7X6X-X|.P.|.-X6X7X7X6X.Xn...! ~ O.&.0.O.n $   $ n O.&.$.O.$.-.} m ;     gXgXgXgXgXgXgXgXgXgXgXgX",
"gXgXgXgXgXgXgXgXgX+ o     $ S _.6X-Xn...@.L.6X7X7X6X$XL.N.D.E.-X3X1X'.u...^ ~ $.0.9.' N u 1 2 m +.b.v.! f i d d q *   gXgXgXgXgXgXgXgXgXgXgXgXgX",
"gXgXgXgXgXgXgXgXgX    . & a 7.&X6X$Xn...@.L.5X7X7X7X#XM.9.c.G.|.|.G.w...! ! $.B.N.{ x - * u E $.b.b...x = @ # * * # gXgXgXgXgXgXgXgXgXgXgXgXgXgX",
"gXgXgXgXgXgXgXgXgX    * d ..Q.4X6X#Xy...9.I.6X7X7X6X'.q...$.N.E.G.w.O.~ ! ..m.W.P.1.6   + a ..b.v...n 1         o gXgXgXgXgXgXgXgXgXgXgXgXgXgXgX",
"gXgXgXgXgXgXgXgXgX    : E B.;X7X7X'.9.` 8.'.7X7X7X1XA.+.` +.A.|.P.n.X.` ..q.H.+X|.e.c - = p E W E n u -         gXgXgXgXgXgXgXgXgXgXgXgXgXgXgXgX",
"gXgXgXgXgXgXgXgXgX    4 _ H.4X7X7X{.%.~ @.{.7X7X7XXXn. .~ @.L.-X*XL.c.0.w.A.P. X|.A.@.C a w 2 1 ; ; - @ gXgXgXgXgXgXgXgXgXgXgXgXgXgXgXgXgXgXgXgX",
"gXgXgXgXgXgXgXgXgX    4 ) E.6X7X6X'.q.O.w.'.6X7X2XP.w.X...y.#X6X6X*XP.F.H.P.E.I.P.H.m...n ;         o gXgXgXgXgXgXgXgXgXgXgXgXgXgXgXgXgXgXgXgXgX",
"gXgXgXgXgXgXgXgXgX    4 ) P.2X4X1X#XJ.M.M.J.'.|.P.F.N.c.n.U.,X7X7X4X%XXX X|. XQ.H.n.O.Q p ;         gXgXgXgXgXgXgXgXgXgXgXgXgXgXgXgXgXgXgXgXgXgX",
"gXgXgXgXgXgXgXgXgX    1 Q B.OX:XXX%X%X#XU.n.9.0.n.F.P.E..X%X5X7X7X6X4X-X#X|.W.R.B.' b 2 $ X gXgXgXgXgXgXgXgXgXgXgXgXgXgXgXgXgXgXgXgXgXgXgXgXgXgX",
"gXgXgXgXgXgXgXgXgX    ; b O.m.V.P.%X6X6X#Xu.....c.P.-X3X6X7X6X6X6X7X6X1XXXP.F.m.O.f ;     gXgXgXgXgXgXgXgXgXgXgXgXgXgXgXgXgXgXgXgXgXgXgXgXgXgXgX",
"gXgXgXgXgXgXgXgXgXgX  @ 2 d ! %.F.;X6X6X&XJ.y.n.G.%X4X6X7X8X3X3X5X6X6X6X*XF.0.! f 2 @   gXgXgXgXgXgXgXgXgXgXgXgXgXgXgXgXgXgXgXgXgXgXgXgXgXgXgXgX",
"gXgXgXgXgXgXgXgXgXgXgX  . = i ` B.!.=X1X1X%X$X%X1X4X7X7X7X5X%XXX%X1X4X2XOXm.` i ; .   gXgXgXgXgXgXgXgXgXgXgXgXgXgXgXgXgXgXgXgXgXgXgXgXgXgXgXgXgX",
"gXgXgXgXgXgXgXgXgXgXgXgX    - b ..b.F.Q.XX3X6X7X6X6X6X7X6X1X|.P.H.P.Q.H.B...f -     gXgXgXgXgXgXgXgXgXgXgXgXgXgXgXgXgXgXgXgXgXgXgXgXgXgXgXgXgXgX",
"gXgXgXgXgXgXgXgXgXgXgXgXgX  + 2 p N ..0.D.'.#X,X1X1X%X[.I.P.Y.F.n.5.) Z V d w $   gXgXgXgXgXgXgXgXgXgXgXgXgXgXgXgXgXgXgXgXgXgXgXgXgXgXgXgXgXgXgX",
"gXgXgXgXgXgXgXgXgXgXgXgXgXgXgX  . : f  .&.0.q.M.I.'.L.u.q.c.B.m.+.m 4 - - ; * @ gXgXgXgXgXgXgXgXgXgXgXgXgXgXgXgXgXgXgXgXgXgXgXgXgXgXgXgXgXgXgXgX",
"gXgXgXgXgXgXgXgXgXgXgXgXgXgXgX    ; m O.&.X...0.G.P.G.0.....$...V 1         . gXgXgXgXgXgXgXgXgXgXgXgXgXgXgXgXgXgXgXgXgXgXgXgXgXgXgXgXgXgXgXgXgX",
"gXgXgXgXgXgXgXgXgXgXgXgXgXgX$ < t A 5.F.Y.V.N.H.XX=X+XY.v. .E b q *         o gXgXgXgXgXgXgXgXgXgXgXgXgXgXgXgXgXgXgXgXgXgXgXgXgXgXgXgXgXgXgXgXgX",
"gXgXgXgXgXgXgXgXgXgXgXgX    4 A e.I.-X4X4X4X2X4X6X7X6X;XR.O.d ; o   gXgXgXgXgXgXgXgXgXgXgXgXgXgXgXgXgXgXgXgXgXgXgXgXgXgXgXgXgXgXgXgXgXgXgXgXgXgX",
"gXgXgXgXgXgXgXgXgXgXgXgX    4 ) Q.4X6X6X8X6X6X7X6X6X6X4XP.) 4     gXgXgXgXgXgXgXgXgXgXgXgXgXgXgXgXgXgXgXgXgXgXgXgXgXgXgXgXgXgXgXgXgXgXgXgXgXgXgX",
"gXgXgXgXgXgXgXgXgXgXgXgX    4 Z 7.S.z.g.j.j.k.j.d.f.f.t.1.A 3   gXgXgXgXgXgXgXgXgXgXgXgXgXgXgXgXgXgXgXgXgXgXgXgXgXgXgXgXgXgXgXgXgXgXgXgXgXgXgXgX",
"gXgXgXgXgXgXgXgXgXgXgXgXgXgX- r k k l l l l l l l z z t r 4 - gXgXgXgXgXgXgXgXgXgXgXgXgXgXgXgXgXgXgXgXgXgXgXgXgXgXgXgXgXgXgXgXgXgXgXgXgXgXgXgXgX",
"gXgXgXgXgXgXgXgXgXgXgXgXgXgXgX                              gXgXgXgXgXgXgXgXgXgXgXgXgXgXgXgXgXgXgXgXgXgXgXgXgXgXgXgXgXgXgXgXgXgXgXgXgXgXgXgXgXgX",
"gXgXgXgXgXgXgXgXgXgXgXgXgXgXgX                              gXgXgXgXgXgXgXgXgXgXgXgXgXgXgXgXgXgXgXgXgXgXgXgXgXgXgXgXgXgXgXgXgXgXgXgXgXgXgXgXgXgX"
};
