/* XPM */
static char *_664264802_16756723941675672399[] = {
/* columns rows colors chars-per-pixel */
"72 72 227 2 ",
"   c #000000",
".  c #0C0400",
"X  c #0B0A00",
"o  c #050800",
"O  c #150501",
"+  c #140B00",
"@  c #1A0D00",
"#  c #141200",
"$  c #1C1300",
"%  c #1E1B00",
"&  c #2A0E00",
"*  c #241400",
"=  c #2B1600",
"-  c #241C00",
";  c #2A1A00",
":  c #361B01",
">  c #2D2200",
",  c #2D2B00",
"<  c #262500",
"1  c #332300",
"2  c #3A2400",
"3  c #342B00",
"4  c #392C00",
"5  c #2E3200",
"6  c #333300",
"7  c #3D3500",
"8  c #3C3C00",
"9  c #333A00",
"0  c #240B25",
"q  c #442C00",
"w  c #462A00",
"e  c #542C00",
"r  c #433200",
"t  c #433D00",
"y  c #4B3D00",
"u  c #4B3104",
"i  c #543400",
"p  c #5B3600",
"a  c #5D3B00",
"s  c #533A00",
"d  c #623A01",
"f  c #6A3E00",
"g  c #613600",
"h  c #703E00",
"j  c #444300",
"k  c #4E4300",
"l  c #4B4C00",
"z  c #474900",
"x  c #5C4300",
"c  c #564700",
"v  c #585600",
"b  c #664100",
"n  c #6D4500",
"m  c #6C4C00",
"M  c #654C00",
"N  c #774C00",
"B  c #6A5600",
"V  c #755200",
"C  c #7D5300",
"Z  c #7B5E00",
"A  c #725D00",
"S  c #6B6500",
"D  c #686700",
"F  c #756700",
"G  c #7A7A00",
"H  c #757500",
"J  c #140B4F",
"K  c #2F3061",
"L  c #5E6151",
"P  c #6C724F",
"I  c #CF1A00",
"U  c #D10617",
"Y  c #D73F00",
"T  c #DE3624",
"R  c #E4273D",
"E  c #825500",
"W  c #8C5D00",
"Q  c #855A01",
"!  c #935C00",
"~  c #9A5C00",
"^  c #955500",
"/  c #914C00",
"(  c #846900",
")  c #8B6E00",
"_  c #866300",
"`  c #9B6200",
"'  c #966900",
"]  c #867400",
"[  c #957C00",
"{  c #9B7B00",
"}  c #977700",
"|  c #98601D",
" . c #A16500",
".. c #A66E00",
"X. c #AB6E00",
"o. c #AA6400",
"O. c #A47300",
"+. c #AB7300",
"@. c #AE7D00",
"#. c #A37C00",
"$. c #B37500",
"%. c #B37B00",
"&. c #BB7B00",
"*. c #DA5B00",
"=. c #DC6600",
"-. c #DE7100",
";. c #E47C00",
":. c #F1781D",
">. c #E34024",
",. c #F25B4D",
"<. c #898600",
"1. c #958500",
"2. c #9C9500",
"3. c #9D9A00",
"4. c #969300",
"5. c #A48300",
"6. c #A48B00",
"7. c #AB8B00",
"8. c #AC8100",
"9. c #B58400",
"0. c #BA8400",
"q. c #B68A00",
"w. c #BC8C00",
"e. c #AD9100",
"r. c #A39E00",
"t. c #A69700",
"y. c #BD9400",
"u. c #BC9B00",
"i. c #B59800",
"p. c #B0911D",
"a. c #9DA000",
"s. c #A3A300",
"d. c #AAAB00",
"f. c #ACA300",
"g. c #B3AC00",
"h. c #BAA700",
"j. c #AEB100",
"k. c #B2B100",
"l. c #BDBA00",
"z. c #BAB600",
"x. c #B6B626",
"c. c #C18C00",
"v. c #C78700",
"b. c #D18B00",
"n. c #C49500",
"m. c #CD9200",
"M. c #C39B00",
"N. c #CC9C00",
"B. c #D19600",
"V. c #D39A00",
"C. c #DE9700",
"Z. c #E78E08",
"A. c #CCA400",
"S. c #C5A800",
"D. c #D4A400",
"F. c #DAA500",
"G. c #D4AB00",
"H. c #DBAB00",
"J. c #CEB100",
"K. c #C6BB00",
"L. c #D5B400",
"P. c #DFB600",
"I. c #DBBB00",
"U. c #D3BB00",
"Y. c #E0AC00",
"T. c #E9A800",
"R. c #EBB500",
"E. c #E2BC00",
"W. c #ECBB00",
"Q. c #E5B400",
"!. c #F3BE00",
"~. c #F9B703",
"^. c #F8AC0F",
"/. c #DA993E",
"(. c #F08E31",
"). c #C3C200",
"_. c #CDCB00",
"`. c #CBC400",
"'. c #DCC300",
"]. c #D2CE00",
"[. c #DECB00",
"{. c #D4C200",
"}. c #DBD600",
"|. c #E4C200",
" X c #ECC300",
".X c #E3CB00",
"XX c #EACD00",
"oX c #F4C300",
"OX c #FDC500",
"+X c #F5CC00",
"@X c #FDCB00",
"#X c #E5D300",
"$X c #ECD400",
"%X c #ECDB00",
"&X c #E6D900",
"*X c #F2D500",
"=X c #FCD500",
"-X c #F2DC00",
";X c #FEDC00",
":X c #F9CB10",
">X c #E6E300",
",X c #EDE200",
"<X c #EDED00",
"1X c #F4E400",
"2X c #FDE400",
"3X c #F5EC00",
"4X c #FCEC00",
"5X c #F6F200",
"6X c #FEF600",
"7X c #FFFE00",
"8X c #F7FD00",
"9X c #FFDB24",
"0X c #FFFF26",
"qX c #FD9056",
"wX c #FEAB47",
"eX c #FFFF4F",
"rX c #EDEF4F",
"tX c #FFFF61",
"yX c #D6D64F",
"uX c #524EA8",
"iX c #B0B1AA",
"pX c #FFFFA9",
"aX c #D3D7A8",
"sX c #9C9DCF",
"dX c #FFFFCF",
"fX c white",
"gX c None",
/* pixels */
"gXgXgXgXgXgXgXgXgXgXgXgXgXgXgXgXgXgXgXgXgXgXgXgXgXgXgX                        gXgXgXgXgXgXgXgXgXgXgXgXgXgXgXgXgXgXgXgXgXgXgXgXgXgXgXgXgXgXgXgXgX",
"gXgXgXgXgXgXgXgXgXgXgXgXgXgXgXgXgXgXgXgXgXgXgXgXgXgXgX                        gXgXgXgXgXgXgXgXgXgXgXgXgXgXgXgXgXgXgXgXgXgXgXgXgXgXgXgXgXgXgXgXgX",
"gXgXgXgXgXgXgXgXgXgXgXgXgXgXgXgXgXgXgXgXgXgXgXgXgXgXgXgX              X % ; ; gXgXgXgXgXgXgXgXgXgXgXgXgXgXgXgXgXgXgXgXgXgXgXgXgXgXgXgXgXgXgXgXgX",
"gXgXgXgXgXgXgXgXgXgXgXgXgXgXgXgXgXgXgXgXgXgXgXgXgXgXgXgXgX            ; s b b 1         gXgXgXgXgXgXgXgXgXgXgXgXgXgXgXgXgXgXgXgXgXgXgXgXgXgXgXgX",
"gXgXgXgXgXgXgXgXgXgXgXgXgXgXgXgXgXgXgXgXgXgXgXgXgXgXgXgXgXgXX         q Q ..Q q         o gXgXgXgXgXgXgXgXgXgXgXgXgXgXgXgXgXgXgXgXgXgXgXgXgXgXgX",
"gXgXgXgXgXgXgXgXgXgXgXgXgXgXgXgXgXgXgXgXgXgXgXgXgXgXgXgXgXgXgX        u  .b.c.( j 5 3 4 1 * gXgXgXgXgXgXgXgXgXgXgXgXgXgXgXgXgXgXgXgXgXgXgXgXgXgX",
"gXgXgXgXgXgX      gXgXgXgXgXgXgXgXgXgXgXgXgXgXgXgXgXgXgXgXgXgXgX      2 Q b.Y.S.s.4.1.( x ;   gXgXgXgXgXgXgXgXgXgXgXgXgXgXgXgXgXgXgXgXgXgXgXgXgX",
"gXgXgXgXgXgX      gXgXgXgXgXgXgXgXgXgXgXgXgXgXgXgXgXgXgXgXgXgXgXgX    * g ..H.-X6X7X4XP.) 4     gXgXgXgXgXgXgXgXgXgXgXgXgXgXgXgXgXgXgXgXgXgXgXgX",
"gXgXgXgXgX, 8 j 8 , gXgXgXgXgXgXgXgXgXgXgXgXgXgXgXgXgXgXgXgXgXgXgXgX  O : n { `.7X7X7X7XK.G y ; @ gXgXgXgXgXgXgXgXgXgXgXgXgXgXgXgXgXgXgXgXgXgXgX",
"gXgXgXgX  j <.r.<.j   gXgXgXgXgXgXgXgXgXgXgXgXgXgXgXgXgXgXgXgXgXgXgXgX    ; B g.7X7X7X7X,XU.e.Z 7 X gXgXgXgXgXgXgXgXgXgXgXgXgXgXgXgXgXgXgXgXgXgX",
"gXgXgX    v ).6XK.v     gXgXgXgXgXgXgXgXgXgXgXgXgXgXgXgXgXgXgXgXgXgXgXgX    3 ) P.2X6X6X6X2XP.) 4     gXgXgXgXgXgXgXgXgXgXgXgXgXgXgXgXgXgXgXgXgX",
"gXgXgX    l l.7X>X4.j # o gXgXgXgXgXgXgXgXgXgXgXgXgXgXgXgXgXgXgXgXgXgXgXgX  > b ( 1.4.a.f.h.5.B >       gXgXgXgXgXgXgXgXgXgXgXgXgXgXgXgXgXgXgXgX",
"gXgXgX    z d.7X7X>Xr.D ,   gXgXgXgXgXgXgXgXgXgXgXgXgXgXgXgXgXgXgXgXgXgXgXgXgX- , , 5 9 7 7 4 - X               gXgXgXgXgXgXgXgXgXgXgXgXgXgXgXgX",
"gXgXgX    j 3.6X7X7X6X3.t     gXgXgXgXgXgXgXgXgXgXgXgXgXgXgXgXgXgXgXgXgXgXgXgX                                    gXgXgXgXgXgXgXgXgXgXgXgXgXgXgX",
"gXgXgX    t 4.3X7X7X7Xl.G j - X gXgXgXgXgXgXgXgXgXgXgXgXgXgXgXgXgXgXgXgXgXgXgXO + @ @ $ - < , 8 z c k t 4 1 = * @ + gXgXgXgXgXgXgXgXgXgXgXgXgXgX",
"gXgXgX    j 2.3X7X7X7X>X_.s.D ,   gXgXgXgXgXgXgXgXgXgXgXgXgXgXgXgXgXgXgXgX  $ w a n C Q ] 4.3.d.k.z.f.1.) Q N g w @   gXgXgXgXgXgXgXgXgXgXgXgXgX",
"gXgXgX    j r.6X7X7X6X7X7X6Xs.j     gXgXgXgXgXgXgXgXgXgXgXgXgXgXgXgXgXgX    * b ..m.F.Q.$X1X6X7X7X6X3XXXE.F.m...f ;     gXgXgXgXgXgXgXgXgXgXgXgX",
"gXgXgX    z s.7X7X7X3X6X7X7X).G j - X gXgXgXgXgXgXgXgXgXgXgXgXgXgXgXgX  . * i ! m.!.;X4X6X7X7X7X7X7X6X4X2X;X@XH.#.M 4 % X gXgXgXgXgXgXgXgXgXgXgX",
"gXgXgX    z s.7X7X7X3X3X7X7X<X].s.S 3   gXgXgXgXgXgXgXgX              @ : d Q &.F.:X4X7X7X7X7X7X7X7X7X6X6X6X2X-XI.i.) c -   gXgXgXgXgXgXgXgXgXgX",
"gXgXgX    j s.6X7X7X6X3X3X6X7X7X6Xr.j     gXgXgXgXgXgX      o         : n ..v.D.P.XX3X6X7X7X6X6X6X6X6X6X6X7X6X6X6X2XQ.) 4     gXgXgXgXgXgXgXgXgX",
"gXgXgXgX  3 D s.].<X7X7X5X3X7X7X7Xl.G j < X gXgXgXgX      + * 2 7 7 z F 7.D.W.+XXX$X%X,X1X3X5X3X5X5X5X6X5X6X8X7X7X7X2Xu.M ;     gXgXgXgXgXgXgXgX",
"gXgXgXgXgXX - j G ).7X7X7X3X5X7X7X<X_.s.S 6       X o     $ e C } 2.d.l.[.$X;X1X1X%X.X|.XX1X6X6X6X5X5X6X6X7X8X7X7X7X6X{.{ n : O   gXgXgXgXgXgXgX",
"gXgXgXgXgXgX    z r.6X7X7X6X3X3X6X7X7X6Xg.z               = f ..D.-X8X7X7X6X6X7X6X1X|.E.|.-X6X7X7X6X6X6X6X6X6X6X7X7X6X-XH...d =     gXgXgXgXgXgX",
"gXgXgXgXgXgXgX  , D r._.<X7X7X5X5X7X7X7X_.<.j % X         * i W y.$X6X7X7X7X7X7X7X1X.XE..X1X6X7X7X6X6X6X6X5X4X4X7X8X7X2XOXm.C :     gXgXgXgXgXgX",
"gXgXgXgXgXgXgXgXX % j G ).7X7X7X6X5X7X7X5X].s.D ,         X @ q C y.!.2X6X7X7X7X7X5X1X$X-X4X6X7X7X6X6X6X6X4X3X3X5X8X7X6X:XF._ 2 o   gXgXgXgXgXgX",
"gXgXgXgXgXgXgXgXgX    j s.6X7X7X6X3X3X6X7X7X6Xg.j               = f O.D.*X6X7X7X6X4X6X6X6X6X6X6X6X6X6X6X6X6X6X7X6X6X6X6X4XE.) 4     gXgXgXgXgXgX",
"gXgXgXgXgXgXgXgXgXgX  6 D a.`.,X6X6X5X5X6X7X7X}.3.D 6 #         O : e m ] 2.l.&X4X6X7X7X7X7X7X6X6X6X6X6X7X6X7X7X8X5X5X6X6XXX1.r     gXgXgXgXgXgX",
"gXgXgXgXgXgXgXgXgXgXgXgX# 6 H z.6X7X7X6X5X8X7X7X6X[.4.7         . O O O # 6 D h.*X6X7X7X8X7X7X7X6X6X6X6X6X7X7X7X6X<X4X7X7X3Xt.j     gXgXgXgXgXgX",
"gXgXgXgXgXgXgXgXgXgXgXgX    j r.6X7X7X6X3X3X6X7X7X6Xd.l         X X         r } Q.2X6X6X8X6X6X6X6X6X6X6X6X6X6X6X6X3X6X7X7X6Xr.j     gXgXgXgXgXgX",
"gXgXgXgXgXgXgXgXgXgXgXgX  * v g.6X7X7X6X5X7X7X5X}.l.1.j       o + % - $ # - s ' c.H.Q.I..X$X1X1X5X6X7X7X6X}.k.f.x.yXtXeX0X7Xg.B = .   gXgXgXgXgX",
"gXgXgXgXgXgXgXgXgXgX  * s _ e.#X6X7X6X5X7X7X7X).<.v 8 gXgXgX    $ q m Z ( ( ) O.X.+.%.9.n.G.|.$X3X6X7X7X6Xf.v 8 L iXdXpXeX7XU.{ f : O   gXgXgXgX",
"gXgXgXgXgXgXgXgXgX    4 ) P.2X6X6X8X5X6X7X7X6Xr.j     gXgXgX    ; d +.V.Q.Q.A.w...~ ` ..9.N.P.XX1X6X7X7X7X2.3   K sXfXdXtX6X$XF...d *     gXgXgX",
"gXgXgXgXgXgXgXgX. - y ] K.2X7X7X6X7X7X7X<X_.r.D ,   gXgXgXgX    ; n &.T.OX@X XG.y.@.8.9.n.G.|.$X1X6X7X7X7Xd.y . J uXsXaXrX6X6X;XD.Q 1     gXgXgX",
"gXgXgXgXgXgX    1 B 6.I.1X6X7X6X6X7X7X7X).G t % X gXgXgXgXgX    = f X.C.R.!. XXX.X'.'.'..X$X1X1X3X6X7X7X7X{.[ i 0 J K P x.7X7X7X$X1.7     gXgXgX",
"gXgXgXgXgXgX    4 ) P.2X6X6X5X5X6X7X7X6Xr.j     gXgXgXgXgXgX    = b ..m.F.E.$X3X6X7X7X6X6X5X6X6X6X6X7X7X6X-XH. .e .   8 3.7X7X7X6X3.t     gXgXgX",
"gXgXgXgXgXgX    1 B 7.I.-X6X7X7X6X>X).2.D ,   gXgXgXgXgXgXgX    > V 9.H.E.|.%X5X7X7X7X7X7X7X7X7X7X7X2X*X:X^.^.Z.| u , v d.6X7X7X7Xs.j     gXgXgX",
"gXgXgXgXgXgXgXgXX - k ( S.2X7X7X8Xg.D , X gXgXgXgXgXgXgXgXgX  o 4 ( G.=X;X1X5X8X7X7X7X7X7X6X7X7X6X6X:XC.;.:.qXqX/.p.2.j.].6X7X7X7Xs.z     gXgXgX",
"gXgXgXgXgXgXgXgXgX    4 ( P.7X7X6Xs.j     gXgXgXgXgXgXgXgXgX    4 ) P.2X6X6X6X6X6X6X6X6X6X6X6X7X7X7XR.;.*.T ,.qXwX9X6X8X5X7X7X7X6Xs.j     gXgXgX",
"gXgXgXgXgXgXgXgXgXgX  ; x } I.4X6XK.H 5 o gXgXgXgXgXgXgXgXgX    4 ( G.;X4X6X6X7X6X6X6X6X4X4X6X7X7X7XR.*.I U R ,.wX9X7X7X8X7X7X7X6Xt.t     gXgXgX",
"gXgXgXgXgXgXgXgXgXgXgX  $ r ( J.2X4X}.r.D 6   gXgXgXgXgXgXgX    1 V c.W.+X-X3X6X7X6X6X6X5X4X6X7X7X7XW.*.I U U >.(.:X7X8X8X6X7X7X2X6.t     gXgXgX",
"gXgXgXgXgXgXgXgXgXgXgXgX    4 ( P.7X7X6Xs.z     gXgXgXgXgXgX    = b ..m.F.Q..X3X6X7X7X6X6X6X6X7X7X6XoX;.Y I I *.;.!.6X7X7X6X4X2XP.) 4     gXgXgX",
"gXgXgXgXgXgXgXgXgXgXgXgX    @ r ( K.6X7X_.<.y * . gXgXgXgX< 7 t x N ^ o.&.c.G.|.-X4X6X6X6X6X6X5X4X-X XT.;.*.*.=.C. X6X7X7X6X.Xh.) c -   gXgXgXgX",
"gXgXgXgXgXgXgXgXgXgXgXgX        ; F S.;X2X|.7.B 1       X j ) 6.8.' ^ / ~ ..w.D.E.-X3X6X7X7X6X1X#X|.|.oXOX~.R.R.+X1X7X7X7X;XM.A 4 @   gXgXgXgXgX",
"gXgXgXgXgXgXgXgXgXgXgXgXX         r [ E.;X;XQ.[ y         k 6.P.W.m.+.^ ~ O.&.N.E.*X1X6X7X7X6X-X|.Q.|.-X6X7X7X7X6X8X6X6X2XP.) 4     gXgXgXgXgXgX",
"gXgXgXgXgXgXgXgXgXgXgX; q q 1 - > v 5.G.E.G.e.F t         y #.E.@XW.A.i.q.y.M.G.|.*X4X6X7X7X6X1X.X|.XX1X7X7X7X7X7X4X-XI.S.{ M >   gXgXgXgXgXgXgX",
"gXgXgXgXgXgXgXgXgX    = b _ ' ) ] e.L.L.q.A t , gXgXgX    1 Q m.oX-X-X&X.X'.'.XX-X3X6X7X7X7X6X4X1X1X-X%X1X3X7X7X6X=XF.O.m 4 - X gXgXgXgXgXgXgXgX",
"gXgXgXgXgXgXgXgXgX    = b ..B.F.E.+X;XQ.) 4     gXgXgX    * d ..H.-X6X7X7X6X5X6X6X6X6X6X6X6X6X7X7X6X-XE.P.XX3X6X;XH.X.g *     gXgXgXgXgXgXgXgXgX",
"gXgXgXgXgXgXgXgXgX    $ w E 9.F.OX;X=XQ.) r .   gXgXgX7 q e h ! 0.P.-X8X7X7X7X7X7X6X4X3X3X4X6X7X7X7X$XA.n.P.;X6X[.5.p & .     gXgXgXgXgXgXgXgXgX",
"gXgXgXgXgXgXgXgXgXgXgX  @ 2 m @.T.~.~.V.+.E a ;     1 m W ` ~ ~ ..9.A.'.3X7X7X7X7X3X-X$X*X1X6X7X7X7X[.w.%.D.2X6X).S @       o gXgXgXgXgXgXgXgXgX",
"gXgXgXgXgXgXgXgXgXgXgXgX    ; m ..&.$...$.&...b *   % n +.&.&.O.~ ~ O.n..X6X7X7X6X%XE.P.|.-X6X7X7X6XI.8.O.N.;X6X).v         X gXgXgXgXgXgXgXgXgX",
"gXgXgXgXgXgXgXgXgXgXgXgXgX  * q a a i f _ v.b...n 2 : u C ' 9.0.+.~ ^ ..u.'.%X3X-X|.D.N.G.%X7X7X7X6XU.@.' m.-X6X_.S $     X X gXgXgXgXgXgXgXgXgX",
"gXgXgXgXgXgXgXgXgXgXgXgXgXgX@ = - @ @ ; f ..b.b.%.E q * - c { N.B.$.^ ! O.w.L.|.|.G.c.9.M.#X7X7X7X5XL.%...M.$X6X&X6.d & .     gXgXgXgXgXgXgXgXgX",
"gXgXgXgXgXgXgXgXgXgXgXgXgXgXgXo         1 m ..v.b...s @   3 1.P.W.m.+.! ~ ..w.H.P.N.&...w.'.6X7X7X6XI.9.O.w..X6X2XE.+.g *     gXgXgXgXgXgXgXgXgX",
"gXgXgXgXgXgXgXgXgXgXgXgXgXgXgXgX        - q n E _ C p = ; c e.|.+XH.9... ...c.P.|.A.+.! +.G.1X7X7X7X{.%. .9.[.6X7X;XB.E :     gXgXgXgXgXgXgXgXgX",
"gXgXgXgXgXgXgXgXgXgXgXgXgXgXgXgXgXgXgXgX@ - ; > 1 2 q a C #.A.|..XP.N.c.0.c.G.*X-XL.@.~  .n.XX6X7X7X'.@.` @.{.7X7X6XH._ 4     gXgXgXgXgXgXgXgXgX",
"gXgXgXgXgXgXgXgXgXgXgXgXgXgXgXgXgXgXgXgXgX.         : n +.m.H.P.E.E.P.H.H.P.-X6X6X#Xy.....0.E.1X7X6X[.q...q.'.6X7X6XP.) 4     gXgXgXgXgXgXgXgXgX",
"gXgXgXgXgXgXgXgXgXgXgXgXgXgXgXgXgXgXgXgXgXgX        ; s E +.n.H.W.|. X|.XX-X4X7X7X,XU.M.w.m.F.E.|.'.J.M.M.J..X1X6X2XP.) 2     gXgXgXgXgXgXgXgXgX",
"gXgXgXgXgXgXgXgXgXgXgXgXgXgXgXgXgXgXgXgXgXgXgXgXgXgX. * 2 b ' B.T.W.|.XX-X3X6X7X7X5X%X.XI.P.G.m.0.9.u.U.&X%X%XXX+X~.V.Q 1     gXgXgXgXgXgXgXgXgX",
"gXgXgXgXgXgXgXgXgXgXgXgXgXgXgXgXgXgXgXgXgXgXgXgXgXgXgX    ; b ..m.F.Q.#X4X6X7X6X6X7X7X6X4X*XP.c.....u..X6X6X-XP.F.m. .b ;     gXgXgXgXgXgXgXgXgX",
"gXgXgXgXgXgXgXgXgXgXgXgXgXgXgXgXgXgXgXgXgXgXgXgXgXgXgXgX  @ 2 b _ 0.H.+X6X6X6X5X1X3X6X7X7X4X$XL.n.n.J.%X7X6X=XF.&.W f 2 +   gXgXgXgXgXgXgXgXgXgX",
"gXgXgXgXgXgXgXgXgXgXgXgXgXgXgXgXgXgXgXgXgXgXgXgXgXgXgXgXgX  . ; p _ B.oX2X2X1X%X#X$X5X7X7X7X4X1X$X$X%X1X1X=X!.m.! i * X   gXgXgXgXgXgXgXgXgXgXgX",
"gXgXgXgXgXgXgXgXgXgXgXgXgXgXgXgXgXgXgXgXgXgXgXgXgXgXgXgXgXgX    = f O.B.H.Q.P.P.P. X1X6X7X6X6X6X7X6X3X#XP.F.b.+.b ;     gXgXgXgXgXgXgXgXgXgXgXgX",
"gXgXgXgXgXgXgXgXgXgXgXgXgXgXgXgXgXgXgXgXgXgXgXgXgXgXgXgXgXgXgX  * w f V Z ) #.n.F.Y.P.{.[.%X1X1X%X&XE.D.c. .N p 2 @   gXgXgXgXgXgXgXgXgXgXgXgXgX",
"gXgXgXgXgXgXgXgXgXgXgXgXgXgXgXgXgXgXgXgXgXgXgXgXgXgXgXgXgXgXgXgX@ * = * - 4 B +.m.B.w.9.u.L.I.I.S.q.0.&. .f : .   gXgXgXgXgXgXgXgXgXgXgXgXgXgXgX",
"gXgXgXgXgXgXgXgXgXgXgXgXgXgXgXgXgXgXgXgXgXgXgXgXgXgXgXgXgXgXgXgXgXX         1 V ..$.X...0.G.P.G.q...X.&...m :     gXgXgXgXgXgXgXgXgXgXgXgXgXgXgX",
"gXgXgXgXgXgXgXgXgXgXgXgXgXgXgXgXgXgXgXgXgXgXgXgXgXgXgXgXgXgXgXgXgXo         $ q b E  .v.Y.+X=X XH.N.V.H.D.5.A t , # gXgXgXgXgXgXgXgXgXgXgXgXgXgX",
"gXgXgXgXgXgXgXgXgXgXgXgXgXgXgXgXgXgXgXgXgXgXgXgXgXgXgXgXgXgXgXgXgXgXgXgXgXgX  . ; a O.T.2X6X7X6X4X2X2X6X4X-XU.e.A 4     gXgXgXgXgXgXgXgXgXgXgXgX",
"gXgXgXgXgXgXgXgXgXgXgXgXgXgXgXgXgXgXgXgXgXgXgXgXgXgXgXgXgXgXgXgXgXgXgXgXgXgXgX    4 ) E.2X6X6X8X6X6X6X7X6X6X2XE.) 4     gXgXgXgXgXgXgXgXgXgXgXgX",
"gXgXgXgXgXgXgXgXgXgXgXgXgXgXgXgXgXgXgXgXgXgXgXgXgXgXgXgXgXgXgXgXgXgXgXgXgXgXgXgX  3 B 1.e.f.d.d.j.j.j.j.k.z.S.7.Z 4     gXgXgXgXgXgXgXgXgXgXgXgX",
"gXgXgXgXgXgXgXgXgXgXgXgXgXgXgXgXgXgXgXgXgXgXgXgXgXgXgXgXgXgXgXgXgXgXgXgXgXgXgXgXgX< 4 t t z z z l l l l l l c y 7 , gXgXgXgXgXgXgXgXgXgXgXgXgXgX",
"gXgXgXgXgXgXgXgXgXgXgXgXgXgXgXgXgXgXgXgXgXgXgXgXgXgXgXgXgXgXgXgXgXgXgXgXgXgXgXgXgXgX                              gXgXgXgXgXgXgXgXgXgXgXgXgXgXgX",
"gXgXgXgXgXgXgXgXgXgXgXgXgXgXgXgXgXgXgXgXgXgXgXgXgXgXgXgXgXgXgXgXgXgXgXgXgXgXgXgXgXgX                              gXgXgXgXgXgXgXgXgXgXgXgXgXgXgX"
};
