/* XPM */
static char *_51995577_16756723931675672398[] = {
/* columns rows colors chars-per-pixel */
"72 72 227 2 ",
"   c #000000",
".  c #0C0400",
"X  c #0B0A00",
"o  c #050800",
"O  c #150501",
"+  c #140B00",
"@  c #1A0D00",
"#  c #141200",
"$  c #1C1300",
"%  c #1E1B00",
"&  c #2A0E00",
"*  c #241400",
"=  c #2B1600",
"-  c #241C00",
";  c #2A1A00",
":  c #361B01",
">  c #2D2200",
",  c #2D2B00",
"<  c #262500",
"1  c #332300",
"2  c #3A2400",
"3  c #342B00",
"4  c #392C00",
"5  c #2E3200",
"6  c #333300",
"7  c #3D3500",
"8  c #3C3C00",
"9  c #333A00",
"0  c #240B25",
"q  c #442C00",
"w  c #462A00",
"e  c #542C00",
"r  c #433200",
"t  c #433D00",
"y  c #4B3D00",
"u  c #4B3104",
"i  c #543400",
"p  c #5B3600",
"a  c #5D3B00",
"s  c #533A00",
"d  c #623A01",
"f  c #6A3E00",
"g  c #613600",
"h  c #703E00",
"j  c #444300",
"k  c #4E4300",
"l  c #4B4C00",
"z  c #474900",
"x  c #5C4300",
"c  c #564700",
"v  c #585600",
"b  c #664100",
"n  c #6D4500",
"m  c #6C4C00",
"M  c #654C00",
"N  c #774C00",
"B  c #6A5600",
"V  c #755200",
"C  c #7D5300",
"Z  c #7B5E00",
"A  c #725D00",
"S  c #6B6500",
"D  c #686700",
"F  c #756700",
"G  c #7A7A00",
"H  c #757500",
"J  c #140B4F",
"K  c #2F3061",
"L  c #5E6151",
"P  c #6C724F",
"I  c #CF1A00",
"U  c #D10617",
"Y  c #D73F00",
"T  c #DE3624",
"R  c #E4273D",
"E  c #825500",
"W  c #8C5D00",
"Q  c #855A01",
"!  c #935C00",
"~  c #9A5C00",
"^  c #955500",
"/  c #914C00",
"(  c #846900",
")  c #8B6E00",
"_  c #866300",
"`  c #9B6200",
"'  c #966900",
"]  c #867400",
"[  c #957C00",
"{  c #9B7B00",
"}  c #977700",
"|  c #98601D",
" . c #A16500",
".. c #A66E00",
"X. c #AB6E00",
"o. c #AA6400",
"O. c #A47300",
"+. c #AB7300",
"@. c #AE7D00",
"#. c #A37C00",
"$. c #B37500",
"%. c #B37B00",
"&. c #BB7B00",
"*. c #DA5B00",
"=. c #DC6600",
"-. c #DE7100",
";. c #E47C00",
":. c #F1781D",
">. c #E34024",
",. c #F25B4D",
"<. c #898600",
"1. c #958500",
"2. c #9C9500",
"3. c #9D9A00",
"4. c #969300",
"5. c #A48300",
"6. c #A48B00",
"7. c #AB8B00",
"8. c #AC8100",
"9. c #B58400",
"0. c #BA8400",
"q. c #B68A00",
"w. c #BC8C00",
"e. c #AD9100",
"r. c #A39E00",
"t. c #A69700",
"y. c #BD9400",
"u. c #BC9B00",
"i. c #B59800",
"p. c #B0911D",
"a. c #9DA000",
"s. c #A3A300",
"d. c #AAAB00",
"f. c #ACA300",
"g. c #B3AC00",
"h. c #BAA700",
"j. c #AEB100",
"k. c #B2B100",
"l. c #BDBA00",
"z. c #BAB600",
"x. c #B6B626",
"c. c #C18C00",
"v. c #C78700",
"b. c #D18B00",
"n. c #C49500",
"m. c #CD9200",
"M. c #C39B00",
"N. c #CC9C00",
"B. c #D19600",
"V. c #D39A00",
"C. c #DE9700",
"Z. c #E78E08",
"A. c #CCA400",
"S. c #C5A800",
"D. c #D4A400",
"F. c #DAA500",
"G. c #D4AB00",
"H. c #DBAB00",
"J. c #CEB100",
"K. c #C6BB00",
"L. c #D5B400",
"P. c #DFB600",
"I. c #DBBB00",
"U. c #D3BB00",
"Y. c #E0AC00",
"T. c #E9A800",
"R. c #EBB500",
"E. c #E2BC00",
"W. c #ECBB00",
"Q. c #E5B400",
"!. c #F3BE00",
"~. c #F9B703",
"^. c #F8AC0F",
"/. c #DA993E",
"(. c #F08E31",
"). c #C3C200",
"_. c #CDCB00",
"`. c #CBC400",
"'. c #DCC300",
"]. c #D2CE00",
"[. c #DECB00",
"{. c #D4C200",
"}. c #DBD600",
"|. c #E4C200",
" X c #ECC300",
".X c #E3CB00",
"XX c #EACD00",
"oX c #F4C300",
"OX c #FDC500",
"+X c #F5CC00",
"@X c #FDCB00",
"#X c #E5D300",
"$X c #ECD400",
"%X c #ECDB00",
"&X c #E6D900",
"*X c #F2D500",
"=X c #FCD500",
"-X c #F2DC00",
";X c #FEDC00",
":X c #F9CB10",
">X c #E6E300",
",X c #EDE200",
"<X c #EDED00",
"1X c #F4E400",
"2X c #FDE400",
"3X c #F5EC00",
"4X c #FCEC00",
"5X c #F6F200",
"6X c #FEF600",
"7X c #FFFE00",
"8X c #F7FD00",
"9X c #FFDB24",
"0X c #FFFF26",
"qX c #FD9056",
"wX c #FEAB47",
"eX c #FFFF4F",
"rX c #EDEF4F",
"tX c #FFFF61",
"yX c #D6D64F",
"uX c #524EA8",
"iX c #B0B1AA",
"pX c #FFFFA9",
"aX c #D3D7A8",
"sX c #9C9DCF",
"dX c #FFFFCF",
"fX c white",
"gX c None",
/* pixels */
"gXgXgXgXgXgXgXgXgXgXgXgXgXgXgXgXgXgXgXgXgXgXgXgXgXgXgXgXgXgXgXgXgXgXgXgX                        gXgXgXgXgXgXgXgXgXgXgXgXgXgXgXgXgXgXgXgXgXgXgXgX",
"gXgXgXgXgXgXgXgXgXgXgXgXgXgXgXgXgXgXgXgXgXgXgXgXgXgXgXgXgXgXgXgXgXgXgXgX                        gXgXgXgXgXgXgXgXgXgXgXgXgXgXgXgXgXgXgXgXgXgXgXgX",
"gXgXgXgXgXgXgXgXgXgXgXgXgXgXgXgXgXgXgXgXgXgXgXgXgXgXgXgXgXgXgXgXgXgXgXgX> ; * X               gXgXgXgXgXgXgXgXgXgXgXgXgXgXgXgXgXgXgXgXgXgXgXgXgX",
"gXgXgXgXgXgXgXgXgXgXgXgXgXgXgXgXgXgXgXgXgXgXgXgXgXgXgXgXgXgXgX        1 d b i -             gXgXgXgXgXgXgXgXgXgXgXgXgXgXgXgXgXgXgXgXgXgXgXgXgXgX",
"gXgXgXgXgXgXgXgXgXgXgXgXgXgXgXgXgXgXgXgXgXgXgXgXgXgXgXgXgXgX          4 W ..Q q         o gXgXgXgXgXgXgXgXgXgXgXgXgXgXgXgXgXgXgXgXgXgXgXgXgXgXgX",
"gXgXgXgXgXgXgXgXgXgXgXgXgXgXgXgXgXgXgXgXgXgXgXgXgXgXgXgXgX$ 1 4 3 5 j ( c.b.` q         gXgXgXgXgXgXgXgXgXgXgXgXgXgXgXgXgXgXgXgXgXgXgXgXgXgXgXgX",
"gXgXgXgXgXgXgXgXgXgXgXgXgXgXgXgXgXgXgXgXgXgXgXgXgXgXgXgX  ; x _ 1.4.r.S.Y.b.W 2       gXgXgXgXgXgXgXgXgXgXgXgXgXgXgXgXgXgXgXgXgXgXgX      gXgXgX",
"gXgXgXgXgXgXgXgXgXgXgXgXgXgXgXgXgXgXgXgXgXgXgXgXgXgXgX    4 ) E.6X7X6X-XH...g =     gXgXgXgXgXgXgXgXgXgXgXgXgXgXgXgXgXgXgXgXgXgXgXgX      gXgXgX",
"gXgXgXgXgXgXgXgXgXgXgXgXgXgXgXgXgXgXgXgXgXgXgXgXgXgX$ ; k G K.7X7X7X7X`.{ b : O   gXgXgXgXgXgXgXgXgXgXgXgXgXgXgXgXgXgXgXgXgXgXgXgX, 8 j 8 , gXgX",
"gXgXgXgXgXgXgXgXgXgXgXgXgXgXgXgXgXgXgXgXgXgXgXgXgXX 4 A q.U.&X7X7X7X6Xg.B ; o   gXgXgXgXgXgXgXgXgXgXgXgXgXgXgXgXgXgXgXgXgXgXgXgX  j <.r.<.j     ",
"gXgXgXgXgXgXgXgXgXgXgXgXgXgXgXgXgXgXgXgXgXgXgXgX    4 ) P.4X6X6X6X4XE.) 4     gXgXgXgXgXgXgXgXgXgXgXgXgXgXgXgXgXgXgXgXgXgXgXgX    v ).6XK.v     ",
"gXgXgXgXgXgXgXgXgXgXgXgXgXgXgXgXgXgXgXgXgXgXgX      > V 5.h.d.a.4.1.( x >   gXgXgXgXgXgXgXgXgXgXgXgXgXgXgXgXgXgXgXgXgXgXgXgXo $ j 4.>X7Xl.l     ",
"gXgXgXgXgXgXgXgXgXgXgXgXgXgXgXgXgXgXgX              + - 4 7 8 9 6 , > - gXgXgXgXgXgXgXgXgXgXgXgXgXgXgXgXgXgXgXgXgXgXgXgXgX  , B s.>X7X7Xd.z     ",
"gXgXgXgXgXgXgXgXgXgXgXgXgXgXgXgXgXgX                                    gXgXgXgXgXgXgXgXgXgXgXgXgXgXgXgXgXgXgXgXgXgXgXgX    j 3.6X7X7X6X3.t     ",
"gXgXgXgXgXgXgXgXgXgXgXgXgXgXgXgXgXO * * ; 1 4 t l l z 8 5 < - $ @ @ O O gXgXgXgXgXgXgXgXgXgXgXgXgXgXgXgXgXgXgXgXgXgXgXX % j H l.7X7X7X3X2.t     ",
"gXgXgXgXgXgXgXgXgXgXgXgXgXgXgXgX  @ w d N C ) 5.f.g.j.d.3.1.] _ C n a w $   gXgXgXgXgXgXgXgXgXgXgXgXgXgXgXgXgXgXgXgX  6 D s._.>X7X7X7X<X2.j     ",
"gXgXgXgXgXgXgXgXgXgXgXgXgXgXgX    ; f ..m.F.P.XX3X6X7X7X6X3X$XP.F.B...b ;     gXgXgXgXgXgXgXgXgXgXgXgXgXgXgXgXgXgX    j r.6X7X7X6X7X7X6Xs.j     ",
"gXgXgXgXgXgXgXgXgXgXgXgXgXgXX - 4 M #.H.@X;X2X6X6X7X7X7X7X7X6X4X;X!.m.! e * .   gXgXgXgXgXgXgXgXgXgXgXgXgXgXgXgXX < j G ).7X7X6X3X7X7X7Xs.j     ",
"gXgXgXgXgXgXgXgXgXgXgXgXgX  - c ) u.I.-X4X6X6X6X7X7X7X7X7X7X7X7X4X+XF.%.Q g 2 @               gXgXgXgXgXgXgXgX  , S r.].<X7X7X3X3X7X7X7Xs.j     ",
"gXgXgXgXgXgXgXgXgXgXgXgX    4 ) P.2X6X6X6X6X6X6X6X6X6X6X6X7X7X6X1XXXP.F.v...m ;         o       gXgXgXgXgXgX    j s.6X7X7X6X3X3X6X7X7X6Xs.j     ",
"gXgXgXgXgXgXgXgXgXgXgX    = M i.2X7X7X7X8X8X6X5X4X5X3X5X3X3X1X,X%X#XXXoXW.G.7.F z 9 4 2 * X       gXgXgXgXX % j G ).7X7X7X3X5X7X7X<X].r.D 3     ",
"gXgXgXgXgXgXgXgXgXgX  O : n 1.{.6X7X7X7X6X6X7X6X5X6X6X6X6X1X#X|.XX%X1X3X;X$X'.l.d.t.} C e *     o X       6 F s._.<X7X7X5X3X7X7X7X).G j < gXgXgX",
"gXgXgXgXgXgXgXgXgX    * d X.H.=X6X7X7X6X6X6X6X6X6X6X7X7X6X-X|.Q.|.-X6X7X6X6X7X7X6X-XD.O.f =               z g.6X7X7X6X3X3X6X7X7X6Xs.j     gXgXgX",
"gXgXgXgXgXgXgXgXgX    : C b.@X4X6X8X6X4X3X5X6X6X6X6X7X7X6X1X.X|.XX3X7X7X7X7X7X7X6X#Xn.W e *         X % j <._.7X7X7X5X5X7X7X<X_.r.S ,   gXgXgXgX",
"gXgXgXgXgXgXgXgXgX    4 _ F.;X4X7X8X5X3X3X5X6X6X6X6X7X6X6X4X-X%X-X5X7X7X7X7X6X2X!.w.C 4 $ .         , S s.].<X7X7X6X6X7X7X7X).G j % . gXgXgXgXgX",
"gXgXgXgXgXgXgXgXgX    4 ) P.2X6X7X6X6X6X6X6X6X6X6X6X6X6X6X6X6X6X6X6X6X7X7X6X*XD...f =               z k.6X7X7X6X<X3X6X7X7X6Xs.j     gXgXgXgXgXgX",
"gXgXgXgXgXgXgXgXgX    r 1.XX6X6X5X5X7X7X7X6X6X6X6X6X7X7X7X7X8X7X6X6X3X#Xl.3.] m e : @         + 6 D 3.}.7X7X6X5X5X6X6X,X_.3.D 6   gXgXgXgXgXgXgX",
"gXgXgXgXgXgXgXgXgX    j t.3X7X7X3X3X8X7X7X7X6X6X6X6X7X6X7X7X8X7X7X6X*Xh.S 6 # + O + .         8 <.}.7X7X7X6X5X6X7X7X6Xl.D 9 # gXgXgXgXgXgXgXgXgX",
"gXgXgXgXgXgXgXgXgX    j r.6X7X7X6X5X4X7X6X6X6X6X6X6X6X6X6X7X6X6X6X;XP.} r         X X         l g.6X7X7X6X3X3X6X7X7X6Xs.j     gXgXgXgXgXgXgXgXgX",
"gXgXgXgXgXgXgXgX    = B g.7X0XeXtXyXx.s.g.}.6X7X7X6X5X1X-X$X.X'.P.H.c.' s - # $ - * +         j 1.l.}.5X7X7X5X6X7X7X6Xg.B $   gXgXgXgXgXgXgXgXgX",
"gXgXgXgXgXgXgX  O : h { U.7XtXpXdXiXL 8 B d.4X7X7X6X3X&X|.G.n.9.%.+.....) ) ( Z m q *     gXgXgX8 v <._.7X7X7X5X6X7X6X[.i.( s *   gXgXgXgXgXgXgX",
"gXgXgXgXgXgX    = d o.F.$X6XtXdXfXsXK   , 3.7X7X7X6X1X:XP.N.9...` ~ ..w.G.P.R.V.O.d *     gXgXgX    j 3.6X7X7X6X5X6X6X6X2XP.) 4     gXgXgXgXgXgX",
"gXgXgXgXgXgX    1 Q D.;X4X6XrXaXsXuXJ . t d.7X7X7X6X1X$X|.G.n.q.8.8.w.G. X@XOXT.&.n =     gXgXgXgX  , S r._.<X7X7X7X6X7X7X4XJ.] y - X gXgXgXgXgX",
"gXgXgXgXgXgX    7 1.*X7X7X7Xx.P K J 0 i [ {.7X7X7X6X3X1X-X$X.X'.'.'..XXXXX!.~.C.X.f =     gXgXgXgXgX. % j G l.7X7X7X6X6X7X6X1XU.6.V >     gXgXgX",
"gXgXgXgXgXgX    j 2.6X7X7X7Xa.8   . i O.H.-X6X7X7X6X6X6X6X6X6X6X6X7X6X3XXXP.F.m.O.b ;     gXgXgXgXgXgX    j r.6X7X7X6X5X6X6X6X2XE.) 4     gXgXgX",
"gXgXgXgXgXgX    j s.7X7X7X6Xd.v 3 u | (.^.^.oX=X3X6X7X7X7X7X7X7X7X7X7X5X%X.XQ.H.9.V 1     gXgXgXgXgXgXgX  3 S 3.).>X6X7X7X6X%XI.7.B 1     gXgXgX",
"gXgXgXgXgXgX    j s.7X7X7X6X].d.2.p./.qXqX:.;.C.+X6X7X7X7X6X7X7X7X7X7X7X5X1X2X=XG.( 4 o   gXgXgXgXgXgXgXgXgXX , D j.6X7X7X2Xh.( y > X gXgXgXgXgX",
"gXgXgXgXgXgX    j s.6X7X7X6X8X8X6X9XwXqX,.T Y =.!.6X7X7X6X5X6X6X6X6X6X6X6X6X6X1XP.) 4     gXgXgXgXgXgXgXgXgX    j s.6X7X7XP._ 4     gXgXgXgXgXgX",
"gXgXgXgXgXgX    j r.6X7X7X6X8X8X7X9XwX,.R U I *.R.7X7X7X6X4X4X6X6X6X6X7X6X6X4X;XG._ 4     gXgXgXgXgXgXgXgXgXX 6 H l.6X6XI.} x -   gXgXgXgXgXgXgX",
"gXgXgXgXgXgX    t 6.2X7X7X6X8X7X7X:X(.>.U U I *.!.7X7X7X6X4X4X6X6X7X7X6X3X-X+XR.n.V ;     gXgXgXgXgXgXgX  6 D a.}.4X2XJ.( r @ . gXgXgXgXgXgXgXgX",
"gXgXgXgXgXgX    4 ) Q.2X4X6X7X7X6XoX;.Y I I Y ;.oX6X7X7X6X6X6X6X7X7X6X3X$XE.F.m.X.f ;     gXgXgXgXgXgX    j s.6X7X7XP.( 4     gXgXgXgXgXgXgXgXgX",
"gXgXgXgXgXgXgX  - x ) h..X6X7X7X6XXXC.-.*.=.;.T. X%X5X6X6X6X6X6X6X3X-X|.D.c.$.o.^ N x t 9 < gXgXgXgX. * y <._.7X6XU.( q @     gXgXgXgXgXgXgXgXgX",
"gXgXgXgXgXgXgXgX  # 4 A u.2X7X7X7X1XXXW.R.oXOXoXW.|.#X1X6X7X7X6X1X-X|.G.0...~ / ! ' @.6.] k .       1 B 7.|.2X;XS.A -         gXgXgXgXgXgXgXgXgX",
"gXgXgXgXgXgXgXgXgX    4 ) Q.2X6X6X6X6X6X6X7X6X-X|.P. X-X6X7X7X6X2X$XP.N.0...~ ! ..m.Q.P.6.k         t } E.;X;XE.[ t         X gXgXgXgXgXgXgXgXgX",
"gXgXgXgXgXgXgXgXgXgX  > M } M.I.=X4X7X7X7X7X7X3XXX|.XX1X6X7X7X6X4X-X.XD.n.y.q.i.A.W.@XW.#.y         t ( 7.G.W.G.5.v > - 1 q q - gXgXgXgXgXgXgXgX",
"gXgXgXgXgXgXgXgXgXgXgXX - r m O.F.=X6X7X8X5X1X$X%X1X1X4X6X7X7X7X6X3X%XXX'.'.#X&X%X;XoXm.C 1     gXgXgX> 8 A e.L.L.e.] ) ' ' b ;     gXgXgXgXgXgX",
"gXgXgXgXgXgXgXgXgXgXgXgX    = g ..P.1X6X3XXXQ.I.%X6X7X7X6X6X6X6X6X6X6X6X6X6X7X7X6X-XH...d *     gXgXgX    7 ) E.=X+XE.D.m.+.b ;     gXgXgXgXgXgX",
"gXgXgXgXgXgXgXgXgXgXgXgX    . & p { [.4X2XP.m.A.$X7X7X7X6X4X2X3X4X6X7X7X7X7X7X6X1XL.0.~ n e q 4 gXgXgX  O q ) Y.;X;XOXH.%.C w @     gXgXgXgXgXgX",
"gXgXgXgXgXgXgXgXgXgXgXgXo       @ S `.6X2XD.%.y.'.7X7X7X6X1X*X$X-X3X7X7X7X7X1X[.A.9...~ ~ ~ _ m 1     : p C +.B.~.~.T.@.m 2 @   gXgXgXgXgXgXgXgX",
"gXgXgXgXgXgXgXgXgXgXgXgXX         v ).6X;XN.O.8.I.6X7X7X6X%X|.P.|.-X6X7X7X6X.Xy.O.~ ~ O.&.v...b $   $ b ..&.%...$.0...m ;     gXgXgXgXgXgXgXgXgX",
"gXgXgXgXgXgXgXgXgXgXgXgXX .     $ S _.6X-Xn...+.L.6X7X7X7X$XG.N.D.'.-X3X1X'.y...^ ~ +.0.9.' N i 1 2 m +.b.v.! b p d a q *   gXgXgXgXgXgXgXgXgXgX",
"gXgXgXgXgXgXgXgXgXgXgXgX    . & d 6.#X6X$Xy...@.I.5X7X7X7X#XM.0.c.D.|.|.J.w.O.^ ~ $.B.A.{ c ; * q E %.b.b...a = + @ = * @ gXgXgXgXgXgXgXgXgXgXgX",
"gXgXgXgXgXgXgXgXgXgXgXgX    * d +.Q.4X6X[.y.O.9.I.6X7X7X6X'.q...%.N.E.H.c...! ^ ..m.W.P.1.6   O a ..b.v...N 1         o gXgXgXgXgXgXgXgXgXgXgXgX",
"gXgXgXgXgXgXgXgXgXgXgXgX    : E B.;X7X7X'.9. .%.{.7X7X7X1XG.+.~ +.A.|.L.n.X. ...0.H.+X|.e.x - = i E _ E b w -         gXgXgXgXgXgXgXgXgXgXgXgXgX",
"gXgXgXgXgXgXgXgXgXgXgXgX    4 _ P.4X7X7X{.@.~ %.'.7X7X7XXXn. .~ @.L.-X*XG.c.0.c.A.P. X|.A.#.C p w 4 1 ; ; - @ gXgXgXgXgXgXgXgXgXgXgXgXgXgXgXgXgX",
"gXgXgXgXgXgXgXgXgXgXgXgX    4 ) P.6X7X6X'.q.O.w.[.6X7X1XP.w.X...y.#X6X6X*XE.G.G.P.E.E.P.H.m.O.m :         X gXgXgXgXgXgXgXgXgXgXgXgXgXgXgXgXgXgX",
"gXgXgXgXgXgXgXgXgXgXgXgX    4 ) P.2X4X3XXXJ.M.M.J.'.|.E.G.m.n.n.U.,X7X7X5X-XXX|.|. XW.F.n.O.E p ;         gXgXgXgXgXgXgXgXgXgXgXgXgXgXgXgXgXgXgX",
"gXgXgXgXgXgXgXgXgXgXgXgX    1 Q V.OX+XXX%X%X#XU.y.9.9.m.G.P.P..X%X5X7X7X6X4X-X#XE.W.Q.B.` b 2 * . gXgXgXgXgXgXgXgXgXgXgXgXgXgXgXgXgXgXgXgXgXgXgX",
"gXgXgXgXgXgXgXgXgXgXgXgX    = b ..b.D.P.%X6X6X.Xy.O...c.E.*X3X6X7X6X6X6X7X6X3XXXP.F.b.O.b ;     gXgXgXgXgXgXgXgXgXgXgXgXgXgXgXgXgXgXgXgXgXgXgXgX",
"gXgXgXgXgXgXgXgXgXgXgXgXgX  + 2 d W %.F.=X6X6X>XJ.n.n.H.$X3X7X7X6X4X3X3X6X6X3X=XF.9.' d 2 $   gXgXgXgXgXgXgXgXgXgXgXgXgXgXgXgXgXgXgXgXgXgXgXgXgX",
"gXgXgXgXgXgXgXgXgXgXgXgXgXgX  . - i ~ m.!.=X1X1X%X$X%X1X5X6X7X7X4X%XXX$X1X4X2XOXm.' i ; X   gXgXgXgXgXgXgXgXgXgXgXgXgXgXgXgXgXgXgXgXgXgXgXgXgXgX",
"gXgXgXgXgXgXgXgXgXgXgXgXgXgXgX    ; b ..b.F.P.XX3X6X6X6X6X6X7X6X1X.XP.P.P.P.H.B...f =     gXgXgXgXgXgXgXgXgXgXgXgXgXgXgXgXgXgXgXgXgXgXgXgXgXgXgX",
"gXgXgXgXgXgXgXgXgXgXgXgXgXgXgXgX  @ : p N ..w.D.E.#X,X1X1X$X[.'.P.H.F.n.@.) Z N b w *   gXgXgXgXgXgXgXgXgXgXgXgXgXgXgXgXgXgXgXgXgXgXgXgXgXgXgXgX",
"gXgXgXgXgXgXgXgXgXgXgXgXgXgXgXgXgXgX  . : f  .&.0.q.S.I.'.J.y.q.c.B.m.O.m 4 - - ; * + gXgXgXgXgXgXgXgXgXgXgXgXgXgXgXgXgXgXgXgXgXgXgXgXgXgXgXgXgX",
"gXgXgXgXgXgXgXgXgXgXgXgXgXgXgXgXgXgX    ; m X.&.X.X.q.G.P.G.9.O.X.$...C 1           gXgXgXgXgXgXgXgXgXgXgXgXgXgXgXgXgXgXgXgXgXgXgXgXgXgXgXgXgXgX",
"gXgXgXgXgXgXgXgXgXgXgXgXgXgXgXgXgX$ < t A 6.D.Y.V.N.H. X=X:XH.v. .Q b w *         o gXgXgXgXgXgXgXgXgXgXgXgXgXgXgXgXgXgXgXgXgXgXgXgXgXgXgXgXgXgX",
"gXgXgXgXgXgXgXgXgXgXgXgXgXgXgX    3 A e.I.-X4X4X4X2X4X6X7X6X;XY.O.a - .   gXgXgXgXgXgXgXgXgXgXgXgXgXgXgXgXgXgXgXgXgXgXgXgXgXgXgXgXgXgXgXgXgXgXgX",
"gXgXgXgXgXgXgXgXgXgXgXgXgXgXgX    4 ) E.4X4X7X8X6X6X6X8X6X6X2XE.) 4     gXgXgXgXgXgXgXgXgXgXgXgXgXgXgXgXgXgXgXgXgXgXgXgXgXgXgXgXgXgXgXgXgXgXgXgX",
"gXgXgXgXgXgXgXgXgXgXgXgXgXgXgX    4 A 7.S.h.j.j.j.j.j.d.d.f.t.1.A 4   gXgXgXgXgXgXgXgXgXgXgXgXgXgXgXgXgXgXgXgXgXgXgXgXgXgXgXgXgXgXgXgXgXgXgXgXgX",
"gXgXgXgXgXgXgXgXgXgXgXgXgXgXgXgXgX; r k c l l l l l l l z j y r 6 < gXgXgXgXgXgXgXgXgXgXgXgXgXgXgXgXgXgXgXgXgXgXgXgXgXgXgXgXgXgXgXgXgXgXgXgXgXgX",
"gXgXgXgXgXgXgXgXgXgXgXgXgXgXgXgXgXgX                              gXgXgXgXgXgXgXgXgXgXgXgXgXgXgXgXgXgXgXgXgXgXgXgXgXgXgXgXgXgXgXgXgXgXgXgXgXgXgX",
"gXgXgXgXgXgXgXgXgXgXgXgXgXgXgXgXgXgX                              gXgXgXgXgXgXgXgXgXgXgXgXgXgXgXgXgXgXgXgXgXgXgXgXgXgXgXgXgXgXgXgXgXgXgXgXgXgXgX"
};
