/* XPM */
static char *_829758677_16756723941675672399[] = {
/* columns rows colors chars-per-pixel */
"72 72 224 2 ",
"   c #000000",
".  c #0C0300",
"X  c #0B0900",
"o  c #140400",
"O  c #150B00",
"+  c #1B0E00",
"@  c #131400",
"#  c #1C1300",
"$  c #1D1D00",
"%  c #241400",
"&  c #241C00",
"*  c #2B1B00",
"=  c #291500",
"-  c #361901",
";  c #1F2100",
":  c #222300",
">  c #2C2200",
",  c #2D2B00",
"<  c #272900",
"1  c #342300",
"2  c #3A2500",
"3  c #322C00",
"4  c #3A2C00",
"5  c #333300",
"6  c #3C3300",
"7  c #3C3D00",
"8  c #2F3200",
"9  c #240B25",
"0  c #442B00",
"q  c #442800",
"w  c #542A00",
"e  c #433400",
"r  c #4A3400",
"t  c #443C00",
"y  c #4B3D00",
"u  c #4B310D",
"i  c #523500",
"p  c #5B3400",
"a  c #5D3B00",
"s  c #523B00",
"d  c #623B01",
"f  c #653A00",
"g  c #444300",
"h  c #4B4A00",
"j  c #4D4300",
"k  c #554300",
"l  c #594400",
"z  c #554D00",
"x  c #595500",
"c  c #535500",
"v  c #654200",
"b  c #6E4600",
"n  c #6C4A00",
"m  c #664C00",
"M  c #744A00",
"N  c #794B00",
"B  c #645400",
"V  c #6B5400",
"C  c #605D00",
"Z  c #7D5400",
"A  c #7D5B00",
"S  c #755700",
"D  c #666300",
"F  c #6C6700",
"G  c #6C6D00",
"H  c #756800",
"J  c #747400",
"K  c #7A7A00",
"L  c #787700",
"P  c #6F7100",
"I  c #140B4F",
"U  c #2F3061",
"Y  c #656A50",
"T  c #CF1A00",
"R  c #D20717",
"E  c #D73F00",
"W  c #E12F31",
"Q  c #825600",
"!  c #815D01",
"~  c #8B5C00",
"^  c #995C00",
"/  c #955B00",
"(  c #846400",
")  c #8A6600",
"_  c #846A00",
"`  c #8B6E00",
"'  c #936300",
"]  c #9B6300",
"[  c #966B00",
"{  c #8B7300",
"}  c #827100",
"|  c #9B7600",
" . c #947B00",
".. c #9C7B00",
"X. c #937200",
"o. c #98601D",
"O. c #A66E00",
"+. c #AC6D00",
"@. c #A26700",
"#. c #AD7B00",
"$. c #A87400",
"%. c #B27C00",
"&. c #B67700",
"*. c #D95A00",
"=. c #DC6500",
"-. c #DE7100",
";. c #E47C00",
":. c #F1781D",
">. c #E34024",
",. c #F25B4D",
"<. c #7B8100",
"1. c #8A8800",
"2. c #968400",
"3. c #9B9500",
"4. c #9D9900",
"5. c #AC8400",
"6. c #A58D00",
"7. c #AB8C00",
"8. c #A48400",
"9. c #B58300",
"0. c #BC8400",
"q. c #B58A00",
"w. c #BA8C00",
"e. c #AD9300",
"r. c #A39E00",
"t. c #A89A00",
"y. c #BC9300",
"u. c #B69B00",
"i. c #BB9B00",
"p. c #B29600",
"a. c #B0911D",
"s. c #A3A300",
"d. c #AAAB00",
"f. c #ADA000",
"g. c #B5AD00",
"h. c #B3A300",
"j. c #B2B100",
"k. c #B9B900",
"l. c #B6B626",
"z. c #C38D00",
"x. c #CC8D00",
"c. c #C48400",
"v. c #D18B00",
"b. c #C59300",
"n. c #CC9300",
"m. c #C59A00",
"M. c #CB9D00",
"N. c #D19600",
"B. c #D39B00",
"V. c #DB9C00",
"C. c #E49D00",
"Z. c #EF851E",
"A. c #CDA400",
"S. c #C6A800",
"D. c #D5A400",
"F. c #DAA500",
"G. c #D4AB00",
"H. c #DBAB00",
"J. c #C4BF00",
"K. c #CAB400",
"L. c #D1B300",
"P. c #DFB700",
"I. c #DCBB00",
"U. c #D4BD00",
"Y. c #E3AD00",
"T. c #E9A700",
"R. c #E4B500",
"E. c #EBB400",
"W. c #E4BC00",
"Q. c #ECBC00",
"!. c #F6B902",
"~. c #FFAE1D",
"^. c #F08E31",
"/. c #DA993E",
"(. c #C2C200",
"). c #CCC900",
"_. c #DDC400",
"`. c #D2CD00",
"'. c #DECA00",
"]. c #D3C400",
"[. c #D6D500",
"{. c #E4C200",
"}. c #ECC300",
"|. c #E3CB00",
" X c #EBCB00",
".X c #F3C200",
"XX c #F3CC00",
"oX c #FECB00",
"OX c #E6D200",
"+X c #EDD300",
"@X c #EDDB00",
"#X c #E2DB00",
"$X c #F2D500",
"%X c #FED300",
"&X c #F3DC00",
"*X c #FEDD00",
"=X c #F9CB10",
"-X c #E6E300",
";X c #EDE400",
":X c #EDEC00",
">X c #F4E300",
",X c #FEE500",
"<X c #F5EC00",
"1X c #FCEC00",
"2X c #F6F300",
"3X c #FEF600",
"4X c #FFFE00",
"5X c #F7FD00",
"6X c #FFDB24",
"7X c #FFFF26",
"8X c #FD9056",
"9X c #FEAB47",
"0X c #FFFF4F",
"qX c #EDEF4F",
"wX c #FFFF61",
"eX c #D6D64F",
"rX c #524EA8",
"tX c #B0B1AA",
"yX c #FFFFA9",
"uX c #D3D7A8",
"iX c #9C9DCF",
"pX c #FFFFCF",
"aX c white",
"sX c None",
/* pixels */
"sXsXsXsXsXsXsXsXsXsXsXsXsXsXsXsXsXsXsXsXsXsXsXsXsXsXsXsXsXsXsXsXsXsXsXsXsXsXsXsXsXsXsXsXsXsXsXsXsXsXsXsXsXsXsXsXsXsXsXsXsXsXsXsXsXsXsXsXsXsXsXsX",
"sXsXsXsXsXsXsXsXsXsXsXsXsXsXsXsXsXsXsXsXsXsXsXsXsXsXsXsXsXsXsXsXsXsXsXsXsXsXsXsXsXsXsXsXsXsXsXsXsXsXsXsXsXsXsXsXsXsXsXsXsXsXsXsXsXsXsXsXsXsXsXsX",
"sXsXsXsXsXsXsXsXsXsXsXsXsXsXsXsXsXsXsXsXsXsXsXsXsXsXsXsXsXsXsXsXsXsXsXsXsXsXsXsXsXsXsXsXsXsXsXsXsXsXsXsXsXsXsXsXsXsXsXsXsXsXsXsXsXsXsXsXsXsXsXsX",
"sXsXsXsXsXsXsXsXsXsXsXsXsXsXsXsXsXsXsXsXsXsXsXsXsXsXsXsXsXsXsXsXsXsXsXsXsXsXsXsXsXsXsXsXsXsXsXsXsXsXsXsXsXsXsXsXsXsXsXsXsXsXsXsXsXsXsXsXsXsXsXsX",
"sXsXsXsXsXsXsXsXsXsXsXsXsXsXsXsXsXsXsXsXsXsXsXsXsXsXsXsXsXsXsXsXsXsXsXsXsXsXsXsXsXsXsXsXsXsXsXsXsXsXsXsXsXsXsXsXsXsXsXsXsXsXsXsXsXsXsXsXsXsXsXsX",
"sXsXsXsXsXsXsXsXsXsXsXsXsXsXsXsXsXsXsXsXsXsXsXsXsXsXsXsXsXsXsXsXsXsXsXsXsXsXsXsXsXsXsXsXsXsXsXsXsXsXsXsXsXsXsXsXsXsXsXsXsXsXsXsXsXsXsXsXsXsXsXsX",
"sXsXsXsXsXsXsXsXsXsXsXsXsXsXsXsXsXsXsXsXsXsXsXsXsXsXsX                      sXsXsXsXsXsXsXsXsXsXsXsXsXsXsXsXsXsXsXsXsXsXsXsXsXsXsXsXsXsXsXsXsXsX",
"sXsXsXsXsXsXsXsXsXsXsXsXsXsXsXsXsXsXsXsXsXsXsXsXsXsXsX                        sXsXsXsXsXsXsXsXsXsXsXsXsXsXsXsXsXsXsXsXsXsXsXsXsXsXsXsXsXsXsXsXsX",
"sXsXsXsXsXsXsXsXsXsXsXsXsXsXsXsXsXsXsXsXsXsXsXsXsXsXsXsX              X # * * % sXsXsXsXsXsXsXsXsXsXsXsXsXsXsXsXsXsXsXsXsXsXsXsXsXsXsXsXsXsXsXsX",
"sXsXsXsXsXsXsXsXsXsXsXsXsXsXsXsXsXsXsXsXsXsXsXsXsXsXsXsXsX            * i v a 1         sXsXsXsXsXsXsXsXsXsXsXsXsXsXsXsXsXsXsXsXsXsXsXsXsXsXsXsX",
"sXsXsXsXsXsXsXsXsXsXsXsXsXsXsXsXsXsXsXsXsXsXsXsXsXsXsXsXsXsXX         0 ~ O.~ 0           sXsXsXsXsXsXsXsXsXsXsXsXsXsXsXsXsXsXsXsXsXsXsXsXsXsXsX",
"sXsXsXsXsXsXsXsXsXsXsXsXsXsXsXsXsXsXsXsXsXsXsXsXsXsXsXsXsXsXsX        0 ] x.c.) k 6 t j y 3 sXsXsXsXsXsXsXsXsXsXsXsXsXsXsXsXsXsXsXsXsXsXsXsXsXsX",
"sXsXsXsXsXsX      sXsXsXsXsXsXsXsXsXsXsXsX                sXsXsXsX    2 ~ x.C.m.e.e.i.e._ t X sXsXsXsXsXsXsXsXsXsXsXsXsXsXsXsXsXsXsXsXsXsXsXsXsX",
"sXsXsXsXsXsX      sXsXsXsXsXsXsXsXsXsXsXsX                  sXsXsX    % f O.n.D.R.XX%XR.{ 6     sXsXsXsXsXsXsXsXsXsXsXsXsXsXsXsXsXsXsXsXsXsXsXsX",
"sXsXsXsXsX, t g 7 , sXsXsXsXsXsXsXsXsXsXsX                  sXsXsXsXX % 0 l A X.7.i.S.8.V >       sXsXsXsXsXsXsXsXsXsXsXsXsXsXsXsXsXsXsXsXsXsXsX",
"sXsXsXsX  g 1.r.1.g   sXsXsXsXsXsXsXsXsXsXsXsX                  sXsXsXsX+ # & 1 6 t e 4 & X               sXsXsXsXsXsXsXsXsXsXsXsXsXsXsXsXsXsXsX",
"sXsXsX    x J.3X(.x     sXsXsXsXsXsXsXsXsXsXsXsX                  sXsXsX                                    sXsXsXsXsXsXsXsXsXsXsXsXsXsXsXsXsXsX",
"sXsXsX    c k.4X-X1.g # X sXsXsXsXsXsXsXsXsXsXsX          X # & * sXsXsX# # % # % $ : 8 7 h h z y 4 * * % + O sXsXsXsXsXsXsXsXsXsXsXsXsXsXsXsXsX",
"sXsXsX    h d.4X4X-Xs.D ,   sXsXsXsXsXsXsXsXsXsX          * r d i =   @ u m Z A ( { 2.4.d.j.j.t.2.{ ! N f q +   sXsXsXsXsXsXsXsXsXsXsXsXsXsXsXsX",
"sXsXsX    t 4.3X4X4X3X4.t     sXsXsXsXsXsXsXsXsXX         0 / O.Z *   O d O.x.F.P.OX<X3X4X4X3X<X+XR.F.x.O.v *     sXsXsXsXsXsXsXsXsXsXsXsXsXsXsX",
"sXsXsX    7 3.<X4X4X4Xk.L g & X sXsXsXsXsXsXsXsXsX        r $.B.w.H t r N &.C.XX1X4X4X4X4X4X4X3X3X,X*XoXH.$.m 4 # X sXsXsXsXsXsXsXsXsXsXsXsXsXsX",
"sXsXsX    g 3.<X4X4X4X-X).s.F 3   sXsXsXsXsXsXsXsXsX      e | P. XJ.4. .] +.x.|.4X4X4X4X4X3X4X4X3X3X3X1X&XI.u.{ l *   sXsXsXsXsXsXsXsXsXsXsXsXsX",
"sXsXsX    g r.3X4X4X3X4X4X3Xs.g     sXsXsXsXsXsXsXsXsX    4 ) R.3X4X3X_.q.O.9._.3X4X4X3X3X3X3X3X3X3X3X3X3X3X,XR.{ 4     sXsXsXsXsXsXsXsXsXsXsXsX",
"sXsXsX    g s.4X4X4X<X3X4X4X(.K g & X sXsXsXsXsXsXsXsX    4 ) P.1X4X4X#XK.y.m.U.>X<X3X2X<X<X2X2X2X3X5X5X4X4X4X,Xu.B *     sXsXsXsXsXsXsXsXsXsXsX",
"sXsXsX    g s.4X4X4X<X<X4X4X:X`.s.F ,   sXsXsXsXsXsXsX    1 Q N.%X3X4X2X-X|.I.I.{.+X<X2X3X3X3X2X3X3X4X5X4X4X4X3X]...f - o   sXsXsXsXsXsXsXsXsXsX",
"sXsXsX    g s.3X4X4X3X<X<X3X4X4X3Xr.g     sXsXsXsXsXsX    % f O.H.$X3X4X4X3X&X{.R.{.&X3X4X4X3X3X3X3X3X1X3X4X4X3X$XH.O.d =     sXsXsXsXsXsXsXsXsX",
"sXsXsXsX  , F s.`.:X4X4X<X<X4X4X4X(.K g : X sXsXsXsXsXsX  o - a | L.1X4X4X4X;X|.{.|.>X3X4X4X3X3X3X3X1X1X2X3X5X3X,XoXx.Q 1     sXsXsXsXsXsXsXsXsX",
"sXsXsXsXsXX & g K (.4X4X4X<X2X4X4X:X`.s.F 3   sXsXsXsXsXsXsX  + l p.,X4X4X4X<X>X&X&X1X3X4X3X3X3X3X3X2X<X2X2X5X3X3X*XF.) 2     sXsXsXsXsXsXsXsXsX",
"sXsXsXsXsXsX    g s.3X4X4X3X<X<X3X4X4X3Xs.g     sXsXsXsXsXsX    4 { P.,X3X3X3X4X3X3X3X3X3X4X3X3X3X4X3X3X3X3X5X3X3X,XP.` 4     sXsXsXsXsXsXsXsXsX",
"sXsXsXsXsXsXsX  , F r.`.:X4X4X2X2X4X4X4X(.K g & X sXsXsXsXsX@ % 1 a _ i.'.>X3X4X4X3X4X3X3X3X3X3X3X3X3X4X4X3X2X3X3X3X X2.e     sXsXsXsXsXsXsXsXsX",
"sXsXsXsXsXsXsXsXX $ t K (.4X4X4X3X2X4X4X:X).r.P 6         4 v v r = & z t.+X3X4X4X5X4X3X3X3X3X3X3X3X4X4X4X5X<X<X4X4X<Xt.g     sXsXsXsXsXsXsXsXsX",
"sXsXsXsXsXsXsXsXsX    g s.3X4X4X3X<X<X3X4X4X3Xg.z         r ' $.N %   > ` R.,X3X3X5X3X3X3X3X4X3X3X3X3X3X3X3X2X3X4X4X3Xr.g     sXsXsXsXsXsXsXsXsX",
"sXsXsXsXsXsXsXsXsXsX  5 G r.).;X3X3X1X2X4X4X4X[.3.x $     q ] c.O.k > 4 ! z.R.XX&X<X3X3X3X3X3X4X4X3X[.g.r.l.eXwX0X7X4Xg.V * .   sXsXsXsXsXsXsXsX",
"sXsXsXsXsXsXsXsXsXsXsXsX@ 5 G k.3X4X4X3X2X5X4X4X<X(.J :   = M %.b.8.{ _ [ O.0.D.{.&X1X3X3X2X3X4X4X3Xg.C 7 Y tXpXyX0X3XU...f - o   sXsXsXsXsXsXsX",
"sXsXsXsXsXsXsXsXsXsXsXsX    g r.3X4X4X3X<X<X3X4X4X3Xs.7   . w O.V.E.R.A.9.O.+.b.P.+X1X3X3X2X3X4X4X3Xr.,   U iXaXpXwX2X+XF.+.f =     sXsXsXsXsXsX",
"sXsXsXsXsXsXsXsXsXsXsXsX  % x g.3X4X4X2X1X5X4X4X<X(.L ,   o w ] B..XoX}.A.y.y.G.{.&X1X3X3X2X3X4X4X4Xf.y . I rXiXuXqX3X1X=XD.! 1     sXsXsXsXsXsX",
"sXsXsXsXsXsXsXsXsXsX  % i ( p.'.3X4X3X2X4X4X4X[.3.x ;     % d @.x.E.Q. X X|.'.+X&X1X2X3X3X2X3X4X4X4X]. .i 9 I U Y l.3X4X4X$X2.6     sXsXsXsXsXsX",
"sXsXsXsXsXsXsXsXsX    4 { P.,X3X3X5X2X3X4X4X3Xg.h         1 b O.x.D.R.OX>X3X4X4X3X3X3X3X3X3X3X4X4X3X*XH.O.w .   g 4.3X4X4X3X4.g     sXsXsXsXsXsX",
"sXsXsXsXsXsXsXsX. & y } K.,X4X4X3X4X4X4X-X).r.P 7         2 Z q.D.P.{.@X2X4X4X4X4X4X3X3X3X3X3X1X=X}.~.~.^.o.t , C d.3X4X4X4Xs.g     sXsXsXsXsXsX",
"sXsXsXsXsXsX    1 V 7.U.>X3X4X3X3X4X4X4X(.L t > sXsXsX  X 4 ( M..X$X@X<X3X4X4X4X4X3X3X3X4X4X3XXXT.;.:.^.8X/.a.3.d.`.3X4X4X4Xs.g     sXsXsXsXsXsX",
"sXsXsXsXsXsX    4 { P.,X3X3X2X2X3X4X4X3Xr.g     sXsXsX    4 ` P.,X3X3X3X3X3X3X3X3X3X3X3X4X4X3XQ.-.E W ,.8X9X6X3X5X5X3X4X4X3Xs.g     sXsXsXsXsXsX",
"sXsXsXsXsXsX    1 V 7.I.&X3X4X4X3X-X(.4.D 3   sXsXsXsX    6  .}.3X4X4X5X4X4X4X3X3X3X1X3X4X4X4XE.*.T R W ,.9X6X4X4X5X3X4X4X1Xt.g     sXsXsXsXsXsX",
"sXsXsXsXsXsXsXsXX * j _ g.,X4X4X3Xj.D , X sXsXsXsXsXsX    6  . X3X4X4X5X5X4X4X3X3X3X1X3X4X4X4XQ.*.T R R >.^.=X4X4X5X5X4X4X,X6.t     sXsXsXsXsXsX",
"sXsXsXsXsXsXsXsXsX    1 ) R.4X4X3Xs.g     sXsXsXsXsXsX    4 ` R.,X3X3X3X3X3X3X3X3X3X3X3X4X4X3X.X;.E T T E ;..X3X4X4X2X3X,XP.` 4     sXsXsXsXsXsX",
"sXsXsXsXsXsXsXsXsXsX  & l ..I.1X3X(.P 5 X sXsXsXsXsX@ 3 t V | m.}.>X>X&XOX_.|.>X3X3X3X3X3X5X>XXXC.;.=.*.-.C. X3X4X4X3X'.u.` k &   sXsXsXsXsXsXsX",
"sXsXsXsXsXsXsXsXsXsXsX. + e _ K.,X,X`.s.P 7         t H 8.5.#.#.n.{.+XW.b.q.m.|.3X4X4X3X>X+X|.}..X.X!.!.E.XX>X4X4X4X*Xp.B >   sXsXsXsXsXsXsXsXsX",
"sXsXsXsXsXsXsXsXsXsXsXsX    1 _ R.4X4X3Xd.c         k 6.P.R.c.O.%.D.P.M.%.O.w.'.3X4X4X3X&X{.P.{.>X3X3X3X3X5X2X3X3X,XR.{ 4     sXsXsXsXsXsXsXsXsX",
"sXsXsXsXsXsXsXsXsXsXsXsX    # 0 _ K.3X4X[.3.y .     t 8.R.!.B.%.#.y.m.b.9.q.A.|.3X4X4X4X@XP.H.P.@X4X4X4X4X3X@X_.L.i. .m u % O . sXsXsXsXsXsXsXsX",
"sXsXsXsXsXsXsXsXsXsXsXsX        * H S.*X,XXX7.k @   * ! n.Y.Y.m.w.%.9.w.A._.+X<X3X4X4X4X@XP.G.I.@X4X4X4X4X>XI.q.! s e y b N d *   sXsXsXsXsXsXsX",
"sXsXsXsXsXsXsXsXsXsXsXsXX         e  .P.*X*XP.} ,   o p $.B.W.P.m.%.O.w.'.3X4X4X3X3X4X3X&X{.R.{.&X3X4X4X3X$XD.O.p o   > Q O.Q 4     sXsXsXsXsXsX",
"sXsXsXsXsXsXsXsXsXsXsX* q r 1 > , z 2.G.}.R.e.B >   o w ^ n.Q. XG.%.] q.'.4X4X4X3X2X1X1X>X X X+X&X3X4X4X3X*XQ.c.M %   # a Q n 1     sXsXsXsXsXsX",
"sXsXsXsXsXsXsXsXsX    * f ) [ _ { e.G.P.i._ t @     = p ^ n.}. XG.%.O.q.'.4X4X4X3X>X&X$X&X&X>X1X<X3X4X4X3X3X%XH.[ 1     # 2 0 * sXsXsXsXsXsXsXsX",
"sXsXsXsXsXsXsXsXsX    = v O.N.F.R.XX%XP...t         1 b O.B.R.R.m.%.O.w.'.3X4X4X3X&X{.P.W.&X3X4X3X3X3X2X3X3X*XR...e         X sXsXsXsXsXsXsXsXsX",
"sXsXsXsXsXsXsXsXsX    % 0 Z 9.F.oX*X%XH.| s .       4 Q q.B.F.m.%.O.@.q.P.>X4X4X4XOXA.z.A.OX4X4X4X3X3X3X>X@XU.6.B >         sXsXsXsXsXsXsXsXsXsX",
"sXsXsXsXsXsXsXsXsXsXsX  + 2 n #.T.!.E.n.%.~ a %     4 { B.Y.M.%.] ^ @.9.G.$X4X4X4X'.w.O.q.{.4X4X4X3X3X,X+Xg.{ k > X     sXsXsXsXsXsXsXsXsXsXsXsX",
"sXsXsXsXsXsXsXsXsXsXsXsX    * m +.&.&.O.&.c.O.f O   5  .P.Q.n.O./ ] +.%.m.R.&X4X3X|.w.O.q._.3X4X4X3X1X*XR...e         X sXsXsXsXsXsXsXsXsXsXsXsX",
"sXsXsXsXsXsXsXsXsXsXsXsXsX  % 0 f a p f ' c.v.@.d 0 B e.{..XB.%.O.%.9.q.0.z.D.I._.G.i.w.S.|.3X4X4X3X,XoXF.[ 4     . % - sXsXsXsXsXsXsXsXsXsXsXsX",
"sXsXsXsXsXsXsXsXsXsXsXsXsXsX+ % % # O * v O.v.c.@.~ | S.{.{.G.m.b.M.M.z.&.+.@.$.q.m.G.'.@X1X3X4X4X3X,X.Xn.Q *   O - f p - X sXsXsXsXsXsXsXsXsXsX",
"sXsXsXsXsXsXsXsXsXsXsXsXsXsXsXX         1 N $.&.+.O.9.M.R.{.I.P.W.W.P.A.q.$.^ ^ O.m.OX3X4X4X3X4X4X3X$XF.O.p o   > Q O.Q 2     sXsXsXsXsXsXsXsXsX",
"sXsXsXsXsXsXsXsXsXsXsXsXsXsXsXsX        & i v n M Z [ w.H.Q.}.}. X X}.I.A.y.9.#.q.K.@X4X4X3X2X4X4X4X]. .p - % e { H.Q.5.y     sXsXsXsXsXsXsXsXsX",
"sXsXsXsXsXsXsXsXsXsXsXsXsXsXsXsXsXsXsXsX# * * & % 2 v O.N.E.Q.{.{.{.{.{.'.'._.U._.#X<X4X5X2X2X4X4X4Xj.z O o q X.{.4X5Xd.h     sXsXsXsXsXsXsXsXsX",
"sXsXsXsXsXsXsXsXsXsXsXsXsXsXsXsXsXsXsXsXsX          * b O.n.H.R.P.P.P.{.>X3X4X4X3X3X3X3X2X1X3X4X4X3Xs.5   # A R.4X4X3Xs.g     sXsXsXsXsXsXsXsXsX",
"sXsXsXsXsXsXsXsXsXsXsXsXsXsXsXsXsXsXsXsXsXsX        # q d ) z.F.R.Y.H.{.>X4X4X4X4X3X1X3X3X3X4X4X1X'. .6 > x j.3X4X-Xd.G 5   sXsXsXsXsXsXsXsXsXsX",
"sXsXsXsXsXsXsXsXsXsXsXsXsXsXsXsXsXsXsXsXsXsXsXsXsXsX  . * a [ n.C.V.N.H.+X3X4X4X3X,X,X,X3X4X4X;XU.q.' S _ h.<X5X[.1.h : X sXsXsXsXsXsXsXsXsXsXsX",
"sXsXsXsXsXsXsXsXsXsXsXsXsXsXsXsXsXsXsXsXsXsXsXsXsXsXsX    * n O.&.&.O.9.A.P.{.W.R.H.G.P.@X3X3X|.i.O.@.0.R.2X4X3Xs.h     sXsXsXsXsXsXsXsXsXsXsXsX",
"sXsXsXsXsXsXsXsXsXsXsXsXsXsXsXsXsXsXsXsXsXsXsXsXsXsXsXsX  % r v b f f M A _ { { ` ) ) { 2.3.s.e.9.c.Y.$X4X2X[.s.D ,   sXsXsXsXsXsXsXsXsXsXsXsXsX",
"sXsXsXsXsXsXsXsXsXsXsXsXsXsXsXsXsXsXsXsXsXsXsXsXsXsXsXsXsXO % * * % * * 1 4 4 4 1 4 4 4 3 8 g S 5.R.,X4X4X(.<.g ; X sXsXsXsXsXsXsXsXsXsXsXsXsXsX",
"sXsXsXsXsXsXsXsXsXsXsXsXsXsXsXsXsXsXsXsXsXsXsXsXsXsXsXsXsXsX                        X         4 ` R.3X4X3Xs.g     sXsXsXsXsXsXsXsXsXsXsXsXsXsXsX",
"sXsXsXsXsXsXsXsXsXsXsXsXsXsXsXsXsXsXsXsXsXsXsXsXsXsXsXsXsXsXsX                      X         6 S 2.t.g.s.J 7   sXsXsXsXsXsXsXsXsXsXsXsXsXsXsXsX",
"sXsXsXsXsXsXsXsXsXsXsXsXsXsXsXsXsXsXsXsXsXsXsXsXsXsXsXsXsXsXsXsXsXsXsXsXsXsXsXsXsXsXsXsXsXsXsXsX4 t g h g 7 < sXsXsXsXsXsXsXsXsXsXsXsXsXsXsXsXsX",
"sXsXsXsXsXsXsXsXsXsXsXsXsXsXsXsXsXsXsXsXsXsXsXsXsXsXsXsXsXsXsXsXsXsXsXsXsXsXsXsXsXsXsXsXsXsXsXsX            sXsXsXsXsXsXsXsXsXsXsXsXsXsXsXsXsXsX",
"sXsXsXsXsXsXsXsXsXsXsXsXsXsXsXsXsXsXsXsXsXsXsXsXsXsXsXsXsXsXsXsXsXsXsXsXsXsXsXsXsXsXsXsXsXsXsXsX            sXsXsXsXsXsXsXsXsXsXsXsXsXsXsXsXsXsX"
};
