/* XPM */
static char *_749206980_16756723931675672398[] = {
/* columns rows colors chars-per-pixel */
"72 72 224 2 ",
"   c #000000",
".  c #0C0300",
"X  c #0B0900",
"o  c #140400",
"O  c #150B00",
"+  c #1B0E00",
"@  c #131400",
"#  c #1C1300",
"$  c #1D1D00",
"%  c #241400",
"&  c #241C00",
"*  c #2B1B00",
"=  c #291500",
"-  c #361901",
";  c #1F2100",
":  c #222300",
">  c #2C2200",
",  c #2D2B00",
"<  c #272900",
"1  c #342300",
"2  c #3A2500",
"3  c #322C00",
"4  c #3A2C00",
"5  c #333300",
"6  c #3C3300",
"7  c #3C3D00",
"8  c #2F3200",
"9  c #240B25",
"0  c #442B00",
"q  c #442800",
"w  c #542A00",
"e  c #433400",
"r  c #4A3400",
"t  c #443C00",
"y  c #4B3D00",
"u  c #4B310D",
"i  c #523500",
"p  c #5B3400",
"a  c #5D3B00",
"s  c #523B00",
"d  c #623B01",
"f  c #653A00",
"g  c #444300",
"h  c #4B4A00",
"j  c #4D4300",
"k  c #554300",
"l  c #594400",
"z  c #554D00",
"x  c #595500",
"c  c #535500",
"v  c #654200",
"b  c #6E4600",
"n  c #6C4A00",
"m  c #664C00",
"M  c #744A00",
"N  c #794B00",
"B  c #645400",
"V  c #6B5400",
"C  c #605D00",
"Z  c #7D5400",
"A  c #7D5B00",
"S  c #755700",
"D  c #666300",
"F  c #6C6700",
"G  c #6C6D00",
"H  c #756800",
"J  c #747400",
"K  c #7A7A00",
"L  c #787700",
"P  c #6F7100",
"I  c #140B4F",
"U  c #2F3061",
"Y  c #656A50",
"T  c #CF1A00",
"R  c #D20717",
"E  c #D73F00",
"W  c #E12F31",
"Q  c #825600",
"!  c #815D01",
"~  c #8B5C00",
"^  c #995C00",
"/  c #955B00",
"(  c #846400",
")  c #8A6600",
"_  c #846A00",
"`  c #8B6E00",
"'  c #936300",
"]  c #9B6300",
"[  c #966B00",
"{  c #8B7300",
"}  c #827100",
"|  c #9B7600",
" . c #947B00",
".. c #9C7B00",
"X. c #937200",
"o. c #98601D",
"O. c #A66E00",
"+. c #AC6D00",
"@. c #A26700",
"#. c #AD7B00",
"$. c #A87400",
"%. c #B27C00",
"&. c #B67700",
"*. c #D95A00",
"=. c #DC6500",
"-. c #DE7100",
";. c #E47C00",
":. c #F1781D",
">. c #E34024",
",. c #F25B4D",
"<. c #7B8100",
"1. c #8A8800",
"2. c #968400",
"3. c #9B9500",
"4. c #9D9900",
"5. c #AC8400",
"6. c #A58D00",
"7. c #AB8C00",
"8. c #A48400",
"9. c #B58300",
"0. c #BC8400",
"q. c #B58A00",
"w. c #BA8C00",
"e. c #AD9300",
"r. c #A39E00",
"t. c #A89A00",
"y. c #BC9300",
"u. c #B69B00",
"i. c #BB9B00",
"p. c #B29600",
"a. c #B0911D",
"s. c #A3A300",
"d. c #AAAB00",
"f. c #ADA000",
"g. c #B5AD00",
"h. c #B3A300",
"j. c #B2B100",
"k. c #B9B900",
"l. c #B6B626",
"z. c #C38D00",
"x. c #CC8D00",
"c. c #C48400",
"v. c #D18B00",
"b. c #C59300",
"n. c #CC9300",
"m. c #C59A00",
"M. c #CB9D00",
"N. c #D19600",
"B. c #D39B00",
"V. c #DB9C00",
"C. c #E49D00",
"Z. c #EF851E",
"A. c #CDA400",
"S. c #C6A800",
"D. c #D5A400",
"F. c #DAA500",
"G. c #D4AB00",
"H. c #DBAB00",
"J. c #C4BF00",
"K. c #CAB400",
"L. c #D1B300",
"P. c #DFB700",
"I. c #DCBB00",
"U. c #D4BD00",
"Y. c #E3AD00",
"T. c #E9A700",
"R. c #E4B500",
"E. c #EBB400",
"W. c #E4BC00",
"Q. c #ECBC00",
"!. c #F6B902",
"~. c #FFAE1D",
"^. c #F08E31",
"/. c #DA993E",
"(. c #C2C200",
"). c #CCC900",
"_. c #DDC400",
"`. c #D2CD00",
"'. c #DECA00",
"]. c #D3C400",
"[. c #D6D500",
"{. c #E4C200",
"}. c #ECC300",
"|. c #E3CB00",
" X c #EBCB00",
".X c #F3C200",
"XX c #F3CC00",
"oX c #FECB00",
"OX c #E6D200",
"+X c #EDD300",
"@X c #EDDB00",
"#X c #E2DB00",
"$X c #F2D500",
"%X c #FED300",
"&X c #F3DC00",
"*X c #FEDD00",
"=X c #F9CB10",
"-X c #E6E300",
";X c #EDE400",
":X c #EDEC00",
">X c #F4E300",
",X c #FEE500",
"<X c #F5EC00",
"1X c #FCEC00",
"2X c #F6F300",
"3X c #FEF600",
"4X c #FFFE00",
"5X c #F7FD00",
"6X c #FFDB24",
"7X c #FFFF26",
"8X c #FD9056",
"9X c #FEAB47",
"0X c #FFFF4F",
"qX c #EDEF4F",
"wX c #FFFF61",
"eX c #D6D64F",
"rX c #524EA8",
"tX c #B0B1AA",
"yX c #FFFFA9",
"uX c #D3D7A8",
"iX c #9C9DCF",
"pX c #FFFFCF",
"aX c white",
"sX c None",
/* pixels */
"sXsXsXsXsXsXsXsXsXsXsXsXsXsXsXsXsXsXsXsXsXsXsXsXsXsXsXsXsXsXsXsXsXsXsXsXsXsXsXsXsXsXsXsXsXsXsXsXsXsXsXsXsXsXsXsXsXsXsXsXsXsXsXsXsXsXsXsXsXsXsXsX",
"sXsXsXsXsXsXsXsXsXsXsXsXsXsXsXsXsXsXsXsXsXsXsXsXsXsXsXsXsXsXsXsXsXsXsXsXsXsXsXsXsXsXsXsXsXsXsXsXsXsXsXsXsXsXsXsXsXsXsXsXsXsXsXsXsXsXsXsXsXsXsXsX",
"sXsXsXsXsXsXsXsXsXsXsXsXsXsXsXsXsXsXsXsXsXsXsXsXsXsXsXsXsXsXsXsXsXsXsXsXsXsXsXsXsXsXsXsXsXsXsXsXsXsXsXsXsXsXsXsXsXsXsXsXsXsXsXsXsXsXsXsXsXsXsXsX",
"sXsXsXsXsXsXsXsXsXsXsXsXsXsXsXsXsXsXsXsXsXsXsXsXsXsXsXsXsXsXsXsXsXsXsXsXsXsXsXsXsXsXsXsXsXsXsXsXsXsXsXsXsXsXsXsXsXsXsXsXsXsXsXsXsXsXsXsXsXsXsXsX",
"sXsXsXsXsXsXsXsXsXsXsXsXsXsXsXsXsXsXsXsXsXsXsXsXsXsXsXsXsXsXsXsXsXsXsXsXsXsXsXsXsXsXsXsXsXsXsXsXsXsXsXsXsXsXsXsXsXsXsXsXsXsXsXsXsXsXsXsXsXsXsXsX",
"sXsXsXsXsXsXsXsXsXsXsXsXsXsXsXsXsXsXsXsXsXsXsXsXsXsXsXsXsXsXsXsXsXsXsXsXsXsXsXsXsXsXsXsXsXsXsXsXsXsXsXsXsXsXsXsXsXsXsXsXsXsXsXsXsXsXsXsXsXsXsXsX",
"sXsXsXsXsXsXsXsXsXsXsXsXsXsXsXsXsXsXsXsXsXsXsXsXsXsXsXsXsXsXsXsXsXsX                      sXsXsXsXsXsXsXsXsXsXsXsXsXsXsXsXsXsXsXsXsXsXsXsXsXsXsX",
"sXsXsXsXsXsXsXsXsXsXsXsXsXsXsXsXsXsXsXsXsXsXsXsXsXsXsXsXsXsXsXsXsX                        sXsXsXsXsXsXsXsXsXsXsXsXsXsXsXsXsXsXsXsXsXsXsXsXsXsXsX",
"sXsXsXsXsXsXsXsXsXsXsXsXsXsXsXsXsXsXsXsXsXsXsXsXsXsXsXsXsXsXsXsX% * * # O               sXsXsXsXsXsXsXsXsXsXsXsXsXsXsXsXsXsXsXsXsXsXsXsXsXsXsXsX",
"sXsXsXsXsXsXsXsXsXsXsXsXsXsXsXsXsXsXsXsXsXsXsXsXsXsXsXsX        1 a v s &             sXsXsXsXsXsXsXsXsXsXsXsXsXsXsXsXsXsXsXsXsXsXsXsXsXsXsXsXsX",
"sXsXsXsXsXsXsXsXsXsXsXsXsXsXsXsXsXsXsXsXsXsXsXsXsXsXsX          0 ~ $.~ 0         . sXsXsXsXsXsXsXsXsXsXsXsXsXsXsXsXsXsXsXsXsXsXsXsXsXsXsXsXsXsX",
"sXsXsXsXsXsXsXsXsXsXsXsXsXsXsXsXsXsXsXsXsXsXsXsXsXsX3 y k t 6 k ( c.x.] 0         sXsXsXsXsXsXsXsXsXsXsXsXsXsXsXsXsXsXsXsXsXsXsXsXsXsXsXsXsXsXsX",
"sXsXsXsXsXsXsXsXsXsXsXsXsXsXsXsXsXsXsXsXsXsXsXsXsXX t _ e.i.e.7.b.C.x.~ 2     sXsXsXsX                sXsXsXsXsXsXsXsXsXsXsXsX      sXsXsXsXsXsX",
"sXsXsXsXsXsXsXsXsXsXsXsXsXsXsXsXsXsXsXsXsXsXsXsX    6 X.P.%XXXW.F.n.O.d =     sXsXsXX                 sXsXsXsXsXsXsXsXsXsXsXsX      sXsXsXsXsXsX",
"sXsXsXsXsXsXsXsXsXsXsXsXsXsXsXsXsXsXsXsXsXsXsX      > V 8.A.i.7.X.A d 0 # X sXsXsXsX                  sXsXsXsXsXsXsXsXsXsXsX, 7 g 7 , sXsXsXsXsX",
"sXsXsXsXsXsXsXsXsXsXsXsXsXsXsXsXsXsXsX              X & 4 e t 6 , & # # sXsXsXsX                  sXsXsXsXsXsXsXsXsXsXsXsX  g 1.r.1.g   sXsXsXsX",
"sXsXsXsXsXsXsXsXsXsXsXsXsXsXsXsXsXsX                                    sXsXsX                  sXsXsXsXsXsXsXsXsXsXsXsX    x (.3X(.x     sXsXsX",
"sXsXsXsXsXsXsXsXsXsXsXsXsXsXsXsXsXO + = * - 4 t h z h 7 , : & # # % % # sXsXsX= = # O           sXsXsXsXsXsXsXsXsXsXsX  # g 1.-X4Xk.z     sXsXsX",
"sXsXsXsXsXsXsXsXsXsXsXsXsXsXsXsX  + q d M ! { 2.f.g.j.d.4.2.{ _ A S v r @   & i d r &           sXsXsXsXsXsXsXsXsXsX  , C r.-X4X4Xd.h     sXsXsX",
"sXsXsXsXsXsXsXsXsXsXsXsXsXsXsX    * f O.x.F.R.+X>X4X4X4X4X>XOXP.F.x.O.a +   * Z +.~ 0         . sXsXsXsXsXsXsXsXsX    g r.4X4X4X3X3.t     sXsXsX",
"sXsXsXsXsXsXsXsXsXsXsXsXsXsXX # 4 m $.H.oX*X,X3X4X4X4X5X4X4X4X1XoXV.&.Q e g H w.B.$.r         sXsXsXsXsXsXsXsXsXX & g K k.4X4X4X<X3.7     sXsXsX",
"sXsXsXsXsXsXsXsXsXsXsXsXsX  & l { u.I.&X1X3X3X3X4X4X4X3X4X4X4X4X|.n.+.^  .r.J.}.R.| e       sXsXsXsXsXsXsXsXsX  , F s.).-X4X4X4X<X3.t     sXsXsX",
"sXsXsXsXsXsXsXsXsXsXsXsX    4 { P.,X3X3X3X3X3X3X3X3X3X1X3X4X4X3X_.q.O.q._.3X4X3XP.` 4     sXsXsXsXsXsXsXsXsX    g s.3X4X4X3X4X4X3Xs.g     sXsXsX",
"sXsXsXsXsXsXsXsXsXsXsX    * B u.,X4X4X4X5X5X3X2X2X2X2X<X<X3X1X;XI.m.y.S.#X4X4X,XP.) 4     sXsXsXsXsXsXsXsXX & g K (.4X4X3X<X4X4X4Xd.g     sXsXsX",
"sXsXsXsXsXsXsXsXsXsX  o - f $.].3X4X4X4X5X3X3X3X5X3X3X3X3X>X+X{.I.I.|.-X2X4X3X%XN.Q -     sXsXsXsXsXsXsX  3 F s.`.:X4X4X<X<X4X4X4Xs.g     sXsXsX",
"sXsXsXsXsXsXsXsXsX    = d O.H.&X3X4X4X3X1X3X3X3X3X3X4X4X3X&X{.P.{.&X3X4X4X3X&XH.O.d =     sXsXsXsXsXsX    g r.3X4X4X3X<X<X3X4X4X3Xr.g     sXsXsX",
"sXsXsXsXsXsXsXsXsX    1 Q x.oX1X3X5X5X1X<X3X3X3X3X3X4X4X3X>X{.{.|.;X4X4X4X1XL.[ a - o   sXsXsXsXsXsXX & g K (.4X4X4X<X<X4X4X:X`.r.F 3   sXsXsXsX",
"sXsXsXsXsXsXsXsXsX    2 ~ F.*X3X4X5X2X<X<X3X3X3X3X3X4X3X3X1X>X&X>X<X4X4X4X,Xp.l +   sXsXsXsXsXsXsX  3 F s.`.:X4X4X2X<X4X4X4X(.K g : X sXsXsXsXsX",
"sXsXsXsXsXsXsXsXsX    6 ` P.,X3X3X3X3X3X3X3X3X3X3X3X3X3X3X3X3X3X3X3X3X3X,XW.` 4     sXsXsXsXsXsX    g r.3X4X4X3X<X<X3X4X4X3Xs.g     sXsXsXsXsXsX",
"sXsXsXsXsXsXsXsXsX    6 2.+X3X3X2X2X4X4X4X4X3X3X3X3X3X3X3X4X4X4X4X4X>X'.u._ l 1 % O sXsXsXsXsXX : g K (.4X4X4X2X2X4X4X:X).s.F 3   sXsXsXsXsXsXsX",
"sXsXsXsXsXsXsXsXsX    t t.<X4X4X<X<X2X4X4X4X3X3X3X3X3X3X3X4X5X4X4X3X$Xe.l & = r v m 4         6 P r.).:X4X4X2X3X4X4X4X(.K g $ . sXsXsXsXsXsXsXsX",
"sXsXsXsXsXsXsXsXsX    g 4.3X4X4X3X2X3X3X3X3X3X3X4X3X3X3X3X4X3X3X3X,XP.` <   = M O.' r         z g.3X4X4X3X<X<X3X4X4X3Xr.g     sXsXsXsXsXsXsXsXsX",
"sXsXsXsXsXsXsXsX  . = V g.3X7X0XwXeXl.d.g.[.3X4X4X3X5X3X3X3X<X@XXXR.b.! 6 < a O.c.] q     $ x 3.[.4X4X4X2X3X3X3X;X).r.G 8   sXsXsXsXsXsXsXsXsXsX",
"sXsXsXsXsXsXsX  o - f | U.4X0XyXpXtXY 7 D g.1X4X4X3X3X3X3X1X&X{.D.c.+.' ( { 8.z.&.N %   ; J J.<X4X4X5X2X2X4X4X3Xk.G 5 @ sXsXsXsXsXsXsXsXsXsXsXsX",
"sXsXsXsXsXsX    = d O.F.+X3XwXpXaXiXU   , 4.4X4X4X4X2X3X3X1X+XR.b.+.$.9.M.W.W.V.O.w .   7 s.4X4X4X3X<X<X3X4X4X3Xr.g     sXsXsXsXsXsXsXsXsXsXsXsX",
"sXsXsXsXsXsX    2 ! D.*X3X3XqXuXiXrXI . u d.4X4X4X3X2X3X3X1X&X{.A.y.y.A.}.oX.XB.] w o   < K (.<X4X4X3X2X3X4X4X3Xg.B %   sXsXsXsXsXsXsXsXsXsXsXsX",
"sXsXsXsXsXsX    6 2.@X4X4X3Xl.Y U I 9 i X.].4X4X4X4X1X3X3X3X1X&XOX|.{.|. X}.Y.x.] d %     ; c 3.[.4X4X4X<X3X4X3X|.p.( r =   sXsXsXsXsXsXsXsXsXsX",
"sXsXsXsXsXsX    u 4.3X4X4X3Xs.7   . w O.H.%X3X4X4X3X2X3X3X3X3X3X4X4X3X1X XR.D.x.$.M 1         z g.3X4X4X3X2X2X3X3X,XP.{ 4     sXsXsXsXsXsXsXsXsX",
"sXsXsXsXsXsX    g s.4X4X4X3Xd.x , e o.^.~.!..X$X1X3X4X3X3X4X3X4X4X4X4X<X@X{.R.D.9.Z 4         6 J r.).:X4X4X4X3X4X4X,XK.} y & X sXsXsXsXsXsXsXsX",
"sXsXsXsXsXsX    h s.4X4X4X4X`.d.3.a./.8X8X:.;.C.XX3X4X4X3X3X3X3X4X4X4X5X<X&X$X.XA.( 4 X   sXsXsX: t L k.4X4X4X3X3X4X3X>XI.7.V >     sXsXsXsXsXsX",
"sXsXsXsXsXsX    g r.3X4X4X3X5X5X5X6X9X8X,.W E -.Q.3X4X4X3X3X3X3X3X3X3X3X3X3X3X,XW.` 4     sXsXsX    t r.3X4X4X3X2X2X3X3X,XP.{ 4     sXsXsXsXsXsX",
"sXsXsXsXsXsX    t r.3X4X4X4X5X5X4X6X9X,.W R T *.E.4X4X4X3X1X3X3X3X4X4X4X5X4X4X3X}. .6     sXsXsXsX  , D 4.(.-X3X4X4X3X&XI.7.S >     sXsXsXsXsXsX",
"sXsXsXsXsXsX    t 6.,X4X4X3X5X4X4X=XZ.>.R R T *.Q.4X4X4X3X1X3X3X3X4X4X4X5X4X4X3X}. .6     sXsXsXsXsXsXX , F j.5X4X4X,Xh._ j & X sXsXsXsXsXsXsXsX",
"sXsXsXsXsXsX    4 ` R.,X1X4X4X4X4X!.;.E T T >.;..X3X4X4X3X3X3X3X3X3X3X3X3X3X3X,XP.` 4     sXsXsXsXsXsX    g s.3X4X4XR._ 4     sXsXsXsXsXsXsXsXsX",
"sXsXsXsXsXsXsX  & l ` u.|.3X4X4X3XXXC.-.*.=.;.C. X>X2X3X3X3X4X3X;X|._.|.&X>X*X{.m.| V t , @ sXsXsXsXsXX 5 P J.3X1XI.| l &   sXsXsXsXsXsXsXsXsXsX",
"sXsXsXsXsXsXsXsXsX. : B p.*X4X4X4X>X XQ.E.E..X.X}. X@X>X3X4X4X3X|.S.q.b.I.$XW.M.%.#.5.6.H t         7 P s.`.,X,XK._ e # . sXsXsXsXsXsXsXsXsXsXsX",
"sXsXsXsXsXsXsXsXsX    4 ` P.,X3X3X3X3X3X4X4X3X&X{.P.{.&X3X4X4X3X_.q.$.%.D.P.A.%.O.c.R.P.e.j         c j.3X4X4XP.( 4     sXsXsXsXsXsXsXsXsXsXsXsX",
"sXsXsXsXsXsXsXsX  o & q V ..i.K.'.@X2X4X4X4X4X&XR.G.P.@X4X4X4X3X|.A.q.9.z.M.w.#.#.B.E.E.8.y     . y 4.[.4X2XK._ 0 +     sXsXsXsXsXsXsXsXsXsXsXsX",
"sXsXsXsXsXsXsX  * d N n s u y ! q.P.;X4X4X4X4X@XP.F.I.&X4X4X4X3X<X@XI.A.w.%.%.q.M.H.Y.n.! >   O k 7.}.,X,XS.H &       . sXsXsXsXsXsXsXsXsXsXsXsX",
"sXsXsXsXsXsX    4 Q O.Q >   o p O.F.$X3X4X4X3X&X{.P.{.>X3X3X3X3X4X4X3X'.w.O.%.M.P.E.V.O.p o   3 { P.,X*XP...e         X sXsXsXsXsXsXsXsXsXsXsXsX",
"sXsXsXsXsXsX    1 b Q a #   % b 0.E.,X3X4X4X3X&X+X X X>X1X3X1X3X4X4X4X'.q.@.%.G. XQ.n./ w o   : B 7.R.}.G.2.z , & 1 e 0 * sXsXsXsXsXsXsXsXsXsXsX",
"sXsXsXsXsXsXsXsX* 4 4 +     4 [ Y.%X3X3X5X4X3X1X<X>X&X$X+X&X>X3X4X4X4X'.q.O.%.G. X}.n.^ p %     @ t _ i.P.G.e.{ ` [ ~ v *     sXsXsXsXsXsXsXsXsX",
"sXsXsXsXsXsXsXsXsXX         e ..P.,X3X3X5X3X3X4X4X3X&X{.P.{.&X3X4X4X3X'.w.$.&.m.P.W.B.O.b 1         t ..P.%XXXP.F.N.O.v *     sXsXsXsXsXsXsXsXsX",
"sXsXsXsXsXsXsXsXsXsX        > B 6.U.+X>X1X3X3X4X4X4XOXA.z.A.OX4X4X4X>XP.q.@.@.9.b.F.B.q.Q 4       . i | H.%X%XoXF.%.Z 0 +     sXsXsXsXsXsXsXsXsX",
"sXsXsXsXsXsXsXsXsXsXsXsX    X : k { g. X,X3X3X4X4X4X'.0.+.w.'.4X4X4X$XG.0.@.^ ] %.M.Y.M.` 6     % p ~ #.N.E.!.Y.#.n 2 +   sXsXsXsXsXsXsXsXsXsXsX",
"sXsXsXsXsXsXsXsXsXsXsXsXX         e ..W.*X,X3X4X4X3XI.q.$.w.'.3X4X>XP.b.%.O.] / O.n.Q.R. .5   O d $.0.&.+.%.-.| n >     sXsXsXsXsXsXsXsXsXsXsXsX",
"sXsXsXsXsXsXsXsXsXsXsXsX1 % .     4 [ D.oX,X3X4X4X3XOXA.w.m.G._.P.A.z.0.w.0.#.O.#.B.}.}.e.B 0 d @.v.c.' v p a a 0 %   sXsXsXsXsXsXsXsXsXsXsXsXsX",
"sXsXsXsXsXsXsXsXsXsX  - d f - .   * Q n..X,X3X4X4X3X<X@X'.L.i.q.+.O.+.%.z.A.M.b.M.G.{.{.S.| ~ @.c.v.$.v * O + = = + sXsXsXsXsXsXsXsXsXsXsXsXsXsX",
"sXsXsXsXsXsXsXsXsX    2 Q O.Q 1   o p O.F.&X3X4X4X3X4X4X3X|.m.O.^ ^ O.q.A.P.W.W.P.P.W.R.M.%.+.+.&.O.N 1         . sXsXsXsXsXsXsXsXsXsXsXsXsXsXsX",
"sXsXsXsXsXsXsXsXsX    y 5.Q.P.{ 0 % - p ..].4X4X4X2X3X4X4X@XK.q.#.5.y.A.P.}. X X X}.E.H.z.[ S M b v i &         sXsXsXsXsXsXsXsXsXsXsXsXsXsXsXsX",
"sXsXsXsXsXsXsXsXsX    h d.4X4X'.X.0 o O z d.4X4X4X2X<X4X4X2XOX_.U.].'.|.{.{.{.{.{.Q.E.n.O.v 2 & * * * @ sXsXsXsXsXsXsXsXsXsXsXsXsXsXsXsXsXsXsXsX",
"sXsXsXsXsXsXsXsXsX    g r.3X4X4XW.A #   5 s.3X4X4X3X2X2X3X3X3X3X4X4X3X>X{.P.P.I.W.H.n.O.b *         . sXsXsXsXsXsXsXsXsXsXsXsXsXsXsXsXsXsXsXsXsX",
"sXsXsXsXsXsXsXsXsXsX  5 G d.-X4X3Xg.x > t  ._.1X4X4X3X3X3X1X3X4X4X4X4X>XW.F.Y.Y.H.w.' d q +         sXsXsXsXsXsXsXsXsXsXsXsXsXsXsXsXsXsXsXsXsXsX",
"sXsXsXsXsXsXsXsXsXsXsXX ; h 1.[.4X;Xh._ S ' q.U.;X4X4X3X,X,X,X3X4X4X3X+XH.N.V.C.B.[ s * .   sXsXsXsXsXsXsXsXsXsXsXsXsXsXsXsXsXsXsXsXsXsXsXsXsXsX",
"sXsXsXsXsXsXsXsXsXsXsXsX    h s.3X5X1XP.0.+.O.i.|.3X3X$XP.F.H.P.W.{.R.A.9.O.+.-.| b *     sXsXsXsXsXsXsXsXsXsXsXsXsXsXsXsXsXsXsXsXsXsXsXsXsXsXsX",
"sXsXsXsXsXsXsXsXsXsXsXsXsX  , F r.[.2X4X&XH.c.9.e.r.3.2.` _ _ ` ` { _ ! n d d b l r %   sXsXsXsXsXsXsXsXsXsXsXsXsXsXsXsXsXsXsXsXsXsXsXsXsXsXsXsX",
"sXsXsXsXsXsXsXsXsXsXsXsXsXsXX $ g <.(.4X4X,XY.5.S g 8 , 4 4 4 4 4 6 4 1 > * = * * % O sXsXsXsXsXsXsXsXsXsXsXsXsXsXsXsXsXsXsXsXsXsXsXsXsXsXsXsXsX",
"sXsXsXsXsXsXsXsXsXsXsXsXsXsXsX    g s.3X4X3XR.{ 6         .                         sXsXsXsXsXsXsXsXsXsXsXsXsXsXsXsXsXsXsXsXsXsXsXsXsXsXsXsXsXsX",
"sXsXsXsXsXsXsXsXsXsXsXsXsXsXsXsX  7 J s.d.f.2.S 4         X                       sXsXsXsXsXsXsXsXsXsXsXsXsXsXsXsXsXsXsXsXsXsXsXsXsXsXsXsXsXsXsX",
"sXsXsXsXsXsXsXsXsXsXsXsXsXsXsXsXsX< 7 h j g t 4 sXsXsXsXsXsXsXsXsXsXsXsXsXsXsXsXsXsXsXsXsXsXsXsXsXsXsXsXsXsXsXsXsXsXsXsXsXsXsXsXsXsXsXsXsXsXsXsX",
"sXsXsXsXsXsXsXsXsXsXsXsXsXsXsXsXsXsX            sXsXsXsXsXsXsXsXsXsXsXsXsXsXsXsXsXsXsXsXsXsXsXsXsXsXsXsXsXsXsXsXsXsXsXsXsXsXsXsXsXsXsXsXsXsXsXsX",
"sXsXsXsXsXsXsXsXsXsXsXsXsXsXsXsXsXsX            sXsXsXsXsXsXsXsXsXsXsXsXsXsXsXsXsXsXsXsXsXsXsXsXsXsXsXsXsXsXsXsXsXsXsXsXsXsXsXsXsXsXsXsXsXsXsXsX"
};
