/* XPM */
static char *_567731632_16756723921675672398[] = {
/* columns rows colors chars-per-pixel */
"72 78 214 2 ",
"   c #000000",
".  c #0A0300",
"X  c #0B0A00",
"o  c #070A00",
"O  c #130400",
"+  c #150B00",
"@  c #1B0C00",
"#  c #1C0700",
"$  c #081300",
"%  c #161300",
"&  c #1D1400",
"*  c #141E00",
"=  c #1D1B00",
"-  c #230B00",
";  c #241400",
":  c #291500",
">  c #251B00",
",  c #2B1B00",
"<  c #321D00",
"1  c #391800",
"2  c #252500",
"3  c #2B2400",
"4  c #2E2C00",
"5  c #342300",
"6  c #3B2600",
"7  c #322D00",
"8  c #3A2C00",
"9  c #333400",
"0  c #3D3200",
"q  c #343900",
"w  c #3C3C00",
"e  c #422400",
"r  c #442C00",
"t  c #4B2D00",
"y  c #433400",
"u  c #4B3100",
"i  c #433D00",
"p  c #493E00",
"a  c #523400",
"s  c #5B3400",
"d  c #553D00",
"f  c #5F3C00",
"g  c #552900",
"h  c #613600",
"j  c #623C00",
"k  c #693F00",
"l  c #3C4200",
"z  c #444300",
"x  c #4A4600",
"c  c #4C4C00",
"v  c #444900",
"b  c #5C4300",
"n  c #524D00",
"m  c #5C4B00",
"M  c #564700",
"N  c #545300",
"B  c #5A5600",
"V  c #5C5B00",
"C  c #4C5100",
"Z  c #654200",
"A  c #6B4400",
"S  c #644B00",
"D  c #6F4A00",
"F  c #724600",
"G  c #734B00",
"H  c #7A4E00",
"J  c #675900",
"K  c #765300",
"L  c #7D5200",
"P  c #735C00",
"I  c #7C5B00",
"U  c #566100",
"Y  c #656400",
"T  c #6A6600",
"R  c #6A6B00",
"E  c #666800",
"W  c #786D00",
"Q  c #6F7300",
"!  c #757900",
"~  c #7C7C00",
"^  c #7A7300",
"/  c #8F4D00",
"(  c #845A00",
")  c #8B5D00",
"_  c #865500",
"`  c #935200",
"'  c #955C00",
"]  c #9C5D00",
"[  c #904E00",
"{  c #A05F00",
"}  c #836200",
"|  c #8D6300",
" . c #856B00",
".. c #8C6E00",
"X. c #946200",
"o. c #9C6300",
"O. c #9A6A00",
"+. c #946B00",
"@. c #8D7300",
"#. c #8D7B00",
"$. c #807B00",
"%. c #967300",
"&. c #937B00",
"*. c #9B7C00",
"=. c #9B7400",
"-. c #A16600",
";. c #A66E00",
":. c #AA6E00",
">. c #A57300",
",. c #AC7300",
"<. c #AD7900",
"1. c #A27A00",
"2. c #B27400",
"3. c #B37C00",
"4. c #BB7C00",
"5. c #B87700",
"6. c #C37F00",
"7. c #7B8400",
"8. c #8C8A00",
"9. c #918C00",
"0. c #998400",
"q. c #949200",
"w. c #9B9500",
"e. c #9D9900",
"r. c #AB8400",
"t. c #A68800",
"y. c #B58200",
"u. c #BA8400",
"i. c #B58C00",
"p. c #BB8C00",
"a. c #A39F00",
"s. c #AB9900",
"d. c #BD9400",
"f. c #B79800",
"g. c #A4A300",
"h. c #A9A500",
"j. c #ACAB00",
"k. c #A3AB00",
"l. c #B3AD00",
"z. c #BBA900",
"x. c #B4B200",
"c. c #BCB500",
"v. c #BCBB00",
"b. c #C38B00",
"n. c #CD8C00",
"m. c #C48500",
"M. c #D08C00",
"N. c #C69300",
"B. c #CB9400",
"V. c #C49B00",
"C. c #CA9B00",
"Z. c #D19500",
"A. c #D49B00",
"S. c #E79C00",
"D. c #C6A100",
"F. c #CEA400",
"G. c #CDAD00",
"H. c #C5AF00",
"J. c #D4A300",
"K. c #DBA400",
"L. c #D4AC00",
"P. c #DBAB00",
"I. c #C1BD00",
"U. c #C9BA00",
"Y. c #D5B500",
"T. c #DEB600",
"R. c #DBBB00",
"E. c #D2BD00",
"W. c #E4A400",
"Q. c #E7AB00",
"!. c #E2B300",
"~. c #ECB400",
"^. c #E3BA00",
"/. c #EBBB00",
"(. c #F2BE00",
"). c #FBBE00",
"_. c #F4AB00",
"`. c #BDC200",
"'. c #C4C300",
"]. c #CCC700",
"[. c #CDCA00",
"{. c #C2C800",
"}. c #DDC200",
"|. c #D3CD00",
" X c #D9C700",
".X c #DAD900",
"XX c #D4D400",
"oX c #E4C300",
"OX c #EAC400",
"+X c #E4CC00",
"@X c #EACE00",
"#X c #F1C300",
"$X c #FCC500",
"%X c #F4CB00",
"&X c #FDCC00",
"*X c #E5D400",
"=X c #EDD300",
"-X c #E4DD00",
";X c #EDDB00",
":X c #F1D500",
">X c #FDD400",
",X c #F3DB00",
"<X c #FEDC00",
"1X c #EDE200",
"2X c #EDEC00",
"3X c #E6E400",
"4X c #F4E400",
"5X c #FDE400",
"6X c #F5ED00",
"7X c #FBEC00",
"8X c #F4F100",
"9X c #FEF600",
"0X c #FFFD00",
"qX c None",
/* pixels */
"qXqXqXqXqXqXqXqXqXqXqXqXqXqXqXqXqXqXqXqXqXqXqXqXqXqXqXqXqXqXqXqXqXqXqXqXqXqXqXqXqXqXqXqXqXqXqXqXqXqXqXqXqXqXqXqXqXqXqXqX      qXqXqXqXqXqXqXqXqX",
"qXqXqXqXqXqXqXqXqXqXqXqXqXqXqXqXqXqXqXqXqXqXqXqXqXqXqXqXqXqXqXqXqXqXqXqXqXqXqXqXqXqXqXqXqXqXqXqXqXqXqXqXqXqXqXqXqXqXqXqX      qXqXqXqXqXqXqXqXqX",
"qXqXqXqXqXqXqXqXqXqXqXqXqXqXqXqXqXqXqXqXqXqXqXqXqXqXqXqXqXqXqXqXqXqXqXqXqXqXqXqXqXqXqXqXqXqXqXqXqXqXqXqXqXqXqXqXqXqXqX        qXqXqXqXqXqXqXqXqX",
"qXqXqXqXqXqXqXqXqXqXqXqXqXqXqXqXqXqXqXqXqXqXqXqXqXqXqXqXqXqXqXqXqXqXqXqXqXqXqXqXqXqXqXqXqXqXqXqXqXqXqXqXqXqXqXqXqXqXX .       qXqXqXqXqXqXqXqXqX",
"qXqXqXqXqXqXqXqXqXqXqXqXqXqXqXqXqXqXqXqXqXqXqXqXqXqXqXqXqXqXqXqXqXqXqXqXqXqXqXqXqXqXqXqXqXqXqXqXqXqXqXqXqXqXqXqXqX            qXqXqXqXqXqXqXqXqX",
"qXqXqXqXqXqXqXqXqXqXqXqXqXqXqXqXqXqXqXqXqXqXqXqXqXqXqXqXqXqXqXqXqXqXqXqXqXqXqXqXqXqXqXqXqXqXqXqXqXqXqXqXqXqXqXqX              qXqXqXqXqXqXqXqXqX",
"qXqXqXqXqXqXqXqXqXqXqXqXqXqXqXqXqXqXqXqXqXqXqXqXqXqXqXqXqXqXqXqXqXqXqXqXqXqXqXqXqXqXqXqXqXqXqXqXqXqXqXqXqXqXqX                qXqXqXqXqXqXqXqXqX",
"qXqXqXqXqXqXqXqXqXqXqXqXqXqXqXqXqXqXqXqXqXqXqXqXqXqXqXqXqXqXqXqXqXqXqXqXqXqXqXqXqXqXqXqXqXqXqXqXqXqXqXqXqXqX                  qXqXqXqXqXqXqXqXqX",
"qXqXqXqXqXqXqXqXqXqXqXqXqXqXqXqXqXqXqXqXqXqXqXqXqXqXqXqXqXqXqXqXqXqXqXqXqXqXqXqXqXqXqXqXqXqXqXqXqXqXqXqXqX. # : 5 p i 7 +     qXqXqXqXqXqXqXqXqX",
"qXqXqXqXqXqXqXqXqXqXqXqXqXqXqXqXqXqXqXqXqXqXqXqXqXqXqXqXqXqXqXqXqXqXqXqXqXqXqXqXqXqXqXqXqXqXqXqXqXqXqXqX  + 1 h ) r.t.T 4     qXqXqXqXqXqXqXqXqX",
"qXqXqXqXqXqXqXqXqXqXqXqXqXqXqXqXqXqXqXqXqXqXqXqXqXqXqXqXqXqXqXqXqXqXqXqXqXqXqXqXqXqXqXqXqXqXqXqXqXqXqX    : f ;.W.&X!.&.0     qXqXqXqXqXqXqXqXqX",
"qXqXqXqXqXqXqXqXqXqXqXqXqXqXqXqXqXqXqXqXqXqXqXqXqXqXqXqXqXqXqXqXqXqXqXqXqXqXqXqXqXqXqXqXqXqXqXqXqXqX  . ; d +.T.<X5X#X=.y     qXqXqXqXqXqXqXqXqX",
"qXqXqXqXqXqXqXqXqXqXqXqXqXqXqXqXqXqXqXqXqXqXqXqXqXqXqXqXqXqXqXqXqXqXqXqXqXqXqXqXqXqXqXqXqXqXqXqXqX  O 1 h %.G.,X7X<XA.) 6     qXqXqXqXqXqXqXqXqX",
"qXqXqXqXqXqXqXqXqXqXqXqXqXqXqXqXqXqXqXqXqXqXqXqXqXqXqXqXqXqXqXqXqXqXqXqXqXqXqXqXqXqXqXqXqXqXqXqX    - s ;.!.5X9X5X!.:.s ;     qXqXqXqXqXqXqXqXqX",
"qXqXqXqXqXqXqXqXqXqXqXqXqXqXqXqXqXqXqXqXqXqXqXqXqXqXqXqXqXqXqXqXqXqXqXqXqXqXqXqXqXqXqXqXqXqXqXX & 8 S =.!.5X0X9X X0.k 1 O   qXqXqXqXqXqXqXqXqXqX",
"qXqXqXqXqXqXqXqXqXqXqXqXqXqXqXqXqXqXqXqXqXqXqXqXqXqXqXqX                            o         , b ..f.R.4X0X0X:Xs.S , .   qXqXqXqXqXqXqXqXqXqXqX",
"qXqXqXqXqXqXqXqXqXqXqXqXqXqXqXqXqXqXqXqXqXqXqXqXqXqXqX                              .         y &.^.5X9X9X9X5X^...8     qXqXqXqXqXqXqXqXqXqXqXqX",
"qXqXqXqXqXqXqXqXqXqXqXqXqXqXqXqXqXqXqXqXqXqXqXqXqXqXO @ : , 5 8 8 8 8 0 i z z z z z x z 9 7 z ^ H.7X0X0X7X5X>XA.( 5     qXqXqXqXqXqXqXqXqXqXqXqX",
"qXqXqXqXqXqXqXqXqXqXqXqXqXqXqXqXqXqXqXqXqXqXqXqXqX  @ e j H } ..@...@.&.w.a.h.h.g.a.g.a.e.w.g.v.3X0X0X6X=XOX~.b.L <     qXqXqXqXqXqXqXqXqXqXqXqX",
"qXqXqXqXqXqXqXqXqXqXqXqXqXqXqXqXqXqXqXqXqXqXqXqX    : k >.Z.!.T.T.T.!.+X,X9X0X0X9X9X9X9X9X9X9X9X0X9X4X=X^.K.M.;.Z ,     qXqXqXqXqXqXqXqXqXqXqXqX",
"qXqXqXqXqXqXqXqXqXqXqXqXqXqXqXqXqXqXqXqXqXqXqXX = 8 S 1.P.&X5X5X5X5X5X7X9X0X0X0X0X0X0X0X0X0X0X0X6X1X=XOXL.p.O.F r ; o qXqXqXqXqXqXqXqXqXqXqXqXqX",
"qXqXqXqXqXqXqXqXqXqX    X X X o     .         3 m ..f.Y.,X7X9X9X8X9X9X9X0X0X0X0X0X0X0X0X0X0X0X6X*XoX%X#XY.r.S < O . qXqXqXqXqXqXqXqXqXqXqXqXqXqX",
"qXqXqXqXqXqXqXqXqX                  o         y *.T.<X9X9X9X8X9X9X9X9X9X9X9X9X9X9X9X9X9X0X0X9X4XoXT.(.&X!.&.8     qXqXqXqXqXqXqXqXqXqXqXqXqXqXqX",
"qXqXqXqXqXqXqXqXqX          = i V J N z 9 4 z W H.5X0X0X0X0X0X0X9X9X8X0X9X6X8X6X8X6X6X8X8X8X6X4X+XoX%X&XT.@.0     qXqXqXqXqXqXqXqXqXqXqXqXqXqXqX",
"qXqXqX            .         w 9.'.|.v.g.9.q.a.H.-X9X0X0X0X9X0X9X0X9X0X9X8X9X8X9X9X8X9X9X8X9X9X8X4X:X5X>XP...8     qXqXqXqXqXqXqXqXqXqXqXqXqXqXqX",
"qXqXqX          o o         c l.9X0X0X9X8X8X9X9X9X9X9X9X9X9X9X9X9X9X9X9X9X0X9X9X0X9X9X9X9X9X9X9X0X9X9X5XT.@.8     qXqXqXqXqXqXqXqXqXqXqXqXqXqXqX",
"qXqXqX                X 4 c W e.I..X8X0X0X0X0X0X0X0X0X8X8X9X9X9X9X9X9X9X9X9X9X9X9X9X0X9X9X9X9X9X0X0X0X9X+Xt.S < O   qXqXqXqXqXqXqXqXqXqXqXqXqXqX",
"qXqXqXqXqX  o         z 9.x.q.V z R v.0X0X0X0X0X0X0X0X9X9X9X9X9X9X9X9X9X9X9X9X9X9X9X9X9X9X9X9X9X0X0X0X0X4XY.1.D e #   qXqXqXqXqXqXqXqXqXqXqXqXqX",
"qXqXqXqXqXqXX         E XX9Xv.c   @ W !.5X9X9X9X9X9X9X9X9X9X9X9X9X0X9X9X9X9X9X9X0X9X9X9X9X9X9X9X8X9X0X0X9X,XP.;.j :     qXqXqXqXqXqXqXqXqXqXqXqX",
"qXqXqXqXqXqXqX        V [.0X.X! 3 + r I i.Y.=X,X,X;X1X6X9X0X0X9X9X9X9X9X9X0X9X9X9X9X9X9X9X9X9X9X8X9X0X0X0X7X&Xn.H <     qXqXqXqXqXqXqXqXqXqXqXqX",
"qXqXqXqXqXqXqXqX      c j.0X0X3Xw.N > & u %.K.(./.R.+X4X9X0X9X9X9X9X9X9X9X9X9X9X9X9X9X9X9X9X9X9X9X9X0X0X9X9X<XP.} 6     qXqXqXqXqXqXqXqXqXqXqXqX",
"qXqXqXqXqXqXqXqXqX    i e.9X0X0X9Xe.q   . s ;.Z.P.T.@X4X9X0X0X9X9X9X0X9X9X9X9X0X9X9X9X0X9X9X9X9X9X9X8X0X9X9X5XT.@.8     qXqXqXqXqXqXqXqXqXqXqXqX",
"qXqXqXqXqXqXqXqXqX    w q.6X0X0X0X`.! 9 @ - g X.J.<X9X0X9X8X9X9X9X9X9X9X9X0X9X9X9X9X9X9X9X9X9X9X9X9X0X8X9X9X7X^.&.0     qXqXqXqXqXqXqXqXqXqXqXqX",
"qXqXqXqXqXqXqXqXqX    z w.6X0X0X0X2XXXg.n O . p h.0X0X0X8X4X8X9X9X9X9X9X9X9X9X9X0X9X9X9X9X9X9X9X9X9X9X9X9X9X9XOX&.0     qXqXqXqXqXqXqXqXqXqXqXqX",
"qXqXqXqXqXqXqXqXqX    z a.9X0X0X0X0X0X9Xa.4   7 e.9X0X0X9X6X9X9X9X9X9X9X9X9X9X9X9X9X9X9X0X9X9X9X9X9X0X0X9X9X5XT...8     qXqXqXqXqXqXqXqXqXqXqXqX",
"qXqXqXqXqXqXqXqXqX    z h.0X0X0X6X8X0X0X`.Q l w E g.[.8X0X0X0X8X8X9X9X9X9X0X9X9X9X9X9X9X9X9X9X9X9X8X0X0X9X7X>XF.( 5     qXqXqXqXqXqXqXqXqXqXqXqX",
"qXqXqXqXqXqXqXqXqX    z h.0X0X0X6X6X0X0X8XXXk.E 9 9 E v.0X0X0X8X4X8X9X9X9X0X9X9X9X9X9X9X9X9X9X9X9X9X0X0X0X5X/.y.G < o   qXqXqXqXqXqXqXqXqXqXqXqX",
"qXqXqXqXqXqXqXqXqX    z g.9X0X0X9X6X2X0X0X0X9Xe.9   4 w.0X0X0X9X8X9X9X9X9X9X9X9X9X9X9X9X9X9X9X9X6X9X0X0X9X,XK.:.j ;     qXqXqXqXqXqXqXqXqXqXqXqX",
"qXqXqXqXqXqXqXqXqXqX  4 T a.|.2X0X0X6X6X0X0X0Xv.Y 4 4 B e.[.2X0X0X0X9X9X9X9X9X9X9X9X9X9X9X9X9X9X9X0X0X0X7XOXJ.-.s ;     qXqXqXqXqXqXqXqXqXqXqXqX",
"qXqXqXqXqXqXqXqXqXqXqXX = z ~ '.0X0X9X6X8X0X0X2X|.e.V 3 3 V x.0X0X0X9X6X9X0X9X9X9X9X9X9X9X9X9X9X9X0X9X4X=X^.A.;.j :     qXqXqXqXqXqXqXqXqXqXqXqX",
"qXqXqXqXqXqXqXqXqXqXqXqX    z g.9X0X0X9X6X6X9X0X0X9Xe.7   4 e.9X0X0X9X8X8X9X9X9X9X9X9X9X9X9X9X0X0X9X4X=XT.K.B.;.k :     qXqXqXqXqXqXqXqXqXqXqXqX",
"qXqXqXqXqXqXqXqXqXqXqXqXqX  4 T g.[.2X0X0X8X8X0X0X0X`.! z z R e.[.1X9X0X0X9X9X9X9X9X9X0X0X0X9X0X9X7X=XY.C.m.4.;.( b y 4 % qXqXqXqXqXqXqXqXqXqXqX",
"qXqXqXqXqXqXqXqXqXqXqXqXqXqXX = z ~ I.0X0X0X9X8X0X0X0X3XH.~ l 9 Y x.9X0X0X9X6X9X8X9X9X0X0X0X0X9X5X:XT.C.y.;.-.-.<.r.0.T 7   qXqXqXqXqXqXqXqXqXqX",
"qXqXqXqXqXqXqXqXqXqXqXqXqXqXqX    z a.9X0X0X9X6X6X9X0X0X9Xe.4   4 e.9X0X0X9X6X8X9X9X9X9X9X0X9X7X=XT.B.u.;.o.' >.B./.!.*.i     qXqXqXqXqXqXqXqXqX",
"qXqXqXqXqXqXqXqXqXqXqXqXqXqXqXqX  7 T e.'.;X9X0X0X0X0X8X].~ 0 , B l.0X0X0X0X8X0X0X9X8X7X7X7X7X=XT.N.3.-.o.o.o.3.K.$X%XD.^ x 2 $ qXqXqXqXqXqXqXqX",
"qXqXqXqXqXqXqXqXqXqXqXqXqXqXqXqXqXqXX 4 T l.9X0X0X0X`.7.C i m #.z.*X0X0X0X0X0X0X0X8X,X=X:X,X:XR.V.3.o.] o.>.y.B.P.^.OXoXE.g.Q 9   qXqXqXqXqXqXqX",
"qXqXqXqXqXqXqXqXqXqXqXqXqXqXqXqXqXqX    i e.9X0X0X9Xq.9   ; } T.5X9X9X9X9X9X9X0X9X4XoX!.!.^.T.J.u.;.o.o.>.u.F.^.!.Y.^.<X0X9Xh.v     qXqXqXqXqXqX",
"qXqXqXqXqXqXqXqXqXqXqXqXqXqXqXqXqXqX. 4 R v.9X0X-Xe.n ; # t >./.5X5X7X6X6X7X4X4X*XR.L.C.B.C.N.p.y.3.;.,.y.C.oX=X%XOX/.5X0X0X{.~ z 2 X qXqXqXqXqX",
"qXqXqXqXqXqXqXqXqXqXqXqXqXqXqXqX  3 V q.|.9X9X'.Q 4 ; e F o.3.N.T.OX:X4X4X=XoXL.V.d.p.u.4.<.<.y.b.N.N.N.B.Y.;X6X5X<X>X>X<X5X;X[.g.R 9   qXqXqXqX",
"qXqXqXqXqXqXqXqXqXqXqXqXqXqXqX    w e.9X0X0X9Xe.q   O j ,.4.2.;.3.C.!.OXOXT.F.u.;.-.-.;.;.-.;.u.F.T.^.T.^.@X7X9X6X=XT.J.J.T.5X0X9Xh.v     qXqXqX",
"qXqXqXqXqXqXqXqXqXqXqXqXqXqX% 4 N 8.'.0X0X0X8Xx.Y 9 7 d _ o.-.:.<.4.p.N.B.b.5.-.` [ ` ] o.o.<.N.T.=X,X:X:X5X9X9X Xs.#.| >.A.>X0X0Xk.v     qXqXqX",
"qXqXqXqXqXqXqXqXqXqXqXqX    0 ~ '.1X0X0X0X0X8X;X].g.R 0 5 a _ 5.6.2.;.-.;.,.-.] ` [ ` ` -.<.N.P.=X5X7X6X6X9X9X:Xs.V 4 e H b.>X0X0Xk.v     qXqXqX",
"qXqXqXqXqXqXqXqXqXqXqXqX    z a.9X0X0X9X6X6X9X0X0X9Xg.q   O j ;.m.5.>.O.;.;.;.;.;.;.O.;.4.V.T.@X4X9X0X0X9X9X5X!.@.7   O g >.Q.$XT.&.0     qXqXqX",
"qXqXqXqXqXqXqXqXqXqXqXqX    i 8.I.].x.h.x..X0X0X0X0Xx.c + . : Z %.N.J.J.V.i.f.V.C.V.V.V.Y.OX,X9X0X0X0X0X6X<X/.N.( 6 @ @ e D | +. .S 3   qXqXqXqX",
"qXqXqXqXqXqXqXqXqXqXqXqXqXqX7 N B x w x ~ {.0X0X0X<XD.+.a - . ; J z.5X9X,X}. X X*X*X*X*X1X6X9X0X0X0X0X7X,X^.B.<.' H j t 5 , < 5 5 7 > qXqXqXqXqX",
"qXqXqXqXqXqXqXqXqXqXqXqXqXqXqXX         N x.9X0X5XT.J.n.;.s .   l h.9X0X0X9X6X9X9X9X9X9X9X9X9X9X0X9X7X=X!.C.<.>.,.2.;.L 5         o qXqXqXqXqXqX",
"qXqXqXqXqXqXqXqXqXqXqXqXqXqXqXqX        4 E g.I.R.!.).).W.O.r & 9 ! `.2X0X0X0X0X9X0X0X9X8X,X*X*X+X XR.C.p.4.<.3.b.M.u.) 5         qXqXqXqXqXqXqX",
"qXqXqXqXqXqXqXqXqXqXqXqXqXqXqXqXqX      o $ q W f.&X<X<X$XC.X.j 6 0 V q.[.0X0X9X:X;X4X4X=XY.V.V.d.p.y.,.;.<.p.V.A.A.2.F <       qXqXqXqXqXqXqXqX",
"qXqXqXqXqXqXqXqXqXqXqXqXqXqXqXqXqXqXX         y t.T.:X%XT.J.Z.:.s .   l j.9X0X<X!.P.T.^.J.y.>.-.;.>.;.o.;.p.J.T.~.A.;.k :     qXqXqXqXqXqXqXqXqX",
"qXqXqXqXqXqXqXqXqXqXqXqXqXqXqXqXqXqXo o o . - u P #.0.#.#.i.A.M._ 1   * U e.U.L.A.A.B.u.,.] ` ` { ;.<.y.d.L.}.OX/.K.2.A , .   qXqXqXqXqXqXqXqXqX",
"qXqXqXqXqXqXqXqXqXqXqXqXqXqXqXqXqXqX    : a F G d 7 * * 7 K u.n.O.t     $ q P 1.n.n.4.-.` [ ` ] 2.b.L.R.+X*X*XoX!.W.5.D ,     qXqXqXqXqXqXqXqXqX",
"qXqXqXqXqXqXqXqXqXqXqXqXqXqXqXqXqXqX    5 L ;.) r         r ) ;.) r         6 K >.4.5.>.o.O.;.4.B.T.:X6X9X6X=XT.K.n.>.Z ,     qXqXqXqXqXqXqXqXqX",
"qXqXqXqXqXqXqXqXqXqXqXqXqXqXqXqXqXqXqX  6 K X.L r O     + 5 u b Z b u 5 : - ; 1 Z | i.L.L.F.D.G.^.,X7X0X0X7X%XP.m.O.H u &   qXqXqXqXqXqXqXqXqXqX",
"qXqXqXqXqXqXqXqXqXqXqXqXqXqXqXqXqXqXqXqX; 8 r u a s k F j r ; + 5 A | -.o.G 1 # + M z.5X9X5X*X*X1X6X8X4X:X%X(.B.O.f 5 + . qXqXqXqXqXqXqXqXqXqXqX",
"qXqXqXqXqXqXqXqXqXqXqXqXqXqXqXqXqXqXqXqXqX    , Z ;.M.M.;.j &   & Z ;.n.M.>.s O   w g.9X0X0X9X8X9X9X4X=XT.K.B.;.Z ,     qXqXqXqXqXqXqXqXqXqXqXqX",
"qXqXqXqXqXqXqXqXqXqXqXqXqXqXqXqXqXqXqXqXqX    8 } B._.S.4._ u , 5 u H X.;.| j < & w ~ `.1X8X9X0X0X0X5XOXJ.4.X.Z 5 +     qXqXqXqXqXqXqXqXqXqXqXqX",
"qXqXqXqXqXqXqXqXqXqXqXqXqXqXqXqXqXqXqXqXqX    0 %.K.~.B.:.] ' L f 8 > > 5 r a j j M x N ~ c.:X9X9X5X<X~.n.o.h , .       qXqXqXqXqXqXqXqXqXqXqXqX",
"qXqXqXqXqXqXqXqXqXqXqXqXqXqXqXqXqXqXqXqXqX    y *.Y./.n.;.;.2.,.L 6         u | ;.G :   3 @.T.>X%X^.J.N.>.F ,         . qXqXqXqXqXqXqXqXqXqXqXqX",
"qXqXqXqXqXqXqXqXqXqXqXqXqXqXqXqXqXqXqXqXqX  . i t.%X>X!.u.O.| L Z u >       u ,.n.X.5   ,  .A.Q.p...P D Z t :       o X qXqXqXqXqXqXqXqXqXqXqXqX",
"qXqXqXqXqXqXqXqXqXqXqXqXqXqXqXqXqXqXqXqXqX    i t.>X9X>XF. .u , 6 A L a X   r ;.M.O.5   , | B.m.I 7 ; ; : , @ qXqXqXqXqXqXqXqXqXqXqXqXqXqXqXqXqX",
"qXqXqXqXqXqXqXqXqXqXqXqXqXqXqXqXqXqXqXqXqX    0 @.T.5X5XT. .2   : H >.L ,   > L ;.L ,   , H >.) r         . qXqXqXqXqXqXqXqXqXqXqXqXqXqXqXqXqXqX",
"qXqXqXqXqXqXqXqXqXqXqXqXqXqXqXqXqXqXqXqXqXqX  > M #.D./.^.r.b > < Z _ Z > . & u Z a = . & t Z f 5         o qXqXqXqXqXqXqXqXqXqXqXqXqXqXqXqXqXqX",
"qXqXqXqXqXqXqXqXqXqXqXqXqXqXqXqXqXqXqXqXqXqXqXo % 0 P <.A.A.,.L f u 8 ; o   X ; , ; X   . & , , & qXqXqXqXqXqXqXqXqXqXqXqXqXqXqXqXqXqXqXqXqXqXqX",
"qXqXqXqXqXqXqXqXqXqXqXqXqXqXqXqXqXqXqXqXqXqXqXqX    , Z >.n.m.;.D 5         .                   qXqXqXqXqXqXqXqXqXqXqXqXqXqXqXqXqXqXqXqXqXqXqXqX",
"qXqXqXqXqXqXqXqXqXqXqXqXqXqXqXqXqXqXqXqXqXqXqXqXqX  & e k L _ _ A 5         o                 qXqXqXqXqXqXqXqXqXqXqXqXqXqXqXqXqXqXqXqXqXqXqXqXqX",
"qXqXqXqXqXqXqXqXqXqXqXqXqXqXqXqXqXqXqXqXqXqXqXqXqXqX+ & : < 6 6 5 qXqXqXqXqXqXqXqXqXqXqXqXqXqXqXqXqXqXqXqXqXqXqXqXqXqXqXqXqXqXqXqXqXqXqXqXqXqXqX",
"qXqXqXqXqXqXqXqXqXqXqXqXqXqXqXqXqXqXqXqXqXqXqXqXqXqXqX            qXqXqXqXqXqXqXqXqXqXqXqXqXqXqXqXqXqXqXqXqXqXqXqXqXqXqXqXqXqXqXqXqXqXqXqXqXqXqX",
"qXqXqXqXqXqXqXqXqXqXqXqXqXqXqXqXqXqXqXqXqXqXqXqXqXqXqX            qXqXqXqXqXqXqXqXqXqXqXqXqXqXqXqXqXqXqXqXqXqXqXqXqXqXqXqXqXqXqXqXqXqXqXqXqXqXqX"
};
