/* XPM */
static char *_972469535_16756723921675672398[] = {
/* columns rows colors chars-per-pixel */
"72 72 219 2 ",
"   c #000000",
".  c #0B0300",
"X  c #0B0A00",
"o  c #010A00",
"O  c #120400",
"+  c #140A00",
"@  c #1B0D00",
"#  c #1B0700",
"$  c #1E1200",
"%  c #1D1B00",
"&  c #121000",
"*  c #220D00",
"=  c #241500",
"-  c #2A1600",
";  c #241D00",
":  c #2C1B00",
">  c #311B00",
",  c #3D1B00",
"<  c #371300",
"1  c #1E2700",
"2  c #252400",
"3  c #2B2300",
"4  c #2F2C00",
"5  c #232A00",
"6  c #332300",
"7  c #3A2500",
"8  c #332B00",
"9  c #3A2C00",
"0  c #2E3000",
"q  c #333300",
"w  c #3D3400",
"e  c #3A3B00",
"r  c #363A00",
"t  c #422500",
"y  c #442D00",
"u  c #4A2C00",
"i  c #4C2500",
"p  c #443500",
"a  c #4C3300",
"s  c #433D00",
"d  c #4A3D00",
"f  c #533400",
"g  c #5A3400",
"h  c #553B00",
"j  c #5E3B00",
"k  c #572E00",
"l  c #633B00",
"z  c #663A00",
"x  c #3D4200",
"c  c #444300",
"v  c #4A4100",
"b  c #434900",
"n  c #4A4B00",
"m  c #544600",
"M  c #584900",
"N  c #4C5100",
"B  c #535200",
"V  c #595400",
"C  c #5D5A00",
"Z  c #654200",
"A  c #6C4600",
"S  c #634A00",
"D  c #6D4900",
"F  c #734600",
"G  c #724A00",
"H  c #7A4900",
"J  c #655400",
"K  c #6A5400",
"L  c #615D00",
"P  c #6D5D00",
"I  c #7C5400",
"U  c #795800",
"Y  c #646400",
"T  c #666B00",
"R  c #6C6B00",
"E  c #6A6400",
"W  c #786800",
"Q  c #747300",
"!  c #797400",
"~  c #7D7C00",
"^  c #803F00",
"/  c #8D4A00",
"(  c #884500",
")  c #825500",
"_  c #835A00",
"`  c #8B5D00",
"'  c #945300",
"]  c #935F00",
"[  c #9D5D00",
"{  c #846300",
"}  c #8B6300",
"|  c #8B6D00",
" . c #836D00",
".. c #936200",
"X. c #9C6500",
"o. c #946C00",
"O. c #847200",
"+. c #897800",
"@. c #9B7500",
"#. c #927A00",
"$. c #9C7D00",
"%. c #937300",
"&. c #A36400",
"*. c #A66E00",
"=. c #AA6E00",
"-. c #AA6500",
";. c #A47400",
":. c #AB7300",
">. c #AE7B00",
",. c #B27400",
"<. c #B37D00",
"1. c #BA7A00",
"2. c #B97700",
"3. c #7D8900",
"4. c #848300",
"5. c #858700",
"6. c #978300",
"7. c #9D8400",
"8. c #918F00",
"9. c #959000",
"0. c #9B9600",
"q. c #9D9900",
"w. c #A28400",
"e. c #AC8300",
"r. c #AA8D00",
"t. c #A78A00",
"y. c #B28200",
"u. c #B48C00",
"i. c #B98B00",
"p. c #BB8600",
"a. c #A29400",
"s. c #A39E00",
"d. c #AA9500",
"f. c #BC9300",
"g. c #BF9A00",
"h. c #B69600",
"j. c #A4A300",
"k. c #A6AB00",
"l. c #AAAB00",
"z. c #AAA500",
"x. c #B3AC00",
"c. c #BDAC00",
"v. c #B7A300",
"b. c #AEB300",
"n. c #B5B400",
"m. c #BABB00",
"M. c #BCB100",
"N. c #C38300",
"B. c #C38C00",
"V. c #CB8D00",
"C. c #CA8700",
"Z. c #D28D00",
"A. c #C49300",
"S. c #CD9200",
"D. c #C49B00",
"F. c #C99A00",
"G. c #D59C00",
"H. c #DC9800",
"J. c #E19400",
"K. c #C6A100",
"L. c #CDA500",
"P. c #CDAA00",
"I. c #C2AE00",
"U. c #D5A300",
"Y. c #DAA300",
"T. c #D4AC00",
"R. c #DBAB00",
"E. c #C3BC00",
"W. c #CBB500",
"Q. c #D3B200",
"!. c #DFB700",
"~. c #DABA00",
"^. c #D3BD00",
"/. c #E4A500",
"(. c #E5B400",
"). c #E2BD00",
"_. c #EABA00",
"`. c #EAB500",
"'. c #F2B200",
"]. c #F5BF00",
"[. c #FEBB00",
"{. c #F4AE00",
"}. c #C4C300",
"|. c #CDCA00",
" X c #C7C900",
".X c #DBC300",
"XX c #D2CC00",
"oX c #DEC900",
"OX c #DED600",
"+X c #D8D500",
"@X c #E3C400",
"#X c #ECC500",
"$X c #E3CD00",
"%X c #E9CE00",
"&X c #F3C100",
"*X c #FCC300",
"=X c #F4CD00",
"-X c #FECB00",
";X c #E6D300",
":X c #ECD400",
">X c #E4DC00",
",X c #ECDC00",
"<X c #F1D500",
"1X c #FDD200",
"2X c #F3DB00",
"3X c #FDDB00",
"4X c #E3E300",
"5X c #ECE300",
"6X c #EDEC00",
"7X c #E7E800",
"8X c #F4E400",
"9X c #FEE500",
"0X c #F5EC00",
"qX c #FCEC00",
"wX c #F5F100",
"eX c #FEF600",
"rX c #FFFE00",
"tX c #F6F900",
"yX c None",
/* pixels */
"yXyXyXyXyXyXyXyXyXyXyXyXyXyXyXyXyXyXyXyXyXyXyXyXyXyXyXyXyXyXyXyXyXyXyXyXyXyXyXyXyXyXyXyXyXyXyXyXyXyXyXyXyXyXyXyXyXyXyXyXyXyXyX      yXyXyXyXyXyX",
"yXyXyXyXyXyXyXyXyXyXyXyXyXyXyXyXyXyXyXyXyXyXyXyXyXyXyXyXyXyXyXyXyXyXyXyXyXyXyXyXyXyXyXyXyXyXyXyXyXyXyXyXyXyXyXyXyXyXyXyXyXyXyX      yXyXyXyXyXyX",
"yXyXyXyXyXyXyXyXyXyXyXyXyXyXyXyXyXyXyXyXyXyXyXyXyXyXyXyXyXyXyXyXyXyXyXyXyXyXyXyXyXyXyXyXyXyXyXyXyXyXyXyXyXyXyXyXyXyXyXyXyXyX        yXyXyXyXyXyX",
"yXyXyXyXyXyXyXyXyXyXyXyXyXyXyXyXyXyXyXyXyXyXyXyXyXyXyXyXyXyXyXyXyXyXyXyXyXyXyXyXyXyXyXyXyXyXyXyXyXyXyXyXyXyXyXyXyXyXyXyXyX. .       yXyXyXyXyXyX",
"yXyXyXyXyXyXyXyXyXyXyXyXyXyXyXyXyXyXyXyXyXyXyXyXyXyXyXyXyXyXyXyXyXyXyXyXyXyXyXyXyXyXyXyXyXyXyXyXyXyXyXyXyXyXyXyXyXyXyXyX            yXyXyXyXyXyX",
"yXyXyXyXyXyXyXyXyXyXyXyXyXyXyXyXyXyXyXyXyXyXyXyXyXyXyXyXyXyXyXyXyXyXyXyXyXyXyXyXyXyXyXyXyXyXyXyXyXyXyXyXyXyXyXyXyXyXyX              yXyXyXyXyXyX",
"yXyXyXyXyXyXyXyXyXyXyXyXyXyXyXyXyXyXyXyXyXyXyXyXyXyXyXyXyXyXyXyXyXyXyXyXyXyXyXyXyXyXyXyXyXyXyXyXyXyXyXyXyXyXyXyXyXyX                yXyXyXyXyXyX",
"yXyXyXyXyXyXyXyXyXyXyXyXyXyXyXyXyXyXyXyXyXyXyXyXyXyXyXyXyXyXyXyXyXyXyXyXyXyXyXyXyXyXyXyXyXyXyXyXyXyXyXyXyXyXyXyXyX                  yXyXyXyXyXyX",
"yXyXyXyXyXyXyXyXyXyXyXyXyXyXyXyXyXyXyXyXyXyXyXyXyXyXyXyXyXyXyXyXyXyXyXyXyXyXyXyXyXyXyXyXyXyXyXyXyXyXyXyXyXyXyXyX% 8 9 9 9 > $ X     yXyXyXyXyXyX",
"yXyXyXyXyXyXyXyXyXyXyXyXyXyXyXyXyXyXyXyXyXyXyXyXyXyXyXyXyXyXyXyXyXyXyXyXyXyXyXyXyXyXyXyXyXyXyXyXyXyXyXyXyXyXyX  8 S | @.o.G y $     yXyXyXyXyXyX",
"yXyXyXyXyXyXyXyXyXyXyXyXyXyXyXyXyXyXyXyXyXyXyXyXyXyXyXyXyXyXyXyXyXyXyXyXyXyXyXyXyXyXyXyXyXyXyXyXyXyXyXyXyXyX    w #.!.-X/.=.j =     yXyXyXyXyXyX",
"yXyXyXyXyXyXyXyXyXyXyXyXyXyXyXyXyXyXyXyXyXyXyXyXyXyXyXyXyXyXyXyXyXyXyXyXyXyXyXyXyXyXyXyXyXyXyXyXyXyXyXyXyX  O 9 W M.9XeX-XN.F >     yXyXyXyXyXyX",
"yXyXyXyXyXyXyXyXyXyXyXyXyXyXyXyXyXyXyXyXyXyXyXyXyXyXyXyX                                      yXyXyXyXyX  = h | c.>XeXeX-XC.F >     yXyXyXyXyXyX",
"yXyXyXyXyXyXyXyXyXyXyXyXyXyXyXyXyXyXyXyXyXyXyXyXyXyXyX                                          yXyXyX    8 | !.eXrXeX2XR.=.z =     yXyXyXyXyXyX",
"yXyXyXyXyXyXyXyXyXyXyXyXyXyXyXyXyXyXyXyXyXyXyXyXyXyX+ * = - 6 9 p s c c c c c c c s w 9 8 : = @ yXyXyX+ 9 P v.qXrXrX0XW.$.D , #   yXyXyXyXyXyXyX",
"yXyXyX                                              = t l G _ | 6.q.s.j.j.s.j.j.s.a.6.| _ H l , O   % h | v.;XrXrXrX;Xr.J 6 O   yXyXyXyXyXyXyXyX",
"yXyXyX                                              : D :.B.Y.!.%X0XeXrXeXeXeXrXeX8X%X).Y.S.*.j +   4 | ).9XeXeXeX9X!.| 9     yXyXyXyXyXyXyXyXyX",
"yXyXyX                + = 7 p n n n b b c n c e q c P e.R.*X3X9XqXrXrXrXrXrXrXrXrXeXeX9X9X-XR.%.f 9 J v.qXrXeX8X2X-XY.} 6     yXyXyXyXyXyXyXyXyX",
"yXyXyXyXyX            = f ) $.d.k.k.k.j.s.s.a.q.q.j.c..X2X9XeXeXeXrXrXrXrXrXrXrXrXrXeXeXeXeX2XP.$.| a.XXeXrX5X@X_.'.V.) 6     yXyXyXyXyXyXyXyXyX",
"yXyXyXyXyXyX.         - z :.U.<XeXrXrXeXwXeXeXeXeXeXeXeXeXeXeXeXeXeXeXeXeXeXeXeXeXeXeXeXeXrXeX2X@X!.#X8XeXeX:X).Y.S.*.Z :     yXyXyXyXyXyXyXyXyX",
"yXyXyXyXyXyXyX        @ i I u.;XrXeXrXrXeXrXrXrXrXrXrXrXrXrXrXeXtXwXwX0X0XwX0X0XwXwXwXeXrXrXrXeXqX9X9X0X0X9X1X_.S...Z t @ . yXyXyXyXyXyXyXyXyXyX",
"yXyXyXyXyXyXyXyX        + 6 U A.&X9XeXeXtXrXrXrXrXrXrXrXrXrXrXeXeXeXeXeXwXeXeXeXeXeXeXeXrXeXrXrXeXeXqX,X2X9X9X=Xu.S :     yXyXyXyXyXyXyXyXyXyXyX",
"yXyXyXyXyXyXyXyXyX.         6 D :.B.G.).%XqXeXrXrXeXeXeXeXeXeXeXeXeXeXeXrXeXeXeXeXeXeXeXeXeXeXrXrXeX8X@X!._.-X!.#.w     yXyXyXyXyXyXyXyXyXyXyXyX",
"yXyXyXyXyXyXyXyXyX          # < i z I %.d.I.^.oX;X:X,X0XeXeXeXeXeXeXeXeXeXeXeXeXrXeXeXeXeX0XeXrXrXtX,XT.B.p.u.w.E 8   yXyXyXyXyXyXyXyXyXyXyXyXyX",
"yXyXyXyXyXyXyXyXyXyXyXyXyXyXyX  . + ; p K %.y.D.T.@X:X8XeXeXrXeXeXeXeXeXeXeXrXeXeXeXeXeXeXwXeXrXrXeX<XU.=.) Z d q % yXyXyXyXyXyXyXyXyXyXyXyXyXyX",
"yXyXyXyXyXyXyXyXyXyXyXyXyXyXyX.         : G *.V.Y.!.%XqXeXrXrXeXeXeXeXeXeXeXeXeXeXeXeXeXeXeXeXrXrXeX2XT.*.l =     yXyXyXyXyXyXyXyXyXyXyXyXyXyXyX",
"yXyXyXyXyXyXyXyXyXyXyXyXyXyXyXn x 1 o   > ) B./.).).;X8XeXrXeXeXeXeXeXeXeXeXeXeXeXeXeXeXeXeXeXrXrXeX9X#Xi.U 3     yXyXyXyXyXyXyXyXyXyXyXyXyXyXyX",
"yXyXyXyXyXyXyXyXyXyXyXyXyX  B 0.j.Q 5   - o.(.1X1X:X5X0XeXeXrXeXeXeXeXeXeXeXrXeXrXeXeXeXeXeXeXeXeXeXeXeXoX+.w     yXyXyXyXyXyXyXyXyXyXyXyXyXyXyX",
"yXyXyXyXyXyXyXyXyXyXyXyX    V E.eX}.n   @ W !.9XeXeXtXeXeXeXeXeXeXeXeXeXeXrXeXeXeXrXeXeXeXeXeXwX0XeXrXrXeXj.c     yXyXyXyXyXyXyXyXyXyXyXyXyXyXyX",
"yXyXyXyXyXyXyXyXyXyXyXyX    B m.rX6Xq.B p S %.c.>XrXrXrXeXwXeXeXrXeXeXeXeXeXeXeXeXeXeXeXeXeXeXeXwXeXrXrXrXE.O.d = . yXyXyXyXyXyXyXyXyXyXyXyXyXyX",
"yXyXyXyXyXyXyXyXyXyXyXyX    n k.rXrXtXx.P 8 3 C n.rXrXrX0X0X0XeXeXeXrXeXeXeXeXeXeXeXeXeXeXrXeXeXeXeXrXrXrX5XW.$.S 3   yXyXyXyXyXyXyXyXyXyXyXyXyX",
"yXyXyXyXyXyXyXyXyXyXyXyX    c 0.eXrXrXeX9.4   4 q.eXrXrXeXwXeXeXeXeXeXeXeXeXeXrXeXrXeXeXeXeXeXeXeXeXeXtXeXeX9X).| 9     yXyXyXyXyXyXyXyXyXyXyXyX",
"yXyXyXyXyXyXyXyXyXyXyXyX    s 9.0XrXrXrXn.T q 8 C 0.|.6XrXrXrXeXeXeXeXeXeXeXeXeXeXeXeXeXeXeXeXeXeXeXeXwXwXeXrX1Xw.p     yXyXyXyXyXyXyXyXyXyXyXyX",
"yXyXyXyXyXyXyXyXyXyXyXyX    c 0.0XrXrXrX7X|.q.Y 8 4 Y m.rXrXrXwX0X0XeXeXeXrXeXeXeXeXeXrXeXeXeXeXeXrXeXwXeXrXeX1X7.p     yXyXyXyXyXyXyXyXyXyXyXyX",
"yXyXyXyXyXyXyXyXyXyXyXyX    c j.eXrXrXeXrXrXeXq.4   4 q.eXrXrXeX0XeXeXeXeXrXeXeXeXrXeXeXeXeXeXeXeXeXtXeXeXeX9X).| 9     yXyXyXyXyXyXyXyXyXyXyXyX",
"yXyXyXyXyXyXyXyXyXyXyXyX    b j.rXrXrX0XtXrXrXm.Y 4 8 L q.|.6XrXrXrXwXwXeXeXeXeXeXeXeXeXeXeXeXeXeXeXrXrXeX9X=XD.U 8     yXyXyXyXyXyXyXyXyXyXyXyX",
"yXyXyXyXyXyXyXyXyXyXyXyX    b j.rXrXrX0X0XrXrX6X|.q.L 8 4 Y m.rXrXrX0X0XwXeXeXeXeXeXeXeXeXeXeXwX0XeXrXrXrX8X).>.A -     yXyXyXyXyXyXyXyXyXyXyXyX",
"yXyXyXyXyXyXyXyXyXyXyXyX    d s.eXrXrXeX0X0XtXrXrXeXq.4   4 q.eXrXrXeXwXeXeXeXeXeXeXeXeXeXeXeXeXeXeXrXrXeX2XR.*.l =     yXyXyXyXyXyXyXyXyXyXyXyX",
"yXyXyXyXyXyXyXyXyXyXyXyXyX  8 T j.XX6XrXrXwX0XrXrXrXm.T 4 4 C 0.|.6XrXrXrXeXeXwXeXeXeXeXeXeXrXrXeXrXrXeX9X<X/.,.z -     yXyXyXyXyXyXyXyXyXyXyXyX",
"yXyXyXyXyXyXyXyXyXyXyXyXyXyXX ; c ~ }.rXrXrX0XwXrXrX6X|.q.C 3 5 C n.rXrXrXeX0XeXeX0XeXwXeXeXrXrXrXrXtX0X<X&X/.2.F >     yXyXyXyXyXyXyXyXyXyXyXyX",
"yXyXyXyXyXyXyXyXyXyXyXyXyXyXyX    c j.eXrXrXeX0X0XeXrXrXeXq.8   0 q.eXrXrXeXwXeXeXeXeXeXeXeXeXeXrXeX9X;X!.U.V.:.l :     yXyXyXyXyXyXyXyXyXyXyXyX",
"yXyXyXyXyXyXyXyXyXyXyXyXyXyXyXyX  q ! x.OXwXrXrXwX0XrXrXrX}.Q c c R j.XX6XeXrXrXrXrXrXrXeXwX0X9X,X$X@XT.A.>.} Z y $   yXyXyXyXyXyXyXyXyXyXyXyXyX",
"yXyXyXyXyXyXyXyXyXyXyXyXyXyXyXyXyXX 3 n +. XrXrXrXtXeXrXrXtX5XE.+.c x T m.rXrXrXrXrXrXrXeX9X:X).P.D.A.V.<.I a = X yXyXyXyXyXyXyXyXyXyXyXyXyXyXyX",
"yXyXyXyXyXyXyXyXyXyXyXyXyXyXyXyXyXyX    x j.eXrXrXeX0X0XeXrXrXeXq.4   4 q.eXrXrXeXeXtXeX9X:X).F.>.=.,.1.*.D 3     yXyXyXyXyXyXyXyXyXyXyXyXyXyXyX",
"yXyXyXyXyXyXyXyXyXyXyXyXyXyXyXyXyXyX    2 V q.XX6XeXrXrXrXtXwX XQ 3 + d d.9XrXqX;X.X$X;X.XT.A.,.[ ' &.2.,._ y @   yXyXyXyXyXyXyXyXyXyXyXyXyXyXyX",
"yXyXyXyXyXyXyXyXyXyXyXyXyXyXyXyXyXyX      X 4 Q E.eXrXrXrX X5.N 8 7 l @.Q.2X<X~.D.h.g.D.D.i.<.X.' ' =.B.A.e._ j 7 $ X yXyXyXyXyXyXyXyXyXyXyXyXyX",
"yXyXyXyXyXyXyXyXyXyXyXyXyXyXyXyXyXyXX         n z.eXrXrXeXq.r   . k =.H.).).U.i.*.X.&.:.:.=.*.&.X.*.p.L.!.(.G.:.z -     yXyXyXyXyXyXyXyXyXyXyXyX",
"yXyXyXyXyXyXyXyXyXyXyXyXyXyXyXyXyXyX        4 ! |.eXrXOXq.V : # , H ,.Z.S.B.<.&.' / / ' [ *.>.<.p.D.Q.$X2X3X-XH._ 6     yXyXyXyXyXyXyXyXyXyXyXyX",
"yXyXyXyXyXyXyXyXyXyXyXyXyXyXyXyXyXyX    ; n 9.>XrXeX}.R 8 = u F ` [ &.=.:.=.*.[ ' / / ' X.,.A.U.~.$X,X0X0XeX9X(.o.9     yXyXyXyXyXyXyXyXyXyXyXyX",
"yXyXyXyXyXyXyXyXyXyXyXyXyXyXyXyXyXyX    s q.eXrXrXeXq.r   O j *.N.2.:.&.*.*.*.*.:.&.X.*.<.F.!.<X8XeXrXtXeXeX9X).| 9     yXyXyXyXyXyXyXyXyXyXyXyX",
"yXyXyXyXyXyXyXyXyXyXyXyXyXyXyXyXyX% w L 9. XrXrXrXwXn.T q 3 a _ >.D.T.T.D.i.u.g.K.K.K.L.~.#X8XqXeXrXrXrXeX3X#XF.@.K s 3 & yXyXyXyXyXyXyXyXyXyXyX",
"yXyXyXyXyXyXyXyXyXyXyXyXyXyXyX    e 5.|.wXrXrXrXrXwX>X|.s.L 8 6 K c.qXeX2X.X^.oX;X>X,X8X8XwXeXrXrXrXeXeX2X!.D.e.>.e.$.P 9   yXyXyXyXyXyXyXyXyXyX",
"yXyXyXyXyXyXyXyXyXyXyXyXyXyXyX    c s.eXrXrXeX0X0XeXrXrXeXq.4   0 0.eXrXrXeXwXeXeXeXeXeXeXeXeXrXrXeX0X<X).B.:.*.B._.!.6.w     yXyXyXyXyXyXyXyXyX",
"yXyXyXyXyXyXyXyXyXyXyXyXyXyXyX    v 0.XXXXb.q.k.XXrXrXrXrXz.v X ; Y b.4XtXrXrXrXeX0X8X8X,X>X:X;X$XoXQ.L.B.,.&.<.Y.1X1Xr.c     yXyXyXyXyXyXyXyXyX",
"yXyXyXyXyXyXyXyXyXyXyXyXyXyXyXyXyXe L Y n 0 q T m.rXrXrX3XK.} f - ; x 3. XrXrXeX,X.XQ.P.K.K.K.D.D.u.y.:.=.=.>.D.#X3X=X7.s     yXyXyXyXyXyXyXyXyX",
"yXyXyXyXyXyXyXyXyXyXyXyXyXyXyXyXyXyXX         B m.eXrX9X!.G.S.:.g . o x k.eXrX9X(.A.<.*.&.&.*.=.:.*.&.&.:.y.D.!.-X3X!.%.9     yXyXyXyXyXyXyXyXyX",
"yXyXyXyXyXyXyXyXyXyXyXyXyXyXyXyXyXyXo     . @ d ! j.E..X_.[.*X/..., O ; T x.oX).H.N.&./ ( / ' [ &.=.>.p.g.P.~.#X1X-XU.{ 8     yXyXyXyXyXyXyXyXyX",
"yXyXyXyXyXyXyXyXyXyXyXyXyXyXyXyXyXyX    = f F S w e Y h.-X9X3X].B.` g 7 9 n W y.C.N.-./ z ( ' &.,.i.L.~.$X;X;X#X&X'.S.I 6     yXyXyXyXyXyXyXyXyX",
"yXyXyXyXyXyXyXyXyXyXyXyXyXyXyXyXyXyX    7 _ =.H =   3 | !.1X=X).Y.S.*.j @   = A :.p.2.*.=.X.*.<.S.!.2X0XeX0X:X!.Y.V.*.l :     yXyXyXyXyXyXyXyXyX",
"yXyXyXyXyXyXyXyXyXyXyXyXyXyXyXyXyXyXyXX a U ..F , O = m O.6.6.7.A.Y.Z...7     = j o.D.!.!.U.K.P.@X8XeXrXrX8X@XF.>...D u $   yXyXyXyXyXyXyXyXyXyX",
"yXyXyXyXyXyXyXyXyXyXyXyXyXyXyXyXyXyXyXyX; 7 p f j g u 8 ; % 5 v } C.S.X.a       + J I.qXrX9X;X>X0XrXrXwX2X@XU.<.) f : @   yXyXyXyXyXyXyXyXyXyXyX",
"yXyXyXyXyXyXyXyXyXyXyXyXyXyXyXyXyXyXyXyXyX    7 I *.` y         y ` :.` p         m n.eXrXrXeXwXeXeX9X:X!.Y.S.:.Z :     yXyXyXyXyXyXyXyXyXyXyXyX",
"yXyXyXyXyXyXyXyXyXyXyXyXyXyXyXyXyXyXyXyXyX    y ..Z.V.{ w X     $ 9 j A M a > = > m 5.m.4XeXeX0X,X$X~.T.Y.H.Z.:.A :     yXyXyXyXyXyXyXyXyXyXyXyX",
"yXyXyXyXyXyXyXyXyXyXyXyXyXyXyXyXyXyXyXyXyX    7 ) V.{./.t.P 3       @ y D ` ..] I M v B 5.E.2X<XP.u.e.p.S.J.J.2.H >     yXyXyXyXyXyXyXyXyXyXyXyX",
"yXyXyXyXyXyXyXyXyXyXyXyXyXyXyXyXyXyXyXyXyX    = j :./.*X).w.d         6 H :.C.C.:.j +   9 #.!._.S.=...X.*.2.p.=.A :     yXyXyXyXyXyXyXyXyXyXyXyX",
"yXyXyXyXyXyXyXyXyXyXyXyXyXyXyXyXyXyXyXyXyXyX. $ t Z } w.r.w. .M 9 2 : y Z _ *.:.` f X   8 | U.'./.N.X.H Z Z D D h : . yXyXyXyXyXyXyXyXyXyXyXyXyX",
"yXyXyXyXyXyXyXyXyXyXyXyXyXyXyXyXyXyXyXyXyXyXyX@ ; : 3 8 v W r.g.f.;.I l a y y a y =     6 ) C.[.*X(.>.S : + = : 3 = yXyXyXyXyXyXyXyXyXyXyXyXyXyX",
"yXyXyXyXyXyXyXyXyXyXyXyXyXyXyXyXyXyXyXyXyXyXyXyX.         v 7.!.&XH.:.l :               - Z =.Y.].).7.d         X yXyXyXyXyXyXyXyXyXyXyXyXyXyXyX",
"yXyXyXyXyXyXyXyXyXyXyXyXyXyXyXyXyXyXyXyXyXyXyXyXyX        d O.t.i.;.) f =             . $ 7 Z } $.6.W s         yXyXyXyXyXyXyXyXyXyXyXyXyXyXyXyX",
"yXyXyXyXyXyXyXyXyXyXyXyXyXyXyXyXyXyXyXyXyXyXyXyXyXyXyXyXyXyXs d d a 9 = X             o X @ : 6 w s w yXyXyXyXyXyXyXyXyXyXyXyXyXyXyXyXyXyXyXyXyX",
"yXyXyXyXyXyXyXyXyXyXyXyXyXyXyXyXyXyXyXyXyXyXyXyXyXyXyXyXyXyX                                          yXyXyXyXyXyXyXyXyXyXyXyXyXyXyXyXyXyXyXyXyX",
"yXyXyXyXyXyXyXyXyXyXyXyXyXyXyXyXyXyXyXyXyXyXyXyXyXyXyXyXyXyX            o . . . .                     yXyXyXyXyXyXyXyXyXyXyXyXyXyXyXyXyXyXyXyXyX"
};
