/* XPM */
static char *_57939766_16756723941675672398[] = {
/* columns rows colors chars-per-pixel */
"72 72 227 2 ",
"   c #000000",
".  c #0C0400",
"X  c #0B0A00",
"o  c #050800",
"O  c #150501",
"+  c #140B00",
"@  c #1A0D00",
"#  c #141200",
"$  c #1C1300",
"%  c #1E1B00",
"&  c #2A0E00",
"*  c #241400",
"=  c #2B1600",
"-  c #241C00",
";  c #2A1A00",
":  c #361B01",
">  c #2D2200",
",  c #2D2B00",
"<  c #262500",
"1  c #332300",
"2  c #3A2400",
"3  c #342B00",
"4  c #392C00",
"5  c #2E3200",
"6  c #333300",
"7  c #3D3500",
"8  c #3C3C00",
"9  c #333A00",
"0  c #240B25",
"q  c #442C00",
"w  c #462A00",
"e  c #542C00",
"r  c #433200",
"t  c #433D00",
"y  c #4B3D00",
"u  c #4B3104",
"i  c #543400",
"p  c #5B3600",
"a  c #5D3B00",
"s  c #533A00",
"d  c #623A01",
"f  c #6A3E00",
"g  c #613600",
"h  c #703E00",
"j  c #444300",
"k  c #4E4300",
"l  c #4B4C00",
"z  c #474900",
"x  c #5C4300",
"c  c #564700",
"v  c #585600",
"b  c #664100",
"n  c #6D4500",
"m  c #6C4C00",
"M  c #654C00",
"N  c #774C00",
"B  c #6A5600",
"V  c #755200",
"C  c #7D5300",
"Z  c #7B5E00",
"A  c #725D00",
"S  c #6B6500",
"D  c #686700",
"F  c #756700",
"G  c #7A7A00",
"H  c #757500",
"J  c #140B4F",
"K  c #2F3061",
"L  c #5E6151",
"P  c #6C724F",
"I  c #CF1A00",
"U  c #D10617",
"Y  c #D73F00",
"T  c #DE3624",
"R  c #E4273D",
"E  c #825500",
"W  c #8C5D00",
"Q  c #855A01",
"!  c #935C00",
"~  c #9A5C00",
"^  c #955500",
"/  c #914C00",
"(  c #846900",
")  c #8B6E00",
"_  c #866300",
"`  c #9B6200",
"'  c #966900",
"]  c #867400",
"[  c #957C00",
"{  c #9B7B00",
"}  c #977700",
"|  c #98601D",
" . c #A16500",
".. c #A66E00",
"X. c #AB6E00",
"o. c #AA6400",
"O. c #A47300",
"+. c #AB7300",
"@. c #AE7D00",
"#. c #A37C00",
"$. c #B37500",
"%. c #B37B00",
"&. c #BB7B00",
"*. c #DA5B00",
"=. c #DC6600",
"-. c #DE7100",
";. c #E47C00",
":. c #F1781D",
">. c #E34024",
",. c #F25B4D",
"<. c #898600",
"1. c #958500",
"2. c #9C9500",
"3. c #9D9A00",
"4. c #969300",
"5. c #A48300",
"6. c #A48B00",
"7. c #AB8B00",
"8. c #AC8100",
"9. c #B58400",
"0. c #BA8400",
"q. c #B68A00",
"w. c #BC8C00",
"e. c #AD9100",
"r. c #A39E00",
"t. c #A69700",
"y. c #BD9400",
"u. c #BC9B00",
"i. c #B59800",
"p. c #B0911D",
"a. c #9DA000",
"s. c #A3A300",
"d. c #AAAB00",
"f. c #ACA300",
"g. c #B3AC00",
"h. c #BAA700",
"j. c #AEB100",
"k. c #B2B100",
"l. c #BDBA00",
"z. c #BAB600",
"x. c #B6B626",
"c. c #C18C00",
"v. c #C78700",
"b. c #D18B00",
"n. c #C49500",
"m. c #CD9200",
"M. c #C39B00",
"N. c #CC9C00",
"B. c #D19600",
"V. c #D39A00",
"C. c #DE9700",
"Z. c #E78E08",
"A. c #CCA400",
"S. c #C5A800",
"D. c #D4A400",
"F. c #DAA500",
"G. c #D4AB00",
"H. c #DBAB00",
"J. c #CEB100",
"K. c #C6BB00",
"L. c #D5B400",
"P. c #DFB600",
"I. c #DBBB00",
"U. c #D3BB00",
"Y. c #E0AC00",
"T. c #E9A800",
"R. c #EBB500",
"E. c #E2BC00",
"W. c #ECBB00",
"Q. c #E5B400",
"!. c #F3BE00",
"~. c #F9B703",
"^. c #F8AC0F",
"/. c #DA993E",
"(. c #F08E31",
"). c #C3C200",
"_. c #CDCB00",
"`. c #CBC400",
"'. c #DCC300",
"]. c #D2CE00",
"[. c #DECB00",
"{. c #D4C200",
"}. c #DBD600",
"|. c #E4C200",
" X c #ECC300",
".X c #E3CB00",
"XX c #EACD00",
"oX c #F4C300",
"OX c #FDC500",
"+X c #F5CC00",
"@X c #FDCB00",
"#X c #E5D300",
"$X c #ECD400",
"%X c #ECDB00",
"&X c #E6D900",
"*X c #F2D500",
"=X c #FCD500",
"-X c #F2DC00",
";X c #FEDC00",
":X c #F9CB10",
">X c #E6E300",
",X c #EDE200",
"<X c #EDED00",
"1X c #F4E400",
"2X c #FDE400",
"3X c #F5EC00",
"4X c #FCEC00",
"5X c #F6F200",
"6X c #FEF600",
"7X c #FFFE00",
"8X c #F7FD00",
"9X c #FFDB24",
"0X c #FFFF26",
"qX c #FD9056",
"wX c #FEAB47",
"eX c #FFFF4F",
"rX c #EDEF4F",
"tX c #FFFF61",
"yX c #D6D64F",
"uX c #524EA8",
"iX c #B0B1AA",
"pX c #FFFFA9",
"aX c #D3D7A8",
"sX c #9C9DCF",
"dX c #FFFFCF",
"fX c white",
"gX c None",
/* pixels */
"gXgXgXgXgXgXgXgXgXgXgXgXgXgXgXgXgXgXgXgXgXgXgXgX                        gXgXgXgXgXgXgXgXgXgXgXgXgXgXgXgXgXgXgXgXgXgXgXgXgXgXgXgXgXgXgXgXgXgXgXgX",
"gXgXgXgXgXgXgXgXgXgXgXgXgXgXgXgXgXgXgXgXgXgXgXgX                        gXgXgXgXgXgXgXgXgXgXgXgXgXgXgXgXgXgXgXgXgXgXgXgXgXgXgXgXgXgXgXgXgXgXgXgX",
"gXgXgXgXgXgXgXgXgXgXgXgXgXgXgXgXgXgXgXgXgXgXgXgXgX              X * ; ; gXgXgXgXgXgXgXgXgXgXgXgXgXgXgXgXgXgXgXgXgXgXgXgXgXgXgXgXgXgXgXgXgXgXgXgX",
"gXgXgXgXgXgXgXgXgXgXgXgXgXgXgXgXgXgXgXgXgXgXgXgXgXgX            = s b x 1         gXgXgXgXgXgXgXgXgXgXgXgXgXgXgXgXgXgXgXgXgXgXgXgXgXgXgXgXgXgXgX",
"gXgXgXgXgXgXgXgXgXgXgXgXgXgXgXgXgXgXgXgXgXgXgXgXgXgXgXX         q Q X.Q q         . gXgXgXgXgXgXgXgXgXgXgXgXgXgXgXgXgXgXgXgXgXgXgXgXgXgXgXgXgXgX",
"gXgXgXgXgXgXgXgXgXgXgXgXgXgXgXgXgXgXgXgXgXgXgXgXgXgXgXgX        q ` b.c.( j 5 3 3 1 $ gXgXgXgXgXgXgXgXgXgXgXgXgXgXgXgXgXgXgXgXgXgXgXgXgXgXgXgXgX",
"gXgXgX      gXgXgXgXgXgXgXgXgXgXgXgXgXgXgXgXgXgXgXgXgXgXgX      2 ^ b.Y.S.a.4.1._ x ;   gXgXgXgXgXgXgXgXgXgXgXgXgXgXgXgXgXgXgXgXgXgXgXgXgXgXgXgX",
"gXgXgX      gXgXgXgXgXgXgXgXgXgXgXgXgXgXgXgXgXgXgXgXgXgXgXgX    * g O.H.-X6X7X6XE.) 4     gXgXgXgXgXgXgXgXgXgXgXgXgXgXgXgXgXgXgXgXgXgXgXgXgXgXgX",
"gXgX, t j 8 , gXgXgXgXgXgXgXgXgXgXgXgXgXgXgXgXgXgXgXgXgXgXgXgX  O : n { `.7X7X7X7Xl.] k ; # gXgXgXgXgXgXgXgXgXgXgXgXgXgXgXgXgXgXgXgXgXgXgXgXgXgX",
"    j <.r.<.j   gXgXgXgXgXgXgXgXgXgXgXgXgXgXgXgXgXgXgXgXgXgXgXgX    ; B g.6X7X7X7X%XU.e.Z 7 X gXgXgXgXgXgXgXgXgXgXgXgXgXgXgXgXgXgXgXgXgXgXgXgXgX",
"    v ).6XK.v     gXgXgXgXgXgXgXgXgXgXgXgXgXgXgXgXgXgXgXgXgXgXgXgX    7 ) E.2X6X6X6X2XP.) 4     gXgXgXgXgXgXgXgXgXgXgXgXgXgXgXgXgXgXgXgXgXgXgXgX",
"    l l.7X>X4.j # o gXgXgXgXgXgXgXgXgXgXgXgXgXgXgXgXgXgXgXgXgXgXgXgX  > x ( 1.4.a.g.h.6.m >       gXgXgXgXgXgXgXgXgXgXgXgXgXgXgXgXgXgXgXgXgXgXgX",
"    z d.7X7X>Xs.B ,   gXgXgXgXgXgXgXgXgXgXgXgXgXgXgXgXgXgXgXgXgXgXgXgXgX- > 3 5 9 7 7 4 * +               gXgXgXgXgXgXgXgXgXgXgXgXgXgXgXgXgXgXgX",
"    t 3.6X7X7X6X3.j     gXgXgXgXgXgXgXgXgXgXgXgXgXgXgXgXgXgXgXgXgXgXgXgX                                    gXgXgXgXgXgXgXgXgXgXgXgXgXgXgXgXgXgX",
"    t 4.<X7X7X7Xl.H j - X gXgXgXgXgXgXgXgXgXgXgXgXgXgXgXgXgXgXgXgXgXgXgX+ + @ @ * * < , 8 z l l t 4 1 = * * + gXgXgXgXgXgXgXgXgXgXgXgXgXgXgXgXgX",
"    t 3.3X7X7X7X>X_.s.S 3   gXgXgXgXgXgXgXgXgXgXgXgXgXgXgXgXgXgXgXgX  $ w p n V _ ] 4.3.d.j.k.f.1.) C N g w @   gXgXgXgXgXgXgXgXgXgXgXgXgXgXgXgX",
"    j s.6X7X7X6X7X7X6Xs.j     gXgXgXgXgXgXgXgXgXgXgXgXgXgXgXgXgXgX    = b ..b.H.P.XX3X6X7X7X6X3X$XE.F.b...b =     gXgXgXgXgXgXgXgXgXgXgXgXgXgXgX",
"    j s.7X7X7X3X7X7X7X).G j - X gXgXgXgXgXgXgXgXgXgXgXgXgXgXgXgX  . * e ! m.oX;X4X6X7X7X7X7X7X6X6X2X;X@XH.#.M 4 # X gXgXgXgXgXgXgXgXgXgXgXgXgXgX",
"    j s.7X7X7X3X5X6X7X<X].r.S 3   gXgXgXgXgXgXgXgX              @ : g Q %.F.+X2X7X7X7X7X7X7X7X7X7X6X6X2X-XP.i.) x -   gXgXgXgXgXgXgXgXgXgXgXgXgX",
"    j s.6X7X7X6X3X3X6X7X7X6Xs.j     gXgXgXgXgXgX                : n +.v.D.P.XX1X6X7X7X6X6X6X6X6X6X6X6X7X6X6X2XE.) 7     gXgXgXgXgXgXgXgXgXgXgXgX",
"    6 D s.].<X7X7X5X3X7X7X7X).G j % X gXgXgXgX      X * 2 7 7 z F 7.F.W.+XXX#X%X1X1X3X3X5X5X4X5X5X5X5X8X7X7X7X2Xi.M = .   gXgXgXgXgXgXgXgXgXgXgX",
"gXgXgX- j G ).7X7X7X3X5X7X7X<X_.s.F 6       X o     * e C } 3.d.l.].*X-X3X1X%XXX|.#X1X5X6X6X5X6X6X6X7X7X7X7X7X6X{.{ b : O   gXgXgXgXgXgXgXgXgXgX",
"gXgXgX    j s.6X7X7X6X3X3X6X7X7X6Xg.z               = f ..D.-X6X7X7X6X6X7X6X-X|.P.|.-X6X7X7X6X6X6X6X6X6X6X7X7X6X-XH...g *     gXgXgXgXgXgXgXgXgX",
"gXgXgXgX  , S r._.<X7X7X5X5X7X7X7X_.<.j % X         * i W y.#X6X7X7X7X7X7X7X3XXXE.XX1X6X7X7X6X6X6X6X5X4X5X6X7X8X2X@XB.C :     gXgXgXgXgXgXgXgXgX",
"gXgXgXgXgXX % j G ).7X7X7X5X6X7X7X5X].s.D ,         X @ q C w.!.2X6X7X7X7X7X5X1X-X-X3X6X6X6X7X6X6X6X5X3X5X5X8X7X6X;XF._ 2 o   gXgXgXgXgXgXgXgXgX",
"gXgXgXgXgXgX    j r.6X7X7X6X3X3X6X7X7X6Xg.l               = f O.D.*X6X7X7X6X6X6X5X7X6X6X6X6X6X6X6X6X6X6X6X6X6X6X6X2XP.) 4     gXgXgXgXgXgXgXgXgX",
"gXgXgXgXgXgXgX  9 D 3._.,X6X6X5X3X7X7X7X}.s.S 6 #         O : e m ] 3.l.&X2X6X6X7X7X7X7X7X6X6X6X6X6X6X7X7X7X5X5X6X6X$X1.7     gXgXgXgXgXgXgXgXgX",
"gXgXgXgXgXgXgXgXgX# 9 D l.6X7X7X5X3X7X7X7X6X}.<.7         X O O + # 6 S h.*X6X7X7X7X7X7X7X6X6X6X6X6X6X7X7X8X3X3X7X7X1Xt.j     gXgXgXgXgXgXgXgXgX",
"gXgXgXgXgXgXgXgXgX    j s.6X7X7X6X3X3X6X7X7X6Xk.l         X X         r } E.;X6X6X7X6X6X6X6X6X6X6X6X6X6X6X5X4X6X7X7X6Xs.j     gXgXgXgXgXgXgXgXgX",
"gXgXgXgXgXgXgXgXgX  * v g.6X7X7X6X5X7X7X5X}.K.<.j         # % * # # * s _ c.F.E.'.[.#X-X3X5X6X7X7X6X}.z.s.x.yXtXeX0X7Xg.B = .   gXgXgXgXgXgXgXgX",
"gXgXgXgXgXgXgX  * s _ i..X6X7X6X5X7X7X7X_.<.v 7 gXgXgX    * q m _ ( ) ) ' +.X.%.9.n.G.|.*X1X6X7X0X6Xg.v 8 L iXdXpXeX8XU.{ f : O   gXgXgXgXgXgXgX",
"gXgXgXgXgXgX    4 ) P.2X6X6X5X5X6X7X7X6X3.j     gXgXgX    = d O.V.Q.P.G.c.X.~ ` X.9.N.P.XX1X6X7X7X6X2.3   K sXfXdXtX6X:XF...d &     gXgXgXgXgXgX",
"gXgXgXgXgXX - y ] K.2X7X7X6X7X7X7X<X_.r.S ,   gXgXgXgX    ; f &.T.@X@X XG.w.8.8.q.n.G.|.*X1X6X7X7X7Xd.y . J uXsXaXrX6X6X;XD.Q 1     gXgXgXgXgXgX",
"gXgXgX    1 B 7.U.1X6X7X6X6X7X7X7Xl.G j % X gXgXgXgXgX    = f X.C.R. X XXX.X'.'.'..X$X-X1X3X6X7X7X7X`.[ u 0 J K P x.6X7X7X*X1.7     gXgXgXgXgXgX",
"gXgXgX    4 ) E.2X6X6X5X5X6X7X7X6Xs.j     gXgXgXgXgXgX    = b O.b.F.E.$X3X6X7X6X6X6X6X6X6X6X6X7X7X6X*XH.O.e .   8 a.6X7X7X7X2.t     gXgXgXgXgXgX",
"gXgXgX    > B 7.I.-X6X7X7X6X&X).2.S 3   gXgXgXgXgXgXgX    1 V 9.Y.E.|.%X5X7X7X7X7X7X7X7X7X7X6X2X*X:X^.^.(.| u , v d.6X7X7X7Xs.j     gXgXgXgXgXgX",
"gXgXgXgXgXX ; k ( S.;X7X7X7Xd.D , X gXgXgXgXgXgXgXgXgX  o 2 ) G.=X2X1X5X6X7X7X7X7X7X6X7X7X7X6X+XT.;.:.qXqX/.p.3.d.].6X7X7X7Xs.j     gXgXgXgXgXgX",
"gXgXgXgXgXgX    3 ( P.7X7X6Xs.j     gXgXgXgXgXgXgXgXgX    4 ) P.2X6X6X6X6X6X6X6X6X6X5X6X7X7X6X!.-.Y T ,.qXwX9X6X7X8X6X7X7X7Xs.j     gXgXgXgXgXgX",
"gXgXgXgXgXgXgX  ; x } I.6X6Xl.H 5 X gXgXgXgXgXgXgXgXgX    3 ( G.=X4X6X6X7X6X6X5X4X4X4X6X7X7X7XR.*.I U R ,.wX9X6X7X8X6X7X7X6Xt.t     gXgXgXgXgXgX",
"gXgXgXgXgXgXgXgX. # r ( J.2X4X}.s.D 6   gXgXgXgXgXgXgX    > C w.W.+X-X3X6X7X7X7X6X6X4X6X7X7X7XR.*.I U U >.Z.:X6X7X8X8X7X7X2X6.t     gXgXgXgXgXgX",
"gXgXgXgXgXgXgXgXgX    4 _ E.7X7X6Xa.j     gXgXgXgXgXgX    = f X.B.F.E.XX3X6X6X7X6X6X6X6X7X7X6XoX-.*.I I Y ;.!.6X7X7X7X4X2XE.) 4     gXgXgXgXgXgX",
"gXgXgXgXgXgXgXgXgX    # q _ U.5X7X].<.y * X gXgXgXgX< 7 t x V ^ o.$.c.D..X-X4X6X6X6X6X6X5X3X1X XZ.;.=.*.=.C.XX8X7X8X6X.Xu.) x -   gXgXgXgXgXgXgX",
"gXgXgXgXgXgXgXgXgX        * F J.2X2X|.7.B 1       o k ] 6.8.' ^ / ~ X.0.D.|.-X3X6X7X7X6X1X$X|.E.@XOXoXR.!.XX3X7X7X7X2Xu.A 4 +   gXgXgXgXgXgXgXgX",
"gXgXgXgXgXgXgXgXgXX         r [ P.=X=XE.[ y         k 6.P.Q.N.X.! ` X.9.N.P.+X2X6X7X7X6X-X|.E.|.-X6X7X6X6X6X6X6X6X2XQ.) 4     gXgXgXgXgXgXgXgXgX",
"gXgXgXgXgXgXgXgX; q r 1 - , v 5.G.E.G.e.F t         y 5.R.@X XA.q.q.y.n.G.|.-X3X7X7X7X6X1XXX|.XX3X7X7X7X7X6X4X-XI.M.} M >   gXgXgXgXgXgXgXgXgXgX",
"gXgXgXgXgXgX    ; d ' ' ) ) e.L.L.q.S t 1 gXgXgX    1 E N.oX-X-X&X#X'.'.XX-X3X5X7X7X7X6X4X1X1X-X%X-X5X7X7X6X:XH.#.m 7 - X gXgXgXgXgXgXgXgXgXgXgX",
"gXgXgXgXgXgX    = b X.m.F.P.+X=XE.) 4     gXgXgX    * g ..F.*X6X7X7X6X6X6X6X6X6X6X6X6X6X7X7X6X-XE.E.XX3X6X2XH.X.d *     gXgXgXgXgXgXgXgXgXgXgXgX",
"gXgXgXgXgXgX    $ w C 9.F.@X2X=XH.' r O   gXgXgXq q i f ~ 0.I.%X5X7X7X7X7X7X7X4X3X2X4X6X7X7X7X#XA.n.Q.-X6X.X#.p & .     gXgXgXgXgXgXgXgXgXgXgXgX",
"gXgXgXgXgXgXgXgX  @ 4 m @.T.!.~.B.O.E p ;     3 m W ` ~ ~  .q.A.'.3X7X7X7X7X3X%X$X*X1X6X7X7X7X[.w.%.D.2X6X).S @       o gXgXgXgXgXgXgXgXgXgXgXgX",
"gXgXgXgXgXgXgXgXgX    ; n ..&.$...+.&.+.b *   $ n ..v.%...` ~ O.M..X6X7X7X6X-X|.E.|.-X6X7X7X6XI.@...V.-X6X).v         X gXgXgXgXgXgXgXgXgXgXgXgX",
"gXgXgXgXgXgXgXgXgXgX  * q g g p b ' v.b.+.n 2 : i V ' 9.0.$.~ ^ ..y.'.,X3X-XE.D.N.G.#X7X7X7X6XL.@. .M.-X6X_.S $     X X gXgXgXgXgXgXgXgXgXgXgXgX",
"gXgXgXgXgXgXgXgXgXgXgX@ = * $ + = d  .b.B.$.C u * * c { N.B.$.! ! O.y.G.|.|.G.c.0.M.#X7X7X7X5XU.@...n.%X6X&X7.g & .     gXgXgXgXgXgXgXgXgXgXgXgX",
"gXgXgXgXgXgXgXgXgXgXgXgXo         1 n O.v.b.+.a +   6 1.E.R.m.+.! ~ +.w.G.E.N.%...q.'.6X7X7X6XI.9...y.[.6X4XQ.O.g *     gXgXgXgXgXgXgXgXgXgXgXgX",
"gXgXgXgXgXgXgXgXgXgXgXgXgX        * u n C W E p ; * c e. XoXH.q. .` +.c.P.E.A.+.~ +.G.1X7X7X7X'.%. .q.'.7X7X;XV.E 1     gXgXgXgXgXgXgXgXgXgXgXgX",
"gXgXgXgXgXgXgXgXgXgXgXgXgXgXgXgXgX# * ; > 1 2 q p C #.A.|. XP.A.c.0.c.H.%X-XL.@.~  .n.XX7X7X7X'.@.~ @.{.7X7X6XH._ 2     gXgXgXgXgXgXgXgXgXgXgXgX",
"gXgXgXgXgXgXgXgXgXgXgXgXgXgXgXgXgXgXX         ; n +.m.H.P.I.E.P.H.G.P.*X6X6XXXy...X.w.P.2X7X6X'.q...q.'.6X7X6XQ.) 4     gXgXgXgXgXgXgXgXgXgXgXgX",
"gXgXgXgXgXgXgXgXgXgXgXgXgXgXgXgXgXgXgX        = p E O.N.H.Q. X|.|.XX-X5X7X7X,XU.M.w.N.F.E.|.'.J.M.M.J..X2X6X2XP.) 2     gXgXgXgXgXgXgXgXgXgXgXgX",
"gXgXgXgXgXgXgXgXgXgXgXgXgXgXgXgXgXgXgXgXgXgXgXX * 2 b ' B.R.R.|.XX,X3X6X7X7X5X%XXXI.P.D.n.9.9.u.U.#X,X&XXX@X!.V.Q 1     gXgXgXgXgXgXgXgXgXgXgXgX",
"gXgXgXgXgXgXgXgXgXgXgXgXgXgXgXgXgXgXgXgXgXgXgXgX    = b X.m.F.P.$X3X6X7X6X6X6X7X6X4X*XP.c.X.O.y..X6X6X-XP.D.b.O.b =     gXgXgXgXgXgXgXgXgXgXgXgX",
"gXgXgXgXgXgXgXgXgXgXgXgXgXgXgXgXgXgXgXgXgXgXgXgXgX  @ 2 b W 0.H.+X4X6X6X4X3X3X6X7X6X3X%XH.n.n.J.%X7X6X=XF.%.W b 2 @   gXgXgXgXgXgXgXgXgXgXgXgXgX",
"gXgXgXgXgXgXgXgXgXgXgXgXgXgXgXgXgXgXgXgXgXgXgXgXgXgX  X = i ' B.OX2X2X1X%XXX#X4X7X7X6X4X1X%X#X%X1X1X=X!.m.! i * X   gXgXgXgXgXgXgXgXgXgXgXgXgXgX",
"gXgXgXgXgXgXgXgXgXgXgXgXgXgXgXgXgXgXgXgXgXgXgXgXgXgXgX    = d ..B.H.E.P.P.P..X1X6X7X7X6X6X7X6X3XXXP.F.m.+.b =     gXgXgXgXgXgXgXgXgXgXgXgXgXgXgX",
"gXgXgXgXgXgXgXgXgXgXgXgXgXgXgXgXgXgXgXgXgXgXgXgXgXgXgXgX  * q b V Z ) 5.n.F.Y.P.'.[.%X1X1X,X#X|.D.0. .N p : @   gXgXgXgXgXgXgXgXgXgXgXgXgXgXgXgX",
"gXgXgXgXgXgXgXgXgXgXgXgXgXgXgXgXgXgXgXgXgXgXgXgXgXgXgXgXgX# * ; * * 4 m +.m.B.c.9.i.L.E.L.S.w.0.&. .n : .   gXgXgXgXgXgXgXgXgXgXgXgXgXgXgXgXgXgX",
"gXgXgXgXgXgXgXgXgXgXgXgXgXgXgXgXgXgXgXgXgXgXgXgXgXgXgXgXgXgXo         1 V X.$.X.+.9.D.P.G.9.O.X.&.X.m ;     gXgXgXgXgXgXgXgXgXgXgXgXgXgXgXgXgXgX",
"gXgXgXgXgXgXgXgXgXgXgXgXgXgXgXgXgXgXgXgXgXgXgXgXgXgXgXgXgXgX          $ q b Q  .v.H.+X=XXXH.N.V.Y.D.5.A t , # gXgXgXgXgXgXgXgXgXgXgXgXgXgXgXgXgX",
"gXgXgXgXgXgXgXgXgXgXgXgXgXgXgXgXgXgXgXgXgXgXgXgXgXgXgXgXgXgXgXgXgXgXgX  X = a O.Q.2X6X7X5X4X2X2X4X4X-X'.e.A 3     gXgXgXgXgXgXgXgXgXgXgXgXgXgXgX",
"gXgXgXgXgXgXgXgXgXgXgXgXgXgXgXgXgXgXgXgXgXgXgXgXgXgXgXgXgXgXgXgXgXgXgXgX    4 ) E.2X6X6X7X7X6X7X6X6X6X2XE.) 4     gXgXgXgXgXgXgXgXgXgXgXgXgXgXgX",
"gXgXgXgXgXgXgXgXgXgXgXgXgXgXgXgXgXgXgXgXgXgXgXgXgXgXgXgXgXgXgXgXgXgXgXgXgX  4 A { t.f.d.d.d.k.j.j.g.z.S.7.F 4     gXgXgXgXgXgXgXgXgXgXgXgXgXgXgX",
"gXgXgXgXgXgXgXgXgXgXgXgXgXgXgXgXgXgXgXgXgXgXgXgXgXgXgXgXgXgXgXgXgXgXgXgXgXgX- 4 t t j z l l l l l l l k s r ; gXgXgXgXgXgXgXgXgXgXgXgXgXgXgXgXgX",
"gXgXgXgXgXgXgXgXgXgXgXgXgXgXgXgXgXgXgXgXgXgXgXgXgXgXgXgXgXgXgXgXgXgXgXgXgXgXgX                              gXgXgXgXgXgXgXgXgXgXgXgXgXgXgXgXgXgX",
"gXgXgXgXgXgXgXgXgXgXgXgXgXgXgXgXgXgXgXgXgXgXgXgXgXgXgXgXgXgXgXgXgXgXgXgXgXgXgX                              gXgXgXgXgXgXgXgXgXgXgXgXgXgXgXgXgXgX"
};
