/* XPM */
static char *_154805856_16756723921675672398[] = {
/* columns rows colors chars-per-pixel */
"72 75 220 2 ",
"   c #000000",
".  c #0A0200",
"X  c #0A0A00",
"o  c #010606",
"O  c #140500",
"+  c #140C00",
"@  c #1B0A00",
"#  c #161200",
"$  c #1A1A00",
"%  c #0F1200",
"&  c #210F00",
"*  c #251400",
"=  c #2B1A00",
"-  c #281800",
";  c #331B00",
":  c #381501",
">  c #1D2400",
",  c #2C2200",
"<  c #2D2B00",
"1  c #252500",
"2  c #342400",
"3  c #392B00",
"4  c #362900",
"5  c #2D3200",
"6  c #343500",
"7  c #3A3300",
"8  c #353A00",
"9  c #3D3C00",
"0  c #230027",
"q  c #4F1D00",
"w  c #482700",
"e  c #542700",
"r  c #413300",
"t  c #423E00",
"y  c #4B3B00",
"u  c #593600",
"i  c #603600",
"p  c #623A00",
"a  c #6A3C00",
"s  c #742E00",
"d  c #3C4200",
"f  c #444200",
"g  c #494400",
"h  c #4B4B00",
"j  c #414B00",
"k  c #5C4500",
"l  c #544C00",
"z  c #554501",
"x  c #4D5100",
"c  c #555400",
"v  c #595500",
"b  c #5B5C00",
"n  c #565900",
"m  c #664100",
"M  c #6B4400",
"N  c #664E01",
"B  c #774B00",
"V  c #675700",
"C  c #7D5600",
"Z  c #686300",
"A  c #7A7800",
"S  c #7A6B00",
"D  c #120151",
"F  c #100650",
"G  c #2B2C62",
"H  c #2F3161",
"J  c #5C664F",
"K  c #6E744E",
"L  c #9C2D00",
"P  c #BC3C00",
"I  c #D42600",
"U  c #D73F00",
"Y  c #DA3C1D",
"T  c #8E4F00",
"R  c #815600",
"E  c #855900",
"W  c #B05300",
"Q  c #816200",
"!  c #8B6E00",
"~  c #876700",
"^  c #986800",
"/  c #897301",
"(  c #897900",
")  c #9C7A00",
"_  c #937600",
"`  c #A76F00",
"'  c #AA6E00",
"]  c #AC7400",
"[  c #AF7900",
"{  c #A27F00",
"}  c #B67A00",
"|  c #D54404",
" . c #D75800",
".. c #D94917",
"X. c #E54600",
"o. c #EC5313",
"O. c #CB6700",
"+. c #D57500",
"@. c #DB6200",
"#. c #E86907",
"$. c #E6740F",
"%. c #E64524",
"&. c #F34E3F",
"*. c #EF7C3E",
"=. c #F45E4D",
"-. c #EF5A4D",
";. c #798252",
":. c #898600",
">. c #948400",
",. c #948B00",
"<. c #9A8A00",
"1. c #9B9500",
"2. c #9D9900",
"3. c #959400",
"4. c #A58C00",
"5. c #AC8500",
"6. c #B38500",
"7. c #B98E00",
"8. c #B78800",
"9. c #A39E00",
"0. c #A89400",
"q. c #B49A00",
"w. c #B79200",
"e. c #9CA200",
"r. c #A5A400",
"t. c #ACA500",
"y. c #ADAB00",
"u. c #B4AD00",
"i. c #BAA502",
"p. c #ADB200",
"a. c #B3B300",
"s. c #BCBA00",
"d. c #B9B500",
"f. c #B8BB25",
"g. c #C88D00",
"h. c #C59300",
"j. c #CC9200",
"k. c #CC9E00",
"l. c #C59900",
"z. c #D49C00",
"x. c #D78A00",
"c. c #F58700",
"v. c #FC9A00",
"b. c #EC9209",
"n. c #C8A600",
"m. c #D3A400",
"M. c #D9A500",
"N. c #D4AA00",
"B. c #DBAC00",
"V. c #C3BD00",
"C. c #CAB200",
"Z. c #DFB600",
"A. c #D5BE00",
"S. c #D8BC00",
"D. c #E4A900",
"F. c #E2B401",
"G. c #EDB400",
"H. c #E3BC00",
"J. c #F3BB00",
"K. c #F8B709",
"L. c #FCAE00",
"P. c #F3863E",
"I. c #EEAF24",
"U. c #CCC300",
"Y. c #CBCA00",
"T. c #C6C302",
"R. c #DDC500",
"E. c #D4CD00",
"W. c #D7C900",
"Q. c #D8D401",
"!. c #E4C200",
"~. c #E6CA00",
"^. c #EACD00",
"/. c #EAC600",
"(. c #F3C300",
"). c #F4CD00",
"_. c #FACB00",
"`. c #FFC600",
"'. c #E5D301",
"]. c #EDD300",
"[. c #EDDB00",
"{. c #E6DA00",
"}. c #F1D500",
"|. c #FDD300",
" X c #F3DB00",
".X c #FCDD01",
"XX c #F6C11D",
"oX c #DEE000",
"OX c #E9E200",
"+X c #F5E400",
"@X c #FDE400",
"#X c #F6ED00",
"$X c #FBEC00",
"%X c #FEF600",
"&X c #FFFE00",
"*X c #F6F100",
"=X c #FFFF16",
"-X c #FFDB24",
";X c #FFFE23",
":X c #FFFF2C",
">X c #FFE724",
",X c #CED826",
"<X c #FA8755",
"1X c #FFB54D",
"2X c #F8E948",
"3X c #FFFA4A",
"4X c #FFFF51",
"5X c #FFFF62",
"6X c #E6D74F",
"7X c #4E4AA9",
"8X c #B0B6A8",
"9X c #FFFFAA",
"0X c #E5E9AB",
"qX c #D3D3A8",
"wX c #999BCF",
"eX c #9D9DD0",
"rX c #FFFFCF",
"tX c #FFFFD2",
"yX c white",
"uX c None",
/* pixels */
"uXuXuXuXuXuXuXuXuX      uXuXuXuXuXuXuXuXuXuXuXuXuXuXuXuXuXuXuXuXuXuXuXuXuXuXuXuXuXuXuXuXuXuXuXuXuXuXuX      uXuXuXuXuXuXuXuXuXuXuXuXuXuXuXuXuXuX",
"uXuXuXuXuXuXuXuXuX      uXuXuXuXuXuXuXuXuXuXuXuXuXuXuXuXuXuXuXuXuXuXuXuXuXuXuXuXuXuXuXuXuXuXuXuXuXuXuX      uXuXuXuXuXuXuXuXuXuXuXuXuXuXuXuXuXuX",
"uXuXuXuXuXuXuXuXuX        uXuXuXuXuXuXuXuXuXuXuXuXuXuXuXuXuXuXuXuXuXuXuXuXuXuXuXuXuXuXuXuXuXuXuXuXuX< 9 f 9 < uXuXuXuXuXuXuXuXuXuXuXuXuXuXuXuXuX",
"uXuXuXuXuXuXuXuXuX        . uXuXuXuXuXuXuXuXuXuXuXuXuXuXuXuXuXuXuXuXuXuXuXuXuXuXuXuXuXuXuXuXuXuXuX  h :.9.:.h   uXuXuXuXuXuXuXuXuXuXuXuXuXuXuXuX",
"uXuXuXuXuXuXuXuXuX            uXuXuXuXuXuXuXuXuXuXuXuXuXuXuXuXuXuXuXuXuXuXuXuXuXuXuXuXuXuXuXuXuX    c V.%XT.c     uXuXuXuXuXuXuXuXuXuXuXuXuXuXuX",
"uXuXuXuXuXuXuXuXuX            . uXuXuXuXuXuXuXuXuXuXuXuXuXuXuXuXuXuXuXuXuXuXuXuXuXuXuXuXuXuXuX  # f 3.OX&Xs.c     uXuXuXuXuXuXuXuXuXuXuXuXuXuXuX",
"uXuXuXuXuXuXuXuXuX            X X uXuXuXuXuXuXuXuXuXuXuXuXuXuXuXuXuXuXuXuXuXuXuXuXuXuXuXuXuX  < Z 9.OX&X&Xy.j     uXuXuXuXuXuXuXuXuXuXuXuXuXuXuX",
"uXuXuXuXuXuXuXuXuX                  uXuXuXuXuXuXuXuXuXuXuXuXuXuXuXuXuXuXuXuXuXuXuXuXuXuXuX    t 1.%X&X&X%X2.f     uXuXuXuXuXuXuXuXuXuXuXuXuXuXuX",
"uXuXuXuXuXuXuXuXuX    + * = * +     uXuXuXuXuXuXuXuXuXuXuXuXuXuXuXuXuXuXuXuXuXuXuXuXuXuX. $ f A s.&X&X&X#X3.t     uXuXuXuXuXuXuXuXuXuXuXuXuXuXuX",
"uXuXuXuXuXuXuXuXuX    - u M u *     uXuXuXuXuXuXuXuXuXuXuXuXuXuXuXuXuXuXuXuXuXuXuXuXuX  < Z 2.T.OX&X&X&X#X1.t     uXuXuXuXuXuXuXuXuXuXuXuXuXuXuX",
"uXuXuXuXuXuXuXuXuX    3 R ` C 4     uXuXuXuXuXuXuXuXuXuXuXuXuXuXuXuXuXuXuXuXuXuXuXuX    f 9.%X&X&X%X&X&X%X9.f     uXuXuXuXuXuXuXuXuXuXuXuXuXuXuX",
"uXuXuXuXuXuXuXuXuX    3 ~ g.h./ h 5 $ uXuXuXuXuXuXuXuXuXuXuXuXuXuXuXuXuXuXuXuXuXuX$ 6 v :.Y.&X&X&X&X&X&X&Xr.j     uXuXuXuXuXuXuXuXuXuXuXuXuXuXuX",
"uXuXuXuXuXuXuXuXuX    3 ^ M.|.~.u.A 8   uXuXuXuXuXuXuXuXuXuXuXuXuXuXuXuXuXuXuXuX  9 :.V.OX*X&X&X&X&X&X&X&Xr.h .   uXuXuXuXuXuXuXuXuXuXuXuXuXuXuX",
"uXuXuXuXuXuXuXuXuX    4 Q Z.&X&X%Xr.f     uXuXuXuXuXuXuXuXuXuXuXuXuXuXuXuXuXuX    f e.%X&X&X%X#X#X%X&X&X%X9.f     uXuXuXuXuXuXuXuXuXuXuXuXuXuXuX",
"uXuXuXuXuXuXuXuXuX    3 ! !.&X&X&Xa.V *     uXuXuXuXuXuXuXuXuXuXuXuXuXuXuXuX1 9 v ( r.Y.Y.a.e.3.3.2.y.a.9.Z <       uXuXuXuXuXuXuXuXuXuXuXuXuXuX",
"uXuXuXuXuXuXuXuXuX    3 / !.&X&X&XU.) i : @ X uXuXuXuXuXuXuXuXuXuXuXuXuXuXX c 9.V.d.:.n 8 8 9 8 8 6 6 6 < $ X                       uXuXuXuXuXuX",
"uXuXuXuXuXuXuXuXuX    4 ! Z.$X&X%X XB.` i *     uXuXuXuXuXuXuXuXuXuXuXuX    c s.%XE.V         X                                     uXuXuXuXuXuX",
"uXuXuXuXuXuXuXuXuX    3 ~ M..X$X*X$X.XB.~ 3       uXuXuXuXuXuXuXuXuXuX      f 3.T.r.h       . @ # * - 1 5 t l z r $                 uXuXuXuXuXuX",
"uXuXuXuXuXuXuXuXuX    ; C g.(..X%X&X&X X4.y         X .           .         # 8 h l u e q q e u B C ( :.2.u.C.q.~ 3         .   uXuXuXuXuXuXuXuX",
"uXuXuXuXuXuXuXuXuX    * i ` M.].%X&X&X%Xt.h         X                             2 B ' } ] ` [ l.H.].#X%X%X@XF.) r         X uXuXuXuXuXuXuXuXuX",
"uXuXuXuXuXuXuXuXuXuX  @ q M { A.&X&X&X&XV.A r ; 4 f h h f f f f f f f h c h < + @ y ` B.J.G.Z.H.[.%X&X&X&X#XR.4.N ,         uXuXuXuXuXuXuXuXuXuX",
"uXuXuXuXuXuXuXuXuXuXuX    = V u.&X&X&X&XW.q.) _ <.r.r.r.9.9.9.r.9.2.9.u.s.u.4./ C <.C. X@X@X X+X#X&X&X&X&XU.( g * .       uXuXuXuXuXuXuXuXuXuXuX",
"uXuXuXuXuXuXuXuXuXuXuXuX    f 9.%X&X&X%X{.H.Z.!. X%X&X&X%X%X%X%X%X%X%X&X&X%X X!.F.!. X%X&X&X%X%X%X%X%X@XZ.) 7         X uXuXuXuXuXuXuXuXuXuXuXuX",
"uXuXuXuXuXuXuXuXuXuXuXuX    t 0.$X&X&X%X+X.X@X@X%X&X&X&X&X&X&X&X&X&X&X&X&X&X%X$X$X$X%X&X&X&X%X%X$X].A.5.~ k =         uXuXuXuXuXuXuXuXuXuXuXuXuX",
"uXuXuXuXuXuXuXuXuXuXuXuX    r <.}.&X&X%X*X%X%X%X%X&X&X&X&X&X&X&X&X&X&X&X&X&X&X%X%X&X&X&X%X#X X|.(.N.) N 4 $ . uXuXuXuXuXuXuXuXuXuXuXuXuXuXuXuXuX",
"uXuXuXuXuXuXuXuXuXuXuXuX    3 / Z.@X%X%X*X%X%X%X%X%X%X%X%X%X%X%X%X%X%X%X%X%X%X%X%X%X&X%X@X'.Z.M.j.` p =     uXuXuXuXuXuXuXuXuXuXuXuXuXuXuXuXuXuX",
"uXuXuXuXuXuXuXuXuXuXuXuX    2 C h.).$X%X&X&X*X*X#X*X*X#X#X#X#X*X*X#X#X#X#X#X*X%X%X*X+X].!.B.h.] T a w @   uXuXuXuXuXuXuXuXuXuXuXuXuXuXuXuXuXuXuX",
"uXuXuXuXuXuXuXuXuXuXuXuX    - M [ F..X%X=X&X*X#X*X*X%X%X%X*X%X%X%X%X%X*X%X%X&X&X=X#X'.S.N.j.] C e = O   uXuXuXuXuXuXuXuXuXuXuXuXuXuXuXuXuXuXuXuX",
"uXuXuXuXuXuXuXuXuXuXuXuX    * p ' B. X%X&X&X%X#X%X%X%X%X%X&X&X%X%X%X%X%X%X%X%X&X%X$X^.Z.M.j.` m -     uXuXuXuXuXuXuXuXuXuXuXuXuXuXuXuXuXuXuXuXuX",
"uXuXuXuXuXuXuXuXuXuXuXuX    = M ] F.}.%X&X&X&X&X%X%X%X%X%X%X%X%X%X%X&X%X%X%X*X%X*X*X@X.X(.D.[ m -     uXuXuXuXuXuXuXuXuXuXuXuXuXuXuXuXuXuXuXuXuX",
"uXuXuXuXuXuXuXuXuXuXuXuX    4 R h.(.@X#X&X&X&X&X%X&X%X%X%X%X&X%X%X%X%X%X%X%X%X+X*X%X&X&X%X_.h.C 2     uXuXuXuXuXuXuXuXuXuXuXuXuXuXuXuXuXuXuXuXuX",
"uXuXuXuXuXuXuXuXuXuXuXuX    3 ! F.@X%X%X%X&X%X%X%X%X%X%X%X%X%X%X%X%X&X%X%X%X%X%X%X%X%X%X%X@XH./ 4     uXuXuXuXuXuXuXuXuXuXuXuXuXuXuXuXuXuXuXuXuX",
"uXuXuXuXuXuXuXuXuXuXuXuX    r >.~.;X4X5X6Xf.r.a.Q.%X&X&X%X*X%X*X%X%X%X%X%X%X:X4X5X6Xf.p.Y.+X}.4.t     uXuXuXuXuXuXuXuXuXuXuXuXuXuXuXuXuXuXuXuXuX",
"uXuXuXuXuXuXuXuXuXuXuXuXo   r <.+X4X9XtX8XJ d Z d.%X&X&X%X#X#X*X*X%X%X%X%X%X4X9XrX8XJ d A Y.@Xi.l o   uXuXuXuXuXuXuXuXuXuXuXuXuXuXuXuXuXuXuXuXuX",
"uXuXuXuXuXuXuXuXuXuXuXuXo o t 1.%X5XtXyXwXG   < 2.%X=X&X%X*X*X&X=X%X%X*X*X%X5XrXyXwXG   t s.%XT.v     uXuXuXuXuXuXuXuXuXuXuXuXuXuXuXuXuXuXuXuXuX",
"uXuXuXuXuXuXuXuXuXuXuXo o - Z s.&X4X0XwX7XF . t t.%X&X&X%X%X%X&X%X%X%X&X&X%X2XqXeX7XD . v T.&XQ./ =     uXuXuXuXuXuXuXuXuXuXuXuXuXuXuXuXuXuXuXuX",
"uXuXuXuXuXuXuXuXuXuX  O : M 7.+X&X,X;.G D 0 e ^ A.%X&X&X%X%X%X&X&X*X%X&X&X%Xf.K H D 0 e ) '.&XOX0.M : O   uXuXuXuXuXuXuXuXuXuXuXuXuXuXuXuXuXuXuX",
"uXuXuXuXuXuXuXuXuX    * u ` J.%X%Xp.d   . e ] B. X%X&X&X%X%X%X%X%X*X%X&X&X%Xr.d   . e ` H.@X%X@XF.` u *     uXuXuXuXuXuXuXuXuXuXuXuXuXuXuXuXuXuX",
"uXuXuXuXuXuXuXuXuX    2 C k.`._.J.4.n 5 g _ B.|.$X%X&X&X%XW.t.1.t.E.%X&X&X%Xa.n < t _ Z._._.J.J.K.j.E 2     uXuXuXuXuXuXuXuXuXuXuXuXuXuXuXuXuXuX",
"uXuXuXuXuXuXuXuXuX    7 _ B.L.v.$.} 4.e.p.E..X@X$X%X&X&X%Xt.c < l r.%X&X&X%XE.t.2.y.Q.+X(.b.+.c.L.B.( 9     uXuXuXuXuXuXuXuXuXuXuXuXuXuXuXuXuXuX",
"uXuXuXuXuXuXuXuXuX    9 ,.Z.v.#.| @.G.%X&X&X%X*X#X%X&X&X%X2.5   < 2.%X&X&X%X#X%X%X&X&X%XG.@.| #.v.Z.>.9     uXuXuXuXuXuXuXuXuXuXuXuXuXuXuXuXuXuX",
"uXuXuXuXuXuXuXuXuX    9 >.Z.c.X.I ..I.:X;X=X&X%X%X%X&X&X&Xa.b 8 b a.&X&X&X%X*X%X=X=X=X>Xb...I X.c.Z.>.9     uXuXuXuXuXuXuXuXuXuXuXuXuXuXuXuXuXuX",
"uXuXuXuXuXuXuXuXuX    7 / z.$.X.I ..<X1X3X=X&X%X%X%X&X&X&XoXs.p.s.oX&X&X&X%X*X&X&X;X2X1X*.Y I X.c.z./ 7     uXuXuXuXuXuXuXuXuXuXuXuXuXuXuXuXuXuX",
"uXuXuXuXuXuXuXuXuX    , N ` +. .| %.-.<X1X-X%X&X&X%X%X%X%X%X%X%X%X%X%X%X%X%X&X&X%X-X1X<X=.%.U  .O.` N ,     uXuXuXuXuXuXuXuXuXuXuXuXuXuXuXuXuXuX",
"uXuXuXuXuXuXuXuXuXuX  # 3 p T W  .o.&.-.P.XX$X%X&X%X#X+X X X@X@X@X+X X+X$X%X&X&X#XXX<X=.&.o. .W T p 3 #   uXuXuXuXuXuXuXuXuXuXuXuXuXuXuXuXuXuXuX",
"uXuXuXuXuXuXuXuXuXuXuX  . = u ^ +.#.%.%.$.K.%X&X&X%X@X].!.N.m.k.m.B.H.}.+X%X&X&X%XK.$.%.%.#.+.^ y = .   uXuXuXuXuXuXuXuXuXuXuXuXuXuXuXuXuXuXuXuX",
"uXuXuXuXuXuXuXuXuXuXuXuX    , N ] O.| | #.K.%X&X&X%X@X}.H.h.} ] [ h.H.}.@X%X&X&X%XK.+.U X.O.^ V ,     uXuXuXuXuXuXuXuXuXuXuXuXuXuXuXuXuXuXuXuXuX",
"uXuXuXuXuXuXuXuXuXuXuXuXuX  $ 9 N s L P +.(.&X&X&X%X$X X/.n.w.5.7.n.~. X$X%X&X&X%X(.+.P L L k d >   uXuXuXuXuXuXuXuXuXuXuXuXuXuXuXuXuXuXuXuXuXuX",
"uXuXuXuXuXuXuXuXuXuXuXuXuXuXuXo # : s W x./.&X&X&X%X%X$X#X[.~.R.~.[.$X$X$X%X&X&X&X).x.W s : # X uXuXuXuXuXuXuXuXuXuXuXuXuXuXuXuXuXuXuXuXuXuXuXuX",
"uXuXuXuXuXuXuXuXuXuXuXuXuXuXuX    * u ` M.}.%X&X&X%X%X%X%X%X%X%X%X%X%X%X%X%X&X&X%X}.m.` u *     uXuXuXuXuXuXuXuXuXuXuXuXuXuXuXuXuXuXuXuXuXuXuXuX",
"uXuXuXuXuXuXuXuXuXuXuXuXuXuXuX# 2 z / i.!.}.+X$X%X%X#X$X+X#X%X%X%X#X+X#X*X%X%X$X+X].!.n./ z , # uXuXuXuXuXuXuXuXuXuXuXuXuXuXuXuXuXuXuXuXuXuXuXuX",
"uXuXuXuXuXuXuXuXuXuXuXuXuX  , k ! q.U.{.{./.!.^.#X%X#X]./.!.]. X].~./. X#X%X$X].!.~.{.Q.A.q.! k =   uXuXuXuXuXuXuXuXuXuXuXuXuXuXuXuXuXuXuXuXuXuX",
"uXuXuXuXuXuXuXuXuXuXuXuX    3 ! F.$X&X%X+X!.H.!.@X%X#X].F.B.Z.F.Z.B.H.^.#X%X+X!.Z.!.[.%X&X$XH.! 3     uXuXuXuXuXuXuXuXuXuXuXuXuXuXuXuXuXuXuXuXuX",
"uXuXuXuXuXuXuXuXuXuXuX    = N q.@X&X&X%X[.~.!.^.+X%X*X XH.Z.N.m.m.B.!. X%X%X$X^.!.~.+X&X&X&X@Xw.V = .   uXuXuXuXuXuXuXuXuXuXuXuXuXuXuXuXuXuXuXuX",
"uXuXuXuXuXuXuXuXuXuX  O ; m ) S.%X&X%X+X[.].+X+X%X%X%X$X X!.Z.m.Z.!. X#X%X%X%X+X X[.].+X%X&X$XA.) m ; O   uXuXuXuXuXuXuXuXuXuXuXuXuXuXuXuXuXuXuX",
"uXuXuXuXuXuXuXuXuX    * i ` Z.@X%X+X/.Z.!. X%X&X&X%X&X&X%X+X!.Z.!.+X%X&X&X%X%X&X%X XH.Z.^.#X%X@XB.` i *     uXuXuXuXuXuXuXuXuXuXuXuXuXuXuXuXuXuX",
"uXuXuXuXuXuXuXuXuX    ; B g.|.&X&X{.m.8.k.'.&X&X&X%X%X&X&X#X].^.].+X&X&X%X%X&X&X&X'.k.g.n.'.&X&X|.g.B ;     uXuXuXuXuXuXuXuXuXuXuXuXuXuXuXuXuXuX",
"uXuXuXuXuXuXuXuXuX    2 R z.@X&X&XW.7.] 8.R.&X&X&X%X%X%X&X%X$X+X+X%X&X&X%X%X&X&X&XR.6.' 7.W.&X&X.Xz.R 2     uXuXuXuXuXuXuXuXuXuXuXuXuXuXuXuXuXuX",
"uXuXuXuXuXuXuXuXuX    3 ! F.%X&X%XW.7.` 6.R.%X&X&X%X%X%X%X%X%X%X%X%X%X%X%X%X&X&X%XR.6.] 7.R.%X&X%XF.! 4     uXuXuXuXuXuXuXuXuXuXuXuXuXuXuXuXuXuX",
"uXuXuXuXuXuXuXuXuX    t 0.@X&X$XR.n.w.7.m.'.%X&X&X%X*X*X%X%X&X&X&X%X%X%X*X%X&X&X%X'.n.7.7.n.R.$X&X@X0.g     uXuXuXuXuXuXuXuXuXuXuXuXuXuXuXuXuXuX",
"uXuXuXuXuXuXuXuXuX    h p.&X&XH.8.6.n.!. X*X%X%X%X%X%X*X%X*X%X%X%X%X*X*X%X%X%X%X%X*X+XR.n.5.7.!.&X&Xa.x     uXuXuXuXuXuXuXuXuXuXuXuXuXuXuXuXuXuX",
"uXuXuXuXuXuXuXuXuX    x p.%X@Xk.` 5.S.%X&X&X%X*X%X%X%X%X%X%X%X%X%X%X%X%X%X%X%X%X%X&X&X%XR.[ ` m.@X%Xp.x     uXuXuXuXuXuXuXuXuXuXuXuXuXuXuXuXuXuX",
"uXuXuXuXuXuXuXuXuXuX  d :.a.C.8.[ l.'.&X&X&X%X#X%X%X&X&X&X&X&X&X&X&X&X&X&X&X%X#X*X&X&X&X'.h.[ 7.C.a.A 8     uXuXuXuXuXuXuXuXuXuXuXuXuXuXuXuXuXuX",
"uXuXuXuXuXuXuXuXuXuXuX> d l S 4.m.).#X&X&X%X*X#X*X%X&X&X&X&X&X&X&X&X&X&X%X%X%X+X*X%X&X&X$X/.m.5./ n 5 %     uXuXuXuXuXuXuXuXuXuXuXuXuXuXuXuXuXuX",
"uXuXuXuXuXuXuXuXuXuXuXuX    3 / F.@X%X%X*X&X%X%X%X%X%X%X%X%X%X%X%X%X%X%X%X%X%X%X%X&X%X%X%X.XF.) r         X uXuXuXuXuXuXuXuXuXuXuXuXuXuXuXuXuXuX",
"uXuXuXuXuXuXuXuXuXuXuXuX    2 Q n._..X+X*X%X&X&X&X%X$X+X X}. X X X}. X@X$X%X&X&X&X%X*X+X X).k.~ 3         uXuXuXuXuXuXuXuXuXuXuXuXuXuXuXuXuXuXuX",
"uXuXuXuXuXuXuXuXuXuXuXuX    = m ] z.F./.+X%X&X&X%X@X}.H.M.M.M.B.m.M.D.H.).$X%X&X&X%XOX^.G.z.] M =     uXuXuXuXuXuXuXuXuXuXuXuXuXuXuXuXuXuXuXuXuX",
"uXuXuXuXuXuXuXuXuXuXuXuX    = m ` g.M.H.].#X%X$X XZ.j.} ` ` ` ` ` ` ` } j.Z.}.$X%X#X'.H.M.g.` a -     uXuXuXuXuXuXuXuXuXuXuXuXuXuXuXuXuXuXuXuXuX",
"uXuXuXuXuXuXuXuXuXuXuX1 h Z ( 0.m.D.D.M.n.i.r.3.>./ E M i u i i i u p M C ! >.1.r.i.n.M.D.D.m.0.( Z x 5 uXuXuXuXuXuXuXuXuXuXuXuXuXuXuXuXuXuXuXuX",
"uXuXuXuXuXuXuXuXuX    9 ,.Q.&X&X$X|.G.g.` V f 7 6 3 4 = * * * - * * * = 2 3 6 8 t V ` j.G.|.$X&X%XQ.,.f     uXuXuXuXuXuXuXuXuXuXuXuXuXuXuXuXuXuX",
"uXuXuXuXuXuXuXuXuX    t 9.%X&X&X%X^.m.] a -         .                   .         - a ` m.'.%X&X&X%X9.f     uXuXuXuXuXuXuXuXuXuXuXuXuXuXuXuXuXuX",
"uXuXuXuXuXuXuXuXuXuX  9 :.s.Q.Y.a.,.Q p w @                             .         & w a C ,.a.Y.Q.s.( 9     uXuXuXuXuXuXuXuXuXuXuXuXuXuXuXuXuXuX",
"uXuXuXuXuXuXuXuXuXuXuX< g c b n h 9 2 = & uXuXuXuXuXuXuXuXuXuXuXuXuXuXuXuXuXuXuXuXuX@ = 2 9 h n b c h < uXuXuXuXuXuXuXuXuXuXuXuXuXuXuXuXuXuXuXuX",
"uXuXuXuXuXuXuXuXuXuXuXuX                  uXuXuXuXuXuXuXuXuXuXuXuXuXuXuXuXuXuXuXuXuX                  uXuXuXuXuXuXuXuXuXuXuXuXuXuXuXuXuXuXuXuXuX",
"uXuXuXuXuXuXuXuXuXuXuXuX                  uXuXuXuXuXuXuXuXuXuXuXuXuXuXuXuXuXuXuXuXuX                  uXuXuXuXuXuXuXuXuXuXuXuXuXuXuXuXuXuXuXuXuX"
};
