/* XPM */
static char *_746745152_16756723911675672398[] = {
/* columns rows colors chars-per-pixel */
"72 75 225 2 ",
"   c #000000",
".  c #0A0400",
"X  c #0B0900",
"o  c #070A00",
"O  c #110200",
"+  c #150B00",
"@  c #1B0C00",
"#  c #1C0700",
"$  c #141300",
"%  c #1D1300",
"&  c #181A00",
"*  c #0C1000",
"=  c #210E00",
"-  c #2B0D00",
";  c #241400",
":  c #2A1600",
">  c #241B00",
",  c #2B1B00",
"<  c #331E00",
"1  c #381A00",
"2  c #1B2000",
"3  c #252500",
"4  c #2C2400",
"5  c #2E2C00",
"6  c #252C00",
"7  c #332300",
"8  c #3A2500",
"9  c #332C00",
"0  c #392C00",
"q  c #2D3200",
"w  c #333500",
"e  c #3D3200",
"r  c #353900",
"t  c #3B3D00",
"y  c #421C00",
"u  c #432300",
"i  c #442C00",
"p  c #4B2B00",
"a  c #482700",
"s  c #542A00",
"d  c #592E00",
"f  c #433500",
"g  c #4B3400",
"h  c #443C00",
"j  c #4A3D00",
"k  c #553300",
"l  c #5B3200",
"z  c #543900",
"x  c #5D3C00",
"c  c #633B00",
"v  c #6A3C00",
"b  c #603500",
"n  c #3D4100",
"m  c #444300",
"M  c #4C4200",
"N  c #474900",
"B  c #4B4C00",
"V  c #5C4500",
"C  c #5E4B00",
"Z  c #564600",
"A  c #535200",
"S  c #5E5B00",
"D  c #5C5500",
"F  c #4C5100",
"G  c #654200",
"H  c #654C00",
"J  c #6E4900",
"K  c #6B4600",
"L  c #724A00",
"P  c #7B4E00",
"I  c #794600",
"U  c #625B00",
"Y  c #6B5E00",
"T  c #6C5400",
"R  c #755200",
"E  c #7D5300",
"W  c #7B5D00",
"Q  c #745B00",
"!  c #646400",
"~  c #656900",
"^  c #6D6E00",
"/  c #6C6300",
"(  c #7E6100",
")  c #756F00",
"_  c #766600",
"`  c #797700",
"'  c #8A4A00",
"]  c #924D00",
"[  c #815500",
"{  c #815A00",
"}  c #8A5A00",
"|  c #8B5400",
" . c #945300",
".. c #965B00",
"X. c #9A5B00",
"o. c #985700",
"O. c #836400",
"+. c #856A00",
"@. c #8C6D00",
"#. c #8F6300",
"$. c #936400",
"%. c #9B6300",
"&. c #9B6A00",
"*. c #966900",
"=. c #8C7400",
"-. c #827D00",
";. c #837400",
":. c #9A7300",
">. c #947C00",
",. c #9B7D00",
"<. c #947400",
"1. c #A26500",
"2. c #A66E00",
"3. c #AB6D00",
"4. c #A96400",
"5. c #A17500",
"6. c #AC7400",
"7. c #A47B00",
"8. c #AE7A00",
"9. c #B27500",
"0. c #B37D00",
"q. c #BA7A00",
"w. c #BB7200",
"e. c #B16F00",
"r. c #C17E00",
"t. c #7C8200",
"y. c #858700",
"u. c #9A8200",
"i. c #969000",
"p. c #9B9500",
"a. c #9D9900",
"s. c #979800",
"d. c #A58400",
"f. c #AB8300",
"g. c #A78D00",
"h. c #B68400",
"j. c #BA8300",
"k. c #B38C00",
"l. c #BC8C00",
"z. c #A59600",
"x. c #AC9000",
"c. c #A39E00",
"v. c #A89F00",
"b. c #BC9400",
"n. c #B79700",
"m. c #A4A300",
"M. c #AAA500",
"N. c #AAAA00",
"B. c #A7AB00",
"V. c #BAA900",
"C. c #B4B300",
"Z. c #BABB00",
"A. c #BAB300",
"S. c #A9B200",
"D. c #C48300",
"F. c #CA8600",
"G. c #C38D00",
"H. c #CB8B00",
"J. c #D18C00",
"K. c #C59300",
"L. c #CD9300",
"P. c #C39C00",
"I. c #CB9C00",
"U. c #D49B00",
"Y. c #D19600",
"T. c #C5A000",
"R. c #CCA300",
"E. c #C8AC00",
"W. c #D6A400",
"Q. c #DAA400",
"!. c #D3AA00",
"~. c #DBAA00",
"^. c #C1BB00",
"/. c #C9B500",
"(. c #D3B500",
"). c #DEB600",
"_. c #DBBC00",
"`. c #D3BB00",
"'. c #E6A700",
"]. c #E4AB00",
"[. c #E3B600",
"{. c #E4BB00",
"}. c #EBBB00",
"|. c #E9B600",
" X c #F2BC00",
".X c #FDBB00",
"XX c #FAB600",
"oX c #F2AF00",
"OX c #BEC300",
"+X c #C5C200",
"@X c #C5CB00",
"#X c #CCCA00",
"$X c #CAC600",
"%X c #D0CE00",
"&X c #D9C600",
"*X c #DCD900",
"=X c #D6D300",
"-X c #E3C400",
";X c #E9C300",
":X c #E3CB00",
">X c #E9CD00",
",X c #F4C300",
"<X c #FCC500",
"1X c #F4CB00",
"2X c #FECB00",
"3X c #E5D300",
"4X c #EDD300",
"5X c #EDDC00",
"6X c #E3D900",
"7X c #F2D500",
"8X c #FDD300",
"9X c #F4DC00",
"0X c #FEDB00",
"qX c #E4E300",
"wX c #EDEC00",
"eX c #E8E600",
"rX c #F4E400",
"tX c #FEE400",
"yX c #F5ED00",
"uX c #FDEC00",
"iX c #F5F300",
"pX c #FEF600",
"aX c #FFFE00",
"sX c #F3F900",
"dX c None",
/* pixels */
"dXdXdX      dXdXdXdXdXdXdXdXdXdXdXdXdXdXdXdXdXdXdXdXdXdXdXdXdXdXdXdXdXdXdXdXdXdXdXdXdXdXdXdXdXdXdXdXdXdXdXdXdXdXdXdXdXdXdXdXdXdXdXdXdXdXdXdXdXdX",
"dXdXdX      dXdXdXdXdXdXdXdXdXdXdXdXdXdXdXdXdXdXdXdXdXdXdXdXdXdXdXdXdXdXdXdXdXdXdXdXdXdXdXdXdXdXdXdXdXdXdXdXdXdXdXdXdXdXdXdXdXdXdXdXdXdXdXdXdXdX",
"dXdXdX        dXdXdXdXdXdXdXdXdXdXdXdXdXdXdXdXdXdXdXdXdXdXdXdXdXdXdXdXdXdXdXdXdXdXdXdXdXdXdXdXdXdXdXdXdXdXdXdXdXdXdXdXdXdXdXdXdXdXdXdXdXdXdXdXdX",
"dXdXdX        . X X X dXdXdXdXdXdXdXdXdXdXdXdXdXdXdXdXdXdXdXdXdXdXdXdXdXdXdXdXdXdXdXdXdXdXdXdXdXdXdXdXdXdXdXdXdXdXdXdXdXdXdXdXdXdXdXdXdXdXdXdXdX",
"dXdXdX                  dXdXdXdXdXdXdXdXdXdXdXdXdXdXdXdXdXdXdXdXdXdXdXdXdXdXdXdXdXdXdXdXdXdXdXdXdXdXdXdXdXdXdXdXdXdXdXdXdXdXdXdXdXdXdXdXdXdXdXdX",
"dXdXdX                    dXdXdXdXdXdXdXdXdXdXdXdXdXdXdXdXdXdXdXdXdXdXdXdXdXdXdXdXdXdXdXdXdXdXdXdXdXdXdXdXdXdXdXdXdXdXdXdXdXdXdXdXdXdXdXdXdXdXdX",
"dXdXdX                      dXdXdXdXdXdXdXdXdXdXdXdXdXdXdXdXdXdXdXdXdXdXdXdXdXdXdXdXdXdXdXdXdXdXdXdXdXdXdXdXdXdXdXdXdXdXdXdXdXdXdXdXdXdXdXdXdXdX",
"dXdXdX                        dXdXdXdXdXdXdXdXdXdXdXdXdXdXdXdXdXdXdXdXdXdXdXdXdXdXdXdXdXdXdXdXdXdXdXdXdXdXdXdXdXdXdXdXdXdXdXdXdXdXdXdXdXdXdXdXdX",
"dXdXdX    + , 0 g g f j m m t 5 dXdXdXdXdXdXdXdXdXdXdXdXdXdXdXdXdXdXdXdXdXdXdXdXdXdXdXdXdXdXdXdXdXdXdXdXdXdXdXdXdXdXdXdXdXdXdXdXdXdXdXdXdXdXdXdX",
"dXdXdX    ; z } 5.5.,.z.M.v.` h         dXdXdXdXdXdXdXdXdXdXdXdXdXdXdXdXdXdXdXdXdXdXdXdXdXdXdXdXdXdXdXdXdXdXdXdXdXdXdXdXdXdXdXdXdXdXdXdXdXdXdXdX",
"dXdXdX    , G 2.H.U.).tXaXpXZ.A         X dXdXdXdXdXdXdXdXdXdXdXdXdXdXdXdXdXdXdXdXdXdXdXdXdXdXdXdXdXdXdXdXdXdXdXdXdXdXdXdXdXdXdXdXdXdXdXdXdXdXdX",
"dXdXdXdX  ; k } h.W.1XpXaXaX@Xt.m > ; ; ; + dXdXdXdXdXdXdXdXdXdXdXdXdXdXdXdXdXdXdXdXdXdXdXdXdXdXdXdXdXdXdXdXdXdXdXdXdXdXdXdXdXdXdXdXdXdXdXdXdXdX",
"dXdXdXdXdX. ; i R f.}.uXaXaXwX@Xc.=.R c u =                                       dXdXdXdXdXdXdXdX                                              ",
"dXdXdXdXdXdX    0 =.[.tXpXpXaXaXpX7XW.2.v ,         X                               dXdXdXdXdXdX                                                ",
"dXdXdXdXdXdX    e <.;XuXpXiXsXsXaXpX8X~.7.K 0 > 4 0 f h m m m m m m m h e 0 7 , ; = + dXdXdXdX+ = ; , 7 9 e n m N B B M f 8 ; +                 ",
"dXdXdXdXdXdX    f ,.,XpXpXsXsXaXaXpXuX7X(.g.@.O.{ =.>.p.c.M.m.c.m.m.c.z.u.=.{ L c a ;         ; a c L E @.>.p.m.B.S.N.z.,.E k ;             dXdX",
"dXdXdXdXdXdX    0 =.).tXpXpXpXpXpXaXaXpXrX>X).!.~.).>XrXpXaXaXpXaXpXpXyX4X).W.H.2.L <         7 L 2.H.W.).>XrXpXaXaXpX4XW.2.v :         . dXdXdX",
"dXdXdXdXdXdXdX. 7 H u.E.5XpXaXaXpXpXaXaXpXpXtXtXtXtXuXpXaXaXaXaXaXaXaXaXiXtX0X<X~.f._ B q q m Q 8.~.,XtXpXpXpXaXaXaXaX>Xn.[ p @         dXdXdXdX",
"dXdXdXdXdXdXdXdXX > f _ E.uXaXaXaXaXaXaXpXpXpXpXpXpXpXpXaXaXaXaXaXaXaXaXpXpXiXtX7X&X^.N.s.s.c.V.&X7XuXpXaXaXaXaXpXtX,Xl.E 8 +         dXdXdXdXdX",
"dXdXdXdXdXdXdXdXdX    e +.).tXpXpXsXpXpXpXpXpXpXaXpXpXpXpXpXpXpXpXpXpXpXpXpXpXpXpXpXpXpXaXpXpXpXpXpXaXpXpXyX>X[.W.H.5.L ,         X dXdXdXdXdXdX",
"dXdXdXdXdXdXdXdXdX    % f O.n.-X7XtX9X4X5XyXpXaXaXpXsXiXyXyXyXiXiXyXyXpXpXpXaXaXaXaXaXaXaXaXaXaXaXaXpXpX4X(.g.+.R v l u ;           dXdXdXdXdXdX",
"dXdXdXdXdXdXdXdXdX        > G f.~.}.{._.:XrXpXaXaXaXpXiXpXiXpXpXpXiXiXpXpXpXaXaXaXpXtX0X0XyXaXaXaXaXuX7X!.5.H 9 % @ = ; + dXdXdXdXdXdXdXdXdXdXdX",
"dXdXdXdXdXdXdXdXdX.         < L 6.H.Q.).>XyXpXaXpXpXpXpXpXpXpXpXpXpXpXpXpXpXaXaXpX5X-X).-X9XpXaXaXpX7X!.6.v :         . dXdXdXdXdXdXdXdXdXdXdXdX",
"dXdXdXdXdXdXdXdXdX  . $ 6 w 0 1 s } I.0XpXpXiXiXpXpXpXpXpXpXpXpXpXpXpXpXpXpXpXpXpX9X:X).).&X5XrXrX:Xb.*.v y #         dXdXdXdXdXdXdXdXdXdXdXdXdX",
"dXdXdXdXdXdXdXdXdX    t y.a.) , . f M.aXaXaXiXrXiXpXpXpXpXpXpXaXpXpXpXpXpXpXpXpXpXyXrX9X4X-X-X{.[.K.#.z : O   dXdXdXdXdXdXdXdXdXdXdXdXdXdXdXdXdX",
"dXdXdXdXdXdXdXdXdX    D +XpX^.m   3 p.pXaXaXpXyXpXpXpXpXpXpXpXpXpXpXpXpXpXaXpXpXpXaXaXpXrX3X).Q.L.5.G :     dXdXdXdXdXdXdXdXdXdXdXdXdXdXdXdXdXdX",
"dXdXdXdXdXdXdXdXdX    A Z.aXqXy.n r ~ m.%XwXaXaXaXpXiXpXpXaXpXpXpXpXpXpXpXpXpXpXpXaXaXaXpX5X-XQ.D.o.l ;     dXdXdXdXdXdXdXdXdXdXdXdXdXdXdXdXdXdX",
"dXdXdXdXdXdXdXdXdX    B B.aXaXwXm.U q w ~ Z.aXaXaXyXyXyXpXpXpXpXpXpXaXpXpXpXpXpXpXaXpXaXaXpX9X{.H.X.d =     dXdXdXdXdXdXdXdXdXdXdXdXdXdXdXdXdXdX",
"dXdXdXdXdXdXdXdXdX    h a.pXaXaXpXi.3   9 a.pXaXaXpXiXpXpXpXpXpXpXaXpXpXpXaXpXpXpXpXpXpXaXaXpX7X~.2.b ;     dXdXdXdXdXdXdXdXdXdXdXdXdXdXdXdXdXdX",
"dXdXdXdXdXdXdXdXdX    t i.yXaXaXaXC.! 5 5 S a.#XwXaXaXaXpXyXpXpXpXpXpXpXpXpXpXpXpXpXiXpXaXaXaXuX;Xl.L <     dXdXdXdXdXdXdXdXdXdXdXdXdXdXdXdXdXdX",
"dXdXdXdXdXdXdXdXdX    h p.yXaXaXaXeX#Xa.S 9 5 ~ Z.aXaXaXyXyXyXpXpXpXpXpXpXpXpXpXpXpXpXpXaXaXaXpX8XR.{ 9     dXdXdXdXdXdXdXdXdXdXdXdXdXdXdXdXdXdX",
"dXdXdXdXdXdXdXdXdX    m m.pXaXaXpXaXaXpXa.5   5 a.pXaXaXpXiXpXpXaXpXaXpXpXpXpXaXpXpXpXpXpXpXpXpXtX[.@.0     dXdXdXdXdXdXdXdXdXdXdXdXdXdXdXdXdXdX",
"dXdXdXdXdXdXdXdXdX    m B.aXaXaXiXpXaXaXZ.~ 5 5 S a.#XwXaXaXpXpXiXpXpXpXpXpXpXpXpXpXpXpXpXpXiXpXpX;X>.e     dXdXdXdXdXdXdXdXdXdXdXdXdXdXdXdXdXdX",
"dXdXdXdXdXdXdXdXdX    m m.aXaXaXyXyXaXaXwX%Xa.S 9 9 ~ Z.aXaXaXiXyXyXpXpXaXpXpXpXpXpXpXpXpXiXpXpXuX;X<.e     dXdXdXdXdXdXdXdXdXdXdXdXdXdXdXdXdXdX",
"dXdXdXdXdXdXdXdXdX    m m.pXaXaXpXyXyXpXaXaXpXa.5   5 a.pXaXaXpXyXpXpXpXpXpXpXpXpXpXpXpXpXpXpXpXtX[.=.0     dXdXdXdXdXdXdXdXdXdXdXdXdXdXdXdXdXdX",
"dXdXdXdXdXdXdXdXdXdX  w ` V.6XsXaXpXyXyXaXaXaXZ.~ 5 5 S p.#XwXaXaXaXpXiXpXaXpXpXpXpXpXpXaXaXaXpX8XR.W 8     dXdXdXdXdXdXdXdXdXdXdXdXdXdXdXdXdXdX",
"dXdXdXdXdXdXdXdXdXdXdX$ 5 A y.#XaXaXaXyXyXaXaXyX%Xa.D 4 3 ! C.aXaXaXpXiXpXpXpXpXpXpXyXpXaXaXaXtX{.j.L < .   dXdXdXdXdXdXdXdXdXdXdXdXdXdXdXdXdXdX",
"dXdXdXdXdXdXdXdXdXdXdXdX    h c.pXaXaXpXyXyXpXaXaXpXa.5   9 a.pXaXaXpXyXpXpXpXpXpXpXpXpXaXaXpX7X~.5.b ;     dXdXdXdXdXdXdXdXdXdXdXdXdXdXdXdXdXdX",
"dXdXdXdXdXdXdXdXdXdXdXdX    3 ! m.*XsXaXaXiXyXaXaXaX+X` m m ) m.%XwXpXaXpXpXpXpXpXaXaXpXaXpXyX1XU.1.b ;     dXdXdXdXdXdXdXdXdXdXdXdXdXdXdXdXdXdX",
"dXdXdXdXdXdXdXdXdXdXdXdX      X r t.@XaXaXaXpXsXaXaXpXqX^.` N t ~ Z.pXaXaXiXiXpXaXaXaXaXpXyX4X{.U.2.c ,     dXdXdXdXdXdXdXdXdXdXdXdXdXdXdXdXdXdX",
"dXdXdXdXdXdXdXdXdXdXdXdXX         B V.pXaXaXpXyXyXpXaXaXpXa.5   9 a.pXaXaXpXiXuXpXpXaXpXyX>X).Q.H.2.G ,     dXdXdXdXdXdXdXdXdXdXdXdXdXdXdXdXdXdX",
"dXdXdXdXdXdXdXdXdXdXdX5 h j 0 , ; 0 / a.+XeXpXaXaXaXaXsX$X) : . f v.aXaXaXaXiXyXyXuXpXuX9X).I.D.9.1.[ V h w & dXdXdXdXdXdXdXdXdXdXdXdXdXdXdXdXdX",
"dXdXdXdXdXdXdXdXdXdX  0 / >.f.&.P p , 5 ~ C.pXaXaXaX@Xy.F 4 1 l @.&XpXaXaXaXyX9X4X7X7X7X-XR.h.2.X.X.2.d.u._ e   dXdXdXdXdXdXdXdXdXdXdXdXdXdXdXdX",
"dXdXdXdXdXdXdXdXdX    e >.).<X'.3.s .   t a.pXaXaXaXs.t   . s 3.~.7XpXaXaXpX5X;X[.).{.[.R.j.2.X...3.U.}.[.>.f     dXdXdXdXdXdXdXdXdXdXdXdXdXdXdX",
"dXdXdXdXdXdXdXdXo 2 m -.`.0X,XG.P 1 @ 5 ^ ^.pXaX6Xa.A > # y | L.,X0XuXyXrX3X(.R.K.K.K.G.0.1.X.%.f.R.,X0X,X7.f     dXdXdXdXdXdXdXdXdXdXdXdXdXdXdX",
"dXdXdXdXdXdXdX  5 ~ m.*XuX0Xn.x @ @ m i.*XaXpX+X^ 5 ; u I %.0.W.}.7X4X>X(.P.k.h.0.8.6.3.X.] o.f./.5XpX0X'.#.8     dXdXdXdXdXdXdXdXdXdXdXdXdXdXdX",
"dXdXdXdXdXdX    m m.pXaXaX).W %   w s.pXaXaXpXa.r   . l 2.U.~.[.-X-X[.I.h.3.1.1.2.6.6.3.%.X.2.T.6XpXtX[.2.l ;     dXdXdXdXdXdXdXdXdXdXdXdXdXdXdX",
"dXdXdXdXdXdX    B S.aXaX&X<.C t F ` OXaXaXaXpXC.~ w , p [ b.-XtX0X[.G.2.o. .o.1.6.h.b.n.K.b.R.-XrXrXE.@.d - O   dXdXdXdXdXdXdXdXdXdXdXdXdXdXdXdX",
"dXdXdXdXdXdX    A Z.aX*X;.f h -.+XwXsXaXaXaXiXqX#Xc.U 7 7 / +XaXpX(.3.' '  .%.9.K.!._.:X5XeX9X9X1XR.+.i O   dXdXdXdXdXdXdXdXdXdXdXdXdXdXdXdXdXdX",
"dXdXdXdXdXdX    M x.).d.9   5 a.pXaXaXpXyXyXpXaXaXpXa.3   w B.pXpX~.2. .o.2.j.I.).4XrXpXaXaXpX7X~.3.b >     dXdXdXdXdXdXdXdXdXdXdXdXdXdXdXdXdXdX",
"dXdXdXdXdXdXdX  f W +.V @   q y.+X#XN.p.m.=XaXaXaXaXM.M + 4 ) C.&XE.b.b.K.R.(.>X9XpXpXaXaXpXrX(.j.o.v i 9 3 dXdXdXdXdXdXdXdXdXdXdXdXdXdXdXdXdXdX",
"dXdXdXdXdXdXdXdX, 0 9 > X   & n A m 3 q ~ Z.aXaXaX9XT.#.x 8 0 A y.A.3XrXrXrXrXpXpXpXuXrX4X_.R.h.1.X.%.:.=.Y w   dXdXdXdXdXdXdXdXdXdXdXdXdXdXdXdX",
"dXdXdXdXdXdXdXdXdX            o         B C.pXaXtX[.W.L.2.l O   t m.pXaXaXpXiXpXpXyX7X[.I.q.2.%.o.5.L. X).>.e     dXdXdXdXdXdXdXdXdXdXdXdXdXdXdX",
"dXdXdXdXdXdXdXdXdXdX    . .   X . . O > m ` a./._.{..X.XU.R %   w z.uXaXpX5X3X6X3X-X!.K.6.X. .] X.h.|.tX8Xx.j     dXdXdXdXdXdXdXdXdXdXdXdXdXdXdX",
"dXdXdXdXdXdXdXdXdXdXdX      # 1 k E @.+.D w w U n.1XtX0X~.( 3   4 =.[.<X[.P.n.P.T.K.l.6.1.o. .X.6.K.,X0X1Xd.h     dXdXdXdXdXdXdXdXdXdXdXdXdXdXdX",
"dXdXdXdXdXdXdXdXdXdXdXdX    ; x 3.'.2X[.=.4   > ( ).tXtX[.@.3   @ c 2.D.0.6.1.2.5.3.5.2.1.%.2.h.P.[.8X0X[.=.e     dXdXdXdXdXdXdXdXdXdXdXdXdXdXdX",
"dXdXdXdXdXdXdXdXdXdXdXdX    7 P J.2XtX0Xn.D , % h @.T.[.).k.T 8 ; 1 l I o.4.4.X.o.o.1.8.h.l.T._.4XrXtX8XW.O.8     dXdXdXdXdXdXdXdXdXdXdXdXdXdXdX",
"dXdXdXdXdXdXdXdXdXdXdXdX    < P F..X2X1X).n.+.g > 4 V 5.Y.U.8.L 8 + # 8 [ e.w.4.X.X.6.K.R._.3XyXpXpXuX,XH.E <     dXdXdXdXdXdXdXdXdXdXdXdXdXdXdX",
"dXdXdXdXdXdXdXdXdXdXdXdX    ; G 5.L.W.[.1X8X[.=.5   + x 3.H.H.3.x %   > K 5.q.9.5.0.I.[.4XyXpXaXaXpX9X~.2.x ;     dXdXdXdXdXdXdXdXdXdXdXdXdXdXdX",
"dXdXdXdXdXdXdXdXdXdXdXdXdX  ; i J *.h.Q.8XtX0XV./ 4 @ : x %.D.F.&.z % % p R %.6.G.!.-X9XuXpXpXpXyX=XT.&.K u @   dXdXdXdXdXdXdXdXdXdXdXdXdXdXdXdX",
"dXdXdXdXdXdXdXdXdXdXdXdXdXdX  @ 7 x $.L..X2X1X-XV.=.M % @ p %.F.F.&.G 7 > 7 V :.!.7XuXpXpXuXrX1X[.b.O.z , +   dXdXdXdXdXdXdXdXdXdXdXdXdXdXdXdXdX",
"dXdXdXdXdXdXdXdXdXdXdXdXdXdXdX    : c 5.L.W.).1X2X[.=.5   + x 6.J.J.2.x @   4 @.[.uXpXpXyX4X).W.J.6.c ,     dXdXdXdXdXdXdXdXdXdXdXdXdXdXdXdXdXdX",
"dXdXdXdXdXdXdXdXdXdXdXdXdXdXdX    + 7 c $.h.Q.2X0X<Xk.C % . ; V 2.J.H.} ,   > ( !.8XtXrX-XR.K.D.D.6.J ,     dXdXdXdXdXdXdXdXdXdXdXdXdXdXdXdXdXdX",
"dXdXdXdXdXdXdXdXdXdXdXdXdXdXdX      . , V *.L.oXXX'.G.&.G , X + x 6.D.%.8   $ H h.].|.~.K.h.6.q.Y.l.O.0     dXdXdXdXdXdXdXdXdXdXdXdXdXdXdXdXdXdX",
"dXdXdXdXdXdXdXdXdXdXdXdXdXdXdXX         7 L 3.0.9.2.9.q.3.G %   < E 6.[ ,   $ G 3.j.q.3.%.%.5.L. X).>.f     dXdXdXdXdXdXdXdXdXdXdXdXdXdXdXdXdXdX",
"dXdXdXdXdXdXdXdXdXdXdXdXdXdXdXX .       > k G c k c } r.H.2.x , 7 x J g $ . < E 3.4.I l l [ h.}.tX8Xx.j .   dXdXdXdXdXdXdXdXdXdXdXdXdXdXdXdXdXdX",
"dXdXdXdXdXdXdXdXdXdXdXdXdXdXdXdXdXdXdXdX% , : % + ; x 2.J.J.6.E x g 7 X     i %.q. .8 O , Q R.0XpX0Xd.h     dXdXdXdXdXdXdXdXdXdXdXdXdXdXdXdXdXdX",
"dXdXdXdXdXdXdXdXdXdXdXdXdXdXdXdXdXdXdXdXdX.         7 J 2.D.F.2.L 7         g $.5.L ;   3 +.[.tXtX[.=.w     dXdXdXdXdXdXdXdXdXdXdXdXdXdXdXdXdXdX",
"dXdXdXdXdXdXdXdXdXdXdXdXdXdXdXdXdXdXdXdXdX.         ; i G [ } { V ,         , x L z 7 4 H k.|.}.I.=.Z >   dXdXdXdXdXdXdXdXdXdXdXdXdXdXdXdXdXdXdX",
"dXdXdXdXdXdXdXdXdXdXdXdXdXdXdXdXdXdXdXdXdXdXdXdXdXdX$ > , 8 8 8 , +         . % , i x E 6.U.U.f.T e & o dXdXdXdXdXdXdXdXdXdXdXdXdXdXdXdXdXdXdXdX",
"dXdXdXdXdXdXdXdXdXdXdXdXdXdXdXdXdXdXdXdXdXdXdXdXdXdXdX                  .         , L 2.F.H.3.G ,     dXdXdXdXdXdXdXdXdXdXdXdXdXdXdXdXdXdXdXdXdX",
"dXdXdXdXdXdXdXdXdXdXdXdXdXdXdXdXdXdXdXdXdXdXdXdXdXdXdXdX            . . X         8 G } } P c i >   dXdXdXdXdXdXdXdXdXdXdXdXdXdXdXdXdXdXdXdXdXdX",
"dXdXdXdXdXdXdXdXdXdXdXdXdXdXdXdXdXdXdXdXdXdXdXdXdXdXdXdXdXdXdXdXdXdXdXdXdXdXdXdXdXdX8 8 8 < ; ; + dXdXdXdXdXdXdXdXdXdXdXdXdXdXdXdXdXdXdXdXdXdXdX",
"dXdXdXdXdXdXdXdXdXdXdXdXdXdXdXdXdXdXdXdXdXdXdXdXdXdXdXdXdXdXdXdXdXdXdXdXdXdXdXdXdXdX            dXdXdXdXdXdXdXdXdXdXdXdXdXdXdXdXdXdXdXdXdXdXdXdX",
"dXdXdXdXdXdXdXdXdXdXdXdXdXdXdXdXdXdXdXdXdXdXdXdXdXdXdXdXdXdXdXdXdXdXdXdXdXdXdXdXdXdX            dXdXdXdXdXdXdXdXdXdXdXdXdXdXdXdXdXdXdXdXdXdXdXdX"
};
