/* XPM */
static char *_46054451_16756723941675672399[] = {
/* columns rows colors chars-per-pixel */
"72 72 224 2 ",
"   c #000000",
".  c #0B0400",
"X  c #0B0900",
"o  c #070800",
"O  c #140500",
"+  c #140B00",
"@  c #1A0E00",
"#  c #1C1300",
"$  c #181700",
"%  c #230C00",
"&  c #241400",
"*  c #2A1600",
"=  c #241D00",
"-  c #2B1B00",
";  c #321E00",
":  c #391702",
">  c #1F2600",
",  c #2C2300",
"<  c #2D2B00",
"1  c #232700",
"2  c #342600",
"3  c #3A2500",
"4  c #332B00",
"5  c #3A2B00",
"6  c #2F3000",
"7  c #333300",
"8  c #3C3300",
"9  c #3C3D00",
"0  c #353A00",
"q  c #240B25",
"w  c #442C00",
"e  c #472900",
"r  c #532C00",
"t  c #572900",
"y  c #433300",
"u  c #433D00",
"i  c #4C3D00",
"p  c #4B3403",
"a  c #533400",
"s  c #5C3500",
"d  c #553900",
"f  c #5D3B00",
"g  c #633A01",
"h  c #673A00",
"j  c #3D4200",
"k  c #444300",
"l  c #4C4500",
"z  c #474900",
"x  c #4A4A00",
"c  c #5A4400",
"v  c #564800",
"b  c #5B5400",
"n  c #575700",
"m  c #654100",
"M  c #6C4600",
"N  c #6D4900",
"B  c #654D00",
"V  c #734C00",
"C  c #7C4E00",
"Z  c #6D5500",
"A  c #695700",
"S  c #7D5300",
"D  c #735B00",
"F  c #755800",
"G  c #656300",
"H  c #6B6700",
"J  c #6C6B00",
"K  c #776300",
"L  c #7B7A00",
"P  c #787600",
"I  c #140B4F",
"U  c #2F3061",
"Y  c #5E6151",
"T  c #6C724F",
"R  c #CF1A00",
"E  c #D20717",
"W  c #D73F00",
"Q  c #E33331",
"!  c #DE3624",
"~  c #835B01",
"^  c #8C5D00",
"/  c #815500",
"(  c #9A5E00",
")  c #945A00",
"_  c #836300",
"`  c #846A00",
"'  c #8B6E00",
"]  c #8A6400",
"[  c #926300",
"{  c #9B6100",
"}  c #996B00",
"|  c #897800",
" . c #947300",
".. c #9C7500",
"X. c #927A00",
"o. c #9B7A00",
"O. c #98601D",
"+. c #A66E00",
"@. c #A76800",
"#. c #AB7300",
"$. c #AD7B00",
"%. c #A47700",
"&. c #B17300",
"*. c #B37C00",
"=. c #BC7B00",
"-. c #B87400",
";. c #DA5C00",
":. c #DE7200",
">. c #DC6000",
",. c #E47C00",
"<. c #F0781D",
"1. c #F25A4D",
"2. c #7E8300",
"3. c #878600",
"4. c #968101",
"5. c #9E8300",
"6. c #978D00",
"7. c #9B9500",
"8. c #9D9B00",
"9. c #939200",
"0. c #8F9600",
"q. c #A38B00",
"w. c #AC8C00",
"e. c #A38300",
"r. c #B48400",
"t. c #BA8400",
"y. c #BB8D00",
"u. c #B48A00",
"i. c #A39E00",
"p. c #A89300",
"a. c #BC9300",
"s. c #BB9C00",
"d. c #B39900",
"f. c #B0911D",
"g. c #A4A400",
"h. c #ABA500",
"j. c #AAAB00",
"k. c #A6AC00",
"l. c #B1A600",
"z. c #B3AB00",
"x. c #BCA600",
"c. c #B8B600",
"v. c #B6B626",
"b. c #C38C00",
"n. c #CC8C00",
"m. c #D18C00",
"M. c #C39400",
"N. c #CC9200",
"B. c #C49B00",
"V. c #CB9C00",
"C. c #D29600",
"Z. c #D69D00",
"A. c #E9950A",
"S. c #C7A700",
"D. c #D4A400",
"F. c #DAA500",
"G. c #D3AB00",
"H. c #DBAB00",
"J. c #C3BD00",
"K. c #C8B300",
"L. c #DEB600",
"P. c #DABC00",
"I. c #D3BA00",
"U. c #E3A500",
"Y. c #E8AB00",
"T. c #EBB600",
"R. c #E3BC00",
"E. c #EDBC00",
"W. c #E3B500",
"Q. c #F8BA01",
"!. c #FFAE1D",
"~. c #F08E31",
"^. c #DA993E",
"/. c #BFC100",
"(. c #C4C300",
"). c #CCC900",
"_. c #DDC200",
"`. c #D2CD00",
"'. c #D8C600",
"]. c #DCD601",
"[. c #CAD000",
"{. c #E4C300",
"}. c #EAC500",
"|. c #E3CB00",
" X c #EACD00",
".X c #F3C100",
"XX c #FBC400",
"oX c #F2CB00",
"OX c #FECC00",
"+X c #ECD400",
"@X c #EEDA00",
"#X c #E4D900",
"$X c #F4D400",
"%X c #FDD300",
"&X c #F2DB00",
"*X c #FEDC00",
"=X c #F9CA10",
"-X c #E6E200",
";X c #EEEE00",
":X c #E9E300",
">X c #F4E300",
",X c #FEE400",
"<X c #F5EB00",
"1X c #FCEC00",
"2X c #F6F300",
"3X c #FEF600",
"4X c #FEFE00",
"5X c #F7FF00",
"6X c #FFDB24",
"7X c #FFFF26",
"8X c #FD954F",
"9X c #FFB64D",
"0X c #FFFF4F",
"qX c #EDEF4F",
"wX c #FFFF61",
"eX c #D6D64F",
"rX c #524EA8",
"tX c #B0B1AA",
"yX c #FFFFA9",
"uX c #D3D7A8",
"iX c #9C9DCF",
"pX c #FFFFCF",
"aX c white",
"sX c None",
/* pixels */
"sXsXsXsXsXsXsXsXsXsXsXsXsXsXsXsXsXsXsXsXsXsXsXsXsXsXsXsXsXsX            o o . sXsXsXsXsXsXsXsXsXsXsXsXsXsXsXsXsXsXsXsXsXsXsXsXsXsXsXsXsXsXsXsXsX",
"sXsXsXsXsXsXsXsXsXsXsXsXsXsXsXsXsXsXsXsXsXsXsXsXsXsXsXsXsXsX                  sXsXsXsXsXsXsXsXsXsXsXsXsXsXsXsXsXsXsXsXsXsXsXsXsXsXsXsXsXsXsXsXsX",
"sXsXsXsXsXsXsXsXsXsXsXsXsXsXsXsXsXsXsXsXsXsXsXsXsXsXsXsXsXsXsX                  sXsXsXsXsXsXsXsXsXsXsXsXsXsXsXsXsXsXsXsXsXsXsXsXsXsXsXsXsXsXsXsX",
"sXsXsXsXsXsXsXsXsXsXsXsXsXsXsXsXsXsXsXsXsXsXsXsXsXsXsXsXsXsXsXsX                  sXsXsXsXsXsXsXsXsXsXsXsXsXsXsXsXsXsXsXsXsXsXsXsXsXsXsXsXsXsXsX",
"sXsXsXsXsXsXsXsXsXsXsXsXsXsXsXsXsXsXsXsXsXsXsXsXsXsXsXsXsXsXsXsXsX                  sXsXsXsXsXsXsXsXsXsXsXsXsXsXsXsXsXsXsXsXsXsXsXsXsXsXsXsXsXsX",
"sXsXsXsXsXsXsXsXsXsXsXsXsXsXsXsXsXsXsXsXsXsXsXsXsXsXsXsXsXsXsXsXsX    X * w i l k j 1 sXsXsXsXsXsXsXsXsXsXsXsXsXsXsXsXsXsXsXsXsXsXsXsXsXsXsXsXsX",
"sXsXsXsXsXsXsXsXsXsXsXsXsXsXsXsXsXsXsXsXsXsXsXsXsXsXsXsXsXsXsXsXsX    & r ^ u.x.j.L 9   sXsXsXsXsXsXsXsXsXsXsXsXsXsXsXsXsXsXsXsXsXsXsXsXsXsXsXsX",
"sXsXsXsXsXsXsXsXsXsXsXsXsXsXsXsXsXsXsXsXsXsXsXsXsXsXsXsXsXsXsXsXsX    & s #..X4X3Xk.x     sXsXsXsXsXsXsXsXsXsXsXsXsXsXsXsXsXsXsXsXsXsXsXsXsXsXsX",
"sXsXsXsXsXsXsXsXsXsXsXsXsXsXsXsXsXsXsXsXsXsXsXsXsXsXsXsXsXsXsXsXsXsX  % r ^ S.1X4X[.2.u $   sXsXsXsXsXsXsXsXsXsXsXsXsXsXsXsXsXsXsXsXsXsXsXsXsXsX",
"sXsXsXsXsXsXsXsXsX      sXsXsXsXsXsXsXsXsXsXsXsXsXsXsXsXsXsXsXsXsXsXsXo + w F S.*X,X'.8.G <   sXsXsXsXsXsXsXsXsXsXsXsXsXsXsXsXsXsXsXsXsXsXsXsXsX",
"sXsXsXsXsXsXsXsXsX      sXsXsXsXsXsXsXsXsXsXsXsXsXsXsXsXsXsXsXsXsXsXsXsX    5 ] L.4X4X3Xg.k     sXsXsXsXsXsXsXsXsXsXsXsXsXsXsXsXsXsXsXsXsXsXsXsX",
"sXsXsXsXsXsXsXsX< 9 k 9 < sXsXsXsXsXsXsXsXsXsXsXsXsXsXsXsXsXsXsXsXsXsXsX    5 ' T.4X4X4X/.| l - @ sXsXsXsXsXsXsXsXsXsXsXsXsXsXsXsXsXsXsXsXsXsXsX",
"sXsXsXsXsXsXsX  k 3.i.3.k   sXsXsXsXsXsXsXsXsXsXsXsXsXsXsXsXsXsXsXsXsXsX    y ..oX4X4X4X:X'.w.D 5 X sXsXsXsXsXsXsXsXsXsXsXsXsXsXsXsXsXsXsXsXsXsX",
"sXsXsXsXsXsX    b J.3X(.b     sXsXsXsXsXsXsXsXsXsXsXsXsXsXsXsXsXsXsXsXsX    5 ' W.1X3X3X3X,XL.' 5     sXsXsXsXsXsXsXsXsXsXsXsXsXsXsXsXsXsXsXsXsX",
"sXsXsXsXsXsX    n c.4X:X3.k $ o sXsXsXsXsXsXsXsXsXsXsXsXsXsXsXsXsXsXsXsXsXo 5 Z X.6.7.8.j.x.w.Z ,       sXsXsXsXsXsXsXsXsXsXsXsXsXsXsXsXsXsXsXsX",
"sXsXsXsXsXsX    z j.4X4X:Xg.A <   sXsXsXsXsXsXsXsXsXsXsXsXsXsXsXsXsXsXsXsXsXsX4 4 7 0 9 k u 8 , +               sXsXsXsXsXsXsXsXsXsXsXsXsXsXsXsX",
"sXsXsXsXsXsX    u 8.3X4X4X3X8.k     sXsXsXsXsXsXsXsXsXsXsXsXsXsXsXsXsXsXsXsXsX                                    sXsXsXsXsXsXsXsXsXsXsXsXsXsXsX",
"sXsXsXsXsXsX    9 7.<X4X4X4Xc.L k = X sXsXsXsXsXsXsXsXsXsXsXsXsXsXsXsXsXsXsXsX+ O O O . . @ # , 8 y 5 ; & % & & & + sXsXsXsXsXsXsXsXsXsXsXsXsXsX",
"sXsXsXsXsXsX    u 7.<X4X4X4X:X).i.H <   sXsXsXsXsXsXsXsXsXsXsXsXsXsXsXsXsX  & w f s t t s V ` X.4.o.] V g g h g e &   sXsXsXsXsXsXsXsXsXsXsXsXsX",
"sXsXsXsXsXsX    k g.3X4X4X3X4X4X3Xg.k     sXsXsXsXsXsXsXsXsXsXsXsXsXsXsX    - M +.=.&.+.*.S.W.}.}.L.V.r.+.&.=.+.N -     sXsXsXsXsXsXsXsXsXsXsXsX",
"sXsXsXsXsXsX    k j.4X4X4X<X3X4X4X(.L k = X sXsXsXsXsXsXsXsXsXsXsXsXsX  . & d [ n.U.U.H.R.$X,X1X1X*XoXL.H.Y.T.H.e.Z 5 $ o sXsXsXsXsXsXsXsXsXsXsX",
"sXsXsXsXsXsX    k g.4X4X4X<X<X4X4X;X`.g.H <   sXsXsXsXsXsXsXsXsXsXsX  @ ; g ^ *.Z.T.oX+X>X1X3X3X3X3X1X&X&X*X,X&XP.s.' c -   sXsXsXsXsXsXsXsXsXsX",
"sXsXsXsXsXsX    k g.3X4X4X3X<X<X3X4X4X3Xi.k     sXsXsXsXsXsXsXsXsX    - m +.N.F.L. X>X3X4X4X3X3X3X3X3X3X3X3X3X3X3X,XW.' 5     sXsXsXsXsXsXsXsXsX",
"sXsXsXsXsXsXsX  < H g.`.;X4X4X2X<X4X4X4X(.L k 1 X sXsXsXsXsXsXsXo # 5 M #.Y.OX*X,X3X4X4X4X5X3X3X3X3X5X4X4X4X5X4X4X4X1Xd.B * o   sXsXsXsXsXsXsXsX",
"sXsXsXsXsXsXsXsXX = k L (.4X4X4X<X2X4X4X;X`.g.H <   sXsXsXsXsX  & a ~ *.U.OX,X3X4X4X4X4X4X3X4X3X3X3X4X3X4X3X5X4X4X4X3XP.o.m : +   sXsXsXsXsXsXsX",
"sXsXsXsXsXsXsXsXsX    k g.3X4X4X3X<X<X3X4X4X3Xi.k     sXsXsX    & g +.N.F.W. X<X3X3X4X3X3X3X3X3X4X3X3X3X3X3X3X3X4X4X3X&XH.+.g &     sXsXsXsXsXsX",
"sXsXsXsXsXsXsXsXsXsX  < H i.).;X4X4X2X2X4X4X4X(.3.b 9 sXsXsX    & p V ^ ' ' | 9.8.l.K.P.+X>X3X3X3X3X2X3X3X1X1X2X3X5X3X,X=Xm./ ;     sXsXsXsXsXsX",
"sXsXsXsXsXsXsXsXsXsXsXX $ k L /.4X4X4X2X2X4X4X3X-X(.9.l         X # % & - , $ 1 7 v _ u.L.+X3X4X4X3X3X3X3X2X<X<X2X5X4X3X*XF.] 3     sXsXsXsXsXsX",
"sXsXsXsXsXsXsXsXsXsXsXsX    k i.3X4X4X3X<X<X3X4X4X3Xz.l         o                 * h +.D.&X3X4X4X3X3X3X3X3X3X3X3X3X3X3X,XR.' 5     sXsXsXsXsXsX",
"sXsXsXsXsXsXsXsXsXsXsXsXsX  6 J 8.).:X3X4X3X2X<X#Xc.L 7         $ 4 9 u 9 7 1 > < d ~ t.L.>X4X4X4X3X2X3X3X4X4X4X5X2X3X3X3X X4.8     sXsXsXsXsXsX",
"sXsXsXsXsXsXsXsXsXsXsXsXsXsXsX$ 0 J c.3X4X4X3Xc.L 9 $ o         5 K w.x.j.8.0.0.7.i.S.P.+X2X4X4X4X3X3X3X3X4X4X4X3X;X<X4X4X<Xi.u     sXsXsXsXsXsX",
"sXsXsXsXsXsXsXsXsXsXsXsXsXsXsX    u 7.3X4X4X3Xh.l               8 ..W.,X3X3X3X3X3X3X3X3X3X3X3X3X3X3X3X3X3X3X3X3X2X2X3X4X4X3Xi.k     sXsXsXsXsXsX",
"sXsXsXsXsXsXsXsXsXsXsXsXsXsXsX  & b h.3X4X4X3Xc.P 9 + o         2 Z p._.<X4X4X4X4X4X4X4X3X>X&X>X<X3X4X4X3X].z.g.v.eXwX0X7X4Xz.A - .   sXsXsXsXsX",
"sXsXsXsXsXsXsXsXsXsXsXsXsX  & d _ d.|.3X4X4X2X<X#XJ.L 7         X # u | ).3X4X4X4X5X4X4X<X X{.|.@X3X4X4X3Xz.b j Y tXpXyX0X3XI.%.h : O   sXsXsXsX",
"sXsXsXsXsXsXsXsXsXsXsXsX    7 ' L.,X3X3X3X2X3X4X4X3Xz.x               w X.W.*X3X3X5X4X3X&X{.R.R.+X3X4X4X3X7.<   U iXaXpXwX3X+XG.+.g &     sXsXsX",
"sXsXsXsXsXsXsXsXsXsXsXX = i ` K.1X4X5X3X3X4X4X2X-XJ.6.z             . * a F e.S.P._._.P.I.L.{. X&X4X4X4X4Xh.i . I rXiXuXqX3X3X*XD.~ 2     sXsXsX",
"sXsXsXsXsXsXsXsXsX    , Z w.P.&X3X4X3X3X4X4X4X(.3.n 8 sXsXsX    # e r e & & w _ r.b.t.t.B._.&X1X2X3X4X4X4X).X.a q I U T v.3X4X4X+X4.8     sXsXsX",
"sXsXsXsXsXsXsXsXsX    5 ' R.1X3X3X3X2X3X4X4X3Xi.u     sXsXsX    3 / +.S -   $ m +.-.@.#.a.|.3X4X4X3X4X4X3X&XH.%.t .   j 8.3X4X4X3X7.k     sXsXsX",
"sXsXsXsXsXsXsXsXsX    2 Z w.P.&X3X4X4X3X:X(.7.H <   sXsXsXsX    w %.Z.a.A 0 k ` t.b.t.t.S.#X4X4X4X3X>X+X.X!.!.~.O.p 4 n j.3X4X4X4Xg.k     sXsXsX",
"sXsXsXsXsXsXsXsXsXsXsXX - k ` x.,X4X5X3Xz.G < X sXsXsXsXsXsX  o p o.W.}.J.g.g.K._.P.L.P.#X<X4X4X4X4X=XA.,.<.~.8X^.f.8.j.`.3X4X4X4Xj.k     sXsXsX",
"sXsXsXsXsXsXsXsXsXsXsXsX    5 _ W.4X4X3Xi.j     sXsXsXsXsXsX    5 ' L.,X3X3X3X3X3X3X3X3X3X2X3X4X4X3XE.:.W Q 1.8X9X6X3X5X3X3X4X4X3Xg.k     sXsXsX",
"sXsXsXsXsXsXsXsXsXsXsXsXsX  * c  .P.3X3XJ.P 7 X sXsXsXsXsXsX    4 _ D.*X3X4X4X4X4X4X4X4X3X1X3X4X4X3XT.;.E E Q 1.8X6X4X5X5X3X4X4X1Xi.u     sXsXsX",
"sXsXsXsXsXsXsXsXsXsXsXsXsXsX. # y ` K.,X1X].g.G 6   sXsXsXsX    , V y.E.*X1X3X4X4X5X4X4X3X3X3X4X4X3XT.>.R E E Q ~.=X4X4X5X3X4X4X,Xp.u     sXsXsX",
"sXsXsXsXsXsXsXsXsXsXsXsXsXsXsX    5 ` W.4X5X3Xg.k     sXsXsX    & m +.N.F.L.+X<X3X4X4X3X3X3X3X4X4X3X.X:.W R R ;.,.E.3X4X4X3X3X,XL.' 5     sXsXsX",
"sXsXsXsXsXsXsXsXsXsXsXsXsXsXsX    # w ' I.3X4X).3.i @ sXsXsX7 u m S ( @.-.t.B.G.P.|.+X@X>X1X3X4X4X3X$XY.,.>.;.:.U.$X4X4X4X3X|.s.' c &   sXsXsXsX",
"sXsXsXsXsXsXsXsXsXsXsXsXsXsXsX        & D K.*X,XR.w.B #   < K e.w.%.( ) @.@.+.$.u.M.G.R.+X1X3X4X4X3X,X%X.XQ.T..X$X<X4X4X4X,Xs.D 5 @   sXsXsXsXsX",
"sXsXsXsXsXsXsXsXsXsXsXsXsXsXsXX         u X.L.*X,XW.` =   < X.L.E.N.+.{ } +.+.@.+.*.V.L.+X1X3X4X4X3X3X3X3X3X3X3X3X3X3X3X,XL.' 5     sXsXsXsXsXsX",
"sXsXsXsXsXsXsXsXsXsXsXsXsXsX- e y 2 = , b e.G.E.P.w.D 5 2 M w.T.Q.F.y.u.y.a.y.u.t.M.G.{.&X1X3X4X4X3X3X3X4X4X4X5X]./.g.p.q.o.F 2   sXsXsXsXsXsXsX",
"sXsXsXsXsXsXsXsXsXsXsXsX    - m ^ } ' | w.G.L.w.K u 5 d S } t.N.Z.D.G.L.|.|.'._._._. X&X<X3X4X4X5X3X3X5X4X3X3X#Xl.H j 4 8 y y - sXsXsXsXsXsXsXsX",
"sXsXsXsXsXsXsXsXsXsXsXsX    - g +.N.D.L.oX*XR.' <   @ m +.=.&.#.*.V.L. X1X3X4X4X3X3X3X3X3X3X3X3X3X3X5X3X3X3X*XW.o.y         X sXsXsXsXsXsXsXsXsX",
"sXsXsXsXsXsXsXsXsXsXsXsX    # e S r.F.OX*X%XY.' 5 O @ d ] @.{ ) } t.G. X<X4X4X4X4X4X4X4X3X<X>X,X1X3X3X3X3X3X,XR.%.p .       o sXsXsXsXsXsXsXsXsX",
"sXsXsXsXsXsXsXsXsXsXsXsXsXsX  @ 5 N *.U.Q.Q.C.%.S d e 3 w f C { @.*.y.G.{.,X3X3X4X4X4X4X<X@X X}.$X,X1X2X3X3X3X&XS.[ t % .     sXsXsXsXsXsXsXsXsX",
"sXsXsXsXsXsXsXsXsXsXsXsXsXsXsX    - M +.:.&.#.#.=.+.M #   # M +.=.&.+.*.N.L.+X1X3X4X4X3X>X XW.G.F.L.|.&X3X4X4X3X$XH.+.g &     sXsXsXsXsXsXsXsXsX",
"sXsXsXsXsXsXsXsXsXsXsXsXsXsXsXsX  & w g l d g { n.m.^ ;   & Z t.n.&.( ( #.y.V.G._.|.#X&X$XoXL.u. .' p.'.3X4X4X4X3X*XH...g - O   sXsXsXsXsXsXsXsX",
"sXsXsXsXsXsXsXsXsXsXsXsXsXsXsXsXsX# & & + + - N =.m.) ;   1 ` D.Z.t.( ) { @.#.*.t.B.G.{.$XoXL. .i , b d.,X4X4X4X4X3X&XS.} h : O   sXsXsXsXsXsXsX",
"sXsXsXsXsXsXsXsXsXsXsXsXsXsXsXsXsXsXX         w [ +.V &   < X.L.Q.N.+.( @.+.@.} +.r.V.R.%X%XL.` ,   & ` W.,X3X3X4X4X3X$XF.+.g &     sXsXsXsXsXsX",
"sXsXsXsXsXsXsXsXsXsXsXsXsXsXsXsXsXsXsX        ; d m d w w D s.{.}.Z.t.r.u.a.y.t.u.M.G.R.%X%XL. .w O + y ' s.L.$X3X3X4X4X1XE. .5     sXsXsXsXsXsX",
"sXsXsXsXsXsXsXsXsXsXsXsXsXsXsXsXsXsXsXsXsXsXsXX # - e g [ y.G.{.R.G.V.G.P.].|.'._.|.#X&X&X+XL.r.~ s * @ 1 c o.H.oX*X3X4X4X4Xi.u     sXsXsXsXsXsX",
"sXsXsXsXsXsXsXsXsXsXsXsXsXsXsXsXsXsXsXsXsXsXsXsX    - m +.C.H.L.L.L.L. X>X3X4X3X3X3X4X3X1X XL.F.n.+.g #   # m #.n.Z.L.,X4X3Xg.z     sXsXsXsXsXsX",
"sXsXsXsXsXsXsXsXsXsXsXsXsXsXsXsXsXsXsXsXsXsXsXsXsX  & p S +.N.G.T.R.}.+X1X4X4X4X4X4X4X4X1X&XoXXXQ.U.%.c & % : g V / ' 6.z.j.2.k   sXsXsXsXsXsXsX",
"sXsXsXsXsXsXsXsXsXsXsXsXsXsXsXsXsXsXsXsXsXsXsXsXsXsXo # 3 m } N.T.E.}. X&X*X1X3X4X4X4X4X3X*X%X%X%XXXF.$.C r ; & & - 5 u z x k < sXsXsXsXsXsXsXsX",
"sXsXsXsXsXsXsXsXsXsXsXsXsXsXsXsXsXsXsXsXsXsXsXsXsXsXsX    - g +.C.H.R.P.L.L.{.>X3X4X4X3X&X{.L.L.W.L.H.N.+.M -         o       sXsXsXsXsXsXsXsXsX",
"sXsXsXsXsXsXsXsXsXsXsXsXsXsXsXsXsXsXsXsXsXsXsXsXsXsXsXsX  @ e M [ t.M.N.b.y.B.P.+X1X1X@XK.q.' ` X.e.5. .~ g -         o     sXsXsXsXsXsXsXsXsXsX",
"sXsXsXsXsXsXsXsXsXsXsXsXsXsXsXsXsXsXsXsXsXsXsXsXsXsXsXsXsXo + - d ~ #.*.#.+.r.B.L. X%XP.e.v $ $ < u d y 5 ; & sXsXsXsXsXsXsXsXsXsXsXsXsXsXsXsXsX",
"sXsXsXsXsXsXsXsXsXsXsXsXsXsXsXsXsXsXsXsXsXsXsXsXsXsXsXsXsXsX    ; N +.-.&.+.*.B.L.oX%XW.5.y         o       sXsXsXsXsXsXsXsXsXsXsXsXsXsXsXsXsXsX",
"sXsXsXsXsXsXsXsXsXsXsXsXsXsXsXsXsXsXsXsXsXsXsXsXsXsXsXsXsXsX    5 F b.U.C.n.S.R.*X1X1X*XS.K 8 +           sXsXsXsXsXsXsXsXsXsXsXsXsXsXsXsXsXsXsX",
"sXsXsXsXsXsXsXsXsXsXsXsXsXsXsXsXsXsXsXsXsXsXsXsXsXsXsXsXsXsX    8 ..T.OXQ.T.{.>X4X4X4X4X<XP.w.B ,       sXsXsXsXsXsXsXsXsXsXsXsXsXsXsXsXsXsXsXsX",
"sXsXsXsXsXsXsXsXsXsXsXsXsXsXsXsXsXsXsXsXsXsXsXsXsXsXsXsXsXsX    8 X.L.OX.XW.{.>X3X4X4X3X3X,XL.' 5     sXsXsXsXsXsXsXsXsXsXsXsXsXsXsXsXsXsXsXsXsX",
"sXsXsXsXsXsXsXsXsXsXsXsXsXsXsXsXsXsXsXsXsXsXsXsXsXsXsXsXsXsXsXo 5 K X.e.5.4.5.i.j.j.k.j.z.x.w.` y X sXsXsXsXsXsXsXsXsXsXsXsXsXsXsXsXsXsXsXsXsXsX",
"sXsXsXsXsXsXsXsXsXsXsXsXsXsXsXsXsXsXsXsXsXsXsXsXsXsXsXsXsXsXsXsX1 8 u u y y 9 k z z z z k l d u 4 sXsXsXsXsXsXsXsXsXsXsXsXsXsXsXsXsXsXsXsXsXsXsX",
"sXsXsXsXsXsXsXsXsXsXsXsXsXsXsXsXsXsXsXsXsXsXsXsXsXsXsXsXsXsXsXsXsX                      o       sXsXsXsXsXsXsXsXsXsXsXsXsXsXsXsXsXsXsXsXsXsXsXsX",
"sXsXsXsXsXsXsXsXsXsXsXsXsXsXsXsXsXsXsXsXsXsXsXsXsXsXsXsXsXsXsXsXsX                              sXsXsXsXsXsXsXsXsXsXsXsXsXsXsXsXsXsXsXsXsXsXsXsX"
};
