/* XPM */
static char *_61402438_16756723931675672398[] = {
/* columns rows colors chars-per-pixel */
"72 72 224 2 ",
"   c #000000",
".  c #0B0400",
"X  c #0B0900",
"o  c #070800",
"O  c #140500",
"+  c #140B00",
"@  c #1A0E00",
"#  c #1C1300",
"$  c #181700",
"%  c #230C00",
"&  c #241400",
"*  c #2A1600",
"=  c #241D00",
"-  c #2B1B00",
";  c #321E00",
":  c #391702",
">  c #1F2600",
",  c #2C2300",
"<  c #2D2B00",
"1  c #232700",
"2  c #352600",
"3  c #3A2500",
"4  c #332B00",
"5  c #3A2B00",
"6  c #2F3000",
"7  c #333300",
"8  c #3C3300",
"9  c #3C3D00",
"0  c #353A00",
"q  c #240B25",
"w  c #442C00",
"e  c #472900",
"r  c #532C00",
"t  c #572900",
"y  c #433300",
"u  c #433D00",
"i  c #4C3D00",
"p  c #4B3403",
"a  c #533400",
"s  c #5C3500",
"d  c #553900",
"f  c #5D3B00",
"g  c #633A01",
"h  c #673A00",
"j  c #3D4200",
"k  c #444300",
"l  c #4C4500",
"z  c #474900",
"x  c #4A4A00",
"c  c #5A4400",
"v  c #564800",
"b  c #5B5400",
"n  c #575700",
"m  c #654100",
"M  c #6C4600",
"N  c #6D4900",
"B  c #654D00",
"V  c #734C00",
"C  c #7C4E00",
"Z  c #6D5500",
"A  c #695700",
"S  c #7D5300",
"D  c #735B00",
"F  c #755800",
"G  c #656300",
"H  c #6B6700",
"J  c #6C6B00",
"K  c #776300",
"L  c #7B7A00",
"P  c #787600",
"I  c #140B4F",
"U  c #2F3061",
"Y  c #5E6151",
"T  c #6C724F",
"R  c #CF1A00",
"E  c #D20717",
"W  c #D73F00",
"Q  c #E33331",
"!  c #DE3624",
"~  c #835B01",
"^  c #8C5D00",
"/  c #815500",
"(  c #9A5E00",
")  c #945A00",
"_  c #836300",
"`  c #846A00",
"'  c #8B6E00",
"]  c #8A6400",
"[  c #926300",
"{  c #9B6100",
"}  c #996B00",
"|  c #897800",
" . c #947300",
".. c #9C7500",
"X. c #927A00",
"o. c #9B7A00",
"O. c #98601D",
"+. c #A66E00",
"@. c #A76800",
"#. c #AB7300",
"$. c #AD7B00",
"%. c #A47700",
"&. c #B17300",
"*. c #B37C00",
"=. c #BC7B00",
"-. c #B87400",
";. c #DA5C00",
":. c #DE7200",
">. c #DC6000",
",. c #E47C00",
"<. c #F0781D",
"1. c #F25A4D",
"2. c #7E8300",
"3. c #878600",
"4. c #968101",
"5. c #9E8300",
"6. c #978D00",
"7. c #9B9500",
"8. c #9D9B00",
"9. c #939200",
"0. c #8F9600",
"q. c #A38B00",
"w. c #AC8C00",
"e. c #A38300",
"r. c #B48400",
"t. c #BA8400",
"y. c #BB8D00",
"u. c #B48A00",
"i. c #A39E00",
"p. c #A89300",
"a. c #BC9300",
"s. c #BB9C00",
"d. c #B39900",
"f. c #B0911D",
"g. c #A4A400",
"h. c #ABA500",
"j. c #AAAB00",
"k. c #A6AC00",
"l. c #B1A600",
"z. c #B3AB00",
"x. c #BCA600",
"c. c #B8B600",
"v. c #B6B626",
"b. c #C38C00",
"n. c #CC8C00",
"m. c #D18C00",
"M. c #C39400",
"N. c #CC9200",
"B. c #C49B00",
"V. c #CB9C00",
"C. c #D29600",
"Z. c #D69D00",
"A. c #E9950A",
"S. c #C7A700",
"D. c #D4A400",
"F. c #DAA500",
"G. c #D3AB00",
"H. c #DBAB00",
"J. c #C3BD00",
"K. c #C8B300",
"L. c #DEB600",
"P. c #DABC00",
"I. c #D3BA00",
"U. c #E3A500",
"Y. c #E8AB00",
"T. c #EBB600",
"R. c #E3BC00",
"E. c #EDBC00",
"W. c #E3B500",
"Q. c #F8BA01",
"!. c #FFAE1D",
"~. c #F08E31",
"^. c #DA993E",
"/. c #BFC100",
"(. c #C4C300",
"). c #CCC900",
"_. c #DDC200",
"`. c #D2CD00",
"'. c #D8C600",
"]. c #DCD601",
"[. c #CAD000",
"{. c #E4C300",
"}. c #EAC500",
"|. c #E3CB00",
" X c #EACD00",
".X c #F3C100",
"XX c #FBC400",
"oX c #F2CB00",
"OX c #FECC00",
"+X c #ECD400",
"@X c #EEDA00",
"#X c #E4D900",
"$X c #F4D400",
"%X c #FDD300",
"&X c #F2DB00",
"*X c #FEDC00",
"=X c #F9CA10",
"-X c #E6E200",
";X c #EEEE00",
":X c #E9E300",
">X c #F4E300",
",X c #FEE400",
"<X c #F5EB00",
"1X c #FCEC00",
"2X c #F6F300",
"3X c #FEF600",
"4X c #FEFE00",
"5X c #F7FF00",
"6X c #FFDB24",
"7X c #FFFF26",
"8X c #FD954F",
"9X c #FFB64D",
"0X c #FFFF4F",
"qX c #EDEF4F",
"wX c #FFFF61",
"eX c #D6D64F",
"rX c #524EA8",
"tX c #B0B1AA",
"yX c #FFFFA9",
"uX c #D3D7A8",
"iX c #9C9DCF",
"pX c #FFFFCF",
"aX c white",
"sX c None",
/* pixels */
"sXsXsXsXsXsXsXsXsXsXsXsXsXsXsXsXsXsXsXsXsXsXsXsXsXsXsXsXsXsXsXsXsXo o               sXsXsXsXsXsXsXsXsXsXsXsXsXsXsXsXsXsXsXsXsXsXsXsXsXsXsXsXsXsX",
"sXsXsXsXsXsXsXsXsXsXsXsXsXsXsXsXsXsXsXsXsXsXsXsXsXsXsXsXsXsXsXsXsX                  sXsXsXsXsXsXsXsXsXsXsXsXsXsXsXsXsXsXsXsXsXsXsXsXsXsXsXsXsXsX",
"sXsXsXsXsXsXsXsXsXsXsXsXsXsXsXsXsXsXsXsXsXsXsXsXsXsXsXsXsXsXsXsX                  sXsXsXsXsXsXsXsXsXsXsXsXsXsXsXsXsXsXsXsXsXsXsXsXsXsXsXsXsXsXsX",
"sXsXsXsXsXsXsXsXsXsXsXsXsXsXsXsXsXsXsXsXsXsXsXsXsXsXsXsXsXsXsX                  sXsXsXsXsXsXsXsXsXsXsXsXsXsXsXsXsXsXsXsXsXsXsXsXsXsXsXsXsXsXsXsX",
"sXsXsXsXsXsXsXsXsXsXsXsXsXsXsXsXsXsXsXsXsXsXsXsXsXsXsXsXsXsX                  sXsXsXsXsXsXsXsXsXsXsXsXsXsXsXsXsXsXsXsXsXsXsXsXsXsXsXsXsXsXsXsXsX",
"sXsXsXsXsXsXsXsXsXsXsXsXsXsXsXsXsXsXsXsXsXsXsXsXsXsXsXsXsX1 9 z l i w * +     sXsXsXsXsXsXsXsXsXsXsXsXsXsXsXsXsXsXsXsXsXsXsXsXsXsXsXsXsXsXsXsXsX",
"sXsXsXsXsXsXsXsXsXsXsXsXsXsXsXsXsXsXsXsXsXsXsXsXsXsXsXsX  j L h.x.u.~ r &     sXsXsXsXsXsXsXsXsXsXsXsXsXsXsXsXsXsXsXsXsXsXsXsXsXsXsXsXsXsXsXsXsX",
"sXsXsXsXsXsXsXsXsXsXsXsXsXsXsXsXsXsXsXsXsXsXsXsXsXsXsX    x k.3X4X.X+.s %     sXsXsXsXsXsXsXsXsXsXsXsXsXsXsXsXsXsXsXsXsXsXsXsXsXsXsXsXsXsXsXsXsX",
"sXsXsXsXsXsXsXsXsXsXsXsXsXsXsXsXsXsXsXsXsXsXsXsXsXsX  $ k 2.[.4X1XD.~ r %   sXsXsXsXsXsXsXsXsXsXsXsXsXsXsXsXsXsXsXsXsXsXsXsXsXsXsXsXsXsXsXsXsXsX",
"sXsXsXsXsXsXsXsXsXsXsXsXsXsXsXsXsXsXsXsXsXsXsXsXsX  < G 7.'.1X*XS.K w @ . sXsXsXsXsXsXsXsXsXsXsXsXsXsXsXsXsXsXsXsXsXsXsX      sXsXsXsXsXsXsXsXsX",
"sXsXsXsXsXsXsXsXsXsXsXsXsXsXsXsXsXsXsXsXsXsXsXsX    k g.3X4X4XL.` 2     sXsXsXsXsXsXsXsXsXsXsXsXsXsXsXsXsXsXsXsXsXsXsXsX      sXsXsXsXsXsXsXsXsX",
"sXsXsXsXsXsXsXsXsXsXsXsXsXsXsXsXsXsXsXsXsXsXsX+ - l | /.4X4X3XT.' 5     sXsXsXsXsXsXsXsXsXsXsXsXsXsXsXsXsXsXsXsXsXsXsX< 9 k 9 < sXsXsXsXsXsXsXsX",
"sXsXsXsXsXsXsXsXsXsXsXsXsXsXsXsXsXsXsXsXsXsXo 5 F w.'.:X4X4X4XoX%.w     sXsXsXsXsXsXsXsXsXsXsXsXsXsXsXsXsXsXsXsXsXsX  k 3.i.3.l   sXsXsXsXsXsXsX",
"sXsXsXsXsXsXsXsXsXsXsXsXsXsXsXsXsXsXsXsXsX    5 ' W.1X3X3X3X1XW.' 5     sXsXsXsXsXsXsXsXsXsXsXsXsXsXsXsXsXsXsXsXsX    n J.3XJ.b     sXsXsXsXsXsX",
"sXsXsXsXsXsXsXsXsXsXsXsXsXsXsXsXsXsXsXsX      , Z w.S.h.8.7.6.X.A 5 o sXsXsXsXsXsXsXsXsXsXsXsXsXsXsXsXsXsXsXsXsXo $ k 9.-X4Xc.n     sXsXsXsXsXsX",
"sXsXsXsXsXsXsXsXsXsXsXsXsXsXsXsX              + , 8 k j 9 0 7 4 4 sXsXsXsXsXsXsXsXsXsXsXsXsXsXsXsXsXsXsXsXsXsX  < A g.-X4X4Xj.z     sXsXsXsXsXsX",
"sXsXsXsXsXsXsXsXsXsXsXsXsXsXsX                                    sXsXsXsXsXsXsXsXsXsXsXsXsXsXsXsXsXsXsXsXsX    u 7.3X4X4X3X7.k     sXsXsXsXsXsX",
"sXsXsXsXsXsXsXsXsXsXsXsXsXsX+ % & & % & ; 5 y 8 < # + . . O O O + sXsXsXsXsXsXsXsXsXsXsXsXsXsXsXsXsXsXsXsXo 1 k L c.4X4X4X<X9.k     sXsXsXsXsXsX",
"sXsXsXsXsXsXsXsXsXsXsXsXsX  & p g h g g V ] o.5.X.` N s t t g s w &   sXsXsXsXsXsXsXsXsXsXsXsXsXsXsXsXsX  4 H g.).:X4X4X4X<X7.k     sXsXsXsXsXsX",
"sXsXsXsXsXsXsXsXsXsXsXsX    - N +.=.&.@.r.V.W.{.}.L.V.r.+.&.-.+.N ,     sXsXsXsXsXsXsXsXsXsXsXsXsXsXsX    k i.3X4X4X3X4X4X3Xi.k     sXsXsXsXsXsX",
"sXsXsXsXsXsXsXsXsXsXsXo # 5 Z e.H.T.W.H.L.=X*X1X3X,X$XR.H.U.U.n.[ a & .   sXsXsXsXsXsXsXsXsXsXsXsXsXX 1 u L (.4X4X3X<X4X4X4Xg.z     sXsXsXsXsXsX",
"sXsXsXsXsXsXsXsXsXsX  - c ' s._.$X,X*X&X&X<X3X3X3X3X1X>X$X}.T.Z.*.^ g ; +   sXsXsXsXsXsXsXsXsXsXsX  < H i.`.;X4X4X2X<X4X4X4Xg.k     sXsXsXsXsXsX",
"sXsXsXsXsXsXsXsXsX    4 ' L.,X3X3X3X3X3X3X3X3X3X3X3X4X4X3X<X+XL.F.C.+.m *     sXsXsXsXsXsXsXsXsX    k i.3X4X4X3X<X<X3X4X4X3Xg.k     sXsXsXsXsXsX",
"sXsXsXsXsXsXsXsX    - B s.,X4X4X4X4X4X4X4X4X2X3X3X3X3X4X4X3X2X,X*XXXY.$.N 3 # X sXsXsXsXsXsXsXo 1 u L (.4X4X4X<X2X4X4X;X`.g.H 4   sXsXsXsXsXsXsX",
"sXsXsXsXsXsXsX  O : m o.'.3X4X4X4X2X4X4X4X4X3X3X4X4X3X4X4X4X4X4X3X,XXXU.r.~ a &   sXsXsXsXsX  < H g.`.;X4X4X2X<X4X4X4X(.L k = o sXsXsXsXsXsXsXsX",
"sXsXsXsXsXsX    * g #.H.&X3X4X4X3X3X3X3X3X3X3X3X3X3X3X3X3X3X4X3X<X XW.F.n.+.m &     sXsXsX    u i.3X4X4X3X<X<X3X4X4X3Xg.k     sXsXsXsXsXsXsXsXsX",
"sXsXsXsXsXsX    ; / N.XX,X3X5X5X2X1X2X2X3X2X3X3X3X2X<X XP.K.h.8.9.| ` ' ^ C p &     sXsXsXu b 3.(.4X4X4X2X2X4X4X;X).i.H <   sXsXsXsXsXsXsXsXsXsX",
"sXsXsXsXsXsX    3 ] F.*X3X3X5X2X<X<X1X3X3X3X3X4X4X3X$XL.r.] v 7 1 = 1 * & @ @ X         l 9.(.-X3X4X3X2X3X4X4X4X/.L k $ o sXsXsXsXsXsXsXsXsXsXsX",
"sXsXsXsXsXsX    5 ' L.,X3X3X3X3X3X3X3X3X3X3X3X4X4X3X$XD.+.h *         o       o         x z.3X4X4X3X<X<X3X4X4X3Xi.k     sXsXsXsXsXsXsXsXsXsXsXsX",
"sXsXsXsXsXsX    y 4.+X3X3X2X2X4X4X4X4X3X3X2X3X4X4X4X>XL.u.~ d < > 1 7 9 u y 4 $         8 L c.#X;X<X3X4X3X-X).8.J 7   sXsXsXsXsXsXsXsXsXsXsXsXsX",
"sXsXsXsXsXsX    k p.<X4X4X<X<X2X4X4X4X3X3X3X3X4X4X4X2X@XP.S.i.7.0.0.8.l.x.p.K 5         o $ 9 P J.3X4X4X3Xc.H 0 $ sXsXsXsXsXsXsXsXsXsXsXsXsXsXsX",
"sXsXsXsXsXsX    k i.3X4X4X3X2X3X3X3X3X3X3X3X3X3X3X3X3X3X3X3X3X3X3X3X3X3X*XW. .y               z h.3X4X4X3X7.k     sXsXsXsXsXsXsXsXsXsXsXsXsXsXsX",
"sXsXsXsXsX    * A l.3X7XwXwXeXv.g.c.].3X4X4X3X<X<X&X<X2X4X4X4X4X4X4X4X<X_.p.D ,         o $ 9 L J.2X4X4X3Xh.B #   sXsXsXsXsXsXsXsXsXsXsXsXsXsXsX",
"sXsXsXsX  O : h o.'.3X0XyXpXtXY 9 b l.3X4X4X3X@X}.{.}.<X4X4X4X4X4X4X4X).| u # o         7 L c.#X>X2X4X4X3X].d._ a &   sXsXsXsXsXsXsXsXsXsXsXsXsX",
"sXsXsX    * g +.D.+X3XwXpXaXiXU   4 7.3X4X4X3X@XR.L.{.@X3X4X4X3X3X*XL.o.y               x l.3X4X4X3X2X3X3X3X,XL.' 7     sXsXsXsXsXsXsXsXsXsXsXsX",
"sXsXsX    3 _ D.*X3X3XqXuXiXrXI X p h.4X4X4X3X&X+X{.P.L._._._.I.S.5.S p * .             l 9.J.#X2X4X4X3X3X4X4X1XK.` i = X sXsXsXsXsXsXsXsXsXsXsX",
"sXsXsX    8 4.$X4X4X3Xv.T U I q p X.'.4X4X4X3X2X<X&X_.B.r.t.b.u._ w # * e t e &     sXsXsX8 n 3.(.4X4X4X3X3X4X3X>XP.w.Z 2     sXsXsXsXsXsXsXsXsX",
"sXsXsX    u 7.3X4X4X3X8.j   . t #.H.&X3X4X4X3X4X4X3X|.a.#.@.-.+.m #   , C +.S 3     sXsXsX    k g.3X4X4X3X2X3X3X3X1XW.' 2     sXsXsXsXsXsXsXsXsX",
"sXsXsX    z g.4X4X4X3Xj.n 6 p O.~.!.!..XoX>X3X4X4X4X#XS.u.=.b.u.` k 0 A u.Z...p     sXsXsXsX  6 G 7.(.-X3X4X4X3X@XP.w.Z ,     sXsXsXsXsXsXsXsXsX",
"sXsXsX    z g.4X4X4X3X`.j.8.f.^.8X~.<.A.U.oX3X4X4X3X<X#X_.L.R.P.K.g.g.J.}.T.o.p o   sXsXsXsXsXsXo < H z.3X4X4X,Xx.` l - X sXsXsXsXsXsXsXsXsXsXsX",
"sXsXsX    k i.3X4X4X3X2X5X3X6X9X8X1.! W :.T.3X4X4X3X3X3X3X3X3X3X3X2X3X3X,XW.' 5     sXsXsXsXsXsX    k g.3X4X4XW.` 2     sXsXsXsXsXsXsXsXsXsXsXsX",
"sXsXsX    u i.3X4X4X3X5X4X4X6X~.1.Q E R ;.Y.3X4X4X3X1X3X4X4X4X4X4X4X4X3X*XD._ 4     sXsXsXsXsXsXX 6 P J.3X3XP.o.c *   sXsXsXsXsXsXsXsXsXsXsXsXsX",
"sXsXsX    p q.,X4X4X3X5X4X4X=X~.Q E E R >.T.3X4X4X3X1X3X4X4X4X4X4X3X3X*XE.y.V ,     sXsXsXsX  6 G g.].1X,XK.` y # . sXsXsXsXsXsXsXsXsXsXsXsXsXsX",
"sXsXsX    5 ' L.,X3X3X4X4X3X.X,.W R R W ,..X3X4X4X3X3X3X3X4X4X3X<X XL.F.N.+.m *     sXsXsX    j 8.3X4X4XW._ 2     sXsXsXsXsXsXsXsXsXsXsXsXsXsXsX",
"sXsXsXsX  = c ' s.|.3X4X4X4X$XU.,.;.>.,.Y.%X3X4X4X3X<X>X&X+X|.P.G.B.t.&.@.( S c u 7 sXsXsX& i | [.4X3XI.` y @     sXsXsXsXsXsXsXsXsXsXsXsXsXsXsX",
"sXsXsXsXsX  + 5 D x.*X4X4X3X<X@XQ.T.E..X=X,X3X4X4X3X1X$X{.G.M.u.$.#.+.@.) ( +.w.q.K <   # B w.{.,X*XK.K &         sXsXsXsXsXsXsXsXsXsXsXsXsXsXsX",
"sXsXsXsXsXsX    5 ' L.,X3X3X4X3X3X3X3X3X3X3X3X4X4X3X<X$XL.B.*.+.@.+.+.} ( +.C.E.L.X.,   = ` L.,X*XL.X.y         o sXsXsXsXsXsXsXsXsXsXsXsXsXsXsX",
"sXsXsXsXsXsXsX  2 Z o.w.i.g.c.-X2X4X4X4X4X3X3X4X4X4X1X&X{.D.M.r.r.u.a.a.t.y.F.Q.T.w.B 3 5 D w.L.E.G.e.b < = 2 p w - sXsXsXsXsXsXsXsXsXsXsXsXsXsX",
"sXsXsXsXsXsXsXsX- y p 7 6 j J l. X3X4X4X3X4X3X3X4X4X3X<X&X+X_.P.'.|.|.{.L.D.D.D.N.t.} S d 5 u K d.L.G.p.| ' } [ g -     sXsXsXsXsXsXsXsXsXsXsXsX",
"sXsXsXsXsXsXsXsXsXo         y o.W.,X3X3X2X3X3X3X3X3X3X3X3X3X3X3X3X4X3X<X+XL.V.$.#.&.=.+.m +   4 ' L.%XoXL.F.N.+.m *     sXsXsXsXsXsXsXsXsXsXsXsX",
"sXsXsXsXsXsXsXsXsXo       . p %.W.,X3X3X3X3X3X<X>X<X1X3X4X4X4X4X4X4X4X<X XG.t.@.) { @.^ f @ X 3 ' U.*X*XXXF.r.S w @     sXsXsXsXsXsXsXsXsXsXsXsX",
"sXsXsXsXsXsXsXsXsX    . % t [ S.@X3X3X3X2X3X,X$X}.|.@X<X4X4X4X4X3X3X>X}.D.y.*.@.( C f w 2 e s / #.C.Q.Q.Y.$.N 5 + o sXsXsXsXsXsXsXsXsXsXsXsXsXsX",
"sXsXsXsXsXsXsXsXsX    & g +.H.$X3X4X4X3X&X|.W.D.H.L. X>X3X4X4X3X<X$XL.B.*.+.&.-.+.m &   # m #.=.&.#.&.:...B -     sXsXsXsXsXsXsXsXsXsXsXsXsXsXsX",
"sXsXsXsXsXsXsXsX  O - f +.H.*X3X4X4X4X3X'.p.'  .y.H.}.$X&X@X|.P.G.V.b.#.( ( &.n.t.D #   ; ^ m.n.{ g a f f w &   sXsXsXsXsXsXsXsXsXsXsXsXsXsXsXsX",
"sXsXsXsXsXsXsX  O : h } S.&X3X4X4X4X4X,Xd.v < i X.L.OX$X{.G.B.r.$.#.@.{ ) ( t.F.D.K 1   ; ) m.t.N * + @ & & @ sXsXsXsXsXsXsXsXsXsXsXsXsXsXsXsXsX",
"sXsXsXsXsXsX    * g +.H.&X3X4X4X3X3X,XW.` =   , ` L.*XOXL.B.r.#.@.+.@.+.{ +.N.E.L.4.4   & V +.[ y         o sXsXsXsXsXsXsXsXsXsXsXsXsXsXsXsXsXsX",
"sXsXsXsXsXsX    5 } E.1X4X4X3X3X$XW.s.` p + O w X.L.%X$X{.G.M.u.r.y.s.y.r.t.D.}.{.s.D w e a m f -         sXsXsXsXsXsXsXsXsXsXsXsXsXsXsXsXsXsXsX",
"sXsXsXsXsXsX    k i.4X4X4X3X*X=XH.o.v , # * a ~ u.G.$X*X@X+X|._.P.].|.P.S.V.G.W.{.L.y.^ f e - # X sXsXsXsXsXsXsXsXsXsXsXsXsXsXsXsXsXsXsXsXsXsXsX",
"sXsXsXsXsXsX    k g.3X4X,XW.Z.b.+.g #   # g +.n.F.W. X<X3X4X3X3X3X4X3X>X|.L.L.L.L.H.C.+.m *     sXsXsXsXsXsXsXsXsXsXsXsXsXsXsXsXsXsXsXsXsXsXsXsX",
"sXsXsXsXsXsXsX  j 2.j.z.q.' S V g 3 % & f %.U.XXXXoX$X2X4X4X4X4X4X4X4X1X$X{.E.T.F.M.%.S p &   sXsXsXsXsXsXsXsXsXsXsXsXsXsXsXsXsXsXsXsXsXsXsXsXsX",
"sXsXsXsXsXsXsXsX< k x x u 5 - & * ; r C $.F..X%XOX%X*X1X4X4X4X4X3X1X>X$X+X}.E.Y.n.} m 3 # X sXsXsXsXsXsXsXsXsXsXsXsXsXsXsXsXsXsXsXsXsXsXsXsXsXsX",
"sXsXsXsXsXsXsXsXsX                - M +.N.H.L.L.L.L.{.>X3X4X4X3X>X{.W.L.L.L.L.C.#.g &     sXsXsXsXsXsXsXsXsXsXsXsXsXsXsXsXsXsXsXsXsXsXsXsXsXsXsX",
"sXsXsXsXsXsXsXsXsXsX    o         - g ~ } e.e.X.` ` q.K.@X1X<X@XL.S.b.b.V.B.r.[ M e &   sXsXsXsXsXsXsXsXsXsXsXsXsXsXsXsXsXsXsXsXsXsXsXsXsXsXsXsX",
"sXsXsXsXsXsXsXsXsXsXsXsXsXsXsXsXsX& ; 3 y l u < $ = v e.L.$XoXL.B.$.+.#.&.#.~ d - @   sXsXsXsXsXsXsXsXsXsXsXsXsXsXsXsXsXsXsXsXsXsXsXsXsXsXsXsXsX",
"sXsXsXsXsXsXsXsXsXsXsXsXsXsXsXsXsXsX      o         y o.L.%XoXW.B.*.#.&.-.+.N -     sXsXsXsXsXsXsXsXsXsXsXsXsXsXsXsXsXsXsXsXsXsXsXsXsXsXsXsXsXsX",
"sXsXsXsXsXsXsXsXsXsXsXsXsXsXsXsXsXsXsX          + 8 K K.*X3X1X*XW.S.b.C.Z.n.~ 2     sXsXsXsXsXsXsXsXsXsXsXsXsXsXsXsXsXsXsXsXsXsXsXsXsXsXsXsXsXsX",
"sXsXsXsXsXsXsXsXsXsXsXsXsXsXsXsXsXsXsXsX      - B w._.>X4X4X4X4X>X{.E.Q.OXT.X.y     sXsXsXsXsXsXsXsXsXsXsXsXsXsXsXsXsXsXsXsXsXsXsXsXsXsXsXsXsXsX",
"sXsXsXsXsXsXsXsXsXsXsXsXsXsXsXsXsXsXsXsXsX    5 ' L.,X3X3X4X4X3X>X{.W.E.OXW.X.8     sXsXsXsXsXsXsXsXsXsXsXsXsXsXsXsXsXsXsXsXsXsXsXsXsXsXsXsXsXsX",
"sXsXsXsXsXsXsXsXsXsXsXsXsXsXsXsXsXsXsXsXsXsXo y ` w.x.l.k.j.k.k.i.5.4.5.q.X.K 8 o sXsXsXsXsXsXsXsXsXsXsXsXsXsXsXsXsXsXsXsXsXsXsXsXsXsXsXsXsXsXsX",
"sXsXsXsXsXsXsXsXsXsXsXsXsXsXsXsXsXsXsXsXsXsXsX4 u d l l x z z l k u 8 u y 9 5 , sXsXsXsXsXsXsXsXsXsXsXsXsXsXsXsXsXsXsXsXsXsXsXsXsXsXsXsXsXsXsXsX",
"sXsXsXsXsXsXsXsXsXsXsXsXsXsXsXsXsXsXsXsXsXsXsXsX                              sXsXsXsXsXsXsXsXsXsXsXsXsXsXsXsXsXsXsXsXsXsXsXsXsXsXsXsXsXsXsXsXsX",
"sXsXsXsXsXsXsXsXsXsXsXsXsXsXsXsXsXsXsXsXsXsXsXsX                              sXsXsXsXsXsXsXsXsXsXsXsXsXsXsXsXsXsXsXsXsXsXsXsXsXsXsXsXsXsXsXsXsX"
};
