/* XPM */
static char *_875922725_16756751021675675722[] = {
/* columns rows colors chars-per-pixel */
"72 72 146 2 ",
"   c #010101",
".  c #070807",
"X  c #080A07",
"o  c #08050A",
"O  c #0C0C0B",
"+  c #0F100D",
"@  c #10120F",
"#  c #0D0B10",
"$  c #141414",
"%  c #161418",
"&  c #18151A",
"*  c #1A191A",
"=  c #1A0F26",
"-  c #1A1521",
";  c #1E1C21",
":  c #1E1429",
">  c #201E22",
",  c #231C2B",
"<  c #271D30",
"1  c #291F32",
"2  c #222124",
"3  c #26232A",
"4  c #29252D",
"5  c #2D2B2D",
"6  c #2F302F",
"7  c #2C2434",
"8  c #2E2933",
"9  c #2F2638",
"0  c #312C34",
"q  c #30263A",
"w  c #342B3C",
"e  c #343434",
"r  c #373837",
"t  c #393A37",
"y  c #37303E",
"u  c #3A333C",
"i  c #3D3B3D",
"p  c #362C40",
"a  c #3A2F42",
"s  c #393141",
"d  c #3F3549",
"f  c #423D42",
"g  c #453D4B",
"h  c #483E4E",
"j  c #484645",
"k  c #47454A",
"l  c #4A464C",
"z  c #4B4B4B",
"x  c #4D4652",
"c  c #4E4954",
"v  c #514752",
"b  c #524B55",
"n  c #554E59",
"m  c #584F59",
"M  c #535254",
"N  c #555159",
"B  c #5B535C",
"V  c #5D5D5D",
"C  c #60575E",
"Z  c #5D5660",
"A  c #5E5961",
"S  c #605661",
"D  c #615961",
"F  c #675E68",
"G  c #685F68",
"H  c #646165",
"J  c #696167",
"K  c #676867",
"L  c #696966",
"P  c #676369",
"I  c #6A656B",
"U  c #6C6A6E",
"Y  c #716A6F",
"T  c #72736F",
"R  c #6E6C70",
"E  c #726D72",
"W  c #757375",
"Q  c #797476",
"!  c #777875",
"~  c #797973",
"^  c #767678",
"/  c #7A7679",
"(  c #7C7A7B",
")  c #827E7E",
"_  c #83817D",
"`  c #7F7A80",
"'  c #827F81",
"]  c #7F8080",
"[  c #828181",
"{  c #898685",
"}  c #868886",
"|  c #898987",
" . c #898488",
".. c #878A88",
"X. c #8C8C8A",
"o. c #918E8B",
"O. c #8F908D",
"+. c #92928E",
"@. c #959591",
"#. c #999793",
"$. c #969994",
"%. c #9A9A95",
"&. c #9D9E98",
"*. c #A09F98",
"=. c #9EA09A",
"-. c #A4A59D",
";. c #A8A79F",
":. c #A6A89F",
">. c #A6A9A1",
",. c #AAAAA2",
"<. c #AEAEA8",
"1. c #AEB0A6",
"2. c #AEB2A9",
"3. c #B0B1A7",
"4. c #B3B4AA",
"5. c #B6B9AD",
"6. c #B8BAAF",
"7. c #B7BBB1",
"8. c #BABEB2",
"9. c #BDBFB8",
"0. c #BDC2B4",
"q. c #BEC2B9",
"w. c #C0C4B6",
"e. c #C1C6B9",
"r. c #C4CBBC",
"t. c #C8CFBF",
"y. c #C7D0BF",
"u. c #C6CBC1",
"i. c #C7D1C0",
"p. c #CAD2C2",
"a. c #CFD8C6",
"s. c #D0D7C7",
"d. c #D0D9C7",
"f. c #D3DCCA",
"g. c #D6E1CD",
"h. c #D8E3CF",
"j. c #DBE5D3",
"k. c #DEE9D5",
"l. c #E0E9D7",
"z. c #E2EBD9",
"x. c #E7F1DD",
"c. c #EAF2E2",
"v. c #EFF9E6",
"b. c #F0FAE7",
"n. c #F3FDEA",
"m. c #F8FFEE",
/* pixels */
"v B F / X.@.O.O...X.X.X.X.X.X.X...O...O.X...X.X.X.O...X.O.X.X.O...X.X.O...X.O.X.X.X.X.X.X.X.X.O.X.X.X.....O.O...} ] ( ^ ^ ( ( ^ / ( ! ( ( ( [ [ ",
"B C J W ( } ] ] ] ] ] ] ] ] ] ] ] ] ] ] ] ] ] ] ] ] ] ] ] ] ] ] ] ] ] ] ] ] ] ] ] ] ] ] ] ] ] ] ] ] ] ] ] ] ] ] ] ] [ [ ( [ ] ] } _ ] ] ] ] ] [ ",
"J P P U R R R R R R U R R R R U R R U R U U U U R R U U R U U R U U U R U U U U U U R R U U R R R R R R R U I R ^ [ X.X.X.....X.| | o.| } ] ] ( ",
"( W P A c x x b b b c b c M c c b b c b n c c M c M c c c c c c c c M c M c c c n c c c c N N c b b N N b x x b P [ %.-.-.$.#.#.%.%.%.#.+.{ ] ( ",
"X._ U c s 7 9 s s s s s s s s s p s s p s s s s s s s s s s p s s s s s s s s s s s s s y p s p s s p d y 9 7 p B _ ;.4.3.;.-.-.;.,.<.-.%.| ] ^ ",
"@.} R x 9 : , 9 9 7 7 9 9 9 9 7 9 7 7 7 9 9 q q 9 9 9 9 9 9 9 9 9 9 9 9 q q 9 9 9 9 9 9 9 7 1 < 1 1 1 7 , : = 7 b _ <.6.4.<.;.;.3.3.4.1.&.X.[ ( ",
"O.[ R c q , 7 q q w 9 w q p p q q 8 q q q w w p p p w p p p w p p p p w w p p w p p p w 9 9 7 1 1 7 1 7 1 : : 7 b ) ;.5.4.<.;.;.,.2.4.,.&.| [ ^ ",
"X.] U c s 7 9 s s s s s s s s s s s y s s s y s s s p s p s s s s p p s s s p s p s s s s p s s y s s s s 9 7 p B { ;.4.3.;.-.;.;.,.<.,.#.| ] ^ ",
"..` U N s 9 w s d s s w 8 5 8 w s d s s y 8 8 4 8 8 8 8 8 8 8 8 8 8 8 8 8 8 8 6 8 5 4 8 y g x c c x c b c g s g H X.3.8.4.;.-.-.-.;.3.:.#.| ] ( ",
"X.] U b s 8 9 s d d s 8 2 ; 2 8 p d d y 8 3 > * * * > * * ; * * ; ; > > 2 > 2 2 > * % ; r M P R U P U R I V b n W =.0.r.5.;.*.*.:.3.<.-.%.| ] ! ",
"X.] U c s 7 9 s s s u 5 * * ; 4 s d d s 8 2 * $ $ * * % * * * * * % * * * % % ; % # O * r V ' X.} ] ] } ] U B C ( ,.i.p.8.;.&.-.:.;.4.;.#.| _ ( ",
"X.] U N s 9 w s d d d 8 3 > 3 8 d d d s 8 4 > * > > 2 > ; 2 > > * * * % % & * ; * $ # * i U +.*.=.O.@.O.{ W D F ) 2.p.a.0.;.*.*.:.<.1.;.%.| } / ",
"..] R N s q w s s d d p 0 8 w s s d d s p 0 8 8 8 8 8 8 0 0 w 8 8 3 , : 3 , 3 7 4 : = 3 l ^ *.<.<.-.%.@.{ R Z D ) 2.p.s.8.,.*.-.;.3.<.;.%...] ( ",
"X.] R b s 9 0 p s s s p s s s s s s s s s s y y u s s s w a w s s s p p s s p s s 9 9 p B [ >.5.2.>.&.O.[ P B B ( <.t.p.8.,.&.-.:.<.;.;.%.X.] ^ ",
"O.] K k 7 : 8 y s 8 4 5 8 w 8 8 8 3 8 8 8 w y y y y w w w 0 0 w s k c n N c c x k s a h I @.4.0.6.;.&.O.( P m V ) :.t.p.5.-.#.*.-.;.<.;.#.X.] ( ",
"O.] K s ; % 4 y w 3 ; ; 2 2 2 ; ; * ; 2 2 3 3 3 2 3 3 3 3 > > 3 i N I ^ ^ R F Z b g g n ^ >.q.t.0.,.%.O.) P m C ( <.t.t.6.-.#.*.-.;.<.>.%.| ] ^ ",
"@.] H r * % 3 p w 2 * $ $ * * * * $ * $ * * * $ * * * * * @ O * r A [ X.O.] W P C b v B ) 2.t.p.0.;.#.O.` U N C ( <.t.p.0.:.-.-.;.<.<.;.#.| ] ( ",
"O.] H i > * 7 s s 8 > * @ @ & * ; ; * $ + O X O O O @ @ @     O e L +.&.$.} ( ^ U C n F [ 3.p.s.0.:.#.O.[ I B A ( >.y.y.0.4.<.,.4.4.3.;.#.| ] ( ",
"O.] U l 9 3 q s d y 0 > * $ * 3 0 4 2 $ + X O X O O @ $ O     O t T &.>.&.} ] ] Q P B D _ 1.p.s.0.:.#.+.[ U B C / :.r.a.t.0.0.0.w.8.4.;.#.| ] ^ ",
"..] R b s 7 w p s d a 4 * * > 0 y w 2 * @ $ * * * * * * * X . * j _ :.<.$.( ( ] ' Y B D ( >.i.s.0.,.#.X.[ P B S ( ;.t.g.d.t.r.y.t.r.6.>.#.{ _ ( ",
"O.] R c w 3 7 8 u y w 8 > * > 0 w 0 3 * 2 5 e r 6 5 5 5 4 > * 5 V O.4.4.@.( ^ ] [ E B A / ,.i.p.0.-.#.| ( P B V ) <.d.k.g.p.p.a.p.t.6.>.#.} ] ( ",
"O.] K j 3 * - 2 3 5 5 2 > ; > 5 5 2 * * 6 z V V b g f f g f u l T :.0.0.$.( ^ ] [ E B A ( ,.t.p.6.-.+.| ( P N D ' 7.k.z.h.i.y.i.i.r.6.>.#.} ] ( ",
"O.] H i * X # * * * * $ * * * * * O O & t H _ ' E S m C C m v D _ 2.y.0.=.[ ^ ] ] E B D ( ,.t.s.w.;.#.+.[ P n C  .e.c.v.j.y.r.t.i.r.5.>.@.{ [ ( ",
"@.] V e +     O O X . . X X o X .     X r W $.%. .E I E Y F B F | 5.y.y.>.X.[ { ( R B D / ,.i.d.r.3.:.&.X.U m C  .u.v.n.l.y.r.y.i.r.6.:.@.{ ] ^ ",
"@.] V 6       . .             .         e ~ -.,.#.( Q ( ( U S F } 2.p.p.5.&.+.| ] U B Z ( >.i.f.p.0.5.3.&./ B C  .e.v.m.k.s.u.p.p.t.6.,.+.| ] ( ",
"$.` V 8                       .         e ~ ;.3.#.) ( [ ' U B S ( :.t.s.0.;.#.O.] I B A / ;.i.g.f.t.e.w.;._ C C ' 9.c.v.j.u.r.i.y.r.6.;.#.| ] ( ",
"$.] V 6         o $ % * * * * > * O o % j _ ;.<.@.] ( } [ R B B / >.t.p.w.<.#.X.( P B D ( ;.t.g.g.p.r.w.<._ F C ) 5.j.z.a.0.5.7.0.6.4.;.#.| ] ( ",
"@.] V 6         % 5 i g g f f f f u 0 f C o.,.,.O.( ( ] [ E V C ( :.t.a.0.;.+.X.( P B B / >.i.g.f.i.r.w.3._ F D / ,.p.s.0.2.:.>.2.3.3.;.$.| ] ( ",
"$.` V 6         > f S I F S B S S m b S Q @.;.*.O.] ( ] ] R B D ( ,.t.p.0.;.#.+.) P B D ( :.y.g.f.t.r.8.;.[ F D / >.i.s.8.;.&.-.;.<.<.;.$.X.] ^ ",
"$.] V 6         4 M E / E F F F I F F I ) @.-.;.$.X.{ { ` U B S ( ,.y.a.w.3.-.&.| E D D Q :.t.g.g.p.r.0.;.) C C ( 2.s.f.e.2.-.;.2.3.3.:.%.X.] ( ",
"$.` V 6       X 6 V / ` E F S F G F S F Q +.;.<.>.$.+.X.] U B S ( ,.y.g.p.0.4.1.%.) D D ^ -.t.j.g.p.r.0.;.) D S ' 8.l.z.a.0.5.6.8.8.5.>.$.| ] ( ",
"$.` A 6       & f L _ ) E S m C S B m C E o.;.4.3.>.&.@.] P B V ( :.y.h.d.y.0.0.;.[ J B W -.t.h.f.t.r.8.,.) D S ' 9.x.v.j.y.r.t.t.r.5.:.#.{ ] ( ",
"@._ J i * O $ 0 M ~ X.X./ H B B B b v C Y o.,.4.6.<.-.@.[ P B D / ;.t.h.h.a.i.r.3.{ J D Q ;.i.f.i.8.6.6.;._ F C ) 7.k.c.k.a.i.a.a.r.6.-.+.{ ] ( ",
"} [ Y B f 0 u l L { =.&.| ^ P D B b b C Q o.;.4.5.2.-.#.[ P N D ( -.t.h.h.a.p.r.3.{ G C Q ;.t.a.0.<.<.3.;.{ J C / ,.d.j.g.i.i.p.i.e.4.-.+.[ ] ( ",
"{ ` Q I C b v C Q +.;.:.$.] R P C b b C E o.,.4.3.;.&.+.) P B B / :.t.g.d.y.r.6.>._ F C / >.y.i.6.;.-.3.;.| I C W -.u.g.d.u.i.i.t.e.5.;.#.{ [ ( ",
"} ] ) Q G S C F ) #.,.;.$.} ^ R I C m C Q +.;.,.-.#.+...[ U B D ( ;.t.f.t.0.4.,.#.Q C A ( >.t.a.0.3.3.4.;.{ J C / ,.p.j.f.t.r.t.t.t.e.5.*.X.) ^ ",
"] ] ( E F C m F / #.;.;.@.} ^ ( Q P B D Q o.;.;.+.{ ] } [ U B D ( ,.t.d.w.,.=.$.{ U B D / >.i.f.a.0.0.6.:._ F C ` 2.j.x.g.t.q.r.i.a.a.r.1.O.( W ",
"} ] ^ U C b v C / @.;.-.O.] ( ] ) E D D E @.;.;.+._ ( ] [ R B D ( ,.t.p.0.,.#.O.[ P B C / ;.i.h.g.p.r.0.;.) D C [ 9.c.b.k.t.0.r.i.d.d.i.2.@.] W ",
"{ ] ^ P B v v B Q @.;.-.X.] ] } [ W D D E o.:.,.$.X.} } ( U B S ( ,.y.d.r.4.-.%.| E B D / ,.i.f.p.0.0.6.,._ D D  .q.c.n.k.y.0.r.y.p.p.0.>.O.} ^ ",
"} ' Q U C b v C Q +.-.*.O.] ( ] [ W D D Y X.;.2.,.&.@.X.[ P B S ( >.y.g.p.0.6.2.&.) D S / >.t.a.0.4.2.5.;.[ D D ' q.c.v.k.y.0.y.i.r.0.1.&.O.] ^ ",
"} ( Q U S b v S Q @.-.-.+.) ( ] [ E D D Y X.>.4.2.;.&.+.] U B V / ;.y.g.f.t.r.0.:._ F C ( >.t.i.6.;.;.3.;._ F D ' 9.c.v.j.i.r.t.t.r.6.;.$.| [ ( ",
"{ ] / U D b b C ) #.3.;.#.[ ( } ] E D D Y X.,.3.<.-.#.+.} U B D ( :.i.f.p.r.0.5.-.( D C / >.y.a.0.<.,.3.,._ F D ' 9.c.n.k.p.t.u.p.t.0.3.&.| ( ( ",
"} ] ^ U C b v D ) %.3.<.$.} ] } } W F Z Y o.;.,.=.O.X.X.[ R B D ( >.i.d.t.5.,.-.+.Q C D / ;.y.f.t.0.6.6.;._ D C  .q.c.n.x.a.r.y.a.a.p.w.>.O.] ^ ",
"} ( ^ U S b b C Q +.:.;.+.] ( _ ( E V Z Q +.;.;.O.] ( } ] U B D ( ,.t.s.0.:.#.X._ P B D ( :.i.g.f.t.r.w.,._ D C ' 9.c.v.j.p.0.q.t.d.f.t.2.@.] W ",
"{ [ Q U S n b C Y _ o.| ( W E ( Q I C C Q +.;.-.X.^ W ^ E F B S ) ,.i.p.8.*.X.{ ^ H N S ( ;.i.h.g.a.r.0.;.) D C ) 5.l.z.a.0.4.5.0.r.t.r.1.@.] ^ ",
"} [ Q P C B B D F Y Y Y P J J I I D B D Q o.;.-.X.^ U P H m b D ( 1.i.i.6.*.X. .^ H B Z / >.t.g.f.i.r.0.,.[ G C ( <.p.f.0.2.-.:.1.4.6.5.=.X.] ^ ",
"} ( Q U S m B C D A D V C C B D D B b S Q @.;.;.#.] T P C b v B [ <.y.p.w.;.#.o.] I B D / ;.u.g.f.t.e.8.,._ F D / >.i.p.6.:.=.-.:.<.<.:.%...] ( ",
"} ] Q I S B C C D Z B A F J F C m v v C Q +.>.,.*.X.( Y F m b C _ <.y.a.r.4.;.&.X.E A A / ;.t.h.f.i.r.0.;.[ D B ( <.p.d.r.<.:.:.<.2.,.-.#.} ] ( ",
"} ` ^ U D m B C F J U R ^ W P D m v b D Q o.,.3.;.%.o.[ W A n D ( >.t.f.i.0.5.3.%.( D C W -.i.h.h.p.t.0.>.) D D ) 5.j.l.s.8.6.8.8.8.4.-.#.{ ] ( ",
"} ( Q P C m m S J ^ ] { { ] Q P D n b S Q o.;.4.3.;.*.+.] P B Z ( :.i.g.f.t.r.8.;.[ J S W ;.i.h.f.t.r.0.,._ C D ' 9.c.v.j.u.r.t.t.r.6.;.@.{ [ ( ",
"{ _ ( P C m n C Y [ +.$.O.} ( W P C B S E o.;.4.4.<.;.$.{ U B D / ;.t.h.h.a.i.r.3.{ J D Q -.t.f.r.0.6.6.;._ D D  .e.c.n.z.p.t.p.p.t.6.-.+.{ ' ( ",
"} [ Q U S b b S W | &.&.O.[ ( ( W P B D Y o.;.4.5.<.;.$.[ P B A / ;.t.h.g.a.t.e.3.{ J Z Q >.t.s.0.<.<.4.;.{ D D ' 9.c.n.k.p.r.i.p.r.4.-.o.{ ( ( ",
"} ( ( U C b b C Q @.:.-.O.] ( } ] R D Z Y o.;.4.3.;.=.+.] P B D / ;.t.g.d.i.r.8.;.) D C Q >.i.i.6.:.:.3.;.{ H C ' 0.c.v.j.i.r.t.i.r.7.>.#.{ ] ( ",
"} ] Q U C b b C / &.3.<.#.] ] } { W F V Y X.;.<.;.&.O.O.} U B D ( ;.i.f.a.0.5.<.%.) D D ( ,.i.a.0.2.1.4.;._ D D ' q.c.v.k.p.r.t.p.i.r.4.&.X.] ! ",
"} ] ^ U C b v S ) *.4.2.$.} ] } { ^ D C Y o.;.,.%.X.| X.} R B D ( >.i.d.r.3.:.&.X.W C S / :.y.f.t.0.6.5.;._ D D [ q.c.n.z.a.r.y.p.d.a.r.,.O.] ^ ",
"} ` ^ U S b b C Q +.>.-.O.] ( ] [ E D C Q +.;.-.+._ ( } ( U B D ( >.t.a.0.,.#.o.) I B C ( :.i.g.d.y.r.0.;._ D D ' 9.c.v.k.i.0.q.i.a.f.i.2.@.] W ",
"[ ( Q I S b m C Y ) o.| ) W E Q Q P C C E @.;.-.X.^ W ^ E F B C ) ,.i.p.8.*.o.{ ( H N D ( ;.t.h.f.s.r.0.;.) C C ' 7.l.z.f.8.4.5.0.r.t.r.,.+.] ^ ",
"[ ( W P D B B D F Y Y Y P H J P P D B C Q @.;.;.O.^ U P J m b S ( <.i.i.6.-.X.{ ^ J B B / >.y.g.f.t.r.0.;._ F C ( <.d.f.r.<.;.>.1.5.0.4.-.O.[ ^ ",
"{ ] Q I C B B C C C C D D D D D C B m S Q @.;.;.$.] E P V v v D [ 1.y.p.0.;.#.X.[ I B D / ;.i.g.f.t.w.0.;._ F C / >.u.p.8.;.&.*.:.;.<.;.%..._ ^ ",
"@.X.) U B m B S C C C D J J D C m b b C Q o.;.,.=.X.( E F m v S ) <.t.a.r.4.:.&.X.E C C / ;.u.h.g.p.r.0.<.[ G C ^ >.t.i.0.<.,.,.<.<.,.-.+...[ ( ",
">.&.| E B b n C F H U W ^ W U D m v b D Q +.;.3.:.&.X.[ W A n S ( >.y.d.p.0.5.2.*./ D C ^ -.t.h.g.p.t.w.;.[ G C ^ :.y.a.t.0.6.0.0.5.4.;.@.} ] ( ",
"4.>.+.Q C v b C P W ] } } ( ^ I C m b S E +.;.4.3.;.=.+.] P B V ( :.t.h.f.t.r.8.,.) G C ^ -.t.h.f.t.r.6.;.[ G C ^ -.y.g.d.t.t.y.y.e.6.;.@.} ] ( ",
"4.;.$.' P B B C E [ O.@.X.} ( E I C B C E o.;.4.4.2.;.$.{ U B C ( :.p.j.h.d.t.r.3.{ P V W -.t.d.y.6.6.5.;.[ F C W =.y.g.f.p.p.a.a.r.5.-.@.{ ] ( ",
"3.;.%.o.^ J B D W X.=.=.X.( ( ( Q Y C C Y o.;.4.5.<.:.$.[ U B D ( ;.p.h.g.p.t.w.3.{ F D Q :.t.y.0.<.;.3.;.{ I V W =.q.d.a.i.p.p.i.0.4.-.X.} ] ( ",
"<.-.=.+.] P B A Q o.;.-.o._ ( [ ] W A A Y o.;.4.3.;.&.+.] P B A Q ;.t.g.f.t.r.6.:._ D D ( :.y.p.8.>.;.<.;.{ I C ^ -.u.g.a.i.y.i.i.r.6.;.@.{ ) ( ",
"5.3.:.$.] H n N Y o.,.3.%.| { | ] U B B U o.;.3.;.*.+.X.( U B B Q -.w.d.p.e.6.2.&.Q C B ( >.a.f.r.4.4.6.<._ F B ( 2.j.x.j.a.p.p.a.p.t.8.-.X.' ^ ",
"t.w.3.%.^ B x b Y o.;.4.,.%.+...( P b b I +.<.2.*.X.{ } ] U B B Y #.6.r.r.6.<.-.X.U B B / 1.d.k.f.t.w.w.3._ C m ` q.c.m.x.d.p.p.d.h.f.t.2.+.] W ",
"d.t.6.=.[ J B C Y o.;.3.3.,.&.+.] U B C W +.;.:.+._ ( ] [ E D B Y X.;.4.3.;.&.+.) P B C ( :.i.g.f.t.r.8.;._ C C ` q.c.b.j.i.e.r.i.d.f.i.2.@.] W ",
"f.p.r.2.%.] ^ Q _ @.-.3.3.<.-.%.X.) Q Q _ +.#.+.} ( ( ] ` ^ U P W [ #.&.%.@.X.} ( R H P ( %.2.0.0.5.1.<.#.) I I ] 2.u.a.q.2.>.2.2.5.0.4.=.O.] ^ ",
"a.i.y.q.5.>.#.+.@.*.;.3.<.,.:.=.&.#.@.+.o.o.} { ] ( ] ` [ ( / / ( ] { | | { } } ( ^ ^ ^ ) ..@.$.$.@.@.O.X.) Q Q ] O.=.=.=.@.O.O.@.$.$.$.O.} ] ( ",
"t.y.p.a.i.0.4.;.-.-.;.;.;.:.:.;.:.<.;.;.%.| [ ( ( ] [ ] ] ] _ ] ] ] ] [ [ ( ] ] [ ] ] ( [ ( [ ] ] ] ] ] ( ] [ _ ] ] ] ] ] ] ] ] ] ] [ ] ] [ ] [ ",
"q.t.p.f.f.a.0.4.;.<.;.-.-.-.:.,.<.4.6.5.-.| ( ^ ( ] [ _ ] ] } } } ] ( ^ ( ( ( ] [ { { } ] ( ^ E R W W ^ ( ] } } ] ! U U R W W ^ W W R W ^ ( ] [ "
};
