/* XPM */
static char *_437216269_16756757201675675722[] = {
/* columns rows colors chars-per-pixel */
"45 54 202 2 ",
"   c #000000",
".  c #0E090A",
"X  c #1A060A",
"o  c #1B0F13",
"O  c #151418",
"+  c #18161A",
"@  c #1B191C",
"#  c #171316",
"$  c #350000",
"%  c #3D0001",
"&  c #3B0209",
"*  c #220E12",
"=  c #2D0D12",
"-  c #350C15",
";  c #3C0914",
":  c #3C0E18",
">  c #3B0611",
",  c #281015",
"<  c #3B121C",
"1  c #361018",
"2  c #3F1822",
"3  c #352028",
"4  c #2D242C",
"5  c #440005",
"6  c #43010B",
"7  c #4A010B",
"8  c #490005",
"9  c #410A16",
"0  c #470A15",
"q  c #530312",
"w  c #550817",
"e  c #580816",
"r  c #4C121D",
"t  c #45111E",
"y  c #600A1C",
"u  c #6A0B1E",
"i  c #4B1521",
"p  c #4A1A24",
"a  c #5C1C2D",
"s  c #5B1021",
"d  c #690D21",
"f  c #720E24",
"g  c #661628",
"h  c #761528",
"j  c #49212B",
"k  c #652738",
"l  c #7B293D",
"z  c #7E2E43",
"x  c #86061E",
"c  c #90041E",
"v  c #830D25",
"b  c #9A122F",
"n  c #8C1C36",
"m  c #841831",
"M  c #9A1330",
"N  c #9E1B37",
"B  c #9B1D39",
"V  c #961C38",
"C  c #990E2D",
"Z  c #AB1B3B",
"A  c #A71635",
"S  c #BB1436",
"D  c #8D253E",
"F  c #85263B",
"G  c #92233E",
"H  c #9C233F",
"J  c #AB203E",
"K  c #8F2640",
"L  c #922640",
"P  c #9B2642",
"I  c #9A2843",
"U  c #AE2342",
"Y  c #A42D4A",
"T  c #A22542",
"R  c #B42545",
"E  c #BB2346",
"W  c #B92D4E",
"Q  c #BB2E50",
"!  c #AB3A54",
"~  c #BA3454",
"^  c #B33855",
"/  c #C91E43",
"(  c #C92C4F",
")  c #C5284B",
"_  c #D4264E",
"`  c #CD2D52",
"'  c #C52E51",
"]  c #D42D54",
"[  c #DA2E56",
"{  c #DB365D",
"}  c #D33359",
"|  c #E2254F",
" . c #E1345D",
".. c #EF325E",
"X. c #DF3860",
"o. c #E93B65",
"O. c #E73862",
"+. c #F13461",
"@. c #F83765",
"#. c #F13C67",
"$. c #FB3866",
"%. c #F33E69",
"&. c #FB3B69",
"*. c #FE3E70",
"=. c #B5415D",
"-. c #AE4F67",
";. c #AC546B",
":. c #AD5067",
">. c #AA5F73",
",. c #AA6175",
"<. c #CA4565",
"1. c #DE4E72",
"2. c #D24E6F",
"3. c #E1436A",
"4. c #E2486E",
"5. c #F3416C",
"6. c #F9426F",
"7. c #E54D73",
"8. c #EC4C74",
"9. c #FD4472",
"0. c #FE4C7C",
"q. c #FB4976",
"w. c #E55075",
"e. c #EB5B7F",
"r. c #E6577B",
"t. c #FE547F",
"y. c #C2657E",
"u. c #FE5680",
"i. c #FE5983",
"p. c #F25D82",
"a. c #C26980",
"s. c #DA6180",
"d. c #EB6C8D",
"f. c #E96688",
"g. c #FE638C",
"h. c #EE6F91",
"j. c #FE6D96",
"k. c #FE6691",
"l. c #EE7394",
"z. c #EA7C9A",
"x. c #F17495",
"c. c #FE7196",
"v. c #FE759A",
"b. c #F47C9D",
"n. c #F5799B",
"m. c #F67FA1",
"M. c #FE7CA4",
"N. c #FE76A3",
"B. c #E4809B",
"V. c #EF85A3",
"C. c #F685A6",
"Z. c #F488A7",
"A. c #FC85AA",
"S. c #F58DAB",
"D. c #F98CAC",
"F. c #F884A5",
"G. c #EE91AD",
"H. c #F492AF",
"J. c #F990AF",
"K. c #FE8FB8",
"L. c #FE8DB1",
"P. c #F596B2",
"I. c #FB93B2",
"U. c #F59BB5",
"Y. c #FB98B5",
"T. c #FD9CBD",
"R. c #FA99BA",
"E. c #EA97B1",
"W. c #EFA6BB",
"Q. c #F6A4BB",
"!. c #F3AABF",
"~. c #FEA6C5",
"^. c #F7ADC2",
"/. c #FBAAC4",
"(. c #F9A8C8",
"). c #F5B2C5",
"_. c #F7B5C8",
"`. c #FEB2CD",
"'. c #F7BDCD",
"]. c #FEBDD3",
"[. c #F9B8D2",
"{. c #E7B1C2",
"}. c #EFC1CE",
"|. c #F7C0CF",
" X c #EDC8D3",
".X c #F6C5D3",
"XX c #F8C1D1",
"oX c #F7C9D6",
"OX c #F7CDD9",
"+X c #FAC7D8",
"@X c #EFD4DC",
"#X c #F6D2DD",
"$X c #F4DCE4",
"%X c #EFE3E6",
"&X c #F2E3E7",
"*X c #F5E5EA",
"=X c #F7EAED",
"-X c #F5EEF0",
";X c #F6F5F6",
":X c #F6FDFC",
">X c #F4F8F7",
",X c None",
/* pixels */
",X,X,X,X,X,X,X,X,X,X,X,X,X,X,X,X,X,X,X,X,X,X,X,X,X,X,X,X,X,X,X,X,X,X,X,X,X,X,X,X,X,X,X,X,X",
",X,X,X,X,X,X,X,X,X,X,X,X,X,X,X,X,X,X,X,X,X,X,X,X,X,X,X,X,X,X,X,X,X,X,X,X,X,X,X,X,X,X,X,X,X",
",X,X,X,X,X,X,X,X,X,X,X,X,X,X,X,X,X,X,X,X,X,X,X,X,X,X,X,X,X,X,X,X,X,X,X,X,X,X,X,X,X,X,X,X,X",
",X,X,X,X,X,X,X,X,X,X,X,X,X,X,X,X,X,X,X,X,X,X,X,X,X,X,X,X,X,X,X,X,X,X,X,X,X,X,X,X,X,X,X,X,X",
",X,X,X,X,X,X,X,X,X,X,X,X,X,X,X,X,X,X,X,X,X,X,X,X,X,X,X,X,X,X,X,X,X,X,X,X,X,X,X,X,X,X,X,X,X",
",X,X,X,X,X,X,X,X,X,X,X,X,X,X,X,X,X,X,X,X,X,X,X,X,X,X,X,X,X,X,X,X,X,X,X,X,X,X,X,X,X,X,X,X,X",
",X,X,X,X,X,X,X,X,X,X,X,X,X,X,X,X,X,X,X,X,X,X,X,X,X,X,X,X,X,X,X,X,X,X,X,X,X,X,X,X,X,X,X,X,X",
",X,X,X,X,X,X,X,X,X,X,X,X,X,X,X,X,X,X,X,X,X,X,X,X,X,X,X,X,X,X,X,X,X,X,X,X,X,X,X,X,X,X,X,X,X",
",X,X,X,X,X,X,X,X,X,X,X,X,X,X,X,X,X,X,X,X,X,X,X,X,X,X,X,X,X,X,X,X,X,X,X,X,X,X,X,X,X,X,X,X,X",
",X,X,X,X,X,X,X,X,X,X,X,X,X,X,X,X,X,X,X,X,X,X,X,X,X,X,X,X,X,X,X,X,X,X,X,X,X,X,X,X,X,X,X,X,X",
",X,X,X,X,X,X,X,X,X,X,X,X,X,X,X,X,X,X,X,X,X,X,X,X,X,X,X,X,X,X,X,X,X,X,X,X,X,X,X,X,X,X,X,X,X",
",X,X,X,X,X,X,X,X,X,X,X,X,X,X,X,X,X,X,X,X,X,X,X,X,X,X,X,X,X,X,X,X,X,X,X,X,X,X,X,X,X,X,X,X,X",
",X,X,X,X,X,X,X,X,X,X,X,X,X,X,X,X,X,X,X,X,X,X,X,X,X,X,X,X,X,X,X,X,X,X,X,X,X,X,X,X,X,X,X,X,X",
",X,X,X,X,X,X,X,X,X,X,X,X,X,X,X,X,X,X,X,X,X,X,X,X,X,X,X,X,X,X,X,X,X,X,X,X,X,X,X,X,X,X,X,X,X",
",X,X,X,X,X,X,X,X,X,X,X,X,X,X,X,X,X,X,X,X,X,X,X,X,X,X,X,X,X,X,X,X,X,X,X,X,X,X,X,X,X,X,X,X,X",
",X,X,X,X,X,X,X,X,X,X,X,X,X,X,X,X,X,X,X,X,X,X,X,X,X,X,X,X,X,X,X,X,X,X,X,X,X,X,X,X,X,X,X,X,X",
",X,X,X,X,X,X,X,X,X,X,X,X,X,X,X,X,X,X,X,X,X,X,X,X,X,X,X,X,X,X,X,X,X,X,X,X,X,X,X,X,X,X,X,X,X",
",X,X,X,X,X,X,X,X,X,X,X,X,X,X,X,X,X,X,X,X,X,X,X,X,X,X,X,X,X,X,X,X,X,X,X,X,X,X,X,X,X,X,X,X,X",
",X,X,X,X,X,X,X,X,X,X,X,X,X,X,X,X,X,X,X,X,X,X,X,X,X,X,X,X,X,X,X,X,X,X,X,X,X,X,X,X,X,X,X,X,X",
",X,X,X,X,X,X,X,X,X,X,X,X,X,X,X,X,X,X,X,X,X,X,X,X,X,X,X,X,X,X,X,X,X,X,X,X,X,X,X,X,X    ,X,X",
",X,X,X,X,X,X,X,X,X,X,X,X,X,X,Xo & 8 q p j j p w 7 & * ,X,X,X,X,X,X,X,X,X,X,X,Xt w 6 X     ",
",X,X,X,X,X,X,X,X,X,X,X,X,X,X, d C J ^ :.>.,.>.^ R M d * ,X,X,X,X,X,X,X,X,X,X: B R n 9     ",
",X,X,X,X,X,X,X,X,X,X,X,X    : G  .t.c.C.G.G.Z.c.u.X.B :       ,X,X,X,X,X,X  q E X.Y i     ",
",X,X,X,X,X,X,X,X,X* & % & p K <.g.A.T.~.(.(.T.A.v.i.<.z p & % 6 + ,X,X,X@ w c S R z 4 ,X,X",
",X,X,X,X,X,X,X,XX u M T ! -.a.z.I.~.`._./.T.L.F.M.v.d.y.;.! U M s ,X,X@ l E S c w @ ,X,X,X",
",X,X,X,X,X,X,X,X& M O.t.c.C.W.(.|..XoX.X^.P.C.F.m.C.S.G.Z.v.i.X.m X   < Y { E e   ,X,X,X,X",
",X,X,X,X,X,X. 6 v ( u.N.K.~.'.#X$X%X%X@X}.W.H.V.V.S.U.R.T.K.M.i.~ g 6 y P ~ G t ,X,X,X,X,X",
",X,X,X,X,XX e b ( 8.c.L.T.`.+X*X;X>X>X=X$X|.!.P.S.S.H.I.K.K.A.v.r.~ N v f a 3 ,X,X,X,X,X,X",
",X,X,X,X,X5 M O.u.c.C.U.^.|.#X=X;X:X:X;X=X#X].!.P.C.m.m.C.S.S.C.v.i. .b 6   ,X,X,X,X,X,X,X",
",X,X,X,X,Xw W i.N.L.U.{. X#X=X;X:X:X;X=X$X$XoX).P.m.b.z.V.G.E.P.A.j.6.Z 7 ,X,X,X,X,X,X,X,X",
",X,X,X,X,Xw =.v.R.~.).}.$X-X:X:X:X-X$X#X#X#X+X_.R.C.m.b.C.P.U.P.A.k.#.A 5 ,X,X,X,X,X,X,X,X",
",X,X,X,X,Xr -.Z./.`.|.@X%X>X:X:X;X*XOX'.'.XXXX^.U.C.m.m.C.S.G.Z.v.i.{ b 6 ,X,X,X,X,X,X,X,X",
",X,X,X,X,Xr ;.S.`.].oX@X&X=X=X=X*X#XoX'.).^.!.Q.D.C.C.C.C.F.z.h.e.8.[ J h t o ,X,X,X,X,X,X",
",X,X,X,X,Xr :.S.`.+XoX X#X#X#X#XOXOXoX|.).Q.Y.D.C.C.C.D.C.x.e.w.3.3. .{ W P a o ,X,X,X,X,X",
",X,X,X,X,Xr -.C.(.].XX}.'.'.'.'.'.XXoX|.^.Y.C.F.F.C.J.J.C.h.w. .[ ]  .5.9.{ N 6 ,X,X,X,X,X",
",X,X,X,X: l 2.F.T.~.^.)._.'.'.'.'.'.'.^.Q.D.F.n.F.C.J.Y.J.h.7. ._ ] { q.u.9.E 7 ,X,X,X,X,X",
",X,XO a I <.d.C.J.I.P.Q.).|.oX.XXX_.!.P.Z.F.F.b.n.F.J.Y.J.x.w.[ _ ]  .q.t.9.R q ,X,X,X,X,X",
",X,X- n { i.v.A.Z.C.C.H.^.'.oXoX'.!.I.A.F.F.C.Z.C.C.D.J.Z.h.w. .[ ] { 5.6. .J 6 ,X,X,X,X,X",
",X,X9 Z %.k.M.D.G.C.C.Z.U.^._.'.^.Q.C.m.b.C.J.I.J.J.C.n.h.e.4.3. . .{ } Q L a ,X,X,X,X,X,X",
",X,X: V o.i.A.D.P.C.b.F.S.P.U.U.P.S.C.m.F.C.J.Y.P.J.F.f.w.3.{  .o.3.{ U h < ,X,X,X,X,X,X,X",
",X,X; n X.i.v.C.Z.S.C.C.C.C.Z.A.C.Z.C.C.C.C.C.D.D.A.h.7.X.[ } X.%.9.X.B 0 ,X,X,X,X,X,X,X,X",
",X,X: G o.0.g.h.z.V.S.S.D.C.A.C.A.D.I.D.C.n.d.x.x.h.s.3.[ _ ` X.6.q.%.J 7 ,X,X,X,X,X,X,X,X",
",X,Xt Y 5.0.q.1.s.z.G.P.I.Z.C.A.D.I.Y.J.b.f.7.7.w.w.7.X.] ` ` X.5.0.9.U q ,X,X,X,X,X,X,X,X",
",X,X: D O.&.+.X.1.l.C.I.S.C.F.Z.C.S.J.Z.l.w. .[ { O.X.X.X.{ } X.%.6.X.B 6 ,X,X,X,X,X,X,X,X",
",X,X@ a B / | +.q.g.v.n.n.l.d.d.l.l.z.h.e.3.[ _ _ ]  .O.5.9.6.%.{ ) B g o ,X,X,X,X,X,X,X,X",
",X,X,XO 6 x / %.u.i.i.p.w.1.1.1.1.w.w.1.2.{ ] ] ] [ { o.5.0.t.5.) v 0 . ,X,X,X,X,X,X,X,X,X",
",X,X,X,X  6 N X.6.%.O.} { X.X.X. .X.{  .{  .{ O.O.X.{ { { %.6.X.N 6   ,X,X,X,X,X,X,X,X,X,X",
",X,X,X,X,X= h B Z M C Z ] +.@.@.+...+.+.#.#.5.6.9.%.{ R B A Z N h * ,X,X,X,X,X,X,X,X,X,X,X",
",X,X,X,X,X,X1 6 % $ 5 h ) &.9.*.&.@.&.&.&.&.6.q.0.6.( h 7 $ 5 6 , ,X,X,X,X,X,X,X,X,X,X,X,X",
",X,X,X,X,X,X,X,X,X,X  < I  .&.#.{ { { { { {  .%.%.X.I < ,X,X,X,X,X,X,X,X,X,X,X,X,X,X,X,X,X",
",X,X,X,X,X,X,X,X,X,X,X@ k L T I L D K D D D G P J D k ,X,X,X,X,X,X,X,X,X,X,X,X,X,X,X,X,X,X",
",X,X,X,X,X,X,X,X,X,X,X,X@ - ; ; : < < < : < : 9 9 - # ,X,X,X,X,X,X,X,X,X,X,X,X,X,X,X,X,X,X",
",X,X,X,X,X,X,X,X,X,X,X,X,X,X,X,X,X,X,X,X,X,X,X,X,X,X,X,X,X,X,X,X,X,X,X,X,X,X,X,X,X,X,X,X,X",
",X,X,X,X,X,X,X,X,X,X,X,X,X,X,X,X,X,X,X,X,X,X,X,X,X,X,X,X,X,X,X,X,X,X,X,X,X,X,X,X,X,X,X,X,X"
};
